<svg width="30" height="30" viewBox="0 0 30 30" fill="none" xmlns="http://www.w3.org/2000/svg">
<path fill-rule="evenodd" clip-rule="evenodd" d="M21 28C24.866 28 28 24.866 28 21C28 17.134 24.866 14 21 14C17.134 14 14 17.134 14 21C14 24.866 17.134 28 21 28ZM18 19C18 18.4477 18.4477 18 19 18C19.5523 18 20 18.4477 20 19V23C20 23.5523 19.5523 24 19 24C18.4477 24 18 23.5523 18 23V19ZM22 19C22 18.4477 22.4477 18 23 18C23.5523 18 24 18.4477 24 19V23C24 23.5523 23.5523 24 23 24C22.4477 24 22 23.5523 22 23V19Z" fill="#FF8800"/>
<path fill-rule="evenodd" clip-rule="evenodd" d="M21 28C24.866 28 28 24.866 28 21C28 17.134 24.866 14 21 14C17.134 14 14 17.134 14 21C14 24.866 17.134 28 21 28ZM18 19C18 18.4477 18.4477 18 19 18C19.5523 18 20 18.4477 20 19V23C20 23.5523 19.5523 24 19 24C18.4477 24 18 23.5523 18 23V19ZM22 19C22 18.4477 22.4477 18 23 18C23.5523 18 24 18.4477 24 19V23C24 23.5523 23.5523 24 23 24C22.4477 24 22 23.5523 22 23V19Z" fill="#FF8800"/>
</svg>
