<svg width="20" height="20" viewBox="0 0 20 20" fill="none" xmlns="http://www.w3.org/2000/svg">
<path fill-rule="evenodd" clip-rule="evenodd" d="M12.25 4C13.7688 4.00001 15 5.23122 15 6.75V11.0498C16.1411 11.2814 17 12.2905 17 13.5C17 14.8807 15.8807 16 14.5 16C13.1193 16 12 14.8807 12 13.5C12 12.2905 12.8589 11.2814 14 11.0498V6.75C14 5.7835 13.2165 5.00001 12.25 5C11.2835 5 10.5 5.7835 10.5 6.75V13.25C10.5 14.7688 9.26877 16 7.75 16C6.23122 16 5 14.7688 5 13.25V8.94922C3.85895 8.71753 3 7.70943 3 6.5C3 5.11929 4.11929 4 5.5 4C6.88071 4 8 5.11929 8 6.5C8 7.70943 7.14105 8.71753 6 8.94922V13.25C6 14.2165 6.78351 15 7.75 15C8.71649 15 9.5 14.2165 9.5 13.25V6.75C9.50001 5.23122 10.7312 4 12.25 4ZM14.5 12C13.6716 12 13 12.6716 13 13.5C13 14.3284 13.6716 15 14.5 15C15.3284 15 16 14.3284 16 13.5C16 12.6716 15.3284 12 14.5 12ZM5.5 5C4.67157 5 4 5.67157 4 6.5C4 7.32843 4.67157 8 5.5 8C6.32843 8 7 7.32843 7 6.5C7 5.67157 6.32843 5 5.5 5Z" fill="#FF8800"/>
</svg>
