<svg width="52" height="52" viewBox="0 0 52 52" fill="none" xmlns="http://www.w3.org/2000/svg">
<path fill-rule="evenodd" clip-rule="evenodd" d="M17.6342 26L11.6342 33H34.3431C34.8736 33 35.3823 32.7893 35.7574 32.4142L36.5575 31.6141L41.7397 26L36.5575 20.3859L35.7574 19.5858C35.3823 19.2107 34.8736 19 34.3431 19H11.6342L17.6342 26ZM38 19L43.6609 25.1326C43.8789 25.3688 44 25.6785 44 26C44 26.3215 43.8789 26.6312 43.6609 26.8674L38 33L37.1716 33.8284C36.4214 34.5786 35.404 35 34.3431 35H10.309C10.1058 35 9.90537 34.9527 9.72361 34.8618C9.28013 34.6401 9 34.1868 9 33.691V33.5616C9 33.1992 9.12965 32.8487 9.36552 32.5736L15 26L9.36552 19.4264C9.12965 19.1513 9 18.8008 9 18.4384V18.309C9 17.8132 9.28013 17.3599 9.72361 17.1382C9.90537 17.0473 10.1058 17 10.309 17H34.3431C35.404 17 36.4214 17.4214 37.1716 18.1716L38 19Z" fill="white"/>
<path d="M22 26L11.65 33L17.65 26L11.65 19L22 26Z" fill="black" fill-opacity="0.2"/>
<path d="M11.6484 33L22 26H41.75L36 32.5L35.2111 32.8944C35.0723 32.9639 34.9192 33 34.7639 33H11.6484Z" fill="white" fill-opacity="0.2"/>
</svg>
