<svg width="375" height="90" viewBox="0 0 375 90" fill="none" xmlns="http://www.w3.org/2000/svg">
<g clip-path="url(#clip0_1775_311)">
<rect width="375" height="90" fill="white"/>
<path d="M0 0H375V90H0V0Z" fill="white"/>
<rect x="16" y="82" width="343" height="8" fill="#D7D8DB"/>
<path d="M114 83L108 89V77L114 83Z" fill="#EE5622"/>
<path d="M180 89L174 83L180 77V89Z" fill="#EE5622"/>
<path d="M125 82C125.552 82 126 82.4477 126 83C126 83.5523 125.552 84 125 84H118C117.448 84 117 83.5523 117 83C117 82.4477 117.448 82 118 82H125Z" fill="#EE5622"/>
<path d="M140 82C140.552 82 141 82.4477 141 83C141 83.5523 140.552 84 140 84H133C132.448 84 132 83.5523 132 83C132 82.4477 132.448 82 133 82H140Z" fill="#EE5622"/>
<path d="M155 82C155.552 82 156 82.4477 156 83C156 83.5523 155.552 84 155 84H148C147.448 84 147 83.5523 147 83C147 82.4477 147.448 82 148 82H155Z" fill="#EE5622"/>
<path d="M170 82C170.552 82 171 82.4477 171 83C171 83.5523 170.552 84 170 84H163C162.448 84 162 83.5523 162 83C162 82.4477 162.448 82 163 82H170Z" fill="#EE5622"/>
<path fill-rule="evenodd" clip-rule="evenodd" d="M160.992 33.0049C163.337 33.1107 165.307 34.8422 165.696 37.1777L167.683 49.0967C167.945 49.0339 168.218 49 168.5 49H171.5C173.433 49 175 50.567 175 52.5C175 54.433 173.433 56 171.5 56H170.716L171 56.333V76.5C171 78.9853 168.985 81 166.5 81C164.015 81 162 78.9853 162 76.5V75H126V76.5C126 78.9853 123.985 81 121.5 81C119.015 81 117 78.9853 117 76.5V56.333L117.284 56H116.5C114.567 56 113 54.433 113 52.5C113 50.567 114.567 49 116.5 49H119.5C119.781 49 120.054 49.0341 120.316 49.0967L122.304 37.1777C122.706 34.767 124.791 33.0001 127.235 33H160.765L160.992 33.0049ZM127.5 56C125.015 56 123 58.0147 123 60.5C123 62.9853 125.015 65 127.5 65C129.985 65 132 62.9853 132 60.5C132 58.0147 129.985 56 127.5 56ZM160.5 56C158.015 56 156 58.0147 156 60.5C156 62.9853 158.015 65 160.5 65C162.985 65 165 62.9853 165 60.5C165 58.0147 162.985 56 160.5 56ZM127.235 37C126.747 37.0001 126.329 37.3538 126.249 37.8359L124.222 50H163.778L161.751 37.8359C161.671 37.3538 161.253 37.0001 160.765 37H127.235Z" fill="#237BFF"/>
<circle cx="280" cy="42" r="32" fill="#EE5622"/>
<circle cx="280" cy="42" r="26" fill="white"/>
<path d="M260 54L268 42L260 30V54Z" fill="#212121"/>
<path d="M300 54L292 42L300 30V54Z" fill="#212121"/>
<path d="M274 32L276 42L278 32H282L284 42L286 32H290L286 52H282L280 42L278 52H274L270 32H274Z" fill="#212121"/>
</g>
<defs>
<clipPath id="clip0_1775_311">
<rect width="375" height="90" fill="white"/>
</clipPath>
</defs>
</svg>
