<svg width="30" height="30" viewBox="0 0 30 30" fill="none" xmlns="http://www.w3.org/2000/svg">
<path d="M11 12C10.4477 12 10 12.4477 10 13C10 13.5523 10.4477 14 11 14H19C19.5523 14 20 13.5523 20 13C20 12.4477 19.5523 12 19 12H11Z" fill="#FF8800"/>
<path fill-rule="evenodd" clip-rule="evenodd" d="M18 5H21C22.6569 5 24 6.34314 24 8V24C24 25.6569 22.6569 27 21 27H9C7.34315 27 6 25.6569 6 24V8C6 6.34315 7.34314 5 9 5H12C12 3.34315 13.3431 2 15 2C16.6569 2 18 3.34315 18 5ZM9 7C8.44772 7 8 7.44772 8 8V24C8 24.5523 8.44772 25 9 25H21C21.5523 25 22 24.5523 22 24V8C22 7.44772 21.5523 7 21 7H20V8C20 9.10457 19.1046 10 18 10H12C10.8954 10 10 9.10457 10 8V7H9ZM16 5C16 5.55228 15.5523 6 15 6C14.4477 6 14 5.55228 14 5C14 4.44772 14.4477 4 15 4C15.5523 4 16 4.44772 16 5Z" fill="#FF8800"/>
<g opacity="0.5">
<path d="M11 16C10.4477 16 10 16.4477 10 17C10 17.5523 10.4477 18 11 18H12C12.5523 18 13 17.5523 13 17C13 16.4477 12.5523 16 12 16H11Z" fill="#FF8800"/>
<path d="M16 16C15.4477 16 15 16.4477 15 17C15 17.5523 15.4477 18 16 18H19C19.5523 18 20 17.5523 20 17C20 16.4477 19.5523 16 19 16H16Z" fill="#FF8800"/>
</g>
</svg>
