<svg width="20" height="20" viewBox="0 0 20 20" fill="none" xmlns="http://www.w3.org/2000/svg">
<path d="M2.29289 3.70711C1.90237 3.31658 1.90237 2.68342 2.29289 2.29289C2.68342 1.90237 3.31658 1.90237 3.70711 2.29289L11 9.58579V9C11 8.44772 11.4477 8 12 8C12.5523 8 13 8.44772 13 9V11.5858L15 13.5858V5C15 4.44772 15.4477 4 16 4C16.5523 4 17 4.44772 17 5V15C17 15.1695 16.9578 15.3292 16.8834 15.4691L17.7071 16.2929C18.0976 16.6834 18.0976 17.3166 17.7071 17.7071C17.3166 18.0976 16.6834 18.0976 16.2929 17.7071L2.29289 3.70711Z" fill="#FF8800"/>
<path d="M9 12.9142L7.33708 11.2513C7.13032 11.4345 7 11.702 7 12V15C7 15.5523 7.44772 16 8 16C8.55229 16 9 15.5523 9 15V12.9142Z" fill="#FF8800"/>
<path d="M12.0824 15.9967L11 14.9142V15C11 15.5523 11.4477 16 12 16C12.0278 16 12.0553 15.9989 12.0824 15.9967Z" fill="#FF8800"/>
<path d="M4 13C3.44772 13 3 13.4477 3 14V15C3 15.5523 3.44772 16 4 16C4.55229 16 5 15.5523 5 15V14C5 13.4477 4.55229 13 4 13Z" fill="#FF8800"/>
</svg>
