<svg width="30" height="30" viewBox="0 0 30 30" fill="none" xmlns="http://www.w3.org/2000/svg">
<path d="M9 6C9 5.44772 9.44772 5 10 5H12C12.5523 5 13 5.44772 13 6C13 6.55228 12.5523 7 12 7H10C9.44772 7 9 6.55228 9 6Z" fill="#FF8800"/>
<path d="M12.5307 12.3045C12.0454 12.1035 11.5253 12 11 12V16L15 16C15 15.4747 14.8965 14.9546 14.6955 14.4693C14.4945 13.984 14.1999 13.543 13.8284 13.1716C13.457 12.8001 13.016 12.5055 12.5307 12.3045Z" fill="#FF8800"/>
<path fill-rule="evenodd" clip-rule="evenodd" d="M19 16C19 20.4183 15.4183 24 11 24C6.58172 24 3 20.4183 3 16C3 11.5817 6.58172 8 11 8C12.5913 8 14.0741 8.46463 15.3202 9.26562L16.2929 8.29289C16.6834 7.90237 17.3166 7.90237 17.7071 8.29289C18.0976 8.68342 18.0976 9.31658 17.7071 9.70711L16.8602 10.554C18.1879 11.9821 19 13.8962 19 16ZM11 22C14.3137 22 17 19.3137 17 16C17 12.6863 14.3137 10 11 10C7.68629 10 5 12.6863 5 16C5 19.3137 7.68629 22 11 22Z" fill="#FF8800"/>
<path d="M22 9C22.5523 9 23 9.44771 23 10V19.5858L24.2929 18.2929C24.6834 17.9024 25.3166 17.9024 25.7071 18.2929C26.0976 18.6834 26.0976 19.3166 25.7071 19.7071L22.7071 22.7071C22.4211 22.9931 21.991 23.0787 21.6173 22.9239C21.2436 22.7691 21 22.4045 21 22V10C21 9.44771 21.4477 9 22 9Z" fill="#FF8800"/>
</svg>
