<svg width="30" height="30" viewBox="0 0 30 30" fill="none" xmlns="http://www.w3.org/2000/svg">
<path fill-rule="evenodd" clip-rule="evenodd" d="M5.99996 20.8284L3.58575 18.4142C3.21068 18.0391 2.99996 17.5304 2.99996 17V11C2.99996 9.89543 3.89539 9 4.99996 9H7.99996C8.66867 9 9.29313 9.3342 9.66406 9.8906L11 11.8944V7C11 5.34315 12.3431 4 14 4C15.3062 4 16.4174 4.83481 16.8293 6H17C18.6568 6 20 7.34315 20 9C20 9.54643 19.8539 10.0587 19.5986 10.5C19.8539 10.9413 20 11.4536 20 12C20 12.5464 19.8539 13.0587 19.5986 13.5C19.6295 13.5533 19.6587 13.6077 19.6863 13.663L24.3675 12.1026C24.9774 11.8993 25.6478 12.0016 26.1694 12.3775C26.6909 12.7534 27 13.3571 27 14V19C27 19.5936 26.7363 20.1565 26.2803 20.5364L20.2803 25.5364C19.9209 25.836 19.4678 26 19 26H7.99996C6.89539 26 5.99996 25.1046 5.99996 24V20.8284Z" fill="#47566B"/>
<path fill-rule="evenodd" clip-rule="evenodd" d="M11 14H10L8 11H5V17L8 20V24H19L25 19V14L19.9194 15.6935C19.6709 16.7437 18.8704 17.5805 17.8411 17.8805C17.9445 18.2356 18 18.6112 18 19C18 21.2091 16.2091 23 14 23C11.7909 23 10 21.2091 10 19C10 17.9845 10.3789 17.0586 11 16.3546V14ZM7 13.1056L8 14.6056V17.1716L7 16.1716V13.1056Z" fill="#FFC107"/>
<path d="M15 7C15 6.44772 14.5523 6 14 6C13.4477 6 13 6.44772 13 7V17.2676C12.4022 17.6134 12 18.2597 12 19C12 20.1046 12.8954 21 14 21C15.1046 21 16 20.1046 16 19C16 18.2597 15.5978 17.6134 15 17.2676V16H17C17.5523 16 18 15.5523 18 15C18 14.4477 17.5523 14 17 14H15V13H17C17.5523 13 18 12.5523 18 12C18 11.4477 17.5523 11 17 11H15V10H17C17.5523 10 18 9.55228 18 9C18 8.44772 17.5523 8 17 8H15V7Z" fill="#FFC107"/>
</svg>
