<svg width="30" height="30" viewBox="0 0 30 30" fill="none" xmlns="http://www.w3.org/2000/svg">
<path d="M10 13C11.1046 13 12 12.1046 12 11C12 9.89543 11.1046 9 10 9C8.89543 9 8 9.89543 8 11C8 12.1046 8.89543 13 10 13Z" fill="#FF8800"/>
<path fill-rule="evenodd" clip-rule="evenodd" d="M3.70711 25.7071L25.7071 3.70711C26.0976 3.31658 26.0976 2.68342 25.7071 2.29289C25.3166 1.90237 24.6834 1.90237 24.2929 2.29289L21.7869 4.79892C19.773 3.63766 17.3835 3 15 3C8.37258 2.99999 3 8.37259 3 15C3 17.4406 3.7286 19.711 4.98015 21.6056L2.29289 24.2929C1.90237 24.6834 1.90237 25.3166 2.29289 25.7071C2.68342 26.0976 3.31658 26.0976 3.70711 25.7071ZM6.42989 20.1559C5.52219 18.6504 5 16.8862 5 15C5 9.47715 9.47715 4.99999 15 5C16.8601 5 18.7153 5.45582 20.3125 6.27324L17.9642 8.62154C17.7873 7.69794 16.9752 7 16 7C14.8954 7 14 7.89543 14 9C14 9.97518 14.6979 10.7873 15.6215 10.9642L10.6766 15.9092C10.3198 15.3618 9.70214 15 9 15C7.89543 15 7 15.8954 7 17C7 17.7021 7.36182 18.3198 7.90917 18.6766L6.42989 20.1559Z" fill="#FF8800"/>
<path d="M22.3258 10.5026L19.5026 13.3258C19.869 13.7394 20.4041 14 21 14C22.1046 14 23 13.1046 23 12C23 11.4041 22.7394 10.869 22.3258 10.5026Z" fill="#FF8800"/>
<path d="M15 25C12.9618 25 11.0661 24.3902 9.48522 23.3432L8.04693 24.7815C10.0086 26.1784 12.4083 27 15 27C16.5995 27 17.8804 26.7666 18.8016 26.5118C20.2659 26.1068 21 24.739 21 23.4331C21 23.0388 20.9364 22.647 20.8117 22.2729L20.037 19.9487C20.0125 19.8752 20 19.7982 20 19.7208C20 19.3227 20.3227 19 20.7208 19H21.25C22.9956 19 25.3567 18.5018 26.3712 16.4743C26.8527 15.5119 27 14.4702 27 13.1667C27 11.0667 26.2884 9.21683 25.1324 7.69601L23.7022 9.12625C24.5248 10.292 25 11.6558 25 13.1667C25 14.3292 24.8651 15.0147 24.5826 15.5793C24.1087 16.5264 22.8306 17 21.25 17H20.7208C19.2181 17 18 18.2181 18 19.7208C18 20.0132 18.0471 20.3037 18.1396 20.5811L18.9144 22.9053C18.9711 23.0755 19 23.2537 19 23.4331C19 24.0621 18.669 24.4734 18.2685 24.5842C17.5047 24.7954 16.4033 25 15 25Z" fill="#FF8800"/>
</svg>
