<svg width="30" height="30" viewBox="0 0 30 30" fill="none" xmlns="http://www.w3.org/2000/svg">
<path fill-rule="evenodd" clip-rule="evenodd" d="M21 28.0001C24.866 28.0001 28 24.8661 28 21.0001C28 17.1341 24.866 14.0001 21 14.0001C17.134 14.0001 14 17.1341 14 21.0001C14 24.8661 17.134 28.0001 21 28.0001ZM19.2929 17.2929C19.6834 16.9024 20.3166 16.9024 20.7071 17.2929C21.0976 17.6834 21.0976 18.3166 20.7071 18.7071L19.4142 20H25C25.5523 20 26 20.4477 26 21C26 21.5523 25.5523 22 25 22H19.4142L20.7071 23.2929C21.0976 23.6834 21.0976 24.3166 20.7071 24.7071C20.3166 25.0976 19.6834 25.0976 19.2929 24.7071L16.2929 21.7071C15.9024 21.3166 15.9024 20.6834 16.2929 20.2929L19.2929 17.2929Z" fill="#FF8800"/>
</svg>
