<svg width="16" height="16" viewBox="0 0 16 16" fill="none" xmlns="http://www.w3.org/2000/svg">
<path d="M8,15C8,15 13,9.5714 13,6C13,3.1429 10.7614,1 8,1C5.2386,1 3,3.1429 3,6C3,9.5714 8,15 8,15ZM8,8C9.1046,8 10,7.1046 10,6C10,4.8954 9.1046,4 8,4C6.8954,4 6,4.8954 6,6C6,7.1046 6.8954,8 8,8Z" fill="#ffffff" fill-rule="evenodd" clip-rule="evenodd"/>
<path d="M8,15C8,15 13,9.5714 13,6C13,3.1429 10.7614,1 8,1C5.2386,1 3,3.1429 3,6C3,9.5714 8,15 8,15ZM8,8C9.1046,8 10,7.1046 10,6C10,4.8954 9.1046,4 8,4C6.8954,4 6,4.8954 6,6C6,7.1046 6.8954,8 8,8Z" fill="#ffffff" fill-rule="evenodd" clip-rule="evenodd"/>
</svg>
