<svg width="56" height="56" viewBox="0 0 56 56" fill="none" xmlns="http://www.w3.org/2000/svg">
<path opacity="0.4" d="M0 9C0 4.02944 4.02944 0 9 0H47C51.9706 0 56 4.02944 56 9V47C56 51.9706 51.9706 56 47 56H9C4.02944 56 0 51.9706 0 47V9Z" fill="white"/>
<path d="M1 9C1 4.58172 4.58172 1 9 1H47C51.4183 1 55 4.58172 55 9V47C55 51.4183 51.4183 55 47 55H9C4.58172 55 1 51.4183 1 47V9Z" fill="#BEBEBE"/>
<path fill-rule="evenodd" clip-rule="evenodd" d="M9 3C5.68629 3 3 5.68629 3 9V47C3 50.3137 5.68629 53 9 53H47C50.3137 53 53 50.3137 53 47V9C53 5.68629 50.3137 3 47 3H9ZM9 7C7.89543 7 7 7.89543 7 9V47C7 48.1046 7.89543 49 9 49H47C48.1046 49 49 48.1046 49 47V9C49 7.89543 48.1046 7 47 7H9Z" fill="black"/>
</svg>
