<svg width="24" height="24" viewBox="0 0 24 24" fill="none" xmlns="http://www.w3.org/2000/svg">
<defs>
  <linearGradient id="g1" gradientUnits="userSpaceOnUse" x1="7" y1="12" x2="13.085" y2="21.1068">
    <stop offset="0" stop-color="#002080"/>
    <stop offset="0.969423" stop-color="#1852FF"/>
  </linearGradient>
  <linearGradient id="g2" gradientUnits="userSpaceOnUse" x1="3" y1="10" x2="5" y2="9">
    <stop offset="0" stop-color="#4D79FF"/>
    <stop offset="0.485577" stop-color="#1852FF"/>
    <stop offset="1" stop-color="#003AE6"/>
  </linearGradient>
  <linearGradient id="g3" gradientUnits="userSpaceOnUse" x1="5.50003" y1="9.66968" x2="8.00003" y2="13.9998">
    <stop offset="0" stop-color="#1852FF"/>
    <stop offset="0.312917" stop-color="#4D79FF"/>
    <stop offset="0.73143" stop-color="#003AE6"/>
    <stop offset="0.924671" stop-color="#4D79FF"/>
    <stop offset="1" stop-color="#1852FF"/>
  </linearGradient>
  <linearGradient id="g4" gradientUnits="userSpaceOnUse" x1="11" y1="9.99998" x2="13" y2="12">
    <stop offset="0" stop-color="#002080"/>
    <stop offset="1" stop-color="#1852FF"/>
  </linearGradient>
  <linearGradient id="g5" gradientUnits="userSpaceOnUse" x1="10.5" y1="8.4019" x2="13.5" y2="13.5">
    <stop offset="0" stop-color="#FAAF46"/>
    <stop offset="1" stop-color="#F99E20"/>
  </linearGradient>
</defs>
<path d="M3,22a9,1 0,1 0,18 0a9,1 0,1 0,-18 0z" fill="#434959" fill-opacity="0.2" stroke-opacity="0.2"/>
<path d="M18.5938,22H16.3154L12,14.0879L7.6846,22H5.4063L11.1221,11.5215L12,12L12.8779,11.5215L18.5938,22Z" fill="url(#g1)"/>
<path d="M3.9794,7.4995L5.7118,10.5002L3.9797,11.5002L2.2473,8.4995L3.9794,7.4995Z" fill="url(#g2)"/>
<path d="M18.7499,2.0598L21.2499,6.39L5.1828,15.6663C4.9436,15.8044 4.6378,15.7225 4.4998,15.4833L2.4998,12.0192C2.3617,11.7801 2.4436,11.4743 2.6828,11.3362L18.7499,2.0598Z" fill="url(#g3)"/>
<path d="M17.8165,1.444C18.0556,1.3059 18.3614,1.3878 18.4995,1.6269L21.5002,6.8227C21.6383,7.0618 21.5564,7.3677 21.3172,7.5057L20.6829,7.8719C20.4438,8.01 20.1381,7.9281 20,7.689L16.9992,2.4933C16.8611,2.2541 16.943,1.9483 17.1822,1.8102L17.8165,1.444Z" fill="#FAAF46"/>
<path d="M13,11C13,11.5523 12.5523,12 12,12C11.4477,12 11,11.5523 11,11C11,10.4477 11.4477,10 12,10C12.5523,10 13,10.4477 13,11Z" fill="url(#g4)"/>
<path d="M13,11C13,10.4477 12.5523,10 12,10C11.4477,10 11,10.4477 11,11C11,11.5523 11.4477,12 12,12C12.5523,12 13,11.5523 13,11ZM15,11C15,12.6568 13.6569,14 12,14C10.3431,14 9,12.6568 9,11C9,9.3431 10.3431,8 12,8C13.6569,8 15,9.3431 15,11Z" fill="url(#g5)"/>
</svg>
