<svg width="30" height="30" viewBox="0 0 30 30" fill="none" xmlns="http://www.w3.org/2000/svg">
<path d="M15.998 6C16.5514 6.00003 17 6.4486 17 7.00195V22.5C17 23.3284 16.3284 24 15.5 24H4.12305C3.50298 24 3 23.497 3 22.877C3.00007 22.6323 3.07983 22.3942 3.22754 22.1992L15.1992 6.39648C15.3886 6.1466 15.6845 6 15.998 6Z" fill="#FF8800"/>
<path d="M23 6C23.3095 6 23.5959 6.16431 23.752 6.43164L26.8926 11.8164C26.9628 11.9368 27 12.0736 27 12.2129C27 12.6476 26.6476 13 26.2129 13H24V23C24 23.5523 23.5523 24 23 24C22.4477 24 22 23.5523 22 23V13H19.7871C19.3524 13 19 12.6476 19 12.2129C19 12.0736 19.0372 11.9368 19.1074 11.8164L22.248 6.43164C22.4041 6.16431 22.6905 6 23 6Z" fill="#FF8800"/>
</svg>
