<svg width="30" height="30" viewBox="0 0 30 30" fill="none" xmlns="http://www.w3.org/2000/svg">
<path fill-rule="evenodd" clip-rule="evenodd" d="M13.0001 21.0001H9V21.5C9 22.3284 8.32843 23 7.5 23C6.67157 23 6 22.3284 6 21.5L6 15.0001C5.44772 15.0001 5 14.5523 5 14.0001C5 13.4478 5.44772 13.0001 6 13.0001H6.99997L7.72147 8.6712C7.8822 7.70683 8.71658 7 9.69425 7H20.3057C21.0377 7 21.6893 7.39618 22.0381 8H19.7208C18.8482 8 18.0418 8.37731 17.4846 9H9.69425L9.02759 13H13.0001V21.0001ZM9.5 15C8.67157 15 8 15.6716 8 16.5C8 17.3284 8.67157 18 9.5 18C10.3284 18 11 17.3284 11 16.5C11 15.6716 10.3284 15 9.5 15Z" fill="#FF8800"/>
<path fill-rule="evenodd" clip-rule="evenodd" d="M18.0125 13.0061C18.021 12.9519 18.0341 12.8983 18.0515 12.846L18.7723 10.6838C18.9084 10.2754 19.2905 10 19.721 10H24.0002C24.5525 10 25.0002 10.4477 25.0002 11V22C25.0002 22.5523 24.5525 23 24.0002 23H16.0002C15.4479 23 15.0002 22.5523 15.0002 22V15C15.0002 14.4028 15.3823 13.8726 15.9489 13.6838L18.0002 13L18.0125 13.0061ZM20.4417 12H23.0002V14H20.0002V13.3246L20.4417 12Z" fill="#FF8800"/>
<path d="M17.4745 11.8419C17.5619 12.1039 17.4203 12.387 17.1583 12.4743L15.6583 12.9743C15.3963 13.0617 15.1132 12.9201 15.0259 12.6581C14.9385 12.3961 15.0801 12.113 15.3421 12.0257L16.8421 11.5257C17.1041 11.4383 17.3872 11.5799 17.4745 11.8419Z" fill="#FF8800"/>
</svg>
