<svg width="30" height="30" viewBox="0 0 30 30" fill="none" xmlns="http://www.w3.org/2000/svg">
<path fill-rule="evenodd" clip-rule="evenodd" d="M23.1943 22.0927C23.3038 21.9597 23.4559 21.7705 23.6364 21.5341C23.9959 21.0634 24.4758 20.3952 24.9584 19.6024C25.8771 18.0932 27 15.8226 27 13.5C27 10.4624 24.5376 8 21.5 8C19.5865 8 17.9012 8.9772 16.9159 10.4598L15.4341 8.28644C14.8853 7.48156 13.9742 7 13 7C12.0258 7 11.1147 7.48156 10.5659 8.28644L3.48035 18.6785C3.16739 19.1376 3 19.6802 3 20.2357C3 21.7624 4.2376 23 5.76425 23C11.0095 23 16.2548 23 21.5 23C22.2106 23 22.7612 22.6186 23.1943 22.0927Z" fill="#595959"/>
<path d="M5.76425 21C5.34217 21 5 20.6578 5 20.2357C5 20.0822 5.04628 19.9321 5.13281 19.8052L12.2183 9.41311C12.3946 9.15464 12.6872 9 13 9C13.3128 9 13.6054 9.15464 13.7817 9.41311L20.8672 19.8052C20.9537 19.9321 21 20.0822 21 20.2357C21 20.6578 20.6578 21 20.2357 21H5.76425Z" fill="url(#paint0_linear_1903_15691)"/>
<path d="M16.6147 13.5682L13.7817 9.41311C13.6054 9.15464 13.3128 9 13 9C12.6872 9 12.3946 9.15464 12.2183 9.41311L9.81866 12.9326L10.7105 14.4934C10.8895 14.8067 11.2227 15 11.5835 15C11.8502 15 12.1059 14.8941 12.2945 14.7055L13.8425 13.1575C13.9434 13.0566 14.0801 13 14.2227 13C14.3967 13 14.5595 13.0847 14.6722 13.2172C14.947 13.5402 15.5043 14.0991 16 14C16.2293 13.9541 16.4437 13.7678 16.6147 13.5682Z" fill="url(#paint1_linear_1903_15691)"/>
<path opacity="0.5" d="M19.3636 21.5341C19.0041 21.0634 18.5242 20.3952 18.0416 19.6024C17.1229 18.0932 16 15.8226 16 13.5C16 10.4624 18.4624 8 21.5 8C24.5376 8 27 10.4624 27 13.5C27 15.8226 25.8771 18.0932 24.9584 19.6024C24.4758 20.3952 23.9959 21.0634 23.6364 21.5341C23.433 21.8005 23.2254 22.0643 23.0052 22.317C22.6254 22.751 22.0767 23 21.5 23C20.9233 23 20.3746 22.751 19.9948 22.317C19.7746 22.0643 19.567 21.8005 19.3636 21.5341Z" fill="#595959"/>
<path fill-rule="evenodd" clip-rule="evenodd" d="M21.5 21C21.5 21 25 17 25 13.5C25 11.567 23.433 10 21.5 10C19.567 10 18 11.567 18 13.5C18 17 21.5 21 21.5 21ZM21.5 15C22.3284 15 23 14.3284 23 13.5C23 12.6716 22.3284 12 21.5 12C20.6716 12 20 12.6716 20 13.5C20 14.3284 20.6716 15 21.5 15Z" fill="#D9CF34"/>
<defs>
<linearGradient id="paint0_linear_1903_15691" x1="8.5" y1="11" x2="18.5" y2="22" gradientUnits="userSpaceOnUse">
<stop stop-color="#5A8DDD"/>
<stop offset="1" stop-color="#1D73FA"/>
</linearGradient>
<linearGradient id="paint1_linear_1903_15691" x1="9.81866" y1="11" x2="17.1457" y2="11" gradientUnits="userSpaceOnUse">
<stop stop-color="#EDEDED"/>
<stop offset="1" stop-color="#EDEDED" stop-opacity="0.76"/>
</linearGradient>
</defs>
</svg>
