<svg width="30" height="30" viewBox="0 0 30 30" fill="none" xmlns="http://www.w3.org/2000/svg">
<path d="M9 20C9.82843 20 10.5 20.6716 10.5 21.5V23.5C10.5 24.3284 9.82843 25 9 25H6.5C5.67157 25 5 24.3284 5 23.5V21.5C5 20.6716 5.67157 20 6.5 20H9Z" fill="#FF8800"/>
<path d="M16.25 20C17.0784 20 17.75 20.6716 17.75 21.5V23.5C17.75 24.3284 17.0784 25 16.25 25H13.75C12.9216 25 12.25 24.3284 12.25 23.5V21.5C12.25 20.6716 12.9216 20 13.75 20H16.25Z" fill="#FF8800"/>
<path d="M23.5 20C24.3284 20 25 20.6716 25 21.5V23.5C25 24.3284 24.3284 25 23.5 25H21C20.1716 25 19.5 24.3284 19.5 23.5V21.5C19.5 20.6716 20.1716 20 21 20H23.5Z" fill="#FF8800"/>
<path d="M9 12.5C9.82843 12.5 10.5 13.1716 10.5 14V16C10.5 16.8284 9.82843 17.5 9 17.5H6.5C5.67157 17.5 5 16.8284 5 16V14C5 13.1716 5.67157 12.5 6.5 12.5H9Z" fill="#FF8800"/>
<path d="M16.25 12.5C17.0784 12.5 17.75 13.1716 17.75 14V16C17.75 16.8284 17.0784 17.5 16.25 17.5H13.75C12.9216 17.5 12.25 16.8284 12.25 16V14C12.25 13.1716 12.9216 12.5 13.75 12.5H16.25Z" fill="#FF8800"/>
<path d="M23.5 12.5C24.3284 12.5 25 13.1716 25 14V16C25 16.8284 24.3284 17.5 23.5 17.5H21C20.1716 17.5 19.5 16.8284 19.5 16V14C19.5 13.1716 20.1716 12.5 21 12.5H23.5Z" fill="#FF8800"/>
<path d="M9 5C9.82843 5 10.5 5.67157 10.5 6.5V8.5C10.5 9.32843 9.82843 10 9 10H6.5C5.67157 10 5 9.32843 5 8.5V6.5C5 5.67157 5.67157 5 6.5 5H9Z" fill="#FF8800"/>
<path d="M16.25 5C17.0784 5 17.75 5.67157 17.75 6.5V8.5C17.75 9.32843 17.0784 10 16.25 10H13.75C12.9216 10 12.25 9.32843 12.25 8.5V6.5C12.25 5.67157 12.9216 5 13.75 5H16.25Z" fill="#FF8800"/>
<path d="M23.5 5C24.3284 5 25 5.67157 25 6.5V8.5C25 9.32843 24.3284 10 23.5 10H21C20.1716 10 19.5 9.32843 19.5 8.5V6.5C19.5 5.67157 20.1716 5 21 5H23.5Z" fill="#FF8800"/>
</svg>
