<svg width="30" height="30" viewBox="0 0 30 30" fill="none" xmlns="http://www.w3.org/2000/svg">
<path fill-rule="evenodd" clip-rule="evenodd" d="M5 14C5 8.47715 9.47715 4 15 4C20.5228 4 25 8.47715 25 14C25 18.1435 22.4799 21.6984 18.8889 23.2157C17.3611 23.8612 16.25 24.4167 15.9722 25.5278C15.8333 26.0833 15.4861 26.5 15 26.5C14.5139 26.5 14.1667 26.0833 14.0278 25.5278C13.75 24.4167 12.6389 23.8612 11.1111 23.2157C7.52006 21.6984 5 18.1435 5 14ZM15 19C17.7614 19 20 16.7614 20 14C20 11.2386 17.7614 9 15 9C12.2386 9 10 11.2386 10 14C10 16.7614 12.2386 19 15 19Z" fill="url(#paint0_linear_1011_10917)"/>
<path d="M20 14C20 16.7614 17.7614 19 15 19C12.2386 19 10 16.7614 10 14C10 11.2386 12.2386 9 15 9C17.7614 9 20 11.2386 20 14Z" fill="url(#paint1_linear_1011_10917)"/>
<defs>
<linearGradient id="paint0_linear_1011_10917" x1="15" y1="4" x2="15" y2="26.5" gradientUnits="userSpaceOnUse">
<stop stop-color="#77D498"/>
<stop offset="1" stop-color="#4C956C"/>
</linearGradient>
<linearGradient id="paint1_linear_1011_10917" x1="15" y1="9" x2="15" y2="19" gradientUnits="userSpaceOnUse">
<stop stop-color="#346549"/>
<stop offset="1" stop-color="#3C7656"/>
</linearGradient>
</defs>
</svg>
