<svg width="30" height="30" viewBox="0 0 30 30" fill="none" xmlns="http://www.w3.org/2000/svg">
<path d="M14.3333 15C14.3333 15.5523 13.8855 16 13.3333 16C12.781 16 12.3333 15.5523 12.3333 15C12.3333 14.4477 12.781 14 13.3333 14C13.8855 14 14.3333 14.4477 14.3333 15Z" fill="#FF8800"/>
<path d="M17.9999 18.6667C18.5522 18.6667 18.9999 18.219 18.9999 17.6667C18.9999 17.1144 18.5522 16.6667 17.9999 16.6667C17.4476 16.6667 16.9999 17.1144 16.9999 17.6667C16.9999 18.219 17.4476 18.6667 17.9999 18.6667Z" fill="#FF8800"/>
<path d="M12 19.3332C12.5523 19.3332 13 18.8855 13 18.3332C13 17.7809 12.5523 17.3332 12 17.3332C11.4477 17.3332 11 17.7809 11 18.3332C11 18.8855 11.4477 19.3332 12 19.3332Z" fill="#FF8800"/>
<path d="M16.6666 16C17.2189 16 17.6666 15.5523 17.6666 15C17.6666 14.4477 17.2189 14 16.6666 14C16.1144 14 15.6666 14.4477 15.6666 15C15.6666 15.5523 16.1144 16 16.6666 16Z" fill="#FF8800"/>
<path fill-rule="evenodd" clip-rule="evenodd" d="M6 5C6 3.89543 6.89543 3 8 3H18V7C18 8.10457 18.8954 9 20 9H24V25C24 26.1046 23.1046 27 22 27H8C6.89543 27 6 26.1046 6 25V5ZM21 17.3333C21 20 18.6667 20.6667 17 20.6667C15.5311 20.9115 15.8602 21.6957 16.1386 22.359C16.2393 22.5989 16.3333 22.823 16.3333 23C16.3333 23.3333 15.8272 24 15 24C11.6863 24 9 21.3137 9 18C9 14.6863 11.6863 12 15 12C18.3137 12 21 14.3333 21 17.3333Z" fill="#FF8800"/>
<path opacity="0.5" d="M18 3L24 9H20C18.8954 9 18 8.10457 18 7V3Z" fill="#FF8800"/>
</svg>
