<svg width="30" height="30" viewBox="0 0 30 30" fill="none" xmlns="http://www.w3.org/2000/svg">
<path fill-rule="evenodd" clip-rule="evenodd" d="M15 3C21.6274 3 27 8.37258 27 15C27 21.6274 21.6274 27 15 27C8.37258 27 3 21.6274 3 15C3 8.37258 8.37258 3 15 3ZM10.7061 19.293C10.3155 18.903 9.68234 18.9026 9.29199 19.293L8.3418 20.2432C7.95233 20.6336 7.95307 21.266 8.34277 21.6562C8.7332 22.0467 9.3663 22.0465 9.75684 21.6562L10.7061 20.707C11.0966 20.3165 11.0966 19.6835 10.7061 19.293ZM12 18L21 21L18 12L9 9L12 18ZM21.6562 8.34277C21.2658 7.95281 20.6326 7.95264 20.2422 8.34277L19.292 9.29199C18.9019 9.68238 18.902 10.3166 19.292 10.707C19.6824 11.0975 20.3165 11.0973 20.707 10.707L21.6562 9.75684C22.0465 9.36629 22.0467 8.73322 21.6562 8.34277Z" fill="#FF8800"/>
<path d="M16 15C16 15.5523 15.5523 16 15 16C14.4477 16 14 15.5523 14 15C14 14.4477 14.4477 14 15 14C15.5523 14 16 14.4477 16 15Z" fill="#FF8800"/>
<path opacity="0.5" d="M18 12L9 9L12 18L18 12Z" fill="#FF8800"/>
</svg>
