<svg width="30" height="30" viewBox="0 0 30 30" fill="none" xmlns="http://www.w3.org/2000/svg">
<g opacity="0.5">
<path d="M4.16992 9.82617C4.64482 10.3017 5.2388 10.6576 5.90332 10.8467C5.3247 12.1119 5 13.5178 5 15C5 20.5228 9.47715 25 15 25C16.1464 25 17.2468 24.8044 18.2725 24.4492C18.5298 25.1107 18.957 25.6866 19.502 26.123C18.1114 26.6864 16.5926 27 15 27C8.37258 27 3 21.6274 3 15C3 13.1473 3.42015 11.3928 4.16992 9.82617Z" fill="#FF8800"/>
<path d="M15 3C21.6274 3 27 8.37258 27 15C27 17.1603 26.4259 19.1855 25.4268 20.9365C25.0637 20.3349 24.5471 19.8365 23.9307 19.4961C24.6127 18.1441 25 16.6177 25 15C25 9.47715 20.5228 5 15 5C13.5178 5 12.1119 5.3247 10.8467 5.90332C10.6576 5.2388 10.3017 4.64482 9.82617 4.16992C11.3928 3.42015 13.1473 3 15 3Z" fill="#FF8800"/>
</g>
<path opacity="0.2" fill-rule="evenodd" clip-rule="evenodd" d="M15 7C19.4183 7 23 10.5817 23 15C23 19.4183 19.4183 23 15 23C10.5817 23 7 19.4183 7 15C7 10.5817 10.5817 7 15 7ZM15 9C11.6863 9 9 11.6863 9 15C9 18.3137 11.6863 21 15 21C18.3137 21 21 18.3137 21 15C21 11.6863 18.3137 9 15 9Z" fill="#FF8800"/>
<path d="M18 15C18 16.6569 16.6569 18 15 18C13.3431 18 12 16.6569 12 15C12 13.3431 13.3431 12 15 12C16.6569 12 18 13.3431 18 15Z" fill="#FF8800"/>
<g opacity="0.8">
<path d="M22 21C23.1046 21 24 21.8954 24 23C24 24.1046 23.1046 25 22 25C20.8954 25 20 24.1046 20 23C20 21.8954 20.8954 21 22 21Z" fill="#FF8800"/>
<path d="M7 5C8.10457 5 9 5.89543 9 7C9 8.10457 8.10457 9 7 9C5.89543 9 5 8.10457 5 7C5 5.89543 5.89543 5 7 5Z" fill="#FF8800"/>
</g>
</svg>
