<svg width="30" height="30" viewBox="0 0 30 30" fill="none" xmlns="http://www.w3.org/2000/svg">
<path d="M15 6C13.3431 6 12 7.34315 12 9V16.9996C10.7856 17.9118 10 19.3642 10 21C10 23.7614 12.2386 26 15 26C17.7614 26 20 23.7614 20 21C20 19.3642 19.2144 17.9118 18 16.9996V9C18 7.34315 16.6569 6 15 6Z" fill="white" fill-opacity="0.3"/>
<path d="M15 5C13.3431 5 12 6.34315 12 8V15.9996C10.7856 16.9118 10 18.3642 10 20C10 22.7614 12.2386 25 15 25C17.7614 25 20 22.7614 20 20C20 18.3642 19.2144 16.9118 18 15.9996V8C18 6.34315 16.6569 5 15 5Z" fill="#59361B"/>
<path d="M14.0001 16.9987L13.2012 17.5988C12.7303 17.9525 12.3688 18.4381 12.1704 19H17.8298C17.6314 18.4381 17.2699 17.9525 16.7989 17.5988L16.0001 16.9987V8C16.0001 7.44772 15.5524 7 15.0001 7C14.4478 7 14.0001 7.44772 14.0001 8V9H15.0001V11H14.0001V13H15.0001V15H14.0001V16.9987Z" fill="#FFC107"/>
</svg>
