<svg width="30" height="30" viewBox="0 0 30 30" fill="none" xmlns="http://www.w3.org/2000/svg">
<path d="M5 22L25 22V24C25 25.1046 24.1046 26 23 26H7C5.89543 26 5 25.1046 5 24V22Z" fill="black" fill-opacity="0.3"/>
<path d="M5 7C5 5.89543 5.89543 5 7 5H23C24.1046 5 25 5.89543 25 7V23C25 24.1046 24.1046 25 23 25H7C5.89543 25 5 24.1046 5 23V7Z" fill="#FFC107"/>
<path d="M7 7H23V23H7V7Z" fill="#59361B"/>
<path fill-rule="evenodd" clip-rule="evenodd" d="M9 13H12V14H10V15H12V16H10V18H9V15.5V13ZM13 13H15.5C16.3284 13 17 13.6716 17 14.5C17 15.3284 16.3284 16 15.5 16H14V18H13V15.5V13ZM14 15H15.5C15.7761 15 16 14.7761 16 14.5C16 14.2239 15.7761 14 15.5 14H14V15ZM19 13C18.4477 13 18 13.4477 18 14V15C18 15.5523 18.4477 16 19 16H20V17H18V18H20C20.5523 18 21 17.5523 21 17V16C21 15.4477 20.5523 15 20 15H19V14H21V13H19Z" fill="black" fill-opacity="0.3"/>
<path fill-rule="evenodd" clip-rule="evenodd" d="M9 12H9.5H12V13H10V14H12V15H10V17H9V14.5V12.5V12ZM13 12H13.5H15.5C16.3284 12 17 12.6716 17 13.5C17 14.3284 16.3284 15 15.5 15H14V17H13V14.5V12.5V12ZM14 14H15.5C15.7761 14 16 13.7761 16 13.5C16 13.2239 15.7761 13 15.5 13H14V14ZM19 12C18.4477 12 18 12.4477 18 13V14C18 14.5523 18.4477 15 19 15H20V16H18V17H20C20.5523 17 21 16.5523 21 16V15C21 14.4477 20.5523 14 20 14H19V13H21V12H19Z" fill="#FFC107"/>
</svg>
