<svg width="30" height="30" viewBox="0 0 30 30" fill="none" xmlns="http://www.w3.org/2000/svg">
<path d="M15 20C15.5523 20 16 20.4477 16 21V23C16 23.5523 15.5523 24 15 24C14.4477 24 14 23.5523 14 23V21C14 20.4477 14.4477 20 15 20Z" fill="#FF8800"/>
<path d="M10.0498 18.5352C10.4403 18.1446 11.0743 18.1446 11.4648 18.5352C11.8554 18.9257 11.8554 19.5597 11.4648 19.9502L10.7578 20.6572C10.3673 21.0478 9.7333 21.0478 9.34277 20.6572C8.95225 20.2667 8.95225 19.6327 9.34277 19.2422L10.0498 18.5352Z" fill="#FF8800"/>
<path d="M18.5352 18.5361C18.9257 18.1456 19.5597 18.1456 19.9502 18.5361L20.6572 19.2432C21.0473 19.6337 21.0475 20.2668 20.6572 20.6572C20.2667 21.0478 19.6327 21.0478 19.2422 20.6572L18.5352 19.9502C18.1448 19.5598 18.145 18.9267 18.5352 18.5361Z" fill="#FF8800"/>
<path fill-rule="evenodd" clip-rule="evenodd" d="M15 12C16.6569 12 18 13.3431 18 15C18 16.6569 16.6569 18 15 18C13.3431 18 12 16.6569 12 15C12 13.3431 13.3431 12 15 12ZM15 14C14.4477 14 14 14.4477 14 15C14 15.5523 14.4477 16 15 16C15.5523 16 16 15.5523 16 15C16 14.4477 15.5523 14 15 14Z" fill="#FF8800"/>
<path d="M9 14C9.55228 14 10 14.4477 10 15C10 15.5523 9.55228 16 9 16H7C6.44772 16 6 15.5523 6 15C6 14.4477 6.44772 14 7 14H9Z" fill="#FF8800"/>
<path d="M23 14C23.5523 14 24 14.4477 24 15C24 15.5523 23.5523 16 23 16H21C20.4477 16 20 15.5523 20 15C20 14.4477 20.4477 14 21 14H23Z" fill="#FF8800"/>
<path d="M9.34277 9.34375C9.73329 8.95324 10.3663 8.95326 10.7568 9.34375L11.4648 10.0508C11.855 10.4413 11.8551 11.0744 11.4648 11.4648C11.0743 11.8554 10.4403 11.8554 10.0498 11.4648L9.34277 10.7578C8.95241 10.3674 8.95263 9.73429 9.34277 9.34375Z" fill="#FF8800"/>
<path d="M19.2422 9.34277C19.6327 8.95225 20.2667 8.95225 20.6572 9.34277C21.0478 9.7333 21.0478 10.3673 20.6572 10.7578L19.9502 11.4648C19.5597 11.8554 18.9257 11.8554 18.5352 11.4648C18.1446 11.0743 18.1446 10.4403 18.5352 10.0498L19.2422 9.34277Z" fill="#FF8800"/>
<path d="M15 6C15.5523 6 16 6.44772 16 7V9C16 9.55228 15.5523 10 15 10C14.4477 10 14 9.55228 14 9V7C14 6.44772 14.4477 6 15 6Z" fill="#FF8800"/>
</svg>
