<svg width="30" height="30" viewBox="0 0 30 30" fill="none" xmlns="http://www.w3.org/2000/svg">
<path fill-rule="evenodd" clip-rule="evenodd" d="M15 24C19.9706 24 24 19.9706 24 15C24 10.0294 19.9706 6 15 6C10.0294 6 6 10.0294 6 15C6 19.9706 10.0294 24 15 24ZM15 26C21.0751 26 26 21.0751 26 15C26 8.92487 21.0751 4 15 4C8.92487 4 4 8.92487 4 15C4 21.0751 8.92487 26 15 26Z" fill="white" fill-opacity="0.3"/>
<circle cx="15" cy="16" r="5" fill="black" fill-opacity="0.3"/>
<circle cx="15" cy="15" r="5" fill="#59361B"/>
<circle cx="15" cy="15" r="3" fill="#78CC5C"/>
<path opacity="0.4" fill-rule="evenodd" clip-rule="evenodd" d="M15 17C16.1046 17 17 16.1046 17 15C17 13.8954 16.1046 13 15 13C13.8954 13 13 13.8954 13 15C13 16.1046 13.8954 17 15 17ZM15 18C16.6569 18 18 16.6569 18 15C18 13.3431 16.6569 12 15 12C13.3431 12 12 13.3431 12 15C12 16.6569 13.3431 18 15 18Z" fill="white" fill-opacity="0.3"/>
<path d="M17.9585 15.5C17.9858 15.3374 18 15.1704 18 15C18 13.3431 16.6569 12 15 12C13.3431 12 12 13.3431 12 15C12 15.1704 12.0142 15.3374 12.0415 15.5C12.2795 14.0811 13.5135 13 15 13C16.4865 13 17.7205 14.0811 17.9585 15.5Z" fill="white" fill-opacity="0.3"/>
</svg>
