<svg width="52" height="52" viewBox="0 0 52 52" fill="none" xmlns="http://www.w3.org/2000/svg">
<path d="M9.36552 19.4264L15 26L9.36552 32.5736C9.12965 32.8487 9 33.1992 9 33.5616V33.691C9 34.1868 9.28013 34.6401 9.72361 34.8618C9.90537 34.9527 10.1058 35 10.309 35H34.3431C35.404 35 36.4214 34.5786 37.1716 33.8284L38 33L43.6609 26.8674C43.8789 26.6312 44 26.3215 44 26C44 25.6785 43.8789 25.3688 43.6609 25.1326L38 19L37.1716 18.1716C36.4214 17.4214 35.404 17 34.3431 17H10.309C10.1058 17 9.90537 17.0473 9.72361 17.1382C9.28013 17.3599 9 17.8132 9 18.309V18.4384C9 18.8008 9.12965 19.1513 9.36552 19.4264Z" fill="#008BF8"/>
</svg>
