<svg width="30" height="30" viewBox="0 0 30 30" fill="none" xmlns="http://www.w3.org/2000/svg">
<path d="M18 8C18 6.34315 16.6569 5 15 5C13.3431 5 12 6.34315 12 8V9.51212C8.50442 10.7476 6 14.0813 6 18V19.1707C4.83481 19.5825 4 20.6938 4 22C4 23.6569 5.34315 25 7 25H23C24.6569 25 26 23.6569 26 22C26 20.6938 25.1652 19.5825 24 19.1707V18C24 14.0813 21.4956 10.7476 18 9.51212V8Z" fill="#49476B"/>
<path d="M6 22C6 21.4477 6.44772 21 7 21H23C23.5523 21 24 21.4477 24 22C24 22.5523 23.5523 23 23 23H7C6.44772 23 6 22.5523 6 22Z" fill="#1D73FA"/>
<path d="M22 18C22 19.0736 21.7583 20.0907 21.3264 21H8.67363C8.24169 20.0907 8 19.0736 8 18C8 14.4735 10.6077 11.5561 14 11.0709V16.5858L12.7071 15.2929C12.3166 14.9024 11.6834 14.9024 11.2929 15.2929C10.9024 15.6834 10.9024 16.3166 11.2929 16.7071L14.2929 19.7071C14.6834 20.0976 15.3166 20.0976 15.7071 19.7071L18.7071 16.7071C19.0976 16.3166 19.0976 15.6834 18.7071 15.2929C18.3166 14.9024 17.6834 14.9024 17.2929 15.2929L16 16.5858V11.0709C19.3923 11.5561 22 14.4735 22 18Z" fill="url(#paint0_linear_1903_16614)"/>
<path d="M16 8C16 7.44772 15.5523 7 15 7C14.4477 7 14 7.44772 14 8V11.0709C14.3266 11.0242 14.6605 11 15 11C15.3395 11 15.6734 11.0242 16 11.0709V8Z" fill="#FFC107"/>
<defs>
<linearGradient id="paint0_linear_1903_16614" x1="15" y1="11" x2="15" y2="21" gradientUnits="userSpaceOnUse">
<stop stop-color="#FFC107"/>
<stop offset="1" stop-color="#FFC807" stop-opacity="0.7"/>
</linearGradient>
</defs>
</svg>
