<svg width="30" height="30" viewBox="0 0 30 30" fill="none" xmlns="http://www.w3.org/2000/svg">
<path fill-rule="evenodd" clip-rule="evenodd" d="M16.4262 3.59073C15.6385 2.80309 14.3615 2.80309 13.5738 3.59073L3.59073 13.5738C2.80309 14.3615 2.80309 15.6385 3.59073 16.4262L13.5738 26.4093C14.3615 27.1969 15.6385 27.1969 16.4262 26.4093L26.4093 16.4262C27.1969 15.6385 27.1969 14.3615 26.4093 13.5738L16.4262 3.59073ZM17 10L22 14L17 18V15H12V17C12 17.5523 11.5523 18 11 18C10.4477 18 10 17.5523 10 17V14C10 13.4477 10.4477 13 11 13H17V10Z" fill="#FF8800"/>
</svg>
