<svg width="30" height="30" viewBox="0 0 30 30" fill="none" xmlns="http://www.w3.org/2000/svg">
<path fill-rule="evenodd" clip-rule="evenodd" d="M9 21.0001H15V13H9.02759L9.69425 9H22.3333L22.2785 8.6712C22.1178 7.70683 21.2834 7 20.3057 7H9.69425C8.71658 7 7.8822 7.70683 7.72147 8.6712L7 13L6 13.0001C5.44772 13.0001 5 13.4478 5 14.0001C5 14.5523 5.44772 15.0001 6 15.0001L6 21.5001C6 22.3285 6.67157 23.0001 7.5 23.0001C8.32843 23.0001 9 22.3285 9 21.5001V21.0001ZM8 16.5001C8 15.6716 8.67157 15.0001 9.5 15.0001C10.3284 15.0001 11 15.6716 11 16.5001C11 17.3285 10.3284 18.0001 9.5 18.0001C8.67157 18.0001 8 17.3285 8 16.5001Z" fill="#FF8800"/>
<path fill-rule="evenodd" clip-rule="evenodd" d="M25 23V12C25 11.4477 24.5523 11 24 11L18.917 11.4236C18.3987 11.4668 18 11.9 18 12.4201V15H17.5C17.2239 15 17 15.2239 17 15.5V19.5C17 19.7761 17.2239 20 17.5 20L18 20V22.5799C18 23.1 18.3987 23.5332 18.917 23.5764L24 24C24.5523 24 25 23.5523 25 23ZM24 13V14H23V13H24ZM24 15V16H23V15H24ZM24 18V17H23V18H24ZM24 19V20H23V19H24ZM24 22V21H23V22H24ZM20 13V14H19V13H20ZM20 15V16H19V15H20ZM20 18V17H19V18H20ZM20 19V20L19 20V19H20ZM20 22V21L19 21V22L20 22ZM22 22V13H21V22H22Z" fill="#FF8800"/>
</svg>
