<svg width="30" height="30" viewBox="0 0 30 30" fill="none" xmlns="http://www.w3.org/2000/svg">
<path d="M17 10L22 14L17 18V15H12V17C12 17.5523 11.5523 18 11 18C10.4477 18 10 17.5523 10 17V14C10 13.4477 10.4477 13 11 13H17V10Z" fill="#FF8800"/>
<path fill-rule="evenodd" clip-rule="evenodd" d="M3.87868 17.2071L12.7929 26.1213C13.3555 26.6839 14.1186 27 14.9142 27H15.0858C15.8814 27 16.6445 26.6839 17.2071 26.1213L26.1213 17.2071C26.6839 16.6445 27 15.8814 27 15.0858V14.9142C27 14.1186 26.6839 13.3555 26.1213 12.7929L17.2071 3.87868C16.6445 3.31607 15.8814 3 15.0858 3H14.9142C14.1186 3 13.3555 3.31607 12.7929 3.87868L3.87868 12.7929C3.31607 13.3555 3 14.1186 3 14.9142V15.0858C3 15.8814 3.31607 16.6445 3.87868 17.2071ZM14.2071 24.7071L5.29289 15.7929C5.10536 15.6054 5 15.351 5 15.0858V14.9142C5 14.649 5.10536 14.3946 5.29289 14.2071L14.2071 5.29289C14.3946 5.10536 14.649 5 14.9142 5H15.0858C15.351 5 15.6054 5.10536 15.7929 5.29289L24.7071 14.2071C24.8946 14.3946 25 14.649 25 14.9142V15.0858C25 15.351 24.8946 15.6054 24.7071 15.7929L15.7929 24.7071C15.6054 24.8946 15.351 25 15.0858 25H14.9142C14.649 25 14.3946 24.8946 14.2071 24.7071Z" fill="#FF8800"/>
</svg>
