<svg width="24" height="24" viewBox="0 0 24 24" fill="none" xmlns="http://www.w3.org/2000/svg">
<path d="M12,12C14.4189,12 16.4361,13.7178 16.8994,16H22V18H2V16H7.1006C7.5639,13.7178 9.5811,12 12,12ZM12,14C10.6941,14 9.5859,14.8353 9.1738,16H14.8262C14.4141,14.8353 13.3059,14 12,14Z" fill="#ffffff" fill-rule="evenodd" clip-rule="evenodd"/>
<path d="M6.4385,12.6338L5.4385,14.3662L2.8398,12.8662L3.8398,11.1338L6.4385,12.6338Z" fill="#ffffff"/>
<path d="M21.1602,12.8662L18.5625,14.3662L17.5625,12.6338L20.1602,11.1338L21.1602,12.8662Z" fill="#ffffff"/>
<path d="M13,10H11V7H13V10Z" fill="#ffffff"/>
</svg>
