<svg width="30" height="30" viewBox="0 0 30 30" fill="none" xmlns="http://www.w3.org/2000/svg">
<path d="M15 10C15 9.44772 14.5523 9 14 9C13.4477 9 13 9.44772 13 10V13H10C9.44772 13 9 13.4477 9 14C9 14.5523 9.44772 15 10 15H13V18C13 18.5523 13.4477 19 14 19C14.5523 19 15 18.5523 15 18V15H18C18.5523 15 19 14.5523 19 14C19 13.4477 18.5523 13 18 13H15V10Z" fill="#FF8800"/>
<path fill-rule="evenodd" clip-rule="evenodd" d="M23 14C23 16.125 22.2635 18.078 21.0319 19.6177L24.7071 23.2929C25.0976 23.6834 25.0976 24.3166 24.7071 24.7071C24.3166 25.0976 23.6834 25.0976 23.2929 24.7071L19.6177 21.0319C18.078 22.2635 16.125 23 14 23C9.02944 23 5 18.9706 5 14C5 9.02944 9.02944 5 14 5C18.9706 5 23 9.02944 23 14ZM14 21C17.866 21 21 17.866 21 14C21 10.134 17.866 7 14 7C10.134 7 7 10.134 7 14C7 17.866 10.134 21 14 21Z" fill="#FF8800"/>
</svg>
