<svg width="30" height="30" viewBox="0 0 30 30" fill="none" xmlns="http://www.w3.org/2000/svg">
<path opacity="0.7" d="M7 20H23V22H7V20Z" fill="#FF8800"/>
<path d="M7.66699 17C8.40311 17.0002 8.99982 17.5969 9 18.333V23.667C8.99982 24.4031 8.40311 24.9998 7.66699 25H7.33301C6.59689 24.9998 6.00018 24.4031 6 23.667V18.333C6.00018 17.5969 6.59689 17.0002 7.33301 17H7.66699Z" fill="#FF8800"/>
<path d="M22.667 17C23.4031 17.0002 23.9998 17.5969 24 18.333V23.667C23.9998 24.4031 23.4031 24.9998 22.667 25H22.333C21.5969 24.9998 21.0002 24.4031 21 23.667V18.333C21.0002 17.5969 21.5969 17.0002 22.333 17H22.667Z" fill="#FF8800"/>
<path d="M15 19C15.5523 19 16 19.4477 16 20V22C16 22.5523 15.5523 23 15 23C14.4477 23 14 22.5523 14 22V20C14 19.4477 14.4477 19 15 19Z" fill="#FF8800"/>
<path d="M22 5L15 14L8 5H22Z" fill="#FF8800"/>
</svg>
