<svg width="30" height="30" viewBox="0 0 30 30" fill="none" xmlns="http://www.w3.org/2000/svg">
<path d="M17 4C18.6569 4 20 5.34315 20 7V7.34082C22.9883 9.07005 25 12.2991 25 16C25 21.5228 20.5228 26 15 26C9.47715 26 5 21.5228 5 16C5 12.2991 7.01171 9.07005 10 7.34082V7C10 5.34315 11.3431 4 13 4H17Z" fill="#47566B"/>
<path fill-rule="evenodd" clip-rule="evenodd" d="M17 6C17.5523 6 18 6.44772 18 7C18 7.55228 17.5523 8 17 8H13C12.4477 8 12 7.55228 12 7C12 6.44772 12.4477 6 13 6H17ZM15 8C19.4183 8 23 11.5817 23 16C23 20.4183 19.4183 24 15 24C10.5817 24 7 20.4183 7 16C7 11.5817 10.5817 8 15 8Z" fill="#237BFF"/>
<path fill-rule="evenodd" clip-rule="evenodd" d="M15 22C18.3137 22 21 19.3137 21 16C21 12.6863 18.3137 10 15 10C11.6863 10 9 12.6863 9 16C9 19.3137 11.6863 22 15 22Z" fill="#00398F"/>
<path d="M12.5859 17.5859C12.224 17.9479 12 18.4477 12 19C12 20.1046 12.8954 21 14 21H16L16.7422 21.7422C16.1907 21.9093 15.606 22 15 22C11.6863 22 9 19.3137 9 16C9 15.3938 9.08963 14.8085 9.25684 14.2568L12.5859 17.5859Z" fill="#38A969"/>
<path d="M11.293 12.293C11.6835 11.9024 12.3166 11.9024 12.7071 12.293L17 16.5859V15C17 14.4477 17.4478 14 18 14C18.5523 14 19 14.4477 19 15V19C19 19.5523 18.5523 20 18 20H14C13.4478 20 13 19.5523 13 19C13 18.4477 13.4478 18 14 18H15.586L11.293 13.707C10.9025 13.3165 10.9025 12.6835 11.293 12.293Z" fill="#FFC107"/>
</svg>
