<svg width="30" height="30" viewBox="0 0 30 30" fill="none" xmlns="http://www.w3.org/2000/svg">
<path opacity="0.5" d="M6 17H7.5L11.5 13.5L17.5 19L19.5 17H24V24H6V17Z" fill="#5714CC"/>
<path opacity="0.5" fill-rule="evenodd" clip-rule="evenodd" d="M19.5 17V15H21.5V17H19.5Z" fill="#5714CC"/>
<path d="M20.5 6C19.6716 6 19 6.67157 19 7.5C19 7.69512 19.0373 7.88155 19.105 8.05254C18.4682 8.22589 18 8.80827 18 9.5C18 9.69512 18.0373 9.88155 18.105 10.0525C17.4682 10.2259 17 10.8083 17 11.5C17 11.6951 17.0373 11.8815 17.105 12.0525C16.4682 12.2259 16 12.8083 16 13.5C16 14.3284 16.6716 15 17.5 15H23.5C24.3284 15 25 14.3284 25 13.5C25 12.8083 24.5318 12.2259 23.895 12.0525C23.9627 11.8815 24 11.6951 24 11.5C24 10.8083 23.5318 10.2259 22.895 10.0525C22.9627 9.88155 23 9.69512 23 9.5C23 8.80827 22.5318 8.22589 21.895 8.05254C21.9627 7.88155 22 7.69512 22 7.5C22 6.67157 21.3284 6 20.5 6Z" fill="#5714CC"/>
<path fill-rule="evenodd" clip-rule="evenodd" d="M11.4228 14C11.236 14 11.0653 14.1055 10.9818 14.2726L8.61803 19H6V17H7.38197L9.1929 13.3781C9.6152 12.5335 10.4785 12 11.4228 12C12.043 12 12.6409 12.2312 13.0998 12.6483L17.8866 17H24V19H17.1134L11.7544 14.1282C11.6637 14.0457 11.5454 14 11.4228 14Z" fill="#5714CC"/>
</svg>
