<svg width="396" height="396" viewBox="0 0 396 396" fill="none" xmlns="http://www.w3.org/2000/svg">
<g clip-path="url(#clip0_2110_20758)">
<path opacity="0.4" fill-rule="evenodd" clip-rule="evenodd" d="M198 250C226.719 250 250 226.719 250 198C250 169.281 226.719 146 198 146C169.281 146 146 169.281 146 198C146 226.719 169.281 250 198 250ZM198 252C227.823 252 252 227.823 252 198C252 168.177 227.823 144 198 144C168.177 144 144 168.177 144 198C144 227.823 168.177 252 198 252Z" fill="#CBC7D1"/>
<path opacity="0.3" fill-rule="evenodd" clip-rule="evenodd" d="M198 298C253.228 298 298 253.228 298 198C298 142.772 253.228 98 198 98C142.772 98 98 142.772 98 198C98 253.228 142.772 298 198 298ZM198 300C254.333 300 300 254.333 300 198C300 141.667 254.333 96 198 96C141.667 96 96 141.667 96 198C96 254.333 141.667 300 198 300Z" fill="#CBC7D1"/>
<path opacity="0.2" fill-rule="evenodd" clip-rule="evenodd" d="M198 346C279.738 346 346 279.738 346 198C346 116.262 279.738 50 198 50C116.262 50 50 116.262 50 198C50 279.738 116.262 346 198 346ZM198 348C280.843 348 348 280.843 348 198C348 115.157 280.843 48 198 48C115.157 48 48 115.157 48 198C48 280.843 115.157 348 198 348Z" fill="#CBC7D1"/>
<path opacity="0.1" fill-rule="evenodd" clip-rule="evenodd" d="M198 394C306.248 394 394 306.248 394 198C394 89.7522 306.248 2 198 2C89.7522 2 2 89.7522 2 198C2 306.248 89.7522 394 198 394ZM198 396C307.352 396 396 307.352 396 198C396 88.6476 307.352 0 198 0C88.6476 0 0 88.6476 0 198C0 307.352 88.6476 396 198 396Z" fill="#CBC7D1"/>
</g>
<defs>
<clipPath id="clip0_2110_20758">
<rect width="396" height="396" fill="white"/>
</clipPath>
</defs>
</svg>
