<svg width="30" height="30" viewBox="0 0 30 30" fill="none" xmlns="http://www.w3.org/2000/svg">
<path opacity="0.2" d="M12 7C11.4477 7 11 7.44772 11 8V9.17393C13.8667 9.8511 16 12.4264 16 15.5V20.5C16 21.3859 15.8228 22.2304 15.5018 23H19C21.2091 23 23 21.2091 23 19C23 17.9856 22.6224 17.0593 22 16.3542V9C22 7.89543 21.1046 7 20 7H12Z" fill="#FF8800"/>
<path d="M9 8C9 6.34315 10.3431 5 12 5H20C22.2091 5 24 6.79086 24 9V15.6827C24.6312 16.6328 25 17.7749 25 19C25 22.3137 22.3137 25 19 25H14.1904C14.7427 24.4245 15.1901 23.7476 15.5018 23H19C21.2091 23 23 21.2091 23 19C23 17.9856 22.6224 17.0593 22 16.3542V9C22 7.89543 21.1046 7 20 7H12C11.4477 7 11 7.44772 11 8V9.17393C10.5185 9.06019 10.0163 9 9.5 9C9.33176 9 9.16502 9.00639 9 9.01894V8Z" fill="#FF8800"/>
<path d="M16 14C16 14.1482 15.9678 14.2889 15.9099 14.4154C15.8382 13.9884 15.7249 13.5756 15.5742 13.1812C15.8317 13.3621 16 13.6614 16 14Z" fill="#FF8800"/>
<path d="M15 11H14.1904C13.8345 10.6291 13.435 10.3004 13.0002 10.022L13 10C13 9.44772 13.4477 9 14 9H15C15.5523 9 16 9.44772 16 10C16 10.5523 15.5523 11 15 11Z" fill="#FF8800"/>
<path d="M19 9C18.4477 9 18 9.44771 18 10V17.2676C17.4022 17.6134 17 18.2597 17 19C17 20.1046 17.8954 21 19 21C20.1046 21 21 20.1046 21 19C21 18.2597 20.5978 17.6134 20 17.2676V10C20 9.44772 19.5523 9 19 9Z" fill="#FF8800"/>
<path fill-rule="evenodd" clip-rule="evenodd" d="M5 15.5C5 13.0147 7.01472 11 9.5 11C11.9853 11 14 13.0147 14 15.5V20.5C14 22.9853 11.9853 25 9.5 25C7.01472 25 5 22.9853 5 20.5V15.5ZM10 17V13L7 19H9L9 23L12 17H10Z" fill="#FF8800"/>
</svg>
