<svg width="30" height="30" viewBox="0 0 30 30" fill="none" xmlns="http://www.w3.org/2000/svg">
<path opacity="0.2" d="M10 7C9.44772 7 9 7.44772 9 8V22C9 22.5523 9.44772 23 10 23H15.4982C15.1772 22.2304 15 21.3859 15 20.5V15.5C15 12.4264 17.1333 9.8511 20 9.17393V9C20 7.89543 19.1046 7 18 7H10Z" fill="#FF8800"/>
<path d="M20 9V9.17393C20.4815 9.06019 20.9837 9 21.5 9C21.6682 9 21.835 9.00639 22 9.01894V9C22 6.79086 20.2091 5 18 5H10C8.34315 5 7 6.34315 7 8V22C7 23.6569 8.34315 25 10 25H16.8096C16.2573 24.4245 15.8099 23.7476 15.4982 23H10C9.44772 23 9 22.5523 9 22V8C9 7.44772 9.44772 7 10 7H18C19.1046 7 20 7.89543 20 9Z" fill="#FF8800"/>
<path d="M17 9C16.4477 9 16 9.44771 16 10V12.0343C16.5106 11.2256 17.1947 10.5374 18 10.0218V10C18 9.44772 17.5523 9 17 9Z" fill="#FF8800"/>
<path d="M11 10C11 9.44772 11.4477 9 12 9H13C13.5523 9 14 9.44772 14 10C14 10.5523 13.5523 11 13 11H12C11.4477 11 11 10.5523 11 10Z" fill="#FF8800"/>
<path d="M12 13C11.4477 13 11 13.4477 11 14C11 14.5523 11.4477 15 12 15H13C13.5523 15 14 14.5523 14 14C14 13.4477 13.5523 13 13 13H12Z" fill="#FF8800"/>
<path d="M11 18C11 17.4477 11.4477 17 12 17C12.5523 17 13 17.4477 13 18C13 18.5523 12.5523 19 12 19C11.4477 19 11 18.5523 11 18Z" fill="#FF8800"/>
<path fill-rule="evenodd" clip-rule="evenodd" d="M17 15.5C17 13.0147 19.0147 11 21.5 11C23.9853 11 26 13.0147 26 15.5V20.5C26 22.9853 23.9853 25 21.5 25C19.0147 25 17 22.9853 17 20.5V15.5ZM19 19L22 13V17H24L21 23V19H19Z" fill="#FF8800"/>
</svg>
