<svg width="30" height="30" viewBox="0 0 30 30" fill="none" xmlns="http://www.w3.org/2000/svg">
<path fill-rule="evenodd" clip-rule="evenodd" d="M19 7L12 5L6.45056 6.58555C5.59195 6.83087 5 7.61564 5 8.5086V23C5 24.0023 5.95933 24.7259 6.92305 24.4506L12 23L19 25L22.0928 23.9691C22.0093 23.8743 21.9265 23.779 21.8444 23.6829C21.527 23.3115 21.1436 22.8465 20.7339 22.3139L20 22.5585V21.3208C19.9798 21.2923 19.9595 21.2636 19.9393 21.2348C19.2562 20.2632 18.5478 19.1295 18 17.9471V22.6343L13 21.2057V7.36575L18 8.79432V10.4076C19.2202 8.37228 21.4398 7 24 7C24.3398 7 24.6737 7.02418 25 7.07088V7C25 6.01608 24.0361 5.32131 23.1026 5.63246L19 7ZM11 7.36575V21.2057L7 22.3485V8.5086L11 7.36575Z" fill="#FF8800"/>
<path fill-rule="evenodd" clip-rule="evenodd" d="M24 23C24 23 29 17.7949 29 14.0256C29 11.2501 26.7614 9 24 9C21.2386 9 19 11.2501 19 14.0256C19 17.7949 24 23 24 23ZM24 16C25.1046 16 26 15.1046 26 14C26 12.8954 25.1046 12 24 12C22.8954 12 22 12.8954 22 14C22 15.1046 22.8954 16 24 16Z" fill="#FF8800"/>
</svg>
