<svg width="30" height="30" viewBox="0 0 30 30" fill="none" xmlns="http://www.w3.org/2000/svg">
<path fill-rule="evenodd" clip-rule="evenodd" d="M21 28C24.866 28 28 24.866 28 21C28 17.134 24.866 14 21 14C17.134 14 14 17.134 14 21C14 24.866 17.134 28 21 28ZM23 26C22.4477 26 22 25.5523 22 25V17C22 16.5956 22.2436 16.2309 22.6173 16.0761C22.991 15.9214 23.4211 16.0069 23.7071 16.2929L25.7071 18.2929C26.0976 18.6834 26.0976 19.3166 25.7071 19.7071C25.3166 20.0977 24.6834 20.0977 24.2929 19.7071L24 19.4142V25C24 25.5523 23.5523 26 23 26ZM19 16.0001C19.5523 16.0001 20 16.4478 20 17.0001V25.0001C20 25.4046 19.7564 25.7692 19.3827 25.924C19.009 26.0788 18.5789 25.9932 18.2929 25.7072L16.2929 23.7072C15.9024 23.3167 15.9024 22.6835 16.2929 22.293C16.6834 21.9025 17.3166 21.9025 17.7071 22.293L18 22.5859V17.0001C18 16.4478 18.4477 16.0001 19 16.0001Z" fill="#FF8800"/>
</svg>
