<svg width="30" height="30" viewBox="0 0 30 30" fill="none" xmlns="http://www.w3.org/2000/svg">
<path fill-rule="evenodd" clip-rule="evenodd" d="M15 5C12.7909 5 11 6.79086 11 9H9C9 5.68629 11.6863 3 15 3C18.3137 3 21 5.68629 21 9V13C22.6569 13 24 14.3431 24 16V24C24 25.6569 22.6569 27 21 27H9C7.34315 27 6 25.6569 6 24V16C6 14.3431 7.34315 13 9 13H19V9C19 6.79086 17.2091 5 15 5ZM15 22C16.1046 22 17 21.1046 17 20C17 18.8954 16.1046 18 15 18C13.8954 18 13 18.8954 13 20C13 21.1046 13.8954 22 15 22Z" fill="#FF8800"/>
</svg>
