<svg width="30" height="30" viewBox="0 0 30 30" fill="none" xmlns="http://www.w3.org/2000/svg">
<g id="ic_custom_contour_lines_disabled">
<g id="Union" opacity="0.8">
<path fill-rule="evenodd" clip-rule="evenodd" d="M26.7071 4.70711C27.0976 4.31658 27.0976 3.68342 26.7071 3.29289C26.3166 2.90237 25.6834 2.90237 25.2929 3.29289L22.8476 5.73816C15.8889 0.653358 9.86721 3.58584 6.95462 6.99748C4.45282 9.92795 0.578301 18.2797 5.09271 23.4931L3.29289 25.2929C2.90237 25.6834 2.90237 26.3166 3.29289 26.7071C3.68342 27.0976 4.31658 27.0976 4.70711 26.7071L26.7071 4.70711ZM6.51178 22.074L7.93937 20.6464C5.97277 17.5818 8.5416 11.7118 10.0001 9.99998C11.7243 7.97626 16.5 5.81015 20 8.49996C20.0162 8.51243 20.0323 8.52492 20.0484 8.53743L21.4143 7.17144C18.4933 5.11991 15.9313 4.76123 13.873 5.12516C11.6124 5.52485 9.7178 6.84113 8.4757 8.29606C7.21823 9.76899 5.44883 13.0385 5.08111 16.3478C4.90111 17.9677 5.06941 19.4824 5.68508 20.7786C5.89467 21.2199 6.16492 21.6549 6.51178 22.074ZM18.6188 9.96701C17.5121 9.19892 16.1823 9.08445 14.8157 9.42354C13.3326 9.79152 12.0868 10.6347 11.5225 11.297C10.9191 12.0052 9.79825 14.1363 9.38064 16.3299C9.17613 17.4042 9.17862 18.3078 9.36315 18.9671C9.38197 19.0343 9.40251 19.0988 9.42494 19.1608L18.6188 9.96701Z" fill="#545454"/>
<path d="M24.4521 10.3764L25.9166 8.91181C28.9549 13.8197 25.5092 19.1545 21 20C19.8005 20.2249 18.9533 21.4746 18.0157 22.8576C16.2418 25.4742 14.1442 28.5683 8.72422 26.1042L10.2535 24.5749C11.591 25.0744 12.4743 25.0632 13.0649 24.9166C13.7891 24.7368 14.4216 24.2684 15.0976 23.4687C15.436 23.0683 15.7568 22.6194 16.0977 22.1214C16.1758 22.0073 16.257 21.8875 16.3405 21.7644C16.6 21.3815 16.8816 20.966 17.1575 20.5929C17.8351 19.6766 18.9261 18.354 20.6315 18.0343C22.5908 17.6669 24.323 16.0888 24.88 14.1213C25.1847 13.0453 25.1613 11.7418 24.4521 10.3764Z" fill="#545454"/>
</g>
</g>
</svg>
