<svg width="30" height="30" viewBox="0 0 30 30" fill="none" xmlns="http://www.w3.org/2000/svg">
<path fill-rule="evenodd" clip-rule="evenodd" d="M13.8555 3.99991C14.2151 2.88805 15.7927 2.88805 16.1524 3.99991L18.1992 10.3261C18.3161 10.687 18.6244 10.9466 18.9903 11.0058L19.1504 11.0185H25.7949C26.9614 11.0188 27.4489 12.5051 26.5078 13.1923L20.5361 17.5507L22.8115 24.5878C23.1704 25.6977 21.8942 26.6163 20.9502 25.9276L15.0039 21.5878L9.05763 25.9276L8.96779 25.9882C8.03504 26.5593 6.84853 25.6631 7.19631 24.5878L9.4717 17.5507L3.50002 13.1923C2.58815 12.5266 3.01711 11.1104 4.10549 11.0224L4.21291 11.0185H10.8574L11.0176 11.0058C11.3834 10.9465 11.6918 10.687 11.8086 10.3261L13.8555 3.99991ZM13.7119 10.9413C13.3115 12.1792 12.1585 13.0184 10.8574 13.0185H6.65431L10.6514 15.9355C11.3489 16.4448 11.6408 17.3451 11.375 18.1669L9.85256 22.871L13.8252 19.9726L13.959 19.8827C14.645 19.4621 15.5241 19.4921 16.1826 19.9726L20.1543 22.871L18.6328 18.1669C18.367 17.345 18.6588 16.4448 19.3565 15.9355L23.3535 13.0185H19.1504C17.8493 13.0185 16.6964 12.1792 16.2959 10.9413L15.0039 6.9462L13.7119 10.9413Z" fill="#FF8800"/>
<path d="M5.29299 18.2929C5.68351 17.9024 6.31654 17.9024 6.70705 18.2929C7.0973 18.6834 7.09743 19.3165 6.70705 19.7069L4.70705 21.7069C4.3166 22.0973 3.68351 22.0972 3.29299 21.7069C2.90248 21.3164 2.90252 20.6834 3.29299 20.2929L5.29299 18.2929Z" fill="#FF8800"/>
<path d="M23.293 18.2929C23.6835 17.9024 24.3165 17.9024 24.707 18.2929L26.707 20.2929C27.0974 20.6834 27.0975 21.3165 26.707 21.7069C26.3166 22.0973 25.6835 22.0973 25.293 21.7069L23.293 19.7069C22.9025 19.3164 22.9025 18.6834 23.293 18.2929Z" fill="#FF8800"/>
<path d="M6.29299 5.29288C6.68351 4.90236 7.31652 4.90236 7.70705 5.29288L9.70705 7.29288C10.0973 7.68343 10.0975 8.31651 9.70705 8.70694C9.31661 9.09732 8.68351 9.09718 8.29299 8.70694L6.29299 6.70694C5.90248 6.31644 5.90252 5.68341 6.29299 5.29288Z" fill="#FF8800"/>
<path d="M22.293 5.29288C22.6835 4.90236 23.3165 4.90236 23.707 5.29288C24.0973 5.68343 24.0975 6.31651 23.707 6.70694L21.707 8.70694C21.3166 9.09732 20.6835 9.09718 20.293 8.70694C19.9025 8.31644 19.9025 7.68341 20.293 7.29288L22.293 5.29288Z" fill="#FF8800"/>
</svg>
