<svg width="30" height="30" viewBox="0 0 30 30" fill="none" xmlns="http://www.w3.org/2000/svg">
<path d="M3 20V22C3 24.2091 4.79086 26 7 26H23C25.2091 26 27 24.2091 27 22V20H3Z" fill="black" fill-opacity="0.3"/>
<path fill-rule="evenodd" clip-rule="evenodd" d="M3 9C3 6.79086 4.79086 5 7 5H23C25.2091 5 27 6.79086 27 9V21C27 23.2091 25.2091 25 23 25H7C4.79086 25 3 23.2091 3 21V9Z" fill="#FFC107"/>
<path opacity="0.5" d="M5 17H25V21C25 22.1046 24.1046 23 23 23H7C5.89543 23 5 22.1046 5 21V17Z" fill="#59361B"/>
<path opacity="0.5" d="M15 20C15 19.4477 15.4477 19 16 19H22C22.5523 19 23 19.4477 23 20C23 20.5523 22.5523 21 22 21H16C15.4477 21 15 20.5523 15 20Z" fill="#FFC107"/>
<path d="M5 9C5 7.89543 5.89543 7 7 7H23C24.1046 7 25 7.89543 25 9V17H5V9Z" fill="#59361B"/>
<path d="M7.57497 14.97L10 14L12.425 14.97C12.4746 14.9898 12.5274 15 12.5807 15H12.5942C12.8183 15 13 14.8183 13 14.5942C13 14.5322 12.9858 14.4711 12.9585 14.4154L10.4322 9.2693C10.3513 9.10446 10.1836 9 10 9C9.81636 9 9.64872 9.10446 9.5678 9.2693L7.04152 14.4154C7.0142 14.4711 7 14.5322 7 14.5942C7 14.8183 7.18167 15 7.40577 15H7.41926C7.4726 15 7.52544 14.9898 7.57497 14.97Z" fill="#FFC107"/>
<path d="M9.00002 18L12 20.5H10.1L9.00004 22L9.00002 18Z" fill="#FFC107"/>
<path d="M16 9C15.4477 9 15 9.44772 15 10C15 10.5523 15.4477 11 16 11H22C22.5523 11 23 10.5523 23 10C23 9.44772 22.5523 9 22 9H16Z" fill="#FFC107"/>
<path opacity="0.5" d="M15 14C15 13.4477 15.4477 13 16 13H19C19.5523 13 20 13.4477 20 14C20 14.5523 19.5523 15 19 15H16C15.4477 15 15 14.5523 15 14Z" fill="#FFC107"/>
</svg>
