<svg width="30" height="30" viewBox="0 0 30 30" fill="none" xmlns="http://www.w3.org/2000/svg">
<path d="M10 18C10.5523 18 11 18.4477 11 19C11 19.5523 10.5523 20 10 20C9.44772 20 9 19.5523 9 19C9 18.4477 9.44772 18 10 18Z" fill="#FF8800"/>
<path d="M20 18C20.5523 18 21 18.4477 21 19C21 19.5523 20.5523 20 20 20H14C13.4477 20 13 19.5523 13 19C13 18.4477 13.4477 18 14 18H20Z" fill="#FF8800"/>
<path d="M10 14C10.5523 14 11 14.4477 11 15C11 15.5523 10.5523 16 10 16C9.44772 16 9 15.5523 9 15C9 14.4477 9.44772 14 10 14Z" fill="#FF8800"/>
<path d="M20 14C20.5523 14 21 14.4477 21 15C21 15.5523 20.5523 16 20 16H14C13.4477 16 13 15.5523 13 15C13 14.4477 13.4477 14 14 14H20Z" fill="#FF8800"/>
<path d="M10 10C10.5523 10 11 10.4477 11 11C11 11.5523 10.5523 12 10 12C9.44772 12 9 11.5523 9 11C9 10.4477 9.44772 10 10 10Z" fill="#FF8800"/>
<path d="M20 10C20.5523 10 21 10.4477 21 11C21 11.5523 20.5523 12 20 12H14C13.4477 12 13 11.5523 13 11C13 10.4477 13.4477 10 14 10H20Z" fill="#FF8800"/>
<path fill-rule="evenodd" clip-rule="evenodd" d="M21 5C23.2091 5 25 6.79086 25 9V21C25 23.2091 23.2091 25 21 25H9C6.79086 25 5 23.2091 5 21V9C5 6.79086 6.79086 5 9 5H21ZM9 7C7.89543 7 7 7.89543 7 9V21C7 22.1046 7.89543 23 9 23H21C22.1046 23 23 22.1046 23 21V9C23 7.89543 22.1046 7 21 7H9Z" fill="#FF8800"/>
</svg>
