<svg width="30" height="30" viewBox="0 0 30 30" fill="none" xmlns="http://www.w3.org/2000/svg">
<path d="M7 5C7 3.34315 8.34315 2 10 2H20C21.6569 2 23 3.34315 23 5V25C23 26.6569 21.6569 28 20 28H10C8.34315 28 7 26.6569 7 25V5Z" fill="#4A4A4A"/>
<path d="M9 5C9 4.44772 9.44772 4 10 4H20C20.5523 4 21 4.44772 21 5V25C21 25.5523 20.5523 26 20 26H10C9.44772 26 9 25.5523 9 25V5Z" fill="#2379FB"/>
<path d="M13 6C13 5.44772 13.4477 5 14 5H16C16.5523 5 17 5.44772 17 6C17 6.55228 16.5523 7 16 7H14C13.4477 7 13 6.55228 13 6Z" fill="#4A4A4A"/>
<path opacity="0.5" d="M12 24.5C12 24.2239 12.2239 24 12.5 24H17.5C17.7761 24 18 24.2239 18 24.5C18 24.7761 17.7761 25 17.5 25H12.5C12.2239 25 12 24.7761 12 24.5Z" fill="white"/>
<path d="M10.5 12C10.2239 12 10 12.2239 10 12.5C10 12.7761 10.2239 13 10.5 13H11.5C11.7761 13 12 12.7761 12 12.5C12 12.2239 11.7761 12 11.5 12H10.5Z" fill="#41BAFE"/>
<path d="M10.5 14C10.2239 14 10 14.2239 10 14.5C10 14.7761 10.2239 15 10.5 15H14.5C14.7761 15 15 14.7761 15 14.5C15 14.2239 14.7761 14 14.5 14H10.5Z" fill="#41BAFE"/>
<path d="M10.5 16C10.2239 16 10 16.2239 10 16.5C10 16.7761 10.2239 17 10.5 17H11.5C11.7761 17 12 16.7761 12 16.5C12 16.2239 11.7761 16 11.5 16H10.5Z" fill="#41BAFE"/>
<path d="M13.5 16C13.2239 16 13 16.2239 13 16.5C13 16.7761 13.2239 17 13.5 17H14.5C14.7761 17 15 16.7761 15 16.5C15 16.2239 14.7761 16 14.5 16H13.5Z" fill="#41BAFE"/>
<path d="M16 16.5C16 16.2239 16.2239 16 16.5 16H17.5C17.7761 16 18 16.2239 18 16.5C18 16.7761 17.7761 17 17.5 17H16.5C16.2239 17 16 16.7761 16 16.5Z" fill="#41BAFE"/>
<path d="M16 14.5C16 14.2239 16.2239 14 16.5 14H19.5C19.7761 14 20 14.2239 20 14.5C20 14.7761 19.7761 15 19.5 15H16.5C16.2239 15 16 14.7761 16 14.5Z" fill="#41BAFE"/>
<path d="M13 12.5C13 12.2239 13.2239 12 13.5 12H16.5C16.7761 12 17 12.2239 17 12.5C17 12.7761 16.7761 13 16.5 13H13.5C13.2239 13 13 12.7761 13 12.5Z" fill="#41BAFE"/>
<path d="M18.5 12C18.2239 12 18 12.2239 18 12.5C18 12.7761 18.2239 13 18.5 13H19.5C19.7761 13 20 12.7761 20 12.5C20 12.2239 19.7761 12 19.5 12H18.5Z" fill="#41BAFE"/>
<path d="M10.5 9C10.2239 9 10 9.22386 10 9.5C10 9.77614 10.2239 10 10.5 10H13.5C13.7761 10 14 9.77614 14 9.5C14 9.22386 13.7761 9 13.5 9H10.5Z" fill="#FB5D23"/>
<path d="M15.5 9C15.2239 9 15 9.22386 15 9.5C15 9.77614 15.2239 10 15.5 10H17.5C17.7761 10 18 9.77614 18 9.5C18 9.22386 17.7761 9 17.5 9H15.5Z" fill="#FB5D23"/>
<path d="M29 20C29 24.4183 25.4183 28 21 28C16.5817 28 13 24.4183 13 20C13 15.5817 16.5817 12 21 12C25.4183 12 29 15.5817 29 20Z" fill="url(#paint0_linear_1506_7265)"/>
<path d="M24 20C24.8284 20 25.5 19.3284 25.5 18.5C25.5 17.6716 24.8284 17 24 17C23.1716 17 22.5 17.6716 22.5 18.5C22.5 19.3284 23.1716 20 24 20Z" fill="#C28A00"/>
<path d="M18 20C18.8284 20 19.5 19.3284 19.5 18.5C19.5 17.6716 18.8284 17 18 17C17.1716 17 16.5 17.6716 16.5 18.5C16.5 19.3284 17.1716 20 18 20Z" fill="#C28A00"/>
<path fill-rule="evenodd" clip-rule="evenodd" d="M18 24C18 23.4477 18.4477 23 19 23H23C23.5523 23 24 23.4477 24 24C24 24.5523 23.5523 25 23 25H19C18.4477 25 18 24.5523 18 24Z" fill="#C38901"/>
<defs>
<linearGradient id="paint0_linear_1506_7265" x1="21" y1="12" x2="21" y2="28" gradientUnits="userSpaceOnUse">
<stop stop-color="#FFDB13"/>
<stop offset="1" stop-color="#FFC30D"/>
</linearGradient>
</defs>
</svg>
