<svg width="30" height="30" viewBox="0 0 30 30" fill="none" xmlns="http://www.w3.org/2000/svg">
<path fill-rule="evenodd" clip-rule="evenodd" d="M15 3C21.6274 3 27 8.37258 27 15C27 21.6274 21.6274 27 15 27C8.37258 27 3 21.6274 3 15C3 8.37258 8.37258 3 15 3ZM15 20C14.4477 20 14 20.4477 14 21C14 21.5523 14.4477 22 15 22C15.5523 22 16 21.5523 16 21C16 20.4477 15.5523 20 15 20ZM15 8C14.0369 8 13.0415 8.32024 12.2734 9.00293C11.487 9.70198 11 10.7286 11 12C11 12.5523 11.4477 13 12 13C12.5523 13 13 12.5523 13 12C13 11.2714 13.263 10.798 13.6016 10.4971C13.9585 10.1798 14.4631 10 15 10C15.5369 10 16.0415 10.1798 16.3984 10.4971C16.737 10.798 17 11.2714 17 12C17 12.338 16.8263 12.777 16.4512 13.2871C16.0884 13.7805 15.614 14.2355 15.2012 14.585C14.5063 15.1733 14 16.0591 14 17.0703V17.5C14 18.0523 14.4477 18.5 15 18.5C15.5523 18.5 16 18.0523 16 17.5V17.0703C16 16.7441 16.1684 16.3871 16.4941 16.1113C16.9684 15.7098 17.5711 15.14 18.0625 14.4717C18.5415 13.8201 19 12.9605 19 12C19 10.7286 18.513 9.70198 17.7266 9.00293C16.9585 8.32024 15.9631 8 15 8Z" fill="#FF8800"/>
</svg>
