<svg width="30" height="30" viewBox="0 0 30 30" fill="none" xmlns="http://www.w3.org/2000/svg">
<path opacity="0.8" d="M25.0001 24.7778L24.9625 4.49907C24.962 4.22329 24.7383 4 24.4625 4H22.8798C22.6553 4 22.4584 4.14956 22.3981 4.36576L21.3536 8.11312C21.3239 8.21986 21.2595 8.31369 21.1707 8.37988L18.9718 10.0176C18.89 10.0785 18.8288 10.1629 18.7964 10.2595L17.7144 13.483C17.6538 13.6635 17.701 13.8627 17.8361 13.9969L19.8563 16.0031C19.9914 16.1373 20.0386 16.3365 19.978 16.517L18.9258 19.6519C18.8757 19.8011 18.7583 19.918 18.6089 19.9674L15.1539 21.1111L12.8029 21.6948C12.7302 21.7128 12.6624 21.747 12.6046 21.7948L9.18129 24.6278C9.0665 24.7228 9.00006 24.864 9.00006 25.013V25.5C9.00006 25.7761 9.22392 26 9.50006 26H23.7693C24.449 26 25.0001 25.4528 25.0001 24.7778Z" fill="#FF8800"/>
<path d="M14.5001 5.75C14.5001 6.7165 13.7166 7.5 12.7501 7.5C11.7836 7.5 11.0001 6.7165 11.0001 5.75C11.0001 4.7835 11.7836 4 12.7501 4C13.7166 4 14.5001 4.7835 14.5001 5.75Z" fill="#FF8800"/>
<path d="M11.3164 8.05131C10.8309 7.88948 10.3016 8.12031 10.0898 8.58619L7.58979 14.0862C7.51804 14.244 7.48857 14.4178 7.50426 14.5905L7.97851 19.8072L6.10562 23.5528C5.85862 24.0467 6.05883 24.6474 6.5528 24.8944C7.04677 25.1414 7.64745 24.9412 7.89445 24.4472L9.89457 20.4472C9.97775 20.2809 10.0129 20.0947 9.99605 19.9095L9.63698 15.9597L12.1503 17.6353L13.1321 20.7966C13.2959 21.324 13.8563 21.6188 14.3837 21.455C14.9111 21.2912 15.2059 20.7308 15.0421 20.2034L14.0604 17.0421C13.9243 16.6039 13.6416 16.2258 13.2597 15.9712L11.2624 14.6396L12.6224 11.6476L13.1425 12.5144C13.2874 12.7561 13.5276 12.9253 13.8039 12.9806L16.3039 13.4806C16.8454 13.5889 17.3722 13.2377 17.4806 12.6961C17.5889 12.1546 17.2377 11.6277 16.6961 11.5194L14.6299 11.1062L13.3577 8.98555C13.2349 8.78083 13.0429 8.62681 12.8164 8.55131L11.3164 8.05131Z" fill="#FF8800"/>
<path d="M9.3789 8.9771C9.64239 8.49172 9.46251 7.88464 8.97713 7.62115C8.49176 7.35766 7.88468 7.53754 7.62119 8.02292L5.72119 11.5229C5.4577 12.0083 5.63758 12.6154 6.12295 12.8789C6.60833 13.1424 7.21541 12.9625 7.4789 12.4771L9.3789 8.9771Z" fill="#FF8800"/>
</svg>
