<svg width="30" height="30" viewBox="0 0 30 30" fill="none" xmlns="http://www.w3.org/2000/svg">
<path fill-rule="evenodd" clip-rule="evenodd" d="M18.8889 23.2157C22.4799 21.6984 25 18.1435 25 14C25 8.47715 20.5228 4 15 4C9.47715 4 5 8.47715 5 14C5 18.1435 7.52006 21.6984 11.1111 23.2157C12.9167 24 13.6111 24.4167 14.1667 25.5278C14.2208 25.636 14.267 25.7389 14.3099 25.8345C14.4873 26.2298 14.6086 26.5 15 26.5C15.3914 26.5 15.5127 26.2298 15.6901 25.8345C15.733 25.7389 15.7792 25.636 15.8333 25.5278C16.3889 24.4167 17.0325 24 18.8889 23.2157ZM15 19.5556C18.0683 19.5556 20.5556 17.0683 20.5556 14C20.5556 10.9318 18.0683 8.44445 15 8.44445C11.9318 8.44445 9.44445 10.9318 9.44445 14C9.44445 17.0683 11.9318 19.5556 15 19.5556Z" fill="#FF8800"/>
</svg>
