<svg width="30" height="30" viewBox="0 0 30 30" fill="none" xmlns="http://www.w3.org/2000/svg">
<path fill-rule="evenodd" clip-rule="evenodd" d="M6.02219 19.4095C6.32844 19.2912 6.68085 19.1674 7.08096 19.0443C7.13756 19.0269 7.19511 19.0095 7.25361 18.9921C8.46095 18.9166 9.52307 18.3054 10.2052 17.3935C10.2617 17.7114 10.3289 18.018 10.4052 18.3135C11.4537 18.1609 12.6494 18.0506 14 18.0136V11.9863C12.6494 11.9489 11.4537 11.8382 10.4055 11.6853C10.3291 11.9812 10.2618 12.2882 10.2052 12.6065C9.52522 11.6974 8.46765 11.0873 7.26504 11.0086C7.20581 10.9911 7.14755 10.9735 7.09026 10.9558C6.68672 10.8317 6.3317 10.7068 6.02363 10.5876C5.95677 10.7234 5.8929 10.8609 5.83211 11L3.68284 11C5.33019 6.33923 9.77515 3 15 3C20.2249 3 24.6699 6.33923 26.3172 11L24.1679 11C24.108 10.8629 24.0452 10.7274 23.9794 10.5936C23.675 10.711 23.3251 10.8338 22.9284 10.9558C22.8727 10.973 22.8161 10.9901 22.7586 11.0072C21.5462 11.0793 20.4792 11.6915 19.7948 12.6065C19.7384 12.2891 19.6713 11.983 19.5951 11.688C18.5464 11.8402 17.3505 11.9501 16 11.9868V18.0136C17.3506 18.0506 18.5463 18.1609 19.5948 18.3134C19.6711 18.0179 19.7383 17.7114 19.7948 17.3935C20.4769 18.3054 21.5391 18.9166 22.7465 18.9921C22.805 19.0095 22.8625 19.0269 22.9191 19.0443C23.3192 19.1674 23.6716 19.2912 23.9779 19.4095C24.0442 19.2747 24.1076 19.1381 24.1679 19L26.3172 19C24.6699 23.6608 20.2249 27 15 27C9.77515 27 5.33019 23.6608 3.68285 19L5.83211 19C5.89247 19.1381 5.95586 19.2747 6.02219 19.4095ZM11.3989 24.332C11.3462 24.2727 11.2935 24.2123 11.2407 24.1508C10.4482 23.2261 9.66031 22.0481 9.05987 20.5904C8.53411 20.7072 8.07131 20.8321 7.66913 20.9558C7.46666 21.0181 7.2794 21.0802 7.10706 21.1409C8.21278 22.56 9.69286 23.6732 11.3989 24.332ZM7.109 8.85665C7.28336 8.91814 7.47307 8.98109 7.67843 9.04427C8.07843 9.16735 8.53838 9.29153 9.06062 9.40779C9.66096 7.95094 10.4485 6.77347 11.2407 5.84921C11.2935 5.78768 11.3462 5.72728 11.3989 5.66802C9.69385 6.32642 8.21451 7.43867 7.109 8.85665ZM22.893 21.1409C21.7873 22.5601 20.3071 23.6732 18.601 24.332C18.6537 24.2727 18.7065 24.2123 18.7593 24.1508C19.5518 23.2261 20.3397 22.0481 20.9401 20.5904C21.4659 20.7072 21.9288 20.8321 22.331 20.9558C22.5334 21.0181 22.7207 21.0802 22.893 21.1409ZM22.8951 8.8618C22.7247 8.92165 22.5399 8.98285 22.3403 9.04427C21.9359 9.16869 21.4702 9.29424 20.9409 9.4116C20.3404 7.95299 19.5522 6.77428 18.7593 5.84921C18.7065 5.78767 18.6537 5.72726 18.601 5.66798C20.3082 6.32718 21.7891 7.44134 22.8951 8.8618ZM11.0874 20.2384C11.5727 21.2963 12.1678 22.1592 12.7593 22.8492C13.1873 23.3486 13.615 23.7588 14 24.0864V20.0144C12.9177 20.0458 11.9485 20.127 11.0874 20.2384ZM16 24.0864C16.385 23.7588 16.8127 23.3486 17.2407 22.8492C17.8322 22.1592 18.4273 21.2962 18.9126 20.2384C18.0515 20.127 17.0822 20.0458 16 20.0144V24.0864ZM18.9132 9.7628C18.4277 8.70442 17.8324 7.84106 17.2407 7.15079C16.8127 6.65138 16.385 6.24116 16 5.91356V9.98599C17.0823 9.95486 18.0517 9.87402 18.9132 9.7628ZM14 5.91356V9.98544C12.9178 9.95371 11.9487 9.87226 11.0878 9.76051C11.5731 8.70318 12.168 7.84056 12.7593 7.15079C13.1873 6.65138 13.615 6.24116 14 5.91356Z" fill="#FF8800"/>
<path d="M3 15C3 13.8954 3.89543 13 5 13H7C8.10457 13 9 13.8954 9 15C9 16.1046 8.10457 17 7 17H5C3.89543 17 3 16.1046 3 15Z" fill="#FF8800"/>
<path d="M21 15C21 13.8954 21.8954 13 23 13H25C26.1046 13 27 13.8954 27 15C27 16.1046 26.1046 17 25 17H23C21.8954 17 21 16.1046 21 15Z" fill="#FF8800"/>
</svg>
