<svg width="30" height="30" viewBox="0 0 30 30" fill="none" xmlns="http://www.w3.org/2000/svg">
<path d="M17 20H13V18H17V20Z" fill="#FF8800"/>
<path d="M17 16H13V14H17V16Z" fill="#FF8800"/>
<path d="M17 12H13V10H17V12Z" fill="#FF8800"/>
<path fill-rule="evenodd" clip-rule="evenodd" d="M18.9004 6C20.0599 6.00021 20.9998 6.94012 21 8.09961V12H24.9004C26.0599 12.0002 26.9998 12.9401 27 14.0996V21.9004C26.9998 23.0599 26.0599 23.9998 24.9004 24H5.09961C3.94028 23.9998 3.00048 23.0597 3 21.9004V13.0615C3.00025 12.2664 3.44998 11.5393 4.16113 11.1836L9 8.76367V8.09961C9.00021 6.94014 9.94011 6.00021 11.0996 6H18.9004ZM5 21.9004C5.00047 21.9551 5.04485 21.9998 5.09961 22H9V20H5V21.9004ZM11.0996 8C11.0447 8.00021 11.0002 8.04469 11 8.09961V22H19V8.09961C18.9998 8.0582 18.9745 8.02285 18.9385 8.00781L18.9004 8H11.0996ZM21 22H24.9004L24.9385 21.9922C24.9627 21.9821 24.9821 21.9627 24.9922 21.9385L25 21.9004V14.0996C24.9998 14.0582 24.9745 14.0229 24.9385 14.0078L24.9004 14H21V22ZM5 18H9V16H5V18ZM5.05566 12.9727C5.02209 12.9895 5.00025 13.024 5 13.0615V14H9V11L5.05566 12.9727Z" fill="#FF8800"/>
</svg>
