<svg width="30" height="30" viewBox="0 0 30 30" fill="none" xmlns="http://www.w3.org/2000/svg">
<path d="M6.99997 11H7.99997V12H6.99997V11Z" fill="#FF8800"/>
<path d="M8.99997 11H9.99997V12H8.99997V11Z" fill="#FF8800"/>
<path d="M12 11H11V12H12V11Z" fill="#FF8800"/>
<path d="M13 11H14V12H13V11Z" fill="#FF8800"/>
<path d="M7.99997 17V18H6.99997V17H7.99997Z" fill="#FF8800"/>
<path d="M8.99997 17H9.99997V18H8.99997V17Z" fill="#FF8800"/>
<path fill-rule="evenodd" clip-rule="evenodd" d="M26.7071 4.70711C27.0976 4.31658 27.0976 3.68342 26.7071 3.29289C26.3166 2.90237 25.6834 2.90237 25.2929 3.29289L21.5858 7H5.10607C3.33001 7 1.94277 8.53443 2.12126 10.3015L3.03035 19.3015C3.18513 20.8338 4.47506 22 6.01516 22H6.58579L3.29289 25.2929C2.90237 25.6834 2.90237 26.3166 3.29289 26.7071C3.68342 27.0976 4.31658 27.0976 4.70711 26.7071L26.7071 4.70711ZM8.58579 20L11 17.5858V17H11.5858L13.5858 15H7.49997C7.22383 15 6.99997 14.7761 6.99997 14.5C6.99997 14.2239 7.22383 14 7.49997 14H14.5858L16.5858 12H16V11H17V11.5858L19.5858 9H5.10607C4.51405 9 4.05164 9.51148 4.11113 10.1005L5.02023 19.1005C5.07182 19.6113 5.50179 20 6.01516 20H8.58579Z" fill="#FF8800"/>
<path d="M23 11.8285L22.8284 12H23V11.8285Z" fill="#FF8800"/>
<path d="M20.8284 14L19.8284 15H22.5C22.7761 15 23 14.7761 23 14.5C23 14.2239 22.7761 14 22.5 14H20.8284Z" fill="#FF8800"/>
<path d="M17 17.8285L16.8284 18H17V17.8285Z" fill="#FF8800"/>
<path d="M17.6666 21H13.8284L11.8737 22.9547C12.0223 22.9844 12.176 23 12.3333 23H17.6666C18.4596 23 19.1601 22.6045 19.5817 22H23.9848C25.5249 22 26.8148 20.8338 26.9696 19.3015L27.8787 10.3015C27.9751 9.34667 27.6144 8.45977 26.9823 7.84617L25.5675 9.2609C25.7921 9.46591 25.9221 9.77107 25.8888 10.1005L24.9797 19.1005C24.9281 19.6113 24.4982 20 23.9848 20H18.6666C18.2985 20 18 20.2985 18 20.6667C18 20.8508 17.8507 21 17.6666 21Z" fill="#FF8800"/>
<path d="M18 17H19V18H18V17Z" fill="#FF8800"/>
<path d="M21 17H20V18H21V17Z" fill="#FF8800"/>
<path d="M23 17V18H22V17H23Z" fill="#FF8800"/>
</svg>
