<svg width="30" height="30" viewBox="0 0 30 30" fill="none" xmlns="http://www.w3.org/2000/svg">
<path opacity="0.9" fill-rule="evenodd" clip-rule="evenodd" d="M8 20C8.55228 20 9 19.5523 9 19C9 18.4477 8.55228 18 8 18C7.44772 18 7 18.4477 7 19C7 19.5523 7.44772 20 8 20ZM8 22C9.65685 22 11 20.6569 11 19C11 17.3431 9.65685 16 8 16C6.34315 16 5 17.3431 5 19C5 20.6569 6.34315 22 8 22Z" fill="#FF8800"/>
<path opacity="0.9" fill-rule="evenodd" clip-rule="evenodd" d="M22 20C22.5523 20 23 19.5523 23 19C23 18.4477 22.5523 18 22 18C21.4477 18 21 18.4477 21 19C21 19.5523 21.4477 20 22 20ZM22 22C23.6569 22 25 20.6569 25 19C25 17.3431 23.6569 16 22 16C20.3431 16 19 17.3431 19 19C19 20.6569 20.3431 22 22 22Z" fill="#FF8800"/>
<path d="M16 10H18.1654L19 14.5902V17H13V14C13.5523 14 14 13.5523 14 13C14 12.4477 13.5523 12 13 12H9C8.44772 12 8 12.4477 8 13C8 13.5523 8.44772 14 9 14H8C6.34315 14 5 15.3431 5 17V19H25V18C25 15.7909 23.2091 14 21 14C20.9751 14 20.9504 14.0005 20.9257 14.0014L20.5417 11.889C20.679 11.9599 20.8348 12 21 12H22V10H21C20.7057 10 20.4411 10.1271 20.2581 10.3295L20.1332 9.64223C19.9603 8.69125 19.132 8 18.1654 8H16V10Z" fill="#FF8800"/>
</svg>
