<svg width="20" height="20" viewBox="0 0 20 20" fill="none" xmlns="http://www.w3.org/2000/svg">
<path d="M6 2C5.44772 2 5 2.44772 5 3C5 3.55228 5.44772 4 6 4H8.58579L2.29289 10.2929C1.90237 10.6834 1.90237 11.3166 2.29289 11.7071C2.68342 12.0976 3.31658 12.0976 3.70711 11.7071L10 5.41421V8C10 8.55228 10.4477 9 11 9C11.5523 9 12 8.55228 12 8V3C12 2.44772 11.5523 2 11 2H6Z" fill="#FF8800"/>
<path d="M18 6.06066C18 5.47487 17.5251 5 16.9393 5C16.658 5 16.3883 5.11175 16.1893 5.31066L5.31066 16.1893C5.11175 16.3883 5 16.658 5 16.9393C5 17.5251 5.47487 18 6.06066 18H16.5C17.3284 18 18 17.3284 18 16.5V6.06066Z" fill="#FF8800"/>
</svg>
