<svg width="30" height="30" viewBox="0 0 30 30" fill="none" xmlns="http://www.w3.org/2000/svg">
<path opacity="0.2" d="M7 6H17.1537C17.8013 6 18.4214 6.26197 18.8728 6.72629C18.9575 6.8134 19.0354 6.90682 19.1059 7.00574L21.0111 9.6779C22.0018 11.0675 22.0018 12.9325 21.0111 14.3221L19.1059 16.9943C19.0354 17.0932 18.9575 17.1866 18.8728 17.2737C18.4214 17.738 17.8013 18 17.1537 18H7V6Z" fill="#FF8800"/>
<path fill-rule="evenodd" clip-rule="evenodd" d="M7 3C7.55228 3 8 3.44772 8 4V5H16.8086L17.0986 5.01074C17.7734 5.06065 18.4255 5.28405 18.9912 5.66113C19.3282 5.88576 19.6289 6.16132 19.8818 6.47754L23.4648 10.9561C23.4882 10.9853 23.5087 11.0173 23.5254 11.0508C23.824 11.6484 23.824 12.3516 23.5254 12.9492L23.4648 13.0439L19.8818 17.5225L19.6836 17.752C19.4766 17.9734 19.244 18.1703 18.9912 18.3389C18.4255 18.716 17.7734 18.9394 17.0986 18.9893L16.8086 19H8V26C8 26.5523 7.55228 27 7 27C6.44772 27 6 26.5523 6 26V4C6 3.44772 6.44772 3 7 3ZM8 17H16.8086C17.1906 16.9999 17.564 16.8867 17.8818 16.6748C18.0476 16.5643 18.1959 16.429 18.3203 16.2734L21.7383 12L18.3203 7.72656C18.1959 7.57103 18.0476 7.43568 17.8818 7.3252C17.564 7.11333 17.1906 7.00006 16.8086 7H8V17Z" fill="#FF8800"/>
</svg>
