<svg width="30" height="30" viewBox="0 0 30 30" fill="none" xmlns="http://www.w3.org/2000/svg">
<path d="M19.5 12C19.5 11.4477 19.9477 11 20.5 11C21.0523 11 21.5 11.4477 21.5 12C21.5 12.5522 21.0523 13 20.5 13C19.9477 13 19.5 12.5522 19.5 12Z" fill="#FF8800"/>
<path d="M19.5 16C19.5 15.4477 19.9477 15 20.5 15C21.0523 15 21.5 15.4477 21.5 16V19C21.5 19.5522 21.0523 20 20.5 20C19.9477 20 19.5 19.5522 19.5 19V16Z" fill="#FF8800"/>
<path fill-rule="evenodd" clip-rule="evenodd" d="M3 9.27712C3 8.43834 3.43571 7.54246 4.33332 7.08565C5.56171 6.4605 9.54654 4.86776 15 6.85355C20.4535 4.86776 24.4383 6.4605 25.6667 7.08565C26.5643 7.54246 27 8.43834 27 9.27712L27 22.4999C27 24.4593 25.0078 25.6162 23.3526 24.9645C22.5767 24.6591 21.3573 24.2545 20.0341 24.0848C18.6927 23.9128 17.4292 24.0056 16.4224 24.4955C15.526 24.9317 14.474 24.9317 13.5776 24.4955C12.5708 24.0056 11.3073 23.9128 9.96593 24.0848C8.6427 24.2545 7.42328 24.6591 6.64737 24.9645C4.99217 25.6162 3 24.4593 3 22.4999V9.27712ZM5.24044 8.8681C5.0868 8.94629 5 9.10473 5 9.27712V22.4999C5 22.9594 5.48722 23.2719 5.91471 23.1036C7.55369 22.4583 11.0915 21.3614 14 22.499V8.62192C9.38592 7.05564 6.12463 8.41812 5.24044 8.8681ZM24.0853 23.1036C22.4463 22.4583 18.9085 21.3614 16 22.499V8.62192C20.6141 7.05564 23.8754 8.41812 24.7596 8.8681C24.9132 8.94629 25 9.10473 25 9.27712L25 22.4999C25 22.9594 24.5128 23.2719 24.0853 23.1036Z" fill="#FF8800"/>
</svg>
