<svg width="30" height="30" viewBox="0 0 30 30" fill="none" xmlns="http://www.w3.org/2000/svg">
<path d="M17.3735 5.284C17.5173 5.31916 17.6604 5.35749 17.8025 5.39893L17.9259 5.3132C18.562 4.8713 19.3961 4.83644 20.0669 5.22372L20.9329 5.72372C21.6037 6.111 21.9906 6.85079 21.926 7.62265L21.9134 7.7724C22.0204 7.87477 22.1251 7.97953 22.2275 8.08651L22.3773 8.07396C23.1492 8.00933 23.889 8.3962 24.2762 9.06699L24.7762 9.93301C24.9754 10.2779 25.0629 10.666 25.0409 11.0482C24.3023 10.5675 23.4599 10.2328 22.5547 10.0851L22.5442 10.067L22.4756 10.0727C22.1574 10.0248 21.8316 10 21.5 10C21.4167 10 21.3338 10.0016 21.2513 10.0047C20.84 9.49023 20.358 9.02008 19.8351 8.62392L19.9329 7.45577L19.0669 6.95577L18.1042 7.62455C17.4375 7.34361 16.7177 7.1507 15.9994 7.06059L15.5 6H14.5L14.0006 7.06057C13.2826 7.15064 12.5628 7.34349 11.8958 7.62458L10.933 6.95577L10.0669 7.45577L10.1648 8.62392C9.58809 9.06083 9.06113 9.58772 8.6239 10.1648L7.45569 10.067L6.95569 10.933L7.62454 11.8959C7.34329 12.5633 7.15059 13.2828 7.06057 14H11.6456C11.8521 13.3052 12.2755 12.6683 12.9 12.1999C14.0747 11.3189 15.6229 11.288 16.8078 12.0019C16.3436 12.4859 15.9536 13.0417 15.6561 13.6508C15.1668 13.4134 14.5651 13.4513 14.1 13.8001C14.0179 13.8616 13.944 13.93 13.8783 14.0038C13.9186 14.0013 13.9592 14.0001 14.0001 14.0001H15.4981C15.2382 14.6235 15.0725 15.2961 15.0189 16H14L13 20L12 16H10L9 20L8 16H6L8 24H10L11 20L12 24H14L15 20V21.5C15 23.2465 15.6888 24.8321 16.8095 26L8.00002 26C7.08228 26 6.28232 25.3754 6.05973 24.4851L4.05973 16.4851C3.99894 16.2419 3.98512 15.9928 4.01567 15.7502C4.00531 15.6679 4 15.5844 4 15.5V14.5C4 13.7254 4.44724 13.0205 5.14801 12.6905L5.28392 12.6266C5.31909 12.4828 5.35743 12.3397 5.3989 12.1975L5.31311 12.074C4.87121 11.4379 4.83636 10.6038 5.22364 9.93301L5.72364 9.06699C6.11092 8.39619 6.8507 8.00933 7.62257 8.07396L7.77236 8.0865C7.87474 7.97953 7.9795 7.87476 8.08646 7.7724L8.07392 7.62264C8.0093 6.85078 8.39616 6.111 9.06695 5.72372L9.93297 5.22372C10.6038 4.83644 11.4379 4.8713 12.074 5.3132L12.1975 5.39895C12.3396 5.3575 12.4827 5.31915 12.6265 5.28398L12.6905 5.14801C13.0205 4.44724 13.7254 4 14.5 4H15.5C16.2746 4 16.9795 4.44724 17.3095 5.14801L17.3735 5.284Z" fill="#FF8800"/>
<path d="M19.6729 10.2603C19.0752 10.435 18.5131 10.6933 18.0002 11.0217C18.0001 11.0145 18 11.0072 18 11C18 10.4477 18.4477 10 19 10C19.2592 10 19.4953 10.0986 19.6729 10.2603Z" fill="#FF8800"/>
<path d="M15 10C15.5523 10 16 9.55228 16 9C16 8.44772 15.5523 8 15 8C14.4477 8 14 8.44772 14 9C14 9.55228 14.4477 10 15 10Z" fill="#FF8800"/>
<path d="M12 11C12 11.5523 11.5523 12 11 12C10.4477 12 10 11.5523 10 11C10 10.4477 10.4477 10 11 10C11.5523 10 12 10.4477 12 11Z" fill="#FF8800"/>
<g opacity="0.2">
<path fill-rule="evenodd" clip-rule="evenodd" d="M18.1042 7.62455L19.0669 6.95577L19.9329 7.45577L19.8351 8.62392C20.358 9.02008 20.84 9.49023 21.2513 10.0047C20.7053 10.0252 20.1765 10.1131 19.6729 10.2603C19.4953 10.0986 19.2592 10 19 10C18.4477 10 18 10.4477 18 11C18 11.0072 18.0001 11.0145 18.0002 11.0217C17.5645 11.3006 17.1643 11.6301 16.8078 12.0019C15.6229 11.288 14.0747 11.3189 12.9 12.1999C12.2755 12.6683 11.8521 13.3052 11.6456 14H7.06057C7.15059 13.2828 7.34329 12.5633 7.62454 11.8959L6.95569 10.933L7.45569 10.067L8.6239 10.1648C9.06113 9.58772 9.58809 9.06083 10.1648 8.62392L10.0669 7.45577L10.933 6.95577L11.8958 7.62458C12.5628 7.34349 13.2826 7.15064 14.0006 7.06057L14.5 6H15.5L15.9994 7.06059C16.7177 7.1507 17.4375 7.34361 18.1042 7.62455ZM15 10C15.5523 10 16 9.55228 16 9C16 8.44772 15.5523 8 15 8C14.4477 8 14 8.44772 14 9C14 9.55228 14.4477 10 15 10ZM11 12C11.5523 12 12 11.5523 12 11C12 10.4477 11.5523 10 11 10C10.4477 10 10 10.4477 10 11C10 11.5523 10.4477 12 11 12Z" fill="#FF8800"/>
<path d="M22.5547 10.0851L22.5442 10.067L22.4756 10.0727C22.502 10.0767 22.5284 10.0808 22.5547 10.0851Z" fill="#FF8800"/>
</g>
<path opacity="0.2" d="M15.6561 13.6508C15.1668 13.4134 14.5651 13.4513 14.1 13.8001C14.0179 13.8616 13.944 13.93 13.8783 14.0038C13.9186 14.0013 13.9592 14.0001 14.0001 14.0001H15.4981C15.5474 13.8819 15.6001 13.7654 15.6561 13.6508Z" fill="#FF8800"/>
<path fill-rule="evenodd" clip-rule="evenodd" d="M21.5 12C19.0147 12 17 14.0147 17 16.5V21.5C17 23.9853 19.0147 26 21.5 26C23.9853 26 26 23.9853 26 21.5V16.5C26 14.0147 23.9853 12 21.5 12ZM22 18V14L19 20H21L21 24L24 18H22Z" fill="#FF8800"/>
</svg>
