<svg width="30" height="30" viewBox="0 0 30 30" fill="none" xmlns="http://www.w3.org/2000/svg">
<g opacity="0.2">
<path d="M23.061 6.11056C20.9308 4.17773 18.103 3 15 3C8.37258 3 3 8.37258 3 15C3 18.103 4.17773 20.9308 6.11056 23.061L23.061 6.11056Z" fill="#FF8800"/>
<path d="M25.5505 9.27793L9.27793 25.5505C10.9788 26.4749 12.9281 27 15 27C21.6274 27 27 21.6274 27 15C27 12.9281 26.4749 10.9788 25.5505 9.27793Z" fill="#FF8800"/>
</g>
<path d="M26.7071 4.70711C27.0976 4.31658 27.0976 3.68342 26.7071 3.29289C26.3166 2.90237 25.6834 2.90237 25.2929 3.29289L18.5085 10.0773C17.8285 8.83921 16.5123 8 15 8C12.7909 8 11 9.79086 11 12C11 13.5123 11.8392 14.8285 13.0773 15.5085L3.29289 25.2929C2.90237 25.6834 2.90237 26.3166 3.29289 26.7071C3.68342 27.0976 4.31658 27.0976 4.70711 26.7071L26.7071 4.70711Z" fill="#FF8800"/>
<path d="M15 25C13.4867 25 12.0519 24.6639 10.7663 24.0622L16.7065 18.1219C19.6634 18.5552 21.7081 20.0736 22.5583 21.548C20.7247 23.6626 18.0185 25 15 25Z" fill="#FF8800"/>
</svg>
