<svg width="30" height="30" viewBox="0 0 30 30" fill="none" xmlns="http://www.w3.org/2000/svg">
<path fill-rule="evenodd" clip-rule="evenodd" d="M7 8C7 6.34315 8.34315 5 10 5H18C20.2091 5 22 6.79086 22 9V15.6827C22.6312 16.6328 23 17.7749 23 19C23 22.3137 20.3137 25 17 25H10C8.34315 25 7 23.6569 7 22V8Z" fill="#595959"/>
<path fill-rule="evenodd" clip-rule="evenodd" d="M9 8C9 7.44772 9.44772 7 10 7H16H17H18C19.1046 7 20 7.89543 20 9V16.3542C20.6224 17.0593 21 17.9856 21 19C21 21.2091 19.2091 23 17 23H10C9.44772 23 9 22.5523 9 22V8Z" fill="url(#paint0_linear_1988_16312)"/>
<path d="M17 9C16.4477 9 16 9.44771 16 10V17.2676C15.4022 17.6134 15 18.2597 15 19C15 20.1046 15.8954 21 17 21C18.1046 21 19 20.1046 19 19C19 18.2597 18.5978 17.6134 18 17.2676V10C18 9.44772 17.5523 9 17 9Z" fill="url(#paint1_linear_1988_16312)"/>
<path d="M12 9C11.4477 9 11 9.44772 11 10C11 10.5523 11.4477 11 12 11H13C13.5523 11 14 10.5523 14 10C14 9.44772 13.5523 9 13 9H12Z" fill="#616161"/>
<path d="M11 14C11 13.4477 11.4477 13 12 13H13C13.5523 13 14 13.4477 14 14C14 14.5523 13.5523 15 13 15H12C11.4477 15 11 14.5523 11 14Z" fill="#616161"/>
<path d="M11 18C11 17.4477 11.4477 17 12 17C12.5523 17 13 17.4477 13 18C13 18.5523 12.5523 19 12 19C11.4477 19 11 18.5523 11 18Z" fill="#616161"/>
<defs>
<linearGradient id="paint0_linear_1988_16312" x1="15.1143" y1="7" x2="15.1143" y2="23" gradientUnits="userSpaceOnUse">
<stop/>
<stop offset="1" stop-color="#333333"/>
</linearGradient>
<linearGradient id="paint1_linear_1988_16312" x1="16" y1="5" x2="16" y2="21" gradientUnits="userSpaceOnUse">
<stop stop-color="#FFC107"/>
<stop offset="0.695" stop-color="#D2B138"/>
<stop offset="1" stop-color="#1D73FA"/>
</linearGradient>
</defs>
</svg>
