<svg width="30" height="30" viewBox="0 0 30 30" fill="none" xmlns="http://www.w3.org/2000/svg">
<path opacity="0.5" d="M27 15C27 21.6274 21.6274 27 15 27C8.37258 27 3 21.6274 3 15C3 8.37258 8.37258 3 15 3C21.6274 3 27 8.37258 27 15Z" fill="black"/>
<path d="M18 18C18.5523 18 19 18.4477 19 19C19 19.5523 18.5523 20 18 20H12C11.4477 20 11 19.5523 11 19C11 18.4477 11.4477 18 12 18H18Z" fill="white"/>
<path d="M15 8C15.5523 8 16 8.44772 16 9V13.5859L17.293 12.293C17.6835 11.9024 18.3165 11.9024 18.707 12.293C19.0976 12.6835 19.0976 13.3165 18.707 13.707L15.707 16.707C15.3409 17.0731 14.7619 17.0957 14.3691 16.7754L14.293 16.707L11.293 13.707L11.2246 13.6309C10.9043 13.2381 10.9269 12.6591 11.293 12.293C11.6591 11.9269 12.2381 11.9043 12.6309 12.2246L12.707 12.293L14 13.5859V9C14 8.44772 14.4477 8 15 8Z" fill="white"/>
<path fill-rule="evenodd" clip-rule="evenodd" d="M15 5C20.5228 5 25 9.47715 25 15C25 20.5228 20.5228 25 15 25C9.47715 25 5 20.5228 5 15C5 9.47715 9.47715 5 15 5ZM15 7C10.5817 7 7 10.5817 7 15C7 19.4183 10.5817 23 15 23C19.4183 23 23 19.4183 23 15C23 10.5817 19.4183 7 15 7Z" fill="white"/>
</svg>
