<svg width="50" height="50" viewBox="0 0 50 50" fill="none" xmlns="http://www.w3.org/2000/svg">
<path d="M32 23C32 19.134 28.866 16 25 16C21.134 16 18 19.134 18 23V28.4583L22.88 27.035C22.9596 27.0118 23.0421 27 23.125 27H23.191C23.6378 27 24 27.3622 24 27.809C24 27.9346 23.9708 28.0585 23.9146 28.1708L15.7236 44.5528C15.5866 44.8269 15.3064 45 15 45C14.6936 45 14.4134 44.8269 14.2764 44.5528L6.08541 28.1708C6.02924 28.0585 6 27.9346 6 27.809C6 27.3622 6.36221 27 6.80902 27H6.875C6.95791 27 7.0404 27.0118 7.12 27.035L12 28.4583V23C12 15.8203 17.8203 10 25 10C32.1797 10 38 15.8203 38 23V45H32V23Z" fill="white"/>
</svg>
