<svg width="30" height="30" viewBox="0 0 30 30" fill="none" xmlns="http://www.w3.org/2000/svg">
<path fill-rule="evenodd" clip-rule="evenodd" d="M13.8293 9C13.4175 10.1652 12.3062 11 11 11C9.69378 11 8.58254 10.1652 8.17071 9H6C5.44772 9 5 8.55228 5 8C5 7.44772 5.44772 7 6 7H8.17071C8.58254 5.83481 9.69378 5 11 5C12.3062 5 13.4175 5.83481 13.8293 7H24C24.5523 7 25 7.44772 25 8C25 8.55228 24.5523 9 24 9H13.8293ZM12 8C12 8.55228 11.5523 9 11 9C10.4477 9 10 8.55228 10 8C10 7.44772 10.4477 7 11 7C11.5523 7 12 7.44772 12 8Z" fill="#FF8800"/>
<path fill-rule="evenodd" clip-rule="evenodd" d="M13.8293 23C13.4175 24.1652 12.3062 25 11 25C9.69378 25 8.58254 24.1652 8.17071 23H6C5.44772 23 5 22.5523 5 22C5 21.4477 5.44772 21 6 21H8.17071C8.58254 19.8348 9.69378 19 11 19C12.3062 19 13.4175 19.8348 13.8293 21H24C24.5523 21 25 21.4477 25 22C25 22.5523 24.5523 23 24 23H13.8293ZM12 22C12 22.5523 11.5523 23 11 23C10.4477 23 10 22.5523 10 22C10 21.4477 10.4477 21 11 21C11.5523 21 12 21.4477 12 22Z" fill="#FF8800"/>
<path fill-rule="evenodd" clip-rule="evenodd" d="M20 18C18.6938 18 17.5825 17.1652 17.1707 16H6C5.44772 16 5 15.5523 5 15C5 14.4477 5.44772 14 6 14H17.1707C17.5825 12.8348 18.6938 12 20 12C21.3062 12 22.4175 12.8348 22.8293 14H24C24.5523 14 25 14.4477 25 15C25 15.5523 24.5523 16 24 16H22.8293C22.4175 17.1652 21.3062 18 20 18ZM20 16C19.4477 16 19 15.5523 19 15C19 14.4477 19.4477 14 20 14C20.5523 14 21 14.4477 21 15C21 15.5523 20.5523 16 20 16Z" fill="#FF8800"/>
</svg>
