<svg width="30" height="30" viewBox="0 0 30 30" fill="none" xmlns="http://www.w3.org/2000/svg">
<path fill-rule="evenodd" clip-rule="evenodd" d="M11 7C11 4.79086 12.7909 3 15 3C17.2091 3 19 4.79086 19 7V16.5278C20.2275 17.6264 21 19.223 21 21C21 24.3137 18.3137 27 15 27C11.6863 27 9 24.3137 9 21C9 19.223 9.7725 17.6264 11 16.5278V7ZM13 17.4218L12.3338 18.0181C11.7519 18.5389 11.3251 19.2238 11.1257 20H18.8743C18.6749 19.2238 18.2481 18.5389 17.6662 18.0181L17 17.4218V7C17 5.89543 16.1046 5 15 5C13.8954 5 13 5.89543 13 7V8H14C14.5523 8 15 8.44772 15 9C15 9.55228 14.5523 10 14 10H13V12H14C14.5523 12 15 12.4477 15 13C15 13.5523 14.5523 14 14 14H13V17.4218Z" fill="#FF8800"/>
</svg>
