<svg width="30" height="30" viewBox="0 0 30 30" fill="none" xmlns="http://www.w3.org/2000/svg">
<path opacity="0.2" d="M4 6C3.44772 6 3 6.44772 3 7V23C3 23.5523 3.44772 24 4 24H14C14.5523 24 15 23.5523 15 23V22H12.25C11.655 22 11.076 21.807 10.6 21.45L5.2 17.4C4.44458 16.8334 4 15.9443 4 15C4 14.0557 4.44458 13.1666 5.2 12.6L10.6 8.55C11.076 8.19299 11.655 8 12.25 8H15V7C15 6.44772 14.5523 6 14 6H4Z" fill="#FF8800"/>
<path d="M14 6C14.5523 6 15 6.44772 15 7V8H13V7C13 6.44772 13.4477 6 14 6Z" fill="#FF8800"/>
<path d="M19 13V12C19 11.4477 19.4477 11 20 11C20.5523 11 21 11.4477 21 12V13C21 13.5523 20.5523 14 20 14C19.4477 14 19 13.5523 19 13Z" fill="#FF8800"/>
<path d="M19 18V17C19 16.4477 19.4477 16 20 16C20.5523 16 21 16.4477 21 17V18C21 18.5523 20.5523 19 20 19C19.4477 19 19 18.5523 19 18Z" fill="#FF8800"/>
<path d="M13 23V22H15V23C15 23.5523 14.5523 24 14 24C13.4477 24 13 23.5523 13 23Z" fill="#FF8800"/>
<path d="M20 9C19.4477 9 19 8.55228 19 8V7C19 6.44772 19.4477 6 20 6C20.5523 6 21 6.44772 21 7V8C21 8.55228 20.5523 9 20 9Z" fill="#FF8800"/>
<path d="M26 6C26.5523 6 27 6.44772 27 7V23C27 23.5523 26.5523 24 26 24C25.4477 24 25 23.5523 25 23V7C25 6.44772 25.4477 6 26 6Z" fill="#FF8800"/>
<path d="M20 21C20.5523 21 21 21.4477 21 22V23C21 23.5523 20.5523 24 20 24C19.4477 24 19 23.5523 19 23V22C19 21.4477 19.4477 21 20 21Z" fill="#FF8800"/>
<path d="M13 10.75C13 10.3358 12.6642 10 12.25 10C12.0877 10 11.9298 10.0526 11.8 10.15L6.4 14.2C6.14819 14.3889 6 14.6852 6 15C6 15.3148 6.14819 15.6111 6.4 15.8L11.8 19.85C11.9298 19.9474 12.0877 20 12.25 20C12.6642 20 13 19.6642 13 19.25V17H16C16.5523 17 17 16.5523 17 16V14C17 13.4477 16.5523 13 16 13H13V10.75Z" fill="#FF8800"/>
</svg>
