<svg width="30" height="30" viewBox="0 0 30 30" fill="none" xmlns="http://www.w3.org/2000/svg">
<path d="M17 6C15.8954 6 15 6.89543 15 8V11.2251L14.5272 11.3827C13.9939 10.5511 13.0613 10 12 10H8C6.34315 10 5 11.3431 5 13V19C5 20.6569 6.34315 22 8 22H12C13.0613 22 13.9939 21.4489 14.5272 20.6173L15 20.7749V24C15 25.1046 15.8954 26 17 26H21C21.8089 26 22.5382 25.5127 22.8478 24.7654C23.136 24.0695 23.0075 23.2757 22.5267 22.7079C22.5571 22.6697 22.5876 22.631 22.6181 22.5918C23.7327 21.1587 25 18.8992 25 16C25 13.1008 23.7327 10.8413 22.6181 9.40818C22.5876 9.369 22.5571 9.33029 22.5267 9.29206C23.0075 8.72426 23.136 7.93051 22.8478 7.23463C22.5382 6.48728 21.8089 6 21 6H17Z" fill="white" fill-opacity="0.3"/>
<path d="M17 5C15.8954 5 15 5.89543 15 7V10.2251L14.5272 10.3827C13.9939 9.5511 13.0613 9 12 9H8C6.34315 9 5 10.3431 5 12V18C5 19.6569 6.34315 21 8 21H12C13.0613 21 13.9939 20.4489 14.5272 19.6173L15 19.7749V23C15 24.1046 15.8954 25 17 25H21C21.8089 25 22.5382 24.5127 22.8478 23.7654C23.136 23.0695 23.0075 22.2757 22.5267 21.7079C22.5571 21.6697 22.5876 21.631 22.6181 21.5918C23.7327 20.1587 25 17.8992 25 15C25 12.1008 23.7327 9.84134 22.6181 8.40818C22.5876 8.369 22.5571 8.33029 22.5267 8.29206C23.0075 7.72426 23.136 6.93051 22.8478 6.23463C22.5382 5.48728 21.8089 5 21 5H17Z" fill="#59361B"/>
<path d="M17 7H21L19.7548 8.24522C20.1115 8.57109 20.575 9.0391 21.0394 9.63606C21.9944 10.8639 23 12.7004 23 15C23 17.2996 21.9944 19.1361 21.0394 20.3639C20.575 20.9609 20.1115 21.4289 19.7548 21.7548L21 23H17V19L18.3388 20.3388L18.376 20.3053C18.6708 20.0386 19.0662 19.6432 19.4606 19.1361C20.2556 18.1139 21 16.7004 21 15C21 13.2996 20.2556 11.8861 19.4606 10.8639C19.0662 10.3568 18.6708 9.96145 18.376 9.69467L18.3388 9.66122L17 11V7Z" fill="#FFC107"/>
<path d="M7 12C7 11.4477 7.44772 11 8 11H12C12.5523 11 13 11.4477 13 12V13L16 12V18L13 17V18C13 18.5523 12.5523 19 12 19H8C7.44772 19 7 18.5523 7 18V12Z" fill="#FFC107"/>
</svg>
