<svg width="375" height="90" viewBox="0 0 375 90" fill="none" xmlns="http://www.w3.org/2000/svg">
<g clip-path="url(#clip0_1775_217)">
<rect width="375" height="90" fill="white"/>
<path d="M0 0H375V90H0V0Z" fill="white"/>
<rect x="16" y="82" width="343" height="8" fill="#D7D8DB"/>
<path d="M67 68C70.866 68 74 71.134 74 75C74 78.866 70.866 82 67 82C63.134 82 60 78.866 60 75C60 71.134 63.134 68 67 68ZM89 68C92.866 68 96 71.134 96 75C96 78.866 92.866 82 89 82C85.134 82 82 78.866 82 75C82 71.134 85.134 68 89 68ZM158 68C161.866 68 165 71.134 165 75C165 78.866 161.866 82 158 82C154.134 82 151 78.866 151 75C151 71.134 154.134 68 158 68ZM67 72C65.3431 72 64 73.3431 64 75C64 76.6569 65.3431 78 67 78C68.6569 78 70 76.6569 70 75C70 73.3431 68.6569 72 67 72ZM89 72C87.3431 72 86 73.3431 86 75C86 76.6569 87.3431 78 89 78C90.6569 78 92 76.6569 92 75C92 73.3431 90.6569 72 89 72ZM158 72C156.343 72 155 73.3431 155 75C155 76.6569 156.343 78 158 78C159.657 78 161 76.6569 161 75C161 73.3431 159.657 72 158 72ZM140 69H143V36H161L173 52V75H167C167 70.0294 162.971 66 158 66C153.029 66 149 70.0294 149 75H98C98 70.0294 93.9706 66 89 66C84.0294 66 80 70.0294 80 75H76C76 70.0294 71.9706 66 67 66C62.0294 66 58 70.0294 58 75H50V69H53V65H50V29H140V69ZM150 52H167V50.334L158.999 40H150V52Z" fill="#237BFF"/>
<path d="M50 83L44 89V77L50 83ZM179 89L173 83L179 77V89ZM63 82C63.5523 82 64 82.4477 64 83C64 83.5523 63.5523 84 63 84H56C55.4477 84 55 83.5523 55 83C55 82.4477 55.4477 82 56 82H63ZM78 82C78.5523 82 79 82.4477 79 83C79 83.5523 78.5523 84 78 84H71C70.4477 84 70 83.5523 70 83C70 82.4477 70.4477 82 71 82H78ZM93 82C93.5523 82 94 82.4477 94 83C94 83.5523 93.5523 84 93 84H86C85.4477 84 85 83.5523 85 83C85 82.4477 85.4477 82 86 82H93ZM108 82C108.552 82 109 82.4477 109 83C109 83.5523 108.552 84 108 84H101C100.448 84 100 83.5523 100 83C100 82.4477 100.448 82 101 82H108ZM123 82C123.552 82 124 82.4477 124 83C124 83.5523 123.552 84 123 84H116C115.448 84 115 83.5523 115 83C115 82.4477 115.448 82 116 82H123ZM138 82C138.552 82 139 82.4477 139 83C139 83.5523 138.552 84 138 84H131C130.448 84 130 83.5523 130 83C130 82.4477 130.448 82 131 82H138ZM153 82C153.552 82 154 82.4477 154 83C154 83.5523 153.552 84 153 84H146C145.448 84 145 83.5523 145 83C145 82.4477 145.448 82 146 82H153ZM168 82C168.552 82 169 82.4477 169 83C169 83.5523 168.552 84 168 84H161C160.448 84 160 83.5523 160 83C160 82.4477 160.448 82 161 82H168Z" fill="#EE5622"/>
<circle cx="280" cy="42" r="32" fill="#EE5622"/>
<circle cx="280" cy="42" r="26" fill="white"/>
<path d="M260 54L268 42L260 30V54Z" fill="black"/>
<path d="M292 42L300 30V54L292 42Z" fill="black"/>
<path d="M280 32V48H288V52H276V32H280Z" fill="black"/>
</g>
<defs>
<clipPath id="clip0_1775_217">
<rect width="375" height="90" fill="white"/>
</clipPath>
</defs>
</svg>
