<svg width="30" height="30" viewBox="0 0 30 30" fill="none" xmlns="http://www.w3.org/2000/svg">
<path d="M18.7071 17.7071L15.7071 20.7071C15.3166 21.0976 14.6834 21.0976 14.2929 20.7071L11.2929 17.7071C10.9024 17.3166 10.9024 16.6834 11.2929 16.2929C11.6834 15.9024 12.3166 15.9024 12.7071 16.2929L14 17.5858V4C14 3.44772 14.4477 3 15 3C15.5523 3 16 3.44772 16 4V17.5858L17.2929 16.2929C17.6834 15.9024 18.3166 15.9024 18.7071 16.2929C19.0976 16.6834 19.0976 17.3166 18.7071 17.7071Z" fill="#FF8800"/>
<path d="M9 10C7.34315 10 6 11.3431 6 13V23C6 24.6569 7.34315 26 9 26H21C22.6569 26 24 24.6569 24 23V13C24 11.3431 22.6569 10 21 10H20C19.4477 10 19 10.4477 19 11C19 11.5523 19.4477 12 20 12H21C21.5523 12 22 12.4477 22 13V23C22 23.5523 21.5523 24 21 24H9C8.44772 24 8 23.5523 8 23V13C8 12.4477 8.44772 12 9 12H10C10.5523 12 11 11.5523 11 11C11 10.4477 10.5523 10 10 10H9Z" fill="#FF8800"/>
</svg>
