<svg width="30" height="30" viewBox="0 0 30 30" fill="none" xmlns="http://www.w3.org/2000/svg">
<path d="M13 3C12.4477 3 12 3.44772 12 4C12 4.55228 12.4477 5 13 5H17C17.5523 5 18 4.55228 18 4C18 3.44772 17.5523 3 17 3H13Z" fill="#FF8800"/>
<path fill-rule="evenodd" clip-rule="evenodd" d="M25 17C25 22.5228 20.5228 27 15 27C9.47715 27 5 22.5228 5 17C5 11.4772 9.47715 7 15 7C17.4013 7 19.6049 7.84637 21.3287 9.25705L22.2929 8.29289C22.6834 7.90237 23.3166 7.90237 23.7071 8.29289C24.0976 8.68342 24.0976 9.31658 23.7071 9.70711L22.7429 10.6713C24.1536 12.3951 25 14.5987 25 17ZM16 11.1429C16 10.5117 15.5523 10 15 10C14.4477 10 14 10.5117 14 11.1429V16.8571C14 17.4883 14.4477 18 15 18C15.5523 18 16 17.4883 16 16.8571V11.1429Z" fill="#FF8800"/>
</svg>
