<svg width="30" height="30" viewBox="0 0 30 30" fill="none" xmlns="http://www.w3.org/2000/svg">
<path opacity="0.5" fill-rule="evenodd" clip-rule="evenodd" d="M5.5 24L8.5 24C9.88071 24 11 22.8807 11 21.5L11 8.5C11 7.11929 9.88071 6 8.5 6L5.5 6C4.11929 6 3 7.11929 3 8.5L3 21.5C3 22.8807 4.11929 24 5.5 24ZM5.5 22C5.22386 22 5 21.7761 5 21.5L5 8.5C5 8.22386 5.22386 8 5.5 8L8.5 8C8.77614 8 9 8.22386 9 8.5L9 21.5C9 21.7761 8.77614 22 8.5 22L5.5 22Z" fill="#FF8800"/>
<path fill-rule="evenodd" clip-rule="evenodd" d="M15 24C13.8954 24 13 23.1046 13 22V8C13 6.89543 13.8954 6 15 6L25 6C26.1046 6 27 6.89543 27 8L27 22C27 23.1046 26.1046 24 25 24H15ZM24 16C24.5523 16 25 15.5523 25 15C25 14.4477 24.5523 14 24 14H21V11C21 10.4477 20.5523 10 20 10C19.4477 10 19 10.4477 19 11V14H16C15.4477 14 15 14.4477 15 15C15 15.5523 15.4477 16 16 16H19V19C19 19.5523 19.4477 20 20 20C20.5523 20 21 19.5523 21 19L21 16H24Z" fill="#FF8800"/>
</svg>
