<svg width="30" height="30" viewBox="0 0 30 30" fill="none" xmlns="http://www.w3.org/2000/svg">
<path d="M6.70711 6.29289C6.31658 5.90237 5.68342 5.90237 5.29289 6.29289C4.90237 6.68342 4.90237 7.31658 5.29289 7.70711L7.93766 10.3519C5.49023 12.0509 3.87772 14.1967 3.27053 15.0854C3.08596 15.3556 3 15.6728 3 16C3 16.3272 3.08596 16.6444 3.27053 16.9146C4.34534 18.4877 8.57021 24 15 24C16.9824 24 18.7553 23.476 20.2908 22.705L23.2929 25.7071C23.6834 26.0976 24.3166 26.0976 24.7071 25.7071C25.0976 25.3166 25.0976 24.6834 24.7071 24.2929L22.0623 21.6481C24.5098 19.9491 26.1223 17.8033 26.7295 16.9146C26.914 16.6444 27 16.3272 27 16C27 15.6728 26.914 15.3556 26.7295 15.0854C25.6547 13.5123 21.4298 8 15 8C13.0176 8 11.2447 8.524 9.70921 9.295L6.70711 6.29289Z" fill="black" fill-opacity="0.3"/>
<path d="M6.70711 5.29289C6.31658 4.90237 5.68342 4.90237 5.29289 5.29289C4.90237 5.68342 4.90237 6.31658 5.29289 6.70711L7.93766 9.35187C5.49023 11.0509 3.87772 13.1967 3.27053 14.0854C3.08596 14.3556 3 14.6728 3 15C3 15.3272 3.08596 15.6444 3.27053 15.9146C4.34534 17.4877 8.57021 23 15 23C16.9824 23 18.7553 22.476 20.2908 21.705L23.2929 24.7071C23.6834 25.0976 24.3166 25.0976 24.7071 24.7071C25.0976 24.3166 25.0976 23.6834 24.7071 23.2929L22.0623 20.6481C24.5098 18.9491 26.1223 16.8033 26.7295 15.9146C26.914 15.6444 27 15.3272 27 15C27 14.6728 26.914 14.3556 26.7295 14.0854C25.6547 12.5123 21.4298 7 15 7C13.0176 7 11.2447 7.524 9.70921 8.295L6.70711 5.29289Z" fill="#FFC107"/>
<path d="M9.37133 10.7855C6.63063 12.5541 5 15 5 15C5 15 9 21 15 21C16.3747 21 17.6445 20.685 18.7852 20.1994L16.2934 17.7076C15.9018 17.895 15.4631 18 15 18C13.3431 18 12 16.6569 12 15C12 14.5369 12.105 14.0982 12.2924 13.7066L9.37133 10.7855Z" fill="#59361B"/>
<path d="M17.7076 16.2934C17.895 15.9018 18 15.4631 18 15C18 13.3431 16.6569 12 15 12C14.5369 12 14.0982 12.105 13.7066 12.2924L11.2148 9.80061C12.3555 9.31498 13.6253 9 15 9C21 9 25 15 25 15C25 15 23.3694 17.4459 20.6287 19.2145L17.7076 16.2934Z" fill="#59361B"/>
</svg>
