<svg width="30" height="30" viewBox="0 0 30 30" fill="none" xmlns="http://www.w3.org/2000/svg">
<circle cx="15" cy="15" r="11" fill="#595959"/>
<circle cx="15" cy="15" r="9" fill="url(#paint0_linear_2102_23738)"/>
<path fill-rule="evenodd" clip-rule="evenodd" d="M6 15C6 12.7692 6.81159 10.728 8.15561 9.15556L9.08845 10.0884C8.74151 10.2453 8.50011 10.5945 8.50011 11C8.50011 11.5523 8.94783 12 9.50011 12C9.90565 12 10.2548 11.7586 10.4117 11.4117L10.9998 11.9998C10.372 12.8355 10 13.8743 10 15C10 15.9577 10.2692 16.8524 10.7361 17.6127C10.8741 17.8374 10.844 18.1337 10.6438 18.3053L8.35249 20.2693C8.13754 20.4535 7.81145 20.4235 7.64794 20.1923C6.60994 18.7253 6 16.9339 6 15ZM7.34962 17.339C7.5111 17.8671 8.07015 18.1644 8.5983 18.0029C9.12645 17.8414 9.42371 17.2824 9.26223 16.7542C9.10076 16.2261 8.54171 15.9288 8.01356 16.0903C7.4854 16.2518 7.18815 16.8108 7.34962 17.339Z" fill="white"/>
<path d="M10.2619 11.6479L10.897 12.1419C11.8006 10.8471 13.3015 10 15.0002 10C16.6989 10 18.1998 10.8471 19.1034 12.142L19.7383 11.6481C19.5896 11.4736 19.4999 11.2473 19.4999 11C19.4999 10.4477 19.9476 10 20.4999 10C20.8366 10 21.1344 10.1664 21.3156 10.4214L22.2634 9.68424C20.6257 7.45039 17.9823 6 15.0002 6C12.0181 6 9.37474 7.45037 7.73706 9.68419L8.68458 10.4211C8.86582 10.1663 9.16355 10 9.50011 10C10.0524 10 10.5001 10.4477 10.5001 11C10.5001 11.2472 10.4104 11.4734 10.2619 11.6479Z" fill="#FFC107"/>
<path fill-rule="evenodd" clip-rule="evenodd" d="M20 15C20 13.8743 19.628 12.8355 19.0002 11.9998L19.5883 11.4118C19.7453 11.7586 20.0944 12 20.4999 12C21.0522 12 21.4999 11.5523 21.4999 11C21.4999 10.5945 21.2585 10.2454 20.9116 10.0884L21.8444 9.15562C23.1884 10.7281 24 12.7693 24 15C24 16.9339 23.3901 18.7253 22.3521 20.1923C22.1886 20.4235 21.8625 20.4535 21.6475 20.2693L19.3562 18.3053C19.156 18.1337 19.1259 17.8374 19.2639 17.6128C19.7308 16.8524 20 15.9577 20 15ZM22.6504 17.339C22.4889 17.8671 21.9299 18.1644 21.4017 18.0029C20.8736 17.8414 20.5763 17.2824 20.7378 16.7542C20.8993 16.2261 21.4583 15.9288 21.9865 16.0903C22.5146 16.2518 22.8119 16.8108 22.6504 17.339Z" fill="#EE5622"/>
<path fill-rule="evenodd" clip-rule="evenodd" d="M15 7C16.1046 7 17 7.89543 17 9V12.764C17.6127 13.3125 18 14.1106 18 15C18 16.6568 16.6569 18 15 18C13.3431 18 12 16.6568 12 15C12 14.1106 12.3873 13.3125 13 12.764V9C13 7.89543 13.8954 7 15 7Z" fill="black" fill-opacity="0.4"/>
<path d="M16 9C16 8.44772 15.5523 8 15 8C14.4477 8 14 8.44772 14 9V13.2675C13.4022 13.6133 13 14.2597 13 15C13 16.1045 13.8954 17 15 17C16.1046 17 17 16.1045 17 15C17 14.2597 16.5978 13.6133 16 13.2675V9Z" fill="white"/>
<path d="M12 21C12 20.4477 12.4477 20 13 20H17C17.5523 20 18 20.4477 18 21C18 21.5523 17.5523 22 17 22H13C12.4477 22 12 21.5523 12 21Z" fill="#474747"/>
<defs>
<linearGradient id="paint0_linear_2102_23738" x1="15" y1="6" x2="15" y2="24" gradientUnits="userSpaceOnUse">
<stop/>
<stop offset="1" stop-color="#333333"/>
</linearGradient>
</defs>
</svg>
