<svg width="30" height="30" viewBox="0 0 30 30" fill="none" xmlns="http://www.w3.org/2000/svg">
<path d="M7 5C7 4.44772 7.44772 4 8 4H13C13.3635 4 13.6984 4.19728 13.8746 4.51523C14.0509 4.83319 14.0407 5.22173 13.848 5.53L9.80425 12H13C13.5523 12 14 12.4477 14 13C14 13.5523 13.5523 14 13 14H8C7.63647 14 7.30158 13.8027 7.12536 13.4848C6.94913 13.1668 6.95933 12.7783 7.152 12.47L11.1958 6H8C7.44772 6 7 5.55228 7 5Z" fill="#FF8800"/>
<path d="M21 5C21 4.44772 20.5523 4 20 4C19.4477 4 19 4.44772 19 5V22.5858L17.7071 21.2929C17.3166 20.9024 16.6834 20.9024 16.2929 21.2929C15.9024 21.6834 15.9024 22.3166 16.2929 22.7071L19.2877 25.7019C19.3061 25.7206 19.3252 25.7386 19.3451 25.7558C19.498 25.8885 19.6816 25.9672 19.8708 25.9917C19.9364 26.0002 20.0022 26.0022 20.0675 25.9977C20.3005 25.9821 20.529 25.8852 20.7071 25.7071L23.7071 22.7071C24.0976 22.3166 24.0976 21.6834 23.7071 21.2929C23.3166 20.9024 22.6834 20.9024 22.2929 21.2929L21 22.5858V5Z" fill="#FF8800"/>
<path fill-rule="evenodd" clip-rule="evenodd" d="M8.89665 17.1789C9.11585 16.4775 9.76542 16 10.5003 16C11.2351 16 11.8847 16.4776 12.1039 17.179L14.4545 24.7018C14.6192 25.2289 14.3254 25.7898 13.7982 25.9545C13.2711 26.1192 12.7102 25.8254 12.5455 25.2982L12.1398 24H8.86023L8.45446 25.2983C8.28971 25.8254 7.72883 26.1192 7.20169 25.9545C6.67455 25.7897 6.38077 25.2288 6.54552 24.7017L8.89665 17.1789ZM10.5002 18.7526L11.5149 22H9.4853L10.5002 18.7526Z" fill="#FF8800"/>
</svg>
