<svg width="30" height="30" viewBox="0 0 30 30" fill="none" xmlns="http://www.w3.org/2000/svg">
<path d="M26 15C26 21.0751 21.0751 26 15 26C8.92487 26 4 21.0751 4 15C4 8.92487 8.92487 4 15 4C21.0751 4 26 8.92487 26 15Z" fill="#394642"/>
<path d="M15 6C19.9706 6 24 10.0294 24 15C24 19.9706 19.9706 24 15 24C10.0294 24 6 19.9706 6 15C6 10.0294 10.0294 6 15 6Z" fill="url(#paint0_linear_1958_16202)"/>
<path fill-rule="evenodd" clip-rule="evenodd" d="M18 15C18 16.6568 16.6569 18 15 18C14.1107 18 13.3125 17.6127 12.7641 17H8C6.89543 17 6 16.1045 6 15C6 13.8954 6.89543 13 8 13H12.7641C13.3125 12.3873 14.1107 12 15 12C16.6569 12 18 13.3431 18 15Z" fill="black" fill-opacity="0.1"/>
<path fill-rule="evenodd" clip-rule="evenodd" d="M15 17C16.1046 17 17 16.1045 17 15C17 13.8954 16.1046 13 15 13C14.2597 13 13.6134 13.4022 13.2676 14H8C7.44772 14 7 14.4477 7 15C7 15.5523 7.44772 16 8 16H13.2676C13.6134 16.5978 14.2597 17 15 17Z" fill="white"/>
<path d="M13 11L11.5 9L10 11L13 11Z" fill="white"/>
<path d="M13 19L11.5 21L10 19H13Z" fill="white"/>
<g opacity="0.3">
<path d="M16 8C16 8.55228 15.5523 9 15 9C14.4477 9 14 8.55228 14 8C14 7.44772 14.4477 7 15 7C15.5523 7 16 7.44772 16 8Z" fill="white"/>
<path d="M21 10C21 10.5523 20.5523 11 20 11C19.4477 11 19 10.5523 19 10C19 9.44772 19.4477 9 20 9C20.5523 9 21 9.44772 21 10Z" fill="white"/>
<path d="M20 21C20.5523 21 21 20.5523 21 20C21 19.4477 20.5523 19 20 19C19.4477 19 19 19.4477 19 20C19 20.5523 19.4477 21 20 21Z" fill="white"/>
<path d="M23 15C23 15.5523 22.5523 16 22 16C21.4477 16 21 15.5523 21 15C21 14.4477 21.4477 14 22 14C22.5523 14 23 14.4477 23 15Z" fill="white"/>
<path d="M15 23C15.5523 23 16 22.5523 16 22C16 21.4477 15.5523 21 15 21C14.4477 21 14 21.4477 14 22C14 22.5523 14.4477 23 15 23Z" fill="white"/>
</g>
<defs>
<linearGradient id="paint0_linear_1958_16202" x1="15" y1="6" x2="15" y2="24" gradientUnits="userSpaceOnUse">
<stop/>
<stop offset="1" stop-color="#333333"/>
</linearGradient>
</defs>
</svg>
