<svg width="30" height="30" viewBox="0 0 30 30" fill="none" xmlns="http://www.w3.org/2000/svg">
<path opacity="0.5" d="M15 8C15 6.89543 14.1046 6 13 6H7C5.89543 6 5 6.89543 5 8V12H15V8Z" fill="#FF8800"/>
<path d="M23 9C24.1046 9 25 9.89543 25 11V12H14V24H7C5.89543 24 5 23.1046 5 22V11H13C14.1046 11 15 10.1046 15 9H23Z" fill="#FF8800"/>
<path fill-rule="evenodd" clip-rule="evenodd" d="M24 14C24.5523 14 25 14.4477 25 15C25 15.5523 24.5523 16 24 16V19C24.6403 19.6403 25 20.5086 25 21.4141V22.3672L24.9912 22.5342C24.9076 23.3575 24.2126 24 23.3672 24H22V28L21 29L20 28V24H18.6328C17.7874 24 17.0924 23.3575 17.0088 22.5342L17 22.3672V21.4141C17 20.5086 17.3597 19.6403 18 19V16C17.4477 16 17 15.5523 17 15C17 14.4477 17.4477 14 18 14H24ZM20 19.8281L19.4141 20.4141C19.1489 20.6792 19 21.039 19 21.4141V22H23V21.4141C23 21.039 22.8511 20.6792 22.5859 20.4141L22 19.8281V16H20V19.8281Z" fill="#FF8800"/>
</svg>
