<svg width="30" height="30" viewBox="0 0 30 30" fill="none" xmlns="http://www.w3.org/2000/svg">
<path d="M8.2 10C8.08954 10 8 10.0895 8 10.2V11.8C8 11.9105 8.08954 12 8.2 12H9.8C9.91046 12 10 11.9105 10 11.8V10.2C10 10.0895 9.91046 10 9.8 10H8.2Z" fill="#FF8800"/>
<path d="M11 18C10.4477 18 10 18.4477 10 19C10 19.5523 10.4477 20 11 20H19C19.5523 20 20 19.5523 20 19C20 18.4477 19.5523 18 19 18H11Z" fill="#FF8800"/>
<path d="M8 14.2C8 14.0895 8.08954 14 8.2 14H9.8C9.91046 14 10 14.0895 10 14.2V15.8C10 15.9105 9.91046 16 9.8 16H8.2C8.08954 16 8 15.9105 8 15.8V14.2Z" fill="#FF8800"/>
<path d="M12.2 10C12.0895 10 12 10.0895 12 10.2V11.8C12 11.9105 12.0895 12 12.2 12H13.8C13.9105 12 14 11.9105 14 11.8V10.2C14 10.0895 13.9105 10 13.8 10H12.2Z" fill="#FF8800"/>
<path d="M12 14.2C12 14.0895 12.0895 14 12.2 14H13.8C13.9105 14 14 14.0895 14 14.2V15.8C14 15.9105 13.9105 16 13.8 16H12.2C12.0895 16 12 15.9105 12 15.8V14.2Z" fill="#FF8800"/>
<path d="M16.2 10C16.0895 10 16 10.0895 16 10.2V11.8C16 11.9105 16.0895 12 16.2 12H17.8C17.9105 12 18 11.9105 18 11.8V10.2C18 10.0895 17.9105 10 17.8 10H16.2Z" fill="#FF8800"/>
<path d="M16 14.2C16 14.0895 16.0895 14 16.2 14H17.8C17.9105 14 18 14.0895 18 14.2V15.8C18 15.9105 17.9105 16 17.8 16H16.2C16.0895 16 16 15.9105 16 15.8V14.2Z" fill="#FF8800"/>
<path d="M20.2 10C20.0895 10 20 10.0895 20 10.2V11.8C20 11.9105 20.0895 12 20.2 12H21.8C21.9105 12 22 11.9105 22 11.8V10.2C22 10.0895 21.9105 10 21.8 10H20.2Z" fill="#FF8800"/>
<path d="M20 14.2C20 14.0895 20.0895 14 20.2 14H21.8C21.9105 14 22 14.0895 22 14.2V15.8C22 15.9105 21.9105 16 21.8 16H20.2C20.0895 16 20 15.9105 20 15.8V14.2Z" fill="#FF8800"/>
<path fill-rule="evenodd" clip-rule="evenodd" d="M3 9C3 7.34315 4.34315 6 6 6H24C25.6569 6 27 7.34315 27 9V21C27 22.6569 25.6569 24 24 24H6C4.34315 24 3 22.6569 3 21V9ZM6 8H24C24.5523 8 25 8.44772 25 9V21C25 21.5523 24.5523 22 24 22H6C5.44772 22 5 21.5523 5 21V9C5 8.44772 5.44772 8 6 8Z" fill="#FF8800"/>
</svg>
