<svg width="30" height="30" viewBox="0 0 30 30" fill="none" xmlns="http://www.w3.org/2000/svg">
<path fill-rule="evenodd" clip-rule="evenodd" d="M18 22H21C23.2091 22 25 20.2091 25 18V12C25 9.79086 23.2091 8 21 8H18V22ZM16 6.8V23.2C16 23.6418 16.3582 24 16.8 24H21C24.3137 24 27 21.3137 27 18V12C27 8.68629 24.3137 6 21 6H16.8C16.3582 6 16 6.35817 16 6.8Z" fill="#FF8800"/>
<path fill-rule="evenodd" clip-rule="evenodd" d="M6 22H13C13.5523 22 14 22.4477 14 23C14 23.5523 13.5523 24 13 24H5.2C4.53726 24 4 23.4627 4 22.8V21C4 20.0557 4.44458 19.1666 5.2 18.6L9.85455 15.1091C11.2051 14.0961 12 12.5064 12 10.8182C12 9.26174 10.7383 8 9.18182 8H9C7.34315 8 6 9.34315 6 11V12C6 12.5523 5.55228 13 5 13C4.44772 13 4 12.5523 4 12V11C4 8.23858 6.23858 6 9 6H9.18182C11.8428 6 14 8.15717 14 10.8182C14 13.1359 12.9088 15.3184 11.0545 16.7091L6.4 20.2C6.14819 20.3889 6 20.6852 6 21V22Z" fill="#FF8800"/>
</svg>
