<svg width="30" height="30" viewBox="0 0 30 30" fill="none" xmlns="http://www.w3.org/2000/svg">
<path opacity="0.7" d="M9 4C7.89543 4 7 4.89543 7 6H23C23 4.89543 22.1046 4 21 4H9Z" fill="#5714CC"/>
<path d="M5 8C5 6.89543 5.89543 6 7 6H23C24.1046 6 25 6.89543 25 8V24C25 25.1046 24.1046 26 23 26H7C5.89543 26 5 25.1046 5 24V8Z" fill="#5714CC"/>
<path fill-rule="evenodd" clip-rule="evenodd" d="M12.6364 10L18.3636 11.2409L20 10.5839V19.3431L18.3636 20L13 18.8379V22H11V10.5839L12.6364 10ZM13 12.1252V16.7915L18 17.8748V13.2085L13 12.1252Z" fill="#FFC30D"/>
</svg>
