<svg width="30" height="30" viewBox="0 0 30 30" fill="none" xmlns="http://www.w3.org/2000/svg">
<path fill-rule="evenodd" clip-rule="evenodd" d="M21 28.0001C24.866 28.0001 28 24.8661 28 21.0001C28 17.1341 24.866 14.0001 21 14.0001C17.134 14.0001 14 17.1341 14 21.0001C14 24.8661 17.134 28.0001 21 28.0001ZM22.7071 17.2929C22.3166 16.9024 21.6834 16.9024 21.2929 17.2929C20.9024 17.6834 20.9024 18.3166 21.2929 18.7071L22.5858 20H17C16.4477 20 16 20.4477 16 21C16 21.5523 16.4477 22 17 22H22.5858L21.2929 23.2929C20.9024 23.6834 20.9024 24.3166 21.2929 24.7071C21.6834 25.0976 22.3166 25.0976 22.7071 24.7071L25.7071 21.7071C26.0977 21.3166 26.0977 20.6834 25.7071 20.2929L22.7071 17.2929Z" fill="#FF8800"/>
<path fill-rule="evenodd" clip-rule="evenodd" d="M21 28.0001C24.866 28.0001 28 24.8661 28 21.0001C28 17.1341 24.866 14.0001 21 14.0001C17.134 14.0001 14 17.1341 14 21.0001C14 24.8661 17.134 28.0001 21 28.0001ZM22.7071 17.2929C22.3166 16.9024 21.6834 16.9024 21.2929 17.2929C20.9024 17.6834 20.9024 18.3166 21.2929 18.7071L22.5858 20H17C16.4477 20 16 20.4477 16 21C16 21.5523 16.4477 22 17 22H22.5858L21.2929 23.2929C20.9024 23.6834 20.9024 24.3166 21.2929 24.7071C21.6834 25.0976 22.3166 25.0976 22.7071 24.7071L25.7071 21.7071C26.0977 21.3166 26.0977 20.6834 25.7071 20.2929L22.7071 17.2929Z" fill="#FF8800"/>
</svg>
