<svg width="30" height="30" viewBox="0 0 30 30" fill="none" xmlns="http://www.w3.org/2000/svg">
<circle cx="15" cy="15" r="11" fill="#394642"/>
<circle cx="15" cy="15" r="9" fill="url(#paint0_linear_2102_23724)"/>
<path d="M19.3562 18.3053C19.156 18.1337 19.1259 17.8374 19.2639 17.6127C19.7308 16.8524 20 15.9577 20 15C20 12.2386 17.7614 10 15 10C12.2386 10 10 12.2386 10 15C10 15.9577 10.2692 16.8524 10.7361 17.6127C10.8741 17.8374 10.844 18.1337 10.6438 18.3053L8.35249 20.2693C8.13754 20.4535 7.81145 20.4234 7.64794 20.1923C6.60994 18.7253 6 16.9339 6 15C6 10.0294 10.0294 6 15 6C19.9706 6 24 10.0294 24 15C24 16.9339 23.3901 18.7253 22.3521 20.1923C22.1885 20.4234 21.8625 20.4535 21.6475 20.2693L19.3562 18.3053Z" fill="url(#paint1_linear_2102_23724)"/>
<path d="M14 6V7C14 7.55228 14.4477 8 15 8C15.5523 8 16 7.55228 16 7V6H14Z" fill="#394642"/>
<path d="M20.2929 8.29289L21 7.58578L22.4142 9L21.7071 9.7071C21.3166 10.0976 20.6834 10.0976 20.2929 9.7071C19.9024 9.31658 19.9024 8.68342 20.2929 8.29289Z" fill="#394642"/>
<path d="M8.29289 9.70711L7.58579 9L9 7.58579L9.70711 8.29289C10.0976 8.68342 10.0976 9.31658 9.70711 9.70711C9.31658 10.0976 8.68342 10.0976 8.29289 9.70711Z" fill="#394642"/>
<path d="M7 16H6V14H7C7.55228 14 8 14.4477 8 15C8 15.5523 7.55228 16 7 16Z" fill="#394642"/>
<path d="M22 15C22 14.4477 22.4477 14 23 14H24V16H23C22.4477 16 22 15.5523 22 15Z" fill="#394642"/>
<path fill-rule="evenodd" clip-rule="evenodd" d="M15 7C16.1046 7 17 7.89543 17 9V12.764C17.6127 13.3125 18 14.1106 18 15C18 16.6568 16.6569 18 15 18C13.3431 18 12 16.6568 12 15C12 14.1106 12.3873 13.3125 13 12.764V9C13 7.89543 13.8954 7 15 7Z" fill="black" fill-opacity="0.4"/>
<path d="M16 9C16 8.44772 15.5523 8 15 8C14.4477 8 14 8.44772 14 9V13.2675C13.4022 13.6133 13 14.2597 13 15C13 16.1045 13.8954 17 15 17C16.1046 17 17 16.1045 17 15C17 14.2597 16.5978 13.6133 16 13.2675V9Z" fill="white"/>
<rect x="12" y="20" width="6" height="2" rx="1" fill="#474747"/>
<defs>
<linearGradient id="paint0_linear_2102_23724" x1="15" y1="6" x2="15" y2="24" gradientUnits="userSpaceOnUse">
<stop/>
<stop offset="1" stop-color="#333333"/>
</linearGradient>
<linearGradient id="paint1_linear_2102_23724" x1="8" y1="17.0799" x2="22" y2="17.0799" gradientUnits="userSpaceOnUse">
<stop stop-color="#FFDA6B"/>
<stop offset="0.5" stop-color="#FFC107"/>
<stop offset="1" stop-color="#EE4422"/>
</linearGradient>
</defs>
</svg>
