<svg width="30" height="30" viewBox="0 0 30 30" fill="none" xmlns="http://www.w3.org/2000/svg">
<path fill-rule="evenodd" clip-rule="evenodd" d="M14.2929 3.7072L3.70708 14.293C3.31655 14.6835 3.31655 15.3167 3.70708 15.7072L14.2929 26.293C14.6834 26.6835 15.3166 26.6835 15.7071 26.293L26.2929 15.7072C26.6834 15.3167 26.6834 14.6835 26.2929 14.293L15.7071 3.7072C15.3166 3.31668 14.6834 3.31668 14.2929 3.7072ZM14 11.0001C14 10.4478 14.4477 10.0001 15 10.0001C15.5523 10.0001 16 10.4478 16 11.0001V15.0001C16 15.5524 15.5523 16.0001 15 16.0001C14.4477 16.0001 14 15.5524 14 15.0001V11.0001ZM15 20.0001C14.4477 20.0001 14 19.5524 14 19.0001C14 18.4478 14.4477 18.0001 15 18.0001C15.5523 18.0001 16 18.4478 16 19.0001C16 19.5524 15.5523 20.0001 15 20.0001Z" fill="#FF8800"/>
</svg>
