<svg width="24" height="24" viewBox="0 0 24 24" fill="none" xmlns="http://www.w3.org/2000/svg">
<path d="M5,12L10.25,13.75L12,19L13.75,13.75L19,12L13.75,10.25L12,5L10.25,10.25L5,12Z" fill="#ffffff"/>
<path d="M22,12C22,17.5228 17.5228,22 12,22C6.4771,22 2,17.5228 2,12C2,6.4771 6.4771,2 12,2C17.5228,2 22,6.4771 22,12ZM20,12C20,16.4183 16.4183,20 12,20C7.5817,20 4,16.4183 4,12C4,7.5817 7.5817,4 12,4C16.4183,4 20,7.5817 20,12Z" fill="#ffffff" fill-rule="evenodd" clip-rule="evenodd"/>
<path d="M9,8L7,7L8,9H9V8Z" fill="#ffffff" fill-opacity="0.7" stroke-opacity="0.7"/>
<path d="M15,9V8L17,7L16,9H15Z" fill="#ffffff" fill-opacity="0.7" stroke-opacity="0.7"/>
<path d="M9,15H8L7,17L9,16V15Z" fill="#ffffff" fill-opacity="0.7" stroke-opacity="0.7"/>
<path d="M15,15V16L17,17L16,15H15Z" fill="#ffffff" fill-opacity="0.7" stroke-opacity="0.7"/>
</svg>
