<svg width="30" height="30" viewBox="0 0 30 30" fill="none" xmlns="http://www.w3.org/2000/svg">
<path fill-rule="evenodd" clip-rule="evenodd" d="M27 15C27 21.6274 21.6274 27 15 27C8.37258 27 3 21.6274 3 15C3 8.37258 8.37258 3 15 3C21.6274 3 27 8.37258 27 15ZM11.2191 23.1247C11.7088 23.7368 12.1978 24.2722 12.6396 24.7198C8.25586 23.659 5 19.7097 5 15C5 10.2903 8.25586 6.34101 12.6396 5.2802C12.1978 5.72779 11.7088 6.26319 11.2191 6.8753C9.65679 8.82823 8 11.672 8 15C8 18.328 9.65679 21.1718 11.2191 23.1247ZM12.7809 8.12469C13.1988 7.60224 13.6174 7.14057 14 6.74926V23.2507C13.6174 22.8594 13.1988 22.3978 12.7809 21.8753C11.3432 20.0782 10 17.672 10 15C10 12.328 11.3432 9.92177 12.7809 8.12469ZM16 23.2507C16.3826 22.8594 16.8012 22.3978 17.2191 21.8753C18.6568 20.0782 20 17.672 20 15C20 12.328 18.6568 9.92177 17.2191 8.12469C16.8012 7.60224 16.3826 7.14057 16 6.74926V23.2507ZM17.3604 24.7198C21.7441 23.659 25 19.7097 25 15C25 10.2903 21.7441 6.34101 17.3604 5.2802C17.8022 5.72779 18.2912 6.26319 18.7809 6.87531C20.3432 8.82823 22 11.672 22 15C22 18.328 20.3432 21.1718 18.7809 23.1247C18.2912 23.7368 17.8022 24.2722 17.3604 24.7198Z" fill="#FF8800"/>
</svg>
