<svg width="30" height="30" viewBox="0 0 30 30" fill="none" xmlns="http://www.w3.org/2000/svg">
<path d="M16.9997 23.0001H10.6632C10.1014 24.1825 8.89617 25 7.5 25C5.567 25 4 23.433 4 21.5L4 16.2362C3.38625 15.6868 3 14.8886 3 14.0001C3 12.5872 3.97668 11.4024 5.29172 11.0841L5.74868 8.3424C6.07014 6.41365 7.7389 5 9.69425 5H20.5C20.5912 5 20.6792 5.00308 20.7641 5.00914C20.8419 5.00308 20.9206 5 21 5C22.6569 5 24 6.34315 24 8V16.0002C25.2134 16.9114 26 18.3624 26 20C26 22.7614 23.7614 25 21 25C19.3642 25 17.9119 24.2145 16.9997 23.0001Z" fill="#47566B"/>
<path d="M18.1707 7C18.0602 7.31278 18 7.64936 18 8V16.0002C16.7866 16.9114 16 18.3624 16 20C16 20.3425 16.0344 20.6769 16.1 21.0001H9V21.5C9 22.3284 8.32843 23 7.5 23C6.67157 23 6 22.3284 6 21.5L6 15.0001C5.44772 15.0001 5 14.5523 5 14.0001C5 13.4478 5.44772 13.0001 6 13.0001L7 13L7.72147 8.6712C7.8822 7.70683 8.71658 7 9.69425 7H18.1707Z" fill="#237BFF"/>
<path d="M18 9V13H9.02759L9.69425 9H18Z" fill="#D1E6FF"/>
<rect x="8" y="15.0001" width="3" height="3" rx="1.5" fill="#FFBF00"/>
<path d="M21 7C20.4477 7 20 7.44772 20 8V17.1707C18.8348 17.5825 18 18.6938 18 20C18 21.6569 19.3431 23 21 23C22.6569 23 24 21.6569 24 20C24 18.6938 23.1652 17.5825 22 17.1707V8C22 7.44772 21.5523 7 21 7Z" fill="url(#paint0_linear_2102_23732)"/>
<g opacity="0.3">
<path d="M20 15C20.5523 15 21 14.5523 21 14C21 13.4477 20.5523 13 20 13V15Z" fill="black"/>
<path d="M20 11C20.5523 11 21 10.5523 21 10C21 9.44772 20.5523 9 20 9V11Z" fill="black"/>
</g>
<defs>
<linearGradient id="paint0_linear_2102_23732" x1="19.5" y1="3.33333" x2="19.5" y2="22" gradientUnits="userSpaceOnUse">
<stop stop-color="#FFC107"/>
<stop offset="0.695" stop-color="#D2B138"/>
<stop offset="1" stop-color="#1D73FA"/>
</linearGradient>
</defs>
</svg>
