<svg width="30" height="30" viewBox="0 0 30 30" fill="none" xmlns="http://www.w3.org/2000/svg">
<path d="M2 15L15 2L28 15L15 28L2 15Z" fill="#FFF200"/>
<path d="M3.41421 15L15 3.41421L26.5858 15L15 26.5858L3.41421 15Z" stroke="black" stroke-width="2"/>
<path d="M13.5664 11H16.5V12H14.4336L14.1281 14.1386C14.3683 14.0471 14.6238 13.9999 14.882 13.9999C16.0517 13.9999 17 14.9482 17 16.118V16.9999C17 18.1045 16.1046 18.9999 15 18.9999C13.8954 18.9999 13 18.1045 13 16.9999H14C14 17.5522 14.4477 17.9999 15 17.9999C15.5523 17.9999 16 17.5522 16 16.9999V16.118C16 15.5005 15.4994 14.9999 14.882 14.9999C14.7084 14.9999 14.5372 15.0404 14.382 15.118L13.7236 15.4472L13.005 14.9292L13.5664 11Z" fill="black"/>
</svg>
