<svg width="30" height="30" viewBox="0 0 30 30" fill="none" xmlns="http://www.w3.org/2000/svg">
<path fill-rule="evenodd" clip-rule="evenodd" d="M7 7H23C25.2091 7 27 8.79086 27 11V19C27 21.2091 25.2091 23 23 23H7C4.79086 23 3 21.2091 3 19V11C3 8.79086 4.79086 7 7 7Z" fill="#2D3C53"/>
<path d="M5 11C5 9.89543 5.89543 9 7 9H23C24.1046 9 25 9.89543 25 11V19C25 20.1046 24.1046 21 23 21H7C5.89543 21 5 20.1046 5 19V11Z" fill="#1D73FA"/>
<path d="M11 11L15 14L11 17L11 15H10C9.44771 15 9 15.4477 9 16V19H7V16C7 14.3431 8.34315 13 10 13H11V11Z" fill="#E6F0FF"/>
<path opacity="0.5" d="M17 15C17 14.4477 17.4477 14 18 14H22C22.5523 14 23 14.4477 23 15C23 15.5523 22.5523 16 22 16H18C17.4477 16 17 15.5523 17 15Z" fill="#E6F0FF"/>
</svg>
