<svg width="30" height="30" viewBox="0 0 30 30" fill="none" xmlns="http://www.w3.org/2000/svg">
<path opacity="0.5" d="M5 22L8.76461 15.3074C8.9349 15.0046 9.16144 14.7451 9.42694 14.539L11.3124 8.50551C11.4064 8.20477 11.6849 8 12 8C12.3151 8 12.5936 8.20477 12.6876 8.50551L16.7854 21.6185L16.8716 21.7717C16.9122 21.8439 16.9435 21.9207 16.9651 22H19L14.5965 7.90896C14.2416 6.77327 13.1899 6 12 6C10.8101 6 9.75835 6.77327 9.40345 7.90896L5 22Z" fill="#FF8800"/>
<path d="M25.7071 9.29289C26.0976 9.68342 26.0976 10.3166 25.7071 10.7071C25.3166 11.0976 24.6834 11.0976 24.2929 10.7071L23 9.41421V19C23 19.5523 22.5523 20 22 20C21.4477 20 21 19.5523 21 19V9.41421L19.7071 10.7071C19.3166 11.0976 18.6834 11.0976 18.2929 10.7071C17.9024 10.3166 17.9024 9.68342 18.2929 9.29289L21.2929 6.29289C21.4804 6.10536 21.7348 6 22 6C22.2652 6 22.5196 6.10536 22.7071 6.29289L25.7071 9.29289Z" fill="#FF8800"/>
<path fill-rule="evenodd" clip-rule="evenodd" d="M8.76461 15.3074L5 22H4C3.44772 22 3 22.4477 3 23C3 23.5523 3.44772 24 4 24H26C26.5523 24 27 23.5523 27 23C27 22.4477 26.5523 22 26 22H16.9651C16.9435 21.9207 16.9122 21.8439 16.8716 21.7717L13.2354 15.3074C12.7811 14.4998 11.9266 14 11 14C10.0734 14 9.21888 14.4998 8.76461 15.3074ZM14.7053 22L11.4922 16.2879C11.3922 16.1101 11.204 16 11 16C10.796 16 10.6078 16.1101 10.5078 16.2879L7.29469 22H14.7053Z" fill="#FF8800"/>
</svg>
