<svg width="30" height="30" viewBox="0 0 30 30" fill="none" xmlns="http://www.w3.org/2000/svg">
<path d="M14 4C14 3.44772 14.4477 3 15 3C15.5523 3 16 3.44772 16 4V6C16 6.55228 15.5523 7 15 7C14.4477 7 14 6.55228 14 6V4Z" fill="#FF8800"/>
<path d="M14 24C14 23.4477 14.4477 23 15 23C15.5523 23 16 23.4477 16 24V26C16 26.5523 15.5523 27 15 27C14.4477 27 14 26.5523 14 26V24Z" fill="#FF8800"/>
<path d="M27 15C27 14.4477 26.5523 14 26 14H24C23.4477 14 23 14.4477 23 15C23 15.5523 23.4477 16 24 16H26C26.5523 16 27 15.5523 27 15Z" fill="#FF8800"/>
<path d="M6 14C6.55228 14 7 14.4477 7 15C7 15.5523 6.55228 16 6 16H4C3.44772 16 3 15.5523 3 15C3 14.4477 3.44772 14 4 14H6Z" fill="#FF8800"/>
<path d="M23.4853 6.51472C23.0948 6.1242 22.4616 6.1242 22.0711 6.51472L20.6569 7.92894C20.2664 8.31946 20.2664 8.95263 20.6569 9.34315C21.0474 9.73368 21.6806 9.73368 22.0711 9.34315L23.4853 7.92894C23.8758 7.53841 23.8758 6.90525 23.4853 6.51472Z" fill="#FF8800"/>
<path d="M7.92888 20.6569C8.3194 20.2663 8.95257 20.2663 9.34309 20.6569C9.73362 21.0474 9.73362 21.6805 9.34309 22.0711L7.92888 23.4853C7.53836 23.8758 6.90519 23.8758 6.51467 23.4853C6.12414 23.0948 6.12414 22.4616 6.51467 22.0711L7.92888 20.6569Z" fill="#FF8800"/>
<path d="M23.4853 23.4853C23.8758 23.0947 23.8758 22.4616 23.4853 22.0711L22.0711 20.6568C21.6805 20.2663 21.0474 20.2663 20.6568 20.6568C20.2663 21.0474 20.2663 21.6805 20.6568 22.0711L22.0711 23.4853C22.4616 23.8758 23.0948 23.8758 23.4853 23.4853Z" fill="#FF8800"/>
<path d="M9.34319 7.92893C9.73371 8.31945 9.73371 8.95261 9.34319 9.34314C8.95266 9.73366 8.3195 9.73366 7.92897 9.34314L6.51476 7.92893C6.12423 7.5384 6.12423 6.90524 6.51476 6.51471C6.90528 6.12419 7.53845 6.12419 7.92897 6.51471L9.34319 7.92893Z" fill="#FF8800"/>
<path d="M15 21C18.3137 21 21 18.3137 21 15C21 11.6863 18.3137 9 15 9C11.6863 9 9 11.6863 9 15C9 18.3137 11.6863 21 15 21Z" fill="#FF8800"/>
</svg>
