<svg width="30" height="30" viewBox="0 0 30 30" fill="none" xmlns="http://www.w3.org/2000/svg">
<path fill-rule="evenodd" clip-rule="evenodd" d="M9.5 6C13.0899 6 16 8.77208 16 12.5C16 17 9.5 24 9.5 24C9.5 24 3 17 3 12.5C3 8.77208 5.91015 6 9.5 6ZM9.5 10C8.11929 10 7 11.1193 7 12.5C7 13.8807 8.11929 15 9.5 15C10.8807 15 12 13.8807 12 12.5C12 11.1193 10.8807 10 9.5 10Z" fill="#FF8800"/>
<path fill-rule="evenodd" clip-rule="evenodd" d="M23.5762 9C24.7982 9 25.841 9.8835 26.042 11.0889L26.6934 15H27C27.5523 15 28 15.4477 28 16C28 16.5523 27.5523 17 27 17H26.9932C26.9973 17.0826 27 17.1653 27 17.248V22.75C27 23.4404 26.4404 24 25.75 24C25.0596 24 24.5 23.4404 24.5 22.75V22H13.7305C14.9045 20.4465 15.9607 18.8104 16.793 17.0498C17.0992 16.4021 17.3776 15.7101 17.5918 15H24.666L24.0693 11.418C24.0292 11.1769 23.8206 11 23.5762 11H17.8721C17.7521 10.2952 17.5493 9.62585 17.2734 9H23.5762ZM23 17C22.4477 17 22 17.4477 22 18C22 18.5523 22.4477 19 23 19H24C24.5523 19 25 18.5523 25 18C25 17.4477 24.5523 17 24 17H23Z" fill="#FF8800"/>
<path opacity="0.5" d="M22.5 14C23.1529 14 23.707 14.4177 23.9131 15H21.0869C21.293 14.4177 21.8471 14 22.5 14Z" fill="#FF8800"/>
</svg>
