<svg width="30" height="30" viewBox="0 0 30 30" fill="none" xmlns="http://www.w3.org/2000/svg">
<path d="M25 14.5C25 14.7761 24.7761 15 24.5 15L5.5 15C5.22386 15 5 14.7761 5 14.5L5 10.5C5 10.2239 5.22386 10 5.5 10L24.5 10C24.7761 10 25 10.2239 25 10.5V14.5Z" fill="#FF8800"/>
<path fill-rule="evenodd" clip-rule="evenodd" d="M28 20C28 21.6569 26.6569 23 25 23H5C3.34315 23 2 21.6569 2 20L2 10C2 8.34315 3.34315 7 5 7L25 7C26.6569 7 28 8.34315 28 10V20ZM26 10L25.9951 9.89746C25.9438 9.39333 25.5177 9 25 9L5 9C4.48232 9 4.05621 9.39333 4.00488 9.89746L4 10L4 20C4 20.5523 4.44772 21 5 21L25 21C25.5523 21 26 20.5523 26 20V10Z" fill="#FF8800"/>
</svg>
