<svg width="30" height="30" viewBox="0 0 30 30" fill="none" xmlns="http://www.w3.org/2000/svg">
<path opacity="0.6" fill-rule="evenodd" clip-rule="evenodd" d="M22 10C21.4477 10 21 10.4477 21 11V19.5C21 20.8807 19.8807 22 18.5 22C17.1193 22 16 20.8807 16 19.5V17C16 16.4477 15.5523 16 15 16C14.4477 16 14 16.4477 14 17V19.5C14 21.9852 16.0147 24 18.5 24C20.9853 24 23 21.9853 23 19.5V11C23 10.4477 22.5523 10 22 10Z" fill="#FF8800"/>
<path d="M18.8604 14H18.8051C18.3605 14 18 13.6395 18 13.1949C18 13.0668 18.0306 12.9406 18.0891 12.8267L21.4171 6.35571C21.5294 6.1373 21.7544 6 22 6C22.2456 6 22.4706 6.1373 22.5829 6.35572L25.9109 12.8267C25.9694 12.9406 26 13.0668 26 13.1949C26 13.6395 25.6395 14 25.1949 14H25.1396C25.0471 14 24.9553 13.9851 24.8675 13.9558L22 13L19.1325 13.9558C19.0447 13.9851 18.9529 14 18.8604 14Z" fill="#FF8800"/>
<path fill-rule="evenodd" clip-rule="evenodd" d="M11.5 6C13.9853 6 16 8.01472 16 10.5V13C16 13.5523 15.5523 14 15 14C14.4477 14 14 13.5523 14 13V10.5C14 9.11929 12.8807 8 11.5 8C10.1193 8 9 9.11929 9 10.5V16.126C10.7252 16.5701 12 18.1362 12 20C12 22.2091 10.2091 24 8 24C5.79086 24 4 22.2091 4 20C4 18.1362 5.27477 16.5701 7 16.126V10.5C7 8.01472 9.01472 6 11.5 6ZM8 18C6.89543 18 6 18.8954 6 20C6 21.1046 6.89543 22 8 22C9.10457 22 10 21.1046 10 20C10 18.8954 9.10457 18 8 18Z" fill="#FF8800"/>
</svg>
