<svg width="72" height="72" viewBox="0 0 72 72" fill="none" xmlns="http://www.w3.org/2000/svg">
<path d="M7.20001 21.6C7.20001 21.1587 7.44932 20.7553 7.844 20.558L31.434 8.76299C31.5958 8.68211 31.7742 8.64 31.955 8.64C32.5984 8.64 33.12 9.16158 33.12 9.80498V9.9C33.12 10.0194 33.103 10.1382 33.0696 10.2528L31.02 17.28H36C46.3388 17.28 54.72 25.6612 54.72 36V64.8H46.08V36C46.08 30.433 41.567 25.92 36 25.92H31.02L33.0696 32.9472C33.103 33.0618 33.12 33.1806 33.12 33.3V33.395C33.12 34.0384 32.5984 34.56 31.955 34.56C31.7742 34.56 31.5958 34.5179 31.434 34.437L7.844 22.642C7.44932 22.4447 7.20001 22.0413 7.20001 21.6Z" fill="black"/>
</svg>
