<svg width="100" height="180" viewBox="0 0 100 180" fill="none" xmlns="http://www.w3.org/2000/svg">
<path d="M8.38281e-07 25.6C8.966e-07 16.6392 9.53674e-07 12.1587 1.7439 8.73615C3.27787 5.72555 5.72556 3.27787 8.73616 1.74389C12.1587 -3.33786e-06 16.6392 -2.20445e-06 25.6 4.96971e-09L74.4 1.20373e-05C83.3608 1.42467e-05 87.8413 1.52588e-05 91.2639 1.74391C94.2744 3.27789 96.7221 5.72557 98.2561 8.73617C100 12.1588 100 16.6392 100 25.6V154.4C100 163.361 100 167.841 98.2561 171.264C96.7221 174.274 94.2744 176.722 91.2639 178.256C87.8413 180 83.3608 180 74.4 180L25.6 180C16.6392 180 12.1587 180 8.73616 178.256C5.72556 176.722 3.27787 174.274 1.7439 171.264C-1.19209e-07 167.841 -5.82976e-08 163.361 0 154.4L8.38281e-07 25.6Z" fill="#2F2442"/>
<path d="M4 23.2C4 16.4794 4 13.1191 5.30792 10.5521C6.4584 8.29417 8.29417 6.4584 10.5521 5.30792C13.1191 4 16.4794 4 23.2 4H76.8C83.5206 4 86.8809 4 89.4479 5.30792C91.7058 6.4584 93.5416 8.29417 94.6921 10.5521C96 13.1191 96 16.4794 96 23.2V156.8C96 163.521 96 166.881 94.6921 169.448C93.5416 171.706 91.7058 173.542 89.4479 174.692C86.8809 176 83.5206 176 76.8 176H23.2C16.4794 176 13.1191 176 10.5521 174.692C8.29417 173.542 6.4584 171.706 5.30792 169.448C4 166.881 4 163.521 4 156.8L4 23.2Z" fill="#5CC3E5"/>
<path d="M96.0001 164C96.0001 170.627 90.6275 176 84.0001 176H16.0001C9.37271 176 4.00012 170.627 4.00012 164V158H96.0001V164Z" fill="#FFD400"/>
<path d="M96.0001 61H71.0001C70.4478 61 70.0001 60.5523 70.0001 60V53C70.0001 52.4477 70.4478 52 71.0001 52H96.0001V61Z" fill="#FFD400"/>
<path d="M96.0001 46H4.00012V16C4.00012 9.37258 9.37271 4 16.0001 4H84.0001C90.6275 4 96.0001 9.37258 96.0001 16V46Z" fill="#FFD400"/>
<path d="M18.5 145C18.7761 145 19 145.224 19 145.5V153.5C19 153.776 18.7761 154 18.5 154H10.5C10.2239 154 10 153.776 10 153.5V145.5C10 145.224 10.2239 145 10.5 145H18.5Z" fill="white"/>
<path d="M72.5 144C74.9853 144 77 146.015 77 148.5C77 150.985 74.9853 153 72.5 153C70.0148 153 68 150.985 68 148.5C68 146.015 70.0148 144 72.5 144Z" fill="white"/>
<path d="M85.5 144C87.9853 144 90 146.015 90 148.5C90 150.985 87.9853 153 85.5 153C83.0148 153 81 150.985 81 148.5C81 146.015 83.0148 144 85.5 144Z" fill="white"/>
<path d="M85.5 131C87.9853 131 90 133.015 90 135.5C90 137.985 87.9853 140 85.5 140C83.0148 140 81 137.985 81 135.5C81 133.015 83.0148 131 85.5 131Z" fill="white"/>
<path d="M14.5 65C16.9853 65 19 67.0147 19 69.5C19 71.9853 16.9853 74 14.5 74C12.0147 74 10 71.9853 10 69.5C10 67.0147 12.0147 65 14.5 65Z" fill="white"/>
<path d="M14.5 52C16.9853 52 19 54.0147 19 56.5C19 58.9853 16.9853 61 14.5 61C12.0147 61 10 58.9853 10 56.5C10 54.0147 12.0147 52 14.5 52Z" fill="white"/>
<path d="M27.5 52C29.9853 52 32 54.0147 32 56.5C32 58.9853 29.9853 61 27.5 61C25.0147 61 23 58.9853 23 56.5C23 54.0147 25.0147 52 27.5 52Z" fill="white"/>
<path d="M40 13C40 11.3431 41.3431 10 43 10H57C58.6569 10 60 11.3431 60 13C60 14.6569 58.6569 16 57 16H43C41.3431 16 40 14.6569 40 13Z" fill="#2F2442"/>
</svg>
