<svg width="30" height="30" viewBox="0 0 30 30" fill="none" xmlns="http://www.w3.org/2000/svg">
<path opacity="0.1" d="M9 5C9 4.44772 9.44772 4 10 4H20C20.5523 4 21 4.44772 21 5V25C21 25.5523 20.5523 26 20 26H10C9.44772 26 9 25.5523 9 25V5Z" fill="#FF8800"/>
<path d="M13 5C12.4477 5 12 5.44772 12 6C12 6.55228 12.4477 7 13 7H17C17.5523 7 18 6.55228 18 6C18 5.44772 17.5523 5 17 5H13Z" fill="#FF8800"/>
<path fill-rule="evenodd" clip-rule="evenodd" d="M20 2H10C8.34315 2 7 3.34315 7 5V25C7 26.6569 8.34315 28 10 28H20C21.6569 28 23 26.6569 23 25V5C23 3.34315 21.6569 2 20 2ZM9 5C9 4.44772 9.44771 4 10 4H20C20.5523 4 21 4.44772 21 5V25C21 25.5523 20.5523 26 20 26H10C9.44771 26 9 25.5523 9 25V5Z" fill="#FF8800"/>
<path opacity="0.5" d="M11 24.5C11 24.2239 11.2239 24 11.5 24H18.5C18.7761 24 19 24.2239 19 24.5V24.5C19 24.7761 18.7761 25 18.5 25H11.5C11.2239 25 11 24.7761 11 24.5V24.5Z" fill="#FF8800"/>
</svg>
