<svg width="30" height="30" viewBox="0 0 30 30" fill="none" xmlns="http://www.w3.org/2000/svg">
<path fill-rule="evenodd" clip-rule="evenodd" d="M6.52614 15.3024C5.58077 14.3147 5 12.9752 5 11.5C5 8.93155 6.76022 6.77465 9.14066 6.1694C10.3894 4.26299 12.5456 3 15 3C17.8733 3 20.3395 4.72978 21.4187 7.20413C23.4891 7.81564 25 9.73138 25 12C25 13.5737 24.273 14.9775 23.1366 15.894C23.6705 16.4357 24 17.1794 24 18C24 18.7684 23.7111 19.4692 23.2361 20C23.7111 20.5308 24 21.2316 24 22C24 23.6569 22.6569 25 21 25C19.9377 25 19.0044 24.4479 18.4714 23.615C18.0366 23.8601 17.5347 24 17 24C16.6098 24 16.2369 23.9255 15.8949 23.7899C15.5482 25.0635 14.3835 26 13 26C11.6165 26 10.4518 25.0635 10.1051 23.7899C9.76309 23.9255 9.39025 24 9 24C7.34315 24 6 22.6569 6 21C6 20.2316 6.28885 19.5308 6.7639 19C6.28885 18.4692 6 17.7684 6 17C6 16.3699 6.19426 15.7852 6.52614 15.3024Z" fill="white" fill-opacity="0.3"/>
<path fill-rule="evenodd" clip-rule="evenodd" d="M6.52614 15.3024C5.58077 14.3147 5 12.9752 5 11.5C5 8.93155 6.76022 6.77465 9.14066 6.1694C10.3894 4.26299 12.5456 3 15 3C17.8733 3 20.3395 4.72978 21.4187 7.20413C23.4891 7.81564 25 9.73138 25 12C25 13.5737 24.273 14.9775 23.1366 15.894C23.6705 16.4357 24 17.1794 24 18C24 18.7684 23.7111 19.4692 23.2361 20C23.7111 20.5308 24 21.2316 24 22C24 23.6569 22.6569 25 21 25C19.9377 25 19.0044 24.4479 18.4714 23.615C18.0366 23.8601 17.5347 24 17 24C16.6098 24 16.2369 23.9255 15.8949 23.7899C15.5482 25.0635 14.3835 26 13 26C11.6165 26 10.4518 25.0635 10.1051 23.7899C9.76309 23.9255 9.39025 24 9 24C7.34315 24 6 22.6569 6 21C6 20.2316 6.28885 19.5308 6.7639 19C6.28885 18.4692 6 17.7684 6 17C6 16.3699 6.19426 15.7852 6.52614 15.3024Z" fill="#03327D"/>
<path opacity="0.6" fill-rule="evenodd" clip-rule="evenodd" d="M9 20C8.44772 20 8 20.4477 8 21C8 21.5523 8.44772 22 9 22C9.55228 22 10 21.5523 10 21C10 20.4477 9.55228 20 9 20ZM13 22C12.4477 22 12 22.4477 12 23C12 23.5523 12.4477 24 13 24C13.5523 24 14 23.5523 14 23C14 22.4477 13.5523 22 13 22ZM16 21C16 20.4477 16.4477 20 17 20C17.5523 20 18 20.4477 18 21C18 21.5523 17.5523 22 17 22C16.4477 22 16 21.5523 16 21ZM21 21C20.4477 21 20 21.4477 20 22C20 22.5523 20.4477 23 21 23C21.5523 23 22 22.5523 22 22C22 21.4477 21.5523 21 21 21Z" fill="#1D73FA"/>
<path fill-rule="evenodd" clip-rule="evenodd" d="M9 16C8.44772 16 8 16.4477 8 17C8 17.5523 8.44772 18 9 18C9.55228 18 10 17.5523 10 17C10 16.4477 9.55228 16 9 16ZM13 18C12.4477 18 12 18.4477 12 19C12 19.5523 12.4477 20 13 20C13.5523 20 14 19.5523 14 19C14 18.4477 13.5523 18 13 18ZM16 17C16 16.4477 16.4477 16 17 16C17.5523 16 18 16.4477 18 17C18 17.5523 17.5523 18 17 18C16.4477 18 16 17.5523 16 17ZM21 17C20.4477 17 20 17.4477 20 18C20 18.5523 20.4477 19 21 19C21.5523 19 22 18.5523 22 18C22 17.4477 21.5523 17 21 17Z" fill="#1D73FA"/>
<path fill-rule="evenodd" clip-rule="evenodd" d="M17 15H15H10.5C8.567 15 7 13.433 7 11.5C7 9.59521 8.5216 8.04582 10.4156 8.001C11.1869 6.23456 12.9493 5 15 5C17.419 5 19.4367 6.71776 19.9 9H20C21.6569 9 23 10.3431 23 12C23 13.6569 21.6569 15 20 15H17Z" fill="url(#paint0_linear_1903_15738)"/>
<defs>
<linearGradient id="paint0_linear_1903_15738" x1="15" y1="5" x2="15" y2="15" gradientUnits="userSpaceOnUse">
<stop stop-color="#5596FB"/>
<stop offset="1" stop-color="#1D73FA"/>
</linearGradient>
</defs>
</svg>
