<svg width="30" height="30" viewBox="0 0 30 30" fill="none" xmlns="http://www.w3.org/2000/svg">
<g opacity="0.5">
<path d="M20 8L18 8C17.4477 8 17 7.55229 17 7C17 6.44772 17.4477 6 18 6H20C20.5523 6 21 6.44771 21 7C21 7.55228 20.5523 8 20 8Z" fill="#FF8800"/>
<path d="M16 11L16 13C16 13.5523 15.5523 14 15 14C14.4477 14 14 13.5523 14 13V11C14 10.4477 14.4477 10 15 10C15.5523 10 16 10.4477 16 11Z" fill="#FF8800"/>
<path d="M24 13V11C24 10.4477 23.5523 10 23 10C22.4477 10 22 10.4477 22 11V13C22 13.5523 22.4477 14 23 14C23.5523 14 24 13.5523 24 13Z" fill="#FF8800"/>
<path fill-rule="evenodd" clip-rule="evenodd" d="M22 18.1707C20.8348 18.5825 20 19.6938 20 21C20 22.6569 21.3431 24 23 24C24.6569 24 26 22.6569 26 21C26 19.6938 25.1652 18.5825 24 18.1707V17C24 16.4477 23.5523 16 23 16C22.4477 16 22 16.4477 22 17V18.1707ZM23 20C23.5523 20 24 20.4477 24 21C24 21.5523 23.5523 22 23 22C22.4477 22 22 21.5523 22 21C22 20.4477 22.4477 20 23 20Z" fill="#FF8800"/>
</g>
<path d="M11 6C11.5523 6 12 6.44772 12 7V11C12 11.5523 11.5523 12 11 12H7V14C7 14.5523 6.55228 15 6 15C5.44772 15 5 14.5523 5 14V7C5 6.44772 5.44772 6 6 6H11Z" fill="#FF8800"/>
<path d="M15 16C15.5523 16 16 16.4477 16 17V18.5C16 21.5376 13.5376 24 10.5 24C7.46244 24 5 21.5376 5 18.5L5 18C5 17.4477 5.44772 17 6 17C6.55228 17 7 17.4477 7 18V18.5C7 20.433 8.56701 22 10.5 22C12.433 22 14 20.433 14 18.5V17C14 16.4477 14.4477 16 15 16Z" fill="#FF8800"/>
</svg>
