<svg width="20" height="20" viewBox="0 0 20 20" fill="none" xmlns="http://www.w3.org/2000/svg">
<path d="M8.49976 7.00006C8.7759 7.00006 8.99976 7.22392 8.99976 7.50006V12.5001C8.99972 12.7762 8.77588 13.0001 8.49976 13.0001H4.49976C4.22377 12.9999 3.99979 12.7761 3.99976 12.5001V7.50006C3.99976 7.22402 4.22375 7.00023 4.49976 7.00006H8.49976Z" fill="#FF8800"/>
<path fill-rule="evenodd" clip-rule="evenodd" d="M15.9998 5.00006C17.1043 5.00006 17.9998 5.89549 17.9998 7.00006V13.0001C17.9997 14.1046 17.1043 15.0001 15.9998 15.0001H3.99976C2.89535 14.9999 1.99979 14.1045 1.99976 13.0001V7.00006C1.99976 5.89559 2.89533 5.00023 3.99976 5.00006H15.9998ZM2.99976 13.0001C2.99979 13.5522 3.44763 13.9999 3.99976 14.0001H15.9998C16.552 14.0001 16.9997 13.5523 16.9998 13.0001V7.00006C16.9998 6.48238 16.6064 6.05628 16.1023 6.00494L15.9998 6.00006H3.99976C3.44761 6.00023 2.99976 6.44788 2.99976 7.00006V13.0001Z" fill="#FF8800"/>
</svg>
