<svg width="30" height="30" viewBox="0 0 30 30" fill="none" xmlns="http://www.w3.org/2000/svg">
<path fill-rule="evenodd" clip-rule="evenodd" d="M27 15C27 21.6274 21.6274 27 15 27C8.37258 27 3 21.6274 3 15C3 8.37258 8.37258 3 15 3C21.6274 3 27 8.37258 27 15ZM12.0416 24.5552C11.9236 24.4052 11.8049 24.2473 11.6863 24.0812C11.0156 23.1423 10.3538 21.9499 9.85496 20.4766C9.19089 20.6205 8.65028 20.7821 8.21674 20.9398C7.81664 21.0853 7.50689 21.2276 7.2745 21.35C8.50151 22.8411 10.1518 23.9707 12.0416 24.5552ZM6.16028 19.6797C6.50119 19.4875 6.95196 19.2716 7.53326 19.0602C8.03441 18.878 8.63165 18.6994 9.33835 18.5424C9.12527 17.4776 9 16.299 9 15C9 13.701 9.12527 12.5224 9.33835 11.4576C8.63165 11.3006 8.03441 11.122 7.53326 10.9398C6.95196 10.7284 6.50119 10.5125 6.16028 10.3203C5.41957 11.7166 5 13.3093 5 15C5 16.6907 5.41957 18.2834 6.16028 19.6797ZM7.2745 8.65001C7.50689 8.77237 7.81664 8.91472 8.21674 9.06021C8.65028 9.21786 9.19089 9.37954 9.85496 9.52338C10.3538 8.05012 11.0156 6.8577 11.6863 5.91876C11.8049 5.7527 11.9236 5.59479 12.0416 5.44485C10.1518 6.02929 8.50151 7.15894 7.2745 8.65001ZM17.9584 5.44485C18.0764 5.59479 18.1951 5.7527 18.3137 5.91876C18.9844 6.8577 19.6462 8.05012 20.145 9.52338C20.8091 9.37954 21.3497 9.21786 21.7833 9.06021C22.1834 8.91472 22.4931 8.77237 22.7255 8.65001C21.4985 7.15894 19.8482 6.02929 17.9584 5.44485ZM23.8397 10.3203C23.4988 10.5125 23.048 10.7284 22.4667 10.9398C21.9656 11.122 21.3683 11.3006 20.6617 11.4576C20.8747 12.5224 21 13.701 21 15C21 16.299 20.8747 17.4776 20.6617 18.5424C21.3683 18.6994 21.9656 18.878 22.4667 19.0602C23.048 19.2716 23.4988 19.4875 23.8397 19.6797C24.5804 18.2834 25 16.6907 25 15C25 13.3093 24.5804 11.7166 23.8397 10.3203ZM22.7255 21.35C22.4931 21.2276 22.1834 21.0853 21.7833 20.9398C21.3497 20.7821 20.8091 20.6205 20.145 20.4766C19.6462 21.9499 18.9844 23.1423 18.3137 24.0812C18.1951 24.2473 18.0764 24.4052 17.9584 24.5552C19.8482 23.9707 21.4985 22.8411 22.7255 21.35ZM16.6863 7.08124C17.1992 7.79935 17.7196 8.71139 18.1366 9.84214C17.2373 9.93985 16.1974 10 15 10C13.8026 10 12.7627 9.93985 11.8634 9.84214C12.2804 8.71139 12.8008 7.79935 13.3137 7.08124C13.8865 6.27938 14.4557 5.71173 14.8737 5.34944C14.9175 5.31143 14.9597 5.27571 15 5.24224C15.0403 5.27571 15.0825 5.31143 15.1263 5.34944C15.5443 5.71173 16.1135 6.27938 16.6863 7.08124ZM11 15C11 13.8119 11.1164 12.7453 11.3113 11.7916C12.3665 11.9209 13.5888 12 15 12C16.4112 12 17.6335 11.9209 18.6887 11.7916C18.8836 12.7453 19 13.8119 19 15C19 16.1881 18.8836 17.2547 18.6887 18.2084C17.6335 18.0791 16.4112 18 15 18C13.5888 18 12.3665 18.0791 11.3113 18.2084C11.1164 17.2547 11 16.1881 11 15ZM15 20C16.1974 20 17.2373 20.0602 18.1366 20.1579C17.7196 21.2886 17.1992 22.2007 16.6863 22.9188C16.1135 23.7206 15.5443 24.2883 15.1263 24.6506C15.0825 24.6886 15.0403 24.7243 15 24.7578C14.9597 24.7243 14.9175 24.6886 14.8737 24.6506C14.4557 24.2883 13.8865 23.7206 13.3137 22.9188C12.8008 22.2007 12.2804 21.2886 11.8634 20.1579C12.7627 20.0602 13.8026 20 15 20Z" fill="#FF8800"/>
</svg>
