<svg width="30" height="30" viewBox="0 0 30 30" fill="none" xmlns="http://www.w3.org/2000/svg">
<path d="M2 15L15 2L28 15L15 28L2 15Z" fill="white"/>
<path fill-rule="evenodd" clip-rule="evenodd" d="M10 15H8V11L10 9V15ZM14 15H12V7L14 5V15ZM18 15H16V5L18 7V15ZM22 15H20V9L22 11V15Z" fill="black"/>
<path d="M3.41421 15L15 3.41421L26.5858 15L15 26.5858L3.41421 15Z" stroke="black" stroke-width="2"/>
<path fill-rule="evenodd" clip-rule="evenodd" d="M18 14.0557C18 16.1665 18 20 18 20H12C12 20 12 17.4185 12 14V13C12 11.3431 13.3431 10 15 10C16.6568 10 18 11.3431 18 13L18 14.0557Z" fill="white"/>
<path fill-rule="evenodd" clip-rule="evenodd" d="M17 14.0557C17 14.6767 16.8554 15.2892 16.5777 15.8446L15 19H14L15.5364 15.9273C15.3657 15.9747 15.1858 16 15 16C13.8954 16 13 15.1046 13 14V13C13 11.8954 13.8954 11 15 11C16.1046 11 17 11.8954 17 13L17 14.0557ZM14 14C14 14.5523 14.4477 15 15 15C15.5522 15 16 14.5523 16 14L16 13C16 12.4477 15.5523 12 15 12C14.4477 12 14 12.4477 14 13V14Z" fill="black"/>
</svg>
