<svg width="30" height="30" viewBox="0 0 30 30" fill="none" xmlns="http://www.w3.org/2000/svg">
<path opacity="0.2" d="M19 7L23.6836 5.43848C24.3311 5.22263 25 5.70514 25 6.3877V11.834C23.7749 11.2986 22.4225 11 21 11C15.4772 11 11 15.4772 11 21C11 21.761 11.087 22.5016 11.248 23.2139L6.27441 24.6357C5.63569 24.8181 5 24.3381 5 23.6738V7.75391C5.00017 7.30759 5.29641 6.91559 5.72559 6.79297L12 5L19 7Z" fill="#FF8800"/>
<path fill-rule="evenodd" clip-rule="evenodd" d="M19 7L23.6836 5.43848C24.3311 5.22263 25 5.70514 25 6.3877V11.834C24.3648 11.5564 23.6959 11.3414 23 11.2002V7.77441L20 8.77441V11.0498C19.3103 11.1183 18.6412 11.2566 18 11.458V8.79395L13 7.36523V14.999C11.7442 16.6705 11 18.7484 11 21C11 21.761 11.087 22.5016 11.248 23.2139L6.27441 24.6357C5.63569 24.8181 5 24.3381 5 23.6738V7.75391C5.00017 7.30759 5.29641 6.91559 5.72559 6.79297L12 5L19 7ZM7 8.50879V22.3486L11 21.2051V7.36523L7 8.50879Z" fill="#FF8800"/>
<path opacity="0.2" d="M29 21C29 25.4183 25.4183 29 21 29C16.5817 29 13 25.4183 13 21C13 16.5817 16.5817 13 21 13C25.4183 13 29 16.5817 29 21Z" fill="#FF8800"/>
<path fill-rule="evenodd" clip-rule="evenodd" d="M21 29C16.5817 29 13 25.4183 13 21C13 16.5817 16.5817 13 21 13C25.4183 13 29 16.5817 29 21C29 25.4183 25.4183 29 21 29ZM21 15C24.3137 15 27 17.6863 27 21C27 24.3137 24.3137 27 21 27C17.6863 27 15 24.3137 15 21C15 17.6863 17.6863 15 21 15Z" fill="#FF8800"/>
<path d="M23.707 21.293C24.0976 21.6835 24.0976 22.3165 23.707 22.707L21.707 24.707C21.5195 24.8946 21.2652 25 21 25C20.7348 25 20.4805 24.8946 20.293 24.707L18.293 22.707C17.9024 22.3165 17.9024 21.6835 18.293 21.293C18.6835 20.9024 19.3165 20.9024 19.707 21.293L20 21.5859L20 18C20 17.4477 20.4477 17 21 17C21.5523 17 22 17.4477 22 18L22 21.5859L22.293 21.293C22.6835 20.9024 23.3165 20.9024 23.707 21.293Z" fill="#FF8800"/>
</svg>
