<svg width="30" height="30" viewBox="0 0 30 30" fill="none" xmlns="http://www.w3.org/2000/svg">
<path fill-rule="evenodd" clip-rule="evenodd" d="M15 3C21.6274 3 27 8.37258 27 15C27 21.6274 21.6274 27 15 27C8.37258 27 3 21.6274 3 15C3 8.37258 8.37258 3 15 3ZM11.8086 20C12.2345 21.2038 12.777 22.1679 13.3135 22.9189C13.8862 23.7208 14.456 24.2881 14.874 24.6504C14.9171 24.6878 14.9603 24.7209 15 24.7539C15.0397 24.7209 15.0829 24.6878 15.126 24.6504C15.544 24.2881 16.1138 23.7208 16.6865 22.9189C17.223 22.1679 17.7655 21.2038 18.1914 20H11.8086ZM6.34082 20C7.58922 22.1574 9.61831 23.8061 12.0439 24.5557C11.9256 24.4053 11.8055 24.2477 11.6865 24.0811C10.9451 23.043 10.2168 21.6946 9.70508 20H6.34082ZM20.2949 20C19.7832 21.6946 19.0549 23.043 18.3135 24.0811C18.1943 24.2478 18.0735 24.4051 17.9551 24.5557C20.3811 23.8063 22.4106 22.1576 23.6592 20H20.2949ZM5.45801 12C5.16055 12.9471 5 13.9548 5 15C5 16.0452 5.16055 17.0529 5.45801 18H9.24121C9.08889 17.081 9 16.0825 9 15C9 13.9175 9.08889 12.919 9.24121 12H5.45801ZM11.2734 12C11.1032 12.9001 11 13.8975 11 15C11 16.1025 11.1032 17.0999 11.2734 18H18.7266C18.8968 17.0999 19 16.1025 19 15C19 13.8975 18.8968 12.9001 18.7266 12H11.2734ZM20.7588 12C20.9111 12.919 21 13.9175 21 15C21 16.0825 20.9111 17.081 20.7588 18H24.542C24.8395 17.0529 25 16.0452 25 15C25 13.9548 24.8395 12.9471 24.542 12H20.7588ZM12.0439 5.44336C9.61818 6.19284 7.58926 7.84256 6.34082 10H9.70508C10.2168 8.30544 10.9451 6.95697 11.6865 5.91895C11.8057 5.75212 11.9255 5.59393 12.0439 5.44336ZM14.874 5.34961C14.456 5.7119 13.8862 6.2792 13.3135 7.08105C12.777 7.83215 12.2345 8.7962 11.8086 10H18.1914C17.7655 8.7962 17.223 7.83215 16.6865 7.08105C16.1138 6.2792 15.544 5.7119 15.126 5.34961C15.0827 5.31208 15.0398 5.27825 15 5.24512C14.9602 5.27825 14.9173 5.31208 14.874 5.34961ZM17.9551 5.44336C18.0737 5.59408 18.1942 5.75194 18.3135 5.91895C19.0549 6.95697 19.7832 8.30544 20.2949 10H23.6592C22.4106 7.8423 20.3812 6.19271 17.9551 5.44336Z" fill="#FF8800"/>
</svg>
