<svg width="50" height="50" viewBox="0 0 50 50" fill="none" xmlns="http://www.w3.org/2000/svg">
<path d="M19.6641 5.50385C18.7435 4.89014 17.5599 4.83292 16.5844 5.35498C15.6089 5.87704 15 6.89362 15 8V45H21V13.6056L28.0621 18.3136L24.5903 21.636C24.5304 21.6933 24.4789 21.7589 24.4375 21.8307L24.4045 21.8878C24.1811 22.2748 24.3137 22.7696 24.7006 22.993C24.8094 23.0558 24.9313 23.0924 25.0566 23.0999L43.3393 24.1973C43.6452 24.2157 43.9352 24.0596 44.0884 23.7942C44.2417 23.5289 44.2318 23.1997 44.0629 22.944L33.9712 7.65939C33.902 7.55458 33.8094 7.46732 33.7006 7.40452C33.3137 7.18111 32.8189 7.31369 32.5955 7.70064L32.5625 7.75778C32.521 7.82959 32.49 7.90692 32.4703 7.98746L31.1975 13.1928L19.6641 5.50385Z" fill="white"/>
</svg>
