<svg width="30" height="30" viewBox="0 0 30 30" fill="none" xmlns="http://www.w3.org/2000/svg">
<path d="M30 15C30 23.2843 23.2843 30 15 30C6.71573 30 0 23.2843 0 15C0 6.71573 6.71573 0 15 0C23.2843 0 30 6.71573 30 15Z" fill="white"/>
<path d="M26 15C26 21.0751 21.0751 26 15 26C8.92487 26 4 21.0751 4 15C4 11.708 5.44615 8.75368 7.73783 6.73779L9.86519 8.86512C8.11373 10.3326 7 12.5362 7 15C7 19.4183 10.5817 23 15 23C19.4183 23 23 19.4183 23 15C23 12.5362 21.8863 10.3326 20.1348 8.86512L22.2622 6.73779C24.5538 8.75368 26 11.708 26 15Z" fill="#006699"/>
<path d="M11.2868 10.2866C9.89401 11.3854 9 13.0882 9 14.9999C9 17.9729 11.1623 20.4408 14 20.9169V12.9998L11.2868 10.2866Z" fill="#339966"/>
<path d="M16 20.9169C18.8377 20.4409 21 17.9729 21 14.9999C21 13.0882 20.106 11.3854 18.7132 10.2866L16 12.9998V20.9169Z" fill="#339966"/>
<circle cx="15" cy="6" r="3" fill="#990000"/>
</svg>
