<svg width="30" height="30" viewBox="0 0 30 30" fill="none" xmlns="http://www.w3.org/2000/svg">
<path d="M5 12C5 11.3104 5.35524 10.6695 5.94 10.304L13.94 5.304C14.5886 4.89867 15.4115 4.89867 16.06 5.304L24.0292 10.2848C24.6109 10.6345 25.0001 11.2718 25.0001 12V18C25.0001 18.7262 24.6153 19.3622 24.0305 19.7144L16.06 24.696C15.4115 25.1014 14.5886 25.1014 13.94 24.696L5.94 19.696C5.35524 19.3305 5 18.6896 5 18L5.00006 17.9844V12.0157L5 12Z" fill="#2D5347"/>
<path opacity="0.2" d="M9.4 16.5L7 18L15 23L23 18L20.6 16.5L15 20L9.4 16.5Z" fill="#2D9D79"/>
<path opacity="0.5" d="M9.4 13.5L7 15L15 20L23 15L20.6 13.5L15 17L9.4 13.5Z" fill="#2D9D79"/>
<path d="M7 12L15 7L23 12L15 17L7 12Z" fill="#1AB381"/>
</svg>
