<svg width="30" height="30" viewBox="0 0 30 30" fill="none" xmlns="http://www.w3.org/2000/svg">
<path d="M13.7084 23.0001H10.6632C10.1014 24.1825 8.89617 25 7.5 25C5.567 25 4 23.433 4 21.5L4 16.2362C3.38625 15.6868 3 14.8886 3 14.0001C3 12.5872 3.97668 11.4024 5.29172 11.0841L5.74868 8.3424C6.07014 6.41365 7.7389 5 9.69425 5H20.3057C22.2611 5 23.9299 6.41365 24.2513 8.3424L24.7708 11.4595C26.1514 12.8971 27 14.8494 27 17C27 18.4063 26.6372 19.7278 26 20.876V21.5C26 23.433 24.433 25 22.5 25C22.0092 25 21.542 24.899 21.1181 24.7166C20.4435 24.9014 19.7333 25 19 25C16.9711 25 15.1187 24.2447 13.7084 23.0001Z" fill="#47566B"/>
<path d="M12.0703 21.0001C11.3896 19.8233 11 18.4572 11 17C11 15.5429 11.3896 14.1767 12.0703 13H9.02759L9.69425 9H20.3057L20.3239 9.10904C21.0784 9.23469 21.7972 9.46592 22.4645 9.78705L22.2785 8.6712C22.1178 7.70683 21.2834 7 20.3057 7H9.69425C8.71658 7 7.8822 7.70683 7.72147 8.6712L7 13L6 13.0001C5.44772 13.0001 5 13.4478 5 14.0001C5 14.5523 5.44772 15.0001 6 15.0001L6 21.5C6 22.3284 6.67157 23 7.5 23C8.32843 23 9 22.3284 9 21.5V21.0001H12.0703Z" fill="#237BFF"/>
<path d="M12.0703 13C13.4535 10.6088 16.0389 9 19 9C19.451 9 19.8933 9.03732 20.3239 9.10904L20.3057 9H19H9.69425L9.02759 13H12.0703Z" fill="#D1E6FF"/>
<rect x="8" y="15.0001" width="3" height="3" rx="1.5" fill="#FFBF00"/>
<path d="M25 17C25 20.3137 22.3137 23 19 23C15.6863 23 13 20.3137 13 17C13 13.6863 15.6863 11 19 11C22.3137 11 25 13.6863 25 17Z" fill="#FFC107"/>
<path d="M20 15V13L18 13L18 15H20Z" fill="#6B5000"/>
<path d="M20 21L20 17H18L18 21H20Z" fill="#6B5000"/>
</svg>
