<svg width="40" height="40" viewBox="0 0 40 40" fill="none" xmlns="http://www.w3.org/2000/svg">
<path opacity="0.2" fill-rule="evenodd" clip-rule="evenodd" d="M29 36C30.6569 36 32 34.6569 32 33C32 31.3431 30.6569 30 29 30C27.3431 30 26 31.3431 26 33C26 34.6569 27.3431 36 29 36Z" fill="#FF8800"/>
<path opacity="0.2" fill-rule="evenodd" clip-rule="evenodd" d="M11 10C12.6569 10 14 8.65685 14 7C14 5.34315 12.6569 4 11 4C9.34315 4 8 5.34315 8 7C8 8.65685 9.34315 10 11 10Z" fill="#FF8800"/>
<path fill-rule="evenodd" clip-rule="evenodd" d="M12 11.9C14.2822 11.4367 16 9.41896 16 7C16 4.23858 13.7614 2 11 2C8.23858 2 6 4.23858 6 7C6 9.41896 7.71776 11.4367 10 11.9V28.5C10 31.5376 12.4624 34 15.5 34C18.5376 34 21 31.5376 21 28.5V11.5C21 9.567 22.567 8 24.5 8C26.433 8 28 9.567 28 11.5V28.1C25.7178 28.5633 24 30.581 24 33C24 35.7614 26.2386 38 29 38C31.7614 38 34 35.7614 34 33C34 30.581 32.2822 28.5633 30 28.1V11.5C30 8.46243 27.5376 6 24.5 6C21.4624 6 19 8.46243 19 11.5V28.5C19 30.433 17.433 32 15.5 32C13.567 32 12 30.433 12 28.5V11.9ZM11 10C12.6569 10 14 8.65685 14 7C14 5.34315 12.6569 4 11 4C9.34315 4 8 5.34315 8 7C8 8.65685 9.34315 10 11 10ZM29 36C30.6569 36 32 34.6569 32 33C32 31.3431 30.6569 30 29 30C27.3431 30 26 31.3431 26 33C26 34.6569 27.3431 36 29 36Z" fill="#FF8800"/>
</svg>
