<svg width="30" height="30" viewBox="0 0 30 30" fill="none" xmlns="http://www.w3.org/2000/svg">
<path d="M14.9999 9C16.1045 9 16.9999 8.10457 16.9999 7C16.9999 5.89543 16.1045 5 14.9999 5C13.8954 5 12.9999 5.89543 12.9999 7C12.9999 8.10457 13.8954 9 14.9999 9Z" fill="#FF8800"/>
<path d="M15.4193 10.194C14.0531 9.48276 12.9367 10.5837 12.795 12.0003L12.5087 14.8632L11.0001 25H13.0001L14.0108 18H14.7963L15.7527 19.093C15.9122 19.2753 16.0001 19.5093 16.0001 19.7515V25H18.0001V19.7515C18.0001 19.0248 17.7363 18.3229 17.2578 17.776L15.735 16.0356C15.9369 15.253 16.0564 14.4174 16.1234 13.4684C16.6212 13.8122 17.2151 14 17.8285 14H19.7858L19.0001 25H21.0001L22.0001 11H20.0001L19.9286 12H17.8285C17.5633 12 17.3089 11.8947 17.1214 11.7071L16.1994 10.7851C15.9869 10.5727 15.777 10.4061 15.5721 10.2806C15.5208 10.2492 15.4699 10.2203 15.4193 10.194Z" fill="#FF8800"/>
<path d="M12.3586 10.9899L11.6227 16.1414C11.5523 16.6341 11.1304 17 10.6327 17H8.80853C8.611 17 8.42155 16.9215 8.28188 16.7819C8.10579 16.6058 8.02936 16.3533 8.0782 16.1091L8.39957 14.5022C8.45798 14.2102 8.7144 14 9.01222 14C9.2989 14 9.5488 13.8049 9.61833 13.5268L10.3107 10.7575C10.4219 10.3123 10.8219 10 11.2808 10H11.5C12.0278 10 12.4332 10.4675 12.3586 10.9899Z" fill="#FF8800"/>
</svg>
