<svg width="375" height="90" viewBox="0 0 375 90" fill="none" xmlns="http://www.w3.org/2000/svg">
<g clip-path="url(#clip0_1775_503)">
<rect width="375" height="90" fill="white"/>
<rect width="375" height="90" fill="white"/>
<path d="M368 90H347V33C347 28.0294 342.971 24 338 24H266C261.029 24 257 28.0294 257 33V90H233V33C233 28.0294 228.971 24 224 24H152C147.029 24 143 28.0294 143 33V90H119V33C119 28.0294 114.971 24 110 24H38C33.0294 24 29 28.0294 29 33V90H8V12H368V90Z" fill="#D7D8DB"/>
<path opacity="0.2" d="M364.5 77.7578C367.566 80.8239 370.72 83.9819 375 85.1348V90H0V85.1699C0.319216 85.1393 0.66011 85.0967 1.02637 85.0381C5.82127 84.2708 9.21154 81.0463 12.5 77.7578C16.9759 82.2336 21.9238 85 28.5 85C35.0762 85 40.0241 82.2336 44.5 77.7578C48.9759 82.2336 53.9238 85 60.5 85C67.0762 85 72.0241 82.2336 76.5 77.7578C80.9759 82.2336 85.9238 85 92.5 85C99.0762 85 104.024 82.2336 108.5 77.7578C112.976 82.2336 117.924 85 124.5 85C131.076 85 136.024 82.2336 140.5 77.7578C144.976 82.2336 149.924 85 156.5 85C163.076 85 168.024 82.2336 172.5 77.7578C176.976 82.2336 181.924 85 188.5 85C195.076 85 200.024 82.2336 204.5 77.7578C208.976 82.2336 213.924 85 220.5 85C227.076 85 232.024 82.2336 236.5 77.7578C240.976 82.2336 245.924 85 252.5 85C259.076 85 264.024 82.2336 268.5 77.7578C272.976 82.2336 277.924 85 284.5 85C291.076 85 296.024 82.2336 300.5 77.7578C304.976 82.2336 309.924 85 316.5 85C323.076 85 328.024 82.2336 332.5 77.7578C336.976 82.2336 341.924 85 348.5 85C355.076 85 360.024 82.2336 364.5 77.7578Z" fill="#237BFF"/>
<path d="M366.621 74.8789C369.875 78.1329 372.721 79.5252 375 80.1348V86.2783C374.839 86.2493 374.676 86.2205 374.513 86.1865C371.472 85.5529 368.055 84.0846 364.433 81.0166C359.936 84.4022 354.131 86 348.5 86C342.841 86 337.006 84.3863 332.5 80.9658C327.994 84.3863 322.159 86 316.5 86C310.841 86 305.006 84.3863 300.5 80.9658C295.994 84.3863 290.159 86 284.5 86C278.841 86 273.006 84.3863 268.5 80.9658C263.994 84.3863 258.159 86 252.5 86C246.841 86 241.006 84.3863 236.5 80.9658C231.994 84.3863 226.159 86 220.5 86C214.841 86 209.006 84.3863 204.5 80.9658C199.994 84.3863 194.159 86 188.5 86C182.841 86 177.006 84.3863 172.5 80.9658C167.994 84.3863 162.159 86 156.5 86C150.841 86 145.006 84.3863 140.5 80.9658C135.994 84.3863 130.159 86 124.5 86C118.841 86 113.006 84.3863 108.5 80.9658C103.994 84.3863 98.1594 86 92.5 86C86.8406 86 81.0058 84.3863 76.5 80.9658C71.9942 84.3863 66.1594 86 60.5 86C54.8406 86 49.0058 84.3863 44.5 80.9658C39.9942 84.3863 34.1594 86 28.5 86C22.8624 86 17.0503 84.3993 12.5518 81.0059C8.79654 84.106 5.12448 85.4578 1.97363 85.9619C1.31101 86.0679 0.644346 86.1318 0 86.1689V80.1699C0.319308 80.1393 0.660002 80.0967 1.02637 80.0381C3.54837 79.6345 6.84069 78.4171 10.3789 74.8789L12.5 72.7578L14.6211 74.8789C17.9312 78.189 23.0954 80 28.5 80C33.9046 80 39.0688 78.189 42.3789 74.8789L44.5 72.7578L46.6211 74.8789C49.9312 78.189 55.0954 80 60.5 80C65.9046 80 71.0688 78.189 74.3789 74.8789L76.5 72.7578L78.6211 74.8789C81.9312 78.189 87.0954 80 92.5 80C97.9046 80 103.069 78.189 106.379 74.8789L108.5 72.7578L110.621 74.8789C113.931 78.189 119.095 80 124.5 80C129.905 80 135.069 78.189 138.379 74.8789L140.5 72.7578L142.621 74.8789C145.931 78.189 151.095 80 156.5 80C161.905 80 167.069 78.189 170.379 74.8789L172.5 72.7578L174.621 74.8789C177.931 78.189 183.095 80 188.5 80C193.905 80 199.069 78.189 202.379 74.8789L204.5 72.7578L206.621 74.8789C209.931 78.189 215.095 80 220.5 80C225.905 80 231.069 78.189 234.379 74.8789L236.5 72.7578L238.621 74.8789C241.931 78.189 247.095 80 252.5 80C257.905 80 263.069 78.189 266.379 74.8789L268.5 72.7578L270.621 74.8789C273.931 78.189 279.095 80 284.5 80C289.905 80 295.069 78.189 298.379 74.8789L300.5 72.7578L302.621 74.8789C305.931 78.189 311.095 80 316.5 80C321.905 80 327.069 78.189 330.379 74.8789L332.5 72.7578L334.621 74.8789C337.931 78.189 343.095 80 348.5 80C353.905 80 359.069 78.189 362.379 74.8789L364.5 72.7578L366.621 74.8789Z" fill="#237BFF"/>
<path fill-rule="evenodd" clip-rule="evenodd" d="M212 65.7998C212 70.4917 209.265 74.753 205 76.708L188 84.5L171 76.708C166.735 74.753 164 70.4917 164 65.7998V56H212V65.7998ZM180 66.5V62H172L180 66.5ZM196 66.5L204 62H196V66.5Z" fill="#237BFF"/>
<path fill-rule="evenodd" clip-rule="evenodd" d="M198 38C201.314 38 204 40.6863 204 44V54H172V44C172 40.6863 174.686 38 178 38H198ZM176 50H186V44H176V50ZM190 50H200V44H190V50Z" fill="#237BFF"/>
<path d="M188 30C189.105 30 190 30.8954 190 32V36H186V32C186 30.8954 186.895 30 188 30Z" fill="#237BFF"/>
<path d="M214 25L220 19V31L214 25Z" fill="#EE5622"/>
<path d="M156 19L162 25L156 31L156 19Z" fill="#EE5622"/>
<path d="M204 26C203.448 26 203 25.5523 203 25C203 24.4477 203.448 24 204 24L211 24C211.552 24 212 24.4477 212 25C212 25.5523 211.552 26 211 26L204 26Z" fill="#EE5622"/>
<path d="M191 26C190.448 26 190 25.5523 190 25C190 24.4477 190.448 24 191 24L198 24C198.552 24 199 24.4477 199 25C199 25.5523 198.552 26 198 26L191 26Z" fill="#EE5622"/>
<path d="M178 26C177.448 26 177 25.5523 177 25C177 24.4477 177.448 24 178 24L185 24C185.552 24 186 24.4477 186 25C186 25.5523 185.552 26 185 26L178 26Z" fill="#EE5622"/>
<path d="M165 26C164.448 26 164 25.5523 164 25C164 24.4477 164.448 24 165 24L172 24C172.552 24 173 24.4477 173 25C173 25.5523 172.552 26 172 26L165 26Z" fill="#EE5622"/>
<g opacity="0.5">
<path d="M164 90H163V24H164V90Z" fill="#EE5622"/>
<path d="M213 90H212V24H213V90Z" fill="#EE5622"/>
</g>
</g>
<defs>
<clipPath id="clip0_1775_503">
<rect width="375" height="90" fill="white"/>
</clipPath>
</defs>
</svg>
