<svg width="30" height="30" viewBox="0 0 30 30" fill="none" xmlns="http://www.w3.org/2000/svg">
<path d="M17 4C18.6569 4 20 5.34315 20 7V7.34082C22.9883 9.07005 25 12.2991 25 16C25 21.5228 20.5228 26 15 26C9.47715 26 5 21.5228 5 16C5 12.2991 7.01171 9.07005 10 7.34082V7C10 5.34315 11.3431 4 13 4H17Z" fill="#2D3C53"/>
<path d="M15 8C19.4183 8 23 11.5817 23 16C23 20.4183 19.4183 24 15 24C10.5817 24 7 20.4183 7 16C7 11.5817 10.5817 8 15 8Z" fill="#237BFF"/>
<path d="M12 7C12 6.44772 12.4477 6 13 6H17C17.5523 6 18 6.44772 18 7C18 7.55228 17.5523 8 17 8H13C12.4477 8 12 7.55228 12 7Z" fill="#237BFF"/>
<path fill-rule="evenodd" clip-rule="evenodd" d="M15 22C18.3137 22 21 19.3137 21 16C21 12.6863 18.3137 10 15 10C11.6863 10 9 12.6863 9 16C9 19.3137 11.6863 22 15 22Z" fill="#00398F"/>
<path d="M15.3936 21.9873C15.9447 21.9517 16.4204 22.3698 16.4561 22.9209C16.4916 23.472 16.0735 23.9478 15.5225 23.9834C15.3496 23.9946 15.1754 24 15 24H14.708C14.1559 23.9998 13.708 23.5522 13.708 23C13.708 22.4478 14.1559 22.0002 14.708 22H15C15.1324 22 15.2636 21.9957 15.3936 21.9873Z" fill="#FFC107"/>
<path d="M19.5117 19.9561C19.876 19.541 20.5078 19.5 20.9229 19.8643C21.3376 20.2286 21.3789 20.8604 21.0146 21.2754C20.7845 21.5376 20.5376 21.7845 20.2754 22.0146C19.8604 22.3789 19.2286 22.3376 18.8643 21.9229C18.5 21.5078 18.541 20.876 18.9561 20.5117C19.1531 20.3388 19.3388 20.1531 19.5117 19.9561Z" fill="#FFC107"/>
<path d="M14.7344 13C14.906 13 15.0722 13.0601 15.2041 13.1699L17.6162 15.1797C17.8595 15.3825 18 15.6832 18 16C18 16.3168 17.8595 16.6175 17.6162 16.8203L15.2041 18.8301C15.0722 18.9399 14.906 19 14.7344 19C14.3289 19 14 18.6711 14 18.2656V13.7344C14 13.3289 14.3289 13 14.7344 13Z" fill="#FFC107"/>
<path d="M21.9209 14.5439C22.472 14.5084 22.9478 14.9265 22.9834 15.4775C22.9946 15.6504 23 15.8246 23 16C23 16.1754 22.9946 16.3496 22.9834 16.5225C22.9478 17.0735 22.472 17.4916 21.9209 17.4561C21.3698 17.4204 20.9517 16.9447 20.9873 16.3936C20.9957 16.2636 21 16.1324 21 16C21 15.8676 20.9957 15.7364 20.9873 15.6064C20.9517 15.0553 21.3698 14.5796 21.9209 14.5439Z" fill="#FFC107"/>
<path d="M18.8643 10.0771C19.2286 9.66237 19.8604 9.62114 20.2754 9.98535C20.5376 10.2155 20.7845 10.4624 21.0146 10.7246C21.3789 11.1396 21.3376 11.7714 20.9229 12.1357C20.5078 12.5 19.876 12.459 19.5117 12.0439C19.3388 11.8469 19.1531 11.6612 18.9561 11.4883C18.541 11.124 18.5 10.4922 18.8643 10.0771Z" fill="#FFC107"/>
<path d="M15 8C15.1754 8 15.3496 8.00544 15.5225 8.0166C16.0735 8.05221 16.4916 8.52803 16.4561 9.0791C16.4204 9.63024 15.9447 10.0483 15.3936 10.0127C15.2636 10.0043 15.1324 10 15 10H14.708C14.1559 9.99982 13.708 9.55218 13.708 9C13.708 8.44782 14.1559 8.00018 14.708 8H15Z" fill="#FFC107"/>
</svg>
