<svg width="30" height="30" viewBox="0 0 30 30" fill="none" xmlns="http://www.w3.org/2000/svg">
<path fill-rule="evenodd" clip-rule="evenodd" d="M24 8V16.0002C25.2134 16.9114 26 18.3624 26 20C26 22.7614 23.7614 25 21 25C18.2386 25 16 22.7614 16 20C16 18.3624 16.7866 16.9114 18 16.0002V8C18 6.34314 19.3431 5 21 5C22.6569 5 24 6.34315 24 8ZM20 15V17.1707C19.3967 17.3839 18.882 17.7847 18.5258 18.3029C19.0736 18.5213 19.5664 18.8421 20.0547 19.168C20.837 19.6895 21.3456 20.0001 22 20.0001C22.6397 20.0001 23.1401 19.7033 23.8929 19.2029C23.6325 18.2554 22.919 17.4955 22 17.1707V8C22 7.44772 21.5523 7 21 7C20.4477 7 20 7.44772 20 8V9H21V11H20V13H21V15H20Z" fill="#FF8800"/>
<path fill-rule="evenodd" clip-rule="evenodd" d="M14 20C14 20.3395 14.0242 20.6734 14.0709 21.0001H9V21.5001C9 22.3285 8.32843 23.0001 7.5 23.0001C6.67157 23.0001 6 22.3285 6 21.5001L6 15.0001C5.44772 15.0001 5 14.5523 5 14.0001C5 13.4478 5.44772 13.0001 6 13.0001L7 13L7.72147 8.6712C7.8822 7.70683 8.71658 7 9.69425 7H16.1C16.0344 7.32311 16 7.65753 16 8V9H9.69425L9.02759 13H16V15.1016C14.7659 16.3613 14 18.0901 14 20ZM8 16.5001C8 15.6716 8.67157 15.0001 9.5 15.0001C10.3284 15.0001 11 15.6716 11 16.5001C11 17.3285 10.3284 18.0001 9.5 18.0001C8.67157 18.0001 8 17.3285 8 16.5001Z" fill="#FF8800"/>
</svg>
