<svg width="30" height="30" viewBox="0 0 30 30" fill="none" xmlns="http://www.w3.org/2000/svg">
<path d="M14 5C14.5523 5 15 5.44772 15 6V7H17C17.5523 7 18 7.44772 18 8C18 8.55228 17.5523 9 17 9H15V10H17C17.5523 10 18 10.4477 18 11C18 11.5523 17.5523 12 17 12H15V13H17C17.5523 13 18 13.4477 18 14C18 14.2761 17.8881 14.5261 17.7071 14.7071C17.5261 14.8881 17.2761 15 17 15H15V16.2676C15.5978 16.6134 16 17.2597 16 18C16 19.1046 15.1046 20 14 20C12.8954 20 12 19.1046 12 18C12 17.2597 12.4022 16.6134 13 16.2676V6C13 5.44772 13.4477 5 14 5Z" fill="#FF8800"/>
<path fill-rule="evenodd" clip-rule="evenodd" d="M17.167 16.9954C18.0395 16.9476 18.8126 16.5269 19.3299 15.89L25 14V19L19 24H8V20L5 17V11H8L10 14H11V16H10V22H18.2759L23 18.0632V16.7749L18.4598 18.2882L17.167 16.9954ZM8 14.6056L7 13.1056V16.1716L8 17.1716V14.6056Z" fill="#FF8800"/>
</svg>
