<svg width="30" height="30" viewBox="0 0 30 30" fill="none" xmlns="http://www.w3.org/2000/svg">
<path fill-rule="evenodd" clip-rule="evenodd" d="M20 3C20.5523 3.00004 21 3.44774 21 4V4.34277C21 5.40362 20.5783 6.42173 19.8282 7.17188L18.586 8.41406L18.4532 8.56055C18.1615 8.91641 18.0001 9.36397 18 9.82812V10.5859L25.293 3.29297C25.6835 2.90248 26.3166 2.90246 26.7071 3.29297C27.0975 3.68348 27.0975 4.31652 26.7071 4.70703L4.70708 26.707C4.31657 27.0975 3.68354 27.0975 3.29301 26.707C2.90249 26.3165 2.90249 25.6835 3.29301 25.293L8.64946 19.9355C8.27029 19.7934 8.00005 19.4288 8.00005 19C8.00005 16.2076 9.63514 13.7973 12 12.6738V9.82812C12 9.29782 11.7891 8.78906 11.4141 8.41406L10.1719 7.17188C9.42178 6.42173 9.00005 5.40364 9.00005 4.34277V4C9.00005 3.48232 9.39338 3.05621 9.89751 3.00488L10 3H20ZM14.5674 14.0176C12.3436 14.2081 10.536 15.8553 10.1006 18H10.586L14.5674 14.0176ZM11.1133 5C11.2116 5.28211 11.3707 5.54257 11.586 5.75781L12.8282 7L12.9649 7.14355C13.6294 7.87727 14 8.83356 14 9.82812V12H16V9.82812C16.0001 8.76737 16.4218 7.75008 17.1719 7L18.4141 5.75781C18.6293 5.54257 18.7885 5.28211 18.8868 5H11.1133Z" fill="#FF8800"/>
<path d="M20.3457 14.4814C21.3775 15.7008 22 17.2776 22 19C22 19.5523 21.5523 20 21 20H16V26L15 27L14 26V20.8281L16.8282 18H19.8995C19.741 17.2194 19.4008 16.5047 18.9249 15.9023L20.3457 14.4814Z" fill="#FF8800"/>
</svg>
