<svg width="30" height="30" viewBox="0 0 30 30" fill="none" xmlns="http://www.w3.org/2000/svg">
<path opacity="0.5" d="M7 5C5.89543 5 5 5.89543 5 7V7.17071C5.31278 7.06015 5.64936 7 6 7H24C24.3506 7 24.6872 7.06015 25 7.17071V7C25 5.89543 24.1046 5 23 5H7Z" fill="#FF8800"/>
<path fill-rule="evenodd" clip-rule="evenodd" d="M16.5 12C16.5 11.7239 16.7238 11.5 17 11.5H18C18.2383 11.5 18.4435 11.6682 18.4903 11.9019L18.9801 14.3509L19.2943 15.0842C19.5235 15.0287 19.7603 15 20 15C20.7957 15 21.5587 15.3161 22.1213 15.8787C22.6839 16.4413 23 17.2044 23 18C23 18.7956 22.6839 19.5587 22.1213 20.1213C21.5587 20.6839 20.7957 21 20 21C19.2044 21 18.4413 20.6839 17.8787 20.1213C17.3161 19.5587 17 18.7956 17 18C17 17.2044 17.3161 16.4413 17.8787 15.8787C18.0307 15.7267 18.1973 15.5927 18.3752 15.4781L18.3313 15.3758L15.3535 18.3536C15.2598 18.4473 15.1326 18.5 15 18.5H12.9581C12.855 19.1102 12.5647 19.6781 12.1213 20.1215C11.5587 20.6842 10.7957 21.0002 10 21.0002C9.20436 21.0002 8.4413 20.6842 7.87869 20.1215C7.31608 19.5589 7.00001 18.7959 7.00001 18.0002C7.00001 17.2046 7.31608 16.4415 7.87869 15.8789C8.4413 15.3163 9.20436 15.0002 10 15.0002C10.549 15.0002 11.0825 15.1507 11.5453 15.4288L12.5 14.315V13.5H12C11.7238 13.5 11.5 13.2761 11.5 13C11.5 12.7239 11.7238 12.5 12 12.5H13.5C13.7761 12.5 14 12.7239 14 13C14 13.2761 13.7761 13.5 13.5 13.5V14H17.8901L17.5901 12.5H17C16.7238 12.5 16.5 12.2761 16.5 12ZM19.5404 18.197L18.7776 16.417C18.7105 16.4689 18.6464 16.5252 18.5858 16.5858C18.2107 16.9609 18 17.4696 18 18C18 18.5304 18.2107 19.0391 18.5858 19.4142C18.9609 19.7893 19.4696 20 20 20C20.5304 20 21.0392 19.7893 21.4142 19.4142C21.7893 19.0391 22 18.5304 22 18C22 17.4696 21.7893 16.9609 21.4142 16.5858C21.0392 16.2107 20.5304 16 20 16C19.8979 16 19.7965 16.0078 19.6967 16.0231L20.4596 17.803C20.5683 18.0569 20.4508 18.3508 20.197 18.4596C19.9431 18.5683 19.6492 18.4508 19.5404 18.197ZM14.1384 17.5H12.958C12.8698 16.9785 12.6449 16.4879 12.3046 16.0796L12.9179 15.3641L14.1384 17.5ZM11.9365 17.5C11.8769 17.2695 11.7766 17.051 11.6398 16.8552L11.0871 17.5H11.9365ZM9.62036 17.6746L10.8805 16.2045C10.609 16.0713 10.3081 16.0002 10 16.0002C9.46958 16.0002 8.96087 16.2109 8.5858 16.586C8.21073 16.9611 8.00001 17.4698 8.00001 18.0002C8.00001 18.5307 8.21073 19.0394 8.5858 19.4144C8.96087 19.7895 9.46958 20.0002 10 20.0002C10.5304 20.0002 11.0392 19.7895 11.4142 19.4144C11.6691 19.1596 11.848 18.8431 11.9366 18.5H9.99999C9.80473 18.5 9.62733 18.3863 9.54573 18.2089C9.46414 18.0315 9.49329 17.8229 9.62036 17.6746ZM17.2929 15H13.8616L15.1093 17.1836L17.2929 15Z" fill="#FF8800"/>
<path fill-rule="evenodd" clip-rule="evenodd" d="M24 7H6C4.34314 7 3 8.34315 3 10V22C3 23.6569 4.34315 25 6 25H24C25.6569 25 27 23.6569 27 22V10C27 8.34315 25.6569 7 24 7ZM5 10C5 9.44772 5.44772 9 6 9H24C24.5523 9 25 9.44772 25 10V22C25 22.5523 24.5523 23 24 23H6C5.44772 23 5 22.5523 5 22V10Z" fill="#FF8800"/>
</svg>
