<svg width="24" height="24" viewBox="0 0 24 24" fill="none" xmlns="http://www.w3.org/2000/svg">
<path d="M22,18V20H2V18H22Z" fill="#ffffff"/>
<path d="M12,9C14.7614,9 17,11.2386 17,14C17,14.7111 16.8516,15.3876 16.584,16H7.416C7.1484,15.3876 7,14.7111 7,14C7,11.2386 9.2386,9 12,9Z" fill="#ffffff"/>
<path d="M5,15H2V13H5V15Z" fill="#ffffff"/>
<path d="M22,15H19V13H22V15Z" fill="#ffffff"/>
<path d="M19.7783,7.6357L17.6572,9.7578L16.2422,8.3428L18.3643,6.2217L19.7783,7.6357Z" fill="#ffffff"/>
<path d="M7.7578,8.3428L6.3428,9.7568L4.2217,7.6357L5.6357,6.2217L7.7578,8.3428Z" fill="#ffffff"/>
<path d="M13,7H11V4H13V7Z" fill="#ffffff"/>
</svg>
