<svg width="30" height="30" viewBox="0 0 30 30" fill="none" xmlns="http://www.w3.org/2000/svg">
<path d="M14 5C14 4.44772 14.4477 4 15 4C15.5523 4 16 4.44772 16 5V7C16 7.55228 15.5523 8 15 8C14.4477 8 14 7.55228 14 7V5Z" fill="#FF8800"/>
<path d="M6 17H4C3.44772 17 3 16.5523 3 16C3 15.4477 3.44772 15 4 15H6C6.55228 15 7 15.4477 7 16C7 16.5523 6.55228 17 6 17Z" fill="#FF8800"/>
<path d="M19.9125 17C20.4923 17 21 16.5799 21 16C21 12.6863 18.3137 10 15 10C11.6863 10 9 12.6863 9 16C9 16.5799 9.5077 17 10.0875 17H19.9125Z" fill="#FF8800"/>
<path d="M26 17H24C23.4477 17 23 16.5523 23 16C23 15.4477 23.4477 15 24 15H26C26.5523 15 27 15.4477 27 16C27 16.5523 26.5523 17 26 17Z" fill="#FF8800"/>
<path d="M23.4853 7.51472C23.0948 7.1242 22.4616 7.1242 22.0711 7.51472L20.6569 8.92894C20.2664 9.31946 20.2664 9.95263 20.6569 10.3432C21.0474 10.7337 21.6806 10.7337 22.0711 10.3432L23.4853 8.92894C23.8758 8.53841 23.8758 7.90525 23.4853 7.51472Z" fill="#FF8800"/>
<path d="M9.34319 8.92893C9.73371 9.31945 9.73371 9.95261 9.34319 10.3431C8.95266 10.7337 8.3195 10.7337 7.92897 10.3431L6.51476 8.92893C6.12423 8.5384 6.12423 7.90524 6.51476 7.51471C6.90528 7.12419 7.53845 7.12419 7.92897 7.51471L9.34319 8.92893Z" fill="#FF8800"/>
<path d="M4 19C3.44772 19 3 19.4477 3 20C3 20.5523 3.44772 21 4 21H26C26.5523 21 27 20.5523 27 20C27 19.4477 26.5523 19 26 19H4Z" fill="#FF8800"/>
<path opacity="0.6" d="M5 24C5 23.4477 5.44772 23 6 23H24C24.5523 23 25 23.4477 25 24C25 24.5523 24.5523 25 24 25H6C5.44772 25 5 24.5523 5 24Z" fill="#FF8800"/>
</svg>
