<svg width="30" height="30" viewBox="0 0 30 30" fill="none" xmlns="http://www.w3.org/2000/svg">
<path opacity="0.6" d="M9.5 5C8.67157 5 8 5.67157 8 6.5V27H15V21C12.7909 21 11 19.2091 11 17C11 14.7909 12.7909 13 15 13V5H9.5Z" fill="#FF8800"/>
<path d="M9.5 5H20.5C21.3284 5 22 5.67157 22 6.5V27H24V6.5C24 4.567 22.433 3 20.5 3H9.5C7.567 3 6 4.567 6 6.5V27H8V6.5C8 5.67157 8.67157 5 9.5 5Z" fill="#FF8800"/>
<path d="M12 8C12 7.44772 12.4477 7 13 7H17C17.5523 7 18 7.44772 18 8C18 8.55228 17.5523 9 17 9H13C12.4477 9 12 8.55228 12 8Z" fill="#FF8800"/>
<path d="M19 17C19 19.2091 17.2092 21 15 21V13C17.2091 13 19 14.7909 19 17Z" fill="#FF8800"/>
</svg>
