<svg width="30" height="30" viewBox="0 0 30 30" fill="none" xmlns="http://www.w3.org/2000/svg">
<path fill-rule="evenodd" clip-rule="evenodd" d="M26.7071 4.70711C27.0976 4.31658 27.0976 3.68342 26.7071 3.29289C26.3166 2.90237 25.6834 2.90237 25.2929 3.29289L22.7488 5.83695C20.6582 4.06716 17.9537 3 15 3C8.37258 3 3 8.37258 3 15C3 17.9537 4.06716 20.6582 5.83695 22.7488L3.29289 25.2929C2.90237 25.6834 2.90237 26.3166 3.29289 26.7071C3.68342 27.0976 4.31658 27.0976 4.70711 26.7071L26.7071 4.70711ZM11.1718 17.414L16.6228 11.963C16.1119 11.987 15.5714 12 15 12C13.5888 12 12.3665 11.9209 11.3113 11.7916C11.1164 12.7453 11 13.8119 11 15C11 15.8684 11.0622 16.672 11.1718 17.414ZM19.8521 8.73366L21.3287 7.25705C20.3442 6.45142 19.2033 5.82984 17.9584 5.44485C18.0764 5.59479 18.1951 5.7527 18.3137 5.91876C18.8602 6.68383 19.4008 7.6172 19.8521 8.73366ZM6.16028 19.6797C6.50119 19.4875 6.95196 19.2716 7.53326 19.0602C8.03441 18.878 8.63165 18.6994 9.33835 18.5424C9.12527 17.4776 9 16.299 9 15C9 13.701 9.12527 12.5224 9.33835 11.4576C8.63165 11.3006 8.03441 11.122 7.53326 10.9398C6.95196 10.7284 6.50119 10.5125 6.16028 10.3203C5.41957 11.7166 5 13.3093 5 15C5 16.6907 5.41957 18.2834 6.16028 19.6797ZM7.2745 8.65001C7.50689 8.77237 7.81664 8.91472 8.21674 9.06021C8.65028 9.21786 9.19089 9.37954 9.85496 9.52338C10.3538 8.05012 11.0156 6.8577 11.6863 5.91876C11.8049 5.7527 11.9236 5.59479 12.0416 5.44485C10.1518 6.02929 8.50151 7.15894 7.2745 8.65001ZM16.6863 7.08124C17.1992 7.79935 17.7196 8.71139 18.1366 9.84214C17.2373 9.93985 16.1974 10 15 10C13.8026 10 12.7627 9.93985 11.8634 9.84214C12.2804 8.71139 12.8008 7.79935 13.3137 7.08124C13.8865 6.27938 14.4557 5.71173 14.8737 5.34944C14.9175 5.31143 14.9597 5.27571 15 5.24224C15.0403 5.27571 15.0825 5.31143 15.1263 5.34944C15.5443 5.71173 16.1135 6.27938 16.6863 7.08124Z" fill="#FF8800"/>
<path fill-rule="evenodd" clip-rule="evenodd" d="M24.0622 10.7663L25.5505 9.27793C26.4749 10.9788 27 12.9281 27 15C27 21.6274 21.6274 27 15 27C12.9281 27 10.9788 26.4749 9.27793 25.5505L10.7663 24.0622C11.1769 24.2544 11.6028 24.4195 12.0416 24.5552C11.9236 24.4052 11.8049 24.2473 11.6863 24.0812C11.5594 23.9036 11.4328 23.7168 11.3076 23.5209L12.7619 22.0665C12.9434 22.3765 13.129 22.6602 13.3137 22.9188C13.8865 23.7206 14.4557 24.2883 14.8737 24.6506C14.9175 24.6886 14.9597 24.7243 15 24.7578C15.0403 24.7243 15.0825 24.6886 15.1263 24.6506C15.5443 24.2883 16.1135 23.7206 16.6863 22.9188C17.1992 22.2007 17.7196 21.2886 18.1366 20.1579C17.2373 20.0602 16.1974 20 15 20C14.9423 20 14.885 20.0001 14.828 20.0004L16.7835 18.045C17.472 18.0809 18.1058 18.137 18.6887 18.2084C18.836 17.4876 18.9385 16.7022 18.9797 15.8487L20.9671 13.8613C20.9887 14.2301 21 14.6096 21 15C21 16.299 20.8747 17.4776 20.6617 18.5424C21.3683 18.6994 21.9656 18.878 22.4667 19.0602C23.048 19.2716 23.4988 19.4875 23.8397 19.6797C24.5804 18.2834 25 16.6907 25 15C25 13.4867 24.6639 12.0519 24.0622 10.7663ZM22.7255 21.35C22.4931 21.2276 22.1834 21.0853 21.7833 20.9398C21.3497 20.7821 20.8091 20.6205 20.145 20.4766C19.6462 21.9499 18.9844 23.1423 18.3137 24.0812C18.1951 24.2473 18.0764 24.4052 17.9584 24.5552C19.8482 23.9707 21.4985 22.8411 22.7255 21.35Z" fill="#FF8800"/>
</svg>
