<svg width="30" height="30" viewBox="0 0 30 30" fill="none" xmlns="http://www.w3.org/2000/svg">
<path d="M15.7773 22C15.9229 22 16.066 22.041 16.1895 22.1182L19.5762 24.2354C19.8398 24.4002 20 24.6891 20 25C20 25.3109 19.8398 25.5998 19.5762 25.7646L16.1895 27.8818C16.066 27.959 15.9229 28 15.7773 28C15.3482 28 15 27.6518 15 27.2227V22.7773C15 22.3482 15.3482 22 15.7773 22Z" fill="#FF8800"/>
<path d="M22.7773 22C22.9229 22 23.066 22.041 23.1895 22.1182L26.5762 24.2354C26.8398 24.4002 27 24.6891 27 25C27 25.3109 26.8398 25.5998 26.5762 25.7646L23.1895 27.8818C23.066 27.959 22.9229 28 22.7773 28C22.3482 28 22 27.6518 22 27.2227V22.7773C22 22.3482 22.3482 22 22.7773 22Z" fill="#FF8800"/>
<path d="M15 7C17.7204 7 20.1854 8.08809 21.9883 9.85059L22.666 9.17383C23.0565 8.78344 23.6896 8.78353 24.0801 9.17383C24.4706 9.56433 24.4705 10.1974 24.0801 10.5879L23.2773 11.3896C24.3639 12.9896 25 14.9202 25 17C25 18.0452 24.8395 19.0529 24.542 20H22.416C22.7912 19.0733 23 18.0612 23 17C23 12.5817 19.4183 9 15 9C10.5817 9 7 12.5817 7 17C7 20.7276 9.54965 23.8589 13 24.7471V26.7988C8.43563 25.8722 5 21.8378 5 17C5 11.4772 9.47715 7 15 7Z" fill="#FF8800"/>
<path d="M16 11C16.9231 11 21 12 21 17C21 18.2259 20.7537 19.2108 20.3701 20H15V12C15 11.4477 15.4477 11 16 11Z" fill="#FF8800"/>
<path d="M17 3C17.5523 3 18 3.44772 18 4C18 4.55228 17.5523 5 17 5H13C12.4477 5 12 4.55228 12 4C12 3.44772 12.4477 3 13 3H17Z" fill="#FF8800"/>
</svg>
