<svg width="30" height="30" viewBox="0 0 30 30" fill="none" xmlns="http://www.w3.org/2000/svg">
<path fill-rule="evenodd" clip-rule="evenodd" d="M26 15C26 21.0751 21.0751 26 15 26C8.92487 26 4 21.0751 4 15C4 8.92487 8.92487 4 15 4C21.0751 4 26 8.92487 26 15ZM23.9451 16C23.4476 20.5 19.6326 24 15 24C10.3674 24 6.55237 20.5 6.05493 16H7C7.55228 16 8 15.5523 8 15C8 14.4477 7.55228 14 7 14H6.05493C6.24682 12.2641 6.93238 10.6771 7.9681 9.38231L8.29289 9.70711C8.68342 10.0976 9.31658 10.0976 9.70711 9.70711C10.0976 9.31658 10.0976 8.68342 9.70711 8.29289L9.38231 7.9681C10.6774 6.93208 12.265 6.24643 14.0015 6.05477C14.0299 6.58158 14.4661 7 15 7C15.5339 7 15.9701 6.58158 15.9985 6.05477C17.735 6.24643 19.3225 6.93208 20.6177 7.9681L20.2929 8.29289C19.9024 8.68342 19.9024 9.31658 20.2929 9.7071C20.6834 10.0976 21.3166 10.0976 21.7071 9.7071L22.0319 9.38231C23.0676 10.6771 23.7532 12.2641 23.9451 14H23C22.4477 14 22 14.4477 22 15C22 15.5523 22.4477 16 23 16H23.9451Z" fill="#FF8800"/>
<path opacity="0.2" d="M24 15C24 19.9706 19.9706 24 15 24C10.0294 24 6 19.9706 6 15C6 10.0294 10.0294 6 15 6C19.9706 6 24 10.0294 24 15Z" fill="#FF8800"/>
<path opacity="0.4" d="M19.2639 17.6127C19.1259 17.8373 19.156 18.1336 19.3562 18.3052L21.6475 20.2692C21.8625 20.4535 22.1886 20.4234 22.3521 20.1923C23.2086 18.9816 23.7737 17.5501 23.9451 15.9999H23C22.4477 15.9999 22 15.5522 22 14.9999C22 14.4476 22.4477 13.9999 23 13.9999H23.9451C23.7532 12.2641 23.0676 10.677 22.0319 9.38223L21.7071 9.70703C21.3166 10.0976 20.6834 10.0976 20.2929 9.70703C19.9024 9.3165 19.9024 8.68334 20.2929 8.29281L20.6177 7.96802C19.3226 6.93201 17.735 6.24635 15.9985 6.05469C15.9701 6.5815 15.5339 6.99992 15 6.99992C14.4661 6.99992 14.0299 6.5815 14.0015 6.05469C12.265 6.24635 10.6775 6.93201 9.38232 7.96802L9.70711 8.29281C10.0976 8.68334 10.0976 9.3165 9.70711 9.70703C9.31658 10.0976 8.68342 10.0976 8.2929 9.70703L7.9681 9.38224C6.93238 10.677 6.24682 12.2641 6.05493 13.9999H7C7.55229 13.9999 8 14.4476 8 14.9999C8 15.5522 7.55229 15.9999 7 15.9999H6.05493C6.2263 17.5501 6.79137 18.9816 7.64794 20.1923C7.81145 20.4234 8.13754 20.4535 8.35249 20.2692L10.6438 18.3052C10.844 18.1336 10.8741 17.8373 10.7361 17.6127C10.2692 16.8523 10 15.9576 10 14.9999C10 12.2385 12.2386 9.99992 15 9.99992C17.7614 9.99992 20 12.2385 20 14.9999C20 15.9576 19.7308 16.8523 19.2639 17.6127Z" fill="#FF8800"/>
<path d="M16 9C16 8.44772 15.5523 8 15 8C14.4477 8 14 8.44772 14 9V13.2675C13.4022 13.6133 13 14.2597 13 15C13 16.1045 13.8954 17 15 17C16.1046 17 17 16.1045 17 15C17 14.2597 16.5978 13.6133 16 13.2675V9Z" fill="#FF8800"/>
<path opacity="0.6" d="M12 21C12 20.4477 12.4477 20 13 20H17C17.5523 20 18 20.4477 18 21C18 21.5523 17.5523 22 17 22H13C12.4477 22 12 21.5523 12 21Z" fill="#FF8800"/>
</svg>
