<svg width="30" height="30" viewBox="0 0 30 30" fill="none" xmlns="http://www.w3.org/2000/svg">
<path d="M16 9.00001C16 9.55229 15.5523 10 15 10C14.4477 10 14 9.55229 14 9.00001C14 8.44772 14.4477 8.00001 15 8.00001C15.5523 8.00001 16 8.44772 16 9.00001Z" fill="#FF8800"/>
<path d="M21 16C20.4477 16 20 15.5523 20 15C20 14.4477 20.4477 14 21 14C21.5523 14 22 14.4477 22 15C22 15.5523 21.5523 16 21 16Z" fill="#FF8800"/>
<path d="M8 15C8 15.5523 8.44772 16 9 16C9.55228 16 10 15.5523 10 15C10 14.4477 9.55228 14 9 14C8.44772 14 8 14.4477 8 15Z" fill="#FF8800"/>
<path d="M12 11C12 11.5523 11.5523 12 11 12C10.4477 12 10 11.5523 10 11C10 10.4477 10.4477 10 11 10C11.5523 10 12 10.4477 12 11Z" fill="#FF8800"/>
<path d="M19 12C19.5523 12 20 11.5523 20 11C20 10.4477 19.5523 10 19 10C18.4477 10 18 10.4477 18 11C18 11.5523 18.4477 12 19 12Z" fill="#FF8800"/>
<path d="M20 19C20 19.5523 19.5523 20 19 20C18.4477 20 18 19.5523 18 19C18 18.4477 18.4477 18 19 18C19.5523 18 20 18.4477 20 19Z" fill="#FF8800"/>
<path fill-rule="evenodd" clip-rule="evenodd" d="M17.8025 5.39893C17.6604 5.35749 17.5173 5.31916 17.3735 5.284L17.3095 5.14801C16.9795 4.44724 16.2746 4 15.5 4H14.5C13.7254 4 13.0205 4.44724 12.6905 5.14801L12.6265 5.28398C12.4827 5.31915 12.3396 5.3575 12.1975 5.39895L12.074 5.3132C11.4379 4.8713 10.6038 4.83644 9.93297 5.22372L9.06695 5.72372C8.39616 6.111 8.0093 6.85078 8.07392 7.62264L8.08646 7.7724C7.9795 7.87476 7.87474 7.97953 7.77236 8.0865L7.62257 8.07396C6.8507 8.00933 6.11092 8.39619 5.72364 9.06699L5.22364 9.93301C4.83636 10.6038 4.87121 11.4379 5.31311 12.074L5.3989 12.1975C5.35743 12.3397 5.31909 12.4828 5.28392 12.6266L5.14801 12.6905C4.44724 13.0205 4 13.7254 4 14.5V15.5C4 16.2746 4.44724 16.9795 5.148 17.3094L5.28395 17.3735C5.31912 17.5173 5.35746 17.6604 5.39892 17.8025L5.31316 17.926C4.87126 18.5621 4.8364 19.3962 5.22368 20.067L5.72368 20.933C5.73675 20.9556 5.75022 20.978 5.76407 20.9999C5.28893 21.5307 5 22.2317 5 23.0001C5 24.657 6.34315 26.0001 8 26.0001H15L15.0284 26H15.5C16.2135 26 16.8678 25.6205 17.2245 25.013C17.3166 24.9113 17.4019 24.8032 17.4795 24.6895C17.5876 24.6618 17.6953 24.6323 17.8025 24.6011L17.9259 24.6868C18.5621 25.1287 19.3962 25.1636 20.0669 24.7763L20.933 24.2763C21.6038 23.889 21.9906 23.1492 21.926 22.3774L21.9135 22.2276C22.0204 22.1252 22.1252 22.0205 22.2275 21.9135L22.3773 21.926C23.1491 21.9907 23.8889 21.6038 24.2762 20.933L24.7762 20.067C25.1635 19.3962 25.1286 18.5621 24.6867 17.926L24.601 17.8026C24.6425 17.6605 24.6808 17.5173 24.716 17.3735L24.852 17.3094C25.5528 16.9795 26 16.2746 26 15.5V14.5C26 13.7254 25.5528 13.0205 24.852 12.6905L24.716 12.6265C24.6808 12.4827 24.6425 12.3396 24.601 12.1975L24.6868 12.074C25.1287 11.4379 25.1635 10.6038 24.7762 9.93301L24.2762 9.06699C23.889 8.3962 23.1492 8.00933 22.3773 8.07396L22.2275 8.08651C22.1251 7.97953 22.0204 7.87477 21.9134 7.7724L21.926 7.62265C21.9906 6.85079 21.6037 6.111 20.9329 5.72372L20.0669 5.22372C19.3961 4.83644 18.562 4.8713 17.9259 5.3132L17.8025 5.39893ZM19.0669 6.95577L18.1042 7.62455C17.4375 7.34361 16.7177 7.1507 15.9994 7.06059L15.5 6H14.5L14.0006 7.06057C13.2826 7.15064 12.5628 7.34349 11.8958 7.62458L10.933 6.95577L10.0669 7.45577L10.1648 8.62392C9.58809 9.06083 9.06113 9.58772 8.6239 10.1648L7.45569 10.067L6.95569 10.933L7.62454 11.8959C7.3432 12.5635 7.15047 13.2833 7.06049 14.0007L6 14.5V15.5L7.06053 15.9994C7.15056 16.7171 7.34336 17.4369 7.62455 18.1042L6.95573 19.067L7.45573 19.933L8.62387 19.8352C8.66588 19.8907 8.70872 19.9456 8.75236 20.0001H9.387L11.7228 13.7712C12.4016 11.9613 14.419 11.0443 16.2289 11.723C18.0389 12.4017 18.9559 14.4191 18.2772 16.2291L16.6722 20.509C17.3252 20.9482 17.796 21.6374 17.9477 22.4394C18.0002 22.4186 18.0523 22.3973 18.1042 22.3754L19.0669 23.0442L19.933 22.5442L19.8352 21.376C20.4122 20.9388 20.9391 20.4118 21.376 19.8352L22.5441 19.933L23.0441 19.067L22.3754 18.1043C22.6562 17.438 22.8492 16.7183 22.9393 15.9994L24 15.5V14.5L22.9394 14.0006C22.8493 13.2821 22.6563 12.5623 22.3754 11.8957L23.0442 10.933L22.5442 10.067L21.376 10.1648C20.9388 9.58774 20.4118 9.06083 19.8351 8.62392L19.9329 7.45577L19.0669 6.95577ZM15.5266 13.5954C16.3023 13.8863 16.6953 14.7509 16.4044 15.5266L13.9769 22H15C15.5523 22 16 22.4477 16 23C16 23.5523 15.5523 24 15 24H8C7.44772 24 7 23.5523 7 23C7 22.4477 7.44772 22 8 22H10.7729L13.5955 14.4732C13.8863 13.6976 14.751 13.3045 15.5266 13.5954Z" fill="#FF8800"/>
<path opacity="0.2" fill-rule="evenodd" clip-rule="evenodd" d="M18.1042 7.62455L19.0669 6.95577L19.9329 7.45577L19.8351 8.62392C20.4118 9.06083 20.9388 9.58774 21.376 10.1648L22.5442 10.067L23.0442 10.933L22.3754 11.8957C22.6563 12.5623 22.8493 13.2821 22.9394 14.0006L24 14.5V15.5L22.9393 15.9994C22.8492 16.7183 22.6562 17.438 22.3754 18.1043L23.0441 19.067L22.5441 19.933L21.376 19.8352C20.9391 20.4118 20.4122 20.9388 19.8352 21.376L19.933 22.5442L19.0669 23.0442L18.1042 22.3754C18.0523 22.3973 18.0002 22.4186 17.9477 22.4394C17.796 21.6374 17.3252 20.9482 16.6722 20.509L18.2772 16.2291C18.9559 14.4191 18.0389 12.4017 16.2289 11.723C14.419 11.0443 12.4016 11.9613 11.7228 13.7712L9.387 20.0001H8.75236C8.70872 19.9456 8.66588 19.8907 8.62387 19.8352L7.45573 19.933L6.95573 19.067L7.62455 18.1042C7.34336 17.4369 7.15056 16.7171 7.06053 15.9994L6 15.5V14.5L7.06049 14.0007C7.15047 13.2833 7.3432 12.5635 7.62454 11.8959L6.95569 10.933L7.45569 10.067L8.6239 10.1648C9.06113 9.58772 9.58809 9.06083 10.1648 8.62392L10.0669 7.45577L10.933 6.95577L11.8958 7.62458C12.5628 7.34349 13.2826 7.15064 14.0006 7.06057L14.5 6H15.5L15.9994 7.06059C16.7177 7.1507 17.4375 7.34361 18.1042 7.62455ZM15 10C15.5523 10 16 9.55229 16 9.00001C16 8.44772 15.5523 8.00001 15 8.00001C14.4477 8.00001 14 8.44772 14 9.00001C14 9.55229 14.4477 10 15 10ZM20 15C20 15.5523 20.4477 16 21 16C21.5523 16 22 15.5523 22 15C22 14.4477 21.5523 14 21 14C20.4477 14 20 14.4477 20 15ZM9 16C8.44772 16 8 15.5523 8 15C8 14.4477 8.44772 14 9 14C9.55228 14 10 14.4477 10 15C10 15.5523 9.55228 16 9 16ZM11 12C11.5523 12 12 11.5523 12 11C12 10.4477 11.5523 10 11 10C10.4477 10 10 10.4477 10 11C10 11.5523 10.4477 12 11 12ZM20 11C20 11.5523 19.5523 12 19 12C18.4477 12 18 11.5523 18 11C18 10.4477 18.4477 10 19 10C19.5523 10 20 10.4477 20 11ZM19 20C19.5523 20 20 19.5523 20 19C20 18.4477 19.5523 18 19 18C18.4477 18 18 18.4477 18 19C18 19.5523 18.4477 20 19 20Z" fill="#FF8800"/>
<path opacity="0.2" d="M7 23C7 22.4477 7.44772 22 8 22H15C15.5523 22 16 22.4477 16 23C16 23.5523 15.5523 24 15 24H8C7.44772 24 7 23.5523 7 23Z" fill="#FF8800"/>
</svg>
