<svg width="30" height="30" viewBox="0 0 30 30" fill="none" xmlns="http://www.w3.org/2000/svg">
<path d="M25 15.5C25 15.2239 24.7761 15 24.5 15L5.5 15C5.22386 15 5 15.2239 5 15.5L5 19.5C5 19.7761 5.22386 20 5.5 20L24.5 20C24.7761 20 25 19.7761 25 19.5V15.5Z" fill="#FF8800"/>
<path fill-rule="evenodd" clip-rule="evenodd" d="M28 10C28 8.34315 26.6569 7 25 7H5C3.34315 7 2 8.34315 2 10L2 20C2 21.6569 3.34315 23 5 23L25 23C26.6569 23 28 21.6569 28 20V10ZM26 20L25.9951 20.1025C25.9438 20.6067 25.5177 21 25 21L5 21C4.48232 21 4.05621 20.6067 4.00488 20.1025L4 20L4 10C4 9.44772 4.44772 9 5 9L25 9C25.5523 9 26 9.44771 26 10V20Z" fill="#FF8800"/>
</svg>
