<svg width="30" height="30" viewBox="0 0 30 30" fill="none" xmlns="http://www.w3.org/2000/svg">
<path d="M15 15C16.6569 15 18 13.6569 18 12C18 10.3431 16.6569 9 15 9C13.3431 9 12 10.3431 12 12C12 13.6569 13.3431 15 15 15Z" fill="#FF8800"/>
<path fill-rule="evenodd" clip-rule="evenodd" d="M24 12C24 20 15 27 15 27C15 27 6 20 6 12C6 7.02944 10.0294 3 15 3C19.9706 3 24 7.02944 24 12ZM15 24.3576L14.9526 24.3137C14.1579 23.5779 13.1005 22.52 12.0479 21.2335C9.8873 18.5928 8 15.2963 8 12C8 8.13401 11.134 5 15 5C18.866 5 22 8.13401 22 12C22 15.2963 20.1127 18.5928 17.9521 21.2335C16.8995 22.52 15.8421 23.5779 15.0474 24.3137L15 24.3576Z" fill="#FF8800"/>
</svg>
