<svg width="30" height="30" viewBox="0 0 30 30" fill="none" xmlns="http://www.w3.org/2000/svg">
<path d="M12 12C12 11.4477 12.4477 11 13 11C13.5523 11 14 11.4477 14 12V22C14 22.5523 13.5523 23 13 23C12.4477 23 12 22.5523 12 22V12Z" fill="#FF8800"/>
<path d="M17 11C16.4477 11 16 11.4477 16 12V22C16 22.5523 16.4477 23 17 23C17.5523 23 18 22.5523 18 22V12C18 11.4477 17.5523 11 17 11Z" fill="#FF8800"/>
<path fill-rule="evenodd" clip-rule="evenodd" d="M10 7V6C10 4.34315 11.3431 3 13 3H17C18.6569 3 20 4.34315 20 6V7H24C24.5523 7 25 7.44772 25 8C25 8.55228 24.5523 9 24 9H23V24C23 25.6569 21.6569 27 20 27H10C8.34315 27 7 25.6569 7 24V9H6C5.44772 9 5 8.55228 5 8C5 7.44772 5.44772 7 6 7H10ZM13 5H17C17.5523 5 18 5.44772 18 6V7H12V6C12 5.44772 12.4477 5 13 5ZM9 9V24C9 24.5523 9.44772 25 10 25H20C20.5523 25 21 24.5523 21 24V9H9Z" fill="#FF8800"/>
</svg>
