<svg width="30" height="30" viewBox="0 0 30 30" fill="none" xmlns="http://www.w3.org/2000/svg">
<path d="M4 20C4 20 4 20 4 20C4 22.7614 6.23858 25.0001 9 25.0001C10.3894 25.0001 11.6464 24.4334 12.5526 23.5185C13.5045 25.574 15.5857 26.9999 18 26.9999C21.3137 26.9999 24 24.3137 24 20.9999V20H4Z" fill="white" fill-opacity="0.3"/>
<path fill-rule="evenodd" clip-rule="evenodd" d="M9 24.0001C10.3894 24.0001 11.6464 23.4333 12.5526 22.5185C13.5045 24.574 15.5857 25.9999 18 25.9999C21.3137 25.9999 24 23.3136 24 19.9999V17.8818C25.5211 17.4251 26.3354 15.7453 25.8666 14.2608C25.0769 12.4087 24.3152 10.5372 23.5372 8.68556C23.1081 7.66436 22.1085 7.00006 21.0008 7.00006C19.9231 7.00006 18.948 7.62882 18.5008 8.60276L18 9.99994C18 6.68623 15.3137 3.99994 12 3.99994C8.68629 3.99994 6 6.68623 6 9.99994V15.0003C4.78662 15.9115 4 17.3625 4 19.0001C4 21.7615 6.23858 24.0001 9 24.0001Z" fill="#59361B"/>
<path d="M8 17H10V9.99994C10 8.89537 10.8954 7.99994 12 7.99994V5.99994C9.79086 5.99994 8 7.7908 8 9.99994V17Z" fill="url(#paint0_linear_1903_16649)"/>
<path d="M20 14V19.9999C20 21.1045 19.1046 21.9999 18 21.9999V23.9999C20.2091 23.9999 22 22.2091 22 19.9999V14.0001L20 14Z" fill="url(#paint1_linear_1903_16649)"/>
<path fill-rule="evenodd" clip-rule="evenodd" d="M18 21.9999C16.8954 21.9999 16 21.1045 16 19.9999V9.99994C16 7.7908 14.2091 5.99994 12 5.99994V7.99994C13.1046 7.99994 14 8.89537 14 9.99994V19.9999C14 22.2091 15.7909 23.9999 18 23.9999V21.9999ZM12 19.0001C12 17.3432 10.6569 16.0001 9 16.0001C7.34315 16.0001 6 17.3432 6 19.0001C6 20.6569 7.34315 22.0001 9 22.0001C10.6569 22.0001 12 20.6569 12 19.0001ZM10 19.0001C10 18.4478 9.55228 18.0001 9 18.0001C8.44772 18.0001 8 18.4478 8 19.0001C8 19.5523 8.44772 20.0001 9 20.0001C9.55228 20.0001 10 19.5523 10 19.0001ZM19.1708 15.9147L21 15.0001L22.8292 15.9147C22.9415 15.9708 23.0654 16.0001 23.191 16.0001C23.6378 16.0001 24 15.6379 24 15.1911V15.1262C24 15.01 23.9768 14.8949 23.9318 14.7878L21.6934 9.46028C21.5762 9.18144 21.3033 9.00006 21.0008 9.00006C20.6975 9.00006 20.424 9.18241 20.3074 9.46234L18.0641 14.8462C18.0218 14.9478 18 15.0567 18 15.1667V15.1911C18 15.6379 18.3622 16.0001 18.809 16.0001C18.9346 16.0001 19.0585 15.9709 19.1708 15.9147Z" fill="#FFC107"/>
<defs>
<linearGradient id="paint0_linear_1903_16649" x1="10.5" y1="17" x2="10.5" y2="6.99994" gradientUnits="userSpaceOnUse">
<stop stop-color="#FFC107" stop-opacity="0.5"/>
<stop offset="1" stop-color="#FFC107"/>
</linearGradient>
<linearGradient id="paint1_linear_1903_16649" x1="21" y1="21" x2="21" y2="14" gradientUnits="userSpaceOnUse">
<stop stop-color="#FFBE07"/>
<stop offset="1" stop-color="#FFC107" stop-opacity="0"/>
</linearGradient>
</defs>
</svg>
