<svg width="30" height="30" viewBox="0 0 30 30" fill="none" xmlns="http://www.w3.org/2000/svg">
<path fill-rule="evenodd" clip-rule="evenodd" d="M9 24.0001C10.3894 24.0001 11.6464 23.4333 12.5526 22.5185C13.5045 24.574 15.5857 25.9999 18 25.9999C21.3137 25.9999 24 23.3136 24 19.9999V17.8818C25.5211 17.4251 26.3354 15.7453 25.8666 14.2608C25.0769 12.4087 24.3152 10.5372 23.5372 8.68556C23.1081 7.66436 22.1085 7.00006 21.0008 7.00006C19.9231 7.00006 18.948 7.62882 18.5008 8.60276L18 9.99994C18 6.68623 15.3137 3.99994 12 3.99994C8.68629 3.99994 6 6.68623 6 9.99994V15.0003C4.78662 15.9115 4 17.3625 4 19.0001C4 21.7615 6.23858 24.0001 9 24.0001Z" fill="#373737"/>
<path d="M12 6.99994C13.6569 6.99994 15 8.34308 15 9.99994V19.9999C15 21.6568 16.3431 22.9999 18 22.9999" stroke="#E71D36" stroke-width="2" stroke-linecap="round"/>
<path d="M9 17V9.99994C9 8.34308 10.3431 6.99994 12 6.99994" stroke="#E71D36" stroke-width="2" stroke-linecap="round"/>
<path d="M18 22.9999C19.6569 22.9999 21 21.6568 21 19.9999V14.0001" stroke="#E71D36" stroke-width="2" stroke-linecap="round"/>
<path d="M21 15.0001L19.1708 15.9147C19.0585 15.9709 18.9346 16.0001 18.809 16.0001C18.3622 16.0001 18 15.6379 18 15.1911V15.1667C18 15.0567 18.0218 14.9478 18.0641 14.8462L20.3074 9.46234C20.424 9.18241 20.6975 9.00006 21.0008 9.00006C21.3033 9.00006 21.5762 9.18144 21.6934 9.46028L23.9318 14.7878C23.9768 14.8949 24 15.01 24 15.1262V15.1911C24 15.6379 23.6378 16.0001 23.191 16.0001C23.0654 16.0001 22.9415 15.9708 22.8292 15.9147L21 15.0001Z" fill="#FFC107"/>
<path fill-rule="evenodd" clip-rule="evenodd" d="M9 16.0001C10.6569 16.0001 12 17.3432 12 19.0001C12 20.6569 10.6569 22.0001 9 22.0001C7.34315 22.0001 6 20.6569 6 19.0001C6 17.3432 7.34315 16.0001 9 16.0001Z" fill="white"/>
<path fill-rule="evenodd" clip-rule="evenodd" d="M9 18.0001C9.55228 18.0001 10 18.4478 10 19.0001C10 19.5523 9.55228 20.0001 9 20.0001C8.44772 20.0001 8 19.5523 8 19.0001C8 18.4478 8.44772 18.0001 9 18.0001Z" fill="#38C325"/>
</svg>
