<svg width="30" height="30" viewBox="0 0 30 30" fill="none" xmlns="http://www.w3.org/2000/svg">
<path opacity="0.2" d="M20 10H27V20H20V27H10V20H3V10H10V3H20V10Z" fill="#FF8800"/>
<path d="M15 24C15.2761 24 15.5 24.2239 15.5 24.5V26.5C15.5 26.7761 15.2761 27 15 27C14.7239 27 14.5 26.7761 14.5 26.5V24.5C14.5 24.2239 14.7239 24 15 24Z" fill="#FF8800"/>
<path d="M15 19C15.2761 19 15.5 19.2239 15.5 19.5V21.5C15.5 21.7761 15.2761 22 15 22C14.7239 22 14.5 21.7761 14.5 21.5V19.5C14.5 19.2239 14.7239 19 15 19Z" fill="#FF8800"/>
<path d="M5.5 14.5C5.77614 14.5 6 14.7239 6 15C6 15.2761 5.77614 15.5 5.5 15.5H3.5C3.22386 15.5 3 15.2761 3 15C3 14.7239 3.22386 14.5 3.5 14.5H5.5Z" fill="#FF8800"/>
<path d="M10.5 14.5C10.7761 14.5 11 14.7239 11 15C11 15.2761 10.7761 15.5 10.5 15.5H8.5C8.22386 15.5 8 15.2761 8 15C8 14.7239 8.22386 14.5 8.5 14.5H10.5Z" fill="#FF8800"/>
<path d="M21.5 14.5C21.7761 14.5 22 14.7239 22 15C22 15.2761 21.7761 15.5 21.5 15.5H19.5C19.2239 15.5 19 15.2761 19 15C19 14.7239 19.2239 14.5 19.5 14.5H21.5Z" fill="#FF8800"/>
<path d="M26.5 14.5C26.7761 14.5 27 14.7239 27 15C27 15.2761 26.7761 15.5 26.5 15.5H24.5C24.2239 15.5 24 15.2761 24 15C24 14.7239 24.2239 14.5 24.5 14.5H26.5Z" fill="#FF8800"/>
<path d="M15 8C15.2761 8 15.5 8.22386 15.5 8.5V10.5C15.5 10.7761 15.2761 11 15 11C14.7239 11 14.5 10.7761 14.5 10.5V8.5C14.5 8.22386 14.7239 8 15 8Z" fill="#FF8800"/>
<path d="M15 3C15.2761 3 15.5 3.22386 15.5 3.5V5.5C15.5 5.77614 15.2761 6 15 6C14.7239 6 14.5 5.77614 14.5 5.5V3.5C14.5 3.22386 14.7239 3 15 3Z" fill="#FF8800"/>
<path d="M9 18C10.6569 18 12 19.3431 12 21V26C12 26.5523 11.5523 27 11 27C10.4477 27 10 26.5523 10 26V21C10 20.4477 9.55228 20 9 20H4C3.44772 20 3 19.5523 3 19C3 18.4477 3.44772 18 4 18H9Z" fill="#FF8800"/>
<path d="M26 18C26.5523 18 27 18.4477 27 19C27 19.5523 26.5523 20 26 20H21C20.4477 20 20 20.4477 20 21V26C20 26.5523 19.5523 27 19 27C18.4477 27 18 26.5523 18 26V21C18 19.3431 19.3431 18 21 18H26Z" fill="#FF8800"/>
<path d="M11 3C11.5523 3 12 3.44772 12 4V9C12 10.6569 10.6569 12 9 12H4C3.44772 12 3 11.5523 3 11C3 10.4477 3.44772 10 4 10H9C9.55228 10 10 9.55228 10 9V4C10 3.44772 10.4477 3 11 3Z" fill="#FF8800"/>
<path d="M19 3C19.5523 3 20 3.44772 20 4V9C20 9.55228 20.4477 10 21 10H26C26.5523 10 27 10.4477 27 11C27 11.5523 26.5523 12 26 12H21C19.3431 12 18 10.6569 18 9V4C18 3.44772 18.4477 3 19 3Z" fill="#FF8800"/>
</svg>
