<svg width="63" height="30" viewBox="0 0 63 30" fill="none" xmlns="http://www.w3.org/2000/svg">
<g clip-path="url(#clip0_1713_6192)">
<path fill-rule="evenodd" clip-rule="evenodd" d="M57 3H6C4.34315 3 3 4.34315 3 6V24C3 25.6569 4.34315 27 6 27H57C58.6569 27 60 25.6569 60 24V6C60 4.34315 58.6569 3 57 3ZM6 0C2.68629 0 0 2.68629 0 6V24C0 27.3137 2.68629 30 6 30H57C60.3137 30 63 27.3137 63 24V6C63 2.68629 60.3137 0 57 0H6Z" fill="black"/>
<path fill-rule="evenodd" clip-rule="evenodd" d="M7.5 6H14.3923C16.3956 6 18.2953 6.8898 19.5778 8.42876C21.6638 10.932 21.6638 14.568 19.5778 17.0712C18.2953 18.6102 16.3956 19.5 14.3923 19.5H12V24H7.5V6ZM12 15H14.3923C15.0601 15 15.6933 14.7034 16.1208 14.1904C16.8161 13.356 16.8161 12.144 16.1208 11.3096C15.6933 10.7966 15.0601 10.5 14.3923 10.5H12V15Z" fill="black"/>
<path fill-rule="evenodd" clip-rule="evenodd" d="M24 6V24H28.5V19.5H30.8923C30.9073 19.5 30.9224 19.4999 30.9374 19.4998L33.75 24H38.25L34.7016 18.3225C35.2107 17.9745 35.6747 17.5549 36.0778 17.0712C38.1638 14.568 38.1638 10.932 36.0778 8.42876C34.7953 6.8898 32.8956 6 30.8923 6H24ZM30.8923 15H28.5V10.5H30.8923C31.5601 10.5 32.1933 10.7966 32.6208 11.3096C33.3161 12.144 33.3161 13.356 32.6208 14.1904C32.1933 14.7034 31.5601 15 30.8923 15Z" fill="black"/>
<path fill-rule="evenodd" clip-rule="evenodd" d="M40.5 14.25C40.5 9.69365 44.1937 6 48.75 6C53.3063 6 57 9.69365 57 14.25V15.75C57 20.3063 53.3063 24 48.75 24C44.1937 24 40.5 20.3063 40.5 15.75V14.25ZM48.75 10.5C46.6789 10.5 45 12.1789 45 14.25V15.75C45 17.8211 46.6789 19.5 48.75 19.5C50.8211 19.5 52.5 17.8211 52.5 15.75V14.25C52.5 12.1789 50.8211 10.5 48.75 10.5Z" fill="black"/>
</g>
<defs>
<clipPath id="clip0_1713_6192">
<rect width="63" height="30" rx="4" fill="white"/>
</clipPath>
</defs>
</svg>
