<svg width="30" height="30" viewBox="0 0 30 30" fill="none" xmlns="http://www.w3.org/2000/svg">
<path opacity="0.2" d="M14 8C14 7.44772 13.5523 7 13 7H7C6.44772 7 6 7.44772 6 8V12H14V8Z" fill="#FF8800"/>
<path fill-rule="evenodd" clip-rule="evenodd" d="M16 8C16 6.34315 14.6569 5 13 5H7C5.34314 5 4 6.34315 4 8V22C4 23.6569 5.34315 25 7 25H12V23H7C6.44772 23 6 22.5523 6 22V13H13C14.3062 13 15.4175 12.1652 15.8293 11H23C23.5523 11 24 11.4477 24 12V13H26V12C26 10.3431 24.6569 9 23 9H16V8ZM13 11H6V8C6 7.44772 6.44772 7 7 7H13C13.5523 7 14 7.44772 14 8V10C14 10.5523 13.5523 11 13 11Z" fill="#FF8800"/>
<path d="M21.7071 19.7071C22.0976 19.3166 22.0976 18.6834 21.7071 18.2929L18.7071 15.2929C18.3166 14.9024 17.6834 14.9024 17.2929 15.2929L14.2929 18.2929C13.9024 18.6834 13.9024 19.3166 14.2929 19.7071C14.6834 20.0976 15.3166 20.0976 15.7071 19.7071L17 18.4142L17 25C17 25.5523 17.4477 26 18 26C18.5523 26 19 25.5523 19 25L19 18.4142L20.2929 19.7071C20.6834 20.0976 21.3166 20.0976 21.7071 19.7071Z" fill="#FF8800"/>
<path d="M27.2929 21.2929C27.6834 20.9024 28.3166 20.9024 28.7071 21.2929C29.0976 21.6834 29.0976 22.3166 28.7071 22.7071L25.7071 25.7071C25.3166 26.0976 24.6834 26.0976 24.2929 25.7071L21.2929 22.7071C20.9024 22.3166 20.9024 21.6834 21.2929 21.2929C21.6834 20.9024 22.3166 20.9024 22.7071 21.2929L24 22.5858V16C24 15.4477 24.4477 15 25 15C25.5523 15 26 15.4477 26 16V22.5858L27.2929 21.2929Z" fill="#FF8800"/>
</svg>
