<svg width="30" height="30" viewBox="0 0 30 30" fill="none" xmlns="http://www.w3.org/2000/svg">
<path fill-rule="evenodd" clip-rule="evenodd" d="M17.1159 12.6799L19.6159 9.67993L20.3841 10.3201L19.6441 11.2081L27 17L27 19H24.95C24.7184 20.1411 23.7095 21 22.5 21C21.2905 21 20.2816 20.1411 20.05 19H8.94999C8.71835 20.1411 7.70948 21 6.5 21C5.29052 21 4.28165 20.1411 4.05001 19H4C3.44772 19 3 18.5523 3 18V14H7V11H9L11 16.0343H21V14.5L18.5808 12.484L17.8841 13.3201L17.1159 12.6799ZM8.00008 18.5C8.00008 19.3284 7.32851 20 6.50008 20C5.67166 20 5.00008 19.3284 5.00008 18.5C5.00008 17.6716 5.67166 17 6.50008 17C7.32851 17 8.00008 17.6716 8.00008 18.5ZM24.0001 18.5C24.0001 19.3284 23.3285 20 22.5001 20C21.6717 20 21.0001 19.3284 21.0001 18.5C21.0001 17.6716 21.6717 17 22.5001 17C23.3285 17 24.0001 17.6716 24.0001 18.5Z" fill="#FF8800"/>
</svg>
