<svg width="30" height="30" viewBox="0 0 30 30" fill="none" xmlns="http://www.w3.org/2000/svg">
<path fill-rule="evenodd" clip-rule="evenodd" d="M25.293 3.29297C25.6835 2.90244 26.3165 2.90244 26.707 3.29297C27.0976 3.68349 27.0976 4.31651 26.707 4.70703L4.70703 26.707C4.31651 27.0976 3.68349 27.0976 3.29297 26.707C2.90244 26.3165 2.90244 25.6835 3.29297 25.293L5.83789 22.7471C4.06838 20.6565 3 17.9534 3 15C3 8.37258 8.37258 3 15 3C17.9534 3 20.6565 4.06838 22.7471 5.83789L25.293 3.29297ZM15.3711 5C15.1662 5.00022 15.0002 5.16625 15 5.37109V7C10.5818 7 7.0002 10.5819 7 15C7.00006 16.2971 7.3104 17.522 7.8584 18.6055L9.37402 17.0898C9.13231 16.4393 9.00005 15.7347 9 15C9.0002 11.6865 11.6864 9 15 9V10.6279C15 10.833 15.1661 10.9998 15.3711 11C15.4543 11 15.5352 10.9713 15.6006 10.9199L18.8037 8.4043C18.9276 8.30685 18.9999 8.15759 19 8C18.9999 7.8423 18.9277 7.69216 18.8037 7.59473L15.6006 5.0791C15.5352 5.02788 15.4542 5 15.3711 5Z" fill="#FF8800"/>
<path d="M25.5498 9.27734C26.4745 10.9783 27 12.9278 27 15C27 21.6274 21.6274 27 15 27C12.9278 27 10.9783 26.4745 9.27734 25.5498L11.8838 22.9434L14.3994 24.9199C14.4648 24.9713 14.5457 25 14.6289 25C14.8339 24.9998 15 24.833 15 24.6279V23C19.4182 23 22.9998 19.4181 23 15C23 14.0517 22.8318 13.1428 22.5283 12.2988L25.5498 9.27734Z" fill="#FF8800"/>
<path d="M20.9033 13.9238C20.9667 14.273 21 14.6327 21 15C20.9998 18.3135 18.3136 21 15 21V19.8281L20.9033 13.9238Z" fill="#FF8800"/>
</svg>
