<svg width="30" height="30" viewBox="0 0 30 30" fill="none" xmlns="http://www.w3.org/2000/svg">
<path opacity="0.5" d="M13 6C14.1046 6 15 6.89543 15 8V9C15 10.1046 14.1046 11 13 11H5V8C5 6.89543 5.89543 6 7 6H13Z" fill="#FF8800"/>
<path fill-rule="evenodd" clip-rule="evenodd" d="M21 15C24.3136 15 26.9998 17.3332 27 20.333C27 22.9997 24.6667 23.667 23 23.667C21.5312 23.9118 21.8603 24.696 22.1387 25.3594C22.2393 25.5991 22.333 25.823 22.333 26C22.333 26.3333 21.8272 27 21 27C17.6863 27 15 24.3137 15 21C15 17.6863 17.6863 15 21 15ZM18 20.333C17.4478 20.333 17.0002 20.7809 17 21.333C17 21.8853 17.4477 22.333 18 22.333C18.5523 22.333 19 21.8853 19 21.333C18.9998 20.7809 18.5522 20.333 18 20.333ZM24 19.667C23.4477 19.667 23 20.1147 23 20.667C23.0001 21.2192 23.4478 21.667 24 21.667C24.5522 21.6669 24.9999 21.2191 25 20.667C25 20.1147 24.5522 19.6671 24 19.667ZM19.333 17C18.7808 17.0001 18.333 17.4478 18.333 18C18.333 18.5522 18.7808 18.9999 19.333 19C19.8853 19 20.333 18.5523 20.333 18C20.333 17.4477 19.8853 17 19.333 17ZM22.667 17C22.1147 17 21.667 17.4477 21.667 18C21.667 18.5523 22.1147 19 22.667 19C23.2191 18.9998 23.667 18.5521 23.667 18C23.667 17.4479 23.2191 17.0002 22.667 17Z" fill="#FF8800"/>
<path d="M23 9C24.1046 9 25 9.89543 25 11V13.9746C23.7983 13.3467 22.4195 13 21 13C16.5817 13 13 16.5817 13 21C13 22.0612 13.2088 23.0733 13.584 24H7C5.89543 24 5 23.1046 5 22V11H13C14.1046 11 15 10.1046 15 9H23Z" fill="#FF8800"/>
</svg>
