<svg width="30" height="30" viewBox="0 0 30 30" fill="none" xmlns="http://www.w3.org/2000/svg">
<path fill-rule="evenodd" clip-rule="evenodd" d="M25.9448 14.0261L25.7343 13.6797C25.5759 13.4334 25.4045 13.1964 25.2209 12.9696L24.9233 12.3746L24.2513 8.3424C23.9299 6.41365 22.2611 5 20.3057 5H9.69425C7.7389 5 6.07014 6.41365 5.74868 8.3424L5.29172 11.0841C3.97668 11.4024 3 12.5872 3 14.0001C3 14.8886 3.38625 15.6868 4 16.2362L4 21.5C4 23.433 5.567 25 7.5 25C8.89617 25 10.1014 24.1825 10.6632 23.0001H12.7547C14.2208 24.8289 16.4736 26 19 26C23.4183 26 27 22.4183 27 18C27 16.5536 26.6161 15.1968 25.9448 14.0261Z" fill="#47566B"/>
<path d="M11.5815 21.0001C11.2065 20.0736 11 19.0609 11 18C11 16.1081 11.6567 14.3696 12.7546 13H9.02759L9.69425 9H20.3057L20.4957 10.1396C21.256 10.2834 21.9784 10.5348 22.6462 10.8774L22.2785 8.6712C22.1178 7.70683 21.2834 7 20.3057 7H9.69425C8.71658 7 7.8822 7.70683 7.72147 8.6712L7 13L6 13.0001C5.44772 13.0001 5 13.4478 5 14.0001C5 14.5523 5.44772 15.0001 6 15.0001L6 21.5C6 22.3284 6.67157 23 7.5 23C8.32843 23 9 22.3284 9 21.5V21.0001H11.5815Z" fill="#237BFF"/>
<path d="M12.7546 13C14.2208 11.1711 16.4736 10 19 10C19.5112 10 20.0111 10.0479 20.4957 10.1396L20.3057 9H9.69425L9.02759 13H12.7546Z" fill="#D1E6FF"/>
<rect x="8" y="15.0001" width="3" height="3" rx="1.5" fill="#FFBF00"/>
<circle cx="19" cy="18" r="6" fill="#FFC107"/>
<path fill-rule="evenodd" clip-rule="evenodd" d="M19 14C19.5523 14 20 14.4477 20 15V18L21.6 19.2C22.0418 19.5314 22.1314 20.1582 21.8 20.6C21.4686 21.0418 20.8418 21.1314 20.4 20.8L18.4 19.3C18.1482 19.1111 18 18.8148 18 18.5V15C18 14.4477 18.4477 14 19 14Z" fill="#6B5000"/>
</svg>
