<svg width="30" height="30" viewBox="0 0 30 30" fill="none" xmlns="http://www.w3.org/2000/svg">
<path d="M16.0293 23.0001H10.6632C10.1014 24.1825 8.89617 25 7.5 25C5.567 25 4 23.433 4 21.5L4 16.2362C3.38625 15.6868 3 14.8886 3 14.0001C3 12.5872 3.97668 11.4024 5.29172 11.0841L5.74868 8.3424C6.07014 6.41365 7.7389 5 9.69425 5H20.3057C22.2611 5 23.9299 6.41365 24.2513 8.3424L24.3646 9.02193C25.8495 9.20182 27 10.4666 27 12V23C27 24.6569 25.6569 26 24 26C23.9446 26 23.8892 25.9977 23.8339 25.9931L18.7509 25.5695C17.338 25.4518 16.2214 24.3677 16.0293 23.0001Z" fill="#2D3C53"/>
<path d="M15.4999 21.0001C15.186 20.5822 15 20.0628 15 19.5V15.5C15 14.6821 15.3928 13.9559 16 13.4998V13H9.02759L9.69425 9H20.3057L20.3552 9.2968L22.355 9.13015L22.2785 8.6712C22.1178 7.70683 21.2834 7 20.3057 7H9.69425C8.71658 7 7.8822 7.70683 7.72147 8.6712L7 13L6 13.0001C5.44772 13.0001 5 13.4478 5 14.0001C5 14.5523 5.44772 15.0001 6 15.0001L6 21.5C6 22.3284 6.67157 23 7.5 23C8.32843 23 9 22.3284 9 21.5V21.0001H15.4999Z" fill="#237BFF"/>
<path d="M16 13V12.4201C16 10.8599 17.196 9.56007 18.7509 9.4305L20.3552 9.2968L20.3057 9H9.69425L9.02759 13H16Z" fill="#D1E6FF"/>
<path d="M8 16.5001C8 15.6716 8.67157 15.0001 9.5 15.0001C10.3284 15.0001 11 15.6716 11 16.5001C11 17.3285 10.3284 18.0001 9.5 18.0001C8.67157 18.0001 8 17.3285 8 16.5001Z" fill="#FFBF00"/>
<path d="M25 23V12C25 11.4477 24.5523 11 24 11L18.917 11.4236C18.3987 11.4668 18 11.9 18 12.4201L18 15H17.5C17.2239 15 17 15.2239 17 15.5L17 19.5C17 19.7761 17.2239 20 17.5 20L18 20L18 22.5799C18 23.1 18.3987 23.5332 18.917 23.5764L24 24C24.5523 24 25 23.5523 25 23Z" fill="#FFC107"/>
<path d="M24 13V14H23V13L24 13Z" fill="#6B5000"/>
<path d="M24 15V16H23V15H24Z" fill="#6B5000"/>
<path d="M24 18V17H23V18H24Z" fill="#6B5000"/>
<path d="M24 19V20H23V19H24Z" fill="#6B5000"/>
<path d="M24 22V21H23V22H24Z" fill="#6B5000"/>
<path d="M20 13V14L19 14L19 13L20 13Z" fill="#6B5000"/>
<path d="M20 15V16H19L19 15H20Z" fill="#6B5000"/>
<path d="M20 18L20 17H19L19 18H20Z" fill="#6B5000"/>
<path d="M20 19V20H19L19 19H20Z" fill="#6B5000"/>
<path d="M20 22V21H19L19 22H20Z" fill="#6B5000"/>
<path d="M22 22V13L21 13V22H22Z" fill="#6B5000"/>
</svg>
