<svg width="30" height="30" viewBox="0 0 30 30" fill="none" xmlns="http://www.w3.org/2000/svg">
<path fill-rule="evenodd" clip-rule="evenodd" d="M10 2C8.34315 2 7 3.34315 7 5V25C7 26.6569 8.34315 28 10 28H20C21.6569 28 23 26.6569 23 25V5C23 3.34315 21.6569 2 20 2H10ZM10 4C9.44772 4 9 4.44772 9 5V25C9 25.5523 9.44772 26 10 26H20C20.5523 26 21 25.5523 21 25V5C21 4.44772 20.5523 4 20 4H10Z" fill="#FF8800"/>
<path opacity="0.2" d="M9 5C9 4.44772 9.44772 4 10 4H20C20.5523 4 21 4.44772 21 5V25C21 25.5523 20.5523 26 20 26H10C9.44772 26 9 25.5523 9 25V5Z" fill="#FF8800"/>
<path d="M15 18L13.1708 18.9146C13.0585 18.9708 12.9346 19 12.809 19C12.3622 19 12 18.6378 12 18.191V18.1476C12 18.0499 12.0168 17.953 12.0497 17.861L14.3318 11.4709C14.4327 11.1885 14.7002 11 15 11C15.2998 11 15.5673 11.1885 15.6682 11.4709L17.9503 17.861C17.9832 17.953 18 18.0499 18 18.1476V18.191C18 18.6378 17.6378 19 17.191 19C17.0654 19 16.9415 18.9708 16.8292 18.9146L15 18Z" fill="#FF8800"/>
</svg>
