<svg width="30" height="30" viewBox="0 0 30 30" fill="none" xmlns="http://www.w3.org/2000/svg">
<path d="M15.3584 13.2959C15.744 13.1182 16.1997 13.1997 16.5 13.5C16.8003 13.8003 16.8818 14.256 16.7041 14.6416L11.2031 26.5596C11.0789 26.8282 10.8097 27 10.5137 27C10.2034 26.9998 9.92391 26.8115 9.80859 26.5234L8 22L3.47754 20.1904C3.18942 20.0752 3.00012 19.7966 3 19.4863C3 19.1902 3.17256 18.921 3.44141 18.7969L15.3584 13.2959Z" fill="#FF8800"/>
<path d="M22 3C24.7614 3 27 5.23858 27 8C27 10.7614 24.7614 13 22 13C19.2386 13 17 10.7614 17 8C17 5.23858 19.2386 3 22 3Z" fill="#FF8800"/>
</svg>
