<svg width="30" height="30" viewBox="0 0 30 30" fill="none" xmlns="http://www.w3.org/2000/svg">
<path fill-rule="evenodd" clip-rule="evenodd" d="M5.45476 10.5892C5.1624 11.1483 5.00011 11.7807 5.00011 12.4415V23C5.00011 25.2091 6.79097 27 9.00011 27H21.0001C23.2092 27 25.0001 25.2091 25.0001 23V7C25.0001 4.79086 23.2092 3 21.0001 3H15.5617C14.0378 3 12.6762 3.86108 12.0031 5.17251C11.3945 4.95612 10.7117 4.93384 10.0514 5.15395L7.0514 6.15395C5.47957 6.67789 4.63009 8.37685 5.15403 9.94868C5.23056 10.1783 5.33215 10.3924 5.45476 10.5892Z" fill="#53362D"/>
<path fill-rule="evenodd" clip-rule="evenodd" d="M21 7V9H15.0616L15.5616 7H21ZM13.0062 9.01226L13.0076 9C13.0126 8.95981 13.0201 8.91993 13.0299 8.88057L13.6213 6.51493C13.8439 5.62459 14.6439 5 15.5616 5H21C22.1046 5 23 5.89543 23 7V9V11V23C23 24.1046 22.1046 25 21 25H9.00005C7.89548 25 7.00005 24.1046 7.00005 23V13V12.4415C7.00005 11.5807 7.55091 10.8164 8.36759 10.5442L8.69707 10.4343L8.46735 9.89832L8.31625 9.94868C7.79231 10.1233 7.22599 9.84017 7.05134 9.31623C6.8767 8.79228 7.15986 8.22596 7.6838 8.05132L10.6838 7.05132C11.2077 6.87667 11.7741 7.15983 11.9487 7.68377C12.1226 8.20538 11.8427 8.76898 11.3233 8.94632L11.553 9.48235L12.8461 9.05132C12.8984 9.03389 12.9519 9.02084 13.0062 9.01226Z" fill="#EE5622"/>
<path fill-rule="evenodd" clip-rule="evenodd" d="M10 22H20L20 12H13.4868L10 13.1623L10 22ZM20 11C20.5523 11 21 11.4477 21 12L21 22C21 22.5523 20.5523 23 20 23H10C9.44772 23 9 22.5523 9 22V13.1623C9 12.7318 9.27543 12.3497 9.68377 12.2136L13.1706 11.0513C13.2726 11.0173 13.3793 11 13.4868 11H20Z" fill="#B44018"/>
<path fill-rule="evenodd" clip-rule="evenodd" d="M11.9487 7.68377C12.1233 8.20771 11.8402 8.77403 11.3162 8.94868L8.31622 9.94868C7.79228 10.1233 7.22596 9.84017 7.05131 9.31622C6.87667 8.79228 7.15983 8.22596 7.68377 8.05131L10.6838 7.05131C11.2077 6.87667 11.774 7.15983 11.9487 7.68377Z" fill="#FFC107"/>
</svg>
