<svg width="30" height="30" viewBox="0 0 30 30" fill="none" xmlns="http://www.w3.org/2000/svg">
<path d="M11.7559 6.0127C13.0164 6.14082 14 7.20566 14 8.5V9H12V8.5C12 8.25829 11.8286 8.05629 11.6006 8.00977L11.5 8H5.5C5.22386 8 5 8.22386 5 8.5V21.5C5 21.7761 5.22386 22 5.5 22H11.5C11.7761 22 12 21.7761 12 21.5V21H14V21.5L13.9873 21.7559C13.8677 22.9323 12.9323 23.8677 11.7559 23.9873L11.5 24H5.5C4.20566 24 3.14082 23.0164 3.0127 21.7559L3 21.5V8.5C3 7.11929 4.11929 6 5.5 6H11.5L11.7559 6.0127Z" fill="#FF8800"/>
<path d="M24.5 6C25.8807 6 27 7.11929 27 8.5V21.5C27 22.8807 25.8807 24 24.5 24H18.5C17.1193 24 16 22.8807 16 21.5V16H20C20.5523 16 21 16.4477 21 17V18C21 18.5523 21.4477 19 22 19C22.5523 19 23 18.5523 23 18V17C23 15.3431 21.6569 14 20 14H16V16H11.9141L13.207 17.293C13.5976 17.6835 13.5976 18.3165 13.207 18.707C12.8165 19.0976 12.1835 19.0976 11.793 18.707L8.79297 15.707C8.40244 15.3165 8.40244 14.6835 8.79297 14.293L11.793 11.293C12.1835 10.9024 12.8165 10.9024 13.207 11.293C13.5976 11.6835 13.5976 12.3165 13.207 12.707L11.9141 14H16V8.5C16 7.11929 17.1193 6 18.5 6H24.5Z" fill="#FF8800"/>
</svg>
