<svg width="230" height="20" viewBox="0 0 230 20" fill="none" xmlns="http://www.w3.org/2000/svg">
<path fill-rule="evenodd" clip-rule="evenodd" d="M59.6362 12.79V14.05H60.8362V2.95001H59.6362V7.57001H59.5762C59.1712 6.59501 58.3762 6.13001 57.3112 6.13001C55.3762 6.13001 54.1612 7.70501 54.1612 10.18C54.1612 12.655 55.3762 14.23 57.3112 14.23C58.3762 14.23 59.1112 13.75 59.5762 12.79H59.6362ZM59.6362 11.575C59.6362 12.58 58.7362 13.15 57.6412 13.15C56.2912 13.15 55.4512 12.22 55.4512 10.84V9.52001C55.4512 8.14001 56.2912 7.21001 57.6412 7.21001C58.7362 7.21001 59.6362 7.84001 59.6362 8.69501V11.575Z" fill="#1C0746" fill-opacity="0.4"/>
<path fill-rule="evenodd" clip-rule="evenodd" d="M66.9323 14.05V2.95001H68.1323V7.57001H68.1923C68.5973 6.59501 69.3923 6.13001 70.4573 6.13001C72.3923 6.13001 73.6073 7.70501 73.6073 10.18C73.6073 12.655 72.3923 14.23 70.4573 14.23C69.3923 14.23 68.6573 13.75 68.1923 12.79H68.1323V14.05H66.9323ZM70.1273 13.15C71.4773 13.15 72.3173 12.22 72.3173 10.84V9.52001C72.3173 8.14001 71.4773 7.21001 70.1273 7.21001C69.0323 7.21001 68.1323 7.84001 68.1323 8.69501V11.575C68.1323 12.58 69.0323 13.15 70.1273 13.15Z" fill="#1C0746" fill-opacity="0.4"/>
<path fill-rule="evenodd" clip-rule="evenodd" d="M201.873 12.79V14.05H203.073V2.95001H201.873V7.57001H201.813C201.408 6.59501 200.613 6.13001 199.548 6.13001C197.613 6.13001 196.398 7.70501 196.398 10.18C196.398 12.655 197.613 14.23 199.548 14.23C200.613 14.23 201.348 13.75 201.813 12.79H201.873ZM201.873 11.575C201.873 12.58 200.973 13.15 199.878 13.15C198.528 13.15 197.688 12.22 197.688 10.84V9.52001C197.688 8.14001 198.528 7.21001 199.878 7.21001C200.973 7.21001 201.873 7.84001 201.873 8.69501V11.575Z" fill="#1C0746" fill-opacity="0.4"/>
<path d="M216.035 14.05H217.535V13H215.96V7.36004H217.655V6.31004H215.96V4.16504H214.88V5.60504C214.88 6.13004 214.715 6.31004 214.205 6.31004H213.485V7.36004H214.76V12.775C214.76 13.525 215.21 14.05 216.035 14.05Z" fill="#1C0746" fill-opacity="0.4"/>
<path fill-rule="evenodd" clip-rule="evenodd" d="M224.475 12.79V14.05H225.675V6.31H224.475V7.57H224.415C224.01 6.595 223.215 6.13 222.15 6.13C220.215 6.13 219 7.70501 219 10.18C219 12.655 220.215 14.23 222.15 14.23C223.215 14.23 223.95 13.75 224.415 12.79H224.475ZM224.475 11.575C224.475 12.58 223.575 13.15 222.48 13.15C221.13 13.15 220.29 12.22 220.29 10.84V9.52C220.29 8.14 221.13 7.21 222.48 7.21C223.575 7.21 224.475 7.84 224.475 8.695V11.575Z" fill="#1C0746" fill-opacity="0.4"/>
<path fill-rule="evenodd" clip-rule="evenodd" d="M210.574 14.05V12.79H210.514C210.049 13.75 209.314 14.23 208.249 14.23C206.314 14.23 205.099 12.655 205.099 10.18C205.099 7.70501 206.314 6.13 208.249 6.13C209.314 6.13 210.109 6.595 210.514 7.57H210.574V6.31H211.774V14.05H210.574ZM208.579 13.15C209.674 13.15 210.574 12.58 210.574 11.575V8.695C210.574 7.84 209.674 7.21 208.579 7.21C207.229 7.21 206.389 8.14 206.389 9.52V10.84C206.389 12.22 207.229 13.15 208.579 13.15Z" fill="#1C0746" fill-opacity="0.4"/>
<path fill-rule="evenodd" clip-rule="evenodd" d="M184.676 17.05V6.31H185.876V7.57H185.936C186.341 6.595 187.136 6.13 188.201 6.13C190.136 6.13 191.351 7.70501 191.351 10.18C191.351 12.655 190.136 14.23 188.201 14.23C187.136 14.23 186.401 13.75 185.936 12.79H185.876V17.05H184.676ZM187.871 13.15C189.221 13.15 190.061 12.22 190.061 10.84V9.52C190.061 8.14 189.221 7.21 187.871 7.21C186.776 7.21 185.876 7.84 185.876 8.695V11.575C185.876 12.58 186.776 13.15 187.871 13.15Z" fill="#1C0746" fill-opacity="0.4"/>
<path fill-rule="evenodd" clip-rule="evenodd" d="M180.925 12.79V14.05H182.125V6.31H180.925V7.57H180.865C180.46 6.595 179.665 6.13 178.6 6.13C176.665 6.13 175.45 7.70501 175.45 10.18C175.45 12.655 176.665 14.23 178.6 14.23C179.665 14.23 180.4 13.75 180.865 12.79H180.925ZM180.925 11.575C180.925 12.58 180.025 13.15 178.93 13.15C177.58 13.15 176.74 12.22 176.74 10.84V9.52C176.74 8.14 177.58 7.21 178.93 7.21C180.025 7.21 180.925 7.84 180.925 8.695V11.575Z" fill="#1C0746" fill-opacity="0.4"/>
<path d="M163.922 14.05V3.58002H165.602L168.602 9.22002H168.677L171.692 3.58002H173.312V14.05H172.082V5.23002H172.007L171.122 6.98502L168.617 11.545L166.112 6.98502L165.227 5.23002H165.152V14.05H163.922Z" fill="#1C0746" fill-opacity="0.4"/>
<path d="M160.254 14.05H161.754V13H160.179V7.36004H161.874V6.31004H160.179V4.16504H159.099V5.60504C159.099 6.13004 158.934 6.31004 158.424 6.31004H157.704V7.36004H158.979V12.775C158.979 13.525 159.429 14.05 160.254 14.05Z" fill="#1C0746" fill-opacity="0.4"/>
<path fill-rule="evenodd" clip-rule="evenodd" d="M153.221 14.23C151.121 14.23 149.741 12.64 149.741 10.18C149.741 7.72001 151.121 6.13 153.221 6.13C155.291 6.13 156.566 7.72 156.566 9.91V10.48H151.001V10.84C151.001 12.175 151.856 13.18 153.296 13.18C154.271 13.18 155.021 12.7 155.426 11.845L156.281 12.46C155.786 13.51 154.676 14.23 153.221 14.23ZM153.221 7.135C151.916 7.135 151.001 8.12501 151.001 9.47501V9.58H155.276V9.415C155.276 8.05 154.451 7.135 153.221 7.135Z" fill="#1C0746" fill-opacity="0.4"/>
<path fill-rule="evenodd" clip-rule="evenodd" d="M141.509 10.18C141.509 12.64 142.889 14.23 144.989 14.23C146.444 14.23 147.554 13.51 148.049 12.46L147.194 11.845C146.789 12.7 146.039 13.18 145.064 13.18C143.624 13.18 142.769 12.175 142.769 10.84V10.48H148.334V9.91C148.334 7.72 147.059 6.13 144.989 6.13C142.889 6.13 141.509 7.72001 141.509 10.18ZM142.769 9.47501C142.769 8.12501 143.684 7.135 144.989 7.135C146.219 7.135 147.044 8.05 147.044 9.415V9.58H142.769V9.47501Z" fill="#1C0746" fill-opacity="0.4"/>
<path d="M137.844 14.05H136.644V6.31H137.844V7.735H137.919C138.189 7 138.894 6.31 140.154 6.31H140.619V7.51H139.914C138.624 7.51 137.844 8.065 137.844 8.8V14.05Z" fill="#1C0746" fill-opacity="0.4"/>
<path d="M133.095 14.05H134.595V13H133.02V7.36004H134.715V6.31004H133.02V4.16504H131.94V5.60504C131.94 6.13004 131.775 6.31004 131.265 6.31004H130.545V7.36004H131.82V12.775C131.82 13.525 132.27 14.05 133.095 14.05Z" fill="#1C0746" fill-opacity="0.4"/>
<path d="M125.73 14.23C124.05 14.23 122.865 13.54 122.025 12.4L122.955 11.62C123.69 12.595 124.56 13.12 125.775 13.12C127.275 13.12 128.085 12.34 128.085 11.14C128.085 10.15 127.53 9.65503 126.15 9.34002L125.295 9.14502C123.39 8.71002 122.34 7.87002 122.34 6.26502C122.34 4.40502 123.75 3.40002 125.805 3.40002C127.38 3.40002 128.49 4.00002 129.27 5.11002L128.325 5.80002C127.755 5.00502 126.96 4.51002 125.745 4.51002C124.41 4.51002 123.585 5.09503 123.585 6.22003C123.585 7.21002 124.23 7.66002 125.55 7.96002L126.405 8.15502C128.445 8.62002 129.33 9.52002 129.33 11.08C129.33 13 127.98 14.23 125.73 14.23Z" fill="#1C0746" fill-opacity="0.4"/>
<path d="M114.144 14.05H115.344V8.68001C115.344 7.69 116.274 7.21 117.234 7.21C118.389 7.21 118.989 7.915 118.989 9.295V14.05H120.189V9.085C120.189 7.21 119.184 6.13 117.594 6.13C116.439 6.13 115.779 6.7 115.404 7.57H115.344V6.31H114.144V14.05Z" fill="#1C0746" fill-opacity="0.4"/>
<path fill-rule="evenodd" clip-rule="evenodd" d="M108.822 14.23C106.722 14.23 105.342 12.64 105.342 10.18C105.342 7.72001 106.722 6.13 108.822 6.13C110.892 6.13 112.167 7.72 112.167 9.91V10.48H106.602V10.84C106.602 12.175 107.457 13.18 108.897 13.18C109.872 13.18 110.622 12.7 111.027 11.845L111.882 12.46C111.387 13.51 110.277 14.23 108.822 14.23ZM108.822 7.135C107.517 7.135 106.602 8.12501 106.602 9.47501V9.58H110.877V9.415C110.877 8.05 110.052 7.135 108.822 7.135Z" fill="#1C0746" fill-opacity="0.4"/>
<path fill-rule="evenodd" clip-rule="evenodd" d="M97.2106 6.31V17.05H98.4106V12.79H98.4706C98.9356 13.75 99.6706 14.23 100.736 14.23C102.671 14.23 103.886 12.655 103.886 10.18C103.886 7.70501 102.671 6.13 100.736 6.13C99.6706 6.13 98.8756 6.595 98.4706 7.57H98.4106V6.31H97.2106ZM102.596 10.84C102.596 12.22 101.756 13.15 100.406 13.15C99.3106 13.15 98.4106 12.58 98.4106 11.575V8.695C98.4106 7.84 99.3106 7.21 100.406 7.21C101.756 7.21 102.596 8.14 102.596 9.52V10.84Z" fill="#1C0746" fill-opacity="0.4"/>
<path fill-rule="evenodd" clip-rule="evenodd" d="M90.6255 14.23C87.9255 14.23 86.1855 12.325 86.1855 8.81503C86.1855 5.30503 87.9255 3.40002 90.6255 3.40002C93.3255 3.40002 95.0655 5.30503 95.0655 8.81503C95.0655 12.325 93.3255 14.23 90.6255 14.23ZM90.6255 13.105C92.4405 13.105 93.7155 11.755 93.7155 9.68503V7.94502C93.7155 5.87502 92.4405 4.52502 90.6255 4.52502C88.8105 4.52502 87.5355 5.87502 87.5355 7.94502V9.68503C87.5355 11.755 88.8105 13.105 90.6255 13.105Z" fill="#1C0746" fill-opacity="0.4"/>
<path d="M80.3302 6.31L78.4552 11.575L78.0352 12.835H77.9602L77.6002 11.575L75.7402 6.31H74.5402L77.4352 14.35L76.8502 16H75.6352V17.05H76.2502C77.3902 17.05 77.7052 16.78 78.0502 15.85L81.5152 6.31H80.3302Z" fill="#1C0746" fill-opacity="0.4"/>
<path fill-rule="evenodd" clip-rule="evenodd" d="M49.3638 14.23C47.2638 14.23 45.8838 12.64 45.8838 10.18C45.8838 7.72001 47.2638 6.13 49.3638 6.13C51.4338 6.13 52.7088 7.72 52.7088 9.91V10.48H47.1438V10.84C47.1438 12.175 47.9988 13.18 49.4388 13.18C50.4138 13.18 51.1638 12.7 51.5688 11.845L52.4238 12.46C51.9288 13.51 50.8188 14.23 49.3638 14.23ZM49.3638 7.135C48.0588 7.135 47.1438 8.12501 47.1438 9.47501V9.58H51.4188V9.415C51.4188 8.05 50.5938 7.135 49.3638 7.135Z" fill="#1C0746" fill-opacity="0.4"/>
<path d="M41.0192 14.05H42.2192V8.8C42.2192 8.065 42.9992 7.51 44.2892 7.51H44.9942V6.31H44.5292C43.2692 6.31 42.5642 7 42.2942 7.735H42.2192V6.31H41.0192V14.05Z" fill="#1C0746" fill-opacity="0.4"/>
<path fill-rule="evenodd" clip-rule="evenodd" d="M35.6968 14.23C33.5968 14.23 32.2168 12.64 32.2168 10.18C32.2168 7.72001 33.5968 6.13 35.6968 6.13C37.7668 6.13 39.0418 7.72 39.0418 9.91V10.48H33.4768V10.84C33.4768 12.175 34.3318 13.18 35.7718 13.18C36.7468 13.18 37.4968 12.7 37.9018 11.845L38.7568 12.46C38.2618 13.51 37.1518 14.23 35.6968 14.23ZM35.6968 7.135C34.3918 7.135 33.4768 8.12501 33.4768 9.47501V9.58H37.7518V9.415C37.7518 8.05 36.9268 7.135 35.6968 7.135Z" fill="#1C0746" fill-opacity="0.4"/>
<path d="M20.5364 6.31L22.6064 14.05H24.0614L25.1414 10.33L25.8014 7.975H25.8314L26.5064 10.33L27.5864 14.05H29.0714L31.1264 6.31H30.0014L29.1614 9.655L28.3664 13.045H28.3364L27.3764 9.655L26.3714 6.31H25.3064L24.3314 9.655L23.3864 13.045H23.3564L22.5314 9.655L21.7064 6.31H20.5364Z" fill="#1C0746" fill-opacity="0.4"/>
<path fill-rule="evenodd" clip-rule="evenodd" d="M15.9511 14.23C13.8811 14.23 12.4561 12.64 12.4561 10.18C12.4561 7.72001 13.8811 6.13 15.9511 6.13C18.0211 6.13 19.4461 7.72001 19.4461 10.18C19.4461 12.64 18.0211 14.23 15.9511 14.23ZM15.9511 13.165C17.2411 13.165 18.1561 12.37 18.1561 10.735V9.625C18.1561 7.99 17.2411 7.195 15.9511 7.195C14.6611 7.195 13.7461 7.99 13.7461 9.625V10.735C13.7461 12.37 14.6611 13.165 15.9511 13.165Z" fill="#1C0746" fill-opacity="0.4"/>
<path fill-rule="evenodd" clip-rule="evenodd" d="M4.32489 6.31V17.05H5.52489V12.79H5.58489C6.04989 13.75 6.78489 14.23 7.84989 14.23C9.78489 14.23 10.9999 12.655 10.9999 10.18C10.9999 7.70501 9.78489 6.13 7.84989 6.13C6.78489 6.13 5.98989 6.595 5.58489 7.57H5.52489V6.31H4.32489ZM9.70989 10.84C9.70989 12.22 8.86989 13.15 7.51989 13.15C6.42489 13.15 5.52489 12.58 5.52489 11.575V8.695C5.52489 7.84 6.42489 7.21 7.51989 7.21C8.86989 7.21 9.70989 8.14 9.70989 9.52V10.84Z" fill="#1C0746" fill-opacity="0.4"/>
</svg>
