<svg width="30" height="30" viewBox="0 0 30 30" fill="none" xmlns="http://www.w3.org/2000/svg">
<g opacity="0.2">
<path d="M16 5H9C8.44772 5 8 5.44772 8 6V21.1716L18.2628 10.9088C16.9624 10.5802 16 9.40249 16 8V5Z" fill="#FF8800"/>
<path d="M21 25H9.82843L22 12.8284V24C22 24.5523 21.5523 25 21 25Z" fill="#FF8800"/>
</g>
<path fill-rule="evenodd" clip-rule="evenodd" d="M26.7071 4.70711C27.0976 4.31658 27.0976 3.68342 26.7071 3.29289C26.3166 2.90237 25.6834 2.90237 25.2929 3.29289L22 6.58579L19.2929 3.87868C18.7303 3.31607 17.9672 3 17.1716 3H9C7.34315 3 6 4.34315 6 6V22.5858L3.29289 25.2929C2.90237 25.6834 2.90237 26.3166 3.29289 26.7071C3.68342 27.0976 4.31658 27.0976 4.70711 26.7071L26.7071 4.70711ZM8 20.5858L17.8247 10.761C16.752 10.3038 16 9.23974 16 8V5H9C8.44772 5 8 5.44772 8 6V20.5858ZM19.5858 9L20.5858 8L18 5.41421V8C18 8.55228 18.4477 9 19 9H19.5858Z" fill="#FF8800"/>
<path d="M22 12.8284L24 10.8284V24C24 25.6569 22.6569 27 21 27H9C8.64913 27 8.31232 26.9398 7.99936 26.8291L9.82843 25H21C21.5523 25 22 24.5523 22 24V12.8284Z" fill="#FF8800"/>
</svg>
