<svg width="30" height="30" viewBox="0 0 30 30" fill="none" xmlns="http://www.w3.org/2000/svg">
<path fill-rule="evenodd" clip-rule="evenodd" d="M15 6C8.92487 6 4 10.9249 4 17V20C4 21.1046 4.89543 22 6 22H9.80269C10.8401 23.7934 12.7792 25 15 25C17.2208 25 19.1599 23.7934 20.1973 22H24C25.1046 22 26 21.1046 26 20V17C26 10.9249 21.0751 6 15 6Z" fill="#393E46"/>
<path d="M11.126 20H6V17C6 12.0294 10.0294 8 15 8C19.9706 8 24 12.0294 24 17V20H18.874C18.4299 21.7252 16.8638 23 15 23C13.1362 23 11.5701 21.7252 11.126 20Z" fill="#FF8828"/>
<path fill-rule="evenodd" clip-rule="evenodd" d="M15 12C12.2386 12 10 14.2386 10 17V20H6V17C6 12.0294 10.0294 8 15 8C19.9706 8 24 12.0294 24 17V20H20V17C20 14.2386 17.7614 12 15 12Z" fill="url(#paint0_radial_1903_16618)"/>
<path opacity="0.1" d="M19 19C19 21.2091 17.2091 23 15 23C12.7909 23 11 21.2091 11 19C11 16.7909 12.7909 15 15 15C17.2091 15 19 16.7909 19 19Z" fill="black"/>
<path fill-rule="evenodd" clip-rule="evenodd" d="M9.58579 13.5858C10.3668 12.8047 11.6332 12.8047 12.4142 13.5858L14.833 16.0045C14.8883 16.0015 14.944 15.9999 15 15.9999C16.6568 15.9999 18 17.3431 18 18.9999C18 20.6568 16.6568 21.9999 15 21.9999C13.3431 21.9999 12 20.6568 12 18.9999C12 18.944 12.0015 18.8883 12.0046 18.833L9.58579 16.4142C8.80474 15.6331 8.80474 14.3668 9.58579 13.5858Z" fill="url(#paint1_linear_1903_16618)" fill-opacity="0.2"/>
<path fill-rule="evenodd" clip-rule="evenodd" d="M11.7071 14.2929C11.3166 13.9023 10.6834 13.9023 10.2929 14.2929C9.90237 14.6834 9.90237 15.3166 10.2929 15.7071L13.0677 18.4819C13.0235 18.6471 13 18.8208 13 18.9999C13 20.1045 13.8954 20.9999 15 20.9999C16.1045 20.9999 17 20.1045 17 18.9999C17 17.8954 16.1045 16.9999 15 16.9999C14.8208 16.9999 14.6472 17.0235 14.4819 17.0677L11.7071 14.2929Z" fill="white"/>
<path d="M14 8V9C14 9.55228 14.4477 10 15 10C15.5523 10 16 9.55228 16 9V8H14Z" fill="#393E46"/>
<path d="M20.2929 10.2929L21 9.58578L22.4142 11L21.7071 11.7071C21.3166 12.0976 20.6834 12.0976 20.2929 11.7071C19.9024 11.3166 19.9024 10.6834 20.2929 10.2929Z" fill="#393E46"/>
<path d="M8.29289 11.7071L7.58579 11L9 9.58579L9.70711 10.2929C10.0976 10.6834 10.0976 11.3166 9.70711 11.7071C9.31658 12.0976 8.68342 12.0976 8.29289 11.7071Z" fill="#393E46"/>
<path d="M7 18H6V16H7C7.55228 16 8 16.4477 8 17C8 17.5523 7.55228 18 7 18Z" fill="#393E46"/>
<path d="M22 17C22 16.4477 22.4477 16 23 16H24V18H23C22.4477 18 22 17.5523 22 17Z" fill="#393E46"/>
<defs>
<radialGradient id="paint0_radial_1903_16618" cx="0" cy="0" r="1" gradientUnits="userSpaceOnUse" gradientTransform="translate(8 11.5) rotate(46.9749) scale(10.2591 45.0003)">
<stop stop-color="#FFDF80"/>
<stop offset="1" stop-color="#FFC107" stop-opacity="0"/>
</radialGradient>
<linearGradient id="paint1_linear_1903_16618" x1="11" y1="15" x2="15" y2="19" gradientUnits="userSpaceOnUse">
<stop/>
<stop offset="1" stop-opacity="0"/>
</linearGradient>
</defs>
</svg>
