<svg width="30" height="30" viewBox="0 0 30 30" fill="none" xmlns="http://www.w3.org/2000/svg">
<path opacity="0.8" fill-rule="evenodd" clip-rule="evenodd" d="M11 22C10.4477 22 10 22.4477 10 23L10 24C10 25.6569 11.3431 27 13 27C14.6569 27 16 25.6569 16 24L16 4C16 3.44772 15.5523 3 15 3C14.4477 3 14 3.44772 14 4L14 24C14 24.5523 13.5523 25 13 25C12.4477 25 12 24.5523 12 24L12 23C12 22.4477 11.5523 22 11 22Z" fill="#FFC30D"/>
<path fill-rule="evenodd" clip-rule="evenodd" d="M6 15.3542L6 14C6 9.02944 10.0294 5 15 5C19.9706 5 24 9.02944 24 14L24 15.3542C23.2671 14.5238 22.1947 14 21 14C19.8053 14 18.7329 14.5238 18 15.3542C17.2671 14.5238 16.1947 14 15 14C13.8053 14 12.7329 14.5238 12 15.3542C11.2671 14.5238 10.1947 14 9 14C7.80531 14 6.73294 14.5238 6 15.3542Z" fill="#5714CC"/>
<path fill-rule="evenodd" clip-rule="evenodd" d="M22.9783 13.4069C22.6749 9.26559 19.2188 6 15 6C10.7812 6 7.32514 9.26559 7.02165 13.4069C7.62838 13.1452 8.29737 13 9 13C10.1255 13 11.1647 13.3726 12 13.9998C12.8353 13.3726 13.8745 13 15 13C16.1255 13 17.1647 13.3726 18 13.9998C18.8353 13.3726 19.8745 13 21 13C21.7026 13 22.3716 13.1452 22.9783 13.4069ZM25 14L25 15.3542C25 15.77 24.7427 16.1424 24.3537 16.2895C23.9648 16.4366 23.5254 16.3277 23.2503 16.0159C22.6991 15.3914 21.8959 15 21 15C20.1041 15 19.3009 15.3914 18.7497 16.0159C18.5599 16.231 18.2869 16.3542 18 16.3542C17.7131 16.3542 17.4401 16.231 17.2503 16.0159C16.6991 15.3914 15.8959 15 15 15C14.1041 15 13.3009 15.3914 12.7497 16.0159C12.5599 16.231 12.2869 16.3542 12 16.3542C11.7131 16.3542 11.4401 16.231 11.2503 16.0159C10.6991 15.3914 9.89588 15 9 15C8.10412 15 7.30091 15.3914 6.74974 16.0159C6.47457 16.3277 6.0352 16.4366 5.64626 16.2895C5.25732 16.1424 5 15.77 5 15.3542L5 14C5 8.47715 9.47715 4 15 4C20.5228 4 25 8.47715 25 14Z" fill="#FFC30D"/>
</svg>
