<svg width="212" height="74" viewBox="0 0 212 74" fill="none" xmlns="http://www.w3.org/2000/svg">
<g clip-path="url(#clip0_524_693)">
<path fill-rule="evenodd" clip-rule="evenodd" d="M119.102 22.19V19.43C118.542 20.35 117.782 21.09 116.822 21.65C115.882 22.21 114.852 22.49 113.732 22.49C112.652 22.49 111.652 22.28 110.732 21.86C109.832 21.42 109.042 20.82 108.362 20.06C107.702 19.3 107.182 18.44 106.802 17.48C106.442 16.5 106.262 15.47 106.262 14.39C106.262 12.91 106.562 11.56 107.162 10.34C107.782 9.10001 108.622 8.11001 109.682 7.37001C110.762 6.63001 111.982 6.26001 113.342 6.26001C114.622 6.26001 115.742 6.59001 116.702 7.25001C117.682 7.91001 118.482 8.71001 119.102 9.65001V0.290009H121.742V22.19H119.102ZM119.102 12.2C118.862 11.5 118.472 10.88 117.932 10.34C117.392 9.78001 116.782 9.34001 116.102 9.02001C115.442 8.70001 114.772 8.54001 114.092 8.54001C113.332 8.54001 112.632 8.71001 111.992 9.05001C111.372 9.37001 110.832 9.81001 110.372 10.37C109.932 10.93 109.592 11.56 109.352 12.26C109.112 12.96 108.992 13.68 108.992 14.42C108.992 15.2 109.122 15.94 109.382 16.64C109.662 17.34 110.042 17.96 110.522 18.5C111.022 19.04 111.592 19.46 112.232 19.76C112.892 20.06 113.602 20.21 114.362 20.21C114.842 20.21 115.342 20.12 115.862 19.94C116.382 19.76 116.872 19.51 117.332 19.19C117.792 18.87 118.182 18.5 118.502 18.08C118.822 17.64 119.022 17.18 119.102 16.7V12.2ZM151.05 8.21001V22.19H155.19V0.890015H150.78L144.42 13.01L138.12 0.890015H133.68V22.19H137.82V8.21001L143.28 18.62H145.59L151.05 8.21001ZM197.898 21.83C199.118 22.27 200.398 22.49 201.738 22.49C203.658 22.49 205.188 22.05 206.328 21.17C207.468 20.29 208.038 19.07 208.038 17.51C208.038 16.55 207.818 15.8 207.378 15.26C206.938 14.7 206.278 14.23 205.398 13.85C204.538 13.47 203.478 13.1 202.218 12.74C201.598 12.54 201.068 12.36 200.628 12.2C200.208 12.04 199.888 11.86 199.668 11.66C199.468 11.44 199.368 11.14 199.368 10.76C199.368 10.34 199.478 10.02 199.698 9.80001C199.938 9.56001 200.238 9.39001 200.598 9.29002C200.978 9.19001 201.378 9.14001 201.798 9.14001C202.538 9.14001 203.268 9.29001 203.988 9.59001C204.708 9.87001 205.468 10.32 206.268 10.94L207.888 8.39001C207.068 7.61001 206.158 7.05001 205.158 6.71001C204.158 6.35001 203.098 6.17001 201.978 6.17001C200.698 6.17001 199.578 6.38001 198.618 6.80002C197.678 7.22002 196.938 7.81001 196.398 8.57001C195.878 9.31001 195.618 10.2 195.618 11.24C195.618 12.1 195.808 12.81 196.188 13.37C196.588 13.91 197.178 14.36 197.958 14.72C198.738 15.08 199.708 15.45 200.868 15.83C201.568 16.03 202.158 16.21 202.638 16.37C203.138 16.53 203.518 16.72 203.778 16.94C204.038 17.14 204.168 17.43 204.168 17.81C204.168 18.37 203.928 18.79 203.448 19.07C202.988 19.35 202.368 19.49 201.588 19.49C200.748 19.49 199.868 19.31 198.948 18.95C198.048 18.59 197.128 18.03 196.188 17.27L194.748 19.88C195.628 20.74 196.678 21.39 197.898 21.83ZM182.815 21.68C183.755 22.22 184.835 22.49 186.055 22.49C187.395 22.49 188.575 22.13 189.595 21.41C190.635 20.67 191.445 19.68 192.025 18.44C192.625 17.2 192.925 15.82 192.925 14.3C192.925 13.18 192.735 12.14 192.355 11.18C191.995 10.2 191.485 9.34001 190.825 8.60001C190.165 7.84001 189.385 7.25001 188.485 6.83001C187.605 6.41001 186.635 6.20001 185.575 6.20001C184.395 6.20001 183.345 6.47001 182.425 7.01001C181.505 7.53001 180.745 8.25001 180.145 9.17001V6.47001H176.635V28.58H180.655V19.43C181.175 20.37 181.895 21.12 182.815 21.68ZM186.385 18.68C185.885 18.94 185.325 19.07 184.705 19.07C184.145 19.07 183.595 18.94 183.055 18.68C182.515 18.4 182.035 18.02 181.615 17.54C181.215 17.06 180.895 16.53 180.655 15.95V12.26C180.775 11.88 180.965 11.53 181.225 11.21C181.505 10.89 181.825 10.61 182.185 10.37C182.545 10.13 182.915 9.95001 183.295 9.83001C183.695 9.69001 184.085 9.62001 184.465 9.62001C185.085 9.62001 185.655 9.74001 186.175 9.98001C186.715 10.22 187.185 10.56 187.585 11C187.985 11.42 188.285 11.91 188.485 12.47C188.705 13.03 188.815 13.64 188.815 14.3C188.815 14.92 188.715 15.52 188.515 16.1C188.335 16.66 188.055 17.17 187.675 17.63C187.315 18.07 186.885 18.42 186.385 18.68ZM168.972 22.19V20C168.372 20.84 167.612 21.47 166.692 21.89C165.772 22.29 164.762 22.49 163.662 22.49C162.662 22.49 161.752 22.28 160.932 21.86C160.112 21.42 159.462 20.82 158.982 20.06C158.522 19.3 158.292 18.45 158.292 17.51C158.292 16.71 158.472 15.99 158.832 15.35C159.192 14.71 159.682 14.18 160.302 13.76C160.922 13.32 161.632 12.99 162.432 12.77C163.252 12.55 164.102 12.44 164.982 12.44C165.822 12.44 166.572 12.51 167.232 12.65C167.892 12.79 168.422 12.95 168.822 13.13V12.23C168.822 11.21 168.522 10.42 167.922 9.86001C167.342 9.28001 166.472 8.99001 165.312 8.99001C164.492 8.99001 163.672 9.14001 162.852 9.44001C162.052 9.74001 161.232 10.18 160.392 10.76L159.162 8.21001C160.142 7.57001 161.172 7.08001 162.252 6.74001C163.332 6.38001 164.482 6.20001 165.702 6.20001C167.242 6.20001 168.542 6.46001 169.602 6.98001C170.662 7.48001 171.462 8.22001 172.002 9.20001C172.562 10.16 172.842 11.32 172.842 12.68V22.19H168.972ZM168.162 18.23C168.602 17.85 168.822 17.47 168.822 17.09V15.29C168.322 15.09 167.792 14.94 167.232 14.84C166.672 14.74 166.142 14.69 165.642 14.69C165.202 14.69 164.772 14.74 164.352 14.84C163.932 14.94 163.552 15.1 163.212 15.32C162.872 15.52 162.602 15.78 162.402 16.1C162.202 16.4 162.102 16.76 162.102 17.18C162.102 17.64 162.222 18.05 162.462 18.41C162.722 18.77 163.052 19.05 163.452 19.25C163.872 19.45 164.322 19.55 164.802 19.55C165.222 19.55 165.642 19.5 166.062 19.4C166.482 19.3 166.872 19.16 167.232 18.98C167.612 18.78 167.922 18.53 168.162 18.23ZM100.537 22.19H103.177V12.83C103.177 11.89 103.097 11.02 102.937 10.22C102.797 9.42001 102.547 8.73001 102.187 8.15001C101.847 7.55001 101.367 7.09001 100.747 6.77001C100.147 6.43001 99.3966 6.26001 98.4966 6.26001C97.5766 6.26001 96.6966 6.41001 95.8566 6.71001C95.0166 7.01001 94.2666 7.43001 93.6066 7.97001C92.9466 8.51001 92.4066 9.15001 91.9866 9.89001V6.53001H89.5866V22.19H92.2266V12.74C92.4666 11.94 92.8566 11.24 93.3966 10.64C93.9566 10.02 94.5866 9.53001 95.2866 9.17001C96.0066 8.81001 96.7266 8.63001 97.4466 8.63001C98.4866 8.63001 99.2566 9.02001 99.7566 9.80001C100.277 10.56 100.537 11.77 100.537 13.43V22.19ZM76.1839 0.890015H78.4639L87.1639 22.19H84.2839L81.7639 15.95H72.8239L70.3339 22.19H67.4539L76.1839 0.890015ZM81.1639 13.85L77.3239 4.01002L73.3639 13.85H81.1639ZM62.539 22.19H65.179V12.83C65.179 11.89 65.099 11.02 64.939 10.22C64.779 9.42001 64.519 8.73001 64.159 8.15001C63.799 7.55001 63.309 7.09001 62.689 6.77001C62.089 6.43001 61.339 6.26001 60.439 6.26001C59.159 6.26001 58.019 6.59001 57.019 7.25001C56.019 7.89001 55.169 8.83001 54.469 10.07C54.289 8.95001 53.809 8.04001 53.029 7.34001C52.249 6.62001 51.209 6.26001 49.909 6.26001C48.629 6.26001 47.479 6.58001 46.459 7.22001C45.439 7.84001 44.609 8.73001 43.969 9.89001V6.53001H41.569V22.19H44.209V12.74C44.569 11.5 45.179 10.51 46.039 9.77001C46.919 9.01001 47.879 8.63001 48.919 8.63001C49.959 8.63001 50.739 9.02001 51.259 9.80001C51.779 10.56 52.039 11.77 52.039 13.43V22.19H54.679V12.77C55.039 11.55 55.649 10.56 56.509 9.80001C57.369 9.02001 58.329 8.63001 59.389 8.63001C60.429 8.63001 61.209 9.02001 61.729 9.80001C62.269 10.58 62.539 11.79 62.539 13.43V22.19ZM32.2906 22.49C30.9906 22.49 29.7706 22.28 28.6306 21.86C27.4906 21.42 26.5106 20.77 25.6906 19.91L26.7106 18.05C27.6106 18.89 28.5106 19.49 29.4106 19.85C30.3106 20.21 31.2306 20.39 32.1706 20.39C33.2506 20.39 34.1306 20.19 34.8106 19.79C35.4906 19.37 35.8306 18.76 35.8306 17.96C35.8306 17.38 35.6506 16.95 35.2906 16.67C34.9506 16.39 34.4606 16.16 33.8206 15.98C33.1806 15.78 32.4206 15.56 31.5406 15.32C30.4606 15 29.5506 14.66 28.8106 14.3C28.0706 13.94 27.5106 13.49 27.1306 12.95C26.7506 12.41 26.5606 11.73 26.5606 10.91C26.5606 9.91001 26.8206 9.07001 27.3406 8.39001C27.8606 7.69001 28.5706 7.16001 29.4706 6.80001C30.3906 6.44001 31.4306 6.26001 32.5906 6.26001C33.7506 6.26001 34.8006 6.44001 35.7406 6.80001C36.6806 7.16001 37.4906 7.69001 38.1706 8.39001L36.9706 10.22C36.3506 9.58001 35.6706 9.11001 34.9306 8.81001C34.1906 8.49001 33.3606 8.33001 32.4406 8.33001C31.9006 8.33001 31.3706 8.40001 30.8506 8.54001C30.3306 8.66001 29.9006 8.89001 29.5606 9.23001C29.2206 9.55001 29.0506 10.01 29.0506 10.61C29.0506 11.11 29.1806 11.51 29.4406 11.81C29.7206 12.09 30.1206 12.33 30.6406 12.53C31.1806 12.73 31.8306 12.95 32.5906 13.19C33.7706 13.53 34.7906 13.87 35.6506 14.21C36.5306 14.55 37.2106 14.99 37.6906 15.53C38.1706 16.07 38.4106 16.82 38.4106 17.78C38.4106 19.26 37.8506 20.42 36.7306 21.26C35.6106 22.08 34.1306 22.49 32.2906 22.49ZM9.45917 21.44C10.6792 22.04 12.0392 22.34 13.5392 22.34C14.9792 22.34 16.3092 22.05 17.5292 21.47C18.7492 20.89 19.8092 20.1 20.7092 19.1C21.6292 18.08 22.3392 16.93 22.8392 15.65C23.3392 14.35 23.5892 12.99 23.5892 11.57C23.5892 10.23 23.3492 8.92002 22.8692 7.64002C22.3892 6.36002 21.7092 5.20002 20.8292 4.16002C19.9492 3.12002 18.8992 2.29002 17.6792 1.67002C16.4592 1.05002 15.0992 0.740021 13.5992 0.740021C12.1592 0.740021 10.8292 1.04002 9.60917 1.64002C8.38916 2.22002 7.31917 3.02002 6.39917 4.04002C5.49917 5.04002 4.78917 6.19002 4.26917 7.49002C3.76916 8.77002 3.51917 10.12 3.51917 11.54C3.51917 12.9 3.75917 14.23 4.23917 15.53C4.71917 16.81 5.39917 17.97 6.27917 19.01C7.17917 20.03 8.23917 20.84 9.45917 21.44ZM6.75916 14.69C6.41917 13.67 6.24917 12.62 6.24917 11.54C6.24917 10.5 6.41917 9.49002 6.75916 8.51002C7.09916 7.51002 7.57917 6.61002 8.19917 5.81002C8.83917 5.01002 9.60917 4.38002 10.5092 3.92002C11.4092 3.44002 12.4292 3.20002 13.5692 3.20002C14.6492 3.20002 15.6292 3.43002 16.5092 3.89002C17.4092 4.33002 18.1792 4.95002 18.8192 5.75002C19.4792 6.53002 19.9792 7.42002 20.3192 8.42002C20.6792 9.42002 20.8592 10.46 20.8592 11.54C20.8592 12.56 20.6892 13.57 20.3492 14.57C20.0292 15.57 19.5492 16.47 18.9092 17.27C18.2892 18.07 17.5292 18.71 16.6292 19.19C15.7292 19.67 14.7092 19.91 13.5692 19.91C12.4692 19.91 11.4692 19.68 10.5692 19.22C9.66917 18.76 8.89917 18.14 8.25917 17.36C7.61917 16.58 7.11916 15.69 6.75916 14.69Z" fill="#5C70EF"/>
<path fill-rule="evenodd" clip-rule="evenodd" d="M85.7787 38.58H125.779C135.168 38.58 142.779 46.1912 142.779 55.58C142.779 64.9689 135.168 72.58 125.779 72.58H85.7787C76.3898 72.58 68.7787 64.9689 68.7787 55.58C68.7787 46.1912 76.3898 38.58 85.7787 38.58ZM85.7787 40.58C77.4944 40.58 70.7787 47.2957 70.7787 55.58C70.7787 63.8643 77.4944 70.58 85.7787 70.58H125.779C134.063 70.58 140.779 63.8643 140.779 55.58C140.779 47.2957 134.063 40.58 125.779 40.58H85.7787Z" fill="#5C70EF" fill-opacity="0.15"/>
<path d="M88.578 48.9967C90.703 48.9967 92.0306 49.9734 94.2446 49.705C94.8278 49.6344 95.5618 49.4486 96.1366 49.285C96.6023 49.1525 97.078 49.4976 97.078 49.9817V58.6029C97.078 59.2116 96.6896 59.7536 96.104 59.9193C95.5342 60.0805 94.8168 60.2607 94.2446 60.33C92.0306 60.5984 90.703 59.6217 88.578 59.6217V62.455C88.578 62.8462 88.2608 63.1634 87.8696 63.1634H86.453C86.0618 63.1634 85.7446 62.8462 85.7446 62.455V50.081C85.7446 49.756 85.9656 49.4719 86.2801 49.3897C87.0335 49.1926 87.8006 48.9967 88.578 48.9967Z" fill="url(#paint0_linear_524_693)"/>
<path d="M88.5779 51.4758C88.5196 51.4758 88.3939 51.4879 88.2238 51.5104V57.1425H88.5779C90.0006 57.1425 91.1888 57.4807 91.9584 57.6661C92.7578 57.8587 93.2917 57.9482 93.9465 57.8688L94.257 57.819C94.3641 57.7988 94.4788 57.7744 94.5988 57.7471V52.1579L94.5427 52.1662C92.9836 52.3551 91.7461 52.0905 90.797 51.8618C89.8181 51.626 89.2801 51.4758 88.5779 51.4758Z" fill="url(#paint1_linear_524_693)"/>
<path d="M124.262 53.1523C124.944 53.1523 125.553 53.2692 126.086 53.5038C126.63 53.7278 127.094 54.043 127.478 54.4482C127.862 54.8534 128.15 55.3173 128.342 55.8398C128.545 56.3623 128.647 56.9173 128.647 57.5038C128.647 58.0798 128.545 58.6296 128.342 59.1523C128.15 59.6749 127.862 60.1386 127.478 60.5439C127.104 60.9492 126.646 61.2692 126.102 61.5038C125.558 61.7278 124.944 61.8398 124.262 61.8398C123.579 61.8398 122.966 61.7278 122.422 61.5038C121.878 61.2692 121.414 60.9492 121.03 60.5439C120.657 60.1386 120.369 59.6749 120.166 59.1523C119.963 58.6296 119.862 58.0798 119.862 57.5038C119.862 56.9173 119.964 56.3623 120.166 55.8398C120.369 55.3173 120.657 54.8534 121.03 54.4482C121.414 54.0429 121.878 53.7278 122.422 53.5038C122.966 53.2692 123.579 53.1523 124.262 53.1523ZM108.728 50.3203C109.25 50.3203 109.73 50.4273 110.167 50.6406C110.604 50.8538 110.983 51.1414 111.303 51.5038C111.634 51.8665 111.89 52.2726 112.071 52.7206C112.253 53.1685 112.343 53.6274 112.343 54.0966C112.343 54.7363 112.194 55.3441 111.896 55.9199C111.597 56.4958 111.186 56.9654 110.663 57.3281C110.141 57.6906 109.522 57.8719 108.808 57.872H106.119V61.6806H103.911V50.3203H108.728ZM118.824 53.1845C118.888 53.1845 118.941 53.1896 118.984 53.2001V55.1523C118.333 55.1523 117.752 55.2803 117.24 55.5361C116.728 55.7814 116.36 56.139 116.136 56.6083V61.6806H113.992V53.2958H115.96V55.0878C116.259 54.5121 116.637 54.059 117.096 53.7285C117.554 53.3978 118.04 53.2165 118.552 53.1845H118.824ZM124.262 54.9765C123.846 54.9766 123.472 55.0885 123.142 55.3124C122.811 55.5257 122.55 55.8243 122.359 56.2079C122.167 56.5812 122.07 57.0133 122.07 57.5038C122.07 57.9945 122.167 58.4323 122.359 58.8163C122.55 59.1895 122.811 59.483 123.142 59.6962C123.472 59.9095 123.846 60.0165 124.262 60.0165C124.667 60.0165 125.036 59.9096 125.366 59.6962C125.697 59.4722 125.959 59.173 126.151 58.7997C126.353 58.4159 126.454 57.9787 126.454 57.4882C126.454 57.0083 126.353 56.5763 126.151 56.1923C125.959 55.8083 125.697 55.5092 125.366 55.2958C125.036 55.0825 124.667 54.9765 124.262 54.9765ZM106.119 55.9365H108.679C108.945 55.9365 109.186 55.8612 109.4 55.7119C109.613 55.5625 109.783 55.3494 109.911 55.0722C110.039 54.7843 110.104 54.4591 110.104 54.0966C110.104 53.702 110.028 53.3652 109.879 53.0878C109.74 52.8107 109.554 52.6024 109.319 52.4638C109.095 52.3252 108.85 52.2558 108.583 52.2558H106.119V55.9365Z" fill="#5C70EF"/>
</g>
<defs>
<linearGradient id="paint0_linear_524_693" x1="97.078" y1="55.3717" x2="85.7446" y2="55.3717" gradientUnits="userSpaceOnUse">
<stop stop-color="#7D8DF2"/>
<stop offset="0.1367" stop-color="#6074F0"/>
<stop offset="0.344443" stop-color="#7B3FE4"/>
<stop offset="0.625" stop-color="#7888F2"/>
<stop offset="1" stop-color="#455CED"/>
</linearGradient>
<linearGradient id="paint1_linear_524_693" x1="88.2238" y1="54.3468" x2="94.5988" y2="54.3468" gradientUnits="userSpaceOnUse">
<stop stop-color="#FFC30D"/>
<stop offset="0.725962" stop-color="#CC9900"/>
<stop offset="1" stop-color="#FFC30D"/>
</linearGradient>
<clipPath id="clip0_524_693">
<rect width="210.519" height="73" fill="white" transform="translate(0.519165 0.290009)"/>
</clipPath>
</defs>
</svg>
