<svg width="211" height="74" viewBox="0 0 211 74" fill="none" xmlns="http://www.w3.org/2000/svg">
<g clip-path="url(#clip0_520_1498)">
<path fill-rule="evenodd" clip-rule="evenodd" d="M118.583 22.19V19.43C118.023 20.35 117.263 21.09 116.303 21.65C115.363 22.21 114.333 22.49 113.213 22.49C112.133 22.49 111.133 22.28 110.213 21.86C109.313 21.42 108.523 20.82 107.843 20.06C107.183 19.3 106.663 18.44 106.283 17.48C105.923 16.5 105.743 15.47 105.743 14.39C105.743 12.91 106.043 11.56 106.643 10.34C107.263 9.10001 108.103 8.11001 109.163 7.37001C110.243 6.63001 111.463 6.26001 112.823 6.26001C114.103 6.26001 115.223 6.59001 116.183 7.25001C117.163 7.91001 117.963 8.71001 118.583 9.65001V0.290009H121.223V22.19H118.583ZM118.583 12.2C118.343 11.5 117.953 10.88 117.413 10.34C116.873 9.78001 116.263 9.34001 115.583 9.02001C114.923 8.70001 114.253 8.54001 113.573 8.54001C112.813 8.54001 112.113 8.71001 111.473 9.05001C110.853 9.37001 110.313 9.81001 109.853 10.37C109.413 10.93 109.073 11.56 108.833 12.26C108.593 12.96 108.473 13.68 108.473 14.42C108.473 15.2 108.603 15.94 108.863 16.64C109.143 17.34 109.523 17.96 110.003 18.5C110.503 19.04 111.073 19.46 111.713 19.76C112.373 20.06 113.083 20.21 113.843 20.21C114.323 20.21 114.823 20.12 115.343 19.94C115.863 19.76 116.353 19.51 116.813 19.19C117.273 18.87 117.663 18.5 117.983 18.08C118.303 17.64 118.503 17.18 118.583 16.7V12.2ZM150.531 8.21001V22.19H154.671V0.890015H150.261L143.901 13.01L137.601 0.890015H133.161V22.19H137.301V8.21001L142.761 18.62H145.071L150.531 8.21001ZM197.379 21.83C198.599 22.27 199.879 22.49 201.219 22.49C203.139 22.49 204.669 22.05 205.809 21.17C206.949 20.29 207.519 19.07 207.519 17.51C207.519 16.55 207.299 15.8 206.859 15.26C206.419 14.7 205.759 14.23 204.879 13.85C204.019 13.47 202.959 13.1 201.699 12.74C201.079 12.54 200.549 12.36 200.109 12.2C199.689 12.04 199.369 11.86 199.149 11.66C198.949 11.44 198.849 11.14 198.849 10.76C198.849 10.34 198.959 10.02 199.179 9.80001C199.419 9.56001 199.719 9.39001 200.079 9.29002C200.459 9.19001 200.859 9.14001 201.279 9.14001C202.019 9.14001 202.749 9.29001 203.469 9.59001C204.189 9.87001 204.949 10.32 205.749 10.94L207.369 8.39001C206.549 7.61001 205.639 7.05001 204.639 6.71001C203.639 6.35001 202.579 6.17001 201.459 6.17001C200.179 6.17001 199.059 6.38001 198.099 6.80002C197.159 7.22002 196.419 7.81001 195.879 8.57001C195.359 9.31001 195.099 10.2 195.099 11.24C195.099 12.1 195.289 12.81 195.669 13.37C196.069 13.91 196.659 14.36 197.439 14.72C198.219 15.08 199.189 15.45 200.349 15.83C201.049 16.03 201.639 16.21 202.119 16.37C202.619 16.53 202.999 16.72 203.259 16.94C203.519 17.14 203.649 17.43 203.649 17.81C203.649 18.37 203.409 18.79 202.929 19.07C202.469 19.35 201.849 19.49 201.069 19.49C200.229 19.49 199.349 19.31 198.429 18.95C197.529 18.59 196.609 18.03 195.669 17.27L194.229 19.88C195.109 20.74 196.159 21.39 197.379 21.83ZM182.295 21.68C183.235 22.22 184.315 22.49 185.535 22.49C186.875 22.49 188.055 22.13 189.075 21.41C190.115 20.67 190.925 19.68 191.505 18.44C192.105 17.2 192.405 15.82 192.405 14.3C192.405 13.18 192.215 12.14 191.835 11.18C191.475 10.2 190.965 9.34001 190.305 8.60001C189.645 7.84001 188.865 7.25001 187.965 6.83001C187.085 6.41001 186.115 6.20001 185.055 6.20001C183.875 6.20001 182.825 6.47001 181.905 7.01001C180.985 7.53001 180.225 8.25001 179.625 9.17001V6.47001H176.115V28.58H180.135V19.43C180.655 20.37 181.375 21.12 182.295 21.68ZM185.865 18.68C185.365 18.94 184.805 19.07 184.185 19.07C183.625 19.07 183.075 18.94 182.535 18.68C181.995 18.4 181.515 18.02 181.095 17.54C180.695 17.06 180.375 16.53 180.135 15.95V12.26C180.255 11.88 180.445 11.53 180.705 11.21C180.985 10.89 181.305 10.61 181.665 10.37C182.025 10.13 182.395 9.95001 182.775 9.83001C183.175 9.69001 183.565 9.62001 183.945 9.62001C184.565 9.62001 185.135 9.74001 185.655 9.98001C186.195 10.22 186.665 10.56 187.065 11C187.465 11.42 187.765 11.91 187.965 12.47C188.185 13.03 188.295 13.64 188.295 14.3C188.295 14.92 188.195 15.52 187.995 16.1C187.815 16.66 187.535 17.17 187.155 17.63C186.795 18.07 186.365 18.42 185.865 18.68ZM168.453 22.19V20C167.853 20.84 167.093 21.47 166.173 21.89C165.253 22.29 164.243 22.49 163.143 22.49C162.143 22.49 161.233 22.28 160.413 21.86C159.593 21.42 158.943 20.82 158.463 20.06C158.003 19.3 157.773 18.45 157.773 17.51C157.773 16.71 157.953 15.99 158.313 15.35C158.673 14.71 159.163 14.18 159.783 13.76C160.403 13.32 161.113 12.99 161.913 12.77C162.733 12.55 163.583 12.44 164.463 12.44C165.303 12.44 166.053 12.51 166.713 12.65C167.373 12.79 167.903 12.95 168.303 13.13V12.23C168.303 11.21 168.003 10.42 167.403 9.86001C166.823 9.28001 165.953 8.99001 164.793 8.99001C163.973 8.99001 163.153 9.14001 162.333 9.44001C161.533 9.74001 160.713 10.18 159.873 10.76L158.643 8.21001C159.623 7.57001 160.653 7.08001 161.733 6.74001C162.813 6.38001 163.963 6.20001 165.183 6.20001C166.723 6.20001 168.023 6.46001 169.083 6.98001C170.143 7.48001 170.943 8.22001 171.483 9.20001C172.043 10.16 172.323 11.32 172.323 12.68V22.19H168.453ZM167.643 18.23C168.083 17.85 168.303 17.47 168.303 17.09V15.29C167.803 15.09 167.273 14.94 166.713 14.84C166.153 14.74 165.623 14.69 165.123 14.69C164.683 14.69 164.253 14.74 163.833 14.84C163.413 14.94 163.033 15.1 162.693 15.32C162.353 15.52 162.083 15.78 161.883 16.1C161.683 16.4 161.583 16.76 161.583 17.18C161.583 17.64 161.703 18.05 161.943 18.41C162.203 18.77 162.533 19.05 162.933 19.25C163.353 19.45 163.803 19.55 164.283 19.55C164.703 19.55 165.123 19.5 165.543 19.4C165.963 19.3 166.353 19.16 166.713 18.98C167.093 18.78 167.403 18.53 167.643 18.23ZM100.017 22.19H102.657V12.83C102.657 11.89 102.577 11.02 102.417 10.22C102.277 9.42001 102.027 8.73001 101.667 8.15001C101.327 7.55001 100.847 7.09001 100.227 6.77001C99.6274 6.43001 98.8774 6.26001 97.9774 6.26001C97.0574 6.26001 96.1775 6.41001 95.3374 6.71001C94.4975 7.01001 93.7475 7.43001 93.0874 7.97001C92.4274 8.51001 91.8874 9.15001 91.4674 9.89001V6.53001H89.0674V22.19H91.7074V12.74C91.9474 11.94 92.3374 11.24 92.8774 10.64C93.4374 10.02 94.0675 9.53001 94.7674 9.17001C95.4874 8.81001 96.2074 8.63001 96.9274 8.63001C97.9674 8.63001 98.7374 9.02001 99.2374 9.80001C99.7574 10.56 100.017 11.77 100.017 13.43V22.19ZM75.6647 0.890015H77.9447L86.6447 22.19H83.7647L81.2447 15.95H72.3047L69.8147 22.19H66.9347L75.6647 0.890015ZM80.6447 13.85L76.8047 4.01002L72.8447 13.85H80.6447ZM62.0199 22.19H64.6599V12.83C64.6599 11.89 64.5799 11.02 64.4199 10.22C64.2599 9.42001 63.9999 8.73001 63.6399 8.15001C63.2799 7.55001 62.7899 7.09001 62.1699 6.77001C61.5699 6.43001 60.8199 6.26001 59.9199 6.26001C58.6399 6.26001 57.4999 6.59001 56.4999 7.25001C55.4999 7.89001 54.6499 8.83001 53.9499 10.07C53.7699 8.95001 53.2899 8.04001 52.5099 7.34001C51.7299 6.62001 50.6899 6.26001 49.3899 6.26001C48.1099 6.26001 46.9599 6.58001 45.9399 7.22001C44.9199 7.84001 44.0899 8.73001 43.4499 9.89001V6.53001H41.0499V22.19H43.6899V12.74C44.0499 11.5 44.6599 10.51 45.5199 9.77001C46.3999 9.01001 47.3599 8.63001 48.3999 8.63001C49.4399 8.63001 50.2199 9.02001 50.7399 9.80001C51.2599 10.56 51.5199 11.77 51.5199 13.43V22.19H54.1599V12.77C54.5199 11.55 55.1299 10.56 55.9899 9.80001C56.8499 9.02001 57.8099 8.63001 58.8699 8.63001C59.9099 8.63001 60.6899 9.02001 61.2099 9.80001C61.7499 10.58 62.0199 11.79 62.0199 13.43V22.19ZM31.7714 22.49C30.4714 22.49 29.2514 22.28 28.1114 21.86C26.9714 21.42 25.9914 20.77 25.1714 19.91L26.1914 18.05C27.0914 18.89 27.9914 19.49 28.8914 19.85C29.7914 20.21 30.7114 20.39 31.6514 20.39C32.7314 20.39 33.6114 20.19 34.2914 19.79C34.9714 19.37 35.3114 18.76 35.3114 17.96C35.3114 17.38 35.1314 16.95 34.7714 16.67C34.4314 16.39 33.9414 16.16 33.3014 15.98C32.6614 15.78 31.9014 15.56 31.0214 15.32C29.9414 15 29.0314 14.66 28.2914 14.3C27.5514 13.94 26.9914 13.49 26.6114 12.95C26.2314 12.41 26.0414 11.73 26.0414 10.91C26.0414 9.91001 26.3014 9.07001 26.8214 8.39001C27.3414 7.69001 28.0514 7.16001 28.9514 6.80001C29.8714 6.44001 30.9114 6.26001 32.0714 6.26001C33.2314 6.26001 34.2814 6.44001 35.2214 6.80001C36.1614 7.16001 36.9714 7.69001 37.6514 8.39001L36.4514 10.22C35.8314 9.58001 35.1514 9.11001 34.4114 8.81001C33.6714 8.49001 32.8414 8.33001 31.9214 8.33001C31.3814 8.33001 30.8514 8.40001 30.3314 8.54001C29.8114 8.66001 29.3814 8.89001 29.0414 9.23001C28.7014 9.55001 28.5314 10.01 28.5314 10.61C28.5314 11.11 28.6614 11.51 28.9214 11.81C29.2014 12.09 29.6014 12.33 30.1214 12.53C30.6614 12.73 31.3114 12.95 32.0714 13.19C33.2514 13.53 34.2714 13.87 35.1314 14.21C36.0114 14.55 36.6914 14.99 37.1714 15.53C37.6514 16.07 37.8914 16.82 37.8914 17.78C37.8914 19.26 37.3314 20.42 36.2114 21.26C35.0914 22.08 33.6114 22.49 31.7714 22.49ZM8.94 21.44C10.16 22.04 11.52 22.34 13.02 22.34C14.46 22.34 15.79 22.05 17.01 21.47C18.23 20.89 19.29 20.1 20.19 19.1C21.11 18.08 21.82 16.93 22.32 15.65C22.82 14.35 23.07 12.99 23.07 11.57C23.07 10.23 22.83 8.92002 22.35 7.64002C21.87 6.36002 21.19 5.20002 20.31 4.16002C19.43 3.12002 18.38 2.29002 17.16 1.67002C15.94 1.05002 14.58 0.740021 13.08 0.740021C11.64 0.740021 10.31 1.04002 9.09 1.64002C7.87 2.22002 6.8 3.02002 5.88 4.04002C4.98 5.04002 4.27 6.19002 3.75 7.49002C3.25 8.77002 3 10.12 3 11.54C3 12.9 3.24 14.23 3.72 15.53C4.2 16.81 4.88 17.97 5.76 19.01C6.66 20.03 7.72 20.84 8.94 21.44ZM6.24 14.69C5.9 13.67 5.73 12.62 5.73 11.54C5.73 10.5 5.9 9.49002 6.24 8.51002C6.58 7.51002 7.06 6.61002 7.68 5.81002C8.32 5.01002 9.09 4.38002 9.99 3.92002C10.89 3.44002 11.91 3.20002 13.05 3.20002C14.13 3.20002 15.11 3.43002 15.99 3.89002C16.89 4.33002 17.66 4.95002 18.3 5.75002C18.96 6.53002 19.46 7.42002 19.8 8.42002C20.16 9.42002 20.34 10.46 20.34 11.54C20.34 12.56 20.17 13.57 19.83 14.57C19.51 15.57 19.03 16.47 18.39 17.27C17.77 18.07 17.01 18.71 16.11 19.19C15.21 19.67 14.19 19.91 13.05 19.91C11.95 19.91 10.95 19.68 10.05 19.22C9.15 18.76 8.38 18.14 7.74 17.36C7.1 16.58 6.6 15.69 6.24 14.69Z" fill="#5714CC"/>
<path fill-rule="evenodd" clip-rule="evenodd" d="M85.2595 38.58H125.26C134.648 38.58 142.26 46.1912 142.26 55.58C142.26 64.9689 134.648 72.58 125.26 72.58H85.2595C75.8707 72.58 68.2595 64.9689 68.2595 55.58C68.2595 46.1912 75.8707 38.58 85.2595 38.58ZM85.2595 40.58C76.9753 40.58 70.2595 47.2957 70.2595 55.58C70.2595 63.8643 76.9753 70.58 85.2595 70.58H125.26C133.544 70.58 140.26 63.8643 140.26 55.58C140.26 47.2957 133.544 40.58 125.26 40.58H85.2595Z" fill="#5C70EF" fill-opacity="0.15"/>
<path d="M88.0588 48.9967C90.1838 48.9967 91.5115 49.9734 93.7255 49.705C94.3086 49.6344 95.0427 49.4486 95.6175 49.285C96.0831 49.1525 96.5588 49.4976 96.5588 49.9817V58.6029C96.5588 59.2116 96.1705 59.7536 95.5848 59.9193C95.015 60.0805 94.2976 60.2607 93.7255 60.33C91.5115 60.5984 90.1838 59.6217 88.0588 59.6217V62.455C88.0588 62.8462 87.7417 63.1634 87.3505 63.1634H85.9338C85.5426 63.1634 85.2255 62.8462 85.2255 62.455V50.081C85.2255 49.756 85.4465 49.4719 85.7609 49.3897C86.5144 49.1926 87.2815 48.9967 88.0588 48.9967Z" fill="url(#paint0_linear_520_1498)"/>
<path d="M88.0588 51.4758C88.0005 51.4758 87.8748 51.4879 87.7046 51.5104V57.1425H88.0588C89.4814 57.1425 90.6696 57.4807 91.4392 57.6661C92.2387 57.8587 92.7725 57.9482 93.4273 57.8688L93.7379 57.819C93.8449 57.7988 93.9597 57.7744 94.0796 57.7471V52.1579L94.0236 52.1662C92.4644 52.3551 91.227 52.0905 90.2778 51.8618C89.299 51.626 88.761 51.4758 88.0588 51.4758Z" fill="url(#paint1_linear_520_1498)"/>
<path d="M123.743 53.1523C124.425 53.1523 125.034 53.2692 125.567 53.5038C126.111 53.7278 126.575 54.043 126.958 54.4482C127.342 54.8534 127.631 55.3173 127.823 55.8398C128.025 56.3623 128.127 56.9173 128.127 57.5038C128.127 58.0798 128.025 58.6296 127.823 59.1523C127.631 59.6749 127.342 60.1386 126.958 60.5439C126.585 60.9492 126.126 61.2692 125.583 61.5038C125.039 61.7278 124.425 61.8398 123.743 61.8398C123.06 61.8398 122.447 61.7278 121.903 61.5038C121.359 61.2692 120.895 60.9492 120.511 60.5439C120.138 60.1386 119.85 59.6749 119.647 59.1523C119.444 58.6296 119.343 58.0798 119.343 57.5038C119.343 56.9173 119.444 56.3623 119.647 55.8398C119.85 55.3173 120.138 54.8534 120.511 54.4482C120.895 54.0429 121.359 53.7278 121.903 53.5038C122.447 53.2692 123.06 53.1523 123.743 53.1523ZM108.208 50.3203C108.731 50.3203 109.211 50.4273 109.648 50.6406C110.085 50.8538 110.464 51.1414 110.784 51.5038C111.114 51.8665 111.371 52.2726 111.552 52.7206C111.733 53.1685 111.824 53.6274 111.824 54.0966C111.824 54.7363 111.675 55.3441 111.376 55.9199C111.078 56.4958 110.667 56.9654 110.144 57.3281C109.621 57.6906 109.003 57.8719 108.289 57.872H105.6V61.6806H103.392V50.3203H108.208ZM118.305 53.1845C118.369 53.1845 118.422 53.1896 118.464 53.2001V55.1523C117.814 55.1523 117.233 55.2803 116.721 55.5361C116.209 55.7814 115.841 56.139 115.617 56.6083V61.6806H113.473V53.2958H115.441V55.0878C115.74 54.5121 116.118 54.059 116.577 53.7285C117.035 53.3978 117.521 53.2165 118.033 53.1845H118.305ZM123.743 54.9765C123.327 54.9766 122.953 55.0885 122.623 55.3124C122.292 55.5257 122.031 55.8243 121.839 56.2079C121.647 56.5812 121.551 57.0133 121.551 57.5038C121.551 57.9945 121.647 58.4323 121.839 58.8163C122.031 59.1895 122.292 59.483 122.623 59.6962C122.953 59.9095 123.327 60.0165 123.743 60.0165C124.148 60.0165 124.517 59.9096 124.847 59.6962C125.178 59.4722 125.439 59.173 125.631 58.7997C125.834 58.4159 125.935 57.9787 125.935 57.4882C125.935 57.0083 125.834 56.5763 125.631 56.1923C125.439 55.8083 125.178 55.5092 124.847 55.2958C124.517 55.0825 124.148 54.9765 123.743 54.9765ZM105.6 55.9365H108.16C108.426 55.9365 108.667 55.8612 108.88 55.7119C109.094 55.5625 109.264 55.3494 109.392 55.0722C109.52 54.7843 109.584 54.4591 109.584 54.0966C109.584 53.702 109.509 53.3652 109.36 53.0878C109.221 52.8107 109.035 52.6024 108.8 52.4638C108.576 52.3252 108.331 52.2558 108.064 52.2558H105.6V55.9365Z" fill="#5714CC"/>
</g>
<defs>
<linearGradient id="paint0_linear_520_1498" x1="96.5588" y1="55.3717" x2="85.2255" y2="55.3717" gradientUnits="userSpaceOnUse">
<stop stop-color="#A379EC"/>
<stop offset="0.0817308" stop-color="#844CE6"/>
<stop offset="0.336538" stop-color="#5714CC"/>
<stop offset="0.625" stop-color="#844CE6"/>
<stop offset="1" stop-color="#5714CC"/>
</linearGradient>
<linearGradient id="paint1_linear_520_1498" x1="87.7046" y1="54.3468" x2="94.0796" y2="54.3468" gradientUnits="userSpaceOnUse">
<stop stop-color="#FFC30D"/>
<stop offset="0.725962" stop-color="#CC9900"/>
<stop offset="1" stop-color="#FFC30D"/>
</linearGradient>
<clipPath id="clip0_520_1498">
<rect width="210.519" height="73" fill="white" transform="translate(0 0.290009)"/>
</clipPath>
</defs>
</svg>
