<svg width="375" height="90" viewBox="0 0 375 90" fill="none" xmlns="http://www.w3.org/2000/svg">
<g clip-path="url(#clip0_1776_46)">
<path d="M0 0H375V90H0V0Z" fill="white"/>
<path d="M159 0H273V90H159V0Z" fill="#DFE0E2"/>
<path d="M103 90H97V0H103V90Z" fill="#C1C4C8"/>
<path d="M279 90H273V0H279V90Z" fill="#C1C4C8"/>
<path d="M103 0H159V90H103V0Z" fill="#237BFF"/>
<path d="M217 87H215V75H217V87Z" fill="#AEB2B7"/>
<path d="M217 63H215V51H217V63Z" fill="#AEB2B7"/>
<path d="M217 39H215V27H217V39Z" fill="#AEB2B7"/>
<path d="M217 15H215V3H217V15Z" fill="#AEB2B7"/>
<path fill-rule="evenodd" clip-rule="evenodd" d="M124 67C126.761 67 129 69.2386 129 72C129 74.7614 126.761 77 124 77C121.239 77 119 74.7614 119 72C119 69.2386 121.239 67 124 67ZM124 69C122.343 69 121 70.3431 121 72C121 73.6569 122.343 75 124 75C125.657 75 127 73.6569 127 72C127 70.3431 125.657 69 124 69Z" fill="white"/>
<path fill-rule="evenodd" clip-rule="evenodd" d="M138 67C140.761 67 143 69.2386 143 72C143 74.7614 140.761 77 138 77C135.239 77 133 74.7614 133 72C133 69.2386 135.239 67 138 67ZM138 69C136.343 69 135 70.3431 135 72C135 73.6569 136.343 75 138 75C139.657 75 141 73.6569 141 72C141 70.3431 139.657 69 138 69Z" fill="white"/>
<path d="M131 60C131.6 60 132.1 60.1998 132.6 60.5996L134.5 62.5C135.4 63.3999 136.6 63.9999 138.1 64V66C136 65.9999 134.3 65.2002 133 63.9004L132.2 63.0996L129.8 65.5L132 67.7998V74H130V69L126.8 66.2002C126.4 65.9002 126.2 65.3998 126.2 64.7998C126.2 64.3 126.4 63.8003 126.8 63.4004L129.6 60.5996C129.9 60.1997 130.4 60 131 60Z" fill="white"/>
<path d="M134.5 56.5C135.6 56.5 136.5 57.4 136.5 58.5C136.5 59.6 135.6 60.5 134.5 60.5C133.4 60.5 132.5 59.6 132.5 58.5C132.5 57.4 133.4 56.5 134.5 56.5Z" fill="white"/>
<path d="M107 34.5615L107.321 34.2656L113.821 28.2656L115.179 29.7344L110.558 34H151.442L146.821 29.7344L148.179 28.2656L154.679 34.2656L155 34.5615V28H157V42H155V35.4375L148.179 41.7344L146.821 40.2656L151.442 36H110.558L115.179 40.2656L113.821 41.7344L107 35.4375V42H105V28H107V34.5615Z" fill="#FFDD00"/>
</g>
<defs>
<clipPath id="clip0_1776_46">
<rect width="375" height="90" fill="white"/>
</clipPath>
</defs>
</svg>
