<svg width="30" height="30" viewBox="0 0 30 30" fill="none" xmlns="http://www.w3.org/2000/svg">
<path opacity="0.4" d="M27 9V8.99855C24.2633 5.35603 19.9068 3 15 3C10.0932 3 5.73669 5.35603 3 8.99854V9L10.535 16.8774L12.4518 11.7659C12.8501 10.7037 13.8656 10 15 10C16.1344 10 17.1499 10.7037 17.5482 11.7659L19.465 16.8775L27 9Z" fill="#FF8800"/>
<path d="M27 8.99855V9L25.5965 10.4673C23.2399 7.15819 19.372 5 15 5C10.628 5 6.76011 7.15819 4.40352 10.4673L3 9V8.99854C5.73669 5.35603 10.0932 3 15 3C19.9068 3 24.2633 5.35603 27 8.99855Z" fill="#FF8800"/>
<path fill-rule="evenodd" clip-rule="evenodd" d="M15 25.5135L11.9155 26.7858C11.5727 26.9272 11.2055 27 10.8346 27C9.2691 27 8 25.7309 8 24.1654V24.1535C8 23.8122 8.06139 23.4736 8.18124 23.154L12.4518 11.7659C12.8501 10.7037 13.8656 10 15 10C16.1344 10 17.1499 10.7037 17.5482 11.7659L21.8188 23.154C21.9386 23.4736 22 23.8122 22 24.1535V24.1654C22 25.7309 20.7309 27 19.1654 27C18.7945 27 18.4273 26.9272 18.0845 26.7858L15 25.5135ZM15 23.35L11.1529 24.9369C11.0519 24.9786 10.9438 25 10.8346 25C10.3737 25 10 24.6263 10 24.1654V24.1535C10 24.052 10.0183 23.9513 10.0539 23.8563L14.3244 12.4682C14.43 12.1866 14.6992 12 15 12C15.3008 12 15.57 12.1866 15.6756 12.4682L19.9461 23.8563C19.9817 23.9513 20 24.052 20 24.1535V24.1654C20 24.6263 19.6263 25 19.1654 25C19.0562 25 18.9481 24.9786 18.8471 24.9369L15 23.35Z" fill="#FF8800"/>
<path opacity="0.6" d="M19.1654 25C19.6263 25 20 24.6263 20 24.1654V24.1535C20 24.052 19.9817 23.9513 19.9461 23.8563L15.6756 12.4682C15.57 12.1866 15.3008 12 15 12V23.35L18.8471 24.9369C18.9481 24.9786 19.0562 25 19.1654 25Z" fill="#FF8800"/>
</svg>
