<svg width="30" height="30" viewBox="0 0 30 30" fill="none" xmlns="http://www.w3.org/2000/svg">
<path d="M9.80005 13.9999C9.91039 14.0001 10.0002 14.0897 10.0002 14.2001V15.7997C10.0002 15.9101 9.91039 15.9998 9.80005 15.9999H8.20044C8.08998 15.9999 8.00024 15.9102 8.00024 15.7997V14.2001C8.00024 14.0897 8.08998 13.9999 8.20044 13.9999H9.80005Z" fill="#FF8800"/>
<path d="M9.80005 9.99992C9.91039 10.0001 10.0002 10.0897 10.0002 10.2001V11.7997C10.0002 11.9101 9.91039 11.9998 9.80005 11.9999H8.20044C8.08998 11.9999 8.00024 11.9102 8.00024 11.7997V10.2001C8.00024 10.0897 8.08998 9.99992 8.20044 9.99992H9.80005Z" fill="#FF8800"/>
<path d="M13.8 9.99992C13.9104 10.0001 14.0002 10.0897 14.0002 10.2001V11.7997C14.0002 11.9101 13.9104 11.9998 13.8 11.9999H12.2004C12.09 11.9999 12.0002 11.9102 12.0002 11.7997V10.2001C12.0002 10.0897 12.09 9.99992 12.2004 9.99992H13.8Z" fill="#FF8800"/>
<path fill-rule="evenodd" clip-rule="evenodd" d="M25.2932 3.29289C25.6837 2.90237 26.3168 2.90237 26.7073 3.29289C27.0976 3.68344 27.0977 4.31651 26.7073 4.70696L4.70728 26.707C4.31683 27.0974 3.68376 27.0973 3.29321 26.707C2.90269 26.3164 2.90269 25.6834 3.29321 25.2929L4.82837 23.7568C3.75433 23.3008 3.00024 22.2405 3.00024 20.9999V8.99992C3.00024 7.34307 4.34339 5.99992 6.00024 5.99992H22.5862L25.2932 3.29289ZM6.00024 7.99992C5.44796 7.99992 5.00024 8.44764 5.00024 8.99992V20.9999C5.00024 21.5522 5.44796 21.9999 6.00024 21.9999H6.58618L12.5862 15.9999H12.2004C12.09 15.9999 12.0002 15.9102 12.0002 15.7997V14.2001C12.0002 14.0897 12.09 13.9999 12.2004 13.9999H13.8C13.9104 14.0001 14.0002 14.0897 14.0002 14.2001V14.5859L16.5862 11.9999H16.2004C16.09 11.9999 16.0002 11.9102 16.0002 11.7997V10.2001C16.0002 10.0897 16.09 9.99992 16.2004 9.99992H17.8C17.9104 10.0001 18.0002 10.0897 18.0002 10.2001V10.5859L20.5862 7.99992H6.00024Z" fill="#FF8800"/>
<path d="M26.8264 8.0009C26.937 8.31369 27.0002 8.64928 27.0002 8.99992V20.9999C27.0002 22.6567 25.657 23.9998 24.0002 23.9999H10.8284L12.8284 21.9999H24.0002C24.5524 21.9998 25.0002 21.5521 25.0002 20.9999V9.82805L26.8264 8.0009Z" fill="#FF8800"/>
<path d="M19.0002 17.9999C19.5524 18.0001 20.0002 18.4477 20.0002 18.9999C20.0002 19.5521 19.5524 19.9998 19.0002 19.9999H14.8284L16.8284 17.9999H19.0002Z" fill="#FF8800"/>
<path d="M21.8 13.9999C21.9104 14.0001 22.0002 14.0897 22.0002 14.2001V15.7997C22.0002 15.9101 21.9104 15.9998 21.8 15.9999H20.2004C20.09 15.9999 20.0002 15.9102 20.0002 15.7997V14.828L20.8284 13.9999H21.8Z" fill="#FF8800"/>
</svg>
