<svg width="30" height="30" viewBox="0 0 30 30" fill="none" xmlns="http://www.w3.org/2000/svg">
<path d="M9 16C9.55228 16 10 15.5523 10 15C10 14.4477 9.55228 14 9 14H6.41421L12.7071 7.70711C13.0976 7.31658 13.0976 6.68342 12.7071 6.29289C12.3166 5.90237 11.6834 5.90237 11.2929 6.29289L5 12.5858V10C5 9.44772 4.55228 9 4 9C3.44771 9 3 9.44772 3 10V15C3 15.5523 3.44771 16 4 16H9Z" fill="#FF8800"/>
<path d="M25 24C26.1046 24 27 23.1046 27 22V7.41421C27 6.63317 26.3668 6 25.5858 6C25.2107 6 24.851 6.149 24.5858 6.41421L9.41421 21.5858C9.149 21.851 9 22.2107 9 22.5858C9 23.3668 9.63316 24 10.4142 24H25Z" fill="#FF8800"/>
</svg>
