<svg width="30" height="30" viewBox="0 0 30 30" fill="none" xmlns="http://www.w3.org/2000/svg">
<path d="M6 16.4003C4.21916 15.4899 3 13.6373 3 11.5C3 8.46243 5.46243 6 8.5 6C11.0963 6 13.2724 7.79895 13.8499 10.2184L23.8562 14.9582C24.5547 15.2891 25 15.9928 25 16.7657V24C25 24.5523 24.5523 25 24 25H7C6.44772 25 6 24.5523 6 24V16.4003Z" fill="#373737"/>
<path d="M8 11L23 18V23H8V11Z" fill="url(#paint0_linear_1903_16632)"/>
<path opacity="0.1" d="M8 16.9776V11L13.5827 13.6053C12.7563 15.5982 10.7918 17 8.5 17C8.33146 17 8.16468 16.9924 8 16.9776Z" fill="black"/>
<path fill-rule="evenodd" clip-rule="evenodd" d="M12.967 13.3309C13.1985 12.8295 13.7926 12.6106 14.2941 12.842L17.5441 14.342C18.0455 14.5735 18.2644 15.1676 18.033 15.6691C17.8015 16.1705 17.2074 16.3894 16.7059 16.158L13.4559 14.658C12.9545 14.4265 12.7356 13.8324 12.967 13.3309ZM19.467 16.3309C19.6985 15.8295 20.2926 15.6106 20.7941 15.842L22.4191 16.592C22.9205 16.8235 23.1394 17.4176 22.908 17.9191C22.6765 18.4205 22.0824 18.6394 21.5809 18.408L19.9559 17.658C19.4545 17.4265 19.2356 16.8324 19.467 16.3309Z" fill="#FFC107"/>
<path fill-rule="evenodd" clip-rule="evenodd" d="M12 11.5C12 13.433 10.433 15 8.5 15C6.567 15 5 13.433 5 11.5C5 9.567 6.567 8 8.5 8C10.433 8 12 9.567 12 11.5Z" fill="white"/>
<path d="M10 11.5C10 12.3284 9.32843 13 8.5 13C7.67157 13 7 12.3284 7 11.5C7 10.6716 7.67157 10 8.5 10C9.32843 10 10 10.6716 10 11.5Z" fill="#237BFF"/>
<defs>
<linearGradient id="paint0_linear_1903_16632" x1="15.5" y1="14" x2="15.5" y2="23" gradientUnits="userSpaceOnUse">
<stop stop-color="#2E9E7A"/>
<stop offset="1" stop-color="#2E9E7A"/>
</linearGradient>
</defs>
</svg>
