<svg width="24" height="24" viewBox="0 0 24 24" fill="none" xmlns="http://www.w3.org/2000/svg">
<g id="ic_custom_external_link">
<g id="Union">
<path d="M6.4 4C5.07452 4 4 5.07452 4 6.4V17.6C4 18.9255 5.07452 20 6.4 20H17.6C18.9255 20 20 18.9255 20 17.6V13.6C20 13.1582 19.6418 12.8 19.2 12.8C18.7582 12.8 18.4 13.1582 18.4 13.6V17.6C18.4 18.0418 18.0418 18.4 17.6 18.4H6.4C5.95817 18.4 5.6 18.0418 5.6 17.6V6.4C5.6 5.95817 5.95817 5.6 6.4 5.6H10.4C10.8418 5.6 11.2 5.24183 11.2 4.8C11.2 4.35817 10.8418 4 10.4 4H6.4Z" fill="black"/>
<path d="M14.4 4C13.9582 4 13.6 4.35817 13.6 4.8C13.6 5.24183 13.9582 5.6 14.4 5.6H17.2687L11.4344 11.4343C11.1219 11.7467 11.1219 12.2533 11.4344 12.5657C11.7468 12.8781 12.2533 12.8781 12.5657 12.5657L18.4 6.73137V9.6C18.4 10.0418 18.7582 10.4 19.2 10.4C19.6419 10.4 20 10.0418 20 9.6V4.8C20 4.35817 19.6419 4 19.2 4H14.4Z" fill="black"/>
</g>
</g>
</svg>
