<svg width="180" height="100" viewBox="0 0 180 100" fill="none" xmlns="http://www.w3.org/2000/svg">
<path d="M25.6 100C16.6392 100 12.1587 100 8.73615 98.2561C5.72555 96.7221 3.27787 94.2744 1.74389 91.2638C-3.45707e-06 87.8413 -2.31095e-06 83.3608 5.33429e-09 74.4L1.26196e-05 25.6C1.49359e-05 16.6392 1.60933e-05 12.1587 1.74391 8.73615C3.27789 5.72556 5.72557 3.27787 8.73617 1.74389C12.1588 -3.57628e-07 16.6392 -2.23313e-07 25.6 1.59961e-10L154.4 3.18734e-06C163.361 3.41081e-06 167.841 3.57628e-06 171.264 1.7439C174.274 3.27787 176.722 5.72556 178.256 8.73615C180 12.1587 180 16.6392 180 25.6L180 74.4C180 83.3608 180 87.8413 178.256 91.2638C176.722 94.2744 174.274 96.7221 171.264 98.2561C167.841 100 163.361 100 154.4 100L25.6 100Z" fill="#575062"/>
<path d="M23.2 96C16.4794 96 13.1191 96 10.5521 94.6921C8.29417 93.5416 6.4584 91.7058 5.30792 89.4479C4 86.8809 4 83.5206 4 76.8L4 23.2C4 16.4794 4 13.1191 5.30792 10.5521C6.4584 8.29417 8.29417 6.4584 10.5521 5.30792C13.1191 4 16.4794 4 23.2 4L156.8 4C163.521 4 166.881 4 169.448 5.30792C171.706 6.4584 173.542 8.29417 174.692 10.5521C176 13.1191 176 16.4794 176 23.2V76.8C176 83.5206 176 86.881 174.692 89.4479C173.542 91.7058 171.706 93.5416 169.448 94.6921C166.881 96 163.521 96 156.8 96H23.2Z" fill="#162537"/>
<path d="M13 60C11.3431 60 10 58.6569 10 57L10 43C10 41.3431 11.3431 40 13 40C14.6569 40 16 41.3431 16 43V57C16 58.6569 14.6569 60 13 60Z" fill="#575062"/>
<path d="M162 80C163.105 80 164 80.8954 164 82V88C164 89.1046 163.105 90 162 90H24C22.8954 90 22 89.1046 22 88V82C22 80.8954 22.8954 80 24 80H162Z" fill="#E5BF00"/>
<path d="M162 33C163.105 33 164 33.8954 164 35V40C164 41.1046 163.105 42 162 42H140C138.895 42 138 41.1046 138 40V35C138 33.8954 138.895 33 140 33H162Z" fill="#E5BF00"/>
<path d="M162 9C163.105 9 164 9.89543 164 11V28C164 29.1046 163.105 30 162 30H24C22.8954 30 22 29.1046 22 28V11C22 9.89543 22.8954 9 24 9H162Z" fill="#E5BF00"/>
<path d="M29.9999 67C31.1044 67 31.9999 67.8954 31.9999 69V75C31.9999 76.1046 31.1044 77 29.9999 77H23.9999C22.8953 77 21.9999 76.1046 21.9999 75V69C21.9999 67.8954 22.8953 67 23.9999 67H29.9999Z" fill="#EDF2F8"/>
<path d="M146 67C148.761 67 151 69.2386 151 72C151 74.7614 148.761 77 146 77C143.238 77 141 74.7614 141 72C141 69.2386 143.238 67 146 67Z" fill="#EDF2F8"/>
<path d="M159 67C161.761 67 164 69.2386 164 72C164 74.7614 161.761 77 159 77C156.238 77 154 74.7614 154 72C154 69.2386 156.238 67 159 67Z" fill="#EDF2F8"/>
<path d="M159 54C161.761 54 164 56.2386 164 59C164 61.7614 161.761 64 159 64C156.238 64 154 61.7614 154 59C154 56.2386 156.238 54 159 54Z" fill="#EDF2F8"/>
<path d="M26.9999 46C29.7613 46 31.9999 48.2386 31.9999 51C31.9999 53.7614 29.7613 56 26.9999 56C24.2385 56 21.9999 53.7614 21.9999 51C21.9999 48.2386 24.2385 46 26.9999 46Z" fill="#EDF2F8"/>
<path d="M26.9999 33C29.7613 33 31.9999 35.2386 31.9999 38C31.9999 40.7614 29.7613 43 26.9999 43C24.2385 43 21.9999 40.7614 21.9999 38C21.9999 35.2386 24.2385 33 26.9999 33Z" fill="#EDF2F8"/>
<path d="M39.9999 33C42.7613 33 44.9999 35.2386 44.9999 38C44.9999 40.7614 42.7613 43 39.9999 43C37.2385 43 34.9999 40.7614 34.9999 38C34.9999 35.2386 37.2385 33 39.9999 33Z" fill="#EDF2F8"/>
</svg>
