<svg width="30" height="30" viewBox="0 0 30 30" fill="none" xmlns="http://www.w3.org/2000/svg">
<path fill-rule="evenodd" clip-rule="evenodd" d="M15 7.44629C13.9275 6.53418 12.5446 6 11.068 6C7.71672 6 5 8.71672 5 12.068V13C5 15.9677 6.86453 18.4156 8.53656 20.0547C10.2707 21.7546 12.1945 22.9707 13.0527 23.4772C13.6744 23.8441 14.3521 24 15 24C15.6479 24 16.3256 23.8441 16.9473 23.4772C17.8055 22.9707 19.7293 21.7546 21.4634 20.0547C23.1355 18.4156 25 15.9677 25 13V12.068C25 8.71672 22.2833 6 18.932 6C17.4554 6 16.0725 6.53418 15 7.44629Z" fill="#6B5047"/>
<path d="M15 11L14.9272 10.7816C14.3735 9.12044 12.819 8 11.068 8C8.82129 8 7 9.82129 7 12.068V13C7 17.2719 12.4746 20.8138 14.0692 21.7548C14.3519 21.9216 14.6717 22 15 22C15.3283 22 15.6481 21.9216 15.9308 21.7548C17.5254 20.8138 23 17.2719 23 13V12.068C23 9.82129 21.1787 8 18.932 8C17.181 8 15.6265 9.12044 15.0728 10.7816L15 11Z" fill="#EE5622"/>
</svg>
