<svg width="30" height="30" viewBox="0 0 30 30" fill="none" xmlns="http://www.w3.org/2000/svg">
<path d="M16.4648 24H29C29.5523 24 30 23.5523 30 23V22H17C17 22.7286 16.8052 23.4117 16.4648 24Z" fill="#5714CC"/>
<path opacity="0.7" d="M16.4648 24H28V8C28 6.89543 27.1045 6 26 6H16.4648C16.8052 6.58835 17 7.27143 17 8H26L26 22H17C17 22.7286 16.8052 23.4117 16.4648 24Z" fill="#5714CC"/>
<path opacity="0.3" d="M17 22H26V8H17V22Z" fill="#5714CC"/>
<g opacity="0.5">
<path d="M24 10H17V12H24V10Z" fill="#5714CC"/>
<path d="M19 14H17V16H19V14Z" fill="#5714CC"/>
<path d="M21 14H24V16H21V14Z" fill="#5714CC"/>
<path d="M24 18H19V20H24V18Z" fill="#5714CC"/>
</g>
<path d="M5 8H13V22H5V8Z" fill="#FFC30D"/>
<path d="M8 19C7.44772 19 7 19.4477 7 20C7 20.5523 7.44772 21 8 21H10C10.5523 21 11 20.5523 11 20C11 19.4477 10.5523 19 10 19H8Z" fill="#5714CC"/>
<path fill-rule="evenodd" clip-rule="evenodd" d="M3 8C3 6.89543 3.89543 6 5 6H13C14.1046 6 15 6.89543 15 8V22C15 23.1046 14.1046 24 13 24H5C3.89543 24 3 23.1046 3 22V8ZM5 8H13V22H5V8Z" fill="#5714CC"/>
</svg>
