<svg width="30" height="30" viewBox="0 0 30 30" fill="none" xmlns="http://www.w3.org/2000/svg">
<path d="M13.2644 14.2497C13.7322 13.4408 14 12.5017 14 11.5C14 8.46243 11.5376 6 8.5 6C5.46243 6 3 8.46243 3 11.5C3 13.6373 4.21916 15.4899 6 16.4003V24C6 24.5523 6.44772 25 7 25H24C24.5523 25 25 24.5523 25 24V13.0153C25 13.0102 25.0001 13.0051 25.0001 13V9C25.0001 8.9949 25 8.9898 25 8.98471V7H18.0001C17.1911 7 16.4619 7.48728 16.1523 8.23463C15.8427 8.98198 16.0138 9.84222 16.5858 10.4142L17.1716 11L16.5858 11.5858C16.0138 12.1578 15.8427 13.018 16.1523 13.7654C16.4619 14.5127 17.1911 15 18.0001 15H23V18.793L13.2644 14.2497Z" fill="#505762"/>
<path d="M8 14L23 21V23H8V14Z" fill="#FFC107"/>
<path opacity="0.1" d="M11.9028 15.8213C10.9666 16.5595 9.78474 17 8.5 17C8.33146 17 8.16468 16.9924 8 16.9776V14L11.9028 15.8213Z" fill="black"/>
<path d="M18 9H23V13H18L20 11L18 9Z" fill="#52BE2C"/>
<path fill-rule="evenodd" clip-rule="evenodd" d="M12 11.5C12 13.433 10.433 15 8.5 15C6.567 15 5 13.433 5 11.5C5 9.567 6.567 8 8.5 8C10.433 8 12 9.567 12 11.5Z" fill="white"/>
<path d="M10 11.5C10 12.3284 9.32843 13 8.5 13C7.67157 13 7 12.3284 7 11.5C7 10.6716 7.67157 10 8.5 10C9.32843 10 10 10.6716 10 11.5Z" fill="#237BFF"/>
</svg>
