<svg width="40" height="40" viewBox="0 0 40 40" fill="none" xmlns="http://www.w3.org/2000/svg">
<path d="M20.8536 4.35355L35.6464 19.1464C35.8728 19.3728 36 19.6799 36 20C36 20.3201 35.8728 20.6272 35.6464 20.8536L20.8536 35.6464C20.6272 35.8728 20.3201 36 20 36C19.6799 36 19.3728 35.8728 19.1464 35.6464L4.35355 20.8536C4.12718 20.6272 4 20.3201 4 20C4 19.6799 4.12718 19.3728 4.35355 19.1464L19.1464 4.35355C19.3728 4.12718 19.6799 4 20 4C20.3201 4 20.6272 4.12718 20.8536 4.35355Z" fill="#5714CC" fill-opacity="0.2"/>
<path fill-rule="evenodd" clip-rule="evenodd" d="M37.0607 17.7322L22.2678 2.93934C21.6663 2.33789 20.8506 2 20 2C19.1494 2 18.3337 2.33789 17.7322 2.93934L2.93934 17.7322C2.33789 18.3337 2 19.1494 2 20C2 20.8506 2.3379 21.6663 2.93934 22.2678L17.7322 37.0607C18.3337 37.6621 19.1494 38 20 38C20.8506 38 21.6663 37.6621 22.2678 37.0607L37.0607 22.2678C37.6621 21.6663 38 20.8506 38 20C38 19.1494 37.6621 18.3337 37.0607 17.7322ZM4.35355 20.8536L19.1464 35.6464C19.3728 35.8728 19.6799 36 20 36C20.3201 36 20.6272 35.8728 20.8536 35.6464L35.6464 20.8536C35.8728 20.6272 36 20.3201 36 20C36 19.6799 35.8728 19.3728 35.6464 19.1464L20.8536 4.35355C20.6272 4.12718 20.3201 4 20 4C19.6799 4 19.3728 4.12718 19.1464 4.35355L4.35355 19.1464C4.12718 19.3728 4 19.6799 4 20C4 20.3201 4.12718 20.6272 4.35355 20.8536Z" fill="#5714CC"/>
<path d="M20.773 15C20.3461 15 20 15.3461 20 15.773V19H18C15.7909 19 14 20.7909 14 23V24C14 24.5523 14.4477 25 15 25C15.5523 25 16 24.5523 16 24V23C16 21.8954 16.8954 21 18 21H20V24.227C20 24.6539 20.3461 25 20.773 25C20.9212 25 21.0663 24.9574 21.191 24.8772L27.5794 20.7704C27.8415 20.6019 28 20.3116 28 20C28 19.6884 27.8415 19.3981 27.5794 19.2296L21.191 15.1228C21.0663 15.0426 20.9212 15 20.773 15Z" fill="#5714CC"/>
</svg>
