<svg width="40" height="40" viewBox="0 0 40 40" fill="none" xmlns="http://www.w3.org/2000/svg">
<path d="M3.64644 21.5607L4.35355 20.8536L3.64645 21.5607L18.4393 36.3536C18.8533 36.7675 19.4146 37 20 37C20.5854 37 21.1467 36.7675 21.5607 36.3536L36.3536 21.5607C36.7675 21.1467 37 20.5854 37 20C37 19.4146 36.7675 18.8533 36.3536 18.4393L21.5607 3.64645C21.1467 3.23253 20.5854 3 20 3C19.4146 3 18.8533 3.23253 18.4393 3.64645L3.64645 18.4393C3.23253 18.8533 3 19.4146 3 20C3 20.5854 3.23253 21.1467 3.64644 21.5607Z" fill="#FF8800" fill-opacity="0.2" stroke="#FF8800" stroke-width="2" stroke-linejoin="round"/>
<path d="M20.773 15C20.3461 15 20 15.3461 20 15.773V19H18C15.7909 19 14 20.7909 14 23V24C14 24.5523 14.4477 25 15 25C15.5523 25 16 24.5523 16 24V23C16 21.8954 16.8954 21 18 21H20V24.227C20 24.6539 20.3461 25 20.773 25C20.9212 25 21.0663 24.9574 21.191 24.8772L27.5794 20.7704C27.8415 20.6019 28 20.3116 28 20C28 19.6884 27.8415 19.3981 27.5794 19.2296L21.191 15.1228C21.0663 15.0426 20.9212 15 20.773 15Z" fill="#FF8800"/>
</svg>
