<svg width="30" height="30" viewBox="0 0 30 30" fill="none" xmlns="http://www.w3.org/2000/svg">
<path d="M16 18C18.2092 18 20 16.2091 20 14C20 11.7909 18.2092 10 16 10C13.7909 10 12 11.7909 12 14C12 16.2091 13.7909 18 16 18Z" fill="#FF8800"/>
<path fill-rule="evenodd" clip-rule="evenodd" d="M19.5182 25.9608C19.6477 25.9867 19.781 25.9867 19.9104 25.9608L24.2987 25.0831C24.6946 25.0039 25.004 24.6945 25.0832 24.2986L25.9608 19.9104C25.9867 19.7809 25.9867 19.6476 25.9608 19.5182L24.9916 14.6723C24.9657 14.5428 24.9657 14.4095 24.9916 14.2801L25.9608 9.4342C25.9867 9.30474 25.9867 9.17143 25.9608 9.04197L25.1485 4.98057C25.0402 4.43901 24.5134 4.08779 23.9718 4.1961L19.9104 5.00838C19.781 5.03428 19.6477 5.03428 19.5182 5.00838L14.6723 4.03921C14.5429 4.01332 14.4096 4.01332 14.2801 4.03921L9.43424 5.00838C9.30478 5.03428 9.17147 5.03428 9.04201 5.00838L5.4709 4.29416C4.77118 4.15422 4.15426 4.77114 4.29421 5.47086L5.00843 9.04197C5.03432 9.17143 5.03432 9.30474 5.00843 9.4342L4.03926 14.2801C4.01336 14.4095 4.01336 14.5428 4.03926 14.6723L5.00843 19.5182C5.03432 19.6476 5.03432 19.7809 5.00843 19.9104L4.19615 23.9718C4.08784 24.5133 4.43905 25.0402 4.98061 25.1485L9.04201 25.9608C9.17147 25.9867 9.30478 25.9867 9.43424 25.9608L14.2801 24.9916C14.4096 24.9657 14.5429 24.9657 14.6723 24.9916L19.5182 25.9608ZM16 20C19.3137 20 22 17.3137 22 14C22 10.6863 19.3137 8 16 8C12.6863 8 10 10.6863 10 14C10 15.3782 10.4647 16.6479 11.2459 17.6609C11.2394 17.667 11.233 17.6733 11.2267 17.6797L8.36722 20.5391C7.99185 20.9145 7.99185 21.523 8.36722 21.8984C8.74258 22.2738 9.35117 22.2738 9.72653 21.8984L12.586 19.039C12.6067 19.0183 12.6262 18.9969 12.6447 18.9748C13.6024 19.6221 14.7571 20 16 20Z" fill="#FF8800"/>
</svg>
