<svg width="30" height="30" viewBox="0 0 30 30" fill="none" xmlns="http://www.w3.org/2000/svg">
<path d="M12 20.92L18.9545 22.907L18.9754 19.7295C19.267 20.2057 19.5693 20.6588 19.8656 21.079C20.5364 22.0301 21.2029 22.8492 21.7002 23.4294C21.8734 23.6315 22.0273 23.8059 22.1551 23.9483L19 25L12 23L6.27472 24.6358C5.6359 24.8183 5 24.3386 5 23.6743V7.7543C5 7.30782 5.29598 6.91543 5.72528 6.79278L12 5L19 7L23.6838 5.43874C24.3313 5.2229 25 5.70487 25 6.38743V7.07105C24.6735 7.02423 24.3396 7 24 7C22.0496 7 20.2894 7.79909 19.022 9.08631L12 7.08003V20.92Z" fill="#FF8800"/>
<path fill-rule="evenodd" clip-rule="evenodd" d="M29 14.0256C29 17.7949 24 23 24 23C24 23 19 17.7949 19 14.0256C19 11.2501 21.2386 9 24 9C26.7614 9 29 11.2501 29 14.0256ZM26 14C26 15.1046 25.1046 16 24 16C22.8954 16 22 15.1046 22 14C22 12.8954 22.8954 12 24 12C25.1046 12 26 12.8954 26 14Z" fill="#FF8800"/>
</svg>
