<svg width="30" height="30" viewBox="0 0 30 30" fill="none" xmlns="http://www.w3.org/2000/svg">
<path fill-rule="evenodd" clip-rule="evenodd" d="M22 3C23.1046 3 24 3.89543 24 5V25C24 26.1046 23.1046 27 22 27H8C6.89543 27 6 26.1046 6 25V5C6 3.89543 6.89543 3 8 3H22ZM11 22C10.4477 22 10 22.4477 10 23C10 23.5523 10.4477 24 11 24H19C19.5523 24 20 23.5523 20 23C20 22.4477 19.5523 22 19 22H11ZM17 9H14L13.8457 9.00391C12.2606 9.08421 11 10.3949 11 12V19H13V12C13 11.4823 13.3933 11.0562 13.8975 11.0049L14 11H17V13L21 10L17 7V9Z" fill="#FF8800"/>
<path opacity="0.3" d="M10 23C10 22.4477 10.4477 22 11 22H19C19.5523 22 20 22.4477 20 23C20 23.5523 19.5523 24 19 24H11C10.4477 24 10 23.5523 10 23Z" fill="#FF8800"/>
</svg>
