<svg width="30" height="30" viewBox="0 0 30 30" fill="none" xmlns="http://www.w3.org/2000/svg">
<path fill-rule="evenodd" clip-rule="evenodd" d="M10 22V21H12V22C12 22.5523 12.4477 23 13 23C13.5523 23 14 22.5523 14 22V15.7859C13.7011 15.6351 13.442 15.4103 13.25 15.1298C12.8823 15.6671 12.2682 16 11.5996 16H11.4004C10.7318 16 10.1177 15.6671 9.75 15.1298C9.38226 15.6671 8.76817 16 8.09958 16H8C6.89543 16 6 15.1046 6 14V13C6 8.36745 9.50005 4.55237 14 4.05493V4C14 3.44772 14.4477 3 15 3C15.5523 3 16 3.44772 16 4V4.05493C20.5 4.55237 24 8.36745 24 13V14C24 15.1046 23.1046 16 22 16H21.9004C21.2318 16 20.6177 15.6671 20.25 15.1298C19.8823 15.6671 19.2682 16 18.5996 16H18.4004C17.7318 16 17.1177 15.6671 16.75 15.1298C16.558 15.4103 16.2989 15.6351 16 15.7859V22C16 23.6569 14.6569 25 13 25C11.3431 25 10 23.6569 10 22Z" fill="#59361B"/>
<path fill-rule="evenodd" clip-rule="evenodd" d="M15 6C11.134 6 8 9.13401 8 13V14H8.09958C8.33982 13.4174 8.98804 13 9.75 13C10.512 13 11.1602 13.4174 11.4004 14H11.5996C11.8398 13.4174 12.488 13 13.25 13C14.012 13 14.6602 13.4174 14.9004 14H15.0996C15.3398 13.4174 15.988 13 16.75 13C17.512 13 18.1602 13.4174 18.4004 14H18.5996C18.8398 13.4174 19.488 13 20.25 13C21.012 13 21.6602 13.4174 21.9004 14H22V13C22 9.13401 18.866 6 15 6Z" fill="#FFC107"/>
</svg>
