<svg width="30" height="30" viewBox="0 0 30 30" fill="none" xmlns="http://www.w3.org/2000/svg">
<path d="M17.3735 5.284C17.5173 5.31916 17.6604 5.35749 17.8025 5.39893L17.9259 5.3132C18.562 4.8713 19.3961 4.83644 20.0669 5.22372L20.9329 5.72372C21.6037 6.111 21.9906 6.85079 21.926 7.62265L21.9134 7.7724C22.0204 7.87477 22.1251 7.97953 22.2275 8.08651L22.3773 8.07396C23.1492 8.00933 23.889 8.3962 24.2762 9.06699L24.7762 9.93301C24.9754 10.2779 25.0629 10.666 25.0409 11.0482C24.3023 10.5675 23.4599 10.2328 22.5547 10.0851L22.5442 10.067L22.4756 10.0727C22.1574 10.0248 21.8316 10 21.5 10C21.4167 10 21.3338 10.0016 21.2513 10.0047C20.84 9.49023 20.358 9.02008 19.8351 8.62392L19.9329 7.45577L19.0669 6.95577L18.1042 7.62455C17.4375 7.34361 16.7177 7.1507 15.9994 7.06059L15.5 6H14.5L14.0006 7.06057C13.2826 7.15064 12.5628 7.34349 11.8958 7.62458L10.933 6.95577L10.0669 7.45577L10.1648 8.62392C9.58809 9.06083 9.06113 9.58772 8.6239 10.1648L7.45569 10.067L6.95569 10.933L7.62454 11.8959C7.3432 12.5635 7.15047 13.2833 7.06049 14.0007L6 14.5V15.5L7.06053 15.9994C7.15056 16.7171 7.34336 17.4369 7.62455 18.1042L6.95573 19.067L7.45573 19.933L8.62387 19.8352C8.66588 19.8907 8.70872 19.9456 8.75236 20.0001H9.387L11.7228 13.7712C12.4016 11.9613 14.419 11.0443 16.2289 11.723C16.4335 11.7997 16.6267 11.8935 16.8074 12.0022C16.3434 12.4862 15.9535 13.0419 15.656 13.6509C15.6142 13.6306 15.571 13.6121 15.5266 13.5954C14.751 13.3045 13.8863 13.6976 13.5955 14.4732L10.7729 22H8C7.44772 22 7 22.4477 7 23C7 23.5523 7.44772 24 8 24H15C15.1634 24 15.3177 23.9608 15.454 23.8913C15.7175 24.5571 16.0879 25.169 16.544 25.7059C16.2357 25.8946 15.8761 26 15.5 26H15.0284L15 26.0001H8C6.34315 26.0001 5 24.657 5 23.0001C5 22.2317 5.28893 21.5307 5.76407 20.9999C5.75022 20.978 5.73675 20.9556 5.72368 20.933L5.22368 20.067C4.8364 19.3962 4.87126 18.5621 5.31316 17.926L5.39892 17.8025C5.35746 17.6604 5.31912 17.5173 5.28395 17.3735L5.148 17.3094C4.44724 16.9795 4 16.2746 4 15.5V14.5C4 13.7254 4.44724 13.0205 5.14801 12.6905L5.28392 12.6266C5.31909 12.4828 5.35743 12.3397 5.3989 12.1975L5.31311 12.074C4.87121 11.4379 4.83636 10.6038 5.22364 9.93301L5.72364 9.06699C6.11092 8.39619 6.8507 8.00933 7.62257 8.07396L7.77236 8.0865C7.87474 7.97953 7.9795 7.87476 8.08646 7.7724L8.07392 7.62264C8.0093 6.85078 8.39616 6.111 9.06695 5.72372L9.93297 5.22372C10.6038 4.83644 11.4379 4.8713 12.074 5.3132L12.1975 5.39895C12.3396 5.3575 12.4827 5.31915 12.6265 5.28398L12.6905 5.14801C13.0205 4.44724 13.7254 4 14.5 4H15.5C16.2746 4 16.9795 4.44724 17.3095 5.14801L17.3735 5.284Z" fill="#FF8800"/>
<path d="M15.019 22.0002C15.0064 21.8351 15 21.6683 15 21.5V19.2718L13.9769 22H15C15.0063 22 15.0127 22.0001 15.019 22.0002Z" fill="#FF8800"/>
<path d="M19.6729 10.2603C19.0752 10.435 18.5131 10.6933 18.0002 11.0217C18.0001 11.0145 18 11.0072 18 11C18 10.4477 18.4477 10 19 10C19.2592 10 19.4953 10.0986 19.6729 10.2603Z" fill="#FF8800"/>
<path d="M16 9.00001C16 9.55229 15.5523 10 15 10C14.4477 10 14 9.55229 14 9.00001C14 8.44772 14.4477 8.00001 15 8.00001C15.5523 8.00001 16 8.44772 16 9.00001Z" fill="#FF8800"/>
<path d="M9 16C8.44772 16 8 15.5523 8 15C8 14.4477 8.44772 14 9 14C9.55228 14 10 14.4477 10 15C10 15.5523 9.55228 16 9 16Z" fill="#FF8800"/>
<path d="M12 11C12 11.5523 11.5523 12 11 12C10.4477 12 10 11.5523 10 11C10 10.4477 10.4477 10 11 10C11.5523 10 12 10.4477 12 11Z" fill="#FF8800"/>
<g opacity="0.2">
<path fill-rule="evenodd" clip-rule="evenodd" d="M19.0669 6.95577L18.1042 7.62455C17.4375 7.34361 16.7177 7.1507 15.9994 7.06059L15.5 6H14.5L14.0006 7.06057C13.2826 7.15064 12.5628 7.34349 11.8958 7.62458L10.933 6.95577L10.0669 7.45577L10.1648 8.62392C9.58809 9.06083 9.06113 9.58772 8.6239 10.1648L7.45569 10.067L6.95569 10.933L7.62454 11.8959C7.3432 12.5635 7.15047 13.2833 7.06049 14.0007L6 14.5V15.5L7.06053 15.9994C7.15056 16.7171 7.34336 17.4369 7.62455 18.1042L6.95573 19.067L7.45573 19.933L8.62387 19.8352C8.66588 19.8907 8.70872 19.9456 8.75236 20.0001H9.387L11.7228 13.7712C12.4016 11.9613 14.419 11.0443 16.2289 11.723C16.4335 11.7997 16.6267 11.8935 16.8074 12.0022C17.164 11.6303 17.5644 11.3007 18.0002 11.0217C18.0001 11.0145 18 11.0072 18 11C18 10.4477 18.4477 10 19 10C19.2592 10 19.4953 10.0986 19.6729 10.2603C20.1764 10.1131 20.7053 10.0252 21.2513 10.0047C20.84 9.49023 20.358 9.02008 19.8351 8.62392L19.9329 7.45577L19.0669 6.95577ZM16 9.00001C16 9.55229 15.5523 10 15 10C14.4477 10 14 9.55229 14 9.00001C14 8.44772 14.4477 8.00001 15 8.00001C15.5523 8.00001 16 8.44772 16 9.00001ZM8 15C8 15.5523 8.44772 16 9 16C9.55228 16 10 15.5523 10 15C10 14.4477 9.55228 14 9 14C8.44772 14 8 14.4477 8 15ZM12 11C12 11.5523 11.5523 12 11 12C10.4477 12 10 11.5523 10 11C10 10.4477 10.4477 10 11 10C11.5523 10 12 10.4477 12 11Z" fill="#FF8800"/>
<path d="M22.4756 10.0727C22.502 10.0767 22.5284 10.0808 22.5547 10.0851L22.5442 10.067L22.4756 10.0727Z" fill="#FF8800"/>
</g>
<path opacity="0.2" d="M15.019 22.0002C15.0127 22.0001 15.0063 22 15 22H8C7.44772 22 7 22.4477 7 23C7 23.5523 7.44772 24 8 24H15C15.1634 24 15.3177 23.9608 15.454 23.8913C15.2194 23.2986 15.0694 22.6633 15.019 22.0002Z" fill="#FF8800"/>
<path fill-rule="evenodd" clip-rule="evenodd" d="M21.5 12C19.0147 12 17 14.0147 17 16.5V21.5C17 23.9853 19.0147 26 21.5 26C23.9853 26 26 23.9853 26 21.5V16.5C26 14.0147 23.9853 12 21.5 12ZM22 18V14L19 20H21L21 24L24 18H22Z" fill="#FF8800"/>
</svg>
