<svg width="30" height="30" viewBox="0 0 30 30" fill="none" xmlns="http://www.w3.org/2000/svg">
<path d="M5 8C5 6.34315 6.34315 5 8 5H22C23.6569 5 25 6.34315 25 8V22C25 23.6569 23.6569 25 22 25H8C6.34315 25 5 23.6569 5 22V8Z" fill="#FFC30D"/>
<path d="M18.1852 21.9073C18.0666 21.9666 17.9293 21.9764 17.8035 21.9345L12.1965 20.0655L12.8289 18.1681L17.8465 19.8406L18 19.7639V11.9598C17.721 11.9641 17.4408 11.9217 17.1711 11.8318L12.1535 10.1593L12 10.236V18.0401C12.2789 18.0358 12.5592 18.0782 12.8289 18.1681L12.1965 20.0655C12.0707 20.0235 11.9334 20.0333 11.8148 20.0926L8.72361 21.6382C8.39116 21.8044 8 21.5626 8 21.1909V10.309C8 10.1196 8.107 9.94646 8.27639 9.86176L11.8148 8.09258C11.9334 8.03328 12.0707 8.02352 12.1965 8.06545L17.8035 9.93447C17.9293 9.9764 18.0666 9.96664 18.1852 9.90734L21.2764 8.36176C21.6088 8.19554 22 8.43729 22 8.80898V19.6909C22 19.8803 21.893 20.0535 21.7236 20.1382L18.1852 21.9073Z" fill="#5714CC"/>
</svg>
