<svg width="30" height="30" viewBox="0 0 30 30" fill="none" xmlns="http://www.w3.org/2000/svg">
<path fill-rule="evenodd" clip-rule="evenodd" d="M12 5C12.5523 5 13 5.44772 13 6V7H17V6C17 5.44772 17.4477 5 18 5H23C23.5523 5 24 5.44772 24 6V7H26C26.5523 7 27 7.44772 27 8V14.5C27 14.7761 26.7761 15 26.5 15H26V21C26 23.2091 24.2091 25 22 25H8C5.79086 25 4 23.2091 4 21V15H3.5C3.22386 15 3 14.7761 3 14.5V8C3 7.44772 3.44772 7 4 7H6V6C6 5.44772 6.44772 5 7 5H12Z" fill="#595959"/>
<path d="M8 7H11V9H19V7H22V9H25V13H24V21C24 22.1046 23.1046 23 22 23H8C6.89543 23 6 22.1046 6 21V13H5V9H8V7Z" fill="#FFC107"/>
<path d="M8 7H11V9H8V7Z" fill="#237BFF"/>
<path d="M19 7H22V9H19V7Z" fill="#DD3737"/>
<path fill-rule="evenodd" clip-rule="evenodd" d="M15 15V12L12 17H14L14 20L17 15H15Z" fill="#595959"/>
</svg>
