<svg width="30" height="30" viewBox="0 0 30 30" fill="none" xmlns="http://www.w3.org/2000/svg">
<path d="M15 7C15.2939 7 15.5498 7.20027 15.6211 7.48535L16.8545 12.418C16.9441 12.7762 17.2238 13.0559 17.582 13.1455L22.5146 14.3789C22.7997 14.4502 23 14.7061 23 15C23 15.2939 22.7997 15.5498 22.5146 15.6211L17.582 16.8545C17.2238 16.9441 16.9441 17.2238 16.8545 17.582L15.6211 22.5146C15.5498 22.7997 15.2939 23 15 23C14.7061 23 14.4502 22.7997 14.3789 22.5146L13.1455 17.582C13.0559 17.2238 12.7762 16.9441 12.418 16.8545L7.48535 15.6211C7.20027 15.5498 7 15.2939 7 15C7 14.7061 7.20027 14.4502 7.48535 14.3789L12.418 13.1455C12.7762 13.0559 13.0559 12.7762 13.1455 12.418L14.3789 7.48535C14.4502 7.20027 14.7061 7 15 7Z" fill="#FF8800"/>
<path d="M11.1494 19.7021C11.0527 19.8956 10.8956 20.0527 10.7021 20.1494L9 21L9.85059 19.2979C9.94734 19.1044 10.1044 18.9473 10.2979 18.8506L12 18L11.1494 19.7021Z" fill="#FF8800"/>
<path d="M19.7021 18.8506C19.8956 18.9473 20.0527 19.1044 20.1494 19.2979L21 21L19.2979 20.1494C19.1044 20.0527 18.9473 19.8956 18.8506 19.7021L18 18L19.7021 18.8506Z" fill="#FF8800"/>
<path d="M10.7021 9.85059C10.8956 9.94734 11.0527 10.1044 11.1494 10.2979L12 12L10.2979 11.1494C10.1044 11.0527 9.94734 10.8956 9.85059 10.7021L9 9L10.7021 9.85059Z" fill="#FF8800"/>
<path d="M20.1494 10.7021C20.0527 10.8956 19.8956 11.0527 19.7021 11.1494L18 12L18.8506 10.2979C18.9473 10.1044 19.1044 9.94734 19.2979 9.85059L21 9L20.1494 10.7021Z" fill="#FF8800"/>
<path fill-rule="evenodd" clip-rule="evenodd" d="M15 3C21.6274 3 27 8.37258 27 15C27 21.6274 21.6274 27 15 27C8.37258 27 3 21.6274 3 15C3 8.37258 8.37258 3 15 3ZM15 5C9.47715 5 5 9.47715 5 15C5 20.5228 9.47715 25 15 25C20.5228 25 25 20.5228 25 15C25 9.47715 20.5228 5 15 5Z" fill="#FF8800"/>
</svg>
