<svg width="30" height="30" viewBox="0 0 30 30" fill="none" xmlns="http://www.w3.org/2000/svg">
<path d="M25.9624 15.9158C25.9873 15.6138 26 15.3084 26 15C26 8.92487 21.0751 4 15 4C8.92487 4 4 8.92487 4 15C4 21.0751 8.92487 26 15 26C16.414 26 17.7657 25.7332 19.0075 25.2472C19.721 25.7228 20.5781 26 21.5 26C23.9853 26 26 23.9853 26 21.5V16.5C26 16.302 25.9872 16.107 25.9624 15.9158Z" fill="#394642"/>
<path d="M23.6634 12.5532C23.0215 12.2006 22.2841 12 21.5 12C19.0147 12 17 14.0147 17 16.5V21.5C17 22.2734 17.1951 23.0012 17.5388 23.6369C16.7336 23.8732 15.8816 24 15 24C10.0294 24 6 19.9706 6 15C6 10.0294 10.0294 6 15 6C19.1225 6 22.5975 8.77169 23.6634 12.5532Z" fill="url(#paint0_linear_1988_16817)"/>
<path d="M10 15C10 12.2386 12.2386 10 15 10C16.8683 10 18.4973 11.0247 19.3556 12.5428C19.9458 12.2223 20.6157 12.03 21.3279 12.0032C20.2051 9.63654 17.7937 8 15 8C11.134 8 8 11.134 8 15V16C8 16.5523 8.44772 17 9 17C9.55228 17 10 16.5523 10 16V15Z" fill="url(#paint1_linear_1988_16817)"/>
<path d="M17 9C17 7.89543 16.1046 7 15 7C13.8954 7 13 7.89543 13 9V12.764C12.3873 13.3125 12 14.1106 12 15C12 16.6568 13.3431 18 15 18C15.7684 18 16.4692 17.7111 17 17.2361V9Z" fill="black" fill-opacity="0.2"/>
<path fill-rule="evenodd" clip-rule="evenodd" d="M16 9C16 8.44772 15.5523 8 15 8C14.4477 8 14 8.44772 14 9V13.2675C13.4022 13.6133 13 14.2597 13 15C13 16.1045 13.8954 17 15 17C16.1046 17 17 16.1045 17 15C17 14.2597 16.5978 13.6133 16 13.2675V9Z" fill="white"/>
<path d="M13 15C13 16.1046 13.8954 17 15 17C16.1046 17 17 16.1046 17 15C17 14.2597 16.5978 13.6134 16 13.2675V15C16 15.5523 15.5523 16 15 16C14.4477 16 14 15.5523 14 15L14 13.2675C13.4022 13.6134 13 14.2597 13 15Z" fill="#474747"/>
<path d="M17 19H13C12.4477 19 12 19.4477 12 20C12 20.5523 12.4477 21 13 21H17V19Z" fill="#474747"/>
<path d="M22 14L22 18L24 18L21 24L21 20L19 20L22 14Z" fill="#FFC107"/>
<defs>
<linearGradient id="paint0_linear_1988_16817" x1="15" y1="6" x2="15" y2="24" gradientUnits="userSpaceOnUse">
<stop/>
<stop offset="1" stop-color="#333333"/>
</linearGradient>
<linearGradient id="paint1_linear_1988_16817" x1="8" y1="17" x2="21.3279" y2="17" gradientUnits="userSpaceOnUse">
<stop stop-color="#FFE8A3"/>
<stop offset="0.505" stop-color="#FFC107"/>
<stop offset="1" stop-color="#F3641D"/>
</linearGradient>
</defs>
</svg>
