<svg width="30" height="30" viewBox="0 0 30 30" fill="none" xmlns="http://www.w3.org/2000/svg">
<path fill-rule="evenodd" clip-rule="evenodd" d="M6 7C4.34315 7 3 8.34315 3 10V20H5C5 21.6569 6.34315 23 8 23C9.65685 23 11 21.6569 11 20H19C19 21.6569 20.3431 23 22 23C23.6569 23 25 21.6569 25 20H27V15L23 10H19V7H6ZM23.5 20C23.5 19.1716 22.8284 18.5 22 18.5C21.1716 18.5 20.5 19.1716 20.5 20C20.5 20.8284 21.1716 21.5 22 21.5C22.8284 21.5 23.5 20.8284 23.5 20ZM8 21.5C7.17157 21.5 6.5 20.8284 6.5 20C6.5 19.1716 7.17157 18.5 8 18.5C8.82843 18.5 9.5 19.1716 9.5 20C9.5 20.8284 8.82843 21.5 8 21.5ZM22.5 12H19V15H24.8L22.5 12Z" fill="#FF8800"/>
<path fill-rule="evenodd" clip-rule="evenodd" d="M6 7C4.34315 7 3 8.34315 3 10V20H5C5 21.6569 6.34315 23 8 23C9.65685 23 11 21.6569 11 20H19C19 21.6569 20.3431 23 22 23C23.6569 23 25 21.6569 25 20H27V15L23 10H19V7H6ZM23.5 20C23.5 19.1716 22.8284 18.5 22 18.5C21.1716 18.5 20.5 19.1716 20.5 20C20.5 20.8284 21.1716 21.5 22 21.5C22.8284 21.5 23.5 20.8284 23.5 20ZM8 21.5C7.17157 21.5 6.5 20.8284 6.5 20C6.5 19.1716 7.17157 18.5 8 18.5C8.82843 18.5 9.5 19.1716 9.5 20C9.5 20.8284 8.82843 21.5 8 21.5ZM22.5 12H19V15H24.8L22.5 12Z" fill="#FF8800"/>
</svg>
