<svg width="24" height="24" viewBox="0 0 24 24" fill="none" xmlns="http://www.w3.org/2000/svg">
<path d="M13,20H11V17H13V20Z" fill="#ffffff"/>
<path d="M9.1719,16.2432L7.7578,17.6572L6.3428,16.2432L7.7578,14.8281L9.1719,16.2432Z" fill="#ffffff"/>
<path d="M17.6572,16.2432L16.2422,17.6572L14.8281,16.2432L16.2422,14.8281L17.6572,16.2432Z" fill="#ffffff"/>
<path d="M12,9C13.6569,9 15,10.3431 15,12C15,13.6569 13.6569,15 12,15C10.3431,15 9,13.6569 9,12C9,10.3431 10.3431,9 12,9ZM12,11C11.4477,11 11,11.4477 11,12C11,12.5523 11.4477,13 12,13C12.5523,13 13,12.5523 13,12C13,11.4477 12.5523,11 12,11Z" fill="#ffffff" fill-rule="evenodd" clip-rule="evenodd"/>
<path d="M7,13H4V11H7V13Z" fill="#ffffff"/>
<path d="M20,13H17V11H20V13Z" fill="#ffffff"/>
<path d="M9.1719,7.7578L7.7578,9.1719L6.3428,7.7578L7.7578,6.3428L9.1719,7.7578Z" fill="#ffffff"/>
<path d="M17.6572,7.7578L16.2422,9.1719L14.8281,7.7578L16.2422,6.3428L17.6572,7.7578Z" fill="#ffffff"/>
<path d="M13,7H11V4H13V7Z" fill="#ffffff"/>
</svg>
