<svg width="20" height="20" viewBox="0 0 20 20" fill="none" xmlns="http://www.w3.org/2000/svg">
<path d="M10 3.5C10.1507 3.5 10.286 3.59253 10.3406 3.733L12 8H16.6667C16.8508 8 17 8.14924 17 8.33333C17 8.43825 16.9506 8.53705 16.8667 8.6L13 11.5L14.4022 15.7067C14.4622 15.8865 14.4154 16.0846 14.2814 16.2186C14.1167 16.3833 13.8601 16.4125 13.6625 16.2891L10 14L6.33746 16.2891C6.13992 16.4125 5.88332 16.3833 5.71861 16.2186C5.58463 16.0846 5.53785 15.8865 5.59777 15.7067L7 11.5L3.13333 8.6C3.0494 8.53705 3 8.43825 3 8.33333C3 8.14924 3.14924 8 3.33333 8H8L9.65939 3.733C9.71402 3.59253 9.84928 3.5 10 3.5Z" fill="#FF8800"/>
</svg>
