<svg width="20" height="20" viewBox="0 0 20 20" fill="none" xmlns="http://www.w3.org/2000/svg">
<path d="M11.4998 7.00006C11.2236 7.00006 10.9998 7.22392 10.9998 7.50006V12.5001C10.9998 12.7762 11.2236 13.0001 11.4998 13.0001H15.4998C15.7757 12.9999 15.9997 12.7761 15.9998 12.5001V7.50006C15.9998 7.22402 15.7758 7.00023 15.4998 7.00006H11.4998Z" fill="#FF8800"/>
<path fill-rule="evenodd" clip-rule="evenodd" d="M3.99976 5.00006C2.89519 5.00006 1.99976 5.89549 1.99976 7.00006V13.0001C1.99979 14.1046 2.89521 15.0001 3.99976 15.0001H15.9998C17.1042 14.9999 17.9997 14.1045 17.9998 13.0001V7.00006C17.9998 5.89559 17.1042 5.00023 15.9998 5.00006H3.99976ZM16.9998 13.0001C16.9997 13.5522 16.5519 13.9999 15.9998 14.0001H3.99976C3.44749 14.0001 2.99979 13.5523 2.99976 13.0001V7.00006C2.99976 6.48238 3.39309 6.05628 3.89722 6.00494L3.99976 6.00006H15.9998C16.5519 6.00023 16.9998 6.44788 16.9998 7.00006V13.0001Z" fill="#FF8800"/>
</svg>
