<svg width="56" height="56" viewBox="0 0 56 56" fill="none" xmlns="http://www.w3.org/2000/svg">
<path d="M24 19.5C23.1716 19.5 22.5 20.1716 22.5 21V22H19.5V21C19.5 18.5147 21.5147 16.5 24 16.5C26.5011 16.5 28.5287 18.5276 28.5287 21.0287V22C28.5287 22.8635 28.2094 23.6284 27.8502 24.2263C27.4864 24.8321 27.0235 25.3633 26.5975 25.7883C25.8839 26.5001 25.5 27.2838 25.5 28H22.5C22.5 26.2188 23.4243 24.7163 24.4788 23.6643C24.8019 23.342 25.0844 23.0048 25.2785 22.6816C25.4773 22.3507 25.5287 22.126 25.5287 22V21.0287C25.5287 20.1844 24.8443 19.5 24 19.5Z" fill="#EE5622"/>
<path d="M24 33C25.1046 33 26 32.1046 26 31C26 29.8954 25.1046 29 24 29C22.8954 29 22 29.8954 22 31C22 32.1046 22.8954 33 24 33Z" fill="#EE5622"/>
<path fill-rule="evenodd" clip-rule="evenodd" d="M5 24C5 13.5066 13.5066 5 24 5C34.4934 5 43 13.5066 43 24C43 28.1641 41.6605 32.0152 39.3888 35.1462L51.1213 46.8787C52.2929 48.0503 52.2929 49.9497 51.1213 51.1213C49.9497 52.2929 48.0503 52.2929 46.8787 51.1213L35.1462 39.3888C32.0152 41.6605 28.1641 43 24 43C13.5066 43 5 34.4934 5 24ZM24 37C16.8203 37 11 31.1797 11 24C11 16.8203 16.8203 11 24 11C31.1797 11 37 16.8203 37 24C37 31.1797 31.1797 37 24 37Z" fill="#EE5622"/>
</svg>
