<svg width="30" height="30" viewBox="0 0 30 30" fill="none" xmlns="http://www.w3.org/2000/svg">
<path opacity="0.5" d="M16 7C16 5.89543 15.1046 5 14 5H6C4.89543 5 4 5.89543 4 7V11H16V7Z" fill="#FF8800"/>
<path d="M14 11C15.1046 11 16 10.1046 16 9H24C25.1046 9 26 9.89543 26 11V15.0703C24.8233 14.3896 23.4571 14 22 14C17.5817 14 14 17.5817 14 22C14 23.0609 14.2065 24.0736 14.5815 25H6C4.89543 25 4 24.1046 4 23V11H14Z" fill="#FF8800"/>
<path fill-rule="evenodd" clip-rule="evenodd" d="M22.5 16H21.5C21.2093 16 20.959 16.2052 20.9019 16.4903L20.6594 17.7031C20.0157 17.9037 19.434 18.245 18.9503 18.691L17.7775 18.2942C17.5021 18.201 17.1992 18.3152 17.0538 18.567L16.5538 19.433C16.4085 19.6848 16.461 20.0042 16.6794 20.1961L17.6086 21.0127C17.5375 21.3304 17.5 21.6608 17.5 22C17.5 22.3392 17.5375 22.6696 17.6086 22.9873L16.6794 23.8039C16.4611 23.9958 16.4085 24.3152 16.5539 24.5669L17.0539 25.433C17.1992 25.6847 17.5021 25.7989 17.7775 25.7058L18.9503 25.309C19.434 25.755 20.0157 26.0963 20.6594 26.2969L20.9019 27.5097C20.959 27.7948 21.2093 28 21.5 28H22.5C22.7907 28 23.041 27.7948 23.0981 27.5097L23.3406 26.2969C23.9843 26.0963 24.566 25.755 25.0497 25.309L26.2225 25.7058C26.4979 25.799 26.8008 25.6848 26.9461 25.433L27.4461 24.567C27.5915 24.3152 27.539 23.9958 27.3206 23.8039L26.3914 22.9873C26.4625 22.6696 26.5 22.3392 26.5 22C26.5 21.6608 26.4625 21.3304 26.3914 21.0127L27.3206 20.196C27.539 20.0041 27.5915 19.6847 27.4462 19.433L26.9462 18.5669C26.8008 18.3152 26.4979 18.201 26.2225 18.2942L25.0496 18.6909C24.566 18.245 23.9843 17.9037 23.3406 17.7031L23.0981 16.4903C23.041 16.2052 22.7907 16 22.5 16ZM22 24C23.1046 24 24 23.1046 24 22C24 20.8954 23.1046 20 22 20C20.8954 20 20 20.8954 20 22C20 23.1046 20.8954 24 22 24Z" fill="#FF8800"/>
</svg>
