<svg width="30" height="30" viewBox="0 0 30 30" fill="none" xmlns="http://www.w3.org/2000/svg">
<path d="M23.7468 3.90674C24.2373 3.79091 25.0047 3.70571 25.5916 4.18799L25.7068 4.29248C26.3049 4.89069 26.2161 5.72933 26.0925 6.25244C25.9512 6.85042 25.6496 7.53058 25.2644 8.23584C24.4864 9.66017 23.2482 11.4022 21.7917 13.186C21.7917 13.186 21.7911 13.1871 21.7898 13.1899C21.7884 13.1929 21.7857 13.1991 21.7839 13.2085C21.7802 13.2282 21.7798 13.2584 21.7888 13.2944C21.9261 13.8401 21.9997 14.4116 21.9998 14.9995C21.9997 18.8655 18.8657 21.9995 14.9998 21.9995C14.4119 21.9995 13.8404 21.9259 13.2947 21.7886C13.2586 21.7796 13.2285 21.78 13.2087 21.7837C13.1994 21.7855 13.1932 21.7882 13.1902 21.7896C13.1874 21.7908 13.1863 21.7915 13.1863 21.7915C11.4024 23.248 9.66041 24.4862 8.23608 25.2642C7.53083 25.6494 6.85066 25.951 6.25269 26.0923C5.7622 26.2082 4.99399 26.2939 4.40698 25.811L4.29272 25.7065C3.69505 25.1084 3.78343 24.2697 3.90698 23.7466C4.04824 23.1486 4.35002 22.4685 4.73511 21.7632C5.51284 20.3388 6.75048 18.5967 8.20679 16.813C8.2068 16.813 8.20749 16.8118 8.20874 16.8091C8.21012 16.8061 8.2128 16.8 8.2146 16.7905C8.21838 16.7707 8.21887 16.7401 8.20972 16.7036C8.07273 16.1577 7.99976 15.5867 7.99976 14.9995C7.99985 11.1337 11.1339 7.99961 14.9998 7.99951C15.5869 7.99952 16.1579 8.07249 16.7039 8.20947C16.7404 8.21862 16.7709 8.21813 16.7908 8.21436C16.8002 8.21255 16.8063 8.20988 16.8093 8.2085C16.812 8.20724 16.8132 8.20655 16.8132 8.20654C18.5969 6.75023 20.3391 5.51259 21.7634 4.73486C22.4687 4.34977 23.1489 4.048 23.7468 3.90674Z" stroke="#FF8800" stroke-width="2" stroke-linejoin="round"/>
</svg>
