<svg width="30" height="30" viewBox="0 0 30 30" fill="none" xmlns="http://www.w3.org/2000/svg">
<path d="M9.69425 7H20.3057C21.2834 7 22.1178 7.70683 22.2785 8.6712L23 13L24 15L15 16L6 15L7 13L7.72147 8.6712C7.8822 7.70683 8.71658 7 9.69425 7Z" fill="#5714CC"/>
<path d="M8 21H5V22.5C5 23.3284 5.67157 24 6.5 24C7.32843 24 8 23.3284 8 22.5V21Z" fill="#FFC30D"/>
<path d="M25 21H22V22.5C22 23.3284 22.6716 24 23.5 24C24.3284 24 25 23.3284 25 22.5V21Z" fill="#FFC30D"/>
<path d="M5 13C4.44772 13 4 13.4477 4 14C4 14.5523 4.44772 15 5 15H6C6.55228 15 7 14.5523 7 14C7 13.4477 6.55228 13 6 13H5Z" fill="#FFC30D"/>
<path d="M24 13C23.4477 13 23 13.4477 23 14C23 14.5523 23.4477 15 24 15H25C25.5523 15 26 14.5523 26 14C26 13.4477 25.5523 13 25 13H24Z" fill="#FFC30D"/>
<path fill-rule="evenodd" clip-rule="evenodd" d="M25 15V22H5V15L6 13L6.75469 7.71716C6.89545 6.73186 7.73929 6 8.73459 6H21.2654C22.2607 6 23.1046 6.73186 23.2453 7.71716L24 13L25 15ZM8.0203 13H21.9797L21.2654 8L8.73459 8L8.0203 13Z" fill="#FFC30D"/>
<path d="M8.5 15C7.67157 15 7 15.6716 7 16.5C7 17.3284 7.67157 18 8.5 18H9.5C10.3284 18 11 17.3284 11 16.5C11 15.6716 10.3284 15 9.5 15H8.5Z" fill="#5714CC"/>
<path d="M20.5 15C19.6716 15 19 15.6716 19 16.5C19 17.3284 19.6716 18 20.5 18H21.5C22.3284 18 23 17.3284 23 16.5C23 15.6716 22.3284 15 21.5 15H20.5Z" fill="#5714CC"/>
<path opacity="0.5" d="M16.05 13H20.95C20.7183 11.8589 19.7095 11 18.5 11C17.2905 11 16.2816 11.8589 16.05 13Z" fill="#FFC30D"/>
</svg>
