<svg width="30" height="30" viewBox="0 0 30 30" fill="none" xmlns="http://www.w3.org/2000/svg">
<path d="M5.38965 6.45019C6.17046 5.06851 7.90625 4.52734 9.3418 5.24511L17.8623 9.50488C18.1942 8.88907 18.7398 8.38435 19.4463 8.11914L19.5928 8.06836C21.0552 7.60333 22.639 8.32167 23.251 9.73046L23.3096 9.87402L24.8096 13.874C25.0003 14.4998 25 15 25 16V23C25 24.1046 24.1046 25 23 25H7C5.89543 25 5 24.1046 5 23V8C5 7 5.38965 6.45019 5.38965 6.45019Z" fill="#373737"/>
<path d="M15.1504 15.0752C14.9762 15.6085 14.9468 16.1958 15.1025 16.7773C15.5316 18.3759 17.1757 19.327 18.7764 18.8984L18.7773 18.8975L21.3916 18.1953L23 19V23H7V11L15.1504 15.0752Z" fill="url(#paint0_linear_2173_22679)"/>
<path d="M7.10548 7.48096C7.35247 6.98699 7.95329 6.78671 8.44727 7.0337L20.169 12.8941L19.5635 11.2798C19.3696 10.7628 19.6315 10.1857 20.1484 9.99171C20.6655 9.79783 21.2425 10.0598 21.4365 10.5767L22.9365 14.5767C23.0355 14.8406 23.0185 15.1346 22.8897 15.3853C22.7606 15.6361 22.5312 15.821 22.2588 15.8941L18.2588 16.9663C17.7255 17.1091 17.1773 16.7924 17.0342 16.2593C16.8912 15.7258 17.2078 15.1766 17.7412 15.0337L19.1953 14.6441L7.55274 8.82276C7.05876 8.57577 6.85849 7.97494 7.10548 7.48096Z" fill="#FFC107"/>
<defs>
<linearGradient id="paint0_linear_2173_22679" x1="14.5" y1="14" x2="14.5" y2="23" gradientUnits="userSpaceOnUse">
<stop stop-color="#2E9E7A"/>
<stop offset="1" stop-color="#2E9E7A"/>
</linearGradient>
</defs>
</svg>
