<svg width="30" height="30" viewBox="0 0 30 30" fill="none" xmlns="http://www.w3.org/2000/svg">
<path d="M15.1935 23.0805C14.5565 23.4817 13.8387 23.7665 13.0701 23.9049C13.5684 23.2079 13.8922 22.3776 13.9775 21.4778C14.3629 21.2582 14.7083 20.9763 15 20.6458V21.5C15 22.0451 15.0671 22.5745 15.1935 23.0805Z" fill="#FF8800"/>
<path d="M16 13.0343C16.7518 11.8437 17.8796 10.9141 19.2165 10.4124C18.8795 10.1537 18.4577 10 18 10C16.8954 10 16 10.8954 16 12V13.0343Z" fill="#FF8800"/>
<path d="M21.4649 10.0001C21.4766 10 21.4883 10 21.5 10C22.3053 10 23.0765 10.1465 23.7882 10.4142C23.0928 7.87 20.7648 6 18 6C16.1413 6 14.4799 6.84521 13.3794 8.17226C13.3341 8.11349 13.2864 8.05601 13.2361 7.99996C13.7112 7.46921 14 6.76834 14 6C14 4.34315 12.6569 3 11 3H7C5.34315 3 4 4.34315 4 6C4 6.76834 4.28884 7.46921 4.76386 7.99996C3.70845 9.17787 3.74672 10.9894 4.87868 12.1213C5.20617 12.4488 5.59055 12.6848 6 12.8292V13.1707C6.31278 13.0602 6.64936 13 7 13H8V10.4142L7.70711 10.7071C7.31658 11.0976 6.68342 11.0976 6.29289 10.7071C5.90237 10.3166 5.90237 9.68342 6.29289 9.29289L8.29289 7.29289C8.48801 7.09777 8.74371 7.00014 8.99945 7H7C6.44772 7 6 6.55228 6 6C6 5.44772 6.44772 5 7 5H11C11.5523 5 12 5.44772 12 6C12 6.55229 11.5523 7 11 7H9.00055C9.25629 7.00014 9.51199 7.09777 9.70711 7.29289L11.7071 9.29289C12.0976 9.68342 12.0976 10.3166 11.7071 10.7071C11.3166 11.0976 10.6834 11.0976 10.2929 10.7071L10 10.4142V13H11C12.6569 13 14 14.3431 14 16V12C14 9.79086 15.7909 8 18 8C19.4806 8 20.7733 8.80444 21.4649 10.0001Z" fill="#FF8800"/>
<path fill-rule="evenodd" clip-rule="evenodd" d="M11 15H7C6.44772 15 6 15.4477 6 16V21C6 22.6569 7.34315 24 9 24C10.6569 24 12 22.6569 12 21V16C12 15.4477 11.5523 15 11 15ZM7 13C5.34315 13 4 14.3431 4 16V21C4 23.7614 6.23858 26 9 26C11.7614 26 14 23.7614 14 21V16C14 14.3431 12.6569 13 11 13H7Z" fill="#FF8800"/>
<path opacity="0.2" d="M6 16C6 15.4477 6.44772 15 7 15H11C11.5523 15 12 15.4477 12 16V21C12 22.6569 10.6569 24 9 24C7.34315 24 6 22.6569 6 21V16Z" fill="#FF8800"/>
<path d="M8 18C8 17.4477 8.44772 17 9 17C9.55228 17 10 17.4477 10 18C10 18.5523 9.55228 19 9 19C8.44772 19 8 18.5523 8 18Z" fill="#FF8800"/>
<path opacity="0.5" d="M9 20.5C9 20.2239 9.22386 20 9.5 20C9.77614 20 10 20.2239 10 20.5V21.5C10 21.7761 9.77614 22 9.5 22C9.22386 22 9 21.7761 9 21.5V20.5Z" fill="#FF8800"/>
<path fill-rule="evenodd" clip-rule="evenodd" d="M21.5 12C19.0147 12 17 14.0147 17 16.5V21.5C17 23.9853 19.0147 26 21.5 26C23.9853 26 26 23.9853 26 21.5V16.5C26 14.0147 23.9853 12 21.5 12ZM22 18V14L19 20H21L21 24L24 18H22Z" fill="#FF8800"/>
<path opacity="0.2" d="M12 6C12 5.44772 11.5523 5 11 5H7C6.44772 5 6 5.44772 6 6C6 6.55228 6.44772 7 7 7L11 7C11.5523 7 12 6.55229 12 6Z" fill="#FF8800"/>
</svg>
