<svg width="30" height="30" viewBox="0 0 30 30" fill="none" xmlns="http://www.w3.org/2000/svg">
<path d="M14.9999 23C16.1045 23 16.9999 23.8955 16.9999 25C16.9999 26.1045 16.1045 27 14.9999 27C13.8954 27 12.9999 26.1046 12.9999 25C12.9999 23.8954 13.8954 23 14.9999 23Z" fill="#FF8800"/>
<path d="M14.9999 9C15.5522 9.00004 15.9999 9.44774 15.9999 10V17.5859L17.2929 16.293C17.6834 15.9025 18.3164 15.9025 18.707 16.293C19.0974 16.6835 19.0974 17.3165 18.707 17.707L15.707 20.707C15.3164 21.0975 14.6834 21.0975 14.2929 20.707L11.2929 17.707C10.9024 17.3165 10.9024 16.6835 11.2929 16.293C11.6834 15.9025 12.3164 15.9025 12.707 16.293L13.9999 17.5859V10C13.9999 9.44772 14.4476 9 14.9999 9Z" fill="#FF8800"/>
<path d="M14.9999 3C16.1045 3.00004 16.9999 3.89546 16.9999 5C16.9999 6.10454 16.1045 6.99996 14.9999 7C13.8954 7 12.9999 6.10457 12.9999 5C12.9999 3.89543 13.8954 3 14.9999 3Z" fill="#FF8800"/>
</svg>
