<svg width="30" height="30" viewBox="0 0 30 30" fill="none" xmlns="http://www.w3.org/2000/svg">
<path opacity="0.3" d="M8 7.5L15 11V26L8 22.5V7.5Z" fill="#FF8800"/>
<path opacity="0.2" d="M8 7.5L15 11L22 7.5L15 4L8 7.5Z" fill="#FF8800"/>
<path opacity="0.6" d="M22 7.5L15 11V26L22 22.5V7.5Z" fill="#FF8800"/>
<path d="M9 21.8818L14 24.3818V11.6182L9 9.11817V21.8818ZM16 11.6182V24.3818L21 21.8818V9.11817L16 11.6182ZM10.2363 7.50001L15 9.88184L19.7637 7.50001L15 5.11817L10.2363 7.50001ZM23 22.5C23 22.8788 22.786 23.2251 22.4473 23.3945L15.4473 26.8945C15.1657 27.0353 14.8343 27.0353 14.5527 26.8945L7.55273 23.3945C7.21395 23.2251 7 22.8788 7 22.5V7.50001C7 7.12124 7.21395 6.77487 7.55273 6.60548L14.5527 3.10548L14.6602 3.05958C14.9161 2.96706 15.2008 2.98225 15.4473 3.10548L22.4473 6.60548C22.786 6.77487 23 7.12124 23 7.50001V22.5Z" fill="#FF8800"/>
</svg>
