<svg width="30" height="30" viewBox="0 0 30 30" fill="none" xmlns="http://www.w3.org/2000/svg">
<path d="M24.3471 10.5H23.9236L23.8539 10.9178L23.6576 12.0958C23.5527 12.7251 23.5 13.362 23.5 14V15C23.5 17.4853 21.4853 19.5 19 19.5H10C7.51472 19.5 5.5 17.4853 5.5 15V13.5H22.0383H22.5014L22.5368 13.0382C22.5652 12.6676 22.61 12.2983 22.6712 11.9314L23.0068 9.9178C23.047 9.67671 23.2556 9.5 23.5 9.5H25C25.2761 9.5 25.5 9.72386 25.5 10C25.5 10.2761 25.2761 10.5 25 10.5H24.3471ZM12.4892 10.4919H5.52245C5.77504 7.69315 8.12737 5.5 10.9919 5.5H12.4892V10.4919ZM11.4919 23.9758C11.4919 24.8027 10.8216 25.4731 9.99463 25.4731C9.16768 25.4731 8.49731 24.8027 8.49731 23.9758C8.49731 23.1489 9.16768 22.4785 9.99463 22.4785C10.8216 22.4785 11.4919 23.1489 11.4919 23.9758ZM20.4785 23.9973C20.4785 24.8243 19.8081 25.4946 18.9812 25.4946C18.1543 25.4946 17.4839 24.8243 17.4839 23.9973C17.4839 23.1704 18.1543 22.5 18.9812 22.5C19.8081 22.5 20.4785 23.1704 20.4785 23.9973Z" fill="#FF8800" stroke="#FF8800"/>
</svg>
