<svg width="30" height="30" viewBox="0 0 30 30" fill="none" xmlns="http://www.w3.org/2000/svg">
<path d="M23 24C21.61 24 20.22 23.53 19 22.68C16.56 24.39 13.44 24.39 11 22.68C9.78001 23.53 8.39001 24 7.00001 24H5.00001V26H7.00001C8.38001 26 9.74001 25.65 11 25.01C13.52 26.3 16.48 26.3 19 25.01C20.26 25.66 21.62 26 23 26H25V24H23ZM6.95001 22H7.00001C8.60001 22 10.02 21.12 11 20C11.98 21.12 13.4 22 15 22C16.6 22 18.02 21.12 19 20C19.98 21.12 21.4 22 23 22H23.05L24.94 15.32C25.02 15.06 25 14.78 24.88 14.54C24.76 14.3 24.54 14.12 24.28 14.04L23 13.62V9C23 7.9 22.1 7 21 7H18V4H12V7H9.00001C7.90001 7 7.00001 7.9 7.00001 9V13.62L5.71001 14.04C5.45001 14.12 5.23001 14.3 5.11001 14.54C4.99001 14.78 4.96001 15.06 5.05001 15.32L6.95001 22ZM9.00001 9H21V12.97L15 11L9.00001 12.97V9Z" fill="#FF8800"/>
</svg>
