<svg width="30" height="30" viewBox="0 0 30 30" fill="none" xmlns="http://www.w3.org/2000/svg">
<path fill-rule="evenodd" clip-rule="evenodd" d="M15 3C21.6274 3 27 8.37258 27 15C27 21.6274 21.6274 27 15 27C8.37258 27 3 21.6274 3 15C3 8.37258 8.37258 3 15 3ZM15 20C13.8029 20 12.7633 20.0606 11.8643 20.1582C12.2812 21.2887 12.8006 22.201 13.3135 22.9189C13.8862 23.7208 14.456 24.2881 14.874 24.6504C14.9172 24.6878 14.9603 24.7209 15 24.7539C15.0397 24.7209 15.0828 24.6878 15.126 24.6504C15.544 24.2881 16.1138 23.7208 16.6865 22.9189C17.1993 22.201 17.7178 21.2885 18.1348 20.1582C17.2359 20.0606 16.1967 20 15 20ZM9.85645 20.4766C9.1918 20.6205 8.65062 20.7817 8.2168 20.9395C7.81669 21.0849 7.50775 21.229 7.27539 21.3516C8.50279 22.8426 10.1538 23.9716 12.0439 24.5557C11.9256 24.4053 11.8055 24.2477 11.6865 24.0811C11.0159 23.1422 10.3553 21.9496 9.85645 20.4766ZM20.1426 20.4766C19.6437 21.9495 18.984 23.1423 18.3135 24.0811C18.1943 24.2478 18.0735 24.4051 17.9551 24.5557C19.8454 23.9717 21.4961 22.8426 22.7236 21.3516C22.4914 21.2291 22.1829 21.0848 21.7832 20.9395C21.3492 20.7816 20.8077 20.6205 20.1426 20.4766ZM6.16211 10.3203C5.42115 11.7168 5 13.309 5 15C5 16.6907 5.4214 18.2824 6.16211 19.6787C6.50285 19.487 6.95303 19.2715 7.5332 19.0605C8.03444 18.8783 8.63201 18.7 9.33887 18.543C9.12571 17.478 9 16.2993 9 15C9 13.7003 9.12559 12.5213 9.33887 11.4561C8.6321 11.299 8.03439 11.1217 7.5332 10.9395C6.95279 10.7284 6.5029 10.5121 6.16211 10.3203ZM23.8369 10.3203C23.4962 10.512 23.0468 10.7285 22.4668 10.9395C21.9654 11.1218 21.3673 11.2989 20.6602 11.4561C20.8735 12.5213 21 13.7003 21 15C21 16.2994 20.8733 17.4779 20.6602 18.543C21.3674 18.7001 21.9653 18.8782 22.4668 19.0605C23.0466 19.2714 23.4963 19.4871 23.8369 19.6787C24.5778 18.2823 25 16.6909 25 15C25 13.3088 24.578 11.7169 23.8369 10.3203ZM18.6875 11.79C17.6325 11.9192 16.4108 12 15 12C13.5888 12 12.3667 11.9193 11.3115 11.79C11.1164 12.7441 11 13.8113 11 15C11 16.1883 11.1165 17.2552 11.3115 18.209C12.3667 18.0798 13.5888 18 15 18C16.4107 18 17.6326 18.0798 18.6875 18.209C18.8826 17.2551 19 16.1884 19 15C19 13.8112 18.8827 12.7441 18.6875 11.79ZM14.874 5.34961C14.456 5.7119 13.8862 6.2792 13.3135 7.08105C12.8008 7.79886 12.2812 8.71074 11.8643 9.84082C12.7634 9.93848 13.8029 10 15 10C16.1967 10 17.2359 9.93842 18.1348 9.84082C17.7179 8.71088 17.1992 7.79879 16.6865 7.08105C16.1138 6.2792 15.544 5.7119 15.126 5.34961C15.0827 5.31208 15.0398 5.27822 15 5.24512C14.9602 5.27822 14.9173 5.31208 14.874 5.34961ZM12.0439 5.44336C10.1539 6.02732 8.5028 7.15668 7.27539 8.64746C7.5078 8.77004 7.81646 8.91497 8.2168 9.06055C8.65058 9.21828 9.19189 9.37857 9.85645 9.52246C10.3553 8.04978 11.016 6.85761 11.6865 5.91895C11.8057 5.75212 11.9255 5.59393 12.0439 5.44336ZM17.9551 5.44336C18.0737 5.59408 18.1942 5.75194 18.3135 5.91895C18.9839 6.85755 19.6438 8.04992 20.1426 9.52246C20.8076 9.37852 21.3492 9.21835 21.7832 9.06055C22.1831 8.91513 22.4913 8.76995 22.7236 8.64746C21.4961 7.15668 19.8453 6.02717 17.9551 5.44336Z" fill="#FF8800"/>
</svg>
