<svg width="30" height="30" viewBox="0 0 30 30" fill="none" xmlns="http://www.w3.org/2000/svg">
<path d="M23 5C23.0094 5 23.0189 5.00074 23.0283 5.00098C23.2769 5.00441 23.527 5.05352 23.7656 5.15235C24.5128 5.46197 25 6.19117 25 7V23C25 24.1046 24.1046 25 23 25H7C5.89543 25 5 24.1046 5 23V21C5 20.5673 5.14075 20.146 5.40039 19.7998L8.40039 15.7998L8.55176 15.6211C8.92685 15.2271 9.44925 15 10 15H10.7578L15.7627 9.99512C15.3214 9.50056 15.0397 8.86042 15.0039 8.1543L15 8L15.0039 7.84571C15.0843 6.26062 16.395 5.00004 18 5C18 5 22 4.99993 23 5Z" fill="#373737"/>
<path d="M23 17V23H7V21L10 17H23Z" fill="#FFC107"/>
<path d="M23 9V17H13L22 8L23 9Z" fill="#E71D36"/>
<path d="M14.293 15.707C14.6835 16.0976 15.3165 16.0976 15.707 15.707L21 10.4141V12C21 12.5523 21.4477 13 22 13C22.5523 13 23 12.5523 23 12V8C23 7.44771 22.5523 7 22 7H18C17.4477 7 17 7.44771 17 8C17 8.55228 17.4477 9 18 9H19.5859L14.293 14.293C13.9024 14.6835 13.9024 15.3165 14.293 15.707Z" fill="white"/>
</svg>
