<svg width="30" height="30" viewBox="0 0 30 30" fill="none" xmlns="http://www.w3.org/2000/svg">
<path fill-rule="evenodd" clip-rule="evenodd" d="M9 21.0001H11.5815C11.2065 20.0736 11 19.0609 11 18C11 16.1081 11.6567 14.3696 12.7546 13H9.02759L9.69425 9H20.3057L20.4957 10.1396C21.256 10.2834 21.9784 10.5348 22.6462 10.8774L22.2785 8.6712C22.1178 7.70683 21.2834 7 20.3057 7H9.69425C8.71658 7 7.8822 7.70683 7.72147 8.6712L7 13L6 13.0001C5.44772 13.0001 5 13.4478 5 14.0001C5 14.5523 5.44772 15.0001 6 15.0001L6 21.5001C6 22.3285 6.67157 23.0001 7.5 23.0001C8.32843 23.0001 9 22.3285 9 21.5001V21.0001ZM8 16.5001C8 15.6716 8.67157 15.0001 9.5 15.0001C10.3284 15.0001 11 15.6716 11 16.5001C11 17.3285 10.3284 18.0001 9.5 18.0001C8.67157 18.0001 8 17.3285 8 16.5001Z" fill="#FF8800"/>
<path fill-rule="evenodd" clip-rule="evenodd" d="M25 18C25 21.3137 22.3137 24 19 24C15.6863 24 13 21.3137 13 18C13 14.6863 15.6863 12 19 12C22.3137 12 25 14.6863 25 18ZM19 14C19.5523 14 20 14.4477 20 15V18L21.6 19.2C22.0418 19.5314 22.1314 20.1582 21.8 20.6C21.4686 21.0418 20.8418 21.1314 20.4 20.8L18.4 19.3C18.1482 19.1111 18 18.8148 18 18.5V15C18 14.4477 18.4477 14 19 14Z" fill="#FF8800"/>
</svg>
