<svg width="30" height="30" viewBox="0 0 30 30" fill="none" xmlns="http://www.w3.org/2000/svg">
<path d="M5 7C5 5.89543 5.89543 5 7 5H23C24.1046 5 25 5.89543 25 7V23C25 24.1046 24.1046 25 23 25H7C5.89543 25 5 24.1046 5 23V7Z" fill="#FFC30D"/>
<g opacity="0.5">
<path d="M10 3C9.44772 3 9 3.44772 9 4V5H11V4C11 3.44772 10.5523 3 10 3Z" fill="#FFC30D"/>
<path d="M20 3C19.4477 3 19 3.44772 19 4V5H21V4C21 3.44772 20.5523 3 20 3Z" fill="#FFC30D"/>
</g>
<path d="M7 10H23V23H7V10Z" fill="white" fill-opacity="0.2"/>
<path d="M9 12V14H11V12H9Z" fill="white"/>
<path d="M14 12V14H16V12H14Z" fill="white"/>
<path d="M19 14V12H21V14H19Z" fill="white"/>
<path d="M9 17V19H11V17H9Z" fill="white"/>
<path d="M14 19V17H16V19H14Z" fill="white"/>
<path d="M19 17V19H21V17H19Z" fill="white"/>
<path d="M9 14L9 12L11 12V14H9Z" fill="#5714CC"/>
<circle cx="20" cy="20" r="7" fill="#5714CC"/>
<path d="M20 22C21.1046 22 22 21.1046 22 20C22 18.8954 21.1046 18 20 18C18.8954 18 18 18.8954 18 20H20L17 23L14 20H16C16 17.7909 17.7909 16 20 16C22.2091 16 24 17.7909 24 20C24 22.2091 22.2091 24 20 24V22Z" fill="#FFC30D"/>
</svg>
