<svg width="30" height="30" viewBox="0 0 30 30" fill="none" xmlns="http://www.w3.org/2000/svg">
<path opacity="0.2" d="M4 6C4 4.89543 4.89543 4 6 4H24C25.1046 4 26 4.89543 26 6V24C26 25.1046 25.1046 26 24 26H6C4.89543 26 4 25.1046 4 24V6Z" fill="#FF8800"/>
<path fill-rule="evenodd" clip-rule="evenodd" d="M20 5C19.4477 5 19 5.44772 19 6V7.17071C18.1476 7.47199 17.472 8.14759 17.1707 9H16C15.4477 9 15 9.44772 15 10C15 10.5523 15.4477 11 16 11H17.1707C17.472 11.8524 18.1476 12.528 19 12.8293V14C19 14.5523 19.4477 15 20 15C20.5523 15 21 14.5523 21 14V12.8293C21.8524 12.528 22.528 11.8524 22.8293 11H24C24.5523 11 25 10.5523 25 10C25 9.44772 24.5523 9 24 9H22.8293C22.528 8.14759 21.8524 7.47199 21 7.17071V6C21 5.44772 20.5523 5 20 5ZM20 11C20.5523 11 21 10.5523 21 10C21 9.44772 20.5523 9 20 9C19.4477 9 19 9.44772 19 10C19 10.5523 19.4477 11 20 11Z" fill="#FF8800"/>
<path d="M7 25C8.10457 25 9 24.1046 9 23C9 21.8954 8.10457 21 7 21C5.89543 21 5 21.8954 5 23C5 24.1046 5.89543 25 7 25Z" fill="#FF8800"/>
<path opacity="0.5" fill-rule="evenodd" clip-rule="evenodd" d="M16.7071 13.2929C17.0976 13.6834 17.0976 14.3166 16.7071 14.7071L14.7071 16.7071C14.3166 17.0976 13.6834 17.0976 13.2929 16.7071C12.9024 16.3166 12.9024 15.6834 13.2929 15.2929L15.2929 13.2929C15.6834 12.9024 16.3166 12.9024 16.7071 13.2929ZM12.7071 17.2929C13.0976 17.6834 13.0976 18.3166 12.7071 18.7071L10.7071 20.7071C10.3166 21.0976 9.68342 21.0976 9.29289 20.7071C8.90237 20.3166 8.90237 19.6834 9.29289 19.2929L11.2929 17.2929C11.6834 16.9024 12.3166 16.9024 12.7071 17.2929Z" fill="#FF8800"/>
</svg>
