<svg width="30" height="30" viewBox="0 0 30 30" fill="none" xmlns="http://www.w3.org/2000/svg">
<path d="M19.1436 2.06522C19.6005 1.89042 20.1245 2.0733 20.3701 2.5076L26.8701 14.0076C27.005 14.2462 27.0361 14.5297 26.9561 14.7918C26.876 15.0538 26.6924 15.2718 26.4473 15.3943L25 16.118V22.4998C25 22.8786 24.7861 23.2249 24.4473 23.3943L15.4473 27.8943C15.1658 28.0351 14.8343 28.0351 14.5528 27.8943L5.55276 23.3943C5.21397 23.2249 5.00002 22.8786 5.00002 22.4998V14.118L3.55276 13.3943C3.24471 13.2403 3.03793 12.9383 3.00491 12.5955C2.97194 12.2527 3.1177 11.9168 3.39065 11.7068L9.89065 6.70682L9.96877 6.65213C9.99593 6.63511 10.0241 6.61961 10.0528 6.60526L19.0528 2.10526L19.1436 2.06522ZM7.00002 21.8816L14 25.3816V18.618L7.00002 15.118V21.8816ZM17.4473 19.8943C17.1658 20.0351 16.8343 20.0351 16.5528 19.8943L16 19.618V25.3816L23 21.8816V17.118L17.4473 19.8943ZM11.8877 7.92362L17.4024 17.6795L24.6114 14.075L19.0967 4.31913L11.8877 7.92362ZM5.87502 12.3191L14.5176 16.6404L10.1963 8.99393L5.87502 12.3191Z" fill="#FF8800"/>
</svg>
