<svg width="30" height="30" viewBox="0 0 30 30" fill="none" xmlns="http://www.w3.org/2000/svg">
<path opacity="0.5" d="M22 3C24.2091 3 26 4.79086 26 7V27H24V7C24 5.89543 23.1046 5 22 5H20V6C20 6.55228 19.5523 7 19 7H11C10.4477 7 10 6.55228 10 6V5H8C6.89543 5 6 5.89543 6 7V27H4V7C4 4.79086 5.79086 3 8 3H22Z" fill="#FF8800"/>
<path opacity="0.2" d="M22 5C23.1046 5 24 5.89543 24 7V27H16V7H19C19.5523 7 20 6.55228 20 6V5H22Z" fill="#FF8800"/>
<path d="M10 5V6C10 6.55228 10.4477 7 11 7H16V27H6V7C6 5.89543 6.89543 5 8 5H10Z" fill="#FF8800"/>
</svg>
