<svg width="30" height="30" viewBox="0 0 30 30" fill="none" xmlns="http://www.w3.org/2000/svg">
<path fill-rule="evenodd" clip-rule="evenodd" d="M15 5C21.6274 5 27 10.3726 27 17V20C27 21.1046 26.1046 22 25 22H20.1953C19.1578 23.7929 17.2205 25 15 25C12.7795 25 10.8422 23.7929 9.80469 22H5C3.89543 22 3 21.1046 3 20V17C3 10.3726 8.37258 5 15 5ZM15 9.00098C14.4479 9.00125 13.999 9.44886 13.999 10.001L14 15.1748C12.8355 15.587 12 16.6952 12 18.001C12.0006 19.6572 13.3437 21.0008 15 21.001C16.6563 21.0008 17.9994 19.6572 18 18.001C18 16.6954 17.1643 15.5871 16 15.1748V10.001C16 9.44887 15.552 9.00126 15 9.00098ZM7 16C6.44808 16.0002 6.00032 16.4481 6 17C6.00026 17.5519 6.44805 17.9998 7 18H8C8.55178 17.9998 8.99947 17.5527 9 17.001C8.99995 16.4489 8.55207 16.0002 8 16H7ZM23 16C22.4481 16.0002 22.0003 16.4481 22 17C22.0003 17.5519 22.448 17.9998 23 18H24C24.5518 17.9998 24.9995 17.5527 25 17.001C24.9999 16.4489 24.5521 16.0002 24 16H23Z" fill="#FF8800"/>
</svg>
