<svg width="30" height="30" viewBox="0 0 30 30" fill="none" xmlns="http://www.w3.org/2000/svg">
<path d="M14 9C15.1046 9 16 8.10457 16 7C16 5.89543 15.1046 5 14 5C12.8954 5 12 5.89543 12 7C12 8.10457 12.8954 9 14 9Z" fill="#FF8800"/>
<path d="M21 15.9999V13.9999C19.46 14.0199 17.91 13.2499 16.93 12.1699L15.64 10.7399C15.47 10.5499 15.26 10.3999 15.03 10.2899C15.02 10.2899 15.02 10.2799 15.01 10.2799H15C14.65 10.0799 14.25 9.97992 13.81 10.0199C12.76 10.1099 12 11.0399 12 12.0899V17.9999C12 19.0999 12.9 19.9999 14 19.9999H19V24.9999H21V19.4999C21 18.3999 20.1 17.4999 19 17.4999H16V14.0499C17.29 15.1199 19.25 15.9899 21 15.9999ZM14.83 20.9999C14.42 22.1599 13.31 22.9999 12 22.9999C10.34 22.9999 9 21.6599 9 19.9999C9 18.6899 9.84 17.5899 11 17.1699V15.0999C8.72 15.5599 7 17.5799 7 19.9999C7 22.7599 9.24 24.9999 12 24.9999C14.42 24.9999 16.44 23.2799 16.9 20.9999H14.83Z" fill="#FF8800"/>
</svg>
