<svg width="30" height="30" viewBox="0 0 30 30" fill="none" xmlns="http://www.w3.org/2000/svg">
<path fill-rule="evenodd" clip-rule="evenodd" d="M11.068 6C12.5446 6 13.9275 6.53418 15 7.44629C16.0725 6.53418 17.4554 6 18.932 6C22.2833 6 25 8.71672 25 12.068V13C25 13.2827 24.9831 13.5607 24.951 13.8337C24.9833 14.0511 25 14.2736 25 14.5V19.5C25 21.9853 22.9853 24 20.5 24C19.4385 24 18.4629 23.6325 17.6935 23.0178C17.3985 23.2066 17.1447 23.3607 16.9473 23.4772C16.3256 23.8441 15.6479 24 15 24C14.3521 24 13.6744 23.8441 13.0527 23.4772C12.1945 22.9707 10.2707 21.7546 8.53656 20.0547C6.86453 18.4156 5 15.9677 5 13V12.068C5 8.71672 7.71672 6 11.068 6Z" fill="#53362D"/>
<path fill-rule="evenodd" clip-rule="evenodd" d="M14.9272 10.7816L15 11L15.0728 10.7816C15.6265 9.12044 17.181 8 18.932 8C20.6557 8 22.129 9.07201 22.7215 10.5857C22.0661 10.2129 21.3079 10 20.5 10C18.0147 10 16 12.0147 16 14.5V19.5C16 20.1963 16.1581 20.8557 16.4405 21.4441C16.2444 21.5673 16.0723 21.6713 15.9308 21.7548C15.6481 21.9216 15.3283 22 15 22C14.6717 22 14.3519 21.9216 14.0692 21.7548C12.4746 20.8138 7 17.2719 7 13V12.068C7 9.82129 8.82129 8 11.068 8C12.819 8 14.3735 9.12044 14.9272 10.7816Z" fill="#EE5622"/>
<path d="M21 12L21 16L23 16L20 22L20 18L18 18L21 12Z" fill="#FFC107"/>
</svg>
