<svg width="30" height="30" viewBox="0 0 30 30" fill="none" xmlns="http://www.w3.org/2000/svg">
<path d="M15.9993 10.0003C18.2085 10.0003 19.9993 11.7912 19.9993 14.0003C19.9992 16.2093 18.2084 18.0003 15.9993 18.0003C13.7906 17.9999 11.9995 16.2091 11.9993 14.0003C11.9993 11.7914 13.7905 10.0007 15.9993 10.0003Z" fill="#FF8800"/>
<path fill-rule="evenodd" clip-rule="evenodd" d="M14.2806 4.03938C14.4099 4.01359 14.5429 4.01355 14.6722 4.03938L19.5179 5.00813C19.6474 5.03402 19.781 5.03402 19.9105 5.00813L23.972 4.19661C24.5135 4.08834 25.0404 4.43925 25.1488 4.98079L25.9613 9.04231C25.9871 9.17152 25.987 9.3047 25.9613 9.43391L24.9915 14.2806C24.9657 14.4098 24.9657 14.5429 24.9915 14.6722L25.9613 19.5179C25.9871 19.6473 25.9871 19.781 25.9613 19.9105L25.0833 24.2991C25.0041 24.6947 24.6947 25.0041 24.2991 25.0833L19.9105 25.9613C19.781 25.9871 19.6473 25.9871 19.5179 25.9613L14.6722 24.9915C14.5429 24.9657 14.4098 24.9657 14.2806 24.9915L9.43391 25.9613C9.3047 25.987 9.17152 25.9871 9.04231 25.9613L4.98079 25.1488C4.43925 25.0404 4.08833 24.5135 4.19661 23.972L5.00813 19.9105C5.03402 19.781 5.03402 19.6474 5.00813 19.5179L4.03938 14.6722C4.01355 14.5429 4.01359 14.4099 4.03938 14.2806L5.00813 9.43391C5.03396 9.30461 5.03396 9.17162 5.00813 9.04231L4.29427 5.47102C4.15432 4.7713 4.7713 4.15432 5.47102 4.29427L9.04231 5.00813C9.17162 5.03396 9.30461 5.03396 9.43391 5.00813L14.2806 4.03938ZM15.9993 8.00032C12.686 8.0007 9.99934 10.6868 9.99934 14.0003C9.9994 15.3784 10.4653 16.6475 11.2464 17.6605C11.2397 17.6668 11.2324 17.6735 11.2259 17.68L8.36653 20.5394C7.9917 20.9147 7.99153 21.5235 8.36653 21.8988C8.74174 22.274 9.3505 22.2737 9.72591 21.8988L12.5853 19.0394C12.6057 19.019 12.6247 18.9967 12.6429 18.9749C13.6007 19.6225 14.7562 20.0002 15.9993 20.0003C19.313 20.0003 21.9992 17.3139 21.9993 14.0003C21.9993 10.6866 19.3131 8.00032 15.9993 8.00032Z" fill="#FF8800"/>
</svg>
