<svg width="30" height="30" viewBox="0 0 30 30" fill="none" xmlns="http://www.w3.org/2000/svg">
<path d="M2 15L15 2L28 15L15 28L2 15Z" fill="white"/>
<path d="M15 28L2 15H28L15 28Z" fill="black"/>
<path d="M3.41421 15L15 3.41421L26.5858 15L15 26.5858L3.41421 15Z" stroke="black" stroke-width="2"/>
<path fill-rule="evenodd" clip-rule="evenodd" d="M12.2892 14.2861C12.1039 13.8963 12 13.46 12 13C12 11.3431 13.3431 10 15 10C16.6569 10 18 11.3431 18 13C18 13.46 17.8961 13.8963 17.7108 14.2861C18.2034 14.8888 18.5 15.6597 18.5 16.5C18.5 18.433 16.933 20 15 20C13.067 20 11.5 18.433 11.5 16.5C11.5 15.6597 11.7966 14.8888 12.2892 14.2861Z" fill="white"/>
<path fill-rule="evenodd" clip-rule="evenodd" d="M16.3999 14.4284C16.7702 14.0654 17 13.5595 17 13C17 11.8954 16.1046 11 15 11C13.8954 11 13 11.8954 13 13C13 13.5595 13.2298 14.0654 13.6001 14.4284C12.9363 14.8778 12.5 15.638 12.5 16.5C12.5 17.8807 13.6193 19 15 19C16.3807 19 17.5 17.8807 17.5 16.5C17.5 15.638 17.0637 14.8778 16.3999 14.4284ZM16 13C16 13.5523 15.5523 14 15 14C14.4477 14 14 13.5523 14 13C14 12.4477 14.4477 12 15 12C15.5523 12 16 12.4477 16 13ZM15 15C14.1716 15 13.5 15.6716 13.5 16.5C13.5 17.3284 14.1716 18 15 18C15.8284 18 16.5 17.3284 16.5 16.5C16.5 15.6716 15.8284 15 15 15Z" fill="black"/>
</svg>
