<svg width="30" height="30" viewBox="0 0 30 30" fill="none" xmlns="http://www.w3.org/2000/svg">
<path d="M10.1892 13.3923C8.18183 14.6644 6.71245 16.709 6.1992 19.1081C4.93113 19.4584 4 20.6205 4 22C4 23.6569 5.34315 25 7 25H23C24.6569 25 26 23.6569 26 22C26 20.6205 25.0689 19.4584 23.8008 19.1081C23.2875 16.709 21.8182 14.6644 19.8108 13.3923C19.9189 13.3103 20.0227 13.22 20.1213 13.1213C21.2929 11.9497 21.2929 10.0503 20.1213 8.87868L17.1213 5.87868C15.9497 4.70711 14.0503 4.70711 12.8787 5.87868L9.87868 8.87868C8.70711 10.0503 8.70711 11.9497 9.87868 13.1213C9.97731 13.22 10.0811 13.3103 10.1892 13.3923Z" fill="#49476B"/>
<rect x="6" y="21" width="18" height="2" rx="1" fill="#1D73FA"/>
<path d="M16 14.0709C19.3923 14.5561 22 17.4735 22 21H8C8 17.4735 10.6077 14.5561 14 14.0709V19C14 19.5523 14.4477 20 15 20C15.5523 20 16 19.5523 16 19V14.0709Z" fill="url(#paint0_linear_1903_16612)"/>
<path d="M16 14.0709V10.4142L17.2929 11.7071C17.6834 12.0976 18.3166 12.0976 18.7071 11.7071C19.0976 11.3166 19.0976 10.6834 18.7071 10.2929L15.7071 7.29289C15.3166 6.90237 14.6834 6.90237 14.2929 7.29289L11.2929 10.2929C10.9024 10.6834 10.9024 11.3166 11.2929 11.7071C11.6834 12.0976 12.3166 12.0976 12.7071 11.7071L14 10.4142V14.0709C14.3266 14.0242 14.6605 14 15 14C15.3395 14 15.6734 14.0242 16 14.0709Z" fill="#FFC107"/>
<defs>
<linearGradient id="paint0_linear_1903_16612" x1="15" y1="14.0214" x2="15" y2="21" gradientUnits="userSpaceOnUse">
<stop stop-color="#FFC807" stop-opacity="0.7"/>
<stop offset="1" stop-color="#FFC107"/>
</linearGradient>
</defs>
</svg>
