<svg width="30" height="30" viewBox="0 0 30 30" fill="none" xmlns="http://www.w3.org/2000/svg">
<path d="M4.11475 15C4.03908 15.3253 4 15.6606 4 16C4 17.1707 4.46507 18.2935 5.29289 19.1213L11.8787 25.7071C12.7065 26.5349 13.8293 27 15 27C16.1707 27 17.2935 26.5349 18.1213 25.7071L24.7071 19.1213C25.5349 18.2935 26 17.1707 26 16C26 15.6606 25.9609 15.3253 25.8853 15H4.11475Z" fill="white" fill-opacity="0.3"/>
<path fill-rule="evenodd" clip-rule="evenodd" d="M11.8787 5.29289C12.7065 4.46507 13.8293 4 15 4C16.1707 4 17.2935 4.46507 18.1213 5.29289L24.7071 11.8787C25.5349 12.7065 26 13.8293 26 15C26 16.1707 25.5349 17.2935 24.7071 18.1213L18.1213 24.7071C17.2935 25.5349 16.1707 26 15 26C13.8293 26 12.7065 25.5349 11.8787 24.7071L5.29289 18.1213C4.46507 17.2935 4 16.1707 4 15C4 13.8293 4.46507 12.7065 5.29289 11.8787L11.8787 5.29289Z" fill="#59361B"/>
<path d="M23.2929 13.2929L16.7071 6.70711C16.2544 6.25435 15.6403 6 15 6C14.3597 6 13.7456 6.25435 13.2929 6.70711L6.70711 13.2929C6.25435 13.7456 6 14.3597 6 15C6 15.6403 6.25435 16.2544 6.70711 16.7071L13.2929 23.2929C13.7456 23.7456 14.3597 24 15 24C15.6403 24 16.2544 23.7456 16.7071 23.2929L23.2929 16.7071C23.7456 16.2544 24 15.6403 24 15C24 14.3597 23.7456 13.7456 23.2929 13.2929Z" fill="#FFC107"/>
<path d="M17 10.5L20.5 14L17 17.5V15H13V18H11V15C11 13.8954 11.8954 13 13 13H17V10.5Z" fill="#59361B"/>
</svg>
