<svg width="30" height="30" viewBox="0 0 30 30" fill="none" xmlns="http://www.w3.org/2000/svg">
<path fill-rule="evenodd" clip-rule="evenodd" d="M15 18C15.7453 18 16.4477 18.0237 17.1084 18.0635C17.7732 19.4389 18.659 20.7879 19.541 21.9727C19.1615 22.7826 18.7403 23.4836 18.3135 24.0811C18.1943 24.2478 18.0735 24.4051 17.9551 24.5557C18.8973 24.2646 19.7781 23.8355 20.5781 23.2959C21.059 23.8841 21.5073 24.4033 21.8867 24.8232C19.937 26.1927 17.5636 27 15 27C12.5075 27 10.1929 26.2393 8.27441 24.9385C8.65822 24.4572 9.06839 23.9124 9.47461 23.333C10.2602 23.8555 11.123 24.2711 12.0439 24.5557C11.9256 24.4053 11.8055 24.2477 11.6865 24.0811C11.2451 23.4631 10.8086 22.735 10.4189 21.8896C11.1712 20.6353 11.7784 19.3149 11.9492 18.1348C12.8734 18.0513 13.889 18 15 18ZM15 20C13.8387 20 12.7943 20.0571 11.8613 20.1504C12.2787 21.2846 12.7994 22.1993 13.3135 22.9189C13.8862 23.7208 14.456 24.2881 14.874 24.6504C14.9171 24.6878 14.9603 24.7209 15 24.7539C15.0397 24.7209 15.0829 24.6878 15.126 24.6504C15.544 24.2881 16.1138 23.7208 16.6865 22.9189C17.2005 22.1994 17.7203 21.2844 18.1377 20.1504C17.205 20.0572 16.1608 20 15 20Z" fill="#FF8800"/>
<path fill-rule="evenodd" clip-rule="evenodd" d="M6.5 14C8.433 14 10 15.5 10 17.5C10 20 6.5 24 6.5 24C6.5 24 3 19.9997 3 17.6426C3.00014 15.4999 4.56709 14 6.5 14ZM6.5 16C5.67157 16 5 16.6716 5 17.5C5 18.3284 5.67157 19 6.5 19C7.32843 19 8 18.3284 8 17.5C8 16.6716 7.32843 16 6.5 16Z" fill="#FF8800"/>
<path fill-rule="evenodd" clip-rule="evenodd" d="M23 9C25.7614 9 28 11.3077 28 14C28 17.7692 23 23 23 23C23 23 18 17.7692 18 14C18 11.3077 20.2386 9 23 9ZM23 12C21.8954 12 21 12.8954 21 14C21 15.1046 21.8954 16 23 16C24.1046 16 25 15.1046 25 14C25 12.8954 24.1046 12 23 12Z" fill="#FF8800"/>
<path fill-rule="evenodd" clip-rule="evenodd" d="M15 3C18.5904 3 21.8097 4.57925 24.0088 7.07812C23.6793 7.02767 23.3426 7 23 7C22.4087 7 21.8346 7.07891 21.2861 7.22461C20.3107 6.434 19.184 5.82292 17.9551 5.44336C18.0737 5.59408 18.1942 5.75194 18.3135 5.91895C18.7309 6.50336 19.1444 7.18614 19.5176 7.97363C18.9208 8.3301 18.3796 8.77186 17.9102 9.27832C17.5385 8.40385 17.1111 7.67552 16.6865 7.08105C16.1138 6.2792 15.544 5.7119 15.126 5.34961C15.0827 5.31208 15.0398 5.27825 15 5.24512C14.9602 5.27825 14.9173 5.31208 14.874 5.34961C14.456 5.7119 13.8862 6.2792 13.3135 7.08105C12.7996 7.80052 12.2787 8.71487 11.8613 9.84863C12.7943 9.94189 13.8387 10 15 10C15.8573 10 16.6508 9.96721 17.3828 9.91309C16.9213 10.5384 16.5597 11.2351 16.3223 11.9727C15.8974 11.9884 15.4568 12 15 12C13.6266 12 12.3988 11.9239 11.3096 11.8018C11.1507 12.5818 11.0449 13.4374 11.0117 14.373C10.5271 13.6777 9.88761 13.0957 9.1416 12.6826C9.19248 12.2759 9.25562 11.8838 9.33008 11.5059C8.45925 11.3406 7.71141 11.15 7.08105 10.9561C6.68164 10.8332 6.3303 10.708 6.02441 10.5898C5.78575 11.0747 5.58456 11.5814 5.42578 12.1064C4.57628 12.2778 3.79756 12.6498 3.1377 13.1748C4.01683 7.4136 8.9931 3 15 3ZM12.0439 5.44336C10.0664 6.05437 8.3522 7.26392 7.10938 8.8584C7.28116 8.9188 7.46729 8.98189 7.66895 9.04395C8.2596 9.22569 8.9812 9.40885 9.84082 9.56641C10.3414 8.07343 11.0094 6.86698 11.6865 5.91895C11.8057 5.75212 11.9255 5.59393 12.0439 5.44336Z" fill="#FF8800"/>
</svg>
