<svg width="30" height="30" viewBox="0 0 30 30" fill="none" xmlns="http://www.w3.org/2000/svg">
<path d="M19 6C19 5.44772 19.4477 5 20 5H24C24.5523 5 25 5.44772 25 6C25 6.55228 24.5523 7 24 7H20C19.4477 7 19 6.55228 19 6Z" fill="#FF8800"/>
<path d="M5 24C5 23.4477 5.44772 23 6 23H10C10.5523 23 11 23.4477 11 24C11 24.5523 10.5523 25 10 25H6C5.44772 25 5 24.5523 5 24Z" fill="#FF8800"/>
<path d="M16 10.5C16 8.01472 13.9853 6 11.5 6C9.01473 6 7.00001 8.01472 7.00001 10.5V17.5858L5.70711 16.2929C5.31658 15.9024 4.68342 15.9024 4.29289 16.2929C3.90237 16.6834 3.90237 17.3166 4.29289 17.7071L7.29289 20.7071C7.68342 21.0976 8.31658 21.0976 8.70711 20.7071L11.7071 17.7071C12.0976 17.3166 12.0976 16.6834 11.7071 16.2929C11.3166 15.9024 10.6834 15.9024 10.2929 16.2929L9.00001 17.5858V10.5C9.00001 9.11929 10.1193 8 11.5 8C12.8807 8 14 9.11929 14 10.5L14 19.5C14 21.9852 16.0147 24 18.5 24C20.9853 24 23 21.9853 23 19.5V12.4142L24.2929 13.7071C24.6834 14.0976 25.3166 14.0976 25.7071 13.7071C26.0976 13.3166 26.0976 12.6834 25.7071 12.2929L22.7103 9.29611C22.6998 9.28549 22.689 9.2751 22.678 9.26495C22.5915 9.18502 22.4943 9.12318 22.3912 9.07942C22.2711 9.02829 22.1388 9 22 9C21.9828 9 21.9656 9.00044 21.9486 9.0013C21.8349 9.00706 21.7262 9.0318 21.6257 9.07242C21.5046 9.12123 21.3911 9.19473 21.2929 9.29289L18.2929 12.2929C17.9024 12.6834 17.9024 13.3166 18.2929 13.7071C18.6834 14.0976 19.3166 14.0976 19.7071 13.7071L21 12.4142V19.5C21 20.8807 19.8807 22 18.5 22C17.1193 22 16 20.8807 16 19.5L16 10.5Z" fill="#FF8800"/>
</svg>
