<svg width="30" height="30" viewBox="0 0 30 30" fill="none" xmlns="http://www.w3.org/2000/svg">
<path fill-rule="evenodd" clip-rule="evenodd" d="M16.7639 22C16.7136 21.944 16.6659 21.8865 16.6206 21.8277C15.5201 23.1548 13.8587 24 12 24C8.68629 24 6 21.3137 6 18V12.8292C5.59055 12.6848 5.20617 12.4488 4.87868 12.1213C3.74672 10.9894 3.70845 9.17787 4.76386 7.99996C4.28884 7.46921 4 6.76834 4 6C4 4.34315 5.34315 3 7 3H11C12.6569 3 14 4.34315 14 6C14 6.76834 13.7112 7.46921 13.2361 7.99996C13.2864 8.05601 13.3341 8.11349 13.3794 8.17226C14.4799 6.84521 16.1413 6 18 6C21.3137 6 24 8.68629 24 12V17.1708C24.4095 17.3152 24.7938 17.5512 25.1213 17.8787C26.2533 19.0106 26.2916 20.8221 25.2361 22C25.7112 22.5308 26 23.2317 26 24C26 25.6569 24.6569 27 23 27H19C17.3431 27 16 25.6569 16 24C16 23.2317 16.2888 22.5308 16.7639 22Z" fill="#595959"/>
<path fill-rule="evenodd" clip-rule="evenodd" d="M18 8C20.2091 8 22 9.79086 22 12V22H20V12C20 10.8954 19.1046 10 18 10V8Z" fill="url(#paint0_linear_1903_16624)"/>
<path fill-rule="evenodd" clip-rule="evenodd" d="M18 10C16.8954 10 16 10.8954 16 12V18C16 20.2091 14.2091 22 12 22V20C13.1046 20 14 19.1046 14 18V12C14 9.79086 15.7909 8 18 8V10Z" fill="#FFC107"/>
<path fill-rule="evenodd" clip-rule="evenodd" d="M8 18V8H10V18C10 19.1046 10.8954 20 12 20V22C9.79086 22 8 20.2091 8 18Z" fill="url(#paint1_linear_1903_16624)"/>
<path fill-rule="evenodd" clip-rule="evenodd" d="M18.2929 19.2929C18.6834 18.9024 19.3166 18.9024 19.7071 19.2929L21 20.5858L22.2929 19.2929C22.6834 18.9024 23.3166 18.9024 23.7071 19.2929C24.0976 19.6834 24.0976 20.3166 23.7071 20.7071L21.7071 22.7071C21.3166 23.0976 20.6834 23.0976 20.2929 22.7071L18.2929 20.7071C17.9024 20.3166 17.9024 19.6834 18.2929 19.2929Z" fill="#FFC107"/>
<path fill-rule="evenodd" clip-rule="evenodd" d="M8.29289 7.29289C8.68342 6.90237 9.31658 6.90237 9.70711 7.29289L11.7071 9.29289C12.0976 9.68342 12.0976 10.3166 11.7071 10.7071C11.3166 11.0976 10.6834 11.0976 10.2929 10.7071L9 9.41421L7.70711 10.7071C7.31658 11.0976 6.68342 11.0976 6.29289 10.7071C5.90237 10.3166 5.90237 9.68342 6.29289 9.29289L8.29289 7.29289Z" fill="#FFC107"/>
<rect x="12" y="5" width="2" height="6" rx="1" transform="rotate(90 12 5)" fill="#D5293B"/>
<path d="M23 23C23.5523 23 24 23.4477 24 24C24 24.5523 23.5523 25 23 25L19 25C18.4477 25 18 24.5523 18 24C18 23.4477 18.4477 23 19 23L23 23Z" fill="#1D73FA"/>
<path d="M4 16C4 14.3431 5.34315 13 7 13H11C12.6569 13 14 14.3431 14 16V21C14 23.7614 11.7614 26 9 26C6.23858 26 4 23.7614 4 21V16Z" fill="#2D2D53"/>
<path d="M6 16C6 15.4477 6.44772 15 7 15H11C11.5523 15 12 15.4477 12 16V21C12 22.6569 10.6569 24 9 24C7.34315 24 6 22.6569 6 21V16Z" fill="#1D73FA"/>
<path d="M8 18C8 17.4477 8.44772 17 9 17C9.55228 17 10 17.4477 10 18C10 18.5523 9.55228 19 9 19C8.44772 19 8 18.5523 8 18Z" fill="#EFE5E9"/>
<path opacity="0.5" d="M9 20.5C9 20.2239 9.22386 20 9.5 20C9.77614 20 10 20.2239 10 20.5V21.5C10 21.7761 9.77614 22 9.5 22C9.22386 22 9 21.7761 9 21.5V20.5Z" fill="#EFE5E9"/>
<defs>
<linearGradient id="paint0_linear_1903_16624" x1="18" y1="10" x2="18" y2="26" gradientUnits="userSpaceOnUse">
<stop stop-color="#FFC107"/>
<stop offset="1" stop-color="#FFC107" stop-opacity="0"/>
</linearGradient>
<linearGradient id="paint1_linear_1903_16624" x1="12" y1="20" x2="12" y2="4" gradientUnits="userSpaceOnUse">
<stop stop-color="#FFC107"/>
<stop offset="1" stop-color="#FFC107" stop-opacity="0"/>
</linearGradient>
</defs>
</svg>
