<svg width="30" height="30" viewBox="0 0 30 30" fill="none" xmlns="http://www.w3.org/2000/svg">
<path fill-rule="evenodd" clip-rule="evenodd" d="M10.4142 5C9.50871 5 8.64029 5.35971 8 6C7.35971 6.64029 7 7.50871 7 8.41421V21C7 21.7403 7.4022 22.3866 8 22.7324V23.5C8 24.3284 8.67157 25 9.5 25C10.3284 25 11 24.3284 11 23.5V23H19V23.5C19 24.3284 19.6716 25 20.5 25C21.3284 25 22 24.3284 22 23.5V22.7324C22.5978 22.3866 23 21.7403 23 21V8.41421C23 7.50871 22.6403 6.64029 22 6C21.3597 5.35971 20.4913 5 19.5858 5H10.4142ZM11 8C11 7.44772 11.4477 7 12 7H18C18.5523 7 19 7.44772 19 8C19 8.55228 18.5523 9 18 9H12C11.4477 9 11 8.55228 11 8ZM9 11H21V17H9V11ZM11 20C11 20.5523 10.5523 21 10 21C9.44772 21 9 20.5523 9 20C9 19.4477 9.44772 19 10 19C10.5523 19 11 19.4477 11 20ZM20 21C20.5523 21 21 20.5523 21 20C21 19.4477 20.5523 19 20 19C19.4477 19 19 19.4477 19 20C19 20.5523 19.4477 21 20 21Z" fill="#FF8800"/>
</svg>
