<svg width="50" height="50" viewBox="0 0 50 50" fill="none" xmlns="http://www.w3.org/2000/svg">
<path opacity="0.5" fill-rule="evenodd" clip-rule="evenodd" d="M16 36C9.92487 36 5 31.0751 5 25C5 18.9249 9.92487 14 16 14C22.0751 14 27 18.9249 27 25C27 31.0751 22.0751 36 16 36ZM16 31C12.6863 31 10 28.3137 10 25C10 21.6863 12.6863 19 16 19C19.3137 19 22 21.6863 22 25C22 28.3137 19.3137 31 16 31Z" fill="white"/>
<path d="M5 25C5 30.0351 8.38299 34.2801 13 35.5859V45H19V34C19 32.3431 17.6569 31 16 31C12.6863 31 10 28.3137 10 25C10 21.6863 12.6863 19 16 19C19.3137 19 22 21.6863 22 25C22 26.6569 23.3431 28 25 28H32.1667L31.0573 30.8528C31.0194 30.9501 31 31.0536 31 31.158V31.191C31 31.6378 31.3622 32 31.809 32C31.9346 32 32.0585 31.9708 32.1708 31.9146L44.5528 25.7236C44.8269 25.5866 45 25.3064 45 25C45 24.6936 44.8269 24.4134 44.5528 24.2764L32.1708 18.0854C32.0585 18.0292 31.9346 18 31.809 18C31.3622 18 31 18.3622 31 18.809V18.842C31 18.9464 31.0194 19.0499 31.0573 19.1472L32.1667 22H26.5859C25.2801 17.383 21.0351 14 16 14C9.92487 14 5 18.9249 5 25Z" fill="white"/>
</svg>
