<svg width="30" height="30" viewBox="0 0 30 30" fill="none" xmlns="http://www.w3.org/2000/svg">
<path opacity="0.2" d="M14 8C14 7.44772 13.5523 7 13 7H7C6.44772 7 6 7.44772 6 8V12H14V8Z" fill="#FF8800"/>
<path fill-rule="evenodd" clip-rule="evenodd" d="M13 5C14.6569 5 16 6.34315 16 8V9H23C24.6569 9 26 10.3431 26 12V15.0703C25.381 14.7122 24.7095 14.4347 24 14.252V12C24 11.4477 23.5523 11 23 11H15.8293C15.4175 12.1652 14.3062 13 13 13H6V22C6 22.5523 6.44772 23 7 23H14.0619C14.149 23.6986 14.3262 24.3693 14.5815 25H7C5.34315 25 4 23.6569 4 22V8C4 6.34315 5.34314 5 7 5H13ZM6 11H13C13.5523 11 14 10.5523 14 10V8C14 7.44772 13.5523 7 13 7H7C6.44772 7 6 7.44772 6 8V11Z" fill="#FF8800"/>
<path fill-rule="evenodd" clip-rule="evenodd" d="M22 28C25.3137 28 28 25.3137 28 22C28 18.6863 25.3137 16 22 16C18.6863 16 16 18.6863 16 22C16 25.3137 18.6863 28 22 28ZM25.7071 21.2929L22.7071 18.2929C22.3166 17.9024 21.6834 17.9024 21.2929 18.2929C20.9024 18.6834 20.9024 19.3166 21.2929 19.7071L22.5858 21H19C18.4477 21 18 21.4477 18 22C18 22.5523 18.4477 23 19 23H22.5858L21.2929 24.2929C20.9024 24.6834 20.9024 25.3166 21.2929 25.7071C21.6834 26.0976 22.3166 26.0976 22.7071 25.7071L25.7071 22.7071C26.0976 22.3166 26.0976 21.6834 25.7071 21.2929Z" fill="#FF8800"/>
</svg>
