<svg width="30" height="30" viewBox="0 0 30 30" fill="none" xmlns="http://www.w3.org/2000/svg">
<path fill-rule="evenodd" clip-rule="evenodd" d="M15 10C17.7614 10 20 12.2386 20 15C20 17.7614 17.7614 20 15 20C12.2386 20 10 17.7614 10 15C10 12.2386 12.2386 10 15 10ZM15 12C13.3431 12 12 13.3431 12 15C12 16.6569 13.3431 18 15 18C16.6569 18 18 16.6569 18 15C18 13.3431 16.6569 12 15 12Z" fill="#FF8800"/>
<path fill-rule="evenodd" clip-rule="evenodd" d="M10.3506 3.14062C10.2834 3.36424 10.187 3.6897 10.0713 4.09473C9.83952 4.90593 9.53035 6.03424 9.22168 7.2998C9.14144 7.62878 9.06152 7.96534 8.9834 8.30664C10.5776 6.87265 12.6869 6 15 6C17.3816 6 20.6104 6.65284 23.1748 7.27832C24.4714 7.59457 25.6248 7.91051 26.4541 8.14746C26.656 8.20515 26.8387 8.25935 27 8.30664V10.3926C26.9589 10.3803 26.9118 10.3663 26.8594 10.3506C26.6358 10.2834 26.3103 10.187 25.9053 10.0713C25.0941 9.83952 23.9658 9.53035 22.7002 9.22168C22.3709 9.14137 22.034 9.06159 21.6924 8.9834C23.1266 10.5777 24 12.6867 24 15C24 17.3816 23.3472 20.6104 22.7217 23.1748C22.4054 24.4714 22.0895 25.6248 21.8525 26.4541C21.7948 26.6561 21.7397 26.8386 21.6924 27H19.6074C19.6197 26.9589 19.6337 26.9118 19.6494 26.8594C19.7166 26.6358 19.813 26.3103 19.9287 25.9053C20.1605 25.0941 20.4696 23.9658 20.7783 22.7002C20.8586 22.371 20.9374 22.0339 21.0156 21.6924C19.4214 23.1263 17.3131 24 15 24C12.6184 24 9.38965 23.3472 6.8252 22.7217C5.52858 22.4054 4.37523 22.0895 3.5459 21.8525C3.34389 21.7948 3.16141 21.7397 3 21.6924V19.6064C3.04118 19.6188 3.08805 19.6336 3.14062 19.6494C3.36424 19.7166 3.6897 19.813 4.09473 19.9287C4.90593 20.1605 6.03424 20.4696 7.2998 20.7783C7.62871 20.8585 7.96541 20.9375 8.30664 21.0156C6.87294 19.4214 6 17.3128 6 15C6 12.6184 6.65284 9.38965 7.27832 6.8252C7.59457 5.52858 7.91051 4.37523 8.14746 3.5459C8.20518 3.34389 8.26031 3.16141 8.30762 3H10.3926C10.3803 3.04111 10.3663 3.08816 10.3506 3.14062ZM15 8C11.134 8 8 11.134 8 15C8 18.866 11.134 22 15 22C18.866 22 22 18.866 22 15C22 11.134 18.866 8 15 8Z" fill="#FF8800"/>
</svg>
