<svg width="30" height="30" viewBox="0 0 30 30" fill="none" xmlns="http://www.w3.org/2000/svg">
<path opacity="0.2" d="M7 20.5C7 20.2239 7.22386 20 7.5 20H22.5C22.7761 20 23 20.2239 23 20.5C23 20.7761 22.7761 21 22.5 21H7.5C7.22386 21 7 20.7761 7 20.5Z" fill="#FF8800"/>
<path fill-rule="evenodd" clip-rule="evenodd" d="M14 8C14 7.44772 13.5523 7 13 7H8.83458C8.35129 7 7.93716 7.34563 7.85071 7.82112L6.64303 14.4633C6.30821 16.3049 7.72293 18 9.59464 18H12.5C11.1193 18 10 19.1193 10 20.5C10 19.1193 8.88071 18 7.5 18C6.11929 18 5 19.1193 5 20.5C5 21.8807 6.11929 23 7.5 23C8.88071 23 10 21.8807 10 20.5C10 21.8807 11.1193 23 12.5 23C13.8807 23 15 21.8807 15 20.5C15 21.8807 16.1193 23 17.5 23C18.8807 23 20 21.8807 20 20.5C20 21.8807 21.1193 23 22.5 23C23.8807 23 25 21.8807 25 20.5C25 19.1193 23.8807 18 22.5 18C21.1193 18 20 19.1193 20 20.5C20 19.1193 18.8807 18 17.5 18H21.7065C22.9731 18 24 16.9731 24 15.7065C24 14.6936 23.3356 13.8007 22.3655 13.5097L20.3233 12.897L19.9552 13.7069C19.8409 13.9583 19.5445 14.0695 19.2931 13.9552C19.0417 13.8409 18.9305 13.5445 19.0448 13.2931L19.3567 12.607L18.3991 12.3197L17.9472 13.2236C17.8237 13.4706 17.5234 13.5707 17.2764 13.4472C17.0294 13.3237 16.9293 13.0234 17.0528 12.7764L17.4269 12.0281L16.4903 11.7471L15.9371 12.7428C15.803 12.9842 15.4986 13.0712 15.2572 12.9371C15.0158 12.803 14.9288 12.4986 15.0629 12.2572L15.5097 11.4529L14.7127 11.2138C14.2897 11.0869 14 10.6976 14 10.256V8ZM17.5 18C16.1193 18 15 19.1193 15 20.5C15 19.1193 13.8807 18 12.5 18H17.5ZM7.5 21C7.77614 21 8 20.7761 8 20.5C8 20.2239 7.77614 20 7.5 20C7.22386 20 7 20.2239 7 20.5C7 20.7761 7.22386 21 7.5 21ZM12.5 21C12.7761 21 13 20.7761 13 20.5C13 20.2239 12.7761 20 12.5 20C12.2239 20 12 20.2239 12 20.5C12 20.7761 12.2239 21 12.5 21ZM18 20.5C18 20.7761 17.7761 21 17.5 21C17.2239 21 17 20.7761 17 20.5C17 20.2239 17.2239 20 17.5 20C17.7761 20 18 20.2239 18 20.5ZM22.5 21C22.7761 21 23 20.7761 23 20.5C23 20.2239 22.7761 20 22.5 20C22.2239 20 22 20.2239 22 20.5C22 20.7761 22.2239 21 22.5 21Z" fill="#FF8800"/>
</svg>
