<svg width="30" height="30" viewBox="0 0 30 30" fill="none" xmlns="http://www.w3.org/2000/svg">
<path d="M4.10665 25.26L13.5939 3.91379C13.8408 3.3581 14.3919 2.99999 15 3C15.6081 2.99999 16.1592 3.35811 16.4061 3.91379L25.8933 25.26C25.9637 25.4182 26 25.5894 26 25.7626C26 26.446 25.446 27 24.7626 27H24.7133C24.5721 27 24.4318 26.9767 24.2981 26.9312L15 23.7609L5.70191 26.9312C5.56821 26.9767 5.42793 27 5.28668 27H5.23742C4.55401 27 4 26.446 4 25.7626C4 25.5894 4.03633 25.4182 4.10665 25.26Z" fill="#536DFE"/>
<path d="M11 21V14C11 13.5815 11.2608 13.2077 11.6533 13.0625C12.0458 12.9174 12.4865 13.0319 12.7588 13.3496L17 18.2969V14C17 13.4477 17.4477 13 18 13C18.5523 13 19 13.4477 19 14V21C19 21.4185 18.7392 21.7923 18.3467 21.9375C17.9542 22.0826 17.5135 21.9681 17.2412 21.6504L13 16.7021V21C13 21.5523 12.5523 22 12 22C11.4477 22 11 21.5523 11 21Z" fill="#CCCCCC"/>
</svg>
