<svg width="30" height="30" viewBox="0 0 30 30" fill="none" xmlns="http://www.w3.org/2000/svg">
<g opacity="0.2">
<path d="M13 6L6 8V24L13 22V6Z" fill="#FF8800"/>
<path d="M24 6L17 8V24L24 22V6Z" fill="#FF8800"/>
</g>
<path fill-rule="evenodd" clip-rule="evenodd" d="M19 25L12 23L6.27472 24.6358C5.6359 24.8183 5 24.3386 5 23.6743V7.7543C5 7.30782 5.29598 6.91543 5.72528 6.79278L12 5L19 7L23.6838 5.43874C24.3313 5.2229 25 5.70487 25 6.38743V22.2792C25 22.7097 24.7246 23.0918 24.3162 23.2279L19 25ZM12 7.08003L7 8.5086V22.3485L12 20.92V7.08003ZM19 9.08003V22.8918L23 21.5585V7.77485L19 9.08003Z" fill="#FF8800"/>
</svg>
