<svg width="30" height="30" viewBox="0 0 30 30" fill="none" xmlns="http://www.w3.org/2000/svg">
<path d="M15.0001 4C21.0751 4.00017 26.0001 8.92498 26.0001 15C26.0001 21.075 21.0751 25.9998 15.0001 26C13.5849 26 12.233 25.7299 10.9903 25.2432C9.81232 26.2905 8.00819 26.2501 6.87902 25.1211L3.87902 22.1211C2.70744 20.9495 2.70744 19.0505 3.87902 17.8789C4.00939 17.7486 4.14865 17.6326 4.29503 17.5312C4.10356 16.7184 4.00011 15.8713 4.00011 15C4.00011 8.92487 8.92498 4 15.0001 4Z" fill="#373737"/>
<path d="M5.99997 15C5.99997 10.0294 10.0294 6 15 6C19.9705 6 24 10.0294 24 15C24 19.9706 19.9705 24 15 24C10.0294 24 5.99997 19.9706 5.99997 15Z" fill="url(#paint0_linear_2173_22684)"/>
<path d="M19 15C19 12.7909 17.2091 11 15 11C12.7909 11 11 12.7909 11 15C11 16.1046 10.1046 17 9 17C7.89543 17 7 16.1046 7 15C7 10.5817 10.5817 7 15 7C19.4183 7 23 10.5817 23 15C23 16.1046 22.1046 17 21 17C19.8954 17 19 16.1046 19 15Z" fill="url(#paint1_linear_2173_22684)"/>
<path d="M9.00003 14C9.5523 14 10 14.4477 10 15C10 15.5523 9.5523 16 9.00003 16C8.44775 16 8.00003 15.5523 8.00003 15C8.00003 14.4477 8.44775 14 9.00003 14Z" fill="white"/>
<path d="M21 14C21.5523 14 22 14.4477 22 15C22 15.5523 21.5523 16 21 16C20.4477 16 20 15.5523 20 15C20 14.4477 20.4477 14 21 14Z" fill="white"/>
<path d="M15 8C15.5523 8.00002 16 8.44773 16 9C16 9.55227 15.5523 9.99998 15 10C14.4477 10 14 9.55228 14 9C14 8.44772 14.4477 8 15 8Z" fill="white"/>
<path d="M18.293 10.2927C18.6835 9.90226 19.3165 9.90228 19.707 10.2927C20.0975 10.6832 20.0975 11.3162 19.707 11.7068L16.9297 14.4841C16.9737 14.649 17 14.8219 17 15.0007C16.9998 16.1051 16.1044 17.0007 15 17.0007C13.8956 17.0007 13.0002 16.1051 13 15.0007C13 13.8961 13.8954 13.0007 15 13.0007C15.1785 13.0007 15.3509 13.0262 15.5156 13.07L18.293 10.2927Z" fill="white"/>
<path d="M5.29298 19.293C4.90246 19.6835 4.90246 20.3165 5.29298 20.707L8.29298 23.707C8.68351 24.0976 9.31652 24.0976 9.70705 23.707L12.707 20.707C13.0976 20.3165 13.0976 19.6835 12.707 19.293C12.3165 18.9024 11.6835 18.9024 11.293 19.293L10 20.5859L10 15C10 14.4477 9.5523 14 9.00002 14C8.44773 14 8.00002 14.4477 8.00002 15L8.00002 20.5859L6.70705 19.293C6.31652 18.9024 5.68351 18.9024 5.29298 19.293Z" fill="#FFC107"/>
<path opacity="0.4" d="M13 21C13 20.4477 13.4477 20 14 20H16C16.5523 20 17 20.4477 17 21C17 21.5523 16.5523 22 16 22H14C13.4477 22 13 21.5523 13 21Z" fill="black"/>
<defs>
<linearGradient id="paint0_linear_2173_22684" x1="15" y1="6" x2="15" y2="24" gradientUnits="userSpaceOnUse">
<stop/>
<stop offset="1" stop-color="#545454"/>
</linearGradient>
<linearGradient id="paint1_linear_2173_22684" x1="21" y1="15" x2="9" y2="15" gradientUnits="userSpaceOnUse">
<stop stop-color="#E71D36"/>
<stop offset="1" stop-color="#666666" stop-opacity="0"/>
</linearGradient>
</defs>
</svg>
