<svg width="30" height="30" viewBox="0 0 30 30" fill="none" xmlns="http://www.w3.org/2000/svg">
<path opacity="0.2" d="M5 8C5 6.34315 6.34315 5 8 5H22C23.6569 5 25 6.34315 25 8V22C25 23.6569 23.6569 25 22 25H8C6.34315 25 5 23.6569 5 22V8Z" fill="url(#paint0_linear_1_12852)"/>
<path fill-rule="evenodd" clip-rule="evenodd" d="M7.75746 19.0298C8.29325 18.8959 8.83619 19.2217 8.97013 19.7575L9.06401 20.1329C9.1914 20.6425 9.64925 21 10.1745 21C10.6081 21 11.0044 20.755 11.1983 20.3672L11.6056 19.5528C11.775 19.214 12.1212 19 12.5 19C12.8788 19 13.225 19.214 13.3944 19.5528L13.7236 20.2111C13.9653 20.6946 14.4595 21 15 21C15.5405 21 16.0347 20.6946 16.2764 20.2111L16.6056 19.5528C16.775 19.214 17.1212 19 17.5 19C17.8788 19 18.225 19.214 18.3944 19.5528L18.8016 20.3672C18.9955 20.755 19.3919 21 19.8255 21C20.3507 21 20.8086 20.6425 20.936 20.1329L21.0299 19.7575C21.1638 19.2217 21.7067 18.8959 22.2425 19.0298C22.7783 19.1638 23.1041 19.7067 22.9701 20.2425L22.8763 20.618C22.5263 22.0179 21.2685 23 19.8255 23C18.9142 23 18.0628 22.6061 17.4745 21.944C16.838 22.6082 15.9487 23 15 23C14.0512 23 13.162 22.6082 12.5255 21.944C11.9371 22.6061 11.0857 23 10.1745 23C8.73152 23 7.4737 22.0179 7.12372 20.618L7.02985 20.2425C6.8959 19.7067 7.22166 19.1638 7.75746 19.0298Z" fill="#732EEB"/>
<path opacity="0.5" fill-rule="evenodd" clip-rule="evenodd" d="M7.75746 13.0298C8.29325 12.8959 8.83619 13.2217 8.97013 13.7575L9.06401 14.1329C9.1914 14.6425 9.64925 15 10.1745 15C10.6081 15 11.0044 14.755 11.1983 14.3672L11.6056 13.5528C11.775 13.214 12.1212 13 12.5 13C12.8788 13 13.225 13.214 13.3944 13.5528L13.7236 14.2111C13.9653 14.6946 14.4595 15 15 15C15.5405 15 16.0347 14.6946 16.2764 14.2111L16.6056 13.5528C16.775 13.214 17.1212 13 17.5 13C17.8788 13 18.225 13.214 18.3944 13.5528L18.8016 14.3672C18.9955 14.755 19.3919 15 19.8255 15C20.3507 15 20.8086 14.6425 20.936 14.1329L21.0299 13.7575C21.1638 13.2217 21.7067 12.8959 22.2425 13.0298C22.7783 13.1638 23.1041 13.7067 22.9701 14.2425L22.8763 14.618C22.5263 16.0179 21.2685 17 19.8255 17C18.9142 17 18.0628 16.6061 17.4745 15.944C16.838 16.6082 15.9487 17 15 17C14.0512 17 13.162 16.6082 12.5255 15.944C11.9371 16.6061 11.0857 17 10.1745 17C8.73152 17 7.4737 16.0179 7.12372 14.618L7.02985 14.2425C6.8959 13.7067 7.22166 13.1638 7.75746 13.0298Z" fill="#732EEB"/>
<path opacity="0.2" fill-rule="evenodd" clip-rule="evenodd" d="M7.75746 7.02985C8.29325 6.8959 8.83619 7.22166 8.97013 7.75746L9.06401 8.13294C9.1914 8.64251 9.64925 8.99999 10.1745 8.99999C10.6081 8.99999 11.0044 8.75503 11.1983 8.36723L11.6056 7.55278C11.775 7.21399 12.1212 6.99999 12.5 6.99999C12.8788 6.99999 13.225 7.21399 13.3944 7.55278L13.7236 8.21114C13.9653 8.6946 14.4595 8.99999 15 8.99999C15.5405 8.99999 16.0347 8.6946 16.2764 8.21114L16.6056 7.55278C16.775 7.21399 17.1212 6.99999 17.5 6.99999C17.8788 6.99999 18.225 7.21399 18.3944 7.55278L18.8016 8.36723C18.9955 8.75503 19.3919 8.99999 19.8255 8.99999C20.3507 8.99999 20.8086 8.64251 20.936 8.13294L21.0299 7.75746C21.1638 7.22166 21.7067 6.8959 22.2425 7.02985C22.7783 7.1638 23.1041 7.70673 22.9701 8.24253L22.8763 8.61801C22.5263 10.0179 21.2685 11 19.8255 11C18.9142 11 18.0628 10.6061 17.4745 9.94402C16.838 10.6082 15.9487 11 15 11C14.0512 11 13.162 10.6082 12.5255 9.94402C11.9371 10.6061 11.0857 11 10.1745 11C8.73152 11 7.4737 10.0179 7.12372 8.61801L7.02985 8.24253C6.8959 7.70673 7.22166 7.1638 7.75746 7.02985Z" fill="#732EEB"/>
<defs>
<linearGradient id="paint0_linear_1_12852" x1="15" y1="7" x2="15" y2="23" gradientUnits="userSpaceOnUse">
<stop stop-color="#B997F5" stop-opacity="0.69"/>
<stop offset="1" stop-color="#732EEB"/>
</linearGradient>
</defs>
</svg>
