<svg width="30" height="30" viewBox="0 0 30 30" fill="none" xmlns="http://www.w3.org/2000/svg">
<path fill-rule="evenodd" clip-rule="evenodd" d="M21 18C22.3059 18 23.4141 18.8353 23.8262 20H26C26.5523 20 27 20.4477 27 21C27 21.5523 26.5523 22 26 22H23.8262C23.4141 23.1647 22.3059 24 21 24C19.6941 24 18.5859 23.1647 18.1738 22H4C3.44772 22 3 21.5523 3 21C3 20.4477 3.44772 20 4 20H18.1738C18.5859 18.8353 19.6941 18 21 18ZM21 20C20.4477 20 20 20.4477 20 21C20 21.5523 20.4477 22 21 22C21.5523 22 22 21.5523 22 21C22 20.4477 21.5523 20 21 20Z" fill="#FF8800"/>
<path fill-rule="evenodd" clip-rule="evenodd" d="M9 12C10.3059 12 11.4141 12.8353 11.8262 14H26C26.5523 14 27 14.4477 27 15C27 15.5523 26.5523 16 26 16H11.8262C11.4141 17.1647 10.3059 18 9 18C7.69415 18 6.58594 17.1647 6.17383 16H4C3.44772 16 3 15.5523 3 15C3 14.4477 3.44772 14 4 14H6.17383C6.58594 12.8353 7.69415 12 9 12ZM9 14C8.44772 14 8 14.4477 8 15C8 15.5523 8.44772 16 9 16C9.55228 16 10 15.5523 10 15C10 14.4477 9.55228 14 9 14Z" fill="#FF8800"/>
<path fill-rule="evenodd" clip-rule="evenodd" d="M21 6C22.3059 6 23.4141 6.83532 23.8262 8H26C26.5523 8 27 8.44772 27 9C27 9.55228 26.5523 10 26 10H23.8262C23.4141 11.1647 22.3059 12 21 12C19.6941 12 18.5859 11.1647 18.1738 10H4C3.44772 10 3 9.55228 3 9C3 8.44772 3.44772 8 4 8H18.1738C18.5859 6.83532 19.6941 6 21 6ZM21 8C20.4477 8 20 8.44772 20 9C20 9.55228 20.4477 10 21 10C21.5523 10 22 9.55228 22 9C22 8.44772 21.5523 8 21 8Z" fill="#FF8800"/>
</svg>
