<?xml version="1.0" encoding="utf-8"?>
<!-- Generator: Adobe Illustrator 17.0.1, SVG Export Plug-In . SVG Version: 6.00 Build 0)  -->
<!DOCTYPE svg PUBLIC "-//W3C//DTD SVG 1.1//EN" "http://www.w3.org/Graphics/SVG/1.1/DTD/svg11.dtd">
<svg version="1.1" id="Layer_1" xmlns="http://www.w3.org/2000/svg" xmlns:xlink="http://www.w3.org/1999/xlink" x="0px" y="0px"
	 width="50px" height="50px" viewBox="0 0 50 50" enable-background="new 0 0 50 50" xml:space="preserve">
<g>
	<path fill="none" stroke="#656565" stroke-width="2" stroke-linecap="round" stroke-linejoin="round" stroke-miterlimit="10" d="
		M19.089,8.963C19.58,6.143,22.039,4,25,4c2.944,0,5.391,2.118,5.902,4.913"/>
</g>
<path fill="none" stroke="#656565" stroke-width="2" stroke-linecap="round" stroke-linejoin="round" stroke-miterlimit="10" d="
	M36,15c0,4.881-2.497,7-11,7s-11-2.119-11-7s5.969-7,11-7S36,10.119,36,15z"/>
<path fill="none" stroke="#656565" stroke-width="2" stroke-linecap="round" stroke-linejoin="round" stroke-miterlimit="10" d="
	M40,21c4-1,7-4,7-8"/>
<path fill="none" stroke="#656565" stroke-width="2" stroke-linecap="round" stroke-linejoin="round" stroke-miterlimit="10" d="
	M39,36c4.694,1.202,7.399,4.066,8,9"/>
<line fill="none" stroke="#656565" stroke-width="2" stroke-linecap="round" stroke-linejoin="round" stroke-miterlimit="10" x1="40" y1="29" x2="49" y2="29"/>
<path fill="none" stroke="#656565" stroke-width="2" stroke-linecap="round" stroke-linejoin="round" stroke-miterlimit="10" d="
	M10,21c-4-1-7-4-7-8"/>
<path fill="none" stroke="#656565" stroke-width="2" stroke-linecap="round" stroke-linejoin="round" stroke-miterlimit="10" d="
	M11,36c-4.694,1.202-7.399,4.066-8,9"/>
<line fill="none" stroke="#656565" stroke-width="2" stroke-linecap="round" stroke-linejoin="round" stroke-miterlimit="10" x1="10" y1="29" x2="1" y2="29"/>
<path fill="none" stroke="#656565" stroke-width="2" stroke-linecap="round" stroke-linejoin="round" stroke-miterlimit="10" d="
	M14.078,16.595C10.37,17.586,10,20.23,10,27.28C10,44,25,46,25,46s15-2,15-18.72c0-6.859-0.565-9.547-4.036-10.601"/>
<line fill="none" stroke="#656565" stroke-width="2" stroke-linecap="round" stroke-linejoin="round" stroke-miterlimit="10" x1="25" y1="46" x2="25" y2="22"/>
</svg>
