<?xml version="1.0" encoding="utf-8"?>
<!-- Generator: Adobe Illustrator 16.0.0, SVG Export Plug-In . SVG Version: 6.00 Build 0)  -->
<!DOCTYPE svg PUBLIC "-//W3C//DTD SVG 1.1//EN" "http://www.w3.org/Graphics/SVG/1.1/DTD/svg11.dtd">
<svg version="1.1" id="Layer_1" xmlns="http://www.w3.org/2000/svg" xmlns:xlink="http://www.w3.org/1999/xlink" x="0px" y="0px"
	 width="50px" height="50px" viewBox="0 0 50 50" enable-background="new 0 0 50 50" xml:space="preserve">

<path fill="none" stroke="#656565" stroke-width="1.9017" stroke-miterlimit="10" d="M41.6,17.502
	c-0.575,0.572-7.606-0.066-8.344-0.801c-0.734-0.736-1.382-7.561-0.648-8.298c0.735-0.734,6.656-6.653,6.656-6.653
	s0.705-0.79-0.312-0.793c-3.275-0.012-9.933,0.062-13.157,3.289L25.13,4.908c-4.202,4.229-4.088,10.825,0.042,14.977l5.003,5.002
	c4.135,4.149,10.712,4.268,14.93,0.043l0.661-0.662c3.125-3.123,3.221-9.725,3.234-13.059c0.009-1.063-0.769-0.377-0.769-0.377
	S42.172,16.927,41.6,17.502z"/>
<path fill="none" stroke="#656565" stroke-width="1.7989" stroke-miterlimit="10" d="M24.293,18.508L3.008,37.98
	c-1.498,1.5-3.472,5.578,0,9.051c3.473,3.473,7.551,1.498,9.047,0c0,0,18.81-21.347,19.315-21.105"/>
</svg>
