<?xml version="1.0" encoding="utf-8"?>
<!-- Generator: Adobe Illustrator 17.0.1, SVG Export Plug-In . SVG Version: 6.00 Build 0)  -->
<!DOCTYPE svg PUBLIC "-//W3C//DTD SVG 1.1//EN" "http://www.w3.org/Graphics/SVG/1.1/DTD/svg11.dtd">
<svg version="1.1" id="Layer_1" xmlns="http://www.w3.org/2000/svg" xmlns:xlink="http://www.w3.org/1999/xlink" x="0px" y="0px"
	 width="40px" height="80px" viewBox="0 0 40 80" enable-background="new 0 0 40 80" xml:space="preserve">
<g opacity="0.9">
	<path fill="#FFFFFF" d="M-39.5,74.5c0,2.761,2.239,5,5,5h69c2.761,0,5-2.239,5-5v-69c0-2.761-2.239-5-5-5h-69c-2.761,0-5,2.239-5,5
		V74.5z"/>
	<path fill="none" stroke="#9A9A9A" stroke-miterlimit="10" d="M-39.5,74.5c0,2.761,2.239,5,5,5h69c2.761,0,5-2.239,5-5v-69
		c0-2.761-2.239-5-5-5h-69c-2.761,0-5,2.239-5,5V74.5z"/>
</g>
</svg>
