<?xml version="1.0" encoding="utf-8"?>
<!-- Generator: Adobe Illustrator 16.0.0, SVG Export Plug-In . SVG Version: 6.00 Build 0)  -->
<!DOCTYPE svg PUBLIC "-//W3C//DTD SVG 1.1//EN" "http://www.w3.org/Graphics/SVG/1.1/DTD/svg11.dtd">
<svg version="1.1" id="Layer_1" xmlns="http://www.w3.org/2000/svg" xmlns:xlink="http://www.w3.org/1999/xlink" x="0px" y="0px"
	 width="50px" height="50px" viewBox="0 0 50 50" enable-background="new 0 0 50 50" xml:space="preserve">


<polygon fill="none" stroke="#000000" stroke-width="2" stroke-linecap="round" stroke-linejoin="round" stroke-miterlimit="10" points="
	36,26 24,40 10,40 17,26 "/>
<path fill="none" stroke="#000000" stroke-width="2" stroke-linecap="round" stroke-linejoin="round" stroke-miterlimit="10" d="
	M29,19c1,1,1.016,1,6,1c0.024,0.346,1.16,8.904,5,20"/>
<line fill="none" stroke="#000000" stroke-width="2" stroke-linecap="round" stroke-linejoin="round" stroke-miterlimit="10" x1="14.673" y1="21.365" x2="24" y2="40"/>
<path d="M20,20.575c0,0.717-1.113,1.371-3.673,1.371c-2.653,0-5.327,2.688-5.327-0.52C11,20.499,11.209,20,12.346,20
	c0.45,0,6.442,0,6.442,0C19.511,20,20,20.021,20,20.575z"/>
<circle fill="none" stroke="#000000" stroke-width="2" stroke-linecap="round" stroke-linejoin="round" stroke-miterlimit="10" cx="10" cy="40" r="9"/>
<circle fill="none" stroke="#000000" stroke-width="1.9999" stroke-linecap="round" stroke-linejoin="round" stroke-miterlimit="10" cx="40" cy="40" r="9"/>
</svg>
