<?xml version="1.0" encoding="utf-8"?>
<!-- Generator: Adobe Illustrator 17.0.0, SVG Export Plug-In . SVG Version: 6.00 Build 0)  -->
<!DOCTYPE svg PUBLIC "-//W3C//DTD SVG 1.1//EN" "http://www.w3.org/Graphics/SVG/1.1/DTD/svg11.dtd">
<svg version="1.1" id="Layer_1" xmlns="http://www.w3.org/2000/svg" xmlns:xlink="http://www.w3.org/1999/xlink" x="0px" y="0px"
	 width="50px" height="50px" viewBox="0 0 50 50" enable-background="new 0 0 50 50" xml:space="preserve">

<path fill="none" stroke="#000000" stroke-width="2" stroke-linecap="round" stroke-linejoin="round" stroke-miterlimit="10" d="
	M6.061,37.384C6.017,42.931,7.887,49,15.199,49c4.283,0,7.177-5.229,5.158-12.725c-0.661,0.17-2.952,0.922-6.408,1.222
	C10.017,37.839,6.061,37.384,6.061,37.384z"/>
<path fill="none" stroke="#000000" stroke-width="2" stroke-linecap="round" stroke-linejoin="round" stroke-miterlimit="10" d="
	M4.855,27.971c0,0-1.765-5.118-1.849-9.405C2.853,10.747,5.444,1,12.672,1c7.985,0,9.59,10.832,9.282,14.953
	c-0.42,5.631-2.726,11.009-2.726,11.009s-4.791-1.009-7.06-0.84C9.898,26.29,6.704,27.13,4.855,27.971z"/>
<path fill="none" stroke="#000000" stroke-width="2" stroke-linecap="round" stroke-linejoin="round" stroke-miterlimit="10" d="
	M43.939,37.384C43.983,42.931,42.113,49,34.801,49c-4.283,0-7.177-5.229-5.158-12.725c0.661,0.17,2.952,0.922,6.408,1.222
	C39.983,37.839,43.939,37.384,43.939,37.384z"/>
<path fill="none" stroke="#000000" stroke-width="2" stroke-linecap="round" stroke-linejoin="round" stroke-miterlimit="10" d="
	M45.145,27.971c0,0,1.765-5.118,1.849-9.405C47.147,10.747,44.556,1,37.328,1c-7.985,0-9.59,10.832-9.282,14.953
	c0.42,5.631,2.726,11.009,2.726,11.009s4.791-1.009,7.06-0.84C40.102,26.29,43.296,27.13,45.145,27.971z"/>
</svg>
