<?xml version="1.0" encoding="utf-8"?>
<!-- Generator: Adobe Illustrator 16.0.0, SVG Export Plug-In . SVG Version: 6.00 Build 0)  -->
<!DOCTYPE svg PUBLIC "-//W3C//DTD SVG 1.1//EN" "http://www.w3.org/Graphics/SVG/1.1/DTD/svg11.dtd">
<svg version="1.1" id="Layer_1" xmlns="http://www.w3.org/2000/svg" xmlns:xlink="http://www.w3.org/1999/xlink" x="0px" y="0px"
	 width="50px" height="50px" viewBox="0 0 50 50" enable-background="new 0 0 50 50" xml:space="preserve">

<path fill="none" stroke="#000000" stroke-width="2" stroke-linecap="round" stroke-miterlimit="10" d="M47,8c0,0-27.648,0-29,0
	c-1.469,0-2.484-4-4-4H3C1.896,4,1,4.896,1,6v4v30v4c0,1.104,0.896,2,2,2h44c1.104,0,2-0.896,2-2V10C49,8.896,48.104,8,47,8z"/>
<path fill="none" stroke="#000000" stroke-width="2" stroke-linecap="round" stroke-miterlimit="10" d="M1,27V16
	c0-1.104,0.896-2,2-2h44c1.104,0,2,0.896,2,2v11"/>
</svg>
