<?xml version="1.0" encoding="utf-8"?>
<!-- Generator: Adobe Illustrator 17.0.0, SVG Export Plug-In . SVG Version: 6.00 Build 0)  -->
<!DOCTYPE svg PUBLIC "-//W3C//DTD SVG 1.1//EN" "http://www.w3.org/Graphics/SVG/1.1/DTD/svg11.dtd">
<svg version="1.1" id="Layer_1" xmlns="http://www.w3.org/2000/svg" xmlns:xlink="http://www.w3.org/1999/xlink" x="0px" y="0px"
	 width="50px" height="50px" viewBox="0 0 50 50" enable-background="new 0 0 50 50" xml:space="preserve">
<rect x="0" fill="none" width="50" height="50"/>
<polyline fill="none" stroke="#000000" stroke-width="2" stroke-miterlimit="10" points="31,40 25,46 19,40 "/>
<line fill="none" stroke="#000000" stroke-width="2" stroke-miterlimit="10" x1="25" y1="36" x2="25" y2="45.667"/>
<path d="M42.128,18.257c0.01-0.192,0.015-0.378,0.015-0.561c0-7.251-5.899-13.149-13.15-13.149c-5.009,0-9.584,2.896-11.779,7.331
	c-1.135-0.751-2.465-1.154-3.857-1.154c-3.703,0-6.745,2.887-6.992,6.528C2.581,18.628,0,22.258,0,26.331C0,31.662,4.338,36,9.67,36
	H24V25h2v11h15.098C46.007,36,50,32.007,50,27.099C50,22.539,46.554,18.769,42.128,18.257z"/>
</svg>
