<?xml version="1.0" encoding="utf-8"?>
<!-- Generator: Adobe Illustrator 17.0.0, SVG Export Plug-In . SVG Version: 6.00 Build 0)  -->
<!DOCTYPE svg PUBLIC "-//W3C//DTD SVG 1.1//EN" "http://www.w3.org/Graphics/SVG/1.1/DTD/svg11.dtd">
<svg version="1.1" id="Layer_1" xmlns="http://www.w3.org/2000/svg" xmlns:xlink="http://www.w3.org/1999/xlink" x="0px" y="0px"
	 width="50px" height="50px" viewBox="0 0 50 50" enable-background="new 0 0 50 50" xml:space="preserve">

<path d="M35.88,13.584c1.923-0.53,3.69-1.204,5.257-2.001c2.832,3.4,4.589,7.711,4.812,12.417h-8.485
	C37.38,20.197,36.817,16.661,35.88,13.584z M24,45.895v-8.868c-2.505,0.059-4.943,0.331-7.216,0.802
	C18.523,42.254,21.107,45.316,24,45.895z M16.784,12.172c2.273,0.471,4.711,0.743,7.216,0.802V4.105
	C21.107,4.684,18.522,7.746,16.784,12.172z M16.118,35.925c2.483-0.533,5.15-0.837,7.882-0.898V26h-9.452
	C14.638,29.6,15.201,32.989,16.118,35.925z M14.12,13.584c-1.923-0.53-3.691-1.204-5.258-2.001C6.03,14.983,4.274,19.293,4.051,24
	h8.485C12.62,20.197,13.183,16.662,14.12,13.584z M18.82,4.931c-3.259,1.005-6.177,2.787-8.549,5.124
	c1.355,0.645,2.865,1.194,4.493,1.636C15.82,8.909,17.203,6.598,18.82,4.931z M12.535,26H4.051c0.223,4.707,1.98,9.017,4.812,12.417
	c1.567-0.797,3.334-1.471,5.257-2.001C13.183,33.339,12.62,29.803,12.535,26z M10.272,39.946c2.371,2.337,5.29,4.118,8.548,5.123
	c-1.617-1.667-3-3.978-4.055-6.759C13.136,38.752,11.627,39.301,10.272,39.946z M14.548,24H24v-9.027
	c-2.732-0.061-5.399-0.365-7.882-0.898C15.201,17.011,14.638,20.4,14.548,24z M31.18,45.069c3.259-1.005,6.177-2.787,8.549-5.124
	c-1.355-0.645-2.865-1.194-4.493-1.636C34.18,41.091,32.797,43.402,31.18,45.069z M26,37.026v8.868
	c2.893-0.579,5.478-3.641,7.216-8.067C30.943,37.357,28.505,37.085,26,37.026z M35.88,36.416c1.923,0.53,3.691,1.204,5.258,2.001
	c2.832-3.4,4.588-7.71,4.811-12.417h-8.485C37.38,29.803,36.817,33.338,35.88,36.416z M50,25c0,13.785-11.215,25-25,25
	S0,38.785,0,25S11.215,0,25,0S50,11.215,50,25z M48,25C48,12.317,37.682,2,25,2S2,12.317,2,25s10.318,23,23,23S48,37.683,48,25z
	 M33.882,14.075c-2.483,0.533-5.15,0.837-7.882,0.898V24h9.452C35.362,20.4,34.799,17.011,33.882,14.075z M26,4.105v8.868
	c2.505-0.059,4.943-0.331,7.216-0.802C31.477,7.746,28.893,4.684,26,4.105z M39.728,10.054c-2.371-2.337-5.29-4.118-8.548-5.123
	c1.617,1.667,3,3.978,4.055,6.759C36.864,11.248,38.373,10.699,39.728,10.054z M35.452,26H26v9.027
	c2.732,0.061,5.399,0.365,7.882,0.898C34.799,32.989,35.362,29.6,35.452,26z"/>
</svg>
