<svg width="30" height="30" viewBox="0 0 30 30" fill="none" xmlns="http://www.w3.org/2000/svg">
<path opacity="0.15" d="M3 7C3 4.79086 4.79086 3 7 3H23C25.2091 3 27 4.79086 27 7V23C27 25.2091 25.2091 27 23 27H7C4.79086 27 3 25.2091 3 23V7Z" fill="black"/>
<path d="M4 7C4 5.34315 5.34315 4 7 4H23C24.6569 4 26 5.34315 26 7V23C26 24.6569 24.6569 26 23 26H7C5.34315 26 4 24.6569 4 23V7Z" fill="white"/>
<path fill-rule="evenodd" clip-rule="evenodd" d="M7 5H23C24.1046 5 25 5.89543 25 7V23C25 24.1046 24.1046 25 23 25H7C5.89543 25 5 24.1046 5 23V7C5 5.89543 5.89543 5 7 5ZM7 6C6.44772 6 6 6.44772 6 7V23C6 23.5523 6.44772 24 7 24H23C23.5523 24 24 23.5523 24 23V7C24 6.44772 23.5523 6 23 6H7Z" fill="black"/>
<path fill-rule="evenodd" clip-rule="evenodd" d="M14.5 13C14.5 13.5595 14.2702 14.0654 13.8999 14.4284C14.5637 14.8778 15 15.638 15 16.5C15 17.8807 13.8807 19 12.5 19C11.1193 19 10 17.8807 10 16.5C10 15.638 10.4363 14.8778 11.1001 14.4284C10.7298 14.0654 10.5 13.5595 10.5 13C10.5 11.8954 11.3954 11 12.5 11C13.6046 11 14.5 11.8954 14.5 13ZM12.5 14C13.0523 14 13.5 13.5523 13.5 13C13.5 12.4477 13.0523 12 12.5 12C11.9477 12 11.5 12.4477 11.5 13C11.5 13.5523 11.9477 14 12.5 14ZM11 16.5C11 15.6716 11.6716 15 12.5 15C13.3284 15 14 15.6716 14 16.5C14 17.3284 13.3284 18 12.5 18C11.6716 18 11 17.3284 11 16.5Z" fill="black"/>
<path fill-rule="evenodd" clip-rule="evenodd" d="M20.5 16.75V13.25C20.5 12.0074 19.4926 11 18.25 11C17.0074 11 16 12.0074 16 13.25V16.75C16 17.9926 17.0074 19 18.25 19C19.4926 19 20.5 17.9926 20.5 16.75ZM18.25 12C18.9404 12 19.5 12.5596 19.5 13.25V16.75C19.5 17.4404 18.9404 18 18.25 18C17.5596 18 17 17.4404 17 16.75V13.25C17 12.5596 17.5596 12 18.25 12Z" fill="black"/>
</svg>
