<svg width="52" height="52" viewBox="0 0 52 52" fill="none" xmlns="http://www.w3.org/2000/svg">
<path fill-rule="evenodd" clip-rule="evenodd" d="M16.2558 26L10.817 36.4244L40.7871 26L10.817 15.5756L16.2558 26ZM8.13662 37.2381L14 26L8.13662 14.7619C8.04687 14.5898 8 14.3987 8 14.2046C8 13.5393 8.53934 13 9.20464 13C9.37551 13 9.5419 13.0146 9.70476 13.0712L43.0555 24.6715C43.621 24.8682 44 25.4013 44 26C44 26.5987 43.621 27.1318 43.0555 27.3285L9.70476 38.9288C9.5419 38.9854 9.37551 39 9.20464 39C8.53934 39 8 38.4607 8 37.7954C8 37.6013 8.04687 37.4102 8.13662 37.2381Z" fill="white"/>
<path opacity="0.1" d="M10.8769 36.4035L40.7871 26H20L10.8769 36.4035Z" fill="white"/>
<path opacity="0.2" d="M10.8769 15.5964L20 26L10.8769 36.4035L10.817 36.4244L16.2558 26L10.817 15.5756L10.8769 15.5964Z" fill="black"/>
</svg>
