<svg width="30" height="30" viewBox="0 0 30 30" fill="none" xmlns="http://www.w3.org/2000/svg">
<path fill-rule="evenodd" clip-rule="evenodd" d="M5 8C3.89543 8 3 8.89543 3 10V12H2C1.44772 12 1 12.4477 1 13V17C1 17.5523 1.44772 18 2 18H3V20H5C5 21.6569 6.34315 23 8 23C9.65685 23 11 21.6569 11 20H20C20 21.6569 21.3431 23 23 23C24.6569 23 26 21.6569 26 20H28V18H27V15C27 14.4477 26.5523 14 26 14H20.2857L18 8H5ZM11 10H5V14H11V10ZM9 20C9 20.5523 8.55228 21 8 21C7.44772 21 7 20.5523 7 20C7 19.4477 7.44772 19 8 19C8.55228 19 9 19.4477 9 20ZM24 20C24 20.5523 23.5523 21 23 21C22.4477 21 22 20.5523 22 20C22 19.4477 22.4477 19 23 19C23.5523 19 24 19.4477 24 20ZM13 10H16.75L18 14H13V10Z" fill="#FF8800"/>
</svg>
