<svg width="30" height="30" viewBox="0 0 30 30" fill="none" xmlns="http://www.w3.org/2000/svg">
<path fill-rule="evenodd" clip-rule="evenodd" d="M19.3199 17.9056C20.3729 16.551 21 14.8487 21 13C21 8.58172 17.4183 5 13 5C8.58172 5 5 8.58172 5 13C5 17.4183 8.58172 21 13 21C14.8487 21 16.551 20.3729 17.9056 19.3199L23.2929 24.7071C23.6834 25.0976 24.3166 25.0976 24.7071 24.7071C25.0976 24.3166 25.0976 23.6834 24.7071 23.2929L19.3199 17.9056ZM19 13C19 16.3137 16.3137 19 13 19C9.68629 19 7 16.3137 7 13C7 9.68629 9.68629 7 13 7C16.3137 7 19 9.68629 19 13Z" fill="#FF8800"/>
</svg>
