<svg width="30" height="30" viewBox="0 0 30 30" fill="none" xmlns="http://www.w3.org/2000/svg">
<path d="M19.0455 9.09303L19.0316 11.1937C19.668 11.0666 20.3262 11 21 11C22.4222 11 23.7751 11.2969 25 11.8321V6.38743C25 5.70487 24.3313 5.2229 23.6838 5.43874L19 7L12 5L5.72528 6.79278C5.29598 6.91543 5 7.30782 5 7.7543V23.6743C5 24.3386 5.6359 24.8183 6.27472 24.6358L11.2462 23.2154C11.0851 22.5028 11 21.7613 11 21C11 19.4354 11.3593 17.9546 12 16.6359V7.08003L19.0455 9.09303Z" fill="#FF8800"/>
<path fill-rule="evenodd" clip-rule="evenodd" d="M29 21C29 25.4183 25.4183 29 21 29C16.5817 29 13 25.4183 13 21C13 16.5817 16.5817 13 21 13C25.4183 13 29 16.5817 29 21ZM22 25.9C24.2822 25.4368 26 23.419 26 21C26 19.7466 25.5387 18.6008 24.7767 17.7233L25.8964 16.6036C25.9627 16.5372 26 16.4473 26 16.3536C26 16.1583 25.8417 16 25.6464 16H22.8536C22.6272 16 22.4101 16.0899 22.25 16.25C22.0899 16.4101 22 16.6272 22 16.8536V19.6464C22 19.8417 22.1583 20 22.3536 20C22.4473 20 22.5373 19.9628 22.6036 19.8964L23.3566 19.1434C23.7595 19.6541 24 20.299 24 21C24 22.3063 23.1652 23.4175 22 23.8293V25.9ZM20 16.1C17.7178 16.5633 16 18.581 16 21C16 22.2535 16.4613 23.3992 17.2233 24.2768L16.1036 25.3965C16.0372 25.4628 16 25.5527 16 25.6465C16 25.8418 16.1583 26 16.3536 26H19.1464C19.3728 26 19.5899 25.9101 19.75 25.75C19.9101 25.59 20 25.3729 20 25.1465V22.3536C20 22.1583 19.8417 22 19.6464 22C19.5527 22 19.4628 22.0373 19.3964 22.1036L18.6434 22.8566C18.2405 22.3459 18 21.701 18 21C18 19.6938 18.8348 18.5825 20 18.1707V16.1Z" fill="#FF8800"/>
</svg>
