<svg width="30" height="30" viewBox="0 0 30 30" fill="none" xmlns="http://www.w3.org/2000/svg">
<path opacity="0.2" d="M14.9272 10.7816L15 11L15.0728 10.7816C15.6265 9.12044 17.181 8 18.932 8C20.4538 8 21.7805 8.83565 22.4781 10.0731C22.1591 10.025 21.8325 10 21.5 10C17.9101 10 15 12.9101 15 16.5V21.5C15 21.6682 15.0064 21.8349 15.0189 21.9999C15.0126 22 15.0063 22 15 22C14.6717 22 14.3519 21.9216 14.0692 21.7548C12.4746 20.8138 7 17.2719 7 13V12.068C7 9.82129 8.82129 8 11.068 8C12.819 8 14.3735 9.12044 14.9272 10.7816Z" fill="#FF8800"/>
<path d="M11.068 6C12.5446 6 13.9275 6.53418 15 7.44629C16.0725 6.53418 17.4554 6 18.932 6C21.9043 6 24.3774 8.13698 24.8988 10.9583C24.1738 10.5127 23.3546 10.2054 22.4781 10.0731C21.7805 8.83565 20.4538 8 18.932 8C17.181 8 15.6265 9.12044 15.0728 10.7816L15 11L14.9272 10.7816C14.3735 9.12044 12.819 8 11.068 8C8.82129 8 7 9.82129 7 12.068V13C7 17.2719 12.4746 20.8138 14.0692 21.7548C14.3519 21.9216 14.6717 22 15 22L15.0189 21.9999C15.0716 22.6928 15.233 23.3553 15.4859 23.9704C15.323 23.9904 15.1606 24 15 24C14.3521 24 13.6744 23.8441 13.0527 23.4772C12.1945 22.9707 10.2707 21.7546 8.53656 20.0547C6.86453 18.4156 5 15.9677 5 13V12.068C5 8.71672 7.71672 6 11.068 6Z" fill="#FF8800"/>
<path fill-rule="evenodd" clip-rule="evenodd" d="M17 16.5C17 14.0147 19.0147 12 21.5 12C23.9853 12 26 14.0147 26 16.5V21.5C26 23.9853 23.9853 26 21.5 26C19.0147 26 17 23.9853 17 21.5V16.5ZM22 14V18H24L21 24V20H19L22 14Z" fill="#FF8800"/>
</svg>
