<svg width="30" height="30" viewBox="0 0 30 30" fill="none" xmlns="http://www.w3.org/2000/svg">
<path d="M20.8 12.6C21.1314 12.1582 21.0418 11.5314 20.6 11.2C20.1582 10.8686 19.5314 10.9582 19.2 11.4L13.9402 18.4131L11.2526 15.3415C10.8889 14.9259 10.2571 14.8837 9.8415 15.2474C9.42586 15.6111 9.38374 16.2429 9.74742 16.6585L13.2474 20.6585C13.446 20.8854 13.7363 21.0106 14.0377 20.9993C14.339 20.9879 14.6191 20.8412 14.8 20.6L20.8 12.6Z" fill="#FF8800"/>
<path fill-rule="evenodd" clip-rule="evenodd" d="M27 15C27 21.6274 21.6274 27 15 27C8.37258 27 3 21.6274 3 15C3 8.37258 8.37258 3 15 3C21.6274 3 27 8.37258 27 15ZM25 15C25 20.5228 20.5228 25 15 25C9.47715 25 5 20.5228 5 15C5 9.47715 9.47715 5 15 5C20.5228 5 25 9.47715 25 15Z" fill="#FF8800"/>
</svg>
