<svg width="30" height="30" viewBox="0 0 30 30" fill="none" xmlns="http://www.w3.org/2000/svg">
<path d="M15 19C17.2091 19 19 17.2091 19 15C19 12.7909 17.2091 11 15 11C12.7909 11 11 12.7909 11 15C11 17.2091 12.7909 19 15 19Z" fill="#FF8800"/>
<path fill-rule="evenodd" clip-rule="evenodd" d="M13.4999 3C12.7709 3 12.1237 3.4665 11.8931 4.15812L11.1713 6.32372L9.40032 7.34613L7.16389 6.88848C6.44966 6.74233 5.72205 7.0696 5.35753 7.70095L3.85753 10.299C3.49302 10.9304 3.57341 11.7242 4.05709 12.2696L5.57164 13.9776L5.57168 16.0224L4.05714 17.7304C3.57346 18.2758 3.49307 19.0696 3.85759 19.701L5.35759 22.299C5.7221 22.9304 6.44972 23.2577 7.16394 23.1115L9.40036 22.6538L11.1713 23.6763L11.8931 25.8419C12.1237 26.5335 12.7709 27 13.4999 27H16.4999C17.229 27 17.8762 26.5335 18.1067 25.8419L18.8286 23.6763L20.5994 22.6539L22.8358 23.1115C23.55 23.2577 24.2776 22.9304 24.6421 22.299L26.1421 19.701C26.5067 19.0696 26.4263 18.2758 25.9426 17.7304L24.4281 16.0224L24.4281 13.9776L25.9426 12.2696C26.4263 11.7242 26.5067 10.9304 26.1422 10.299L24.6422 7.70095C24.2777 7.0696 23.5501 6.74233 22.8358 6.88848L20.5994 7.34613L18.8286 6.32373L18.1067 4.15812C17.8762 3.4665 17.229 3 16.4999 3H13.4999ZM12.8286 7.67628L13.7207 5H16.2792L17.1713 7.67627L20.2568 9.4577L23.0205 8.89214L24.2998 11.1078L22.4281 13.2185L22.428 16.7814L24.2997 18.8921L23.0205 21.1078L20.2567 20.5423L17.1713 22.3237L16.2792 25H13.7207L12.8286 22.3237L9.74302 20.5423L6.97926 21.1078L5.70002 18.8921L7.57169 16.7814L7.57163 13.2185L5.69996 11.1078L6.97921 8.89214L9.74296 9.4577L12.8286 7.67628Z" fill="#FF8800"/>
</svg>
