<svg width="30" height="30" viewBox="0 0 30 30" fill="none" xmlns="http://www.w3.org/2000/svg">
<path opacity="0.5" d="M3 15C3 12.7909 4.79086 11 7 11H23C25.2091 11 27 12.7909 27 15C27 17.2091 25.2091 19 23 19H7C4.79086 19 3 17.2091 3 15Z" fill="#FF8800"/>
<path fill-rule="evenodd" clip-rule="evenodd" d="M7 9H23C26.3137 9 29 11.6863 29 15C29 18.3137 26.3137 21 23 21H7C3.68629 21 1 18.3137 1 15C1 11.6863 3.68629 9 7 9ZM7 11C4.79086 11 3 12.7909 3 15C3 17.2091 4.79086 19 7 19H23C25.2091 19 27 17.2091 27 15C27 12.7909 25.2091 11 23 11H7Z" fill="#FF8800"/>
</svg>
