<svg width="30" height="30" viewBox="0 0 30 30" fill="none" xmlns="http://www.w3.org/2000/svg">
<path fill-rule="evenodd" clip-rule="evenodd" d="M3 8C3 6.89543 3.89543 6 5 6H25C26.1046 6 27 6.89543 27 8V22C27 23.1046 26.1046 24 25 24H5C3.89543 24 3 23.1046 3 22V8ZM18 10H24V12L21.2 20H19L21.8 12H18V10ZM14.5152 11.4468C14.8096 11.1279 15 10.639 15 10.0001H17V20.0001H15V13.5501C14.4246 13.8455 13.7494 14.0001 13 14.0001V12.0001C13.7657 12.0001 14.2329 11.7526 14.5152 11.4468ZM5.41926 16H5.40451C5.1811 16 5 15.8189 5 15.5955C5 15.5327 5.01462 15.4708 5.0427 15.4146L7.6382 10.2236C7.70672 10.0866 7.84678 10 8 10C8.15322 10 8.29328 10.0866 8.3618 10.2236L10.9573 15.4146C10.9854 15.4708 11 15.5327 11 15.5955C11 15.8189 10.8189 16 10.5955 16H10.5807C10.5274 16 10.4746 15.9898 10.425 15.97L9 15.4V20H7V15.4L5.57497 15.97C5.52544 15.9898 5.4726 16 5.41926 16Z" fill="#FF8800"/>
</svg>
