<svg width="40" height="40" viewBox="0 0 40 40" fill="none" xmlns="http://www.w3.org/2000/svg">
<path opacity="0.2" d="M18.3866 5.53366C18.8961 3.99277 21.1315 3.99277 21.641 5.53366L24.8433 15.003H35.287C36.9401 15.003 37.6308 17.0634 36.297 18.0157L27.8367 24.0561L31.0751 34.0663C31.5838 35.6048 29.7753 36.8783 28.4379 35.9234L20.0138 29.9089L11.5897 35.9234C10.2523 36.8783 8.44385 35.6048 8.95252 34.0663L12.1633 24.0561L3.70305 18.0157C2.3692 17.0634 3.05992 15.003 4.71301 15.003H15.1567L18.3866 5.53366Z" fill="#FF8800"/>
<path fill-rule="evenodd" clip-rule="evenodd" d="M23.4084 17.003L20.0127 6.96164L16.5876 17.003H5.7265L14.5137 23.2768L11.1432 33.7848L20.0138 27.4514L28.8812 33.7825L25.4832 23.279L34.2735 17.003H23.4084ZM8.95252 34.0663C8.44385 35.6048 10.2523 36.8783 11.5897 35.9234L20.0138 29.9089L28.4379 35.9234C29.7753 36.8783 31.5838 35.6048 31.0751 34.0663L27.8367 24.0561L36.297 18.0157C37.6308 17.0634 36.9401 15.003 35.287 15.003H24.8433L21.641 5.53366C21.1315 3.99277 18.8961 3.99277 18.3866 5.53366L15.1567 15.003H4.71301C3.05992 15.003 2.3692 17.0634 3.70305 18.0157L12.1633 24.0561L8.95252 34.0663Z" fill="#FF8800"/>
</svg>
