<svg width="30" height="30" viewBox="0 0 30 30" fill="none" xmlns="http://www.w3.org/2000/svg">
<path fill-rule="evenodd" clip-rule="evenodd" d="M5 8C5 8.8885 5.38625 9.68679 6 10.2361V19.7639C5.38625 20.3132 5 21.1115 5 22C5 23.6569 6.34315 25 8 25C8.8885 25 9.68679 24.6137 10.2361 24H19.7639C20.3132 24.6138 21.1115 25 22 25C23.6569 25 25 23.6569 25 22C25 21.1115 24.6137 20.3132 24 19.7639V10.2361C24.6137 9.68679 25 8.8885 25 8C25 6.34315 23.6569 5 22 5C21.1115 5 20.3132 5.38625 19.7639 6H10.2361C9.68679 5.38625 8.8885 5 8 5C6.34315 5 5 6.34315 5 8ZM8 9C8.55228 9 9 8.55228 9 8C9 7.44772 8.55228 7 8 7C7.44772 7 7 7.44772 7 8C7 8.55228 7.44772 9 8 9ZM22 9C22.5523 9 23 8.55228 23 8C23 7.44772 22.5523 7 22 7C21.4477 7 21 7.44772 21 8C21 8.55228 21.4477 9 22 9ZM22 23C22.5523 23 23 22.5523 23 22C23 21.4477 22.5523 21 22 21C21.4477 21 21 21.4477 21 22C21 22.5523 21.4477 23 22 23ZM8 23C8.55228 23 9 22.5523 9 22C9 21.4477 8.55228 21 8 21C7.44772 21 7 21.4477 7 22C7 22.5523 7.44772 23 8 23ZM15 22C18.866 22 22 18.866 22 15C22 11.134 18.866 8 15 8C11.134 8 8 11.134 8 15C8 18.866 11.134 22 15 22Z" fill="#FF8800"/>
<path d="M22 15C22 17.7614 18.866 20 15 20C11.134 20 8 17.7614 8 15C8 12.2386 11.134 10 15 10C18.866 10 22 12.2386 22 15Z" fill="url(#paint0_linear_1770_10340)"/>
<defs>
<linearGradient id="paint0_linear_1770_10340" x1="15" y1="10" x2="15" y2="20" gradientUnits="userSpaceOnUse">
<stop stop-color="#FF8800" stop-opacity="0.2"/>
<stop offset="1" stop-color="#FF8800"/>
</linearGradient>
</defs>
</svg>
