<svg width="30" height="30" viewBox="0 0 30 30" fill="none" xmlns="http://www.w3.org/2000/svg">
<path d="M10.2929 14.2929C10.6834 13.9024 11.3166 13.9024 11.7071 14.2929L14.4819 17.0677C14.6472 17.0235 14.8208 17 15 17C16.1045 17 17 17.8954 17 19C17 20.1045 16.1045 21 15 21C13.8954 21 13 20.1045 13 19C13 18.8208 13.0235 18.6472 13.0677 18.4819L10.2929 15.7071C9.90237 15.3166 9.90237 14.6834 10.2929 14.2929Z" fill="#FF8800"/>
<path fill-rule="evenodd" clip-rule="evenodd" d="M4 17C4 10.9249 8.92487 6 15 6C21.0751 6 26 10.9249 26 17V20C26 21.1046 25.1046 22 24 22H20.1973C19.1599 23.7934 17.2208 25 15 25C12.7792 25 10.8401 23.7934 9.80269 22H6C4.89543 22 4 21.1046 4 20V17ZM6 20H11.126C11.5701 21.7252 13.1362 23 15 23C16.8638 23 18.4299 21.7252 18.874 20H24V18H23C22.4477 18 22 17.5523 22 17C22 16.4477 22.4477 16 23 16H23.9451C23.7532 14.2641 23.0676 12.6771 22.0319 11.3823L21.7071 11.7071C21.3166 12.0976 20.6834 12.0976 20.2929 11.7071C19.9024 11.3166 19.9024 10.6834 20.2929 10.2929L20.6177 9.9681C19.3229 8.93238 17.7359 8.24682 16 8.05493V9C16 9.55228 15.5523 10 15 10C14.4477 10 14 9.55228 14 9V8.05493C12.2641 8.24682 10.6771 8.93238 9.38231 9.9681L9.70711 10.2929C10.0976 10.6834 10.0976 11.3166 9.70711 11.7071C9.31658 12.0976 8.68342 12.0976 8.29289 11.7071L7.9681 11.3823C6.93238 12.6771 6.24682 14.2641 6.05493 16H7C7.55228 16 8 16.4477 8 17C8 17.5523 7.55228 18 7 18H6V20Z" fill="#FF8800"/>
<path opacity="0.2" d="M11.126 20H6V17C6 12.0294 10.0294 8 15 8C19.9706 8 24 12.0294 24 17V20H18.874C18.4299 21.7252 16.8638 23 15 23C13.1362 23 11.5701 21.7252 11.126 20Z" fill="#FF8800"/>
</svg>
