<svg width="30" height="30" viewBox="0 0 30 30" fill="none" xmlns="http://www.w3.org/2000/svg">
<path fill-rule="evenodd" clip-rule="evenodd" d="M19.9285 7.62858C19.7319 7.13698 19.1861 6.88385 18.6838 7.05129L15.6838 8.05129L16.3163 9.94866L18.4218 9.24683L19.2071 11.2102L16.8378 12H12.5812C11.6414 12 10.7078 11.8485 9.81628 11.5513C8.72081 11.1861 7.57364 11 6.41892 11H6.00005C5.44777 11 5.00005 11.4477 5.00005 12C5.00005 12.5523 5.44777 13 6.00005 13H6.41892C7.35868 13 8.29229 13.1515 9.18383 13.4487C9.33236 13.4982 9.48185 13.5444 9.63218 13.5873C10.5715 14.0587 11.2953 14.8858 11.6325 15.8974L11.7408 16.2223C11.7467 16.24 11.7531 16.2576 11.76 16.2748L10.3487 16.4865C10.2195 16.4558 10.1028 16.3741 10.0311 16.25C9.89828 16.0199 9.96914 15.728 10.1878 15.5833C9.96703 15.2926 9.70745 15.033 9.41675 14.8123C9.27204 15.031 8.98019 15.1018 8.75005 14.969C8.51968 14.836 8.43519 14.5473 8.55273 14.3125C8.22186 14.173 7.8683 14.0768 7.49912 14.0308C7.4832 14.2926 7.26585 14.5 7.00006 14.5C6.73427 14.5 6.51692 14.2926 6.50099 14.0308C6.13182 14.0768 5.77826 14.173 5.44739 14.3125C5.5649 14.5473 5.48041 14.8359 5.25005 14.9689C5.01993 15.1018 4.7281 15.0309 4.58338 14.8123C4.29269 15.033 4.03312 15.2926 3.8124 15.5833C4.03098 15.728 4.10181 16.0198 3.96896 16.2499C3.83597 16.4803 3.54737 16.5647 3.3126 16.4473C3.1731 16.7782 3.07683 17.1317 3.03088 17.5009C3.29267 17.5169 3.50005 17.7342 3.50005 18C3.50005 18.2658 3.29267 18.4831 3.03088 18.4991C3.07683 18.8682 3.17308 19.2218 3.31257 19.5527C3.54734 19.4352 3.83596 19.5196 3.96896 19.75C4.10182 19.9801 4.03097 20.272 3.81235 20.4167C4.03309 20.7074 4.29268 20.967 4.5834 21.1877C4.72813 20.9691 5.01994 20.8983 5.25005 21.0311C5.48039 21.1641 5.56489 21.4527 5.44741 21.6875C5.77827 21.827 6.13182 21.9232 6.50099 21.9692C6.51691 21.7074 6.73426 21.5 7.00005 21.5C7.26584 21.5 7.48319 21.7074 7.49912 21.9692C7.86829 21.9232 8.22184 21.827 8.5527 21.6875C8.4352 21.4527 8.51969 21.1641 8.75005 21.0311C8.98017 20.8982 9.272 20.9691 9.41672 21.1877C9.70745 20.967 9.96705 20.7073 10.1878 20.4166C9.96914 20.2719 9.89827 19.98 10.0311 19.7499C10.1641 19.5195 10.4528 19.435 10.6876 19.5526C10.827 19.2217 10.9233 18.8682 10.9692 18.4991C10.8987 18.4948 10.8321 18.4759 10.7724 18.4453L16.4317 17.5964C17.1263 17.4922 17.7623 17.1476 18.2289 16.6227L20.3966 14.184L20.6963 14.9331C20.6531 14.9002 20.6148 14.8597 20.5834 14.8122C20.2927 15.033 20.0331 15.2925 19.8124 15.5832C20.031 15.7279 20.1018 16.0197 19.969 16.2498C19.836 16.4802 19.5474 16.5647 19.3126 16.4472C19.1731 16.7781 19.0768 17.1317 19.0309 17.5009C19.2927 17.5168 19.5001 17.7341 19.5001 17.9999C19.5001 18.2657 19.2927 18.4831 19.0309 18.499C19.0768 18.8682 19.1731 19.2217 19.3126 19.5526C19.5473 19.4351 19.836 19.5196 19.969 19.7499C20.1018 19.9801 20.031 20.2719 19.8124 20.4166C20.0331 20.7073 20.2927 20.9669 20.5834 21.1876C20.7281 20.9691 21.0199 20.8982 21.25 21.0311C21.4804 21.1641 21.5649 21.4527 21.4474 21.6874C21.7783 21.8269 22.1318 21.9232 22.501 21.9691C22.5169 21.7073 22.7343 21.4999 23.0001 21.4999C23.2658 21.4999 23.4832 21.7073 23.4991 21.9691C23.8683 21.9232 24.2218 21.8269 24.5527 21.6874C24.4352 21.4526 24.5197 21.164 24.75 21.031C24.9802 20.8982 25.272 20.969 25.4167 21.1876C25.7074 20.9669 25.9671 20.7073 26.1878 20.4165C25.9691 20.2718 25.8983 19.98 26.0311 19.7498C26.1641 19.5195 26.4528 19.435 26.6876 19.5525C26.827 19.2217 26.9233 18.8681 26.9692 18.499C26.7074 18.4831 26.5001 18.2657 26.5001 17.9999C26.5 17.7341 26.7074 17.5168 26.9692 17.5009C26.9233 17.1317 26.827 16.7781 26.6875 16.4473C26.4528 16.5648 26.1641 16.4803 26.0311 16.2499C25.8983 16.0198 25.9691 15.728 26.1878 15.5833C25.967 15.2926 25.7074 15.033 25.4167 14.8122C25.272 15.0309 24.9802 15.1018 24.7501 14.9689C24.5197 14.8359 24.4352 14.5472 24.5527 14.3125C24.2219 14.173 23.8683 14.0767 23.4991 14.0308C23.4832 14.2925 23.2658 14.4999 23.0001 14.4999C22.8325 14.4999 22.6843 14.4176 22.5935 14.2911L22.5048 14.0693C22.5031 14.0566 22.5018 14.0438 22.501 14.0308C22.4973 14.0312 22.4936 14.0317 22.49 14.0322L19.9285 7.62858ZM21.4283 16.7631L22.0716 18.3714C22.2767 18.8841 22.8587 19.1336 23.3714 18.9284C23.8842 18.7233 24.1336 18.1414 23.9285 17.6286L23.2851 16.0201C24.2547 16.1585 25.0001 16.9921 25.0001 17.9999C25.0001 19.1045 24.1046 19.9999 23.0001 19.9999C21.8955 19.9999 21.0001 19.1045 21.0001 17.9999C21.0001 17.533 21.1601 17.1034 21.4283 16.7631ZM8.56467 16.7541C8.19822 16.2945 7.63353 16 7.00005 16C5.89548 16 5.00005 16.8954 5.00005 18C5.00005 19.1046 5.89548 20 7.00005 20C7.8463 20 8.56978 19.4744 8.8619 18.7319L7.14839 18.9889C6.60222 19.0708 6.09304 18.6945 6.01112 18.1483C5.92919 17.6021 6.30554 17.093 6.85171 17.011L8.56467 16.7541Z" fill="#FF8800"/>
</svg>
