<svg width="375" height="90" viewBox="0 0 375 90" fill="none" xmlns="http://www.w3.org/2000/svg">
<g clip-path="url(#clip0_1775_170)">
<path d="M0 0H375V90H0V0Z" fill="white"/>
<rect x="16" y="82" width="343" height="8" fill="#D7D8DB"/>
<path d="M55 64C58.866 64 62 67.134 62 71C62 74.866 58.866 78 55 78C51.134 78 48 74.866 48 71C48 67.134 51.134 64 55 64ZM77 64C80.866 64 84 67.134 84 71C84 74.866 80.866 78 77 78C73.134 78 70 74.866 70 71C70 67.134 73.134 64 77 64ZM146 64C149.866 64 153 67.134 153 71C153 74.866 149.866 78 146 78C142.134 78 139 74.866 139 71C139 67.134 142.134 64 146 64ZM55 68C53.3431 68 52 69.3431 52 71C52 72.6569 53.3431 74 55 74C56.6569 74 58 72.6569 58 71C58 69.3431 56.6569 68 55 68ZM77 68C75.3431 68 74 69.3431 74 71C74 72.6569 75.3431 74 77 74C78.6569 74 80 72.6569 80 71C80 69.3431 78.6569 68 77 68ZM146 68C144.343 68 143 69.3431 143 71C143 72.6569 144.343 74 146 74C147.657 74 149 72.6569 149 71C149 69.3431 147.657 68 146 68ZM128 65H131V32H149L161 48V71H155C155 66.0294 150.971 62 146 62C141.029 62 137 66.0294 137 71H86C86 66.0294 81.9706 62 77 62C72.0294 62 68 66.0294 68 71H64C64 66.0294 59.9706 62 55 62C50.0294 62 46 66.0294 46 71H38V65H41V61H38V25H128V65ZM138 48H155V46.334L146.999 36H138V48Z" fill="#237BFF"/>
<path d="M32 79V82L38 88L44 82L167 82V79H32Z" fill="#EE5622"/>
<path d="M155 82L161 88L167 82L155 82Z" fill="#EE5622"/>
<circle cx="280" cy="42" r="32" fill="#EE5622"/>
<circle cx="280" cy="42" r="26" fill="white"/>
<path d="M264 49C264 47.8954 264.895 47 266 47H268C269.105 47 270 47.8954 270 49V57C270 58.1046 269.105 59 268 59H266C264.895 59 264 58.1046 264 57V49Z" fill="#212121"/>
<path d="M278 50C278 49.4477 278.448 49 279 49H281C281.552 49 282 49.4477 282 50V56C282 56.5523 281.552 57 281 57H279C278.448 57 278 56.5523 278 56V50Z" fill="#212121"/>
<path d="M292 47C290.895 47 290 47.8954 290 49V57C290 58.1046 290.895 59 292 59H294C295.105 59 296 58.1046 296 57V49C296 47.8954 295.105 47 294 47H292Z" fill="#212121"/>
<path d="M268 51H292V55H268V51Z" fill="#212121"/>
<path d="M288 25H272V29H278L278 45H282V29H288V25Z" fill="#212121"/>
</g>
<defs>
<clipPath id="clip0_1775_170">
<rect width="375" height="90" fill="white"/>
</clipPath>
</defs>
</svg>
