<svg width="30" height="30" viewBox="0 0 30 30" fill="none" xmlns="http://www.w3.org/2000/svg">
<path opacity="0.5" fill-rule="evenodd" clip-rule="evenodd" d="M10.874 9C10.4299 10.7252 8.86384 12 7 12C4.79086 12 3 10.2091 3 8C3 5.79086 4.79086 4 7 4C8.86384 4 10.4299 5.27477 10.874 7L18 7C20.7614 7 23 9.23858 23 12C23 14.7614 20.7614 17 18 17L8 17C6.34315 17 5 18.3431 5 20C5 21.6569 6.34315 23 8 23H12.1111V25H8C5.23858 25 3 22.7614 3 20C3 17.2386 5.23858 15 8 15L18 15C19.6569 15 21 13.6569 21 12C21 10.3431 19.6569 9 18 9L10.874 9ZM7 10C8.10457 10 9 9.10457 9 8C9 6.89543 8.10457 6 7 6C5.89543 6 5 6.89543 5 8C5 9.10457 5.89543 10 7 10Z" fill="#FF8800"/>
<path fill-rule="evenodd" clip-rule="evenodd" d="M27.6464 9.35355C27.8728 9.12718 28 8.82014 28 8.5C28 8.17986 27.8728 7.87282 27.6464 7.64645L25.3536 5.35355C25.1272 5.12718 24.8201 5 24.5 5C24.1799 5 23.8728 5.12718 23.6464 5.35355L8 21V25H12L27.6464 9.35355ZM24.0858 10.0858L25.6716 8.5L24.5 7.32843L22.9142 8.91421L24.0858 10.0858ZM11.5858 22.5858L10.4142 21.4142L10 21.8284V23H11.1716L11.5858 22.5858Z" fill="#FF8800"/>
</svg>
