<svg width="30" height="30" viewBox="0 0 30 30" fill="none" xmlns="http://www.w3.org/2000/svg">
<path d="M21.7113 13.0049C20.852 10.1107 18.1733 8 15 8C12.6176 8 10.5143 9.19059 9.25098 11.0055C6.32899 11.1357 4 13.5459 4 16.5C4 19.3317 6.13909 21.6624 8.89013 21.9665L8.94375 21.9724L8.99771 21.9725L20.9977 22H21C21.086 22 21.1715 21.9978 21.2566 21.9935C21.3373 21.9978 21.4184 22 21.5 22C23.9853 22 26 19.9853 26 17.5V17.4996V17.4991V17.4987V17.4982V17.4978V17.4973V17.4968V17.4963V17.4958V17.4953V17.4948V17.4943V17.4937V17.4932V17.4927V17.4921V17.4916V17.491V17.4904V17.4898V17.4893V17.4887V17.4881V17.4874V17.4868V17.4862V17.4856V17.4849V17.4843V17.4836V17.483V17.4823V17.4816V17.481V17.4803V17.4796V17.4789V17.4782V17.4774V17.4767V17.476V17.4753V17.4745V17.4738V17.473V17.4723V17.4715V17.4707V17.4699V17.4691V17.4684V17.4676V17.4667V17.4659V17.4651V17.4643V17.4635V17.4626V17.4618V17.4609V17.4601V17.4592V17.4583V17.4575V17.4566V17.4557V17.4548V17.4539V17.453V17.4521V17.4512V17.4503V17.4494V17.4484V17.4475V17.4466V17.4456V17.4447V17.4437V17.4427V17.4418V17.4408V17.4398V17.4388V17.4378V17.4369V17.4359V17.4349V17.4338V17.4328V17.4318V17.4308V17.4298V17.4287V17.4277V17.4266V17.4256V17.4245V17.4235V17.4224V17.4214V17.4203V17.4192V17.4181V17.417V17.416V17.4149V17.4138V17.4127V17.4116V17.4104V17.4093V17.4082V17.4071V17.406V17.4048V17.4037V17.4026V17.4014V17.4003V17.3991V17.398V17.3968V17.3956V17.3945V17.3933V17.3921V17.391V17.3898V17.3886V17.3874V17.3862V17.385V17.3838V17.3826V17.3814V17.3802V17.379V17.3778V17.3766V17.3753V17.3741V17.3729V17.3716V17.3704V17.3692V17.3679V17.3667V17.3654V17.3642V17.3629V17.3617V17.3604V17.3592V17.3579V17.3566V17.3554V17.3541V17.3528V17.3516V17.3503V17.349V17.3477V17.3464V17.3451V17.3439V17.3426V17.3413V17.34V17.3387V17.3374V17.3361V17.3348V17.3334V17.3321V17.3308V17.3295V17.3282V17.3269V17.3256V17.3242V17.3229V17.3216V17.3203V17.3189V17.3176V17.3163V17.3149V17.3136V17.3123V17.3109V17.3096V17.3082V17.3069V17.3056V17.3042V17.3029V17.3015V17.3002V17.2988V17.2975V17.2961V17.2948V17.2934V17.2921V17.2907V17.2894V17.288V17.2866V17.2853V17.2839V17.2826V17.2812V17.2798V17.2785V17.2771V17.2758V17.2744V17.273V17.2717V17.2703V17.2689V17.2676V17.2662V17.2648V17.2635V17.2621V17.2607V17.2594V17.258V17.2566V17.2553V17.2539V17.2525V17.2512V17.2498V17.2484V17.2471V17.2457V17.2443V17.243V17.2416V17.2402V17.2389V17.2375V17.2361V17.2348V17.2334V17.232V17.2307V17.2293V17.228V17.2266V17.2252V17.2239V17.2225V17.2212V17.2198V17.2184V17.2171V17.2157V17.2144V17.213V17.2117V17.2103V17.209V17.2076V17.2063V17.205V17.2036V17.2023V17.2009V17.1996V17.1983V17.1969V17.1956V17.1942V17.1929V17.1916V17.1903V17.1889V17.1876V17.1863V17.185V17.1836V17.1823V17.181V17.1797V17.1784V17.1771V17.1758V17.1745V17.1732V17.1719V17.1706V17.1693V17.168V17.1667V17.1654V17.1641V17.1628V17.1615V17.1602V17.159V17.1577V17.1564V17.1551V17.1539V17.1526V17.1514V17.1501V17.1488V17.1476V17.1463V17.1451V17.1438V17.1426V17.1413V17.1401V17.1389V17.1376V17.1364V17.1352V17.134V17.1328V17.1315V17.1303V17.1291V17.1279V17.1267V17.1255V17.1243V17.1231V17.1219V17.1208V17.1196V17.1184V17.1172V17.1161V17.1149V17.1137V17.1126V17.1114V17.1103V17.1091V17.108V17.1068V17.1057V17.1046V17.1034V17.1023V17.1012V17.1001V17.099V17.0979V17.0968V17.0957V17.0946V17.0935V17.0924V17.0913V17.0903V17.0892V17.0881V17.0871V17.086V17.085V17.0839V17.0829V17.0818V17.0808V17.0798V17.0787V17.0777V17.0767V17.0757V17.0747V17.0737V17.0727V17.0717V17.0707V17.0698V17.0688V17.0678V17.0669V17.0659V17.0649V17.064V17.0631V17.0621V17.0612V17.0603V17.0594V17.0584V17.0575V17.0566V17.0557V17.0549V17.054V17.0531V17.0522V17.0514V17.0505V17.0496V17.0488V17.0479V17.0471V17.0463V17.0455V17.0446V17.0438V17.043V17.0422V17.0414V17.0406V17.0399V17.0391V17.0383V17.0376V17.0368V17.0361V17.0353V17.0346V17.0339V17.0331V17.0324V17.0317V17.031V17.0303V17.0296V17.029V17.0283V17.0276V17.027V17.0263V17.0257V17.025V17.0244V17.0238V17.0231V17.0225V17.0219V17.0213V17.0208V17.0202V17.0196V17.019V17.0185V17.0179V17.0174V17.0169V17.0163V17.0158V17.0153V17.0148V17.0143V17.0138V17.0133V17.0129V17.0124V17.0119V17.0115V17.011V17.0106V17.0102V17.0098V17.0094V17.009V17.0086V17.0082V17.0078V17.0074V17.0071V17.0067V17.0064V17.0061V17.0057V17.0054V17.0051V17.0048V17.0045V17.0042V17.004V17.0037V17.0034V17.0032V17.003V17.0027V17.0025V17.0023V17.0021V17.0019V17.0017V17.0015V17.0014V17.0012V17.0011V17.0009V17.0008V17.0007V17.0006V17.0005V17.0004V17.0003V17.0002V17.0002V17.0001V17.0001V17V17V17V16.9288L25.9899 16.8584C25.6859 14.7332 23.8744 13.105 21.7113 13.0049Z" fill="#E6E8E6" stroke="#595959" stroke-width="2"/>
<mask id="path-2-outside-1_1903_15742" maskUnits="userSpaceOnUse" x="11" y="11" width="16" height="12" fill="black">
<rect fill="white" x="11" y="11" width="16" height="12"/>
<path fill-rule="evenodd" clip-rule="evenodd" d="M17 21H16C14.3431 21 13 19.6569 13 18C13 16.3431 14.3431 15 16 15C16.4917 15 16.9557 15.1183 17.3652 15.3279C17.9984 13.9538 19.3878 13 21 13C23.2091 13 25 14.7909 25 17V17.5C25 19.433 23.433 21 21.5 21H19H17Z"/>
</mask>
<path fill-rule="evenodd" clip-rule="evenodd" d="M17 21H16C14.3431 21 13 19.6569 13 18C13 16.3431 14.3431 15 16 15C16.4917 15 16.9557 15.1183 17.3652 15.3279C17.9984 13.9538 19.3878 13 21 13C23.2091 13 25 14.7909 25 17V17.5C25 19.433 23.433 21 21.5 21H19H17Z" fill="url(#paint0_linear_1903_15742)"/>
<path d="M17.3652 15.3279L16.4538 17.1082L18.3093 18.0581L19.1816 16.1649L17.3652 15.3279ZM17 19H16V23H17V19ZM16 19C15.4477 19 15 18.5523 15 18H11C11 20.7614 13.2386 23 16 23V19ZM15 18C15 17.4477 15.4477 17 16 17V13C13.2386 13 11 15.2386 11 18H15ZM16 17C16.1675 17 16.3198 17.0396 16.4538 17.1082L18.2766 13.5476C17.5915 13.1969 16.8159 13 16 13V17ZM19.1816 16.1649C19.5003 15.4734 20.1969 15 21 15V11C18.5786 11 16.4964 12.4343 15.5487 14.4909L19.1816 16.1649ZM21 15C22.1046 15 23 15.8954 23 17H27C27 13.6863 24.3137 11 21 11V15ZM23 17V17.5H27V17H23ZM23 17.5C23 18.3284 22.3284 19 21.5 19V23C24.5376 23 27 20.5376 27 17.5H23ZM21.5 19H19V23H21.5V19ZM19 19H17V23H19V19Z" fill="#595959" mask="url(#path-2-outside-1_1903_15742)"/>
<defs>
<linearGradient id="paint0_linear_1903_15742" x1="19" y1="13" x2="19" y2="21" gradientUnits="userSpaceOnUse">
<stop stop-color="#E6F0FE"/>
<stop offset="1" stop-color="#B4D3FD"/>
</linearGradient>
</defs>
</svg>
