<svg width="30" height="30" viewBox="0 0 30 30" fill="none" xmlns="http://www.w3.org/2000/svg">
<path opacity="0.5" d="M23 5C24.1046 5 25 5.89543 25 7V7.17383C24.6869 7.06306 24.351 7 24 7H6C5.649 7 5.31306 7.06306 5 7.17383V7C5 5.89543 5.89543 5 7 5H23Z" fill="#BEB9C5"/>
<path d="M24 7C25.6569 7 27 8.34315 27 10V22C27 23.6569 25.6569 25 24 25H6C4.34315 25 3 23.6569 3 22V10C3 8.34315 4.34315 7 6 7H24ZM15.5 10.75C15.0858 10.75 14.75 11.0858 14.75 11.5C14.75 11.9142 15.0858 12.25 15.5 12.25H16.4922L16.8926 13.25H13.25V12.5C13.25 12.0858 12.9142 11.75 12.5 11.75H11C10.5858 11.75 10.25 12.0858 10.25 12.5C10.25 12.9142 10.5858 13.25 11 13.25H11.75V13.7998L11.5439 14.1602C11.209 14.0554 10.8574 14 10.5 14C9.57174 14 8.68177 14.369 8.02539 15.0254C7.36901 15.6818 7 16.5717 7 17.5C7 18.4283 7.36901 19.3182 8.02539 19.9746C8.68177 20.631 9.57174 21 10.5 21C11.4283 21 12.3182 20.631 12.9746 19.9746C13.4511 19.4981 13.7746 18.8981 13.917 18.25H15C15.2189 18.25 15.4269 18.1544 15.5693 17.9883L16 17.4844C16 17.4896 16 17.4948 16 17.5C16 18.4283 16.369 19.3182 17.0254 19.9746C17.6818 20.631 18.5717 21 19.5 21C20.4283 21 21.3182 20.631 21.9746 19.9746C22.631 19.3182 23 18.4283 23 17.5C23 16.5717 22.631 15.6818 21.9746 15.0254C21.3182 14.369 20.4283 14 19.5 14C19.2778 14 19.0579 14.0213 18.8428 14.0625L18.6895 13.7041L17.6963 11.2217C17.5824 10.9369 17.3067 10.75 17 10.75H15.5ZM10.5 15.5C10.5897 15.5 10.6786 15.5077 10.7666 15.5195L9.84863 17.1279C9.7161 17.36 9.71753 17.6448 9.85156 17.876C9.98575 18.1072 10.2326 18.25 10.5 18.25H12.3535C12.2538 18.4962 12.1055 18.7226 11.9141 18.9141C11.539 19.2891 11.0304 19.5 10.5 19.5C9.96957 19.5 9.46101 19.2891 9.08594 18.9141C8.71086 18.539 8.5 18.0304 8.5 17.5C8.5 16.9696 8.71086 16.461 9.08594 16.0859C9.46101 15.7109 9.96957 15.5 10.5 15.5ZM19.5 15.5C20.0304 15.5 20.539 15.7109 20.9141 16.0859C21.2891 16.461 21.5 16.9696 21.5 17.5C21.5 18.0304 21.2891 18.539 20.9141 18.9141C20.539 19.2891 20.0304 19.5 19.5 19.5C18.9696 19.5 18.461 19.2891 18.0859 18.9141C17.7109 18.539 17.5 18.0304 17.5 17.5C17.5 16.9723 17.7087 16.4663 18.0801 16.0918L18.8105 17.7959C18.9738 18.1764 19.4153 18.3526 19.7959 18.1895C20.1764 18.0262 20.3526 17.5847 20.1895 17.2041L19.46 15.502C19.4733 15.5017 19.4866 15.5 19.5 15.5ZM12.0703 16.2637C12.1875 16.4125 12.2831 16.576 12.3535 16.75H11.793L12.0703 16.2637ZM16.3691 14.75L14.6553 16.75H13.917C13.7746 16.1019 13.4511 15.5019 12.9746 15.0254C12.9328 14.9836 12.8903 14.9428 12.8467 14.9033L12.9355 14.75H16.3691Z" fill="#BEB9C5"/>
</svg>
