<svg width="30" height="30" viewBox="0 0 30 30" fill="none" xmlns="http://www.w3.org/2000/svg">
<path d="M15 8V6C20.5228 6 25 10.4772 25 16H23C23 11.5817 19.4183 8 15 8Z" fill="black" fill-opacity="0.3"/>
<path d="M15 10C18.3137 10 21 12.6863 21 16H19C19 13.7909 17.2091 12 15 12V10Z" fill="black" fill-opacity="0.3"/>
<path d="M18.5388 24.7876C21.3265 22 19.884 17.9411 16.4909 14.5479C13.0977 11.1548 8.99999 10 6.25117 12.5C3.98908 14.7621 4.90597 19.3466 8.29911 22.7397C11.6923 26.1328 16.2767 27.0497 18.5388 24.7876Z" fill="black" fill-opacity="0.3"/>
<path d="M15 7V5C20.5228 5 25 9.47715 25 15H23C23 10.5817 19.4183 7 15 7Z" fill="#FFC107"/>
<path d="M15 9C18.3137 9 21 11.6863 21 15H19C19 12.7909 17.2091 11 15 11V9Z" fill="#FFC107"/>
<path d="M18.5388 23.7876C21.3265 21 19.884 16.9411 16.4909 13.5479C13.0977 10.1548 8.99999 9 6.25117 11.5C3.98908 13.7621 4.90597 18.3466 8.29911 21.7397C11.6923 25.1328 16.2767 26.0497 18.5388 23.7876Z" fill="#FFC107"/>
<path fill-rule="evenodd" clip-rule="evenodd" d="M17.153 15.8508C18.8522 18.1129 19.4416 20.4022 18.4367 21.407C17.2023 22.6415 14.0295 21.4701 11.35 18.7906C8.67057 16.1112 7.49916 12.9383 8.73359 11.7039C9.71574 10.7218 11.9249 11.2626 14.1364 12.8741C14.3736 12.3582 14.895 12 15.5 12C16.1769 12 16.749 12.4484 16.9357 13.0643C17.5516 13.251 18 13.8231 18 14.5C18 15.0944 17.6543 15.608 17.153 15.8508Z" fill="#59361B"/>
<path d="M18.8873 20.5031C19.1679 18.977 17.9873 16.4873 15.8203 14.3203C13.1409 11.6409 9.96803 10.4695 8.73359 11.7039C8.3016 12.1359 8.16424 12.8053 8.28305 13.6079C8.34942 13.247 8.49751 12.94 8.73359 12.7039C9.96803 11.4695 13.1409 12.6409 15.8203 15.3203C17.5621 17.0621 18.6666 19.0123 18.8873 20.5031Z" fill="black" fill-opacity="0.3"/>
<path fill-rule="evenodd" clip-rule="evenodd" d="M15 17.5C15 17.7761 15.2239 18 15.5 18C15.7761 18 16 17.7761 16 17.5V15H16.5C16.7761 15 17 14.7761 17 14.5C17 14.2239 16.7761 14 16.5 14H16V13.5C16 13.2239 15.7761 13 15.5 13C15.2239 13 15 13.2239 15 13.5V14H12.5C12.2239 14 12 14.2239 12 14.5C12 14.7761 12.2239 15 12.5 15H15V17.5Z" fill="#FFC107"/>
</svg>
