<svg width="24" height="24" viewBox="0 0 24 24" fill="none" xmlns="http://www.w3.org/2000/svg">
<path d="M9,11L6,16H18L14.5,9L11.5,13L9,11Z" fill="#ffffff"/>
<path d="M2,6C2,4.8954 2.8954,4 4,4H20C21.1046,4 22,4.8954 22,6V18C22,19.1046 21.1046,20 20,20H4C2.8954,20 2,19.1046 2,18V6ZM4,6H20V18H4V6Z" fill="#ffffff" fill-rule="evenodd" clip-rule="evenodd"/>
<path d="M9,8.5C9,9.3284 8.3284,10 7.5,10C6.6716,10 6,9.3284 6,8.5C6,7.6716 6.6716,7 7.5,7C8.3284,7 9,7.6716 9,8.5Z" fill="#ffffff" fill-opacity="0.5" stroke-opacity="0.5"/>
</svg>
