<svg width="8" height="9" viewBox="0 0 8 9" fill="none" xmlns="http://www.w3.org/2000/svg">
<path d="M4 7L0.591096 8.94795C0.5314 8.98206 0.463835 9 0.395081 9C0.176884 9 0 8.82312 0 8.60492L0 8.58705C0 8.52965 0.0119663 8.47288 0.0351351 8.42036L3.64909 0.228729C3.71042 0.089706 3.84805 0 4 0C4.15195 0 4.28958 0.0897055 4.35091 0.228729L7.96486 8.42036C7.98803 8.47288 8 8.52965 8 8.58705V8.60492C8 8.82312 7.82312 9 7.60492 9C7.53616 9 7.4686 8.98206 7.4089 8.94795L4 7Z" fill="#3678DB"/>
<path d="M4 7L0.591096 8.94795C0.5314 8.98206 0.463835 9 0.395081 9C0.176884 9 0 8.82312 0 8.60492V8.58705C0 8.52965 0.0119663 8.47288 0.0351351 8.42036L3.64909 0.228729C3.71042 0.089706 3.84805 0 4 0C4.15195 0 4.28958 0.0897056 4.35091 0.228729L7.96486 8.42036C7.98803 8.47288 8 8.52965 8 8.58705V8.60492C8 8.82312 7.82312 9 7.60492 9C7.53616 9 7.4686 8.98206 7.4089 8.94795L4 7Z" fill="#3678DB"/>
</svg>
