<svg width="30" height="30" viewBox="0 0 30 30" fill="none" xmlns="http://www.w3.org/2000/svg">
<path d="M15 8C16.1046 8 17 7.10457 17 6C17 4.89543 16.1046 4 15 4C13.8954 4 13 4.89543 13 6C13 7.10457 13.8954 8 15 8Z" fill="#FF8800"/>
<path d="M17 16V13.3297C17.6245 13.7631 18.3707 14 19.1414 14H20V12H19.1414C18.6758 12 18.2293 11.8151 17.9 11.4858C17.8183 11.4041 17.7448 11.3145 17.6807 11.2183L17.1116 10.3646C16.9581 10.1344 16.7732 9.9284 16.563 9.75207C16.1965 9.29365 15.6325 9 15 9C13.8954 9 13 9.89543 13 11V16C13 16.7403 13.4022 17.3866 14 17.7324V20.1707C12.8348 20.5825 12 21.6938 12 23C12 24.6569 13.3431 26 15 26C16.6569 26 18 24.6569 18 23C18 21.6938 17.1652 20.5825 16 20.1707V17.7324C16.5978 17.3866 17 16.7403 17 16Z" fill="#FF8800"/>
</svg>
