<svg width="30" height="30" viewBox="0 0 30 30" fill="none" xmlns="http://www.w3.org/2000/svg">
<path fill-rule="evenodd" clip-rule="evenodd" d="M12 4C11.4477 4 11 4.44772 11 5V6H8.73459C7.73929 6 6.89545 6.73186 6.75469 7.71716L6 13H5C4.44772 13 4 13.4477 4 14C4 14.5523 4.44772 15 5 15V22.5C5 23.3284 5.67157 24 6.5 24C7.32843 24 8 23.3284 8 22.5V22H22V22.5C22 23.3284 22.6716 24 23.5 24C24.3284 24 25 23.3284 25 22.5V15C25.5523 15 26 14.5523 26 14C26 13.4477 25.5523 13 25 13H24L23.2453 7.71716C23.1046 6.73186 22.2607 6 21.2654 6H19V5C19 4.44772 18.5523 4 18 4H12ZM8.5 15C7.67157 15 7 15.6716 7 16.5C7 17.3284 7.67157 18 8.5 18H9.5C10.3284 18 11 17.3284 11 16.5C11 15.6716 10.3284 15 9.5 15H8.5ZM20.5 15C19.6716 15 19 15.6716 19 16.5C19 17.3284 19.6716 18 20.5 18H21.5C22.3284 18 23 17.3284 23 16.5C23 15.6716 22.3284 15 21.5 15H20.5ZM21.2654 8L21.9797 13H8.0203L8.73459 8L21.2654 8Z" fill="#FF8800"/>
<path opacity="0.5" d="M19 11C17.8954 11 17 11.8954 17 13H21C21 11.8954 20.1046 11 19 11Z" fill="#FF8800"/>
</svg>
