<svg width="30" height="30" viewBox="0 0 30 30" fill="none" xmlns="http://www.w3.org/2000/svg">
<path opacity="0.6" d="M15 3C21.6274 3 27 8.37258 27 15C27 21.6274 21.6274 27 15 27C8.37258 27 3 21.6274 3 15C3 8.37258 8.37258 3 15 3ZM15 5C9.47715 5 5 9.47715 5 15C5 20.5228 9.47715 25 15 25C20.5228 25 25 20.5228 25 15C25 9.47715 20.5228 5 15 5Z" fill="#FF8800"/>
<path fill-rule="evenodd" clip-rule="evenodd" d="M15.1807 3.00391C18.9632 3.16818 22 8.47613 22 15C22 21.5239 18.9632 26.8318 15.1807 26.9961L15 27C11.134 27 8 21.6274 8 15C8 8.37258 11.134 3 15 3L15.1807 3.00391ZM14.8232 5.00781C13.9231 5.0869 12.7969 5.77473 11.7773 7.52246C10.7186 9.3375 10 11.9769 10 15C10 18.0231 10.7186 20.6625 11.7773 22.4775C12.8648 24.3417 14.0737 25 15 25L15.1768 24.9922C16.0769 24.9131 17.2031 24.2253 18.2227 22.4775C19.2814 20.6625 20 18.0231 20 15C20 11.9769 19.2814 9.3375 18.2227 7.52246C17.1352 5.65832 15.9263 5 15 5L14.8232 5.00781Z" fill="#FF8800"/>
</svg>
