<svg width="52" height="52" viewBox="0 0 52 52" fill="none" xmlns="http://www.w3.org/2000/svg">
<path opacity="0.6" fill-rule="evenodd" clip-rule="evenodd" d="M12.8721 26L7.25004 36.7756C7.08578 37.0904 7 37.4403 7 37.7954C7 39.0129 7.98705 40 9.20464 40H9.2832C9.53856 40 9.7921 39.9572 10.0333 39.8733L43.384 28.273C44.3515 27.9365 45 27.0244 45 26C45 24.9756 44.3515 24.0635 43.384 23.727L10.0333 12.1267C9.7921 12.0428 9.53856 12 9.2832 12H9.20464C7.98705 12 7 12.9871 7 14.2046C7 14.5597 7.08578 14.9096 7.25004 15.2244L12.8721 26Z" fill="#237BFF"/>
<path d="M14 26L8.13662 37.2381C8.04687 37.4102 8 37.6013 8 37.7954C8 38.4607 8.53934 39 9.20464 39H9.2832C9.42672 39 9.56922 38.9759 9.70476 38.9288L43.0555 27.3285C43.621 27.1318 44 26.5987 44 26C44 25.4013 43.621 24.8682 43.0555 24.6715L9.70476 13.0712C9.56921 13.0241 9.42672 13 9.2832 13H9.20464C8.53934 13 8 13.5393 8 14.2046C8 14.3987 8.04687 14.5898 8.13662 14.7619L14 26Z" fill="#237BFF"/>
</svg>
