<svg width="30" height="30" viewBox="0 0 30 30" fill="none" xmlns="http://www.w3.org/2000/svg">
<path d="M11.4996 6.00024C11.7757 6.00024 11.9996 6.2241 11.9996 6.50024C11.9994 6.77625 11.7756 7.00024 11.4996 7.00024H8.49957C8.22372 7.00002 7.99974 6.77611 7.99957 6.50024C7.99957 6.22424 8.22362 6.00047 8.49957 6.00024H11.4996Z" fill="#FF8800"/>
<path fill-rule="evenodd" clip-rule="evenodd" d="M13.9996 3.00024C15.6564 3.00024 16.9996 4.34339 16.9996 6.00024V24.0002C16.9994 25.657 15.6563 27.0002 13.9996 27.0002H5.99957C4.34301 27 2.99974 25.6568 2.99957 24.0002V6.00024C2.99957 4.34353 4.34291 3.00047 5.99957 3.00024H13.9996ZM5.99957 5.00024C5.44748 5.00047 4.99957 5.4481 4.99957 6.00024V24.0002L5.00446 24.1028C5.05589 24.6067 5.48217 25 5.99957 25.0002H13.9996C14.5171 25.0002 14.9432 24.6067 14.9947 24.1028L14.9996 24.0002V6.00024C14.9996 5.44796 14.5519 5.00024 13.9996 5.00024H5.99957Z" fill="#FF8800"/>
<path d="M23.9996 15.0002C25.6564 15.0002 26.9996 16.3434 26.9996 18.0002V24.0002C26.9994 25.657 25.6563 27.0002 23.9996 27.0002H18.9996V15.0002H23.9996Z" fill="#FF8800"/>
<path d="M21.9996 4.00024C23.1041 4.00027 23.9996 4.89569 23.9996 6.00024V9.00024H25.6285C25.8333 9.00047 25.9993 9.16649 25.9996 9.37134C25.9995 9.45432 25.9716 9.53551 25.9205 9.60083L23.4039 12.804C23.3063 12.9277 23.1572 13.0002 22.9996 13.0002C22.842 13.0001 22.6927 12.9278 22.5953 12.804L20.0787 9.60083C20.0275 9.53552 19.9996 9.45429 19.9996 9.37134C19.9998 9.16663 20.166 9.0007 20.3707 9.00024H21.9996V6.00024H19.9996C19.4476 6 18.9997 5.55226 18.9996 5.00024C18.9996 4.44811 19.4475 4.00049 19.9996 4.00024H21.9996Z" fill="#FF8800"/>
</svg>
