<svg width="154" height="154" viewBox="0 0 154 154" fill="none" xmlns="http://www.w3.org/2000/svg">
<path fill-rule="evenodd" clip-rule="evenodd" d="M100.722 133.002C122.628 123.764 138 102.118 138 76.8889C138 43.2609 110.689 16 77 16C43.3106 16 16 43.2609 16 76.8889C16 102.118 31.3724 123.764 53.2778 133.002C64.2917 137.778 68.5278 140.315 71.9167 147.08C72.2467 147.739 72.5285 148.366 72.7902 148.948C73.8725 151.355 74.6122 153 77 153C79.3878 153 80.1275 151.355 81.2098 148.948C81.4715 148.366 81.7533 147.739 82.0833 147.08C85.4722 140.315 89.3982 137.778 100.722 133.002ZM77 111C95.7777 111 111 95.7777 111 77C111 58.2223 95.7777 43 77 43C58.2223 43 43 58.2223 43 77C43 95.7777 58.2223 111 77 111Z" fill="#FFA71A"/>
</svg>
