<svg width="30" height="30" viewBox="0 0 30 30" fill="none" xmlns="http://www.w3.org/2000/svg">
<path fill-rule="evenodd" clip-rule="evenodd" d="M15 20C17.7614 20 20 17.7614 20 15C20 12.2386 17.7614 10 15 10C12.2386 10 10 12.2386 10 15C10 17.7614 12.2386 20 15 20ZM15 18C16.6569 18 18 16.6569 18 15C18 13.3431 16.6569 12 15 12C13.3431 12 12 13.3431 12 15C12 16.6569 13.3431 18 15 18Z" fill="#FF8800"/>
<path d="M20 11C20.5523 11 21 10.5523 21 10C21 9.44772 20.5523 9 20 9C19.4477 9 19 9.44772 19 10C19 10.5523 19.4477 11 20 11Z" fill="#FF8800"/>
<path fill-rule="evenodd" clip-rule="evenodd" d="M5.63273 8.31813C5 9.58442 5 11.2363 5 14.54V15.46C5 18.7637 5 20.4156 5.63273 21.6819C6.21349 22.8442 7.15585 23.7865 8.31813 24.3673C9.58442 25 11.2363 25 14.54 25H15.46C18.7637 25 20.4156 25 21.6819 24.3673C22.8442 23.7865 23.7865 22.8442 24.3673 21.6819C25 20.4156 25 18.7637 25 15.46V14.54C25 11.2363 25 9.58442 24.3673 8.31813C23.7865 7.15585 22.8442 6.21349 21.6819 5.63273C20.4156 5 18.7637 5 15.46 5H14.54C11.2363 5 9.58442 5 8.31813 5.63273C7.15585 6.21349 6.21349 7.15585 5.63273 8.31813ZM15.46 7H14.54C12.8557 7 11.7108 7.0015 10.8252 7.07266C9.96248 7.142 9.52048 7.26772 9.21209 7.42182C8.43723 7.80899 7.80899 8.43723 7.42182 9.21209C7.26772 9.52048 7.142 9.96248 7.07266 10.8252C7.0015 11.7108 7 12.8557 7 14.54V15.46C7 17.1443 7.0015 18.2892 7.07266 19.1748C7.142 20.0375 7.26772 20.4795 7.42182 20.7879C7.80899 21.5628 8.43723 22.191 9.21209 22.5782C9.52048 22.7323 9.96248 22.858 10.8252 22.9273C11.7108 22.9985 12.8557 23 14.54 23H15.46C17.1443 23 18.2892 22.9985 19.1748 22.9273C20.0375 22.858 20.4795 22.7323 20.7879 22.5782C21.5628 22.191 22.191 21.5628 22.5782 20.7879C22.7323 20.4795 22.858 20.0375 22.9273 19.1748C22.9985 18.2892 23 17.1443 23 15.46V14.54C23 12.8557 22.9985 11.7108 22.9273 10.8252C22.858 9.96248 22.7323 9.52048 22.5782 9.21209C22.191 8.43723 21.5628 7.80899 20.7879 7.42182C20.4795 7.26772 20.0375 7.142 19.1748 7.07266C18.2892 7.0015 17.1443 7 15.46 7Z" fill="#FF8800"/>
</svg>
