<svg width="28" height="28" viewBox="0 0 28 28" fill="none" xmlns="http://www.w3.org/2000/svg">
<path fill-rule="evenodd" clip-rule="evenodd" d="M13.1464 20.3536C13.3728 20.1272 13.6799 20 14 20C14.3201 20 14.6272 20.1272 14.8536 20.3536L18.3964 23.8964C18.6114 24.1114 19 23.9577 19 23.6464V5C19 4.44772 18.5523 4 18 4H10C9.44772 4 9 4.44772 9 5V23.6464C9 23.9577 9.38865 24.1114 9.60355 23.8964L13.1464 20.3536ZM10 2H18C19.6569 2 21 3.34315 21 5V23.6464C21 24.9463 19.9463 26 18.6464 26C18.0223 26 17.4236 25.752 16.9822 25.3107L14 22.3284L11.0178 25.3107C10.5764 25.752 9.97775 26 9.35355 26C8.05372 26 7 24.9463 7 23.6464V5C7 3.34315 8.34315 2 10 2Z" fill="#FF8800"/>
</svg>
