<svg width="30" height="30" viewBox="0 0 30 30" fill="none" xmlns="http://www.w3.org/2000/svg">
<path fill-rule="evenodd" clip-rule="evenodd" d="M8 5C6.34315 5 5 6.34315 5 8V22C5 23.6569 6.34315 25 8 25H22C23.6569 25 25 23.6569 25 22V8C25 6.34315 23.6569 5 22 5H8ZM19.9189 11.3986L17.3249 8.15617C17.246 8.05746 17.1264 8 17 8C16.8736 8 16.754 8.05746 16.6751 8.15617L14.0811 11.3986C14.0286 11.4642 14 11.5458 14 11.6298C14 11.8343 14.1657 12 14.3702 12H16V14.9997C15.1643 14.372 14.1256 14 13 14H12V12.3702C12 12.1657 11.8343 12 11.6298 12C11.5458 12 11.4642 12.0286 11.3986 12.0811L8.15617 14.6751C8.05746 14.754 8 14.8736 8 15C8 15.1264 8.05746 15.246 8.15617 15.3249L11.3986 17.9189C11.4642 17.9714 11.5458 18 11.6298 18C11.8343 18 12 17.8343 12 17.6298V16H13C14.6569 16 16 17.3432 16 19V21C16 21.5523 16.4477 22 17 22C17.5523 22 18 21.5523 18 21L18 12H19.6298C19.8343 12 20 11.8343 20 11.6298C20 11.5458 19.9714 11.4642 19.9189 11.3986Z" fill="#FF8800"/>
<path opacity="0.5" d="M17.3249 8.15617L19.9189 11.3986C19.9714 11.4642 20 11.5458 20 11.6298C20 11.8343 19.8343 12 19.6298 12L18 12V19C18 17.3642 17.2144 15.9119 16 14.9997V12H14.3702C14.1657 12 14 11.8343 14 11.6298C14 11.5458 14.0286 11.4642 14.0811 11.3986L16.6751 8.15617C16.754 8.05746 16.8736 8 17 8C17.1264 8 17.246 8.05746 17.3249 8.15617Z" fill="#FF8800"/>
</svg>
