<svg width="30" height="30" viewBox="0 0 30 30" fill="none" xmlns="http://www.w3.org/2000/svg">
<path d="M14.6407 3.77351C15.0312 3.38299 15.0312 2.74982 14.6407 2.3593C14.2502 1.96878 13.617 1.96878 13.2265 2.3593L10.2265 5.3593C9.83595 5.74982 9.83595 6.38299 10.2265 6.77351L13.2265 9.77351C13.617 10.164 14.2502 10.164 14.6407 9.77351C15.0312 9.38299 15.0312 8.74982 14.6407 8.3593L13.2845 7.0031C13.2872 7.00208 13.2899 7.00105 13.2927 7H15C19.4183 7 23 10.5817 23 15C23 19.4183 19.4183 23 15 23C10.9197 23 7.55285 19.9453 7.06164 15.998C6.99343 15.45 6.55227 15 5.99999 15C5.4477 15 4.99473 15.449 5.04922 15.9986C5.5503 21.0526 9.81416 25 15 25C20.5228 25 25 20.5228 25 15C25 9.47715 20.5228 5 15 5H13.4142L14.6407 3.77351Z" fill="#FF8800"/>
</svg>
