<svg width="30" height="30" viewBox="0 0 30 30" fill="none" xmlns="http://www.w3.org/2000/svg">
<path d="M14.293 3.29283C14.6835 2.90243 15.3165 2.90235 15.707 3.29283C16.0974 3.68332 16.0974 4.3164 15.707 4.70689L13.4141 6.99986H15C19.9706 6.99986 24 11.0293 24 15.9999C24 20.9704 19.9706 24.9999 15 24.9999C10.0294 24.9999 6 20.9704 6 15.9999C6 15.4476 6.44772 14.9999 7 14.9999C7.55228 14.9999 8 15.4476 8 15.9999C8 19.8659 11.134 22.9999 15 22.9999C18.866 22.9999 22 19.8659 22 15.9999C22 12.1339 18.866 8.99986 15 8.99986H13.4141L15.707 11.2928C16.0975 11.6833 16.0975 12.3164 15.707 12.7069C15.3165 13.0973 14.6835 13.0973 14.293 12.7069L10.293 8.70689C10.1054 8.51936 10 8.26507 10 7.99986C10 7.73465 10.1054 7.48036 10.293 7.29283L14.293 3.29283Z" fill="#FF8800"/>
</svg>
