<svg width="30" height="30" viewBox="0 0 30 30" fill="none" xmlns="http://www.w3.org/2000/svg">
<path fill-rule="evenodd" clip-rule="evenodd" d="M15 5C8.37258 5 3 10.3726 3 17V20C3 21.1046 3.89543 22 5 22H9.80469C10.8422 23.7929 12.7795 25 15 25C17.2205 25 19.1578 23.7929 20.1953 22H25C26.1046 22 27 21.1046 27 20V17C27 10.3726 21.6274 5 15 5ZM20.3604 12.2314C20.7846 11.8786 21.4152 11.9364 21.7686 12.3604C22.1214 12.7845 22.0633 13.4151 21.6396 13.7686L17.8105 16.958C17.9309 17.2826 17.9999 17.6335 18 18C17.9996 19.6564 16.6564 20.9998 15 21C13.3435 20.9998 12.0004 19.6564 12 18C12.0003 16.3435 13.3435 15.0002 15 15C15.5593 15.0001 16.0821 15.1553 16.5303 15.4219L20.3604 12.2314ZM7 16C7.55192 16.0002 7.99968 16.4481 8 17C7.99974 17.5519 7.55195 17.9998 7 18H6C5.44822 17.9998 5.00053 17.5527 5 17.001C5.00005 16.4489 5.44793 16.0002 6 16H7ZM15 7.00098C15.5519 7.00118 15.9997 7.44811 16 8V9C15.9997 9.55194 15.552 10.0008 15 10.001C14.4482 10.0008 14.0005 9.5527 14 9.00098V8.00098C14.0001 7.44885 14.4479 7.00116 15 7.00098Z" fill="#FF8800"/>
</svg>
