<svg width="30" height="30" viewBox="0 0 30 30" fill="none" xmlns="http://www.w3.org/2000/svg">
<path d="M16.7639 22C16.7136 21.944 16.6659 21.8865 16.6206 21.8277C15.7363 22.894 14.49 23.6492 13.0701 23.9049C13.5684 23.2079 13.8922 22.3776 13.9775 21.4778C15.1855 20.7895 16 19.4898 16 18V12C16 10.8954 16.8954 10 18 10C19.1046 10 20 10.8954 20 12V19.5858L19.7071 19.2929C19.3166 18.9024 18.6834 18.9024 18.2929 19.2929C17.9024 19.6834 17.9024 20.3166 18.2929 20.7071L20.2929 22.7071C20.4879 22.9021 20.7434 22.9998 20.999 23H19C18.4477 23 18 23.4477 18 24C18 24.5523 18.4477 25 19 25H23C23.5523 25 24 24.5523 24 24C24 23.4477 23.5523 23 23 23H21.001C21.2566 22.9998 21.5121 22.9021 21.7071 22.7071L23.7071 20.7071C24.0976 20.3166 24.0976 19.6834 23.7071 19.2929C23.3166 18.9024 22.6834 18.9024 22.2929 19.2929L22 19.5858V12C22 9.79086 20.2091 8 18 8C15.7909 8 14 9.79086 14 12V16C14 14.3431 12.6569 13 11 13H10V10.4142L10.2929 10.7071C10.6834 11.0976 11.3166 11.0976 11.7071 10.7071C12.0976 10.3166 12.0976 9.68342 11.7071 9.29289L9.70711 7.29289C9.51199 7.09777 9.25629 7.00014 9.00055 7H11C11.5523 7 12 6.55229 12 6C12 5.44772 11.5523 5 11 5H7C6.44772 5 6 5.44772 6 6C6 6.55228 6.44772 7 7 7H8.99945C8.74371 7.00014 8.48801 7.09777 8.29289 7.29289L6.29289 9.29289C5.90237 9.68342 5.90237 10.3166 6.29289 10.7071C6.68342 11.0976 7.31658 11.0976 7.70711 10.7071L8 10.4142V13H7C6.64936 13 6.31278 13.0602 6 13.1707V12.8292C5.59055 12.6848 5.20617 12.4488 4.87868 12.1213C3.74672 10.9894 3.70845 9.17787 4.76386 7.99996C4.28884 7.46921 4 6.76834 4 6C4 4.34315 5.34315 3 7 3H11C12.6569 3 14 4.34315 14 6C14 6.76834 13.7112 7.46921 13.2361 7.99996C13.2864 8.05601 13.3341 8.11349 13.3794 8.17226C14.4799 6.84521 16.1413 6 18 6C21.3137 6 24 8.68629 24 12V17.1708C24.4095 17.3152 24.7938 17.5512 25.1213 17.8787C26.2533 19.0106 26.2916 20.8221 25.2361 22C25.7112 22.5308 26 23.2317 26 24C26 25.6569 24.6569 27 23 27H19C17.3431 27 16 25.6569 16 24C16 23.2317 16.2888 22.5308 16.7639 22Z" fill="#FF8800"/>
<g opacity="0.2">
<path d="M12 6C12 5.44772 11.5523 5 11 5H7C6.44772 5 6 5.44772 6 6C6 6.55228 6.44772 7 7 7L11 7C11.5523 7 12 6.55229 12 6Z" fill="#FF8800"/>
<path d="M24 24C24 23.4477 23.5523 23 23 23H19C18.4477 23 18 23.4477 18 24C18 24.5523 18.4477 25 19 25H23C23.5523 25 24 24.5523 24 24Z" fill="#FF8800"/>
</g>
<path fill-rule="evenodd" clip-rule="evenodd" d="M11 15H7C6.44772 15 6 15.4477 6 16V21C6 22.6569 7.34315 24 9 24C10.6569 24 12 22.6569 12 21V16C12 15.4477 11.5523 15 11 15ZM7 13C5.34315 13 4 14.3431 4 16V21C4 23.7614 6.23858 26 9 26C11.7614 26 14 23.7614 14 21V16C14 14.3431 12.6569 13 11 13H7Z" fill="#FF8800"/>
<path opacity="0.2" d="M6 16C6 15.4477 6.44772 15 7 15H11C11.5523 15 12 15.4477 12 16V21C12 22.6569 10.6569 24 9 24C7.34315 24 6 22.6569 6 21V16Z" fill="#FF8800"/>
<path d="M8 18C8 17.4477 8.44772 17 9 17C9.55228 17 10 17.4477 10 18C10 18.5523 9.55228 19 9 19C8.44772 19 8 18.5523 8 18Z" fill="#FF8800"/>
<path opacity="0.5" d="M9 20.5C9 20.2239 9.22386 20 9.5 20C9.77614 20 10 20.2239 10 20.5V21.5C10 21.7761 9.77614 22 9.5 22C9.22386 22 9 21.7761 9 21.5V20.5Z" fill="#FF8800"/>
</svg>
