<svg width="30" height="30" viewBox="0 0 30 30" fill="none" xmlns="http://www.w3.org/2000/svg">
<path opacity="0.7" d="M14 6.50006C13.4477 6.50006 13 6.94541 13 7.49769V16.0001C13 21.0001 15 25.0001 15 25.0001C15 25.0001 17 21.0001 17 16.0001V7.49769C17 6.9454 16.5523 6.50006 16 6.50006C15.0781 6.50004 14.5 6.50001 14 6.50006Z" fill="#FF8800"/>
<path opacity="0.8" d="M14 15H16C16 15.5523 15.5523 16 15 16C14.4477 16 14 15.5523 14 15Z" fill="#FF8800"/>
<path d="M12.0296 6.74255L14 6.24996V6.5H16V6.25007L17.9704 6.74266C18.4934 6.87341 19 6.47785 19 5.93875C19 5.44032 18.5632 5.05467 18.0686 5.1165L15.8001 5.40005C15.6177 5.15713 15.3272 5 15 5C14.6729 5 14.3824 5.15709 14.2 5.39995L11.9314 5.11638C11.4369 5.05456 11 5.4402 11 5.93864C11 6.47773 11.5066 6.8733 12.0296 6.74255Z" fill="#FF8800"/>
<path d="M5 10C5 9.44772 5.44772 9 6 9H24C24.5523 9 25 9.44772 25 10V12C25 13.6569 23.6569 15 22 15H8C6.34315 15 5 13.6569 5 12V10Z" fill="#FF8800"/>
<path d="M12 23H14.2019C14.6263 24.2526 15 25 15 25H12C11.4477 25 11 24.5523 11 24C11 23.4477 11.4477 23 12 23Z" fill="#FF8800"/>
<path d="M15 25C15 25 15.3737 24.2526 15.7981 23H18C18.5523 23 19 23.4477 19 24C19 24.5523 18.5523 25 18 25H15Z" fill="#FF8800"/>
<path d="M15 21C14.7239 21 14.5 21.2233 14.5 21.4994V22C14.5 22.5 15 23.5 15 23.5C15 23.5 15.5 22.5 15.5 22V21.4994C15.5 21.2233 15.2761 21 15 21Z" fill="#FF8800"/>
</svg>
