<svg width="30" height="30" viewBox="0 0 30 30" fill="none" xmlns="http://www.w3.org/2000/svg">
<path d="M7 9C7 7.89543 7.89543 7 9 7H21C22.1046 7 23 7.89543 23 9V24C23 25.1046 22.1046 26 21 26H9C7.89543 26 7 25.1046 7 24V9Z" fill="#5714CC"/>
<path d="M7 9C7 7.89543 7.89543 7 9 7H21C22.1046 7 23 7.89543 23 9V12C23 13.6569 21.6569 15 20 15H10C8.34315 15 7 13.6569 7 12V9Z" fill="#8F58EF"/>
<path d="M12 17C11.4477 17 11 17.4477 11 18V21C11 21.5523 11.4477 22 12 22H18C18.5523 22 19 21.5523 19 21V18C19 17.4477 18.5523 17 18 17H12Z" fill="#FFC30D"/>
<path opacity="0.5" d="M15 3C12.7909 3 11 4.79086 11 7H13C13 5.89543 13.8954 5 15 5C16.1046 5 17 5.89543 17 7H19C19 4.79086 17.2091 3 15 3Z" fill="#5714CC"/>
</svg>
