<svg width="30" height="30" viewBox="0 0 30 30" fill="none" xmlns="http://www.w3.org/2000/svg">
<path fill-rule="evenodd" clip-rule="evenodd" d="M15 3C21.6274 3 27 8.37258 27 15C27 21.6274 21.6274 27 15 27C8.37258 27 3 21.6274 3 15C3 8.37258 8.37258 3 15 3ZM20.3311 7.0166C19.4412 8.39159 17.7789 9.09346 16.3584 9.80371C16.7151 10.4379 17.1451 11.2817 16.583 11.9375C15.6338 13.0518 14.4953 11.3653 13.4951 11.3652C12.8554 11.3652 12.8847 11.9576 13.1689 12.3418C13.4947 12.7816 13.9253 13.1507 14.3936 13.4316C15.123 13.8316 15.752 13.3784 16.3926 13.0381C16.9769 12.7095 17.5545 12.8633 18.1221 13.1729C19.0397 13.6644 20.693 14.8069 20.6934 16.0254C20.6934 18.4318 18.2853 21.0563 16.46 22.5166C15.65 23.1618 13.877 23.1161 13.877 21.7529C13.8773 21.0842 14.6854 19.9794 14.1123 19.4062C13.5673 18.7887 12.7227 18.3315 12.0684 17.8447C11.5072 17.4255 11.2266 16.9386 11.2266 16.3848C11.2269 15.8296 11.7881 15.5021 11.7881 14.9697C11.7875 12.7882 7.34738 12.1405 7.23828 9.35254C6.08317 10.9374 5.40039 12.8886 5.40039 15C5.40039 20.3019 9.69807 24.5996 15 24.5996C20.3019 24.5996 24.5996 20.3019 24.5996 15C24.5996 11.6709 22.9046 8.7385 20.3311 7.0166Z" fill="#FF8800"/>
</svg>
