<svg width="30" height="30" viewBox="0 0 30 30" fill="none" xmlns="http://www.w3.org/2000/svg">
<path fill-rule="evenodd" clip-rule="evenodd" d="M11 21.0002L19 23.0002V9.00024L11 7.00024V21.0002ZM5.68377 6.77232L10.7237 5.09233C10.9042 5.03219 11.098 5.02475 11.2825 5.07087L18.7175 6.92962C18.902 6.97575 19.0958 6.9683 19.2763 6.90816L23.6838 5.43899C24.3313 5.22315 25 5.70511 25 6.38767V22.2795C25 22.7099 24.7246 23.0921 24.3162 23.2282L19.2763 24.9082C19.0958 24.9683 18.902 24.9757 18.7175 24.9296L11.2825 23.0709C11.098 23.0247 10.9042 23.0322 10.7237 23.0923L6.31623 24.5615C5.6687 24.7773 5 24.2954 5 23.6128V7.72101C5 7.29058 5.27543 6.90844 5.68377 6.77232Z" fill="#5714CC"/>
<path opacity="0.6" fill-rule="evenodd" clip-rule="evenodd" d="M11 21.0002L19 23.0002V9.00024L11 7.00024V21.0002Z" fill="#5714CC"/>
<path d="M27 20C27 23.866 23.866 27 20 27C16.134 27 13 23.866 13 20C13 16.134 16.134 13 20 13C23.866 13 27 16.134 27 20Z" fill="#FFC30D"/>
<path d="M20 22C21.1046 22 22 21.1046 22 20C22 18.8954 21.1046 18 20 18C18.8954 18 18 18.8954 18 20H20L17 23L14 20H16C16 17.7909 17.7909 16 20 16C22.2091 16 24 17.7909 24 20C24 22.2091 22.2091 24 20 24V22Z" fill="#5714CC"/>
</svg>
