<svg width="30" height="30" viewBox="0 0 30 30" fill="none" xmlns="http://www.w3.org/2000/svg">
<path d="M25.9754 15.7421C25.9917 15.4968 26 15.2494 26 15C26 8.92487 21.0751 4 15 4C8.92487 4 4 8.92487 4 15C4 21.0751 8.92487 26 15 26C15.9131 26 16.8002 25.8887 17.6485 25.6791C18.0547 25.8843 18.5138 26 19 26C20.4785 26 21.7071 24.9305 21.9546 23.523C22.8361 22.8029 23.6038 21.9487 24.2266 20.9916C25.7776 20.8758 27 19.5806 27 18C27 17.0997 26.6034 16.292 25.9754 15.7421Z" fill="#2D5347"/>
<path d="M24 15C24 19.9706 19.9706 24 15 24C10.0294 24 6 19.9706 6 15C6 10.0294 10.0294 6 15 6C19.9706 6 24 10.0294 24 15Z" fill="url(#paint0_linear_1903_10966)"/>
<path fill-rule="evenodd" clip-rule="evenodd" d="M15 24C19.9706 24 24 19.9706 24 15C24 10.0294 19.9706 6 15 6C10.0294 6 6 10.0294 6 15C6 19.9706 10.0294 24 15 24ZM17.3571 21.5932C18.739 21.0992 19.9202 20.183 20.7453 19H18.4834C18.1833 20.0547 17.7813 20.9091 17.3571 21.5932ZM12.69 21.6099C12.262 20.923 11.8559 20.0632 11.5533 19H9.25467C10.0892 20.1964 11.2878 21.1199 12.69 21.6099ZM13.6829 19C14.0508 20.0835 14.5338 20.9908 15.0184 21.7222C15.5029 20.9909 15.986 20.0835 16.3539 19H13.6829ZM16.8457 17H13.191C13.0927 16.3752 13.0369 15.7085 13.0369 15C13.0369 14.2915 13.0927 13.6248 13.191 13H16.8457C16.9441 13.6248 16.9999 14.2915 16.9999 15C16.9999 15.7085 16.9441 16.3751 16.8457 17ZM18.8822 17H21.7101C21.8987 16.3663 22 15.695 22 15C22 14.305 21.8987 13.6337 21.7101 13H18.8822C18.9578 13.6162 18.9999 14.2817 18.9999 15C18.9999 15.7182 18.9578 16.3838 18.8822 17ZM18.4834 11H20.7453C19.9201 9.81702 18.739 8.90085 17.3571 8.40677C17.7813 9.09088 18.1833 9.94532 18.4834 11ZM16.3539 11C15.986 9.91651 15.5029 9.00914 15.0184 8.27784C14.5339 9.00913 14.0508 9.91651 13.6829 11H16.3539ZM11.5533 11C11.8559 9.93673 12.2621 9.07698 12.69 8.3901C11.2879 8.88007 10.0892 9.80358 9.25471 11H11.5533ZM11.1546 13C11.079 13.6162 11.0369 14.2818 11.0369 15C11.0369 15.7182 11.079 16.3838 11.1546 17H8.28987C8.10127 16.3663 8 15.695 8 15C8 14.305 8.10128 13.6337 8.28989 13H11.1546Z" fill="#FFC107"/>
<path fill-rule="evenodd" clip-rule="evenodd" d="M24.2008 15.0066C25.764 15.1099 27 16.4106 27 18C27 19.5894 25.764 20.8901 24.2008 20.9934C23.6726 21.9097 22.9097 22.6726 21.9934 23.2008C21.8901 24.764 20.5894 26 19 26C17.4106 26 16.1099 24.764 16.0066 23.2008C15.0903 22.6726 14.3274 21.9097 13.7992 20.9934C12.236 20.8901 11 19.5894 11 18C11 16.4106 12.236 15.1099 13.7992 15.0066C14.3274 14.0903 15.0903 13.3274 16.0066 12.7992C16.1099 11.236 17.4106 10 19 10C20.5894 10 21.8901 11.236 21.9934 12.7992C22.9097 13.3274 23.6726 14.0903 24.2008 15.0066Z" fill="url(#paint1_linear_1903_10966)"/>
<path fill-rule="evenodd" clip-rule="evenodd" d="M19 12C19.5523 12 20 12.4477 20 13V14.126C21.4056 14.4878 22.5122 15.5944 22.874 17H24C24.5523 17 25 17.4477 25 18C25 18.5523 24.5523 19 24 19H22.874C22.5122 20.4056 21.4056 21.5122 20 21.874V23C20 23.5523 19.5523 24 19 24C18.4477 24 18 23.5523 18 23V21.874C16.5944 21.5122 15.4878 20.4056 15.126 19H14C13.4477 19 13 18.5523 13 18C13 17.4477 13.4477 17 14 17H15.126C15.4878 15.5944 16.5944 14.4878 18 14.126V13C18 12.4477 18.4477 12 19 12ZM17 18C17 19.1046 17.8954 20 19 20C20.1046 20 21 19.1046 21 18C21 16.8954 20.1046 16 19 16C17.8954 16 17 16.8954 17 18Z" fill="#E6E8E6"/>
<path d="M21 18C21 19.1046 20.1046 20 19 20C17.8954 20 17 19.1046 17 18C17 16.8954 17.8954 16 19 16C20.1046 16 21 16.8954 21 18Z" fill="#2D5347"/>
<defs>
<linearGradient id="paint0_linear_1903_10966" x1="15" y1="6" x2="15" y2="24" gradientUnits="userSpaceOnUse">
<stop stop-color="#22775C"/>
<stop offset="1" stop-color="#2D9D79"/>
</linearGradient>
<linearGradient id="paint1_linear_1903_10966" x1="13" y1="12" x2="27" y2="27" gradientUnits="userSpaceOnUse">
<stop stop-color="#2D5347"/>
<stop offset="1" stop-color="#2D5347" stop-opacity="0.6"/>
</linearGradient>
</defs>
</svg>
