<svg width="30" height="30" viewBox="0 0 30 30" fill="none" xmlns="http://www.w3.org/2000/svg">
<path d="M14 5C14 4.44772 14.4477 4 15 4C15.5523 4 16 4.44772 16 5V6C16 6.55228 15.5523 7 15 7C14.4477 7 14 6.55228 14 6V5Z" fill="#FF8800"/>
<path d="M21.364 7.22183C21.7545 6.8313 22.3876 6.8313 22.7782 7.22183C23.1687 7.61235 23.1687 8.24551 22.7782 8.63604L22.0711 9.34315C21.6805 9.73367 21.0474 9.73367 20.6569 9.34315C20.2663 8.95262 20.2663 8.31946 20.6569 7.92893L21.364 7.22183Z" fill="#FF8800"/>
<path d="M15 23C14.4477 23 14 23.4477 14 24V25C14 25.5523 14.4477 26 15 26C15.5523 26 16 25.5523 16 25V24C16 23.4477 15.5523 23 15 23Z" fill="#FF8800"/>
<path d="M7.92893 20.6569C8.31946 20.2663 8.95262 20.2663 9.34315 20.6569C9.73367 21.0474 9.73367 21.6805 9.34315 22.0711L8.63604 22.7782C8.24551 23.1687 7.61235 23.1687 7.22183 22.7782C6.8313 22.3876 6.8313 21.7545 7.22183 21.364L7.92893 20.6569Z" fill="#FF8800"/>
<path d="M26 15C26 14.4477 25.5523 14 25 14H24C23.4477 14 23 14.4477 23 15C23 15.5523 23.4477 16 24 16H25C25.5523 16 26 15.5523 26 15Z" fill="#FF8800"/>
<path d="M21.364 22.7782L20.6569 22.0711C20.2663 21.6805 20.2663 21.0474 20.6569 20.6569C21.0474 20.2663 21.6805 20.2663 22.0711 20.6569L22.7782 21.364C23.1687 21.7545 23.1687 22.3876 22.7782 22.7782C22.3876 23.1687 21.7545 23.1687 21.364 22.7782Z" fill="#FF8800"/>
<path d="M7 15C7 14.4477 6.55228 14 6 14H5C4.44772 14 4 14.4477 4 15C4 15.5523 4.44772 16 5 16H6C6.55228 16 7 15.5523 7 15Z" fill="#FF8800"/>
<path d="M9.34315 7.92893C9.73367 8.31946 9.73367 8.95262 9.34315 9.34315C8.95262 9.73367 8.31946 9.73367 7.92893 9.34315L7.22183 8.63604C6.8313 8.24551 6.8313 7.61235 7.22183 7.22183C7.61235 6.8313 8.24551 6.8313 8.63604 7.22183L9.34315 7.92893Z" fill="#FF8800"/>
<path fill-rule="evenodd" clip-rule="evenodd" d="M21 15C21 18.3137 18.3137 21 15 21C11.6863 21 9 18.3137 9 15C9 11.6863 11.6863 9 15 9C18.3137 9 21 11.6863 21 15ZM19 15C19 17.2091 17.2091 19 15 19C12.7909 19 11 17.2091 11 15C11 12.7909 12.7909 11 15 11C17.2091 11 19 12.7909 19 15Z" fill="#FF8800"/>
</svg>
