<svg width="30" height="30" viewBox="0 0 30 30" fill="none" xmlns="http://www.w3.org/2000/svg">
<path fill-rule="evenodd" clip-rule="evenodd" d="M15 24C19.9706 24 24 19.9706 24 15C24 10.0294 19.9706 6 15 6C10.0294 6 6 10.0294 6 15C6 19.9706 10.0294 24 15 24ZM15 26C21.0751 26 26 21.0751 26 15C26 8.92487 21.0751 4 15 4C8.92487 4 4 8.92487 4 15C4 21.0751 8.92487 26 15 26Z" fill="#FF8800"/>
<path opacity="0.2" d="M24 15C24 19.9706 19.9706 24 15 24C10.0294 24 6 19.9706 6 15C6 10.0294 10.0294 6 15 6C19.9706 6 24 10.0294 24 15Z" fill="#FF8800"/>
<path opacity="0.6" fill-rule="evenodd" clip-rule="evenodd" d="M15 10C12.2386 10 10 12.2386 10 15V16C10 16.5523 9.55228 17 9 17C8.44772 17 8 16.5523 8 16V15C8 11.134 11.134 8 15 8C18.866 8 22 11.134 22 15V16C22 16.5523 21.5523 17 21 17C20.4477 17 20 16.5523 20 16V15C20 12.2386 17.7614 10 15 10Z" fill="#FF8800"/>
<path d="M16 9C16 8.44772 15.5523 8 15 8C14.4477 8 14 8.44772 14 9V13.2675C13.4022 13.6133 13 14.2597 13 15C13 16.1045 13.8954 17 15 17C16.1046 17 17 16.1045 17 15C17 14.2597 16.5978 13.6133 16 13.2675V9Z" fill="#FF8800"/>
<path opacity="0.4" d="M12 20C12 19.4477 12.4477 19 13 19H17C17.5523 19 18 19.4477 18 20C18 20.5523 17.5523 21 17 21H13C12.4477 21 12 20.5523 12 20Z" fill="#FF8800"/>
</svg>
