<svg width="30" height="30" viewBox="0 0 30 30" fill="none" xmlns="http://www.w3.org/2000/svg">
<path d="M15 6C8.92487 6 4 10.9249 4 17V20C4 21.1046 4.89543 22 6 22H9.80269C10.8401 23.7934 12.7792 25 15 25C16.155 25 17.2338 24.6737 18.1491 24.1081C17.5791 23.7119 17.0955 23.2 16.7323 22.6065C16.2081 22.8587 15.6206 23 15 23C13.1362 23 11.5701 21.7252 11.126 20H6V18H7C7.55228 18 8 17.5523 8 17C8 16.4477 7.55228 16 7 16H6.05493C6.24682 14.2641 6.93238 12.6771 7.9681 11.3823L8.29289 11.7071C8.68342 12.0976 9.31658 12.0976 9.70711 11.7071C10.0976 11.3166 10.0976 10.6834 9.70711 10.2929L9.38231 9.9681C10.6771 8.93238 12.2641 8.24682 14 8.05493V9C14 9.55228 14.4477 10 15 10C15.5523 10 16 9.55228 16 9V8.05493C17.7359 8.24682 19.3229 8.93238 20.6177 9.9681L20.2929 10.2929C19.9024 10.6834 19.9024 11.3166 20.2929 11.7071C20.6834 12.0976 21.3166 12.0976 21.7071 11.7071L22.0319 11.3823C22.1912 11.5815 22.3422 11.7875 22.4845 12H23C23.9021 12 24.7112 12.3982 25.2611 13.0283C23.6683 8.91603 19.6747 6 15 6Z" fill="#FF8800"/>
<path d="M16 17.2676C15.7058 17.0974 15.3643 17 15 17C14.8208 17 14.6472 17.0235 14.4819 17.0677L11.7071 14.2929C11.3166 13.9024 10.6834 13.9024 10.2929 14.2929C9.90237 14.6834 9.90237 15.3166 10.2929 15.7071L13.0677 18.4819C13.0235 18.6472 13 18.8208 13 19C13 20.1045 13.8954 21 15 21C15.3847 21 15.7441 20.8913 16.049 20.7031C16.0167 20.4734 16 20.2386 16 20V17.2676Z" fill="#FF8800"/>
<path opacity="0.2" d="M6 20H11.126C11.5701 21.7252 13.1362 23 15 23C15.6206 23 16.2081 22.8587 16.7323 22.6065C16.2678 21.8475 16 20.955 16 20V15C16 13.3431 17.3431 12 19 12H22.4845C20.8699 9.58803 18.1204 8 15 8C10.0294 8 6 12.0294 6 17V20Z" fill="#FF8800"/>
<path fill-rule="evenodd" clip-rule="evenodd" d="M23 14H19C18.4477 14 18 14.4477 18 15V20C18 21.6569 19.3431 23 21 23C22.6569 23 24 21.6569 24 20V15C24 14.4477 23.5523 14 23 14ZM19 12C17.3431 12 16 13.3431 16 15V20C16 22.7614 18.2386 25 21 25C23.7614 25 26 22.7614 26 20V15C26 13.3431 24.6569 12 23 12H19Z" fill="#FF8800"/>
<path opacity="0.2" d="M18 15C18 14.4477 18.4477 14 19 14H23C23.5523 14 24 14.4477 24 15V20C24 21.6569 22.6569 23 21 23C19.3431 23 18 21.6569 18 20V15Z" fill="#FF8800"/>
<path d="M20 17C20 16.4477 20.4477 16 21 16C21.5523 16 22 16.4477 22 17C22 17.5523 21.5523 18 21 18C20.4477 18 20 17.5523 20 17Z" fill="#FF8800"/>
<path opacity="0.5" d="M21 19.5C21 19.2239 21.2239 19 21.5 19C21.7761 19 22 19.2239 22 19.5V20.5C22 20.7761 21.7761 21 21.5 21C21.2239 21 21 20.7761 21 20.5V19.5Z" fill="#FF8800"/>
</svg>
