<svg width="30" height="30" viewBox="0 0 30 30" fill="none" xmlns="http://www.w3.org/2000/svg">
<path fill-rule="evenodd" clip-rule="evenodd" d="M5 15C4.44772 15 4 14.5523 4 14C4 13.4477 4.44772 13 5 13H6L6.75469 7.71716C6.89545 6.73186 7.73929 6 8.73459 6H21.2654C22.2607 6 23.1046 6.73186 23.2453 7.71716L24 13H25C25.5523 13 26 13.4477 26 14C26 14.5523 25.5523 15 25 15V22.5C25 23.3284 24.3284 24 23.5 24C22.6716 24 22 23.3284 22 22.5V22H8V22.5C8 23.3284 7.32843 24 6.5 24C5.67157 24 5 23.3284 5 22.5V15ZM7 16.5C7 15.6716 7.67157 15 8.5 15C9.32843 15 10 15.6716 10 16.5C10 17.3284 9.32843 18 8.5 18C7.67157 18 7 17.3284 7 16.5ZM20 16.5C20 15.6716 20.6716 15 21.5 15C22.3284 15 23 15.6716 23 16.5C23 17.3284 22.3284 18 21.5 18C20.6716 18 20 17.3284 20 16.5ZM21.2654 8L21.9797 13H8.0203L8.73459 8L21.2654 8Z" fill="#FF8800"/>
<path opacity="0.5" d="M16 13.5C16 12.1193 17.1193 11 18.5 11C19.8807 11 21 12.1193 21 13.5C21 14.8807 19.8807 16 18.5 16C17.1193 16 16 14.8807 16 13.5Z" fill="#FF8800"/>
</svg>
