<svg width="30" height="30" viewBox="0 0 30 30" fill="none" xmlns="http://www.w3.org/2000/svg">
<path d="M15.1025 6.15097C15.5317 4.55113 17.1763 3.60127 18.7764 4.02987L22.7764 5.10214C23.5936 5.32112 24.2809 5.87523 24.668 6.62753C24.8885 7.05635 25 7.52742 25 7.9996V22.9996C25 24.1042 24.1046 24.9996 23 24.9996H7C5.89543 24.9996 5 24.1042 5 22.9996L4.99902 14.9996C5.00009 13.9 5.60786 12.8412 6.6582 12.316L15.2158 8.03769C14.9841 7.45757 14.9284 6.80077 15.1025 6.15097Z" fill="#404040"/>
<path d="M17.9287 13.5352C18.2648 14.0995 18.7835 14.5599 19.4463 14.8086C20.7814 15.3093 22.2462 14.7957 23 13.6543V23H7V19L17.9287 13.5352Z" fill="url(#paint0_linear_2173_22680)"/>
<path d="M7.10548 15.4473C7.35247 15.9413 7.95329 16.1415 8.44727 15.8946L20.169 10.0342L19.5635 11.6485C19.3696 12.1655 19.6315 12.7425 20.1484 12.9366C20.6655 13.1304 21.2425 12.8685 21.4365 12.3516L22.9365 8.35159C23.0355 8.08766 23.0185 7.79371 22.8897 7.543C22.7606 7.29218 22.5312 7.10721 22.2588 7.03421L18.2588 5.96194C17.7255 5.81912 17.1773 6.13581 17.0342 6.66897C16.8912 7.20244 17.2078 7.75162 17.7412 7.89456L19.1953 8.28421L7.55274 14.1055C7.05876 14.3525 6.85849 14.9533 7.10548 15.4473Z" fill="#FFC107"/>
<defs>
<linearGradient id="paint0_linear_2173_22680" x1="15.5" y1="14" x2="15.5" y2="23" gradientUnits="userSpaceOnUse">
<stop stop-color="#2E9E7A"/>
<stop offset="1" stop-color="#2E9E7A"/>
</linearGradient>
</defs>
</svg>
