<svg width="30" height="30" viewBox="0 0 30 30" fill="none" xmlns="http://www.w3.org/2000/svg">
<path fill-rule="evenodd" clip-rule="evenodd" d="M16 26L15 27L14 26V20H9C8.44772 20 8 19.5523 8 19C8 16.2076 9.63509 13.7973 12 12.6738V9.82812C11.9999 9.2978 11.7891 8.78906 11.4141 8.41406L10.1719 7.17188C9.42173 6.42173 9 5.40364 9 4.34277V4C9 3.48232 9.39333 3.05621 9.89746 3.00488L10 3H20C20.5523 3 21 3.44772 21 4V4.34277C21 5.40364 20.5783 6.42173 19.8281 7.17188L18.5859 8.41406L18.4531 8.56055C18.1614 8.91641 18.0001 9.36397 18 9.82812V12.6738C20.3649 13.7973 22 16.2076 22 19C22 19.5523 21.5523 20 21 20H16V26ZM15 14C12.5811 14 10.5639 15.7178 10.1006 18H19.8994C19.4361 15.7178 17.4189 14 15 14ZM11.1133 5C11.2115 5.28212 11.3707 5.54256 11.5859 5.75781L12.8281 7L12.9648 7.14355C13.6293 7.87728 13.9999 8.83355 14 9.82812V12H16V9.82812C16.0001 8.76737 16.4218 7.75008 17.1719 7L18.4141 5.75781C18.6293 5.54256 18.7885 5.28212 18.8867 5H11.1133Z" fill="#FF8800"/>
</svg>
