<svg width="30" height="30" viewBox="0 0 30 30" fill="none" xmlns="http://www.w3.org/2000/svg">
<ellipse opacity="0.2" cx="15" cy="27" rx="9" ry="1" fill="#434959"/>
<path d="M15.0556 13.0003C15.0631 13.0007 15.0705 13.0017 15.078 13.0022C15.1356 13.0068 15.1923 13.0173 15.248 13.0315C15.2544 13.0332 15.261 13.0346 15.2675 13.0364C15.3585 13.0617 15.4455 13.0998 15.5263 13.1497C15.5325 13.1536 15.5387 13.1575 15.5448 13.1614C15.595 13.194 15.6423 13.2311 15.6864 13.2727C15.6903 13.2764 15.6944 13.2798 15.6981 13.2835C15.7144 13.2994 15.7298 13.3162 15.745 13.3333C15.7552 13.3447 15.7647 13.3566 15.7743 13.3685C15.7815 13.3772 15.7889 13.3857 15.7958 13.3948C15.8088 13.412 15.8211 13.4296 15.8329 13.4476C15.8416 13.4607 15.8502 13.4739 15.8583 13.4876C15.8661 13.5008 15.8735 13.5141 15.8808 13.5276C15.8851 13.5358 15.8902 13.5437 15.8944 13.552L21.8944 25.5518C22.1414 26.0458 21.9411 26.6466 21.4472 26.8936C20.9532 27.1405 20.3523 26.9403 20.1054 26.4463L14.9999 16.2356L9.89444 26.4473C9.64734 26.941 9.0465 27.1415 8.55265 26.8946C8.05881 26.6477 7.85869 26.0467 8.10538 25.5528L14.1093 13.5452C14.1218 13.5205 14.1357 13.4966 14.1503 13.4729C14.1548 13.4657 14.1593 13.4585 14.164 13.4515C14.175 13.4346 14.1861 13.4178 14.1981 13.4017C14.2069 13.3899 14.2163 13.3787 14.2255 13.3675C14.2592 13.3261 14.2962 13.2872 14.3368 13.2513C14.3458 13.2433 14.3549 13.2354 14.3642 13.2278C14.3766 13.2176 14.3892 13.2073 14.4022 13.1976C14.4165 13.1869 14.4314 13.1771 14.4462 13.1673C14.4617 13.157 14.4778 13.1475 14.494 13.138C14.5021 13.1333 14.5103 13.1288 14.5185 13.1243C14.5299 13.118 14.5409 13.1107 14.5526 13.1048C14.5926 13.0848 14.6336 13.0682 14.6747 13.054C14.6812 13.0518 14.6877 13.0493 14.6942 13.0472C14.751 13.0289 14.8084 13.0159 14.8661 13.0081C14.872 13.0073 14.8778 13.0068 14.8837 13.0062C14.9091 13.0032 14.9345 13.0013 14.9599 13.0003C14.966 13 14.9722 13.0004 14.9784 13.0003C15.0042 12.9998 15.0299 12.9988 15.0556 13.0003Z" fill="url(#paint0_linear_2292_2834)"/>
<path d="M4.9906 10.1393C5.46581 9.85804 6.07923 10.0154 6.36056 10.4906L8.46343 14.0001L6.74212 15.0187L4.63925 11.5092C4.35804 11.034 4.51543 10.4206 4.9906 10.1393Z" fill="url(#paint1_linear_2292_2834)"/>
<path d="M23.7593 2.92261L26.2407 7.26348L6.10894 18.7676C5.62948 19.0416 5.01869 18.8751 4.74463 18.3957L3.25578 15.7911C2.98167 15.3116 3.14824 14.7007 3.6278 14.4266L23.7593 2.92261Z" fill="url(#paint2_linear_2292_2834)"/>
<path d="M22.817 2.2188C23.0561 2.08075 23.3619 2.16265 23.5 2.40176L26.5007 7.59749C26.6388 7.83664 26.5569 8.14248 26.3177 8.28056L25.3138 8.86019C25.0747 8.99823 24.769 8.91636 24.6308 8.6773L21.6294 3.48198C21.4912 3.24283 21.5731 2.93695 21.8123 2.79885L22.817 2.2188Z" fill="#FAAF46"/>
<path d="M18 14C18 15.6569 16.6569 17 15 17C13.3431 17 12 15.6569 12 14C12 12.3431 13.3431 11 15 11C16.6569 11 18 12.3431 18 14Z" fill="url(#paint3_linear_2292_2834)"/>
<path d="M16 14C16 14.5523 15.5523 15 15 15C14.4477 15 14 14.5523 14 14C14 13.4477 14.4477 13 15 13C15.5523 13 16 13.4477 16 14Z" fill="url(#paint4_linear_2292_2834)"/>
<defs>
<linearGradient id="paint0_linear_2292_2834" x1="9.69175" y1="13.6389" x2="18.3617" y2="23.9485" gradientUnits="userSpaceOnUse">
<stop stop-color="#002080"/>
<stop offset="0.969423" stop-color="#1852FF"/>
</linearGradient>
<linearGradient id="paint1_linear_2292_2834" x1="5.761" y1="13.6558" x2="7.79863" y2="12.5602" gradientUnits="userSpaceOnUse">
<stop stop-color="#4D79FF"/>
<stop offset="0.485577" stop-color="#1852FF"/>
<stop offset="1" stop-color="#003AE6"/>
</linearGradient>
<linearGradient id="paint2_linear_2292_2834" x1="6.87489" y1="12.5057" x2="9.4286" y2="16.9289" gradientUnits="userSpaceOnUse">
<stop stop-color="#1852FF"/>
<stop offset="0.312917" stop-color="#4D79FF"/>
<stop offset="0.73143" stop-color="#003AE6"/>
<stop offset="0.924671" stop-color="#4D79FF"/>
<stop offset="1" stop-color="#1852FF"/>
</linearGradient>
<linearGradient id="paint3_linear_2292_2834" x1="13.5" y1="11.4019" x2="16.5" y2="16.5" gradientUnits="userSpaceOnUse">
<stop stop-color="#FAAF46"/>
<stop offset="1" stop-color="#F99E20"/>
</linearGradient>
<linearGradient id="paint4_linear_2292_2834" x1="14" y1="13" x2="16" y2="15" gradientUnits="userSpaceOnUse">
<stop stop-color="#002080"/>
<stop offset="1" stop-color="#1852FF"/>
</linearGradient>
</defs>
</svg>
