<svg width="30" height="30" viewBox="0 0 30 30" fill="none" xmlns="http://www.w3.org/2000/svg">
<path fill-rule="evenodd" clip-rule="evenodd" d="M9 13.874C10.7252 13.4299 12 11.8638 12 10C12 7.79086 10.2091 6 8 6C5.79086 6 4 7.79086 4 10C4 11.8638 5.27477 13.4299 7 13.874V19.5C7 21.9853 9.01474 24 11.5 24C11.835 24 12.1613 23.9634 12.4754 23.894C12.2638 23.2704 12.1186 22.6161 12.0485 21.9396C11.872 21.9791 11.6884 22 11.5 22C10.1193 22 9 20.8807 9 19.5V13.874ZM8 12C9.10457 12 10 11.1046 10 10C10 8.89543 9.10457 8 8 8C6.89543 8 6 8.89543 6 10C6 11.1046 6.89543 12 8 12Z" fill="#FF8800"/>
<path d="M21 12C21.6874 12 22.3568 12.0771 23 12.223V10.5C23 8.01472 20.9853 6 18.5 6C16.0147 6 14 8.01472 14 10.5V15.3427C14.5702 14.638 15.2447 14.0211 16 13.5155V10.5C16 9.11929 17.1193 8 18.5 8C19.8807 8 21 9.11929 21 10.5V12Z" fill="#FF8800"/>
<path fill-rule="evenodd" clip-rule="evenodd" d="M28 21C28 24.866 24.866 28 21 28C17.134 28 14 24.866 14 21C14 17.134 17.134 14 21 14C24.866 14 28 17.134 28 21ZM19 18C18.4477 18 18 18.4477 18 19V23C18 23.5523 18.4477 24 19 24C19.5523 24 20 23.5523 20 23V19C20 18.4477 19.5523 18 19 18ZM23 18C22.4477 18 22 18.4477 22 19V23C22 23.5523 22.4477 24 23 24C23.5523 24 24 23.5523 24 23V19C24 18.4477 23.5523 18 23 18Z" fill="#FF8800"/>
</svg>
