<svg width="30" height="30" viewBox="0 0 30 30" fill="none" xmlns="http://www.w3.org/2000/svg">
<path d="M18 9C18 10.1046 17.1046 11 16 11C14.8954 11 14 10.1046 14 9C14 7.89543 14.8954 7 16 7C17.1046 7 18 7.89543 18 9Z" fill="#FF8800"/>
<path d="M23 12C23 13.1046 22.1046 14 21 14C19.8954 14 19 13.1046 19 12C19 10.8954 19.8954 10 21 10C22.1046 10 23 10.8954 23 12Z" fill="#FF8800"/>
<path d="M10 13C11.1046 13 12 12.1046 12 11C12 9.89543 11.1046 9 10 9C8.89543 9 8 9.89543 8 11C8 12.1046 8.89543 13 10 13Z" fill="#FF8800"/>
<path d="M11 17C11 18.1046 10.1046 19 9 19C7.89543 19 7 18.1046 7 17C7 15.8954 7.89543 15 9 15C10.1046 15 11 15.8954 11 17Z" fill="#FF8800"/>
<path fill-rule="evenodd" clip-rule="evenodd" d="M15 3C8.37258 2.99999 3 8.37259 3 15C3 21.6274 8.37258 27 15 27C16.5995 27 17.8804 26.7666 18.8016 26.5118C20.2659 26.1068 21 24.739 21 23.4331C21 23.0388 20.9364 22.647 20.8117 22.2729L20.037 19.9487C20.0125 19.8752 20 19.7982 20 19.7208C20 19.3227 20.3227 19 20.7208 19H21.25C22.9956 19 25.3567 18.5018 26.3712 16.4743C26.8527 15.5119 27 14.4702 27 13.1667C27 10.0524 25.4349 7.4881 23.1764 5.73148C20.9288 3.9833 17.9599 3.00001 15 3ZM5 15C5 9.47715 9.47715 4.99999 15 5C17.5401 5 20.0712 5.85004 21.9486 7.31019C23.8151 8.76191 25 10.7809 25 13.1667C25 14.3292 24.8651 15.0147 24.5826 15.5793C24.1087 16.5264 22.8306 17 21.25 17H20.7208C19.2181 17 18 18.2181 18 19.7208C18 20.0132 18.0471 20.3037 18.1396 20.5811L18.9144 22.9053C18.9711 23.0755 19 23.2537 19 23.4331C19 24.0621 18.669 24.4734 18.2685 24.5842C17.5047 24.7954 16.4033 25 15 25C9.47715 25 5 20.5228 5 15Z" fill="#FF8800"/>
</svg>
