<svg width="30" height="30" viewBox="0 0 30 30" fill="none" xmlns="http://www.w3.org/2000/svg">
<path opacity="0.5" d="M3 15C3 14.4477 3.44772 14 4 14H26C26.5523 14 27 14.4477 27 15C27 15.5523 26.5523 16 26 16H4C3.44772 16 3 15.5523 3 15Z" fill="#FF8800"/>
<path fill-rule="evenodd" clip-rule="evenodd" d="M4 12H26C27.6569 12 29 13.3431 29 15C29 16.6569 27.6569 18 26 18H4C2.34315 18 1 16.6569 1 15C1 13.3431 2.34315 12 4 12ZM4 14C3.44772 14 3 14.4477 3 15C3 15.5523 3.44772 16 4 16H26C26.5523 16 27 15.5523 27 15C27 14.4477 26.5523 14 26 14H4Z" fill="#FF8800"/>
</svg>
