<svg width="30" height="30" viewBox="0 0 30 30" fill="none" xmlns="http://www.w3.org/2000/svg">
<path d="M23.4725 10.749C22.9987 10.2585 22.4697 9.82231 21.8954 9.44922C22.9284 7.4274 23.7244 5.26532 24.2528 3H26.3046C25.7099 5.73816 24.7482 8.33932 23.4725 10.749Z" fill="#FF8800"/>
<path fill-rule="evenodd" clip-rule="evenodd" d="M16.9999 24C13.1339 23.9999 9.99988 20.866 9.99988 17C9.99988 13.134 13.1339 10.0001 16.9999 10C20.8659 10 23.9999 13.134 23.9999 17C23.9999 20.866 20.8659 24 16.9999 24ZM16.9999 22C19.7613 22 21.9999 19.7614 21.9999 17C21.9999 14.2386 19.7613 12 16.9999 12C14.2385 12.0001 11.9999 14.2386 11.9999 17C11.9999 19.7614 14.2385 21.9999 16.9999 22Z" fill="#FF8800"/>
<path d="M2.99988 24.2539C5.26529 23.7255 7.42723 22.9285 9.4491 21.8955C9.82206 22.4696 10.2586 22.998 10.7489 23.4717C8.33913 24.7474 5.73806 25.7098 2.99988 26.3047V24.2539Z" fill="#FF8800"/>
</svg>
