<svg width="30" height="30" viewBox="0 0 30 30" fill="none" xmlns="http://www.w3.org/2000/svg">
<path fill-rule="evenodd" clip-rule="evenodd" d="M19.5858 5H18.95C18.7184 3.85888 17.7095 3 16.5 3H13.5C12.2905 3 11.2816 3.85888 11.05 5H10.4142C9.50871 5 8.64029 5.35971 8 6C7.35971 6.64029 7 7.50871 7 8.41421V21C7 22.1046 7.89543 23 9 23H21C22.1046 23 23 22.1046 23 21V8.41421C23 7.50871 22.6403 6.64029 22 6C21.3597 5.35971 20.4913 5 19.5858 5ZM13 6C13 5.44772 13.4477 5 14 5H16C16.5523 5 17 5.44772 17 6C17 6.55228 16.5523 7 16 7H14C13.4477 7 13 6.55228 13 6ZM14 11H9V17H14V11ZM21 11H16V17H21V11ZM11 20C11 20.5523 10.5523 21 10 21C9.44772 21 9 20.5523 9 20C9 19.4477 9.44772 19 10 19C10.5523 19 11 19.4477 11 20ZM20 21C20.5523 21 21 20.5523 21 20C21 19.4477 20.5523 19 20 19C19.4477 19 19 19.4477 19 20C19 20.5523 19.4477 21 20 21Z" fill="#FF8800"/>
<path opacity="0.5" d="M9.33333 23L8 27H22L20.6667 23H18.6667L19.3333 25H10.6667L11.3333 23H9.33333Z" fill="#FF8800"/>
</svg>
