<svg width="30" height="30" viewBox="0 0 30 30" fill="none" xmlns="http://www.w3.org/2000/svg">
<path d="M20 13V20L17 23H9.73244C9.38663 22.4022 8.74028 22 8 22C6.89543 22 6 22.8954 6 24C6 25.1046 6.89543 26 8 26C8.74028 26 9.38663 25.5978 9.73244 25H18L22 21V11H19V13H20Z" fill="#FF8800"/>
<path d="M21 26C20.4477 26 19.9477 25.7762 19.5858 25.4142L22.4142 22.5858C22.7762 22.9477 23 23.4477 23 24C23 25.1046 22.1046 26 21 26Z" fill="#FF8800"/>
<path d="M15 6C15 7.10457 14.1046 8 13 8C11.8954 8 11 7.10457 11 6C11 4.89543 11.8954 4 13 4C14.1046 4 15 4.89543 15 6Z" fill="#FF8800"/>
<path d="M14.6894 9.92906C14.7257 9.95016 14.7616 9.97254 14.7971 9.99624L16.0509 10.832C16.2151 10.9416 16.4081 11 16.6056 11H18V13H16.6056C16.0366 13 15.4798 12.8382 15 12.5342V16.5858L16.1213 17.7071C16.6839 18.2697 17 19.0328 17 19.8284V23L15 23V19.8284C15 19.5632 14.8946 19.3089 14.7071 19.1213L13.5858 18H13V23H11V11C11 9.89543 11.8954 9 13 9C13.7106 9 14.3347 9.3706 14.6894 9.92906Z" fill="#FF8800"/>
</svg>
