<svg width="30" height="30" viewBox="0 0 30 30" fill="none" xmlns="http://www.w3.org/2000/svg">
<circle cx="15" cy="15" r="14" fill="#2C6E49"/>
<path fill-rule="evenodd" clip-rule="evenodd" d="M27 15C27 21.6274 21.6274 27 15 27C8.37258 27 3 21.6274 3 15C3 8.37258 8.37258 3 15 3C21.6274 3 27 8.37258 27 15ZM11.3988 24.3319C11.3461 24.2727 11.2933 24.2123 11.2406 24.1508C10.4481 23.2262 9.66018 22.0481 9.05975 20.5904C8.53401 20.7072 8.07124 20.832 7.66908 20.9558C7.4666 21.0181 7.27934 21.0801 7.107 21.1408C8.21269 22.56 9.69273 23.6731 11.3988 24.3319ZM6.02214 19.4094C6.32839 19.2912 6.68079 19.1673 7.0809 19.0442C7.48382 18.9202 7.93465 18.7972 8.43494 18.6813C8.16181 17.5801 7.99988 16.3554 7.99988 15C7.99988 13.6446 8.16181 12.4199 8.43494 11.3187C7.93463 11.2029 7.4838 11.0798 7.08088 10.9558C6.68077 10.8327 6.32836 10.7089 6.02212 10.5906C5.36762 11.9207 5 13.4174 5 15C5 16.5826 5.36763 18.0793 6.02214 19.4094ZM7.10696 8.85923C7.27931 8.9199 7.46657 8.98197 7.66905 9.04427C8.07122 9.16801 8.53399 9.29287 9.05974 9.40968C9.66017 7.95196 10.4481 6.77388 11.2406 5.84922C11.2934 5.7877 11.3461 5.72732 11.3988 5.66806C9.69273 6.32687 8.21267 7.44005 7.10696 8.85923ZM22.893 21.1408C21.7872 22.5601 20.3071 23.6733 18.6009 24.3321C18.6536 24.2728 18.7064 24.2124 18.7591 24.1508C19.5517 23.2261 20.3396 22.0481 20.94 20.5903C21.4659 20.7071 21.9287 20.832 22.3309 20.9558C22.5334 21.0181 22.7206 21.0801 22.893 21.1408ZM23.9779 19.4094C24.6324 18.0793 25 16.5826 25 15C25 13.4174 24.6324 11.9207 23.9779 10.5906C23.6716 10.7089 23.3192 10.8327 22.9191 10.9558C22.5161 11.0798 22.0652 11.2029 21.5648 11.3188C21.838 12.42 21.9999 13.6446 21.9999 15C21.9999 16.3554 21.838 17.5801 21.5648 18.6813C22.0652 18.7971 22.5161 18.9202 22.9191 19.0442C23.3192 19.1673 23.6716 19.2912 23.9779 19.4094ZM22.893 8.85921C22.7207 8.91989 22.5334 8.98196 22.3309 9.04427C21.9287 9.16802 21.4658 9.29289 20.94 9.40971C20.3396 7.95198 19.5517 6.77389 18.7591 5.84922C18.7064 5.78765 18.6536 5.72722 18.6009 5.66792C20.3071 6.32671 21.7872 7.43994 22.893 8.85921ZM9.99989 15C9.99989 13.7675 10.152 12.6664 10.4051 11.6866C11.4536 11.8392 12.6494 11.9495 14 11.9865V18.0135C12.6494 18.0505 11.4536 18.1608 10.4051 18.3134C10.152 17.3337 9.99989 16.2325 9.99989 15ZM16 18.0135V11.9865C17.3505 11.9495 18.5463 11.8392 19.5947 11.6867C19.8478 12.6664 19.9999 13.7676 19.9999 15C19.9999 16.2325 19.8478 17.3337 19.5947 18.3134C18.5463 18.1608 17.3505 18.0505 16 18.0135ZM11.0872 20.2384C11.9484 20.1269 12.9177 20.0458 14 20.0143V24.0866C13.6149 23.7589 13.1873 23.3487 12.7591 22.8492C12.1677 22.1592 11.5726 21.2962 11.0872 20.2384ZM16 20.0143V24.0864C16.385 23.7588 16.8126 23.3486 17.2406 22.8492C17.8321 22.1592 18.4272 21.2962 18.9126 20.2384C18.0514 20.1269 17.0822 20.0458 16 20.0143ZM16 5.91367V9.98571C17.0822 9.95428 18.0514 9.87314 18.9126 9.76166C18.4272 8.70381 17.8321 7.84082 17.2406 7.1508C16.8126 6.65144 16.385 6.24125 16 5.91367ZM14 9.98571V5.91347C13.6149 6.24109 13.1873 6.65134 12.7591 7.1508C12.1677 7.84081 11.5726 8.7038 11.0872 9.76164C11.9484 9.87313 12.9177 9.95429 14 9.98571Z" fill="url(#paint0_linear_1750_9353)"/>
<defs>
<linearGradient id="paint0_linear_1750_9353" x1="15" y1="3" x2="15" y2="27" gradientUnits="userSpaceOnUse">
<stop stop-color="#FFB938"/>
<stop offset="1" stop-color="#FFC107"/>
</linearGradient>
</defs>
</svg>
