<svg width="30" height="30" viewBox="0 0 30 30" fill="none" xmlns="http://www.w3.org/2000/svg">
<path d="M5 24C5 24.5523 5.44772 25 6 25H10V27H6C4.34315 27 3 25.6569 3 24V20H5V24Z" fill="#FF8800"/>
<path d="M27 24C27 25.6569 25.6569 27 24 27H20V25H24C24.5523 25 25 24.5523 25 24V20H27V24Z" fill="#FF8800"/>
<path d="M15.5713 16.7139C16.2023 16.7139 16.7136 17.2255 16.7139 17.8564C16.7139 18.4876 16.2025 19 15.5713 19C14.9401 19 14.4287 18.4876 14.4287 17.8564C14.429 17.2255 14.9403 16.7139 15.5713 16.7139Z" fill="#FF8800"/>
<path d="M18.1426 13.29C18.9316 13.29 19.5713 13.9298 19.5713 14.7188C19.5712 15.5077 18.9315 16.1475 18.1426 16.1475C17.3538 16.1473 16.7139 15.5076 16.7139 14.7188C16.7139 13.9299 17.3537 13.2902 18.1426 13.29Z" fill="#FF8800"/>
<path d="M14.4287 10.4287C15.3753 10.4288 16.1424 11.196 16.1426 12.1426C16.1426 13.0893 15.3754 13.8574 14.4287 13.8574C13.4819 13.8574 12.7139 13.0894 12.7139 12.1426C12.7141 11.196 13.4821 10.4287 14.4287 10.4287Z" fill="#FF8800"/>
<path fill-rule="evenodd" clip-rule="evenodd" d="M15 7C19.4183 7 23 10.5817 23 15C23 19.4183 19.4183 23 15 23C10.5817 23 7 19.4183 7 15C7 10.5817 10.5817 7 15 7ZM15 9C11.6863 9 9 11.6863 9 15C9 18.3137 11.6863 21 15 21C18.3137 21 21 18.3137 21 15C21 11.6863 18.3137 9 15 9Z" fill="#FF8800"/>
<path d="M10 5H6C5.44772 5 5 5.44772 5 6V10H3V6C3 4.34315 4.34315 3 6 3H10V5Z" fill="#FF8800"/>
<path d="M24 3C25.6569 3 27 4.34315 27 6V10H25V6C25 5.44772 24.5523 5 24 5H20V3H24Z" fill="#FF8800"/>
</svg>
