<svg width="30" height="30" viewBox="0 0 30 30" fill="none" xmlns="http://www.w3.org/2000/svg">
<path d="M4 20C4.55228 20 5 20.4477 5 21V24C5 24.5523 5.44772 25 6 25H9C9.55228 25 10 25.4477 10 26C10 26.5523 9.55228 27 9 27H6C4.34315 27 3 25.6569 3 24V21C3 20.4477 3.44772 20 4 20Z" fill="#FF8800"/>
<path d="M26 20C26.5523 20 27 20.4477 27 21V24C27 25.6569 25.6569 27 24 27H21C20.4477 27 20 26.5523 20 26C20 25.4477 20.4477 25 21 25H24C24.5523 25 25 24.5523 25 24V21C25 20.4477 25.4477 20 26 20Z" fill="#FF8800"/>
<path d="M15.5713 16.7139C16.2023 16.7139 16.7136 17.2255 16.7139 17.8564C16.7139 18.4876 16.2025 19 15.5713 19C14.9401 19 14.4287 18.4876 14.4287 17.8564C14.429 17.2255 14.9403 16.7139 15.5713 16.7139Z" fill="#FF8800"/>
<path d="M18.1426 13.29C18.9316 13.29 19.5713 13.9298 19.5713 14.7188C19.5712 15.5077 18.9315 16.1475 18.1426 16.1475C17.3538 16.1473 16.7139 15.5076 16.7139 14.7188C16.7139 13.9299 17.3537 13.2902 18.1426 13.29Z" fill="#FF8800"/>
<path d="M14.4287 10.4287C15.3753 10.4288 16.1424 11.196 16.1426 12.1426C16.1426 13.0893 15.3754 13.8574 14.4287 13.8574C13.4819 13.8574 12.7139 13.0894 12.7139 12.1426C12.7141 11.196 13.4821 10.4287 14.4287 10.4287Z" fill="#FF8800"/>
<path fill-rule="evenodd" clip-rule="evenodd" d="M15 7C19.4183 7 23 10.5817 23 15C23 19.4183 19.4183 23 15 23C10.5817 23 7 19.4183 7 15C7 10.5817 10.5817 7 15 7ZM15 9C11.6863 9 9 11.6863 9 15C9 18.3137 11.6863 21 15 21C18.3137 21 21 18.3137 21 15C21 11.6863 18.3137 9 15 9Z" fill="#FF8800"/>
<path d="M9 3C9.55228 3 10 3.44772 10 4C10 4.55228 9.55228 5 9 5H6C5.44772 5 5 5.44772 5 6V9C5 9.55228 4.55228 10 4 10C3.44772 10 3 9.55228 3 9V6C3 4.34315 4.34315 3 6 3H9Z" fill="#FF8800"/>
<path d="M24 3C25.6569 3 27 4.34315 27 6V9C27 9.55228 26.5523 10 26 10C25.4477 10 25 9.55228 25 9V6C25 5.44772 24.5523 5 24 5H21C20.4477 5 20 4.55228 20 4C20 3.44772 20.4477 3 21 3H24Z" fill="#FF8800"/>
</svg>
