<svg width="30" height="30" viewBox="0 0 30 30" fill="none" xmlns="http://www.w3.org/2000/svg">
<path d="M15 10C15.5523 10 16 9.55228 16 9C16 8.44772 15.5523 8 15 8C14.4477 8 14 8.44772 14 9C14 9.55228 14.4477 10 15 10Z" fill="#FF8800"/>
<path d="M20 15C20 15.5523 20.4477 16 21 16C21.5523 16 22 15.5523 22 15C22 14.4477 21.5523 14 21 14C20.4477 14 20 14.4477 20 15Z" fill="#FF8800"/>
<path d="M11 12C11.5523 12 12 11.5523 12 11C12 10.4477 11.5523 10 11 10C10.4477 10 10 10.4477 10 11C10 11.5523 10.4477 12 11 12Z" fill="#FF8800"/>
<path d="M19 12C19.5523 12 20 11.5523 20 11C20 10.4477 19.5523 10 19 10C18.4477 10 18 10.4477 18 11C18 11.5523 18.4477 12 19 12Z" fill="#FF8800"/>
<path fill-rule="evenodd" clip-rule="evenodd" d="M17.8025 5.39893C17.6604 5.35749 17.5173 5.31916 17.3735 5.284L17.3095 5.14801C16.9795 4.44724 16.2746 4 15.5 4H14.5C13.7254 4 13.0205 4.44724 12.6905 5.14801L12.6265 5.28398C12.4827 5.31915 12.3396 5.3575 12.1975 5.39895L12.074 5.3132C11.4379 4.8713 10.6038 4.83644 9.93297 5.22372L9.06695 5.72372C8.39616 6.111 8.0093 6.85078 8.07392 7.62264L8.08646 7.7724C7.9795 7.87476 7.87474 7.97953 7.77236 8.0865L7.62257 8.07396C6.8507 8.00933 6.11092 8.39619 5.72364 9.06699L5.22364 9.93301C4.83636 10.6038 4.87121 11.4379 5.31311 12.074L5.3989 12.1975C5.35743 12.3397 5.31909 12.4828 5.28392 12.6266L5.14801 12.6905C4.44724 13.0205 4 13.7254 4 14.5V15.5C4 15.5844 4.00531 15.6679 4.01567 15.7502C3.98512 15.9928 3.99894 16.2419 4.05973 16.4851L6.05973 24.4851C6.28232 25.3754 7.08228 26 8.00002 26C13.3333 26 18.6666 25.9999 23.9999 25.9999C25.6568 25.9999 26.9999 24.6568 26.9999 22.9999C26.9999 21.6053 26.0483 20.433 24.759 20.0968L24.7762 20.067C25.1635 19.3962 25.1286 18.5621 24.6867 17.926L24.601 17.8026C24.6425 17.6605 24.6808 17.5173 24.716 17.3735L24.852 17.3094C25.5528 16.9795 26 16.2746 26 15.5V14.5C26 13.7254 25.5528 13.0205 24.852 12.6905L24.716 12.6265C24.6808 12.4827 24.6425 12.3396 24.601 12.1975L24.6868 12.074C25.1287 11.4379 25.1635 10.6038 24.7762 9.93301L24.2762 9.06699C23.889 8.3962 23.1492 8.00933 22.3773 8.07396L22.2275 8.08651C22.1251 7.97953 22.0204 7.87477 21.9134 7.7724L21.926 7.62265C21.9906 6.85079 21.6037 6.111 20.9329 5.72372L20.0669 5.22372C19.3961 4.83644 18.562 4.8713 17.9259 5.3132L17.8025 5.39893ZM18.1042 7.62455L19.0669 6.95577L19.9329 7.45577L19.8351 8.62392C20.4118 9.06083 20.9388 9.58774 21.376 10.1648L22.5442 10.067L23.0442 10.933L22.3754 11.8957C22.6563 12.5623 22.8493 13.2821 22.9394 14.0006L24 14.5V15.5L22.9393 15.9994C22.8492 16.7183 22.6562 17.438 22.3754 18.1043L23.0441 19.067L22.7749 19.5333L17.8 12.8999C16.6402 11.3535 14.4464 11.0401 12.9 12.1999C12.2755 12.6683 11.8521 13.3052 11.6456 14H7.06057C7.15059 13.2828 7.34329 12.5633 7.62454 11.8959L6.95569 10.933L7.45569 10.067L8.6239 10.1648C9.06113 9.58772 9.58809 9.06083 10.1648 8.62392L10.0669 7.45577L10.933 6.95577L11.8958 7.62458C12.5628 7.34349 13.2826 7.15064 14.0006 7.06057L14.5 6H15.5L15.9994 7.06059C16.7177 7.1507 17.4375 7.34361 18.1042 7.62455ZM8 16H6L8 24H10L11 20L12 24H14L16 16H14L13 20L12 16H10L9 20L8 16ZM16.1214 14.0038C15.6087 13.4254 14.7293 13.3281 14.1 13.8001C14.0179 13.8616 13.944 13.93 13.8783 14.0038C13.9186 14.0013 13.9592 14.0001 14.0001 14.0001H16.0001C16.0407 14.0001 16.0812 14.0013 16.1214 14.0038ZM17.952 16.436C17.9483 16.4524 17.9444 16.4688 17.9403 16.4852L17.015 20.1867L18.3749 22H17C16.4477 22 16 22.4477 16 23C16 23.5523 16.4477 24 17 24H24C24.5523 24 25 23.5523 25 23C25 22.4477 24.5523 22 24 22H22.1249L17.952 16.436Z" fill="#FF8800"/>
<path opacity="0.2" fill-rule="evenodd" clip-rule="evenodd" d="M19.0669 6.95577L18.1042 7.62455C17.4375 7.34361 16.7177 7.1507 15.9994 7.06059L15.5 6H14.5L14.0006 7.06057C13.2826 7.15064 12.5628 7.34349 11.8958 7.62458L10.933 6.95577L10.0669 7.45577L10.1648 8.62392C9.58809 9.06083 9.06113 9.58772 8.6239 10.1648L7.45569 10.067L6.95569 10.933L7.62454 11.8959C7.34329 12.5633 7.15059 13.2828 7.06057 14H11.6456C11.8521 13.3052 12.2755 12.6683 12.9 12.1999C14.4464 11.0401 16.6402 11.3535 17.8 12.8999L22.7749 19.5333L23.0441 19.067L22.3754 18.1043C22.6562 17.438 22.8492 16.7183 22.9393 15.9994L24 15.5V14.5L22.9394 14.0006C22.8493 13.2821 22.6563 12.5623 22.3754 11.8957L23.0442 10.933L22.5442 10.067L21.376 10.1648C20.9388 9.58774 20.4118 9.06083 19.8351 8.62392L19.9329 7.45577L19.0669 6.95577ZM16 9C16 9.55228 15.5523 10 15 10C14.4477 10 14 9.55228 14 9C14 8.44772 14.4477 8 15 8C15.5523 8 16 8.44772 16 9ZM21 16C20.4477 16 20 15.5523 20 15C20 14.4477 20.4477 14 21 14C21.5523 14 22 14.4477 22 15C22 15.5523 21.5523 16 21 16ZM12 11C12 11.5523 11.5523 12 11 12C10.4477 12 10 11.5523 10 11C10 10.4477 10.4477 10 11 10C11.5523 10 12 10.4477 12 11ZM20 11C20 11.5523 19.5523 12 19 12C18.4477 12 18 11.5523 18 11C18 10.4477 18.4477 10 19 10C19.5523 10 20 10.4477 20 11Z" fill="#FF8800"/>
<g opacity="0.2">
<path d="M14.1 13.8001C14.7293 13.3281 15.6087 13.4254 16.1214 14.0038C16.0812 14.0013 16.0407 14.0001 16.0001 14.0001H14.0001C13.9592 14.0001 13.9186 14.0013 13.8783 14.0038C13.944 13.93 14.0179 13.8616 14.1 13.8001Z" fill="#FF8800"/>
<path d="M17.9403 16.4852C17.9444 16.4688 17.9483 16.4524 17.952 16.436L22.1249 22H18.3749L17.015 20.1867L17.9403 16.4852Z" fill="#FF8800"/>
</g>
<path opacity="0.5" d="M16 23C16 22.4477 16.4477 22 17 22H24C24.5523 22 25 22.4477 25 23C25 23.5523 24.5523 24 24 24H17C16.4477 24 16 23.5523 16 23Z" fill="#FF8800"/>
</svg>
