<svg width="360" height="180" viewBox="0 0 360 180" fill="none" xmlns="http://www.w3.org/2000/svg">
<rect width="360" height="180" rx="6" fill="#F0F0F0"/>
<path d="M54.6871 0L65.7971 14.14L67.4499 0H76.5111L73.6673 24.3304L99.3204 61.2349C100.043 62.2745 101.054 63.0805 102.228 63.5537L132.495 75.7507L178.817 89.7439C180.204 90.163 181.526 90.7747 182.744 91.561L205.266 106.107L214.555 110.953L254.715 91.1038C255.923 90.5071 257.203 90.0702 258.523 89.8043L328.036 75.8051C329.044 75.6022 330.069 75.5 331.097 75.5H360V84.5H331.097C330.666 84.5 330.236 84.5429 329.813 84.6279L260.3 98.6272C259.746 98.7387 259.209 98.9219 258.703 99.1721L218.038 119.271L198.762 167.462C198.342 168.511 198.203 169.652 198.359 170.771L199.64 180H190.554L189.444 172.009C189.074 169.34 189.405 166.621 190.405 164.12L208.81 118.107L200.734 113.893L177.861 99.1214C177.351 98.7916 176.796 98.5351 176.214 98.3594L129.505 84.2493L98.8641 71.9014C96.0637 70.7728 93.6538 68.851 91.9305 66.3718L65.3802 28.1766L43.2414 0H54.6871Z" fill="#D9D9D9"/>
<path d="M53.4154 0L66.5089 16.6644L68.4567 0H75.5043L72.6301 24.5903L98.4994 61.8056C99.3332 63.0052 100.499 63.9352 101.854 64.4812L132.162 76.695L178.528 90.7011C179.826 91.0932 181.062 91.6655 182.201 92.4011L204.763 106.972L214.543 112.075L255.158 92.0003C256.288 91.442 257.485 91.0334 258.72 90.7846L328.234 76.7854C329.176 76.5956 330.135 76.5 331.097 76.5H360V83.5H331.097C330.599 83.5 330.103 83.5494 329.616 83.6476L260.102 97.6468C259.464 97.7755 258.844 97.9869 258.26 98.2756L217.252 118.544L197.833 167.091C197.349 168.301 197.189 169.617 197.368 170.908L198.631 180H191.564L190.435 171.871C190.088 169.375 190.398 166.831 191.334 164.491L210.075 117.639L201.237 113.028L178.404 98.2813C177.815 97.9009 177.175 97.6049 176.504 97.4021L129.837 83.305L99.2379 70.9739C96.6181 69.9181 94.3637 68.1202 92.7516 65.801L66.1846 27.5818L44.5132 0H53.4154Z" fill="white"/>
<path d="M43.1145 180L28.1621 75.773C28.0542 75.0204 28 74.2612 28 73.5009V60.1295C28 58.363 27.61 56.6183 26.8578 55.02L20.9573 42.4813C20.3754 41.2447 19.9543 39.9387 19.7043 38.5951L16.2699 20.1353C16.0904 19.1701 16 18.1905 16 17.2088V0H20V17.2088C20 17.945 20.0678 18.6798 20.2024 19.4036L23.6368 37.8634C23.8243 38.8711 24.1401 39.8507 24.5766 40.7781L30.4771 53.3168C31.48 55.4479 32 57.7742 32 60.1295V73.5009C32 74.0711 32.0406 74.6406 32.1216 75.205L47.1555 180H43.1145Z" fill="#77C0E1"/>
<path d="M360 148.449V180H287.143L297.373 165.678C299.081 163.287 301.498 161.494 304.282 160.553L333.747 150.592C334.911 150.199 336.121 149.961 337.346 149.883L360 148.449Z" fill="#DCDCDC"/>
<path d="M164.5 101H154V111.5H164.5V101Z" fill="#D9D9D9"/>
<path d="M142.5 95.5L135 93.5L133 100L140 102L142.5 95.5Z" fill="#D9D9D9"/>
<path d="M139.5 75L140 64.5L151 66.5L150.5 76.5L139.5 75Z" fill="#D9D9D9"/>
<path opacity="0.5" fill-rule="evenodd" clip-rule="evenodd" d="M77.4083 19.9398L74.6583 18.9398L75.3418 17.0602L78.0918 18.0602C78.6108 18.249 78.8785 18.8227 78.6898 19.3417C78.5011 19.8608 77.9273 20.1285 77.4083 19.9398ZM82.3102 20.6583C82.499 20.1392 83.0727 19.8715 83.5918 20.0602L89.0918 22.0602C89.6108 22.249 89.8785 22.8227 89.6898 23.3417C89.5011 23.8608 88.9273 24.1285 88.4083 23.9398L82.9083 21.9398C82.3892 21.7511 82.1215 21.1773 82.3102 20.6583ZM93.3102 24.6583C93.499 24.1392 94.0727 23.8715 94.5918 24.0602L100.092 26.0602C100.611 26.249 100.879 26.8227 100.69 27.3417C100.501 27.8608 99.9273 28.1285 99.4083 27.9398L93.9083 25.9398C93.3892 25.7511 93.1215 25.1773 93.3102 24.6583ZM104.31 28.6583C104.499 28.1392 105.073 27.8715 105.592 28.0602L111.092 30.0602C111.611 30.249 111.879 30.8227 111.69 31.3417C111.501 31.8608 110.927 32.1285 110.408 31.9398L104.908 29.9398C104.389 29.7511 104.121 29.1773 104.31 28.6583ZM115.31 32.6583C115.499 32.1392 116.073 31.8715 116.592 32.0602L122.092 34.0602C122.611 34.2489 122.879 34.8227 122.69 35.3417C122.501 35.8608 121.927 36.1285 121.408 35.9398L115.908 33.9398C115.389 33.7511 115.121 33.1773 115.31 32.6583ZM126.31 36.6583C126.499 36.1392 127.073 35.8715 127.592 36.0602L133.092 38.0602C133.611 38.2489 133.879 38.8227 133.69 39.3417C133.501 39.8608 132.927 40.1285 132.408 39.9398L126.908 37.9398C126.389 37.7511 126.121 37.1773 126.31 36.6583ZM137.31 40.6583C137.499 40.1392 138.073 39.8715 138.592 40.0602L144.092 42.0602C144.611 42.2489 144.879 42.8227 144.69 43.3417C144.501 43.8608 143.927 44.1285 143.408 43.9398L137.908 41.9398C137.389 41.7511 137.121 41.1773 137.31 40.6583ZM148.31 44.6583C148.499 44.1392 149.073 43.8715 149.592 44.0602L155.092 46.0602C155.611 46.2489 155.879 46.8227 155.69 47.3417C155.501 47.8608 154.927 48.1285 154.408 47.9398L148.908 45.9398C148.389 45.7511 148.121 45.1773 148.31 44.6583ZM159.31 48.6583C159.499 48.1392 160.073 47.8715 160.592 48.0602L166.092 50.0602C166.611 50.2489 166.879 50.8227 166.69 51.3417C166.501 51.8608 165.927 52.1285 165.408 51.9398L159.908 49.9398C159.389 49.7511 159.121 49.1773 159.31 48.6583ZM170.31 52.6583C170.499 52.1392 171.073 51.8715 171.592 52.0602L177.092 54.0602C177.611 54.2489 177.879 54.8227 177.69 55.3417C177.501 55.8608 176.927 56.1285 176.408 55.9398L170.908 53.9398C170.389 53.751 170.121 53.1773 170.31 52.6583ZM181.31 56.6583C181.499 56.1392 182.073 55.8715 182.592 56.0602L188.092 58.0602C188.611 58.2489 188.879 58.8227 188.69 59.3417C188.501 59.8608 187.927 60.1285 187.408 59.9398L181.908 57.9398C181.389 57.751 181.121 57.1773 181.31 56.6583ZM192.31 60.6583C192.499 60.1392 193.073 59.8715 193.592 60.0602L199.092 62.0602C199.611 62.2489 199.879 62.8227 199.69 63.3417C199.501 63.8608 198.927 64.1285 198.408 63.9398L192.908 61.9398C192.389 61.751 192.121 61.1773 192.31 60.6583ZM203.31 64.6583C203.499 64.1392 204.073 63.8715 204.592 64.0602L210.092 66.0602C210.611 66.2489 210.879 66.8227 210.69 67.3417C210.501 67.8608 209.927 68.1285 209.408 67.9398L203.908 65.9398C203.389 65.7511 203.121 65.1773 203.31 64.6583ZM214.31 68.6583C214.499 68.1392 215.073 67.8715 215.592 68.0602L221.092 70.0602C221.611 70.249 221.879 70.8227 221.69 71.3417C221.501 71.8608 220.927 72.1285 220.408 71.9398L214.908 69.9398C214.389 69.7511 214.121 69.1773 214.31 68.6583ZM225.31 72.6583C225.499 72.1392 226.073 71.8715 226.592 72.0602L232.092 74.0602C232.611 74.249 232.879 74.8227 232.69 75.3418C232.501 75.8608 231.927 76.1285 231.408 75.9398L225.908 73.9398C225.389 73.7511 225.121 73.1773 225.31 72.6583ZM236.31 76.6583C236.499 76.1392 237.073 75.8715 237.592 76.0602L243.092 78.0602C243.611 78.249 243.879 78.8227 243.69 79.3418C243.501 79.8608 242.927 80.1285 242.408 79.9398L236.908 77.9398C236.389 77.7511 236.121 77.1773 236.31 76.6583ZM247.31 80.6583C247.499 80.1392 248.073 79.8715 248.592 80.0602L254.092 82.0602C254.611 82.249 254.879 82.8227 254.69 83.3418C254.501 83.8608 253.927 84.1286 253.408 83.9398L247.908 81.9398C247.389 81.7511 247.122 81.1773 247.31 80.6583ZM258.31 84.6583C258.499 84.1392 259.073 83.8715 259.592 84.0602L262.342 85.0602L261.658 86.9398L258.908 85.9398C258.389 85.7511 258.122 85.1773 258.31 84.6583Z" fill="black"/>
<path fill-rule="evenodd" clip-rule="evenodd" d="M72 11C72 10.4477 72.4477 10 73 10C73.5523 10 74 10.4477 74 11V12.126C75.4056 12.4878 76.5122 13.5944 76.874 15H78C78.5523 15 79 15.4477 79 16C79 16.5523 78.5523 17 78 17H76.874C76.5122 18.4056 75.4056 19.5122 74 19.874V21C74 21.5523 73.5523 22 73 22C72.4477 22 72 21.5523 72 21V19.874C70.5944 19.5122 69.4878 18.4056 69.126 17H68C67.4477 17 67 16.5523 67 16C67 15.4477 67.4477 15 68 15H69.126C69.4878 13.5944 70.5944 12.4878 72 12.126V11ZM71 16C71 17.1046 71.8954 18 73 18C74.1046 18 75 17.1046 75 16C75 14.8954 74.1046 14 73 14C71.8954 14 71 14.8954 71 16Z" fill="black"/>
<path fill-rule="evenodd" clip-rule="evenodd" d="M263 82C263 81.4477 263.448 81 264 81C264.552 81 265 81.4477 265 82V83.126C266.406 83.4878 267.512 84.5944 267.874 86H269C269.552 86 270 86.4477 270 87C270 87.5523 269.552 88 269 88H267.874C267.512 89.4056 266.406 90.5122 265 90.874V92C265 92.5523 264.552 93 264 93C263.448 93 263 92.5523 263 92V90.874C261.594 90.5122 260.488 89.4056 260.126 88H259C258.448 88 258 87.5523 258 87C258 86.4477 258.448 86 259 86H260.126C260.488 84.5944 261.594 83.4878 263 83.126V82ZM262 87C262 88.1046 262.895 89 264 89C265.105 89 266 88.1046 266 87C266 85.8954 265.105 85 264 85C262.895 85 262 85.8954 262 87Z" fill="black"/>
<path d="M156.141 40.1637L155.788 41.1328L150.862 39.3398L151.165 38.5071L154.507 36.7684C154.877 36.5678 155.177 36.3874 155.407 36.2272C155.637 36.067 155.813 35.9121 155.936 35.7625C156.064 35.6108 156.158 35.4525 156.218 35.2876C156.302 35.0555 156.333 34.836 156.309 34.6292C156.29 34.4202 156.216 34.2353 156.088 34.0743C155.961 33.91 155.78 33.785 155.544 33.6992C155.272 33.6 155.021 33.5757 154.793 33.6261C154.565 33.6765 154.366 33.7888 154.196 33.9632C154.027 34.1341 153.895 34.3525 153.798 34.6183L152.581 34.1756C152.737 33.7483 152.977 33.3935 153.3 33.1112C153.625 32.8256 154.011 32.6458 154.457 32.5719C154.904 32.4946 155.389 32.5509 155.91 32.7407C156.401 32.9195 156.789 33.1538 157.072 33.4436C157.355 33.7334 157.531 34.0622 157.599 34.4299C157.67 34.7989 157.631 35.1903 157.48 35.6042C157.397 35.833 157.277 36.0466 157.121 36.2451C156.965 36.4436 156.777 36.6305 156.557 36.8057C156.341 36.9788 156.1 37.1444 155.833 37.3025C155.567 37.4572 155.282 37.6085 154.976 37.7565L152.749 38.9292L156.141 40.1637Z" fill="black"/>
<path d="M163.088 38.9314L162.651 40.1326C162.441 40.708 162.205 41.1784 161.943 41.5439C161.685 41.9073 161.404 42.1766 161.1 42.3518C160.796 42.527 160.475 42.6196 160.136 42.6296C159.8 42.6408 159.451 42.5803 159.087 42.448C158.798 42.3427 158.542 42.2077 158.32 42.043C158.101 41.8796 157.922 41.6827 157.781 41.4523C157.64 41.2219 157.544 40.9565 157.493 40.656C157.447 40.3535 157.449 40.0131 157.499 39.635C157.552 39.2581 157.663 38.8392 157.831 38.3782L158.268 37.177C158.479 36.5983 158.713 36.1312 158.972 35.7758C159.232 35.417 159.514 35.1517 159.816 34.9799C160.12 34.8047 160.439 34.7131 160.774 34.7053C161.111 34.6987 161.462 34.7615 161.825 34.8937C162.118 35.0003 162.374 35.1353 162.593 35.2987C162.816 35.46 162.997 35.6535 163.136 35.8793C163.278 36.1064 163.373 36.3695 163.42 36.6687C163.472 36.9658 163.471 37.3027 163.418 37.6796C163.366 38.0531 163.256 38.4704 163.088 38.9314ZM161.372 39.8615L161.938 38.3069C162.044 38.0142 162.121 37.7507 162.168 37.5164C162.217 37.2787 162.235 37.0702 162.224 36.8909C162.218 36.7095 162.184 36.5522 162.122 36.4192C162.061 36.2827 161.976 36.1699 161.868 36.0809C161.76 35.9885 161.629 35.9141 161.475 35.8577C161.286 35.7892 161.104 35.7649 160.929 35.7851C160.756 35.8019 160.589 35.8709 160.431 35.9924C160.272 36.1138 160.119 36.2942 159.971 36.5337C159.827 36.7711 159.689 37.0731 159.555 37.4399L158.99 38.9944C158.882 39.2905 158.804 39.5574 158.755 39.7951C158.707 40.0328 158.687 40.2446 158.696 40.4306C158.705 40.6133 158.738 40.7739 158.795 40.9125C158.855 41.0489 158.939 41.1634 159.047 41.2558C159.158 41.3494 159.289 41.4238 159.44 41.4789C159.632 41.5487 159.815 41.5736 159.99 41.5534C160.165 41.5333 160.333 41.4608 160.492 41.3361C160.653 41.2079 160.807 41.0218 160.953 40.7777C161.099 40.5337 161.238 40.2282 161.372 39.8615Z" fill="black"/>
<path d="M168.963 41.0697L168.526 42.2709C168.316 42.8463 168.08 43.3167 167.818 43.6822C167.56 44.0456 167.279 44.3148 166.975 44.49C166.671 44.6653 166.35 44.7579 166.011 44.7678C165.675 44.7791 165.326 44.7185 164.962 44.5863C164.673 44.481 164.417 44.346 164.195 44.1813C163.976 44.0179 163.797 43.821 163.656 43.5906C163.515 43.3602 163.419 43.0948 163.368 42.7943C163.322 42.4918 163.324 42.1514 163.374 41.7733C163.427 41.3964 163.538 40.9775 163.706 40.5165L164.143 39.3153C164.353 38.7366 164.588 38.2695 164.847 37.9141C165.107 37.5553 165.389 37.29 165.691 37.1182C165.995 36.943 166.314 36.8514 166.649 36.8436C166.986 36.8369 167.337 36.8998 167.7 37.032C167.993 37.1386 168.249 37.2736 168.467 37.437C168.691 37.5983 168.872 37.7918 169.011 38.0176C169.153 38.2447 169.248 38.5078 169.295 38.807C169.347 39.1041 169.346 39.441 169.293 39.8179C169.241 40.1914 169.131 40.6087 168.963 41.0697ZM167.247 41.9998L167.813 40.4452C167.919 40.1525 167.996 39.889 168.043 39.6546C168.092 39.417 168.11 39.2085 168.099 39.0292C168.093 38.8478 168.059 38.6905 167.997 38.5574C167.936 38.421 167.851 38.3082 167.743 38.2192C167.635 38.1268 167.504 38.0524 167.349 37.996C167.161 37.9275 166.979 37.9032 166.804 37.9234C166.631 37.9402 166.464 38.0092 166.306 38.1306C166.147 38.252 165.994 38.4325 165.846 38.672C165.702 38.9093 165.564 39.2114 165.43 39.5782L164.865 41.1327C164.757 41.4288 164.679 41.6957 164.63 41.9334C164.582 42.1711 164.562 42.3829 164.57 42.5689C164.58 42.7516 164.613 42.9122 164.669 43.0508C164.73 43.1872 164.814 43.3017 164.922 43.3941C165.032 43.4877 165.164 43.5621 165.315 43.6172C165.507 43.687 165.69 43.7119 165.865 43.6917C166.04 43.6716 166.207 43.5991 166.367 43.4744C166.528 43.3462 166.682 43.1601 166.828 42.916C166.974 42.672 167.113 42.3665 167.247 41.9998Z" fill="black"/>
<path d="M173.931 42.8094L172.348 47.16L171.131 46.7173L173.119 41.2563L174.265 41.6733L173.931 42.8094ZM174.045 42.3248C174.313 42.1521 174.605 42.0507 174.921 42.0208C175.242 41.9888 175.58 42.0377 175.937 42.1675C176.186 42.2582 176.399 42.3778 176.578 42.5266C176.761 42.6732 176.9 42.8514 176.995 43.0613C177.093 43.2724 177.139 43.5138 177.131 43.7854C177.127 44.0583 177.063 44.3664 176.938 44.7096L175.613 48.3486L174.397 47.9059L175.683 44.3728C175.779 44.107 175.815 43.8837 175.789 43.7029C175.767 43.5233 175.694 43.3746 175.569 43.2568C175.449 43.1369 175.288 43.0401 175.086 42.9667C174.857 42.8834 174.646 42.8561 174.452 42.8848C174.262 42.9147 174.089 42.987 173.933 43.1017C172.547 44.1207 172.901 43.0491 174.045 42.3248ZM177.274 43.4716C177.538 43.3123 177.826 43.2171 178.138 43.186C178.45 43.1549 178.778 43.2018 179.121 43.3267C179.401 43.4283 179.636 43.5577 179.826 43.7147C180.021 43.8695 180.167 44.0559 180.263 44.2737C180.359 44.4915 180.4 44.7447 180.387 45.0332C180.374 45.3183 180.302 45.6426 180.17 46.006L178.884 49.539L177.662 49.0944L178.95 45.5564C179.051 45.2804 179.088 45.0521 179.062 44.8713C179.04 44.6917 178.967 44.547 178.843 44.4371C178.72 44.3239 178.558 44.2305 178.356 44.157C178.168 44.0885 177.988 44.0632 177.818 44.0812C177.652 44.097 177.498 44.1494 177.355 44.2384C177.213 44.324 177.088 44.4367 176.98 44.5765C176.185 45.6477 176.274 44.0782 177.274 43.4716Z" fill="black"/>
<path opacity="0.5" fill-rule="evenodd" clip-rule="evenodd" d="M338.257 79.9664L335.319 80.7477C334.786 80.8896 334.238 80.572 334.096 80.0383C333.954 79.5046 334.272 78.9568 334.805 78.8149L337.743 78.0336L338.257 79.9664ZM330.154 81.0868C330.296 81.6205 329.978 82.1682 329.444 82.3102L323.569 83.8727C323.036 84.0146 322.488 83.697 322.346 83.1633C322.204 82.6296 322.522 82.0818 323.055 81.9399L328.93 80.3774C329.464 80.2354 330.012 80.553 330.154 81.0868ZM318.404 84.2118C318.546 84.7455 318.228 85.2932 317.694 85.4352L311.819 86.9977C311.286 87.1396 310.738 86.822 310.596 86.2883C310.454 85.7546 310.772 85.2068 311.305 85.0649L317.18 83.5024C317.714 83.3604 318.262 83.678 318.404 84.2118ZM306.654 87.3368C306.796 87.8705 306.478 88.4182 305.944 88.5602L300.069 90.1227C299.536 90.2646 298.988 89.947 298.846 89.4133C298.704 88.8796 299.022 88.3318 299.555 88.1899L305.43 86.6274C305.964 86.4854 306.512 86.803 306.654 87.3368ZM294.904 90.4618C295.046 90.9955 294.728 91.5432 294.194 91.6852L288.319 93.2477C287.786 93.3896 287.238 93.072 287.096 92.5383C286.954 92.0046 287.272 91.4568 287.805 91.3149L293.68 89.7524C294.214 89.6104 294.762 89.928 294.904 90.4618ZM283.154 93.5868C283.296 94.1205 282.978 94.6682 282.444 94.8102L276.569 96.3727C276.036 96.5146 275.488 96.197 275.346 95.6633C275.204 95.1296 275.522 94.5818 276.055 94.4399L281.93 92.8774C282.464 92.7354 283.012 93.053 283.154 93.5868ZM271.404 96.7118C271.546 97.2455 271.228 97.7932 270.694 97.9352L264.819 99.4977C264.286 99.6396 263.738 99.322 263.596 98.7883C263.454 98.2546 263.772 97.7068 264.305 97.5649L270.18 96.0024C270.714 95.8604 271.262 96.178 271.404 96.7118ZM259.654 99.8367C259.796 100.37 259.478 100.918 258.944 101.06L253.069 102.623C252.536 102.765 251.988 102.447 251.846 101.913C251.704 101.38 252.022 100.832 252.555 100.69L258.43 99.1274C258.964 98.9854 259.512 99.303 259.654 99.8367ZM247.904 102.962C248.046 103.495 247.728 104.043 247.194 104.185L241.319 105.748C240.786 105.89 240.238 105.572 240.096 105.038C239.954 104.505 240.272 103.957 240.805 103.815L246.68 102.252C247.214 102.11 247.762 102.428 247.904 102.962ZM236.154 106.087C236.296 106.62 235.978 107.168 235.444 107.31L229.57 108.873C229.036 109.015 228.488 108.697 228.346 108.163C228.204 107.63 228.522 107.082 229.055 106.94L234.93 105.377C235.464 105.235 236.012 105.553 236.154 106.087ZM224.404 109.212C224.546 109.745 224.228 110.293 223.695 110.435L217.82 111.998C217.286 112.14 216.738 111.822 216.596 111.288C216.454 110.755 216.772 110.207 217.305 110.065L223.18 108.502C223.714 108.36 224.262 108.678 224.404 109.212ZM212.654 112.337C212.796 112.87 212.478 113.418 211.945 113.56L206.07 115.123C205.536 115.265 204.988 114.947 204.846 114.413C204.704 113.88 205.022 113.332 205.555 113.19L211.43 111.627C211.964 111.485 212.512 111.803 212.654 112.337ZM200.904 115.462C201.046 115.995 200.728 116.543 200.195 116.685L194.32 118.248C193.786 118.39 193.238 118.072 193.096 117.538C192.954 117.005 193.272 116.457 193.805 116.315L199.68 114.752C200.214 114.61 200.762 114.928 200.904 115.462ZM189.154 118.587C189.296 119.12 188.978 119.668 188.445 119.81L182.57 121.373C182.036 121.515 181.488 121.197 181.346 120.663C181.204 120.13 181.522 119.582 182.056 119.44L187.93 117.877C188.464 117.735 189.012 118.053 189.154 118.587ZM177.404 121.712C177.546 122.245 177.228 122.793 176.695 122.935L170.82 124.498C170.286 124.64 169.738 124.322 169.596 123.788C169.454 123.255 169.772 122.707 170.306 122.565L176.181 121.002C176.714 120.86 177.262 121.178 177.404 121.712ZM165.654 124.837C165.796 125.37 165.478 125.918 164.945 126.06L159.07 127.623C158.536 127.765 157.988 127.447 157.846 126.913C157.704 126.38 158.022 125.832 158.555 125.69L164.43 124.127C164.964 123.985 165.512 124.303 165.654 124.837ZM153.904 127.962C154.046 128.495 153.728 129.043 153.195 129.185L147.32 130.748C146.786 130.89 146.238 130.572 146.096 130.038C145.954 129.505 146.272 128.957 146.805 128.815L152.68 127.252C153.214 127.11 153.762 127.428 153.904 127.962ZM142.154 131.087C142.296 131.62 141.978 132.168 141.445 132.31L135.57 133.873C135.036 134.015 134.488 133.697 134.346 133.163C134.204 132.63 134.522 132.082 135.055 131.94L140.93 130.377C141.464 130.235 142.012 130.553 142.154 131.087ZM130.404 134.212C130.546 134.745 130.228 135.293 129.695 135.435L123.82 136.998C123.286 137.14 122.738 136.822 122.596 136.288C122.454 135.755 122.772 135.207 123.305 135.065L129.18 133.502C129.714 133.36 130.262 133.678 130.404 134.212ZM118.654 137.337C118.796 137.87 118.478 138.418 117.945 138.56L112.07 140.123C111.536 140.265 110.988 139.947 110.846 139.413C110.704 138.88 111.022 138.332 111.555 138.19L117.43 136.627C117.964 136.485 118.512 136.803 118.654 137.337ZM106.904 140.462C107.046 140.995 106.728 141.543 106.195 141.685L100.32 143.248C99.7858 143.39 99.2381 143.072 99.0961 142.538C98.9542 142.005 99.2718 141.457 99.8055 141.315L105.68 139.752C106.214 139.61 106.762 139.928 106.904 140.462ZM95.1539 143.587C95.2959 144.12 94.9783 144.668 94.4445 144.81L88.5695 146.373C88.0358 146.515 87.488 146.197 87.3461 145.663C87.2041 145.13 87.5217 144.582 88.0555 144.44L93.9305 142.877C94.4642 142.735 95.012 143.053 95.1539 143.587ZM83.4039 146.712C83.5459 147.245 83.2283 147.793 82.6945 147.935L76.8195 149.498C76.2858 149.64 75.738 149.322 75.5961 148.788C75.4541 148.255 75.7717 147.707 76.3055 147.565L82.1805 146.002C82.7142 145.86 83.262 146.178 83.4039 146.712ZM71.6539 149.837C71.7959 150.37 71.4783 150.918 70.9445 151.06L65.0695 152.623C64.5358 152.765 63.988 152.447 63.8461 151.913C63.7041 151.38 64.0218 150.832 64.5555 150.69L70.4305 149.127C70.9642 148.985 71.512 149.303 71.6539 149.837ZM59.9039 152.962C60.0459 153.495 59.7283 154.043 59.1945 154.185L56.257 154.966L55.743 153.034L58.6805 152.252C59.2142 152.11 59.762 152.428 59.9039 152.962Z" fill="black"/>
<path fill-rule="evenodd" clip-rule="evenodd" d="M52 149C52 148.448 52.4477 148 53 148C53.5523 148 54 148.448 54 149V150.126C55.4056 150.488 56.5122 151.594 56.874 153H58C58.5523 153 59 153.448 59 154C59 154.552 58.5523 155 58 155H56.874C56.5122 156.406 55.4056 157.512 54 157.874V159C54 159.552 53.5523 160 53 160C52.4477 160 52 159.552 52 159V157.874C50.5944 157.512 49.4878 156.406 49.126 155H48C47.4477 155 47 154.552 47 154C47 153.448 47.4477 153 48 153H49.126C49.4878 151.594 50.5944 150.488 52 150.126V149ZM51 154C51 155.105 51.8954 156 53 156C54.1046 156 55 155.105 55 154C55 152.895 54.1046 152 53 152C51.8954 152 51 152.895 51 154Z" fill="black"/>
<path d="M167.797 113.975L168.547 113.788C168.839 113.715 169.068 113.604 169.234 113.456C169.403 113.307 169.513 113.132 169.563 112.931C169.612 112.731 169.608 112.516 169.551 112.286C169.491 112.047 169.397 111.852 169.268 111.704C169.141 111.551 168.979 111.449 168.782 111.399C168.588 111.347 168.359 111.355 168.095 111.42C167.873 111.476 167.683 111.571 167.525 111.707C167.369 111.838 167.26 111.998 167.196 112.187C167.132 112.373 167.127 112.577 167.183 112.799L165.921 113.114C165.821 112.711 165.838 112.327 165.972 111.961C166.106 111.595 166.333 111.279 166.654 111.01C166.977 110.738 167.368 110.545 167.826 110.43C168.316 110.308 168.764 110.283 169.169 110.356C169.578 110.424 169.924 110.592 170.209 110.86C170.493 111.129 170.695 111.499 170.812 111.972C170.866 112.187 170.87 112.419 170.825 112.666C170.78 112.914 170.681 113.154 170.529 113.388C170.376 113.618 170.166 113.827 169.899 114.015C169.632 114.2 169.303 114.341 168.914 114.438L167.971 114.673L167.797 113.975ZM168.041 114.955L167.87 114.267L168.813 114.031C169.258 113.921 169.649 113.878 169.988 113.905C170.33 113.93 170.623 114.01 170.867 114.145C171.11 114.276 171.306 114.447 171.454 114.657C171.606 114.867 171.714 115.101 171.779 115.362C171.868 115.716 171.882 116.049 171.823 116.359C171.766 116.664 171.646 116.942 171.46 117.191C171.275 117.44 171.039 117.652 170.75 117.827C170.465 118.002 170.14 118.134 169.775 118.225C169.449 118.307 169.125 118.34 168.804 118.324C168.482 118.308 168.181 118.241 167.901 118.123C167.62 118.001 167.376 117.824 167.17 117.591C166.967 117.353 166.822 117.058 166.733 116.703L167.989 116.39C168.046 116.616 168.148 116.803 168.295 116.95C168.445 117.094 168.628 117.19 168.843 117.24C169.062 117.289 169.297 117.282 169.547 117.22C169.811 117.154 170.027 117.05 170.194 116.909C170.362 116.767 170.473 116.592 170.528 116.383C170.587 116.172 170.583 115.937 170.518 115.677C170.445 115.381 170.328 115.156 170.167 115C170.006 114.845 169.809 114.75 169.576 114.716C169.341 114.678 169.08 114.696 168.791 114.767L168.041 114.955Z" fill="black"/>
<path d="M177.317 111.529L177.626 112.77C177.774 113.364 177.842 113.886 177.828 114.335C177.818 114.781 177.735 115.161 177.582 115.476C177.428 115.792 177.213 116.048 176.938 116.246C176.666 116.443 176.342 116.588 175.967 116.682C175.668 116.756 175.38 116.787 175.104 116.775C174.832 116.762 174.572 116.699 174.327 116.587C174.081 116.475 173.853 116.308 173.643 116.088C173.436 115.862 173.247 115.579 173.077 115.238C172.91 114.896 172.768 114.486 172.649 114.01L172.34 112.77C172.191 112.172 172.124 111.654 172.14 111.215C172.155 110.772 172.24 110.394 172.395 110.083C172.549 109.768 172.762 109.513 173.035 109.32C173.311 109.125 173.637 108.981 174.012 108.888C174.315 108.812 174.602 108.781 174.875 108.795C175.15 108.803 175.409 108.863 175.65 108.972C175.895 109.081 176.12 109.246 176.327 109.468C176.536 109.685 176.724 109.965 176.89 110.307C177.056 110.646 177.198 111.053 177.317 111.529ZM176.414 113.26L176.014 111.655C175.939 111.352 175.855 111.091 175.763 110.87C175.671 110.646 175.569 110.463 175.46 110.32C175.353 110.174 175.237 110.062 175.111 109.987C174.984 109.908 174.851 109.861 174.711 109.848C174.571 109.832 174.42 109.843 174.261 109.883C174.066 109.932 173.902 110.013 173.768 110.128C173.633 110.239 173.534 110.389 173.471 110.578C173.407 110.768 173.381 111.003 173.392 111.284C173.406 111.561 173.46 111.889 173.554 112.268L173.955 113.873C174.031 114.179 174.115 114.444 174.208 114.668C174.301 114.892 174.403 115.079 174.514 115.228C174.624 115.374 174.741 115.489 174.865 115.572C174.992 115.652 175.126 115.699 175.267 115.716C175.411 115.732 175.561 115.72 175.717 115.681C175.915 115.632 176.081 115.55 176.215 115.435C176.349 115.321 176.447 115.167 176.51 114.974C176.572 114.778 176.595 114.538 176.579 114.254C176.564 113.97 176.509 113.639 176.414 113.26Z" fill="black"/>
<path d="M182.69 106.835L182.861 107.523L181.548 115.179L180.225 115.509L181.61 108.167L177.681 109.147L177.431 108.146L182.69 106.835Z" fill="black"/>
<path d="M188.475 108.681L189.595 113.173L188.339 113.486L186.933 107.847L188.116 107.552L188.475 108.681ZM188.637 110.196L188.208 110.297C188.111 109.908 188.07 109.536 188.085 109.182C188.1 108.828 188.171 108.506 188.298 108.216C188.424 107.922 188.61 107.675 188.855 107.473C189.102 107.268 189.41 107.119 189.779 107.027C190.036 106.963 190.28 106.943 190.511 106.966C190.744 106.986 190.959 107.056 191.156 107.177C191.355 107.297 191.528 107.471 191.674 107.701C191.823 107.929 191.942 108.22 192.03 108.575L192.967 112.332L191.711 112.646L190.801 108.997C190.733 108.723 190.638 108.518 190.515 108.382C190.396 108.246 190.252 108.164 190.083 108.136C189.916 108.104 189.728 108.114 189.52 108.166C189.284 108.224 189.094 108.32 188.949 108.452C188.809 108.583 188.705 108.74 188.64 108.922C188.575 109.104 188.544 109.304 188.546 109.521C188.549 109.738 188.579 109.963 188.637 110.196ZM192.051 108.99L191.494 109.268C191.409 108.927 191.376 108.594 191.395 108.268C191.416 107.938 191.49 107.636 191.617 107.361C191.746 107.081 191.932 106.841 192.173 106.64C192.415 106.44 192.713 106.296 193.067 106.207C193.356 106.135 193.623 106.111 193.868 106.135C194.117 106.154 194.342 106.227 194.543 106.354C194.744 106.481 194.92 106.668 195.07 106.915C195.219 107.158 195.341 107.467 195.434 107.842L196.344 111.49L195.083 111.805L194.172 108.152C194.101 107.867 194.004 107.656 193.882 107.521C193.763 107.384 193.621 107.305 193.457 107.284C193.292 107.258 193.106 107.272 192.897 107.324C192.703 107.372 192.54 107.451 192.408 107.562C192.28 107.668 192.181 107.797 192.113 107.951C192.043 108.101 192.002 108.264 191.991 108.441C191.983 108.616 192.003 108.799 192.051 108.99Z" fill="black"/>
<circle opacity="0.1" cx="338" cy="79" r="9" fill="black"/>
<circle cx="338" cy="79" r="7" fill="white"/>
<circle cx="338" cy="79" r="5" fill="#5E78FE"/>
</svg>
