<svg width="30" height="30" viewBox="0 0 30 30" fill="none" xmlns="http://www.w3.org/2000/svg">
<path d="M16.293 11.293C16.6835 10.9025 17.3165 10.9024 17.707 11.293L20.707 14.293C21.0975 14.6835 21.0975 15.3165 20.707 15.707L17.707 18.707C17.3165 19.0976 16.6835 19.0976 16.293 18.707C15.9024 18.3165 15.9024 17.6835 16.293 17.293L17.5859 16H10C9.44772 16 9 15.5523 9 15C9.00001 14.4477 9.44772 14 10 14H17.5859L16.293 12.707C15.9024 12.3165 15.9024 11.6835 16.293 11.293Z" fill="#FF8800"/>
<path fill-rule="evenodd" clip-rule="evenodd" d="M20 5C22.7614 5 25 7.23858 25 10V20C25 22.7614 22.7614 25 20 25H10C7.23858 25 5 22.7614 5 20V10C5 7.23858 7.23858 5 10 5H20ZM10 7C8.34315 7 7 8.34315 7 10V20C7 21.6051 8.26055 22.9158 9.8457 22.9961L10 23H20C21.6569 23 23 21.6569 23 20V10C23 8.34315 21.6569 7 20 7H10Z" fill="#FF8800"/>
</svg>
