<svg width="30" height="30" viewBox="0 0 30 30" fill="none" xmlns="http://www.w3.org/2000/svg">
<path opacity="0.5" d="M15 9C21.6274 9 27 11.6863 27 15H25C25 14.5088 24.5498 13.5254 22.5908 12.5459C20.7515 11.6263 18.0705 11 15 11C11.9295 11 9.24851 11.6263 7.40918 12.5459C5.45022 13.5254 5 14.5088 5 15H3C3 11.6863 8.37258 9 15 9Z" fill="#FF8800"/>
<path fill-rule="evenodd" clip-rule="evenodd" d="M15 3C21.6274 3 27 8.37258 27 15C27 21.6274 21.6274 27 15 27C8.37258 27 3 21.6274 3 15C3 8.37258 8.37258 3 15 3ZM19.4043 19.582C18.0407 19.8512 16.555 20 15 20C13.4447 20 11.9586 19.8513 10.5947 19.582C10.8985 20.6861 11.3032 21.6646 11.7773 22.4775C12.8648 24.3417 14.0737 25 15 25L15.1768 24.9922C16.0769 24.9131 17.2031 24.2253 18.2227 22.4775C18.6968 21.6647 19.1006 20.686 19.4043 19.582ZM5.32812 17.5479C6.03659 20.2445 7.84269 22.4958 10.2402 23.7959C9.42072 22.4915 8.78281 20.8551 8.40137 19.0107C7.21153 18.6184 6.17126 18.1207 5.32812 17.5479ZM24.6719 17.5449C23.8284 18.1181 22.7883 18.6171 21.5977 19.0098C21.2162 20.8545 20.5783 22.4912 19.7588 23.7959C22.1575 22.4954 23.9638 20.2431 24.6719 17.5449ZM14.8232 5.00781C13.9231 5.0869 12.7969 5.77473 11.7773 7.52246C10.7186 9.3375 10 11.9769 10 15C10 15.8458 10.0579 16.6614 10.1621 17.4375C11.5874 17.7904 13.2287 18 15 18C16.7709 18 18.4119 17.7903 19.8369 17.4375C19.9411 16.6614 20 15.8459 20 15C20 11.9769 19.2814 9.3375 18.2227 7.52246C17.1352 5.65832 15.9263 5 15 5L14.8232 5.00781ZM10.2393 6.20312C7.32947 7.78119 5.29344 10.7616 5.03125 14.2373C5.15924 14.7701 5.72833 15.6137 7.40918 16.4541C7.62012 16.5596 7.8428 16.6596 8.0752 16.7568C8.02612 16.1834 8 15.5968 8 15C8 11.5247 8.86204 8.39458 10.2393 6.20312ZM19.7598 6.20312C21.1371 8.3946 22 11.5244 22 15C22 15.5968 21.9739 16.1834 21.9248 16.7568C22.1572 16.6596 22.3799 16.5596 22.5908 16.4541C24.2714 15.6138 24.8397 14.7701 24.9678 14.2373C24.7055 10.7614 22.6699 7.78107 19.7598 6.20312Z" fill="#FF8800"/>
</svg>
