<svg width="30" height="30" viewBox="0 0 30 30" fill="none" xmlns="http://www.w3.org/2000/svg">
<path d="M9.5 6C8.67157 6 8 6.67157 8 7.5V17.8095L3.89898 15.6939C3.48395 15.4798 2.97768 15.5627 2.65266 15.8981C2.28008 16.2825 2.25286 16.8845 2.58924 17.3009L8.00003 24H14.5351C14.1948 23.4117 14 22.7286 14 22V17C14 15.9772 14.3839 15.044 15.0155 14.3368L11 13.4444V7.5C11 6.67157 10.3284 6 9.5 6Z" fill="#FF8800"/>
<path fill-rule="evenodd" clip-rule="evenodd" d="M18 15V12.5C18 10.567 19.567 9 21.5 9C23.433 9 25 10.567 25 12.5V15C26.1046 15 27 15.8954 27 17V22C27 23.1046 26.1046 24 25 24H18C16.8954 24 16 23.1046 16 22V17C16 15.8954 16.8954 15 18 15ZM20 12.5C20 11.6716 20.6716 11 21.5 11C22.3284 11 23 11.6716 23 12.5V15H20V12.5ZM23 18.5C23 19.3284 22.3284 20 21.5 20C20.6716 20 20 19.3284 20 18.5C20 17.6716 20.6716 17 21.5 17C22.3284 17 23 17.6716 23 18.5Z" fill="#FF8800"/>
</svg>
