<svg width="30" height="30" viewBox="0 0 30 30" fill="none" xmlns="http://www.w3.org/2000/svg">
<path d="M18.4354 16.632C17.5739 16.632 16.8715 15.9621 16.8715 15.1404C16.8715 14.3188 17.5739 13.6489 18.4354 13.6489C19.2969 13.6489 19.9993 14.3188 19.9993 15.1404C19.9993 15.9621 19.2969 16.632 18.4354 16.632ZM18.7115 19.0798C17.643 20.0962 15.5988 20.1763 14.9985 20.1763C14.3982 20.1763 12.351 20.0962 11.2855 19.0798C11.1264 18.9281 11.1264 18.6847 11.2855 18.533C11.4445 18.3813 11.6997 18.3813 11.8588 18.533C12.5311 19.1743 13.9689 19.4033 14.9985 19.4033C16.0251 19.4033 17.4659 19.1743 18.1382 18.533C18.2973 18.3813 18.5525 18.3813 18.7115 18.533C18.8676 18.6847 18.8676 18.9281 18.7115 19.0798ZM9.99174 15.4916C9.99174 14.6699 10.6941 14 11.5556 14C12.4171 14 13.1195 14.6699 13.1195 15.4916C13.1195 16.3132 12.4171 16.9832 11.5556 16.9832C10.6941 16.9832 9.99174 16.3132 9.99174 15.4916ZM25 13.6489C25 12.4951 24.0215 11.5618 22.8118 11.5618C22.2205 11.5618 21.6862 11.7851 21.293 12.1487C19.7981 11.1181 17.736 10.4539 15.4397 10.3766L16.4363 5.90182L19.6931 6.56315C19.7321 7.35332 20.4105 7.98316 21.2479 7.98316C22.1124 7.98316 22.8118 7.3161 22.8118 6.49158C22.8118 5.66706 22.1124 5 21.2479 5C20.6326 5 20.1073 5.34069 19.8522 5.83311L16.2142 5.09448C16.1121 5.07444 16.0071 5.09161 15.92 5.14601C15.833 5.2004 15.7729 5.28343 15.7519 5.38077L14.6593 10.2907C14.6533 10.3193 14.6593 10.3451 14.6593 10.3737C12.321 10.431 10.2199 11.098 8.70104 12.143C8.30782 11.7822 7.77653 11.5618 7.1882 11.5618C5.97854 11.5618 5 12.498 5 13.6489C5 14.4963 5.53129 15.2263 6.29371 15.5527C6.26069 15.7588 6.24268 15.9707 6.24268 16.1854C6.24268 19.3976 10.1628 22 14.9985 22C19.8342 22 23.7543 19.3976 23.7543 16.1854C23.7543 15.9736 23.7363 15.7646 23.7033 15.5584C24.4627 15.2321 25 14.502 25 13.6489Z" fill="#FF8800"/>
</svg>
