<svg width="30" height="30" viewBox="0 0 30 30" fill="none" xmlns="http://www.w3.org/2000/svg">
<path fill-rule="evenodd" clip-rule="evenodd" d="M24 16C24 14.3431 22.6569 13 21 13V9C21 5.68629 18.3137 3 15 3C11.6863 3 9 5.68629 9 9V13C7.34315 13 6 14.3431 6 16V24C6 25.6569 7.34315 27 9 27H21C22.6569 27 24 25.6569 24 24V16ZM15 5C12.7909 5 11 6.79086 11 9V13H19V9C19 6.79086 17.2091 5 15 5ZM15 22C16.1046 22 17 21.1046 17 20C17 18.8954 16.1046 18 15 18C13.8954 18 13 18.8954 13 20C13 21.1046 13.8954 22 15 22Z" fill="#FF8800"/>
</svg>
