<svg width="30" height="30" viewBox="0 0 30 30" fill="none" xmlns="http://www.w3.org/2000/svg">
<path opacity="0.2" d="M6 4C6 3.44772 6.44772 3 7 3H23C23.5523 3 24 3.44772 24 4V15.9999C24 14.6937 23.1652 13.5825 22 13.1707V12.25C22 11.655 21.807 11.076 21.45 10.6L17.4 5.2C16.8334 4.44458 15.9443 4 15 4C14.0557 4 13.1666 4.44458 12.6 5.2L8.55 10.6C8.19299 11.076 8 11.655 8 12.25V13.1707C6.83481 13.5825 6 14.6937 6 15.9999V4Z" fill="#FF8800"/>
<path d="M19.25 13C19.6642 13 20 12.6642 20 12.25C20 12.0877 19.9474 11.9298 19.85 11.8L15.8 6.4C15.6111 6.14819 15.3148 6 15 6C14.6852 6 14.3889 6.14819 14.2 6.4L10.15 11.8C10.0526 11.9298 10 12.0877 10 12.25C10 12.6642 10.3358 13 10.75 13H13V16C13 16.5523 13.4477 17 14 17H16C16.5523 17 17 16.5523 17 16V13H19.25Z" fill="#FF8800"/>
<path d="M8 25.9999L8 13.1707C6.83481 13.5825 6 14.6937 6 15.9999V25.9999C6 26.5522 6.44772 26.9999 7 26.9999C7.55229 26.9999 8 26.5522 8 25.9999Z" fill="#FF8800"/>
<path d="M14 19.9999C14 19.4477 14.4477 18.9999 15 18.9999C15.5523 18.9999 16 19.4477 16 19.9999V20.9999C16 21.5522 15.5523 21.9999 15 21.9999C14.4477 21.9999 14 21.5522 14 20.9999V19.9999Z" fill="#FF8800"/>
<path d="M22 13.1707C23.1652 13.5825 24 14.6937 24 15.9999L24 25.9999C24 26.5522 23.5523 26.9999 23 26.9999C22.4477 26.9999 22 26.5522 22 25.9999V13.1707Z" fill="#FF8800"/>
<path d="M15 23.9999C15.5523 23.9999 16 24.4477 16 24.9999V25.9999C16 26.5522 15.5523 26.9999 15 26.9999C14.4477 26.9999 14 26.5522 14 25.9999V24.9999C14 24.4477 14.4477 23.9999 15 23.9999Z" fill="#FF8800"/>
</svg>
