<svg width="30" height="30" viewBox="0 0 30 30" fill="none" xmlns="http://www.w3.org/2000/svg">
<path d="M17.0001 5H13.0001C11.3432 5 10.0001 6.34315 10.0001 8V13C10.0001 13.4498 10.0595 13.8856 10.1708 14.3002C9.60851 14.4118 9.07199 14.6855 8.63618 15.1213C8.09287 15.6646 7.80152 16.3645 7.76212 17.0757C7.05096 17.1151 6.35116 17.4065 5.80788 17.9497C4.63631 19.1213 4.63631 21.0208 5.80788 22.1924C10.8847 27.2692 19.1158 27.2692 24.1927 22.1924C25.3642 21.0208 25.3642 19.1213 24.1927 17.9497C23.6493 17.4064 22.9494 17.115 22.2382 17.0757C22.1988 16.3645 21.9074 15.6646 21.3641 15.1213C20.9283 14.6855 20.3917 14.4118 19.8294 14.3002C19.9407 13.8856 20.0001 13.4497 20.0001 13V8C20.0001 6.34315 18.6569 5 17.0001 5Z" fill="#2D2D53"/>
<path fill-rule="evenodd" clip-rule="evenodd" d="M8.63606 19.364C8.24554 18.9734 7.61237 18.9734 7.22185 19.364C6.83132 19.7545 6.83132 20.3876 7.22185 20.7782C11.5176 25.0739 18.4824 25.0739 22.7782 20.7782C23.1687 20.3876 23.1687 19.7545 22.7782 19.364C22.3877 18.9734 21.7545 18.9734 21.364 19.364C17.8493 22.8787 12.1508 22.8787 8.63606 19.364Z" fill="#FFC107"/>
<path fill-rule="evenodd" clip-rule="evenodd" d="M11.4644 16.5355C11.0739 16.145 10.4407 16.145 10.0502 16.5355C9.65969 16.9261 9.65969 17.5592 10.0502 17.9497C12.7839 20.6834 17.216 20.6834 19.9497 17.9497C20.3402 17.5592 20.3402 16.9261 19.9497 16.5355C19.5592 16.145 18.926 16.145 18.5355 16.5355C16.5829 18.4881 13.4171 18.4881 11.4644 16.5355Z" fill="#FFC107"/>
<path d="M12 8C12 7.44772 12.4477 7 13 7H17C17.5523 7 18 7.44772 18 8V13C18 14.6569 16.6569 16 15 16C13.3431 16 12 14.6569 12 13V8Z" fill="#1D73FA"/>
<path d="M14 10C14 9.44771 14.4477 9 15 9C15.5523 9 16 9.44771 16 10C16 10.5523 15.5523 11 15 11C14.4477 11 14 10.5523 14 10Z" fill="#EFE5E9"/>
<path opacity="0.5" d="M15 12.5C15 12.2239 15.2239 12 15.5 12C15.7761 12 16 12.2239 16 12.5V13.5C16 13.7761 15.7761 14 15.5 14C15.2239 14 15 13.7761 15 13.5V12.5Z" fill="#EFE5E9"/>
</svg>
