<svg width="30" height="30" viewBox="0 0 30 30" fill="none" xmlns="http://www.w3.org/2000/svg">
<path fill-rule="evenodd" clip-rule="evenodd" d="M15 6C8.92487 6 4 10.9249 4 17V20C4 21.1046 4.89543 22 6 22H9.80269C10.8401 23.7934 12.7792 25 15 25C17.2208 25 19.1599 23.7934 20.1973 22H24C25.1046 22 26 21.1046 26 20V17C26 10.9249 21.0751 6 15 6Z" fill="#394642"/>
<path d="M11.126 20H6V17C6 12.0294 10.0294 8 15 8C19.9706 8 24 12.0294 24 17V20H18.874C18.4299 21.7252 16.8638 23 15 23C13.1362 23 11.5701 21.7252 11.126 20Z" fill="url(#paint0_linear_1903_16628)"/>
<path d="M19 19C19 21.2091 17.2091 23 15 23C12.7909 23 11 21.2091 11 19C11 16.7909 12.7909 15 15 15C17.2091 15 19 16.7909 19 19Z" fill="url(#paint1_linear_1903_16628)"/>
<path fill-rule="evenodd" clip-rule="evenodd" d="M15 12C12.2386 12 10 14.2386 10 17V20H6V17C6 12.0294 10.0294 8 15 8C19.9706 8 24 12.0294 24 17V20H20V17C20 14.2386 17.7614 12 15 12Z" fill="url(#paint2_radial_1903_16628)"/>
<path opacity="0.1" d="M19 19C19 21.2091 17.2091 23 15 23C12.7909 23 11 21.2091 11 19C11 16.7909 12.7909 15 15 15C17.2091 15 19 16.7909 19 19Z" fill="black"/>
<path fill-rule="evenodd" clip-rule="evenodd" d="M15 11C16.1046 11 17 11.8954 17 13V16.764C17.6127 17.3125 18 18.1106 18 19C18 20.6568 16.6569 22 15 22C13.3431 22 12 20.6568 12 19C12 18.1106 12.3873 17.3125 13 16.764V13C13 11.8954 13.8954 11 15 11Z" fill="url(#paint3_linear_1903_16628)" fill-opacity="0.1"/>
<path fill-rule="evenodd" clip-rule="evenodd" d="M16 13C16 12.4477 15.5523 12 15 12C14.4477 12 14 12.4477 14 13V17.2675C13.4022 17.6133 13 18.2597 13 19C13 20.1045 13.8954 21 15 21C16.1046 21 17 20.1045 17 19C17 18.2597 16.5978 17.6133 16 17.2675V13Z" fill="white"/>
<path d="M14 8V9C14 9.55228 14.4477 10 15 10C15.5523 10 16 9.55228 16 9V8H14Z" fill="#394642"/>
<path d="M20.2929 10.2929L21 9.58578L22.4142 11L21.7071 11.7071C21.3166 12.0976 20.6834 12.0976 20.2929 11.7071C19.9024 11.3166 19.9024 10.6834 20.2929 10.2929Z" fill="#394642"/>
<path d="M8.29289 11.7071L7.58579 11L9 9.58579L9.70711 10.2929C10.0976 10.6834 10.0976 11.3166 9.70711 11.7071C9.31658 12.0976 8.68342 12.0976 8.29289 11.7071Z" fill="#394642"/>
<path d="M7 18H6V16H7C7.55228 16 8 16.4477 8 17C8 17.5523 7.55228 18 7 18Z" fill="#394642"/>
<path d="M22 17C22 16.4477 22.4477 16 23 16H24V18H23C22.4477 18 22 17.5523 22 17Z" fill="#394642"/>
<defs>
<linearGradient id="paint0_linear_1903_16628" x1="15" y1="8" x2="15" y2="23" gradientUnits="userSpaceOnUse">
<stop stop-color="#2D9D79"/>
<stop offset="1" stop-color="#2E9E7A"/>
</linearGradient>
<linearGradient id="paint1_linear_1903_16628" x1="15" y1="23" x2="15" y2="18.5" gradientUnits="userSpaceOnUse">
<stop stop-color="#308F70"/>
<stop offset="1" stop-color="#308F70" stop-opacity="0"/>
</linearGradient>
<radialGradient id="paint2_radial_1903_16628" cx="0" cy="0" r="1" gradientUnits="userSpaceOnUse" gradientTransform="translate(15 8) rotate(90) scale(11 48.25)">
<stop stop-color="#3CC639"/>
<stop offset="1" stop-color="#2D9D79" stop-opacity="0"/>
</radialGradient>
<linearGradient id="paint3_linear_1903_16628" x1="15" y1="13" x2="17.9844" y2="16.3058" gradientUnits="userSpaceOnUse">
<stop/>
<stop offset="1" stop-opacity="0"/>
</linearGradient>
</defs>
</svg>
