<svg width="30" height="30" viewBox="0 0 30 30" fill="none" xmlns="http://www.w3.org/2000/svg">
<path d="M12.3438 16.2627C12.742 16.1035 13.1967 16.1967 13.5 16.5C13.8033 16.8033 13.8965 17.258 13.7373 17.6562L10.1797 26.5508C10.071 26.8223 9.80808 27 9.51562 27C9.2077 27 8.93428 26.8029 8.83691 26.5107L7.5 22.5L3.48926 21.1631C3.19721 21.0657 3 20.7922 3 20.4844C3.00006 20.1921 3.17787 19.929 3.44922 19.8203L12.3438 16.2627Z" fill="#FF8800"/>
<path fill-rule="evenodd" clip-rule="evenodd" d="M20.5 3C24.0899 3 27 5.91015 27 9.5C27 13.0899 24.0899 16 20.5 16C16.9101 16 14 13.0899 14 9.5C14 5.91015 16.9101 3 20.5 3ZM20.5 5C18.0147 5 16 7.01472 16 9.5C16 11.9853 18.0147 14 20.5 14C22.9853 14 25 11.9853 25 9.5C25 7.01472 22.9853 5 20.5 5Z" fill="#FF8800"/>
</svg>
