<svg width="30" height="30" viewBox="0 0 30 30" fill="none" xmlns="http://www.w3.org/2000/svg">
<path d="M22.5585 6C23.4193 6 24.1836 6.55086 24.4558 7.36754L25 9C25 9.55228 24.5523 10 24 10H3C3 8.34315 4.34315 7 6 7L16 7L18 6H22.5585Z" fill="#FF8800"/>
<path fill-rule="evenodd" clip-rule="evenodd" d="M3 10L23.0001 10.0001L25.0001 15.0001L27.5527 16.2764C27.8269 16.4134 28 16.6936 28.0001 17.0001V20.0001C28.0001 20.5523 27.5524 21.0001 27.0001 21.0001H25.8294C25.4176 22.1653 24.3063 23.0001 23.0001 23.0001C21.6939 23.0001 20.5827 22.1653 20.1708 21.0001H10.8293C10.4175 22.1652 9.30625 23 8.00005 23C6.69385 23 5.58263 22.1652 5.17077 21.0001H3.00012L3 10ZM12 15L17 15V11H12V15ZM5.00012 11H10.0001V15H5.00012V11ZM8.00012 21C8.55241 21 9.00012 20.5523 9.00012 20C9.00012 19.4478 8.55241 19 8.00012 19C7.44784 19 7.00012 19.4478 7.00012 20C7.00012 20.5523 7.44784 21 8.00012 21ZM23.0001 21C23.5524 21 24.0001 20.5523 24.0001 20C24.0001 19.4478 23.5524 19 23.0001 19C22.4478 19 22.0001 19.4478 22.0001 20C22.0001 20.5523 22.4478 21 23.0001 21ZM19.0001 11H21.5001L23.0001 15H19.0001V11Z" fill="#FF8800"/>
</svg>
