<svg width="30" height="30" viewBox="0 0 30 30" fill="none" xmlns="http://www.w3.org/2000/svg">
<path d="M8.5 7H21.5C22.3284 7 23 7.67157 23 8.5V27H25V8.5C25 6.567 23.433 5 21.5 5H8.5C6.567 5 5 6.567 5 8.5V27H7V8.5C7 7.67157 7.67157 7 8.5 7Z" fill="#FF8800"/>
<path d="M12 10C12 9.44772 12.4477 9 13 9H17C17.5523 9 18 9.44772 18 10C18 10.5523 17.5523 11 17 11H13C12.4477 11 12 10.5523 12 10Z" fill="#FF8800"/>
<path fill-rule="evenodd" clip-rule="evenodd" d="M15.6097 27C15.8391 27 16.0391 26.8439 16.0948 26.6213L16.4334 25.2669C16.6299 25.2009 16.8203 25.1217 17.0036 25.0304L18.2009 25.7488C18.3976 25.8668 18.6495 25.8358 18.8117 25.6736L19.6738 24.8115C19.8361 24.6493 19.8671 24.3974 19.749 24.2007L19.0306 23.0033C19.1218 22.82 19.201 22.6297 19.2669 22.4333L20.6213 22.0947C20.8439 22.039 21.0001 21.839 21.0001 21.6096V20.3904C21.0001 20.161 20.8439 19.961 20.6213 19.9053L19.2669 19.5667C19.201 19.3703 19.1218 19.1799 19.0306 18.9966L19.749 17.7992C19.867 17.6025 19.836 17.3507 19.6738 17.1884L18.8117 16.3263C18.6495 16.1641 18.3976 16.1331 18.2009 16.2511L17.0035 16.9695C16.8202 16.8782 16.6298 16.7991 16.4334 16.7331L16.0948 15.3787C16.0391 15.1561 15.8391 15 15.6097 15H14.3905C14.161 15 13.961 15.1561 13.9054 15.3787L13.5668 16.733C13.3704 16.799 13.18 16.8781 12.9967 16.9694L11.7993 16.251C11.6026 16.133 11.3508 16.164 11.1885 16.3262L10.3264 17.1883C10.1642 17.3506 10.1332 17.6024 10.2512 17.7991L10.9696 18.9963C10.8782 19.1797 10.799 19.3702 10.733 19.5668L9.37879 19.9053C9.15621 19.961 9.00006 20.161 9.00006 20.3904V21.6096C9.00006 21.839 9.15621 22.039 9.37879 22.0947L10.733 22.4332C10.799 22.6298 10.8782 22.8202 10.9695 23.0036L10.2512 24.2008C10.1332 24.3975 10.1642 24.6493 10.3264 24.8116L11.1885 25.6737C11.3508 25.8359 11.6026 25.8669 11.7993 25.7489L12.9966 25.0305C13.1799 25.1218 13.3703 25.201 13.5668 25.267L13.9054 26.6213C13.961 26.8439 14.161 27 14.3905 27H15.6097ZM15 23C16.1046 23 17 22.1046 17 21C17 19.8954 16.1046 19 15 19C13.8954 19 13 19.8954 13 21C13 22.1046 13.8954 23 15 23Z" fill="#FF8800"/>
</svg>
