<svg width="30" height="30" viewBox="0 0 30 30" fill="none" xmlns="http://www.w3.org/2000/svg">
<path d="M9.44531 3.16793C9.90484 2.86158 10.5257 2.98576 10.8321 3.44528L12.2441 5.56337C13.0899 5.20078 14.0215 5.00001 15 5.00001C15.9785 5.00001 16.9101 5.20078 17.7559 5.56338L19.1679 3.4453C19.4743 2.98577 20.0952 2.8616 20.5547 3.16795C21.0142 3.4743 21.1384 4.09517 20.8321 4.5547L19.4635 6.60747C20.5167 7.48015 21.31 8.65544 21.7101 10H24C24.5523 10 25 10.4477 25 11H21C20.6322 11 20.269 11.0199 19.9115 11.0586C19.4711 8.74721 17.4396 7.00001 15 7.00001C12.2386 7.00001 10 9.23858 10 12V20C10 21.281 10.4817 22.4495 11.2739 23.3341C11.5594 24.5281 12.059 25.639 12.73 26.6237C10.6008 25.8942 8.93482 24.167 8.28989 22H6C5.44772 22 5 21.5523 5 21C5 20.4477 5.44772 20 6 20H8V17H6C5.44772 17 5 16.5523 5 16C5 15.4477 5.44772 15 6 15H8V12H6C5.44772 12 5 11.5523 5 11C5 10.4477 5.44772 10 6 10H8.28987C8.69004 8.65543 9.48334 7.48014 10.5365 6.60746L9.16796 4.55468C8.86161 4.09516 8.98579 3.47429 9.44531 3.16793Z" fill="#FF8800"/>
<path d="M15 11C15.7253 11 16.3604 11.3861 16.711 11.9639C15.4946 12.5423 14.4134 13.3591 13.5279 14.3539C13.2002 13.9977 13 13.5222 13 13C13 11.8954 13.8954 11 15 11Z" fill="#FF8800"/>
<path fill-rule="evenodd" clip-rule="evenodd" d="M13 21C13 16.5817 16.5817 13 21 13C25.4183 13 29 16.5817 29 21C29 25.4183 25.4183 29 21 29C16.5817 29 13 25.4183 13 21ZM17.2929 20.7071C16.9024 20.3166 16.9024 19.6834 17.2929 19.2929L20.2929 16.2929C20.6834 15.9024 21.3166 15.9024 21.7071 16.2929L24.7071 19.2929C25.0976 19.6834 25.0976 20.3166 24.7071 20.7071C24.3166 21.0976 23.6834 21.0976 23.2929 20.7071L22 19.4142V25C22 25.5523 21.5523 26 21 26C20.4477 26 20 25.5523 20 25V19.4142L18.7071 20.7071C18.3166 21.0976 17.6834 21.0976 17.2929 20.7071Z" fill="#FF8800"/>
</svg>
