<svg width="30" height="30" viewBox="0 0 30 30" fill="none" xmlns="http://www.w3.org/2000/svg">
<path fill-rule="evenodd" clip-rule="evenodd" d="M16.2525 7.92038C17.4946 7.91166 20.2845 7.92038 20.2845 7.92038L20.3341 7.96566V8.39769C20.3341 8.51702 20.267 8.57625 20.1347 8.57625C19.4849 8.60673 19.3516 8.67119 19.1138 9.0135C18.984 9.1999 18.728 9.60144 18.4623 10.0526L16.182 14.3171C16.182 14.3171 16.1594 14.3642 16.1176 14.4514L18.9048 20.1539L19.0737 20.2L23.4637 9.78181C23.6161 9.36198 23.5926 9.06409 23.3966 8.88901C23.1997 8.71916 23.0612 8.61726 22.5526 8.59635L22.1406 8.57632C22.0901 8.57632 22.0422 8.55802 21.996 8.52318C21.9507 8.49095 21.9272 8.44828 21.9272 8.39689V7.96312L21.9899 7.9187H26.9495L27 7.96312V8.39689C27 8.51447 26.9329 8.5737 26.8005 8.5737C26.1507 8.60245 25.6691 8.74355 25.3572 8.99528C25.0445 9.24874 24.8007 9.59715 24.6256 10.0518C24.6256 10.0518 20.5884 19.2916 19.207 22.3636C18.6783 23.3705 18.1583 23.2782 17.701 22.3349C17.1284 21.1556 15.9394 18.5547 15.066 16.632C14.132 18.5589 12.8531 21.1703 12.2189 22.3461C11.6022 23.4184 11.0944 23.2781 10.6902 22.374C10.0119 20.7735 8.98982 18.6023 7.96168 16.4181C6.86303 14.0842 5.75743 11.7354 5.05686 10.0526C4.806 9.45249 4.61699 9.0675 4.43844 8.91507C4.25901 8.76439 3.88621 8.6738 3.31918 8.64331C3.11101 8.62067 3.00735 8.57015 3.00735 8.48828V8.03448L3.05787 7.99005C3.98115 7.98483 8.44947 7.99005 8.44947 7.99005L8.49998 8.03448V8.4665C8.49998 8.58583 8.42421 8.64331 8.27526 8.64331L7.71259 8.66683C7.23004 8.68686 6.98877 8.83146 6.98877 9.09886C6.98877 9.22341 7.03929 9.42636 7.15165 9.69812C8.23171 12.3303 11.9549 20.1364 11.9549 20.1364L12.0917 20.1721L14.4963 15.3757C14.2023 14.7262 14.0149 14.3102 14.0149 14.3102L12.3617 11.0613C12.3617 11.0613 12.042 10.4115 11.9331 10.1955C11.8799 10.0902 11.8307 9.9921 11.7849 9.9008C11.205 8.74528 11.1686 8.67282 10.4881 8.58241C10.2826 8.55541 10.1763 8.52928 10.1763 8.42737V7.97183L10.2381 7.92741C11.5647 7.92566 14.5166 7.92567 14.5166 7.92567L14.6298 7.96312V8.41692C14.6298 8.52057 14.5558 8.5737 14.4051 8.5737L14.095 8.61812C13.3111 8.67909 13.4391 8.99963 13.96 10.037L15.546 13.2819L17.3004 9.78261C17.5939 9.14241 17.5338 8.98214 17.4127 8.83407C17.343 8.75132 17.1096 8.61719 16.6018 8.59716L16.4023 8.57538C16.3518 8.57538 16.3048 8.55796 16.2586 8.52399C16.2133 8.49176 16.1907 8.44995 16.1907 8.39682V7.96479L16.2525 7.92038Z" fill="black"/>
<circle cx="21" cy="21" r="6" fill="#FFC30D"/>
<path d="M21 18L21 24M21 24L24 21M21 24L18 21" stroke="#5714CC" stroke-width="2" stroke-linecap="round" stroke-linejoin="round"/>
</svg>
