<svg width="30" height="30" viewBox="0 0 30 30" fill="none" xmlns="http://www.w3.org/2000/svg">
<path d="M14.5 25C20.299 25 25 20.5228 25 15C25 9.47715 20.299 5 14.5 5C8.70101 5 4 9.47715 4 15C4 20.5228 8.70101 25 14.5 25Z" stroke="#2D3C53" stroke-width="2"/>
<path d="M24 15C24 19.9706 19.7467 24 14.5 24C9.25329 24 5 19.9706 5 15C5 10.0294 9.25329 6 14.5 6C19.7467 6 24 10.0294 24 15Z" fill="url(#paint0_linear_1703_16)"/>
<path fill-rule="evenodd" clip-rule="evenodd" d="M14.4585 24C19.6362 24 23.8335 19.9705 23.8335 15C23.8335 10.0294 19.6362 6 14.4585 6C9.28083 6 5.0835 10.0294 5.0835 15C5.0835 19.9705 9.28083 24 14.4585 24ZM16.9138 21.5932C18.3533 21.0991 19.5837 20.1829 20.4433 18.9999H18.0871C17.7744 20.0546 17.3557 20.9091 16.9138 21.5932ZM12.0523 21.6099C11.6065 20.923 11.1834 20.0632 10.8682 18.9999H8.47378C9.34307 20.1963 10.5917 21.1199 12.0523 21.6099ZM13.0866 18.9999C13.4697 20.0834 13.9729 20.9908 14.4777 21.7221C14.9824 20.9908 15.4856 20.0834 15.8688 18.9999H13.0866ZM16.3812 16.9999H12.5742C12.4717 16.3751 12.4136 15.7085 12.4136 15C12.4136 14.2915 12.4717 13.6248 12.5742 12.9999H16.3812C16.4836 13.6248 16.5417 14.2914 16.5417 14.9999C16.5417 15.7084 16.4836 16.3751 16.3812 16.9999ZM18.5025 16.9999H21.4483C21.6447 16.3662 21.7502 15.6949 21.7502 15C21.7502 14.305 21.6447 13.6337 21.4482 12.9999H18.5025C18.5812 13.6161 18.6251 14.2817 18.6251 14.9999C18.6251 15.7182 18.5812 16.3837 18.5025 16.9999ZM18.0871 10.9999H20.4432C19.5837 9.81702 18.3533 8.90085 16.9139 8.40677C17.3557 9.09088 17.7745 9.94531 18.0871 10.9999ZM15.8688 10.9999C15.4856 9.91652 14.9824 9.00914 14.4777 8.27785C13.973 9.00914 13.4698 9.91651 13.0866 10.9999H15.8688ZM10.8683 10.9999C11.1835 9.93672 11.6065 9.07697 12.0523 8.3901C10.5918 8.88006 9.34312 9.80358 8.47383 10.9999H10.8683ZM10.4529 12.9999C10.3742 13.6161 10.3303 14.2818 10.3303 15C10.3303 15.7182 10.3742 16.3838 10.4529 16.9999H7.46878C7.27233 16.3662 7.16684 15.6949 7.16684 15C7.16684 14.305 7.27234 13.6337 7.4688 12.9999H10.4529Z" fill="#FFC107"/>
<path d="M21 27C23.7614 27 26 24.7614 26 22C26 19.2386 23.7614 17 21 17C18.2386 17 16 19.2386 16 22C16 24.7614 18.2386 27 21 27Z" fill="#2D3C53"/>
<path d="M21 25C22.6569 25 24 23.6569 24 22C24 20.3431 22.6569 19 21 19C19.3431 19 18 20.3431 18 22C18 23.6569 19.3431 25 21 25Z" fill="#52BE2C"/>
<defs>
<linearGradient id="paint0_linear_1703_16" x1="14.5" y1="6" x2="14.5" y2="24" gradientUnits="userSpaceOnUse">
<stop stop-color="#0446AF"/>
<stop offset="1" stop-color="#1D73FA"/>
</linearGradient>
</defs>
</svg>
