<svg width="334" height="73" viewBox="0 0 334 73" fill="none" xmlns="http://www.w3.org/2000/svg">
<path d="M0 0H334V48H0V0Z" fill="url(#paint0_linear_113_6371)"/>
<path d="M167.806 63.6582C168.974 63.6582 169.685 62.7061 169.685 61.189V61.1826C169.685 59.6655 168.974 58.7197 167.806 58.7197C166.638 58.7197 165.934 59.6655 165.934 61.1826V61.189C165.934 62.7061 166.638 63.6582 167.806 63.6582ZM168.492 68L174.725 58.8403H173.697L167.463 68H168.492ZM167.806 62.9028C167.178 62.9028 166.816 62.2617 166.816 61.189V61.1826C166.816 60.1099 167.178 59.4751 167.806 59.4751C168.435 59.4751 168.803 60.1099 168.803 61.1826V61.189C168.803 62.2617 168.435 62.9028 167.806 62.9028ZM174.37 68.1206C175.538 68.1206 176.249 67.1685 176.249 65.6514V65.645C176.249 64.1279 175.538 63.1821 174.37 63.1821C173.202 63.1821 172.497 64.1279 172.497 65.645V65.6514C172.497 67.1685 173.202 68.1206 174.37 68.1206ZM174.37 67.3652C173.741 67.3652 173.379 66.7241 173.379 65.6514V65.645C173.379 64.5723 173.741 63.9375 174.37 63.9375C174.998 63.9375 175.366 64.5723 175.366 65.645V65.6514C175.366 66.7241 174.998 67.3652 174.37 67.3652Z" fill="#7D738C"/>
<path d="M161.056 68.2158C163.081 68.2158 164.3 66.3687 164.3 63.4233V63.4106C164.3 60.4653 163.081 58.6245 161.056 58.6245C159.031 58.6245 157.825 60.4653 157.825 63.4106V63.4233C157.825 66.3687 159.031 68.2158 161.056 68.2158ZM161.056 67.2192C159.742 67.2192 158.974 65.7593 158.974 63.4233V63.4106C158.974 61.0747 159.742 59.6274 161.056 59.6274C162.37 59.6274 163.151 61.0747 163.151 63.4106V63.4233C163.151 65.7593 162.37 67.2192 161.056 67.2192Z" fill="#7D738C"/>
<path d="M166 48H167V54H166V48Z" fill="#CBC7D1"/>
<path d="M189.107 67.2129V68H195.036V66.9717H190.694V66.8701L192.776 64.7183C194.433 63.0107 194.884 62.249 194.884 61.2017V61.189C194.884 59.71 193.659 58.6245 192.059 58.6245C190.307 58.6245 189.05 59.7925 189.044 61.4175L189.057 61.4238L190.148 61.4302L190.155 61.4175C190.155 60.3384 190.885 59.6211 191.983 59.6211C193.062 59.6211 193.716 60.3447 193.716 61.3096V61.3223C193.716 62.1221 193.373 62.5981 192.205 63.8613L189.107 67.2129Z" fill="#7D738C"/>
<path fill-rule="evenodd" clip-rule="evenodd" d="M199.939 68.2158C197.914 68.2158 196.708 66.3687 196.708 63.4233V63.4106C196.708 60.4653 197.914 58.6245 199.939 58.6245C201.964 58.6245 203.183 60.4653 203.183 63.4106V63.4233C203.183 66.3687 201.964 68.2158 199.939 68.2158ZM199.939 67.2192C201.253 67.2192 202.034 65.7593 202.034 63.4233V63.4106C202.034 61.0747 201.253 59.6274 199.939 59.6274C198.625 59.6274 197.857 61.0747 197.857 63.4106V63.4233C197.857 65.7593 198.625 67.2192 199.939 67.2192Z" fill="#7D738C"/>
<path fill-rule="evenodd" clip-rule="evenodd" d="M206.689 63.6582C205.521 63.6582 204.816 62.7061 204.816 61.189V61.1826C204.816 59.6655 205.521 58.7197 206.689 58.7197C207.857 58.7197 208.568 59.6655 208.568 61.1826V61.189C208.568 62.7061 207.857 63.6582 206.689 63.6582ZM206.689 62.9028C207.317 62.9028 207.686 62.2617 207.686 61.189V61.1826C207.686 60.1099 207.317 59.4751 206.689 59.4751C206.061 59.4751 205.699 60.1099 205.699 61.1826V61.189C205.699 62.2617 206.061 62.9028 206.689 62.9028Z" fill="#7D738C"/>
<path d="M207.375 68H206.346L212.58 58.8403H213.608L207.375 68Z" fill="#7D738C"/>
<path fill-rule="evenodd" clip-rule="evenodd" d="M213.252 68.1206C212.085 68.1206 211.38 67.1685 211.38 65.6514V65.645C211.38 64.1279 212.085 63.1821 213.252 63.1821C214.42 63.1821 215.131 64.1279 215.131 65.645V65.6514C215.131 67.1685 214.42 68.1206 213.252 68.1206ZM213.252 67.3652C213.881 67.3652 214.249 66.7241 214.249 65.6514V65.645C214.249 64.5723 213.881 63.9375 213.252 63.9375C212.624 63.9375 212.262 64.5723 212.262 65.645V65.6514C212.262 66.7241 212.624 67.3652 213.252 67.3652Z" fill="#7D738C"/>
<rect x="200" y="48" width="1" height="6" fill="#CBC7D1"/>
<path d="M123.107 67.2129V68H129.036V66.9717H124.694V66.8701L126.776 64.7183C128.433 63.0107 128.884 62.249 128.884 61.2017V61.189C128.884 59.71 127.659 58.6245 126.059 58.6245C124.307 58.6245 123.05 59.7925 123.044 61.4175L123.057 61.4238L124.148 61.4302L124.155 61.4175C124.155 60.3384 124.885 59.6211 125.983 59.6211C127.062 59.6211 127.716 60.3447 127.716 61.3096V61.3223C127.716 62.1221 127.373 62.5981 126.205 63.8613L123.107 67.2129Z" fill="#7D738C"/>
<path fill-rule="evenodd" clip-rule="evenodd" d="M133.939 68.2158C131.914 68.2158 130.708 66.3687 130.708 63.4233V63.4106C130.708 60.4653 131.914 58.6245 133.939 58.6245C135.964 58.6245 137.183 60.4653 137.183 63.4106V63.4233C137.183 66.3687 135.964 68.2158 133.939 68.2158ZM133.939 67.2192C135.253 67.2192 136.034 65.7593 136.034 63.4233V63.4106C136.034 61.0747 135.253 59.6274 133.939 59.6274C132.625 59.6274 131.857 61.0747 131.857 63.4106V63.4233C131.857 65.7593 132.625 67.2192 133.939 67.2192Z" fill="#7D738C"/>
<path fill-rule="evenodd" clip-rule="evenodd" d="M140.689 63.6582C139.521 63.6582 138.816 62.7061 138.816 61.189V61.1826C138.816 59.6655 139.521 58.7197 140.689 58.7197C141.857 58.7197 142.568 59.6655 142.568 61.1826V61.189C142.568 62.7061 141.857 63.6582 140.689 63.6582ZM140.689 62.9028C141.317 62.9028 141.686 62.2617 141.686 61.189V61.1826C141.686 60.1099 141.317 59.4751 140.689 59.4751C140.061 59.4751 139.699 60.1099 139.699 61.1826V61.189C139.699 62.2617 140.061 62.9028 140.689 62.9028Z" fill="#7D738C"/>
<path d="M141.375 68H140.346L146.58 58.8403H147.608L141.375 68Z" fill="#7D738C"/>
<path fill-rule="evenodd" clip-rule="evenodd" d="M147.252 68.1206C146.085 68.1206 145.38 67.1685 145.38 65.6514V65.645C145.38 64.1279 146.085 63.1821 147.252 63.1821C148.42 63.1821 149.131 64.1279 149.131 65.645V65.6514C149.131 67.1685 148.42 68.1206 147.252 68.1206ZM147.252 67.3652C147.881 67.3652 148.249 66.7241 148.249 65.6514V65.645C148.249 64.5723 147.881 63.9375 147.252 63.9375C146.624 63.9375 146.262 64.5723 146.262 65.645V65.6514C146.262 66.7241 146.624 67.3652 147.252 67.3652Z" fill="#7D738C"/>
<rect x="134" y="48" width="1" height="6" fill="#CBC7D1"/>
<rect x="150" y="48" width="1" height="6" fill="#CBC7D1"/>
<rect x="183" y="48" width="1" height="6" fill="#CBC7D1"/>
<defs>
<linearGradient id="paint0_linear_113_6371" x1="2.17743e-06" y1="24" x2="334" y2="24" gradientUnits="userSpaceOnUse">
<stop stop-color="#0000FE"/>
<stop offset="0.429878" stop-color="#00FDFD"/>
<stop offset="0.469512" stop-color="#3EBA04"/>
<stop offset="0.5" stop-color="#C8C8C8"/>
<stop offset="0.526042" stop-color="#FCDF06"/>
<stop offset="0.581555" stop-color="#FF0E02"/>
<stop offset="0.998611" stop-color="#9200FF"/>
</linearGradient>
</defs>
</svg>
