<svg width="30" height="30" viewBox="0 0 30 30" fill="none" xmlns="http://www.w3.org/2000/svg">
<path d="M16 6C16 5.44772 15.5523 5 15 5C14.4477 5 14 5.44772 14 6V17.5858L11.7071 15.2929C11.3166 14.9024 10.6834 14.9024 10.2929 15.2929C9.90237 15.6834 9.90237 16.3166 10.2929 16.7071L14.2929 20.7071C14.6834 21.0976 15.3166 21.0976 15.7071 20.7071L19.7071 16.7071C20.0976 16.3166 20.0976 15.6834 19.7071 15.2929C19.3166 14.9024 18.6834 14.9024 18.2929 15.2929L16 17.5858V6Z" fill="#FF8800"/>
<path d="M8 19C8 18.4477 7.55228 18 7 18C6.44772 18 6 18.4477 6 19V22C6 23.6569 7.34315 25 9 25H21C22.6569 25 24 23.6569 24 22V19C24 18.4477 23.5523 18 23 18C22.4477 18 22 18.4477 22 19V22C22 22.5523 21.5523 23 21 23H9C8.44772 23 8 22.5523 8 22V19Z" fill="#FF8800"/>
</svg>
