<svg width="30" height="30" viewBox="0 0 30 30" fill="none" xmlns="http://www.w3.org/2000/svg">
<path d="M9.69425 7H20.3057C21.2834 7 22.1178 7.70683 22.2785 8.6712L23 13L24 15H6L7 13L7.72147 8.6712C7.8822 7.70683 8.71658 7 9.69425 7Z" fill="#B28B01"/>
<path fill-rule="evenodd" clip-rule="evenodd" d="M24.2361 13L23.9086 12.3451L23.1219 8.41165C22.8415 7.00938 21.6102 6 20.1802 6H9.8198C8.38976 6 7.15852 7.00938 6.87806 8.41165L6.09137 12.3451L5.76393 13H5C4.44772 13 4 13.4477 4 14C4 14.5523 4.44772 15 5 15V22.5C5 23.3284 5.67157 24 6.5 24C7.32843 24 8 23.3284 8 22.5V22H22V22.5C22 23.3284 22.6716 24 23.5 24C24.3284 24 25 23.3284 25 22.5V15C25.5523 15 26 14.5523 26 14C26 13.4477 25.5523 13 25 13H24.2361ZM8 13L8.83922 8.80388C8.93271 8.33646 9.34312 8 9.8198 8H20.1802C20.6569 8 21.0673 8.33646 21.1608 8.80388L22 13H8Z" fill="#FFC30D"/>
<rect x="7" y="15" width="3" height="3" rx="1.5" fill="#B28B01"/>
<path d="M27 17.5C27 21.6421 23.6421 25 19.5 25C15.3579 25 12 21.6421 12 17.5C12 13.3579 15.3579 10 19.5 10C23.6421 10 27 13.3579 27 17.5Z" fill="#5714CC"/>
<path d="M19.5 15C20.0523 15 20.5 14.5523 20.5 14C20.5 13.4477 20.0523 13 19.5 13C18.9477 13 18.5 13.4477 18.5 14C18.5 14.5523 18.9477 15 19.5 15Z" fill="#FEC601"/>
<path d="M19.5 22C20.0523 22 20.5 21.5523 20.5 21L20.5 17.5C20.5 16.9477 20.0523 16.5 19.5 16.5C18.9477 16.5 18.5 16.9477 18.5 17.5L18.5 21C18.5 21.5523 18.9477 22 19.5 22Z" fill="#FEC601"/>
</svg>
