<svg width="30" height="30" viewBox="0 0 30 30" fill="none" xmlns="http://www.w3.org/2000/svg">
<path d="M18.8789 5.87914C20.0505 4.70756 21.9495 4.70756 23.1211 5.87914L26.1211 8.87914C27.2925 10.0507 27.2926 11.9498 26.1211 13.1213C25.5353 13.707 24.7677 14.0002 24 14.0002V22.0002C23.9999 23.6052 22.7394 24.916 21.1543 24.9963L21 25.0002H7C5.89551 25.0002 5.00012 24.1047 5 23.0002V21.0002C5 20.4699 5.21094 19.9612 5.58594 19.5862L15.1758 9.99437C15.3204 9.58749 15.5532 9.20484 15.8789 8.87914L18.8789 5.87914Z" fill="#373737"/>
<path d="M15.4404 12.5586C15.5622 12.7582 15.7063 12.9485 15.8789 13.1211C16.4647 13.7069 17.2322 14 18 14V22C18 22.351 18.0631 22.6869 18.1738 23H7V21L15.4404 12.5586Z" fill="url(#paint0_linear_2173_22695)"/>
<path d="M24.707 11.707C25.0976 11.3165 25.0976 10.6835 24.707 10.293L21.707 7.29297C21.3165 6.90244 20.6835 6.90244 20.293 7.29297L17.293 10.293C16.9025 10.6835 16.9025 11.3165 17.293 11.707C17.6835 12.0976 18.3165 12.0976 18.707 11.707L20 10.4141L20 22C20 22.5523 20.4477 23 21 23C21.5523 23 22 22.5523 22 22L22 10.4141L23.293 11.707C23.6835 12.0976 24.3165 12.0976 24.707 11.707Z" fill="white"/>
<defs>
<linearGradient id="paint0_linear_2173_22695" x1="15" y1="-9.21234" x2="15" y2="23" gradientUnits="userSpaceOnUse">
<stop stop-color="#E71D36"/>
<stop offset="1" stop-color="#E71D36"/>
</linearGradient>
</defs>
</svg>
