<svg width="30" height="30" viewBox="0 0 30 30" fill="none" xmlns="http://www.w3.org/2000/svg">
<path d="M23 25C24.1046 25 25 24.1046 25 23V7C25 5.89543 24.1046 5 23 5H16C14.3431 5 13 6.34314 13 8C13 9.12953 13.6242 10.1133 14.5465 10.625L5.58579 19.5858C5.21071 19.9609 5 20.4696 5 21V23C5 24.1046 5.89543 25 7 25H23Z" fill="#505762"/>
<path d="M10.1287 17.8712L6.99988 21V23H22.9999V16.8293C22.6871 16.9399 22.3506 17 22 17C20.7136 17 19.6163 16.1903 19.1899 15.0527L15.1213 19.1213C13.9497 20.2929 12.0503 20.2929 10.8787 19.1213C10.5171 18.7597 10.2671 18.3287 10.1287 17.8712Z" fill="url(#paint0_linear_1903_16665)"/>
<path fill-rule="evenodd" clip-rule="evenodd" d="M12.2929 17.7071C12.6834 18.0976 13.3166 18.0976 13.7071 17.7071L21 10.4142V14C21 14.5523 21.4477 15 22 15C22.5523 15 23 14.5523 23 14V8C23 7.44771 22.5523 7 22 7H16C15.4477 7 15 7.44771 15 8C15 8.55229 15.4477 9 16 9H19.5858L12.2929 16.2929C11.9024 16.6834 11.9024 17.3166 12.2929 17.7071Z" fill="#FFC107"/>
<defs>
<linearGradient id="paint0_linear_1903_16665" x1="14.9999" y1="7" x2="14.9999" y2="23" gradientUnits="userSpaceOnUse">
<stop stop-color="#E71D36"/>
<stop offset="1" stop-color="#E71D36"/>
</linearGradient>
</defs>
</svg>
