<svg width="30" height="30" viewBox="0 0 30 30" fill="none" xmlns="http://www.w3.org/2000/svg">
<path opacity="0.3" d="M5 6V23L13 27V10L5 6Z" fill="#FF8800"/>
<path opacity="0.6" d="M19 17L25 14V21L13 27V12L19 9V17Z" fill="#FF8800"/>
<path opacity="0.2" d="M18 7.5L11 4L6 6.5L13 10L18 7.5Z" fill="#FF8800"/>
<path opacity="0.5" d="M23 13L20 15V11.5L23 13Z" fill="#FF8800"/>
<path d="M6 21.3818L12 24.3818V11.6182L6 8.61817V21.3818ZM14 11.6182V24.3818L18 22.3818V9.61817L14 11.6182ZM20 16.6182V21.3818L24 19.3818V14.6182L20 16.6182ZM20 14.3818L22.7637 13L20 11.6182V14.3818ZM7.23633 7.00001L13 9.88184L16.7637 8.00001L11 5.11817L7.23633 7.00001ZM20 9.38184L25.4473 12.1055C25.786 12.2749 26 12.6212 26 13V20C26 20.3788 25.786 20.7251 25.4473 20.8945L13.4473 26.8945C13.1657 27.0353 12.8343 27.0353 12.5527 26.8945L4.55273 22.8945C4.21395 22.7251 4 22.3788 4 22V7.00001C4 6.62124 4.21395 6.27487 4.55273 6.10548L10.5527 3.10548L10.6602 3.05958C10.9161 2.96706 11.2008 2.98225 11.4473 3.10548L19.4473 7.10548C19.786 7.27487 20 7.62124 20 8.00001V9.38184Z" fill="#FF8800"/>
<path d="M11 21.1182V22.8818L9 21.8818V20.1182L11 21.1182Z" fill="#FF8800"/>
<path d="M8 19.6182V21.3818L7 20.8818V19.1182L8 19.6182Z" fill="#FF8800"/>
<path d="M11 17.1182V18.8818L9 17.8818V16.1182L11 17.1182Z" fill="#FF8800"/>
<path d="M8 15.6182V17.3818L7 16.8818V15.1182L8 15.6182Z" fill="#FF8800"/>
<path d="M11 13.1182V14.8818L9 13.8818V12.1182L11 13.1182Z" fill="#FF8800"/>
<path d="M8 11.6182V13.3818L7 12.8818V11.1182L8 11.6182Z" fill="#FF8800"/>
<path d="M15 21.1182V22.8818L17 21.8818V20.1182L15 21.1182Z" fill="#FF8800"/>
<path d="M15 17.1182V18.8818L17 17.8818V16.1182L15 17.1182Z" fill="#FF8800"/>
<path d="M15 13.1182V14.8818L17 13.8818V12.1182L15 13.1182Z" fill="#FF8800"/>
</svg>
