<svg width="40" height="40" viewBox="0 0 40 40" fill="none" xmlns="http://www.w3.org/2000/svg">
<path fill-rule="evenodd" clip-rule="evenodd" d="M25.1631 23.7488C26.9328 21.6582 28 18.9537 28 16C28 9.37258 22.6274 4 16 4C9.37258 4 4 9.37258 4 16C4 22.6274 9.37258 28 16 28C18.9537 28 21.6582 26.9328 23.7488 25.1631L34.2929 35.7071C34.6834 36.0976 35.3166 36.0976 35.7071 35.7071C36.0976 35.3166 36.0976 34.6834 35.7071 34.2929L25.1631 23.7488ZM26 16C26 21.5228 21.5228 26 16 26C10.4772 26 6 21.5228 6 16C6 10.4772 10.4772 6 16 6C21.5228 6 26 10.4772 26 16Z" fill="#FF8800"/>
<path opacity="0.2" fill-rule="evenodd" clip-rule="evenodd" d="M16 27C22.0751 27 27 22.0751 27 16C27 9.92487 22.0751 5 16 5C9.92487 5 5 9.92487 5 16C5 22.0751 9.92487 27 16 27Z" fill="#FF8800"/>
</svg>
