<svg width="30" height="30" viewBox="0 0 30 30" fill="none" xmlns="http://www.w3.org/2000/svg">
<path opacity="0.1" d="M8 5H22V25H8V5Z" fill="#FF8800"/>
<path opacity="0.4" d="M10 22C10 21.4477 10.4477 21 11 21H17C17.5523 21 18 21.4477 18 22C18 22.5523 17.5523 23 17 23H11C10.4477 23 10 22.5523 10 22Z" fill="#FF8800"/>
<path d="M10 18C10 17.4477 10.4477 17 11 17H19C19.5523 17 20 17.4477 20 18C20 18.5523 19.5523 19 19 19H11C10.4477 19 10 18.5523 10 18Z" fill="#FF8800"/>
<path fill-rule="evenodd" clip-rule="evenodd" d="M9 3H21C22.6569 3 24 4.34314 24 6V24C24 25.6569 22.6569 27 21 27H9C7.34315 27 6 25.6569 6 24V6C6 4.34315 7.34315 3 9 3ZM22 15H8V24C8 24.5523 8.44772 25 9 25H21C21.5523 25 22 24.5523 22 24V15ZM10 8C10.5523 8 11 7.55228 11 7C11 6.44772 10.5523 6 10 6C9.44772 6 9 6.44772 9 7C9 7.55228 9.44772 8 10 8ZM13 8L9 13H21L17 7L15 10L13 8Z" fill="#FF8800"/>
</svg>
