<svg width="30" height="30" viewBox="0 0 30 30" fill="none" xmlns="http://www.w3.org/2000/svg">
<path d="M3 20V22C3 23.1046 3.89543 24 5 24H25C25.5304 24 26.0391 23.7893 26.4142 23.4142C26.7893 23.0391 27 22.5304 27 22V20H3Z" fill="white" fill-opacity="0.3"/>
<path fill-rule="evenodd" clip-rule="evenodd" d="M27 21C27 22.1046 26.1046 23 25 23H5C3.89543 23 3 22.1046 3 21L3 10C3 8.91067 3.91067 8 5 8L25 8C26.0893 8 27 8.91067 27 10V21Z" fill="#59361B"/>
<path opacity="0.3" d="M5 19H25V12C23.3745 12 22.9944 15 21 15C19.5 15 18 12 16 12C14 12 12 14 10 14C7.13612 14 7.86564 10 5 10V19Z" fill="#FFC107"/>
<path opacity="0.7" d="M25 19H5C5.42203 17.3119 6 15 8 15C10 15 12 17 14 17C16 17 17 13 20 13C23 13 25 17 25 19Z" fill="#FFC107"/>
<path d="M15 10C14.4477 10 14 10.4477 14 11V19L5 19V20C5 20.5523 5.44772 21 6 21L24 21C24.5523 21 25 20.5523 25 20V19H16V11C16 10.4477 15.5523 10 15 10Z" fill="#FFC107"/>
</svg>
