<svg width="30" height="30" viewBox="0 0 30 30" fill="none" xmlns="http://www.w3.org/2000/svg">
<path fill-rule="evenodd" clip-rule="evenodd" d="M26.5138 18.6717C26.8305 19.1322 27 19.678 27 20.237C27 21.763 25.763 23 24.237 23H5.76425C4.2376 23 3 21.7624 3 20.2357C3 19.6802 3.16739 19.1376 3.48035 18.6785L10.5659 8.28644C11.1147 7.48156 12.0258 7 13 7C13.9742 7 14.8853 7.48156 15.4341 8.28644L17.0923 10.7185C17.6128 10.2617 18.2883 10 19 10C19.9716 10 20.8809 10.4783 21.4313 11.279L26.5138 18.6717Z" fill="#595959"/>
<path d="M13 21L18.2393 12.4266C18.4012 12.1616 18.6894 12 19 12C19.313 12 19.6059 12.1541 19.7833 12.412L24.8657 19.8047C24.9532 19.9319 25 20.0826 25 20.237C25 20.6584 24.6584 21 24.237 21H13Z" fill="url(#paint0_linear_1903_15693)"/>
<path d="M5.76425 21C5.34217 21 5 20.6578 5 20.2357C5 20.0822 5.04628 19.9321 5.13281 19.8052L12.2183 9.41311C12.3946 9.15464 12.6872 9 13 9C13.3128 9 13.6054 9.15464 13.7817 9.41311L20.8672 19.8052C20.9537 19.9321 21 20.0822 21 20.2357C21 20.6578 20.6578 21 20.2357 21H5.76425Z" fill="url(#paint1_linear_1903_15693)"/>
<path d="M16.6147 13.5682L13.7817 9.41311C13.6054 9.15464 13.3128 9 13 9C12.6872 9 12.3946 9.15464 12.2183 9.41311L9.81866 12.9326L10.7105 14.4934C10.8895 14.8067 11.2227 15 11.5835 15C11.8502 15 12.1059 14.8941 12.2945 14.7055L13.8425 13.1575C13.9434 13.0566 14.0801 13 14.2227 13C14.3967 13 14.5595 13.0847 14.6722 13.2172C14.947 13.5402 15.5043 14.0991 16 14C16.2293 13.9541 16.4437 13.7678 16.6147 13.5682Z" fill="url(#paint2_linear_1903_15693)"/>
<defs>
<linearGradient id="paint0_linear_1903_15693" x1="14" y1="8" x2="22" y2="19" gradientUnits="userSpaceOnUse">
<stop stop-color="#EBEEEF"/>
<stop offset="1" stop-color="#2C7AF6"/>
</linearGradient>
<linearGradient id="paint1_linear_1903_15693" x1="8.5" y1="11" x2="18.5" y2="22" gradientUnits="userSpaceOnUse">
<stop stop-color="#5A8DDD"/>
<stop offset="1" stop-color="#1D73FA"/>
</linearGradient>
<linearGradient id="paint2_linear_1903_15693" x1="9.81866" y1="11" x2="17.1457" y2="11" gradientUnits="userSpaceOnUse">
<stop stop-color="#EDEDED"/>
<stop offset="1" stop-color="#EDEDED" stop-opacity="0.76"/>
</linearGradient>
</defs>
</svg>
