<svg width="30" height="30" viewBox="0 0 30 30" fill="none" xmlns="http://www.w3.org/2000/svg">
<g opacity="0.5">
<path d="M8.2083 19.6111C6.71283 17.7296 5.71136 15.3396 5.10309 13.028C5.151 13.1252 5.21482 13.2148 5.29287 13.2929C5.6834 13.6834 6.34359 13.7074 6.83335 13.4522C6.95625 13.3881 7.09441 13.3209 7.2489 13.252C7.69476 14.6862 8.25496 15.872 8.73769 16.7437C9.12754 15.5983 9.62925 14.0507 10.0905 12.4085C10.7195 12.2892 11.435 12.1874 12.2459 12.1153C11.6555 14.3538 10.953 16.5706 10.1598 18.7456L9.70709 18.2929C9.31657 17.9024 8.6834 17.9024 8.29288 18.2929C7.93294 18.6528 7.90475 19.2189 8.2083 19.6111Z" fill="#FF8800"/>
<path d="M21.7948 19.6111C23.2902 17.7296 24.2917 15.3396 24.9 13.028C24.8521 13.1252 24.7883 13.2148 24.7102 13.2929C24.3197 13.6834 23.6595 13.7074 23.1697 13.4522C23.0468 13.3881 22.9087 13.3209 22.7542 13.252C22.3083 14.6862 21.7481 15.872 21.2654 16.7437C20.8755 15.5983 20.3738 14.0507 19.9126 12.4085C19.2835 12.2892 18.5681 12.1874 17.7572 12.1153C18.3476 14.3538 19.0501 16.5706 19.8432 18.7456L20.296 18.2929C20.6865 17.9024 21.3197 17.9024 21.7102 18.2929C22.0701 18.6528 22.0983 19.2189 21.7948 19.6111Z" fill="#FF8800"/>
</g>
<path d="M5.8418 6.46807C5.26782 6.75183 5 7.35971 5 8V12.5858C5 12.851 5.10536 13.1054 5.29289 13.2929C5.68342 13.6834 6.34361 13.7074 6.83337 13.4522C7.96944 12.8601 10.4097 12 15 12C19.5903 12 22.0306 12.8601 23.1666 13.4522C23.6564 13.7074 24.3166 13.6834 24.7071 13.2929C24.8946 13.1054 25 12.851 25 12.5858V8C25 7.35971 24.7322 6.75183 24.1582 6.46807C22.9598 5.87557 20.2932 5 15 5C9.70676 5 7.04024 5.87557 5.8418 6.46807Z" fill="#FF8800"/>
<path d="M15 19C16.1046 19 17 18.1046 17 17C17 15.8954 16.1046 15 15 15C13.8954 15 13 15.8954 13 17C13 18.1046 13.8954 19 15 19Z" fill="#FF8800"/>
<path d="M21.2395 20.1747C20.3212 21.093 19.2144 21.7946 18 22.2336V25H12V22.2336C10.7856 21.7946 9.67876 21.093 8.76051 20.1747L8.29289 19.7071C7.90237 19.3166 7.90237 18.6834 8.29289 18.2929C8.68342 17.9024 9.31658 17.9024 9.70711 18.2929L10.1747 18.7605C11.0493 19.6351 12.1451 20.2555 13.3449 20.5555C14.4316 20.8271 15.5684 20.8271 16.6551 20.5555C17.8549 20.2555 18.9507 19.6351 19.8253 18.7605L20.2929 18.2929C20.6834 17.9024 21.3166 17.9024 21.7071 18.2929C22.0976 18.6834 22.0976 19.3166 21.7071 19.7071L21.2395 20.1747Z" fill="#FF8800"/>
</svg>
