<svg width="30" height="30" viewBox="0 0 30 30" fill="none" xmlns="http://www.w3.org/2000/svg">
<path fill-rule="evenodd" clip-rule="evenodd" d="M9 3C7.34315 3 6 4.34315 6 6V24C6 25.6569 7.34315 27 9 27H12.9993C12.537 26.3845 12.144 25.714 11.8321 25H9C8.44772 25 8 24.5523 8 24V6C8 5.44772 8.44772 5 9 5H16V8C16 9.65685 17.3431 11 19 11H24V9.82843C24 9.03278 23.6839 8.26972 23.1213 7.70711L19.2929 3.87868C18.7303 3.31607 17.9672 3 17.1716 3H9ZM18 5.41421V8C18 8.55228 18.4477 9 19 9H21.5858L18 5.41421Z" fill="#FF8800"/>
<path d="M11.2 23C11.0689 22.3538 11 21.6849 11 21C10.4477 21 10 21.4477 10 22C10 22.5523 10.4477 23 11 23H11.2Z" fill="#FF8800"/>
<path d="M11 13H14.999C14.2418 13.5689 13.5681 14.2428 12.9993 15H11C10.4477 15 10 14.5523 10 14C10 13.4477 10.4477 13 11 13Z" fill="#FF8800"/>
<path d="M11 17H11.8321C11.5546 17.635 11.3412 18.3044 11.2 19H11C10.4477 19 10 18.5523 10 18C10 17.4477 10.4477 17 11 17Z" fill="#FF8800"/>
<path d="M10 10C10 9.44772 10.4477 9 11 9H13C13.5523 9 14 9.44772 14 10C14 10.5523 13.5523 11 13 11H11C10.4477 11 10 10.5523 10 10Z" fill="#FF8800"/>
<path fill-rule="evenodd" clip-rule="evenodd" d="M13 21C13 16.5817 16.5817 13 21 13C25.4183 13 29 16.5817 29 21C29 25.4183 25.4183 29 21 29C16.5817 29 13 25.4183 13 21ZM17.2929 20.7071C16.9024 20.3166 16.9024 19.6834 17.2929 19.2929L20.2929 16.2929C20.6834 15.9024 21.3166 15.9024 21.7071 16.2929L24.7071 19.2929C25.0976 19.6834 25.0976 20.3166 24.7071 20.7071C24.3166 21.0976 23.6834 21.0976 23.2929 20.7071L22 19.4142V25C22 25.5523 21.5523 26 21 26C20.4477 26 20 25.5523 20 25V19.4142L18.7071 20.7071C18.3166 21.0976 17.6834 21.0976 17.2929 20.7071Z" fill="#FF8800"/>
</svg>
