<svg width="50" height="50" viewBox="0 0 50 50" fill="none" xmlns="http://www.w3.org/2000/svg">
<path d="M25 5C24.6936 5 24.4134 5.17313 24.2764 5.44721L16.0854 21.8292C16.0292 21.9415 16 22.0654 16 22.191C16 22.6378 16.3622 23 16.809 23H16.875C16.9579 23 17.0404 22.9882 17.12 22.965L22 21.5417V45H28V21.5417L32.88 22.965C32.9596 22.9882 33.0421 23 33.125 23H33.191C33.6378 23 34 22.6378 34 22.191C34 22.0654 33.9708 21.9415 33.9146 21.8292L25.7236 5.44721C25.5866 5.17313 25.3064 5 25 5Z" fill="black"/>
</svg>
