<svg width="30" height="30" viewBox="0 0 30 30" fill="none" xmlns="http://www.w3.org/2000/svg">
<path opacity="0.5" fill-rule="evenodd" clip-rule="evenodd" d="M24.5 24L21.5 24C20.1193 24 19 22.8807 19 21.5L19 8.5C19 7.11929 20.1193 6 21.5 6L24.5 6C25.8807 6 27 7.11929 27 8.5L27 21.5C27 22.8807 25.8807 24 24.5 24ZM24.5 22C24.7761 22 25 21.7761 25 21.5L25 8.5C25 8.22386 24.7761 8 24.5 8L21.5 8C21.2239 8 21 8.22386 21 8.5L21 21.5C21 21.7761 21.2239 22 21.5 22L24.5 22Z" fill="#FF8800"/>
<path fill-rule="evenodd" clip-rule="evenodd" d="M15 24C16.1046 24 17 23.1046 17 22V8C17 6.89543 16.1046 6 15 6L5 6C3.89543 6 3 6.89543 3 8L3 22C3 23.1046 3.89543 24 5 24H15ZM6 16C5.44772 16 5 15.5523 5 15C5 14.4477 5.44772 14 6 14H9V11C9 10.4477 9.44772 10 10 10C10.5523 10 11 10.4477 11 11V14H14C14.5523 14 15 14.4477 15 15C15 15.5523 14.5523 16 14 16H11V19C11 19.5523 10.5523 20 10 20C9.44771 20 9 19.5523 9 19L9 16H6Z" fill="#FF8800"/>
</svg>
