<svg width="30" height="30" viewBox="0 0 30 30" fill="none" xmlns="http://www.w3.org/2000/svg">
<path fill-rule="evenodd" clip-rule="evenodd" d="M9 13.874C10.7252 13.4299 12 11.8638 12 10C12 7.79086 10.2091 6 8 6C5.79086 6 4 7.79086 4 10C4 11.8638 5.27477 13.4299 7 13.874V19.5C7 21.9853 9.01474 24 11.5 24C11.669 24 11.8358 23.9907 12 23.9725V21.95C11.8385 21.9828 11.6712 22 11.5 22C10.1193 22 9 20.8807 9 19.5V13.874ZM8 12C9.10457 12 10 11.1046 10 10C10 8.89543 9.10457 8 8 8C6.89543 8 6 8.89543 6 10C6 11.1046 6.89543 12 8 12Z" fill="#FF8800"/>
<path d="M21 10.5V12H23V10.5C23 8.01472 20.9853 6 18.5 6C16.0147 6 14 8.01472 14 10.5V12H16V10.5C16 9.11929 17.1193 8 18.5 8C19.8807 8 21 9.11929 21 10.5Z" fill="#FF8800"/>
<path d="M21 18V20H23V18H21Z" fill="#FF8800"/>
<path fill-rule="evenodd" clip-rule="evenodd" d="M15 15C15 14.4477 15.4477 14 16 14H24C25.1046 14 26 14.8954 26 16V22C26 23.1046 25.1046 24 24 24H17V27C17 27.5523 16.5523 28 16 28C15.4477 28 15 27.5523 15 27V15ZM17 18V16H19V18H17ZM21 18H19V20H17V22H19V20H21V22H23V20H25V18H23V16H21V18Z" fill="#FF8800"/>
</svg>
