<svg width="30" height="30" viewBox="0 0 30 30" fill="none" xmlns="http://www.w3.org/2000/svg">
<circle cx="15" cy="16" r="10" fill="white" fill-opacity="0.3"/>
<circle cx="15" cy="15" r="8" fill="#FFC107"/>
<path d="M22.9846 15.5C22.9948 15.3346 23 15.1679 23 15C23 10.5817 19.4183 7 15 7C10.5817 7 7 10.5817 7 15C7 15.1679 7.00517 15.3346 7.01537 15.5C7.27347 11.3146 10.7496 8 15 8C19.2504 8 22.7265 11.3146 22.9846 15.5Z" fill="white" fill-opacity="0.3"/>
<path d="M15 17C16.1046 17 17 16.1046 17 15C17 13.8954 16.1046 13 15 13C13.8954 13 13 13.8954 13 15C13 16.1046 13.8954 17 15 17Z" fill="#59361B"/>
<path fill-rule="evenodd" clip-rule="evenodd" d="M15 21C18.3137 21 21 18.3137 21 15C21 11.6863 18.3137 9 15 9C11.6863 9 9 11.6863 9 15C9 18.3137 11.6863 21 15 21ZM15 19C17.2091 19 19 17.2091 19 15C19 12.7909 17.2091 11 15 11C12.7909 11 11 12.7909 11 15C11 17.2091 12.7909 19 15 19Z" fill="#59361B"/>
<path fill-rule="evenodd" clip-rule="evenodd" d="M15 25C20.5228 25 25 20.5228 25 15C25 9.47715 20.5228 5 15 5C9.47715 5 5 9.47715 5 15C5 20.5228 9.47715 25 15 25ZM15 23C19.4183 23 23 19.4183 23 15C23 10.5817 19.4183 7 15 7C10.5817 7 7 10.5817 7 15C7 19.4183 10.5817 23 15 23Z" fill="#59361B"/>
</svg>
