<svg width="30" height="30" viewBox="0 0 30 30" fill="none" xmlns="http://www.w3.org/2000/svg">
<path fill-rule="evenodd" clip-rule="evenodd" d="M26.7071 4.70711C27.0976 4.31658 27.0976 3.68342 26.7071 3.29289C26.3166 2.90237 25.6834 2.90237 25.2929 3.29289L21.109 7.4768C19.2069 6.59323 17.1263 6 15 6C7.1916 6 0 14 0 15C0 15.6362 2.91097 19.1059 7.03975 21.546L3.29289 25.2929C2.90237 25.6834 2.90237 26.3166 3.29289 26.7071C3.68342 27.0976 4.31658 27.0976 4.70711 26.7071L26.7071 4.70711ZM8.50457 20.0812L10.8284 17.7574C10.3049 16.967 10 16.0191 10 15C10 12.2386 12.2386 10 15 10C16.0191 10 16.967 10.3049 17.7574 10.8284L19.5912 8.99461C18.1011 8.38051 16.5442 8 15 8C11.736 8 8.41529 9.70011 5.7881 11.7127C4.49998 12.6995 3.44909 13.708 2.73672 14.5049C2.57371 14.6872 2.43329 14.853 2.3149 15C2.43329 15.147 2.57371 15.3128 2.73672 15.4951C3.44909 16.292 4.49998 17.3005 5.7881 18.2873C6.63053 18.9327 7.54426 19.5459 8.50457 20.0812Z" fill="#FF8800"/>
<path d="M19.9972 14.8312L14.8312 19.9972C14.8873 19.9991 14.9435 20 15 20C17.7614 20 20 17.7614 20 15C20 14.9435 19.9991 14.8873 19.9972 14.8312Z" fill="#FF8800"/>
<path d="M15 22C14.3417 22 13.6812 21.9309 13.0245 21.8039L11.369 23.4595C12.5466 23.8001 13.7656 24 15 24C22.8084 24 30 16 30 15C30 14.4755 28.0219 12.0257 25.0142 9.81427L23.5822 11.2462C23.7961 11.3993 24.0061 11.5551 24.2119 11.7127C25.5 12.6995 26.5509 13.708 27.2633 14.5049C27.4263 14.6872 27.5667 14.853 27.6851 15C27.5667 15.147 27.4263 15.3128 27.2633 15.4951C26.5509 16.292 25.5 17.3005 24.2119 18.2873C21.5847 20.2999 18.264 22 15 22Z" fill="#FF8800"/>
</svg>
