<svg width="30" height="30" viewBox="0 0 30 30" fill="none" xmlns="http://www.w3.org/2000/svg">
<path opacity="0.5" fill-rule="evenodd" clip-rule="evenodd" d="M24 5.5L24 8.5C24 9.88071 22.8807 11 21.5 11L8.5 11C7.11929 11 6 9.88071 6 8.5L6 5.5C6 4.11929 7.11929 3 8.5 3L21.5 3C22.8807 3 24 4.11929 24 5.5ZM22 5.5C22 5.22386 21.7761 5 21.5 5L8.5 5C8.22386 5 8 5.22386 8 5.5L8 8.5C8 8.77614 8.22386 9 8.5 9L21.5 9C21.7761 9 22 8.77614 22 8.5L22 5.5Z" fill="#FF8800"/>
<path fill-rule="evenodd" clip-rule="evenodd" d="M24 15C24 13.8954 23.1046 13 22 13L8 13C6.89543 13 6 13.8954 6 15L6 25C6 26.1046 6.89543 27 8 27L22 27C23.1046 27 24 26.1046 24 25L24 15ZM16 24C16 24.5523 15.5523 25 15 25C14.4477 25 14 24.5523 14 24L14 21L11 21C10.4477 21 10 20.5523 10 20C10 19.4477 10.4477 19 11 19L14 19L14 16C14 15.4477 14.4477 15 15 15C15.5523 15 16 15.4477 16 16L16 19L19 19C19.5523 19 20 19.4477 20 20C20 20.5523 19.5523 21 19 21L16 21L16 24Z" fill="#FF8800"/>
</svg>
