<svg width="30" height="30" viewBox="0 0 30 30" fill="none" xmlns="http://www.w3.org/2000/svg">
<path d="M4.00195 6C4.31553 6 4.61135 6.1466 4.80078 6.39648L16.7725 22.1992C16.9202 22.3942 16.9999 22.6323 17 22.877C17 23.497 16.497 24 15.877 24H4.5C3.67157 24 3 23.3284 3 22.5V7.00195C3.00003 6.4486 3.4486 6.00003 4.00195 6Z" fill="#FF8800"/>
<path d="M23 6C23.5523 6 24 6.44772 24 7V17H26.2129C26.6476 17 27 17.3524 27 17.7871C27 17.9264 26.9628 18.0632 26.8926 18.1836L23.752 23.5684C23.5959 23.8357 23.3095 24 23 24C22.6905 24 22.4041 23.8357 22.248 23.5684L19.1074 18.1836C19.0372 18.0632 19 17.9264 19 17.7871C19 17.3524 19.3524 17 19.7871 17H22V7C22 6.44772 22.4477 6 23 6Z" fill="#FF8800"/>
</svg>
