<svg width="30" height="30" viewBox="0 0 30 30" fill="none" xmlns="http://www.w3.org/2000/svg">
<path fill-rule="evenodd" clip-rule="evenodd" d="M15 27C8.37258 27 3 21.6274 3 15C3 8.37258 8.37258 3 15 3C21.6274 3 27 8.37258 27 15C27 21.6274 21.6274 27 15 27ZM6.8753 11.2191C6.26319 11.7088 5.72778 12.1978 5.2802 12.6396C6.34101 8.25586 10.2903 5 15 5C19.7097 5 23.659 8.25586 24.7198 12.6396C24.2722 12.1978 23.7368 11.7088 23.1247 11.2191C21.1718 9.65679 18.328 8 15 8C11.672 8 8.82823 9.65679 6.8753 11.2191ZM21.8753 12.7809C22.3978 13.1988 22.8594 13.6174 23.2507 14L6.74926 14C7.14057 13.6174 7.60224 13.1988 8.12469 12.7809C9.92177 11.3432 12.328 10 15 10C17.672 10 20.0782 11.3432 21.8753 12.7809ZM6.74926 16C7.14057 16.3826 7.60224 16.8012 8.12469 17.2191C9.92177 18.6568 12.328 20 15 20C17.672 20 20.0782 18.6568 21.8753 17.2191C22.3978 16.8012 22.8594 16.3826 23.2507 16L6.74926 16ZM5.2802 17.3604C6.34101 21.7441 10.2903 25 15 25C19.7097 25 23.659 21.7441 24.7198 17.3604C24.2722 17.8022 23.7368 18.2912 23.1247 18.7809C21.1718 20.3432 18.328 22 15 22C11.672 22 8.82823 20.3432 6.8753 18.7809C6.26319 18.2912 5.72778 17.8022 5.2802 17.3604Z" fill="#FF8800"/>
</svg>
