<svg width="30" height="30" viewBox="0 0 30 30" fill="none" xmlns="http://www.w3.org/2000/svg">
<path fill-rule="evenodd" clip-rule="evenodd" d="M12 8V9H24C25.6569 9 27 10.3431 27 12V21C27 22.6569 25.6569 24 24 24H6C4.34315 24 3 22.6569 3 21V12C3 10.3431 4.34315 9 6 9V8C5.44772 8 5 7.55228 5 7C5 6.44772 5.44772 6 6 6H12C12.5523 6 13 6.44772 13 7C13 7.55228 12.5523 8 12 8ZM8 9H10V8H8V9ZM5 12C5 11.4477 5.44772 11 6 11H24C24.5523 11 25 11.4477 25 12V15.115C24.1106 15.3266 23.4683 15.7899 22.9554 16.1598C22.3581 16.5905 21.7653 17 21 17C20.124 17 19.3216 16.5719 18.5638 16.1675C18.5076 16.1375 18.4515 16.1076 18.3958 16.078C17.499 15.6023 16.3634 15 15 15C13.7833 15 12.7404 15.5283 11.7288 16.1466C10.8889 16.6595 10.2953 17 9.49997 17C8.70468 17 8.11105 16.6595 7.27115 16.1466C6.55581 15.7094 5.82697 15.2942 5 15.1102V12Z" fill="#FF8800"/>
</svg>
