<svg width="30" height="30" viewBox="0 0 30 30" fill="none" xmlns="http://www.w3.org/2000/svg">
<path fill-rule="evenodd" clip-rule="evenodd" d="M15 16C17.9728 16.0001 20.4398 18.1625 20.916 21H26C26.5523 21 27 21.4477 27 22C27 22.5523 26.5523 23 26 23H4C3.44772 23 3 22.5523 3 22C3 21.4477 3.44772 21 4 21H9.08496C9.56114 18.1625 12.0272 16.0001 15 16ZM15 18C13.1363 18.0001 11.57 19.2748 11.126 21H18.874C18.4299 19.2749 16.8637 18.0001 15 18Z" fill="#FF8800"/>
<path d="M5.80762 14.2871C6.16262 13.864 6.79372 13.8081 7.2168 14.1631L8.74805 15.4492C9.17099 15.8041 9.2267 16.4343 8.87207 16.8574C8.51711 17.2804 7.88596 17.3363 7.46289 16.9814L5.93066 15.6953C5.50785 15.3403 5.45289 14.7101 5.80762 14.2871Z" fill="#FF8800"/>
<path d="M22.7842 14.1631C23.2073 13.8084 23.8375 13.8642 24.1924 14.2871C24.5473 14.7102 24.4923 15.3403 24.0693 15.6953L22.5371 16.9814C22.114 17.3362 21.4838 17.2804 21.1289 16.8574C20.7739 16.4343 20.8289 15.8042 21.252 15.4492L22.7842 14.1631Z" fill="#FF8800"/>
<path d="M15 10C15.5522 10.0001 16 10.4478 16 11V13C16 13.5522 15.5522 13.9999 15 14C14.4479 13.9998 14 13.5522 14 13V11C14 10.4478 14.4479 10.0002 15 10Z" fill="#FF8800"/>
</svg>
