<svg width="30" height="30" viewBox="0 0 30 30" fill="none" xmlns="http://www.w3.org/2000/svg">
<path opacity="0.5" fill-rule="evenodd" clip-rule="evenodd" d="M28 20C28 21.6569 26.6569 23 25 23L5 23C3.34314 23 2 21.6569 2 20L2 10C2 8.34314 3.34315 7 5 7L25 7C26.6569 7 28 8.34314 28 10L28 20ZM4 20L4 10C4.02583 9.45761 4.43507 9 5 9L25 9C25.5649 9 25.9742 9.45761 26 10L26 20C26 20.5523 25.5523 21 25 21L5 21C4.44772 21 4 20.5523 4 20Z" fill="#FF8800"/>
<path opacity="0.2" d="M25 9C25.5523 9 26 9.44772 26 10V20C26 20.5523 25.5523 21 25 21H5C4.44772 21 4 20.5523 4 20L4 10C4 9.44772 4.44772 9 5 9L25 9Z" fill="#FF8800"/>
<path d="M26 20C26 20.5523 25.5523 21 25 21H5C4.44772 21 4 20.5523 4 20V18H26V20Z" fill="#FF8800"/>
<path d="M25 9C25.5523 9 26 9.44772 26 10V13H4V10C4 9.44772 4.44772 9 5 9H25Z" fill="#FF8800"/>
</svg>
