<svg width="30" height="30" viewBox="0 0 30 30" fill="none" xmlns="http://www.w3.org/2000/svg">
<path fill-rule="evenodd" clip-rule="evenodd" d="M5.48973 3.38548C5.88444 3.31256 6.30242 3.30655 6.71629 3.34349C7.54947 3.41801 8.54882 3.68315 9.69676 4.18724C10.082 4.35642 10.4889 4.55599 10.9175 4.78685C10.1462 5.09577 9.41812 5.48878 8.74461 5.9558C6.83083 5.14456 5.74438 5.25712 5.50047 5.50072C5.17937 5.82182 5.08505 7.60476 7.0327 10.8152C8.53928 7.95258 11.5412 5.99974 15.0005 5.99974C19.9709 5.99994 24.0005 10.0303 24.0005 15.0007C24.0002 18.4658 22.0398 21.4703 19.1694 22.9744C22.3394 24.9067 24.0824 24.7995 24.4409 24.4411C24.7114 24.1704 24.8397 23.1099 24.0552 21.2429C24.5217 20.5677 24.9124 19.8372 25.2202 19.0642C25.4451 19.4806 25.641 19.8756 25.8061 20.2507C26.3078 21.3903 26.5718 22.3922 26.6352 23.239C26.6667 23.6607 26.651 24.0874 26.5639 24.4929C26.4857 24.8569 26.3072 25.4041 25.855 25.8562C25.403 26.3079 24.8566 26.487 24.4927 26.5652C24.087 26.6522 23.6596 26.667 23.2378 26.6355C22.3911 26.572 21.3898 26.3079 20.2505 25.8064C19.2495 25.3657 18.1016 24.7231 16.8052 23.8181C16.222 23.9369 15.6187 24.0007 15.0005 24.0007C10.0302 24.0007 6.00087 19.9709 6.00047 15.0007C6.00047 14.3769 6.06323 13.7675 6.18406 13.1794C5.275 11.8697 4.63116 10.7083 4.18699 9.69701C3.68281 8.54884 3.41769 7.54887 3.34324 6.71556C3.30634 6.30179 3.31226 5.88467 3.38524 5.48998C3.44597 5.16175 3.60206 4.56976 4.08641 4.08568L4.27196 3.91966C4.71376 3.56491 5.20245 3.43863 5.48973 3.38548ZM17.3852 16.1931C16.7267 16.1931 16.1929 16.7269 16.1929 17.3855C16.193 18.044 16.7267 18.5779 17.3852 18.5779C18.0436 18.5777 18.5775 18.0439 18.5776 17.3855C18.5775 16.7271 18.0436 16.1933 17.3852 16.1931ZM18.5776 12.615C17.9191 12.6151 17.3853 13.1489 17.3852 13.8074C17.3854 14.4658 17.9192 14.9997 18.5776 14.9997C19.236 14.9996 19.7699 14.4658 19.77 13.8074C19.7699 13.1489 19.2361 12.6151 18.5776 12.615ZM14.4038 10.2302C13.4159 10.2303 12.6147 11.0314 12.6147 12.0193C12.615 13.0069 13.4161 13.8073 14.4038 13.8074C15.3914 13.8072 16.1926 13.0069 16.1929 12.0193C16.1929 11.0314 15.3916 10.2303 14.4038 10.2302Z" fill="#FF8800"/>
</svg>
