<svg width="30" height="30" viewBox="0 0 30 30" fill="none" xmlns="http://www.w3.org/2000/svg">
<path fill-rule="evenodd" clip-rule="evenodd" d="M5 14C5 8.47715 9.47715 4 15 4C20.5228 4 25 8.47715 25 14C25 18.1435 22.4799 21.6984 18.8889 23.2157C17.3611 23.8612 16.25 24.4167 15.9722 25.5278C15.8333 26.0833 15.4861 26.5 15 26.5C14.5139 26.5 14.1667 26.0833 14.0278 25.5278C13.75 24.4167 12.6389 23.8612 11.1111 23.2157C7.52006 21.6984 5 18.1435 5 14ZM15 19C17.7614 19 20 16.7614 20 14C20 11.2386 17.7614 8.99999 15 8.99999C12.2386 8.99999 10 11.2386 10 14C10 16.7614 12.2386 19 15 19Z" fill="#FF8800"/>
<path fill-rule="evenodd" clip-rule="evenodd" d="M23 5C23 4.44772 22.5523 4 22 4C21.4477 4 21 4.44772 21 5V7H19C18.4477 7 18 7.44771 18 8C18 8.55228 18.4477 9 19 9H21V11C21 11.5523 21.4477 12 22 12C22.5523 12 23 11.5523 23 11V9H25C25.5523 9 26 8.55228 26 8C26 7.44771 25.5523 7 25 7H23V5Z" fill="#223EA4"/>
<path d="M23 5C23 4.44772 22.5523 4 22 4C21.4477 4 21 4.44772 21 5V7H19C18.4477 7 18 7.44771 18 8C18 8.55228 18.4477 9 19 9H21V11C21 11.5523 21.4477 12 22 12C22.5523 12 23 11.5523 23 11V9H25C25.5523 9 26 8.55228 26 8C26 7.44771 25.5523 7 25 7H23V5Z" fill="#223EA4"/>
<path fill-rule="evenodd" clip-rule="evenodd" d="M5 14C5 8.47715 9.47715 4 15 4C20.5228 4 25 8.47715 25 14C25 18.1435 22.4799 21.6984 18.8889 23.2157C17.3611 23.8612 16.25 24.4167 15.9722 25.5278C15.8333 26.0833 15.4861 26.5 15 26.5C14.5139 26.5 14.1667 26.0833 14.0278 25.5278C13.75 24.4167 12.6389 23.8612 11.1111 23.2157C7.52006 21.6984 5 18.1435 5 14ZM15 19C17.7614 19 20 16.7614 20 14C20 11.2386 17.7614 9 15 9C12.2386 9 10 11.2386 10 14C10 16.7614 12.2386 19 15 19Z" fill="url(#paint0_linear_1_12588)"/>
<path d="M20 14C20 16.7614 17.7614 19 15 19C12.2386 19 10 16.7614 10 14C10 11.2386 12.2386 9 15 9C17.7614 9 20 11.2386 20 14Z" fill="url(#paint1_linear_1_12588)"/>
<path d="M22 4C22.5523 4 23 4.44772 23 5V7H25C25.5523 7 26 7.44772 26 8C26 8.51768 25.6067 8.94379 25.1025 8.99512L25 9H23V11C23 11.5523 22.5523 12 22 12C21.4477 12 21 11.5523 21 11V9H19L18.8975 8.99512C18.3933 8.94379 18 8.51768 18 8C18 7.48232 18.3933 7.05621 18.8975 7.00488L19 7H21V5C21 4.44772 21.4477 4 22 4Z" fill="url(#paint2_linear_1_12588)"/>
<defs>
<linearGradient id="paint0_linear_1_12588" x1="15" y1="4" x2="15" y2="26.5" gradientUnits="userSpaceOnUse">
<stop stop-color="#FFAC4D"/>
<stop offset="1" stop-color="#FF8800"/>
</linearGradient>
<linearGradient id="paint1_linear_1_12588" x1="15" y1="9" x2="15" y2="19" gradientUnits="userSpaceOnUse">
<stop stop-color="#B35F00"/>
<stop offset="1" stop-color="#CC6D00"/>
</linearGradient>
<linearGradient id="paint2_linear_1_12588" x1="22" y1="4" x2="22" y2="12" gradientUnits="userSpaceOnUse">
<stop stop-color="#732EEB"/>
<stop offset="1" stop-color="#5714CC"/>
</linearGradient>
</defs>
</svg>
