<svg width="30" height="30" viewBox="0 0 30 30" fill="none" xmlns="http://www.w3.org/2000/svg">
<path fill-rule="evenodd" clip-rule="evenodd" d="M9 4H21C23.2091 4 25 5.79086 25 8V22C25 24.2091 23.2091 26 21 26H9C6.79086 26 5 24.2091 5 22V8C5 5.79086 6.79086 4 9 4Z" fill="#2D3C53"/>
<path d="M7 8C7 6.89543 7.89543 6 9 6H21C22.1046 6 23 6.89543 23 8V22C23 23.1046 22.1046 24 21 24H9C7.89543 24 7 23.1046 7 22V8Z" fill="#1D73FA"/>
<path d="M16 9L20 12L16 15L16 13H15C14.4477 13 14 13.4477 14 14V21H12V14C12 12.3431 13.3431 11 15 11H16V9Z" fill="#E6F0FE"/>
</svg>
