<svg width="50" height="50" viewBox="0 0 50 50" fill="none" xmlns="http://www.w3.org/2000/svg">
<path d="M25 5C25.3064 5 25.5866 5.17313 25.7236 5.44721L33.9146 21.8292C33.9708 21.9415 34 22.0654 34 22.191C34 22.6378 33.6378 23 33.191 23H33.125C33.0421 23 32.9596 22.9882 32.88 22.965L28 21.5417V26.4623C28 30.211 26.3818 33.7773 23.5606 36.2458L22.3905 37.2696C20.8714 38.5989 20 40.5191 20 42.5377V45H14V42.5377C14 38.789 15.6182 35.2227 18.4394 32.7542L19.6095 31.7304C21.1286 30.4011 22 28.4809 22 26.4623V21.5417L17.12 22.965C17.0404 22.9882 16.9579 23 16.875 23H16.809C16.3622 23 16 22.6378 16 22.191C16 22.0654 16.0292 21.9415 16.0854 21.8292L24.2764 5.44721C24.4134 5.17313 24.6936 5 25 5Z" fill="white"/>
</svg>
