<svg width="20" height="20" viewBox="0 0 20 20" fill="none" xmlns="http://www.w3.org/2000/svg">
<path d="M5 14.2098V14.191C5 14.0654 5.02924 13.9415 5.08541 13.8292L9.27639 5.44721C9.41343 5.17313 9.69357 5 10 5C10.3064 5 10.5866 5.17313 10.7236 5.44721L14.9146 13.8292C14.9708 13.9415 15 14.0654 15 14.191V14.2098C15 14.6462 14.6462 15 14.2098 15C14.0723 15 13.9372 14.9641 13.8178 14.8959L10.9341 13.2481C10.6496 13.0855 10.3277 13 10 13C9.67235 13 9.35036 13.0855 9.06588 13.2481L6.18219 14.8959C6.0628 14.9641 5.92767 15 5.79016 15C5.35377 15 5 14.6462 5 14.2098Z" fill="#FF8800"/>
</svg>
