<svg width="30" height="30" viewBox="0 0 30 30" fill="none" xmlns="http://www.w3.org/2000/svg">
<path fill-rule="evenodd" clip-rule="evenodd" d="M15 26C21.0751 26 26 21.0751 26 15C26 8.92487 21.0751 4 15 4C8.92487 4 4 8.92487 4 15C4 21.0751 8.92487 26 15 26ZM15 28C22.1797 28 28 22.1797 28 15C28 7.8203 22.1797 2 15 2C7.8203 2 2 7.8203 2 15C2 22.1797 7.8203 28 15 28Z" fill="#FF8800"/>
<path opacity="0.4" fill-rule="evenodd" clip-rule="evenodd" d="M15 26C21.0751 26 26 21.0751 26 15C26 8.92487 21.0751 4 15 4C8.92487 4 4 8.92487 4 15C4 21.0751 8.92487 26 15 26ZM15 21.5135L18.0845 22.7858C18.4273 22.9272 18.7945 23 19.1654 23C20.7309 23 22 21.7309 22 20.1654V20.1535C22 19.8122 21.9386 19.4736 21.8188 19.154L17.5482 7.76592C17.1499 6.70371 16.1344 6 15 6C13.8656 6 12.8501 6.7037 12.4518 7.76592L8.18124 19.154C8.06139 19.4736 8 19.8122 8 20.1535V20.1654C8 21.7309 9.2691 23 10.8346 23C11.2055 23 11.5727 22.9272 11.9155 22.7858L15 21.5135Z" fill="#FF8800"/>
<path d="M10.8346 21C10.3737 21 10 20.6263 10 20.1654V20.1535C10 20.052 10.0183 19.9513 10.0539 19.8563L14.3244 8.46816C14.43 8.18656 14.6992 8 15 8V19.35L11.1529 20.9369C11.0519 20.9786 10.9438 21 10.8346 21Z" fill="#FF8800"/>
<path opacity="0.6" d="M19.1654 21C19.6263 21 20 20.6263 20 20.1654V20.1535C20 20.052 19.9817 19.9513 19.9461 19.8563L15.6756 8.46816C15.57 8.18656 15.3008 8 15 8V19.35L18.8471 20.9369C18.9481 20.9786 19.0562 21 19.1654 21Z" fill="#FF8800"/>
</svg>
