<svg width="30" height="30" viewBox="0 0 30 30" fill="none" xmlns="http://www.w3.org/2000/svg">
<path fill-rule="evenodd" clip-rule="evenodd" d="M25 15C25 20.5228 20.5228 25 15 25C9.47715 25 5 20.5228 5 15C5 9.47715 9.47715 5 15 5C20.5228 5 25 9.47715 25 15ZM15.3583 12.3825C14.3857 12.787 12.4418 13.6243 9.52657 14.8945C9.05318 15.0827 8.8052 15.2669 8.78263 15.4469C8.74448 15.7513 9.12559 15.8711 9.64456 16.0343C9.71515 16.0565 9.78829 16.0795 9.86327 16.1039C10.3739 16.2698 11.0607 16.464 11.4177 16.4717C11.7416 16.4787 12.1031 16.3452 12.5022 16.0711C15.226 14.2325 16.632 13.3032 16.7202 13.2832C16.7825 13.269 16.8688 13.2513 16.9273 13.3032C16.9858 13.3552 16.98 13.4536 16.9738 13.48C16.9361 13.641 15.4401 15.0318 14.6659 15.7515C14.4246 15.9759 14.2534 16.135 14.2184 16.1714C14.14 16.2528 14.0601 16.3298 13.9833 16.4038C13.509 16.8611 13.1532 17.204 14.003 17.764C14.4114 18.0331 14.7381 18.2556 15.0641 18.4776C15.4201 18.7201 15.7752 18.9619 16.2347 19.2631C16.3517 19.3398 16.4635 19.4195 16.5724 19.4971C16.9867 19.7925 17.3589 20.0579 17.8188 20.0155C18.086 19.9909 18.362 19.7397 18.5022 18.9903C18.8335 17.2193 19.4847 13.3821 19.6352 11.8008C19.6484 11.6623 19.6318 11.485 19.6184 11.4072C19.6051 11.3293 19.5773 11.2184 19.4761 11.1364C19.3563 11.0391 19.1713 11.0186 19.0886 11.0201C18.7125 11.0267 18.1354 11.2274 15.3583 12.3825Z" fill="#FF8800"/>
</svg>
