<svg width="40" height="40" viewBox="0 0 40 40" fill="none" xmlns="http://www.w3.org/2000/svg">
<path fill-rule="evenodd" clip-rule="evenodd" d="M20 35.1111C28.3456 35.1111 35.1111 28.3456 35.1111 20C35.1111 11.6544 28.3456 4.88889 20 4.88889C11.6544 4.88889 4.88889 11.6544 4.88889 20C4.88889 28.3456 11.6544 35.1111 20 35.1111ZM20 37C29.3888 37 37 29.3888 37 20C37 10.6112 29.3888 3 20 3C10.6112 3 3 10.6112 3 20C3 29.3888 10.6112 37 20 37Z" fill="#5714CC"/>
<path opacity="0.2" d="M37 20C37 29.3888 29.3888 37 20 37C10.6112 37 3 29.3888 3 20C3 10.6112 10.6112 3 20 3C29.3888 3 37 10.6112 37 20Z" fill="#5714CC"/>
<path d="M20 12.2222C19.3863 12.2222 18.8889 12.7197 18.8889 13.3333C18.8889 13.947 19.3863 14.4444 20 14.4444C20.6136 14.4444 21.1111 13.947 21.1111 13.3333C21.1111 12.7197 20.6136 12.2222 20 12.2222Z" fill="#5714CC"/>
<path d="M20 16.6667C19.3863 16.6667 18.8889 17.1641 18.8889 17.7778V26.6667C18.8889 27.2803 19.3863 27.7778 20 27.7778C20.6136 27.7778 21.1111 27.2803 21.1111 26.6667V17.7778C21.1111 17.1641 20.6136 16.6667 20 16.6667Z" fill="#5714CC"/>
</svg>
