<svg width="30" height="30" viewBox="0 0 30 30" fill="none" xmlns="http://www.w3.org/2000/svg">
<path fill-rule="evenodd" clip-rule="evenodd" d="M20 13C23.866 13 27 16.134 27 20C27 23.866 23.866 27 20 27C16.134 27 13 23.866 13 20C13 16.134 16.134 13 20 13ZM20 16C19.4477 16 19 16.4477 19 17V20.5C19 20.8038 19.1378 21.0915 19.375 21.2812L21.875 23.2812C22.3063 23.6263 22.9362 23.5563 23.2812 23.125C23.6263 22.6937 23.5563 22.0638 23.125 21.7188L21 20.0186V17C21 16.4477 20.5523 16 20 16Z" fill="#FF8800"/>
<path d="M7.92871 20.6572C8.31924 20.2667 8.95225 20.2667 9.34277 20.6572C9.73327 21.0478 9.73329 21.6808 9.34277 22.0713L7.92871 23.4854C7.53819 23.8758 6.90514 23.8758 6.51465 23.4854C6.12416 23.0949 6.12424 22.4618 6.51465 22.0713L7.92871 20.6572Z" fill="#FF8800"/>
<path d="M15 9C16.7841 9 18.3853 9.77957 19.4844 11.0156C14.9244 11.2732 11.2732 14.9244 11.0156 19.4844C9.77957 18.3853 9 16.7841 9 15C9 11.6863 11.6863 9 15 9Z" fill="#FF8800"/>
<path d="M6 14C6.55228 14 7 14.4477 7 15C7 15.5523 6.55228 16 6 16H4C3.44772 16 3 15.5523 3 15C3 14.4477 3.44772 14 4 14H6Z" fill="#FF8800"/>
<path d="M6.51465 6.51465C6.90512 6.12418 7.53817 6.12429 7.92871 6.51465L9.34277 7.92871C9.7333 8.31924 9.7333 8.95225 9.34277 9.34277C8.95225 9.73327 8.31923 9.73329 7.92871 9.34277L6.51465 7.92871C6.12429 7.53818 6.1242 6.90512 6.51465 6.51465Z" fill="#FF8800"/>
<path d="M22.0713 6.51465C22.4618 6.12427 23.0949 6.12418 23.4854 6.51465C23.8758 6.90513 23.8757 7.53818 23.4854 7.92871L22.0713 9.34277C21.6808 9.7333 21.0478 9.7333 20.6572 9.34277C20.2667 8.95225 20.2667 8.31923 20.6572 7.92871L22.0713 6.51465Z" fill="#FF8800"/>
<path d="M15 3C15.5523 3 16 3.44772 16 4V6C16 6.55228 15.5523 7 15 7C14.4477 7 14 6.55228 14 6V4C14 3.44772 14.4477 3 15 3Z" fill="#FF8800"/>
</svg>
