<svg width="30" height="30" viewBox="0 0 30 30" fill="none" xmlns="http://www.w3.org/2000/svg">
<g id="ic_custom_list">
<path id="Union" fill-rule="evenodd" clip-rule="evenodd" d="M6 10C6.55228 10 7 9.55228 7 9C7 8.44772 6.55228 8 6 8C5.44772 8 5 8.44772 5 9C5 9.55228 5.44772 10 6 10ZM9.5 8C8.94772 8 8.5 8.44772 8.5 9C8.5 9.55228 8.94772 10 9.5 10H24.5C25.0523 10 25.5 9.55228 25.5 9C25.5 8.44772 25.0523 8 24.5 8H9.5ZM6 16C6.55228 16 7 15.5523 7 15C7 14.4477 6.55228 14 6 14C5.44772 14 5 14.4477 5 15C5 15.5523 5.44772 16 6 16ZM9.5 14C8.94772 14 8.5 14.4477 8.5 15C8.5 15.5523 8.94772 16 9.5 16H24.5C25.0523 16 25.5 15.5523 25.5 15C25.5 14.4477 25.0523 14 24.5 14H9.5ZM7 21C7 21.5523 6.55228 22 6 22C5.44772 22 5 21.5523 5 21C5 20.4477 5.44772 20 6 20C6.55228 20 7 20.4477 7 21ZM8.5 21C8.5 20.4477 8.94772 20 9.5 20H24.5C25.0523 20 25.5 20.4477 25.5 21C25.5 21.5523 25.0523 22 24.5 22H9.5C8.94772 22 8.5 21.5523 8.5 21Z" fill="#5714CC"/>
</g>
</svg>
