<svg width="30" height="30" viewBox="0 0 30 30" fill="none" xmlns="http://www.w3.org/2000/svg">
<path d="M9 6H11L23 13L11 20V26H9V6Z" fill="black" fill-opacity="0.3"/>
<path d="M20 26C16.134 26 13 22.866 13 19H17L26.9301 18.007C26.9762 18.3314 27 18.6629 27 19C27 22.866 23.866 26 20 26Z" fill="black" fill-opacity="0.3"/>
<path d="M9 7H11V25H9V7Z" fill="#FFC107"/>
<path d="M9 5H11L23 12L11 19H9V5Z" fill="#FFC107"/>
<path d="M11.1046 16.6236L11 16.6846V7.31543L15.7308 10.0751C13.2988 11.388 11.5398 13.7877 11.1046 16.6236Z" fill="#59361B"/>
<path opacity="0.5" d="M15.7307 10.0751C13.2987 11.388 11.5397 13.7877 11.1045 16.6236L19.0306 12L15.7307 10.0751Z" fill="#59361B"/>
<path opacity="0.4" d="M11.1046 16.6236L19.0307 12L15.7308 10.0751C16.4869 9.66689 17.308 9.36377 18.1746 9.18524L23 12L11.0517 18.9699C11.0175 18.6513 11 18.3277 11 18C11 17.532 11.0357 17.0723 11.1046 16.6236Z" fill="black"/>
<path fill-rule="evenodd" clip-rule="evenodd" d="M20 25C23.866 25 27 21.866 27 18C27 14.134 23.866 11 20 11C16.134 11 13 14.134 13 18C13 21.866 16.134 25 20 25Z" fill="#FFC107"/>
<path fill-rule="evenodd" clip-rule="evenodd" d="M20 23C22.7614 23 25 20.7614 25 18C25 15.2386 22.7614 13 20 13C17.2386 13 15 15.2386 15 18C15 20.7614 17.2386 23 20 23Z" fill="#59361B"/>
<path fill-rule="evenodd" clip-rule="evenodd" d="M20 15C20.5523 15 21 15.4477 21 16V17.382L22.4472 18.1056C22.9412 18.3526 23.1414 18.9533 22.8944 19.4472C22.6474 19.9412 22.0468 20.1414 21.5528 19.8944L19.5528 18.8944C19.214 18.7251 19 18.3788 19 18V16C19 15.4477 19.4477 15 20 15Z" fill="#FFC107"/>
</svg>
