<svg width="30" height="30" viewBox="0 0 30 30" fill="none" xmlns="http://www.w3.org/2000/svg">
<g id="ic_custom_link">
<path id="Union" fill-rule="evenodd" clip-rule="evenodd" d="M3 15C3 11.6863 5.68629 9 9 9H13C13.5523 9 14 9.44772 14 10C14 10.5523 13.5523 11 13 11H9C6.79086 11 5 12.7909 5 15C5 17.2091 6.79086 19 9 19H13C13.5523 19 14 19.4477 14 20C14 20.5523 13.5523 21 13 21H9C5.68629 21 3 18.3137 3 15ZM11 15C11 14.4477 11.4477 14 12 14H18C18.5523 14 19 14.4477 19 15C19 15.5523 18.5523 16 18 16H12C11.4477 16 11 15.5523 11 15ZM21 9C24.3137 9 27 11.6863 27 15C27 18.3137 24.3137 21 21 21H17C16.4477 21 16 20.5523 16 20C16 19.4477 16.4477 19 17 19H21C23.2091 19 25 17.2091 25 15C25 12.7909 23.2091 11 21 11H17C16.4477 11 16 10.5523 16 10C16 9.44772 16.4477 9 17 9H21Z" fill="#BEB9C5"/>
</g>
</svg>
