<svg width="30" height="30" viewBox="0 0 30 30" fill="none" xmlns="http://www.w3.org/2000/svg">
<path opacity="0.1" d="M25 9C25.5523 9 26 9.44772 26 10V20C26 20.5523 25.5523 21 25 21L5.00005 21C4.44776 21 4.00005 20.5523 4.00005 20L4.00005 10C4.00005 9.44772 4.44776 9 5.00005 9L25 9Z" fill="#FF8800"/>
<path d="M25 13C25 12.4477 24.5523 12 24 12C23.4478 12 23 12.4477 23 13V17C23 17.5523 23.4478 18 24 18C24.5523 18 25 17.5523 25 17V13Z" fill="#FF8800"/>
<path fill-rule="evenodd" clip-rule="evenodd" d="M28 20V10C28 8.34315 26.6569 7 25 7L5.00005 7C3.34319 7 2.00005 8.34314 2.00005 10L2.00005 20C2.00005 21.6569 3.34319 23 5.00005 23L25 23C26.6569 23 28 21.6569 28 20ZM25 9C25.5523 9 26 9.44772 26 10V20C26 20.5523 25.5523 21 25 21L5.00005 21C4.44776 21 4.00005 20.5523 4.00005 20L4.00005 10C4.00005 9.44771 4.44776 9 5.00005 9L25 9Z" fill="#FF8800"/>
<path opacity="0.5" d="M5.50005 11C5.77619 11 6.00005 11.2239 6.00005 11.5L6.00005 18.5C6.00005 18.7761 5.77619 19 5.50005 19C5.2239 19 5.00005 18.7761 5.00005 18.5L5.00005 11.5C5.00005 11.2239 5.2239 11 5.50005 11Z" fill="#FF8800"/>
</svg>
