<svg width="30" height="30" viewBox="0 0 30 30" fill="none" xmlns="http://www.w3.org/2000/svg">
<g opacity="0.5">
<path d="M7.5 8H13V10H7.5C7.22386 10 7 10.2239 7 10.5V24.5C7 24.7761 7.22386 25 7.5 25H14.5C14.7761 25 15 24.7761 15 24.5V21.95C15.1616 21.9828 15.3288 22 15.5 22H17V24.5C17 25.8807 15.8807 27 14.5 27H7.5C6.11929 27 5 25.8807 5 24.5V10.5C5 9.11929 6.11929 8 7.5 8Z" fill="#FF8800"/>
<path d="M9.5 11C9.22386 11 9 11.2239 9 11.5C9 11.7761 9.22386 12 9.5 12H12.5C12.7761 12 13 11.7761 13 11.5C13 11.2239 12.7761 11 12.5 11H9.5Z" fill="#FF8800"/>
</g>
<path d="M17 6.5C17 6.22386 17.2239 6 17.5 6H20.5C20.7761 6 21 6.22386 21 6.5C21 6.77614 20.7761 7 20.5 7H17.5C17.2239 7 17 6.77614 17 6.5Z" fill="#FF8800"/>
<path fill-rule="evenodd" clip-rule="evenodd" d="M26.7071 4.70711C27.0976 4.31658 27.0976 3.68342 26.7071 3.29289C26.3166 2.90237 25.6834 2.90237 25.2929 3.29289L24.5364 4.04942C24.083 3.41417 23.3399 3 22.5 3H15.5C14.1193 3 13 4.11929 13 5.5V15.5858L3.29289 25.2929C2.90237 25.6834 2.90237 26.3166 3.29289 26.7071C3.68342 27.0976 4.31658 27.0976 4.70711 26.7071L26.7071 4.70711ZM15 13.5858L23 5.58579V5.5C23 5.22386 22.7761 5 22.5 5H15.5C15.2239 5 15 5.22386 15 5.5V13.5858Z" fill="#FF8800"/>
<path d="M25 9.82843L23 11.8284V19.5C23 19.7761 22.7761 20 22.5 20H15.5C15.3179 20 15.1586 19.9027 15.0712 19.7573L13.6485 21.1799C14.1059 21.6837 14.766 22 15.5 22H22.5C23.8807 22 25 20.8807 25 19.5V9.82843Z" fill="#FF8800"/>
</svg>
