<svg width="30" height="30" viewBox="0 0 30 30" fill="none" xmlns="http://www.w3.org/2000/svg">
<path d="M18 7C18 8.10457 18.8954 9 20 9H24V25C24 26.1046 23.1046 27 22 27H8C6.89543 27 6 26.1046 6 25V5C6 3.89543 6.89543 3 8 3H18V7ZM11 15H13V23H15V21C15 19.8954 15.8954 19 17 19H18V21L22 18L18 15V17H17C16.2712 17 15.5884 17.1956 15 17.5361V15H17L14 11L11 15Z" fill="#FF8800"/>
<path opacity="0.5" d="M18 3L20 5L24 9H20C18.8954 9 18 8.10457 18 7V3Z" fill="#FF8800"/>
<path opacity="0.5" d="M11 15H13V21C13 19.5196 13.8046 18.2278 15 17.5361V15H17L14 11L11 15Z" fill="#FF8800"/>
</svg>
