<svg width="30" height="30" viewBox="0 0 30 30" fill="none" xmlns="http://www.w3.org/2000/svg">
<path d="M2 15L15 2L28 15L15 28L2 15Z" fill="white"/>
<path d="M3.41421 15L15 3.41421L26.5858 15L15 26.5858L3.41421 15Z" stroke="black" stroke-width="2"/>
<path fill-rule="evenodd" clip-rule="evenodd" d="M13 15.9443C13 15.3233 13.1446 14.7108 13.4223 14.1554L15 11H16L14.4636 14.0727C14.6343 14.0253 14.8142 14 15 14C16.1046 14 17 14.8954 17 16V17C17 18.1046 16.1046 19 15 19C13.8954 19 13 18.1046 13 17L13 15.9443ZM16 16C16 15.4477 15.5523 15 15 15C14.4478 15 14 15.4477 14 16L14 17C14 17.5523 14.4477 18 15 18C15.5523 18 16 17.5523 16 17V16Z" fill="black"/>
</svg>
