<svg width="30" height="30" viewBox="0 0 30 30" fill="none" xmlns="http://www.w3.org/2000/svg">
<path opacity="0.8" d="M7 22H23V24H7V22Z" fill="#FF8800"/>
<path opacity="0.6" d="M14 18H16V21H14V18Z" fill="#FF8800"/>
<path d="M12 21H18V25H12V21Z" fill="#FF8800"/>
<path d="M15 11C14.4477 11 14 11.4477 14 12C14 12.5523 14.4477 13 15 13H18C18.5523 13 19 12.5523 19 12C19 11.4477 18.5523 11 18 11H15Z" fill="#FF8800"/>
<path d="M13 12C13 12.5523 12.5523 13 12 13C11.4477 13 11 12.5523 11 12C11 11.4477 11.4477 11 12 11C12.5523 11 13 11.4477 13 12Z" fill="#FF8800"/>
<path d="M15 10C15.5523 10 16 9.55228 16 9C16 8.44772 15.5523 8 15 8C14.4477 8 14 8.44772 14 9C14 9.55228 14.4477 10 15 10Z" fill="#FF8800"/>
<path fill-rule="evenodd" clip-rule="evenodd" d="M22 12C22 15.866 18.866 19 15 19C11.134 19 8 15.866 8 12C8 8.13401 11.134 5 15 5C18.866 5 22 8.13401 22 12ZM20 12C20 14.7614 17.7614 17 15 17C12.2386 17 10 14.7614 10 12C10 9.23858 12.2386 7 15 7C17.7614 7 20 9.23858 20 12Z" fill="#FF8800"/>
</svg>
