<svg width="30" height="30" viewBox="0 0 30 30" fill="none" xmlns="http://www.w3.org/2000/svg">
<path d="M19 10H22.5752C22.9271 10 23.2531 10.1852 23.4336 10.4873L26.8584 16.2178C26.951 16.3728 27 16.5499 27 16.7305V21C27 21.5177 26.6067 21.9438 26.1025 21.9951L26 22H24.8262C24.4141 23.1647 23.3059 24 22 24C20.6941 24 19.5859 23.1647 19.1738 22H10.8262C10.4141 23.1647 9.30585 24 8 24C6.69415 24 5.58594 23.1647 5.17383 22H3V6H19V10ZM8 20C7.44772 20 7 20.4477 7 21C7 21.5523 7.44772 22 8 22C8.55228 22 9 21.5523 9 21C9 20.4477 8.55228 20 8 20ZM22 20C21.4477 20 21 20.4477 21 21C21 21.5523 21.4477 22 22 22C22.5523 22 23 21.5523 23 21C23 20.4477 22.5523 20 22 20ZM5 20H5.17383C5.58594 18.8353 6.69415 18 8 18C9.30585 18 10.4141 18.8353 10.8262 20H17V8H5V20ZM11 16L7 11H15L11 16ZM19 16H24.3984L22.0078 12H19V16Z" fill="#FF8800"/>
<path d="M11 16L7 11H15L11 16Z" fill="#FF8800"/>
<path fill-rule="evenodd" clip-rule="evenodd" d="M19 10H22.5752C22.9271 10 23.2531 10.1852 23.4336 10.4873L26.8584 16.2178C26.951 16.3728 27 16.5499 27 16.7305V21C27 21.5177 26.6067 21.9438 26.1025 21.9951L26 22H24.8262C24.4141 23.1647 23.3059 24 22 24C20.6941 24 19.5859 23.1647 19.1738 22H10.8262C10.4141 23.1647 9.30585 24 8 24C6.69415 24 5.58594 23.1647 5.17383 22H3V6H19V10ZM8 20C7.44772 20 7 20.4477 7 21C7 21.5523 7.44772 22 8 22C8.55228 22 9 21.5523 9 21C9 20.4477 8.55228 20 8 20ZM22 20C21.4477 20 21 20.4477 21 21C21 21.5523 21.4477 22 22 22C22.5523 22 23 21.5523 23 21C23 20.4477 22.5523 20 22 20ZM5 20H5.17383C5.58594 18.8353 6.69415 18 8 18C9.30585 18 10.4141 18.8353 10.8262 20H17V8H5V20ZM19 16H24.3984L22.0078 12H19V16Z" fill="#FF8800"/>
</svg>
