<svg width="30" height="30" viewBox="0 0 30 30" fill="none" xmlns="http://www.w3.org/2000/svg">
<path fill-rule="evenodd" clip-rule="evenodd" d="M7 7H23C25.2091 7 27 8.79086 27 11V19C27 21.2091 25.2091 23 23 23H7C4.79086 23 3 21.2091 3 19V11C3 8.79086 4.79086 7 7 7Z" fill="#2D3C53"/>
<path d="M5 11C5 9.89543 5.89543 9 7 9H23C24.1046 9 25 9.89543 25 11V19C25 20.1046 24.1046 21 23 21H7C5.89543 21 5 20.1046 5 19V11Z" fill="#E6F0FF"/>
<path d="M17 16.5C17 16.7761 16.7761 17 16.5 17C16.2239 17 16 16.7761 16 16.5V16H15V16.5C15 17.3284 15.6716 18 16.5 18C17.3284 18 18 17.3284 18 16.5V16.2639C18 15.6064 17.6285 15.0052 17.0403 14.7111L16.4069 14.3944C16.1575 14.2697 16 14.0149 16 13.7361V13.5C16 13.2239 16.2239 13 16.5 13C16.7761 13 17 13.2239 17 13.5V14H18V13.5C18 12.6716 17.3284 12 16.5 12C15.6716 12 15 12.6716 15 13.5V13.7361C15 14.3936 15.3715 14.9948 15.9597 15.2889L16.5931 15.6056C16.8425 15.7303 17 15.9851 17 16.2639V16.5Z" fill="#1E1E24"/>
<path d="M23 12H19V13H20.5V18H21.5V13H23V12Z" fill="#1E1E24"/>
<path d="M13 16L10 12L7 16H9V18H11V16H13Z" fill="#1D73FA"/>
</svg>
