<svg width="30" height="30" viewBox="0 0 30 30" fill="none" xmlns="http://www.w3.org/2000/svg">
<path d="M12.5859 6C13.3669 6.00008 13.9999 6.63313 14 7.41406V22C14 23.1046 13.1046 24 12 24H5C3.89543 24 3 23.1046 3 22V15.8281C3.00008 15.2978 3.21094 14.7891 3.58594 14.4141L11.5859 6.41406C11.8511 6.14894 12.2109 6 12.5859 6Z" fill="#FF8800"/>
<path d="M21.293 6.29297C21.6834 5.90252 22.3165 5.90262 22.707 6.29297L25.707 9.29297C26.0974 9.6835 26.0975 10.3166 25.707 10.707C25.3166 11.0975 24.6835 11.0974 24.293 10.707L23 9.41406V23C22.9999 23.5521 22.5521 23.9999 22 24C21.4478 23.9999 21.0001 23.5522 21 23V9.41406L19.708 10.707C19.3175 11.0975 18.6835 11.0974 18.293 10.707C17.9027 10.3166 17.9028 9.68346 18.293 9.29297L21.293 6.29297Z" fill="#FF8800"/>
</svg>
