<svg width="30" height="30" viewBox="0 0 30 30" fill="none" xmlns="http://www.w3.org/2000/svg">
<path fill-rule="evenodd" clip-rule="evenodd" d="M9 13.874C10.7252 13.4299 12 11.8638 12 10C12 7.79086 10.2091 6 8 6C5.79086 6 4 7.79086 4 10C4 11.8638 5.27477 13.4299 7 13.874V19.5C7 21.9853 9.01474 24 11.5 24C13.9853 24 16 21.9852 16 19.5V10.5C16 9.11929 17.1193 8 18.5 8C19.8807 8 21 9.11929 21 10.5V16.126C19.2748 16.5701 18 18.1362 18 20C18 22.2091 19.7909 24 22 24C24.2091 24 26 22.2091 26 20C26 18.1362 24.7252 16.5701 23 16.126V10.5C23 8.01472 20.9853 6 18.5 6C16.0147 6 14 8.01472 14 10.5V19.5C14 20.8807 12.8807 22 11.5 22C10.1193 22 9 20.8807 9 19.5V13.874ZM8 12C9.10457 12 10 11.1046 10 10C10 8.89543 9.10457 8 8 8C6.89543 8 6 8.89543 6 10C6 11.1046 6.89543 12 8 12ZM22 22C23.1046 22 24 21.1046 24 20C24 18.8954 23.1046 18 22 18C20.8954 18 20 18.8954 20 20C20 21.1046 20.8954 22 22 22Z" fill="#FF8800"/>
</svg>
