<svg width="30" height="30" viewBox="0 0 30 30" fill="none" xmlns="http://www.w3.org/2000/svg">
<path opacity="0.2" d="M13 7C13.5523 7 14 7.44772 14 8V11H23C23.5523 11 24 11.4477 24 12V23H6V8C6 7.44772 6.44772 7 7 7H13Z" fill="#FF8800"/>
<path d="M17.6172 13.29C17.7371 12.9033 18.2629 12.9033 18.3828 13.29L19.1396 15.7314H21.5967C21.9855 15.7314 22.1484 16.2482 21.835 16.4873L19.8438 18.0039L20.6025 20.4512C20.7222 20.8373 20.2971 21.1566 19.9824 20.917L18 19.4082L16.0176 20.917C15.7029 21.1566 15.2778 20.8373 15.3975 20.4512L16.1562 18.0039L14.165 16.4873C13.8516 16.2482 14.0145 15.7314 14.4033 15.7314H16.8604L17.6172 13.29Z" fill="#FF8800"/>
<path fill-rule="evenodd" clip-rule="evenodd" d="M13 5C14.6569 5 16 6.34315 16 8V9H23C24.6569 9 26 10.3431 26 12V22C26 23.6569 24.6569 25 23 25H7C5.34315 25 4 23.6569 4 22V8C4 6.34315 5.34315 5 7 5H13ZM15.8262 11C15.4141 12.1647 14.3059 13 13 13H6V22C6 22.5523 6.44772 23 7 23H23C23.5523 23 24 22.5523 24 22V12C24 11.4477 23.5523 11 23 11H15.8262ZM7 7C6.44772 7 6 7.44772 6 8V11H13C13.5523 11 14 10.5523 14 10V8C14 7.44772 13.5523 7 13 7H7Z" fill="#FF8800"/>
</svg>
