<svg width="30" height="30" viewBox="0 0 30 30" fill="none" xmlns="http://www.w3.org/2000/svg">
<path fill-rule="evenodd" clip-rule="evenodd" d="M18 3.37793C23.1757 4.71005 27 9.40847 27 15C27 20.5914 23.1756 25.2889 18 26.6211C12.8244 25.2889 9 20.5914 9 15C9 9.40829 12.824 4.71013 18 3.37793ZM16.6191 23.9902C17.0627 24.2068 17.5247 24.391 18.002 24.541C21.8653 23.3266 24.7153 19.831 24.9775 15.6328L16.6191 23.9902ZM13.2275 21.29C13.7135 21.8897 14.2678 22.431 14.8779 22.9043L24.7969 12.9844C24.6222 12.131 24.3359 11.3187 23.959 10.5596L13.2275 21.29ZM11.2412 17.1846C11.4292 18.0281 11.7241 18.8308 12.1104 19.5791L22.8633 8.82617C22.3862 8.21941 21.842 7.66844 21.2393 7.18652L11.2412 17.1846ZM18.002 5.45801C14.0695 6.69252 11.184 10.2905 11.0098 14.5879L19.5186 6.08008C19.0339 5.83409 18.5281 5.62336 18.002 5.45801Z" fill="#FF8800"/>
</svg>
