<svg width="31" height="28" viewBox="0 0 31 28" fill="none" xmlns="http://www.w3.org/2000/svg">
<path fill-rule="evenodd" clip-rule="evenodd" d="M20 6C21.6569 6 23 7.34315 23 9V23C23 24.6569 21.6569 26 20 26H10C8.34314 26 7 24.6569 7 23V9C7 7.34315 8.34315 6 10 6H20ZM21 9V11C21 11.5523 20.5523 12 20 12H10C9.44772 12 9 11.5523 9 11V9C9 8.44772 9.44772 8 10 8H20C20.5523 8 21 8.44772 21 9ZM10 14C9.64936 14 9.31278 13.9398 9 13.8293V23C9 23.5523 9.44772 24 10 24H20C20.5523 24 21 23.5523 21 23V13.8293C20.6872 13.9398 20.3506 14 20 14H10ZM12 17C11.4477 17 11 17.4477 11 18V21C11 21.5523 11.4477 22 12 22H18C18.5523 22 19 21.5523 19 21V18C19 17.4477 18.5523 17 18 17H12Z" fill="#FF8800"/>
<path opacity="0.7" fill-rule="evenodd" clip-rule="evenodd" d="M19 8H11V5C11 3.34315 12.3431 2 14 2H16C17.6569 2 19 3.34315 19 5V8ZM17 5C17 4.44772 16.5523 4 16 4H14C13.4477 4 13 4.44772 13 5V6H17V5Z" fill="#FF8800"/>
</svg>
