<svg width="30" height="30" viewBox="0 0 30 30" fill="none" xmlns="http://www.w3.org/2000/svg">
<path d="M19.0455 9.09303L19.0316 11.1937C19.668 11.0666 20.3262 11 21 11C22.4222 11 23.7751 11.2969 25 11.8321V6.38743C25 5.70487 24.3313 5.2229 23.6838 5.43874L19 7L12 5L5.72528 6.79278C5.29598 6.91543 5 7.30782 5 7.7543V23.6743C5 24.3386 5.6359 24.8183 6.27472 24.6358L11.2462 23.2154C11.0851 22.5028 11 21.7613 11 21C11 19.4354 11.3593 17.9546 12 16.6359V7.08003L19.0455 9.09303Z" fill="#FF8800"/>
<path fill-rule="evenodd" clip-rule="evenodd" d="M29 21C29 25.4183 25.4183 29 21 29C16.5817 29 13 25.4183 13 21C13 16.5817 16.5817 13 21 13C25.4183 13 29 16.5817 29 21ZM24.7071 21.2929C25.0976 21.6834 25.0976 22.3166 24.7071 22.7071L21.7071 25.7071C21.3166 26.0976 20.6834 26.0976 20.2929 25.7071L17.2929 22.7071C16.9024 22.3166 16.9024 21.6834 17.2929 21.2929C17.6834 20.9024 18.3166 20.9024 18.7071 21.2929L20 22.5858V17C20 16.4477 20.4477 16 21 16C21.5523 16 22 16.4477 22 17V22.5858L23.2929 21.2929C23.6834 20.9024 24.3166 20.9024 24.7071 21.2929Z" fill="#FF8800"/>
</svg>
