<svg width="100" height="180" viewBox="0 0 100 180" fill="none" xmlns="http://www.w3.org/2000/svg">
<path d="M8.3642e-07 25.6C8.95065e-07 16.6392 9.53674e-07 12.1587 1.7439 8.73615C3.27787 5.72555 5.72556 3.27787 8.73616 1.74389C12.1587 -3.33786e-06 16.6392 -2.20445e-06 25.6 4.96971e-09L74.4 1.20373e-05C83.3608 1.42467e-05 87.8413 1.52588e-05 91.2638 1.74391C94.2744 3.27789 96.7221 5.72557 98.2561 8.73617C100 12.1588 100 16.6392 100 25.6V154.4C100 163.361 100 167.841 98.2561 171.264C96.7221 174.274 94.2744 176.722 91.2639 178.256C87.8413 180 83.3608 180 74.4 180L25.6 180C16.6392 180 12.1587 180 8.73616 178.256C5.72556 176.722 3.27787 174.274 1.7439 171.264C-1.19209e-07 167.841 -5.86236e-08 163.361 0 154.4L8.3642e-07 25.6Z" fill="#575062"/>
<path d="M4 23.2C4 16.4794 4 13.1191 5.30792 10.5521C6.4584 8.29417 8.29417 6.4584 10.5521 5.30792C13.1191 4 16.4794 4 23.2 4H76.8C83.5206 4 86.8809 4 89.4479 5.30792C91.7058 6.4584 93.5416 8.29417 94.6921 10.5521C96 13.1191 96 16.4794 96 23.2V156.8C96 163.521 96 166.881 94.6921 169.448C93.5416 171.706 91.7058 173.542 89.4479 174.692C86.8809 176 83.5206 176 76.8 176H23.2C16.4794 176 13.1191 176 10.5521 174.692C8.29417 173.542 6.4584 171.706 5.30792 169.448C4 166.881 4 163.521 4 156.8V23.2Z" fill="#162537"/>
<path d="M59 156C60.1046 156 61 156.895 61 158V164C61 165.105 60.1046 166 59 166H28C26.8954 166 26 165.105 26 164V158C26 156.895 26.8954 156 28 156H59Z" fill="#E5BF00"/>
<path d="M62 22C63.1046 22 64 22.8954 64 24V41C64 42.1046 63.1046 43 62 43H41C39.8954 43 39 42.1046 39 41V24C39 22.8954 39.8954 22 41 22H62Z" fill="#E5BF00"/>
<path d="M96 31H72C70.8954 31 70 30.1046 70 29V24C70 22.8954 70.8954 22 72 22H96V31Z" fill="#E5BF00"/>
<path d="M17.9999 156C19.1044 156 19.9999 156.895 19.9999 158V164C19.9999 165.105 19.1044 166 17.9999 166H11.9999C10.8953 166 9.99988 165.105 9.99988 164V158C9.99988 156.895 10.8953 156 11.9999 156H17.9999Z" fill="#EDF2F8"/>
<path d="M71.9999 156C74.7613 156 76.9999 158.239 76.9999 161C76.9999 163.761 74.7613 166 71.9999 166C69.2385 166 66.9999 163.761 66.9999 161C66.9999 158.239 69.2385 156 71.9999 156Z" fill="#EDF2F8"/>
<path d="M84.9999 156C87.7613 156 89.9999 158.239 89.9999 161C89.9999 163.761 87.7613 166 84.9999 166C82.2385 166 79.9999 163.761 79.9999 161C79.9999 158.239 82.2385 156 84.9999 156Z" fill="#EDF2F8"/>
<path d="M84.9999 143C87.7613 143 89.9999 145.239 89.9999 148C89.9999 150.761 87.7613 153 84.9999 153C82.2385 153 79.9999 150.761 79.9999 148C79.9999 145.239 82.2385 143 84.9999 143Z" fill="#EDF2F8"/>
<path d="M14.9999 35C17.7613 35 19.9999 37.2386 19.9999 40C19.9999 42.7614 17.7613 45 14.9999 45C12.2385 45 9.99988 42.7614 9.99988 40C9.99988 37.2386 12.2385 35 14.9999 35Z" fill="#EDF2F8"/>
<path d="M14.9999 22C17.7613 22 19.9999 24.2386 19.9999 27C19.9999 29.7614 17.7613 32 14.9999 32C12.2385 32 9.99988 29.7614 9.99988 27C9.99988 24.2386 12.2385 22 14.9999 22Z" fill="#EDF2F8"/>
<path d="M27.9999 22C30.7613 22 32.9999 24.2386 32.9999 27C32.9999 29.7614 30.7613 32 27.9999 32C25.2385 32 22.9999 29.7614 22.9999 27C22.9999 24.2386 25.2385 22 27.9999 22Z" fill="#EDF2F8"/>
<path d="M40 13C40 11.3431 41.3431 10 43 10H57C58.6569 10 60 11.3431 60 13C60 14.6569 58.6569 16 57 16H43C41.3431 16 40 14.6569 40 13Z" fill="#575062"/>
</svg>
