<svg width="30" height="30" viewBox="0 0 30 30" fill="none" xmlns="http://www.w3.org/2000/svg">
<path d="M17 18C17 19.1046 16.1046 20 15 20C13.8954 20 13 19.1046 13 18C13 16.3333 15 14 15 14C15 14 17 16.3333 17 18Z" fill="#FF8800"/>
<path fill-rule="evenodd" clip-rule="evenodd" d="M11.2975 8.95495L11.3163 8.94871C11.8402 8.77406 12.1234 8.20774 11.9487 7.6838C11.7741 7.15986 11.2077 6.8767 10.6838 7.05134L7.6838 8.05134C7.15986 8.22599 6.8767 8.79231 7.05134 9.31625C7.22599 9.8402 7.79231 10.1234 8.31625 9.94871L8.44656 9.90527L8.66275 10.4457L8.36754 10.5442C8.23478 10.5884 8.10903 10.6457 7.99154 10.7142C7.38631 11.0674 7 11.7206 7 12.4415V23C7 24.1046 7.89543 25 9 25H21C22.1046 25 23 24.1046 23 23V7C23 5.89543 22.1046 5 21 5H15.5616C14.6438 5 13.8439 5.62459 13.6213 6.51493L13.0299 8.88057L13.0276 8.88988C13.0189 8.92622 13.0122 8.96298 13.0076 9L13.0062 9.01226L12.9965 9.01383C12.9456 9.0224 12.8952 9.03492 12.846 9.05132L11.5137 9.49543L11.2975 8.95495ZM21 11H13.3246L9 12.4415V23H21V11ZM21 9V7H15.5616L15.0616 9H21Z" fill="#FF8800"/>
</svg>
