<svg width="30" height="30" viewBox="0 0 30 30" fill="none" xmlns="http://www.w3.org/2000/svg">
<path d="M23.0002 20H26.0002L21.0002 27V22H18.0002L23.0002 15V20Z" fill="#FF8800"/>
<path d="M24.8937 7C26.6696 7.00019 28.0575 8.53481 27.8791 10.3018L27.505 14H25.4953L25.8888 10.1006C25.9483 9.51169 25.4856 9.00019 24.8937 9H5.10661C4.51459 9 4.05199 9.51156 4.11149 10.1006L5.02067 19.1006C5.0691 19.5793 5.44975 19.9505 5.92008 19.9951L6.01579 20H11.3332C11.6551 20.0002 11.9242 20.2286 11.9865 20.5322L12.007 20.7344C12.0383 20.8859 12.1724 20.9998 12.3332 21H16.0002V23H12.3332C11.5408 22.9999 10.8417 22.6039 10.4201 22H6.01579C4.47578 22 3.18534 20.8339 3.03043 19.3018L2.12125 10.3018C1.94276 8.53469 3.33054 7 5.10661 7H24.8937Z" fill="#FF8800"/>
<path d="M8.00016 18H7.00016V17H8.00016V18Z" fill="#FF8800"/>
<path d="M10.0002 18H9.00016V17H10.0002V18Z" fill="#FF8800"/>
<path d="M12.0002 18H11.0002V17H12.0002V18Z" fill="#FF8800"/>
<path d="M14.0002 18H13.0002V17H14.0002V18Z" fill="#FF8800"/>
<path d="M16.0002 15H7.50016C7.22402 15 7.00016 14.7761 7.00016 14.5C7.00016 14.2239 7.22402 14 7.50016 14H16.0002V15Z" fill="#FF8800"/>
<path d="M8.00016 12H7.00016V11H8.00016V12Z" fill="#FF8800"/>
<path d="M10.0002 12H9.00016V11H10.0002V12Z" fill="#FF8800"/>
<path d="M12.0002 12H11.0002V11H12.0002V12Z" fill="#FF8800"/>
<path d="M14.0002 12H13.0002V11H14.0002V12Z" fill="#FF8800"/>
<path d="M17.0002 12H16.0002V11H17.0002V12Z" fill="#FF8800"/>
<path d="M19.0002 12H18.0002V11H19.0002V12Z" fill="#FF8800"/>
<path d="M21.0002 12H20.0002V11H21.0002V12Z" fill="#FF8800"/>
<path d="M23.0002 12H22.0002V11H23.0002V12Z" fill="#FF8800"/>
</svg>
