<svg width="30" height="30" viewBox="0 0 30 30" fill="none" xmlns="http://www.w3.org/2000/svg">
<path d="M30 15C30 23.2843 23.2843 30 15 30C6.71573 30 0 23.2843 0 15C0 6.71573 6.71573 0 15 0C23.2843 0 30 6.71573 30 15Z" fill="#0CC458"/>
<path d="M6.63039 14.0366C6.13065 14.1858 6.05822 14.7709 6.45424 14.996C6.59575 15.0765 12.4383 18.3229 12.6765 18.4546C12.9146 18.5863 13.1982 18.512 13.3426 18.2889C13.4259 18.1602 13.6555 17.7637 13.8349 17.4513C13.9664 17.2222 13.8415 16.8989 13.617 16.7869C13.4815 16.7194 12.6364 16.2473 11.9645 15.8721C11.5222 15.625 11.155 15.4199 11.1149 15.3998C10.6315 15.1577 10.8055 14.5827 11.1636 14.4584L12.9769 13.8286C13.1592 13.7653 13.3152 13.6023 13.3767 13.413L13.9792 11.5598C14.1625 10.996 14.7079 11.1298 14.8889 11.4787C15.0343 11.759 15.2646 12.1918 15.4955 12.626C15.8397 13.273 16.1855 13.923 16.2545 14.0755C16.3698 14.3303 16.6118 14.4448 16.8643 14.2803C16.9235 14.2418 17.0295 14.1765 17.1507 14.1018C17.3154 14.0004 17.5082 13.8816 17.6497 13.7892C17.8952 13.6289 17.965 13.3509 17.8566 13.0999C17.7821 12.9273 16.2849 10.0725 15.3315 8.25441C14.8992 7.43017 14.5787 6.81901 14.5531 6.76745C14.3225 6.30202 13.7567 6.30379 13.6004 6.78455L11.9296 11.9239C11.8666 12.1177 11.7201 12.2696 11.5326 12.3356C10.4921 12.7018 7.05379 13.9102 6.63039 14.0366Z" fill="white"/>
<path d="M22.2867 23.7731C22.0519 23.6403 14.6127 19.5131 14.3059 19.3488C13.9992 19.1845 13.9244 18.9021 14.0886 18.5961C14.172 18.4404 14.353 18.13 14.5005 17.8798C14.7033 17.5357 14.999 17.5347 15.1659 17.6367C15.2694 17.7 16.2174 18.2252 16.9589 18.6359C17.4128 18.8873 17.7892 19.0958 17.8472 19.1293C18.2078 19.3376 18.7396 18.8608 18.5011 18.443C18.3872 18.2435 17.3919 16.3399 17.0756 15.7124C16.9318 15.4269 16.9711 15.1701 17.2918 14.9993C17.4505 14.9147 17.7345 14.7382 17.9808 14.5815C18.2323 14.4214 18.5671 14.5417 18.7031 14.7802C18.7929 14.9374 20.5758 18.3766 21.8165 20.77C22.4572 22.0059 22.9534 22.963 22.9972 23.0453C23.2525 23.5251 22.7559 24.0384 22.2867 23.7731Z" fill="white"/>
</svg>
