<svg width="30" height="30" viewBox="0 0 30 30" fill="none" xmlns="http://www.w3.org/2000/svg">
<path d="M7 25C5.89543 25 5 24.1046 5 23V7C5 5.89543 5.89543 5 7 5H9C9.53043 5 10.0391 5.21071 10.4142 5.58579L19.375 14.5465C19.8867 13.6242 20.8705 13 22 13C23.6569 13 25 14.3431 25 16V23C25 24.1046 24.1046 25 23 25H7Z" fill="#505762"/>
<path d="M7 7H9L12.1287 10.1287C11.6712 10.2671 11.2403 10.5171 10.8787 10.8787C9.70711 12.0503 9.70711 13.9497 10.8787 15.1213L14.9473 19.1899C13.8097 19.6163 13 20.7136 13 22C13 22.3506 13.0602 22.6872 13.1707 23H7V7Z" fill="#4C956C"/>
<path fill-rule="evenodd" clip-rule="evenodd" d="M12.2929 12.2929C12.6834 11.9024 13.3166 11.9024 13.7071 12.2929L21 19.5858V16C21 15.4477 21.4477 15 22 15C22.5523 15 23 15.4477 23 16V22C23 22.5523 22.5523 23 22 23H16C15.4477 23 15 22.5523 15 22C15 21.4477 15.4477 21 16 21H19.5858L12.2929 13.7071C11.9024 13.3166 11.9024 12.6834 12.2929 12.2929Z" fill="#FFC107"/>
</svg>
