<svg width="30" height="30" viewBox="0 0 30 30" fill="none" xmlns="http://www.w3.org/2000/svg">
<path d="M9.00003 5C9.53023 5 10.0391 5.21019 10.4141 5.58496L18 13.1709V8C18 6.34315 19.3432 5 21 5C22.6569 5.00002 24 6.34316 24 8V16C24.7678 16 25.5353 16.2931 26.1211 16.8789C27.2927 18.0505 27.2927 19.9495 26.1211 21.1211L23.1211 24.1211C22.5353 24.7069 21.7677 25 21 25H7.00003C5.89557 25 5.00022 24.1044 5.00003 23V7C5.00021 5.89558 5.89557 5 7.00003 5H9.00003Z" fill="#404040"/>
<path d="M18 16L17.7129 16.0137C17.0435 16.0777 16.3916 16.3662 15.8789 16.8789C14.7074 18.0505 14.7074 19.9495 15.8789 21.1211L17.7578 23H7.00003V7H9.00003L18 16Z" fill="#38A969"/>
<path d="M24.707 18.293C25.0975 18.6835 25.0975 19.3165 24.707 19.707L21.707 22.707C21.3165 23.0976 20.6835 23.0976 20.293 22.707L17.293 19.707C16.9024 19.3165 16.9024 18.6835 17.293 18.293C17.6835 17.9024 18.3165 17.9024 18.707 18.293L20 19.5859V8C20 7.44772 20.4477 7 21 7C21.5523 7 22 7.44772 22 8V19.5859L23.293 18.293C23.6835 17.9024 24.3165 17.9024 24.707 18.293Z" fill="white"/>
</svg>
