<svg width="30" height="30" viewBox="0 0 30 30" fill="none" xmlns="http://www.w3.org/2000/svg">
<path opacity="0.5" fill-rule="evenodd" clip-rule="evenodd" d="M20 2C21.6569 2 23 3.34315 23 5V25C23 26.6569 21.6569 28 20 28H10C8.34315 28 7 26.6569 7 25V5C7 3.34315 8.34314 2 10 2H20ZM20 26H10C9.45761 25.9742 9 25.5649 9 25V5C9 4.44772 9.44772 4 10 4H20C20.5523 4 21 4.44772 21 5V25C21 25.5649 20.5424 25.9742 20 26Z" fill="#FF8800"/>
<path opacity="0.2" d="M9 5C9 4.44772 9.44772 4 10 4H20C20.5523 4 21 4.44772 21 5V25C21 25.5523 20.5523 26 20 26H10C9.44772 26 9 25.5523 9 25V5Z" fill="#FF8800"/>
<path d="M21 25C21 25.5523 20.5523 26 20 26H10C9.44772 26 9 25.5523 9 25V23H21V25Z" fill="#FF8800"/>
<path d="M20 4C20.5523 4 21 4.44772 21 5V10H9V5C9 4.44772 9.44772 4 10 4H20Z" fill="#FF8800"/>
</svg>
