<svg width="30" height="30" viewBox="0 0 30 30" fill="none" xmlns="http://www.w3.org/2000/svg">
<path d="M15 20C15.5523 20 16 20.4477 16 21V26C16 26.5523 15.5523 27 15 27C14.4477 27 14 26.5523 14 26V21C14 20.4477 14.4477 20 15 20Z" fill="#FF8800"/>
<path d="M10.0498 18.5361C10.4403 18.1457 11.0734 18.1457 11.4639 18.5361C11.8543 18.9266 11.8543 19.5597 11.4639 19.9502L10.0498 21.3643C9.65926 21.7544 9.02614 21.7546 8.63574 21.3643C8.24536 20.9739 8.24562 20.3407 8.63574 19.9502L10.0498 18.5361Z" fill="#FF8800"/>
<path d="M18.5352 18.5361C18.9256 18.1457 19.5587 18.1458 19.9492 18.5361L21.3633 19.9502C21.7538 20.3407 21.7538 20.9737 21.3633 21.3643C20.9727 21.7543 20.3396 21.7546 19.9492 21.3643L18.5352 19.9502C18.1449 19.5598 18.1451 18.9266 18.5352 18.5361Z" fill="#FF8800"/>
<path d="M15 12C16.6569 12 18 13.3431 18 15C18 16.6569 16.6569 18 15 18C13.3431 18 12 16.6569 12 15C12 13.3431 13.3431 12 15 12Z" fill="#FF8800"/>
<path d="M9 14C9.55228 14 10 14.4477 10 15C10 15.5523 9.55228 16 9 16H4C3.44772 16 3 15.5523 3 15C3 14.4477 3.44772 14 4 14H9Z" fill="#FF8800"/>
<path d="M26 14C26.5523 14 27 14.4477 27 15C27 15.5523 26.5523 16 26 16H21C20.4477 16 20 15.5523 20 15C20 14.4477 20.4477 14 21 14H26Z" fill="#FF8800"/>
<path d="M8.63574 8.63672C9.02625 8.24622 9.65928 8.24626 10.0498 8.63672L11.4639 10.0508C11.8544 10.4413 11.8544 11.0743 11.4639 11.4648C11.0733 11.8549 10.4402 11.8552 10.0498 11.4648L8.63574 10.0508C8.24543 9.66041 8.2457 9.02726 8.63574 8.63672Z" fill="#FF8800"/>
<path d="M19.9492 8.63672C20.3397 8.24623 20.9728 8.24622 21.3633 8.63672C21.7537 9.02723 21.7538 9.66027 21.3633 10.0508L19.9492 11.4648C19.5587 11.855 18.9256 11.8552 18.5352 11.4648C18.1448 11.0745 18.145 10.4413 18.5352 10.0508L19.9492 8.63672Z" fill="#FF8800"/>
<path d="M15 3C15.5523 3 16 3.44772 16 4V9C16 9.55228 15.5523 10 15 10C14.4477 10 14 9.55228 14 9V4C14 3.44772 14.4477 3 15 3Z" fill="#FF8800"/>
</svg>
