<svg width="30" height="30" viewBox="0 0 30 30" fill="none" xmlns="http://www.w3.org/2000/svg">
<path fill-rule="evenodd" clip-rule="evenodd" d="M25 5C26.1046 5 27 5.89543 27 7V21C27 22.1046 26.1046 23 25 23H19.2422L15.5 26.7422L11.7578 23H5C3.89543 23 3 22.1046 3 21V7C3 5.89543 3.89543 5 5 5H25ZM19.708 9.29199C19.319 8.90322 18.6878 8.90306 18.2988 9.29199L14.999 12.5908L11.7002 9.29199C11.3112 8.90322 10.6809 8.90306 10.292 9.29199C9.90319 9.68093 9.90326 10.3112 10.292 10.7002L13.5908 13.999L10.291 17.2988C9.90218 17.6877 9.90249 18.319 10.291 18.708C10.68 19.097 11.3112 19.097 11.7002 18.708L15 15.4082L18.2998 18.708C18.6888 19.0968 19.319 19.0968 19.708 18.708C20.097 18.319 20.097 17.6878 19.708 17.2988L16.4082 13.999L19.708 10.7002C20.0969 10.3113 20.0968 9.68101 19.708 9.29199Z" fill="#FF8800"/>
</svg>
