<svg width="30" height="30" viewBox="0 0 30 30" fill="none" xmlns="http://www.w3.org/2000/svg">
<path d="M22 7.54004C22 8.64461 21.1046 9.54004 20 9.54004C18.8954 9.54004 18 8.64461 18 7.54004C18 6.43547 18.8954 5.54004 20 5.54004C21.1046 5.54004 22 6.43547 22 7.54004Z" fill="#FF8800"/>
<path d="M15 20H17C17 22.76 14.76 25 12 25C9.24 25 7 22.76 7 20C7 17.24 9.24 15 12 15V17C10.35 17 9 18.35 9 20C9 21.65 10.35 23 12 23C13.65 23 15 21.65 15 20Z" fill="#FF8800"/>
<path d="M18.14 16.5H20C21.1 16.5 22 17.4 22 18.5V24H20V19H15.02C13.56 19 12.57 17.43 13.17 16.1L15 12H12.79L12.14 13.53L10.22 13L10.89 11.2C11.22 10.47 11.95 10 12.76 10H17.96C19.44 10 20.42 11.5 19.81 12.83L18.14 16.5Z" fill="#FF8800"/>
</svg>
