<svg width="30" height="30" viewBox="0 0 30 30" fill="none" xmlns="http://www.w3.org/2000/svg">
<path fill-rule="evenodd" clip-rule="evenodd" d="M21 28C24.866 28 28 24.866 28 21C28 17.134 24.866 14 21 14C17.134 14 14 17.134 14 21C14 24.866 17.134 28 21 28ZM20.189 18.1181C20.0655 18.0409 19.9228 18 19.7771 18C19.3479 18 19 18.3479 19 18.7771V23.2229C19 23.6521 19.3479 24 19.7771 24C19.9228 24 20.0655 23.9591 20.189 23.8819L23.576 21.765C23.8398 21.6001 24 21.311 24 21C24 20.689 23.8398 20.3999 23.576 20.235L20.189 18.1181Z" fill="#FF8800"/>
</svg>
