<svg width="30" height="30" viewBox="0 0 30 30" fill="none" xmlns="http://www.w3.org/2000/svg">
<mask id="path-1-outside-1_1903_16627" maskUnits="userSpaceOnUse" x="3" y="6" width="24" height="18" fill="black">
<rect fill="white" x="3" y="6" width="24" height="18"/>
<path fill-rule="evenodd" clip-rule="evenodd" d="M8 8C7.44772 8 7 8.44772 7 9V20H5V21C5 21.5523 5.40701 22 5.90909 22H24.0909C24.593 22 25 21.5523 25 21V20H23V9C23 8.44772 22.5523 8 22 8H8Z"/>
</mask>
<path fill-rule="evenodd" clip-rule="evenodd" d="M8 8C7.44772 8 7 8.44772 7 9V20H5V21C5 21.5523 5.40701 22 5.90909 22H24.0909C24.593 22 25 21.5523 25 21V20H23V9C23 8.44772 22.5523 8 22 8H8Z" fill="#393E46"/>
<path d="M7 20V22H9V20H7ZM5 20V18H3V20H5ZM25 20H27V18H25V20ZM23 20H21V22H23V20ZM9 9C9 9.55229 8.55228 10 8 10V6C6.34315 6 5 7.34314 5 9H9ZM9 20V9H5V20H9ZM5 22H7V18H5V22ZM7 21V20H3V21H7ZM5.90909 20C6.68669 20 7 20.6314 7 21H3C3 22.4732 4.12733 24 5.90909 24V20ZM24.0909 20H5.90909V24H24.0909V20ZM23 21C23 20.6314 23.3133 20 24.0909 20V24C25.8727 24 27 22.4732 27 21H23ZM23 20V21H27V20H23ZM23 22H25V18H23V22ZM21 9V20H25V9H21ZM22 10C21.4477 10 21 9.55229 21 9H25C25 7.34315 23.6569 6 22 6V10ZM8 10H22V6H8V10Z" fill="#393E46" mask="url(#path-1-outside-1_1903_16627)"/>
<path d="M5 19H4V20V21C4 22.0127 4.76717 23 5.90909 23H24.0909C25.2328 23 26 22.0127 26 21V20V19H25H5Z" stroke="#2E3238" stroke-width="2"/>
<path d="M5 20H25V21C25 21.5523 24.593 22 24.0909 22H5.90909C5.40701 22 5 21.5523 5 21V20Z" fill="#797979"/>
<path opacity="0.7" d="M7 9C7 8.44772 7.44772 8 8 8H22C22.5523 8 23 8.44772 23 9V20H7V9Z" fill="black"/>
<path d="M17 10H9V12H17V10Z" fill="#3EB52A"/>
<path d="M21 10H19V12H21V10Z" fill="#3EB52A"/>
<path d="M9 14H12V16H9V14Z" fill="#3EB52A"/>
<path d="M21 14H14V16H21V14Z" fill="#3EB52A"/>
</svg>
