<svg width="30" height="30" viewBox="0 0 30 30" fill="none" xmlns="http://www.w3.org/2000/svg">
<path d="M12 11V9H14V11H12Z" fill="#FF8800"/>
<path fill-rule="evenodd" clip-rule="evenodd" d="M12 13V15H14V13H16V15H18V13H20V11H18V9H16V11H14V13H12ZM16 11H18V13H16V11Z" fill="#FF8800"/>
<path d="M12 13H10V11H12V13Z" fill="#FF8800"/>
<path fill-rule="evenodd" clip-rule="evenodd" d="M6 4C6 3.44772 6.44772 3 7 3C7.55228 3 8 3.44772 8 4V5H22C23.1046 5 24 5.89543 24 7V17C24 18.1046 23.1046 19 22 19H8V26C8 26.5523 7.55228 27 7 27C6.44772 27 6 26.5523 6 26V4ZM8 7H10V9H8V7ZM12 9H10V11H8V13H10V15H8V17H10V15H12V17H14V15H16V17H18V15H20V17H22V15H20V13H22V11H20V9H22V7H20V9H18V7H16V9H14V7H12V9Z" fill="#FF8800"/>
</svg>
