<svg width="30" height="30" viewBox="0 0 30 30" fill="none" xmlns="http://www.w3.org/2000/svg">
<path d="M9.78042 13H20.2196C20.6506 13 21 12.6506 21 12.2196C21 12.076 20.9604 11.9352 20.8855 11.8126L15.7607 3.42664C15.5988 3.16163 15.3106 3 15 3C14.6894 3 14.4012 3.16163 14.2393 3.42664L9.1145 11.8126C9.03962 11.9352 9 12.076 9 12.2196C9 12.6506 9.3494 13 9.78042 13Z" fill="#E21F2A"/>
<g opacity="0.5">
<path d="M6 14C6.55228 14 7 14.4477 7 15C7 15.5523 6.55228 16 6 16H4C3.44772 16 3 15.5523 3 15C3 14.4477 3.44772 14 4 14H6Z" fill="#545454"/>
<path d="M26 14C26.5523 14 27 14.4477 27 15C27 15.5523 26.5523 16 26 16H24C23.4477 16 23 15.5523 23 15C23 14.4477 23.4477 14 24 14H26Z" fill="#545454"/>
</g>
<path d="M20 15C20.5523 15 21 15.4477 21 16V26C21 26.5523 20.5523 27 20 27C19.9892 27 19.9785 26.9984 19.9678 26.998C19.9583 26.9983 19.9489 27 19.9395 27C19.6582 27 19.3884 26.8883 19.1895 26.6895L11 18.5V26C11 26.5523 10.5523 27 10 27C9.44772 27 9 26.5523 9 26V16C9 15.4477 9.44772 15 10 15C10.0105 15 10.0209 15.0007 10.0312 15.001C10.041 15.0007 10.0507 15 10.0605 15C10.3418 15 10.6116 15.1117 10.8105 15.3105L19 23.5V16C19 15.4477 19.4477 15 20 15Z" fill="#545454"/>
</svg>
