<svg width="50" height="50" viewBox="0 0 50 50" fill="none" xmlns="http://www.w3.org/2000/svg">
<path d="M40.4279 6.23698C40.2112 6.0203 39.8907 5.94464 39.6 6.04154L22.2243 11.8334C22.1052 11.8732 21.9969 11.9401 21.9081 12.0289C21.5921 12.3448 21.5921 12.8571 21.9081 13.173L21.9547 13.2197C22.0134 13.2783 22.08 13.3283 22.1527 13.3681L26.0942 15.5296C23.5738 17.9007 22 21.2665 22 25V45H28V25C28 22.8078 29.0077 20.851 30.5851 19.5675L33.2967 24.5122C33.3366 24.5849 33.3866 24.6515 33.4452 24.7101L33.4919 24.7568C33.8078 25.0727 34.3201 25.0727 34.636 24.7568C34.7248 24.668 34.7917 24.5597 34.8314 24.4406L40.6233 7.06487C40.7202 6.77416 40.6446 6.45366 40.4279 6.23698Z" fill="black"/>
</svg>
