<svg width="30" height="30" viewBox="0 0 30 30" fill="none" xmlns="http://www.w3.org/2000/svg">
<g opacity="0.2">
<path d="M23.9339 19.4977C24.6159 18.1457 25 16.6177 25 15C25 13.6863 24.7467 12.4318 24.2863 11.2827C24.9049 10.851 25.3959 10.2488 25.691 9.54435C26.5279 11.1811 27 13.0354 27 15C27 17.1609 26.4288 19.1883 25.4293 20.9397C25.0667 20.3375 24.5501 19.8387 23.9339 19.4977Z" fill="#FF8800"/>
<path d="M20.4557 4.30902C19.7512 4.60414 19.149 5.09507 18.7173 5.71374C17.5682 5.25331 16.3137 5 15 5C13.5183 5 12.1119 5.32225 10.847 5.90048C10.6577 5.23692 10.3013 4.6438 9.82634 4.16948C11.3929 3.41981 13.1474 3 15 3C16.9646 3 18.8189 3.47209 20.4557 4.30902Z" fill="#FF8800"/>
<path d="M18.2719 24.4525C17.2467 24.8073 16.1459 25 15 25C13.6859 25 12.4311 24.7465 11.2817 24.2859C10.6345 24.7361 9.84809 25 9 25C8.74852 25 8.50246 24.9768 8.26385 24.9324C10.1843 26.2374 12.5031 27 15 27C16.5929 27 18.1134 26.6896 19.5042 26.126C18.9586 25.6899 18.5298 25.114 18.2719 24.4525Z" fill="#FF8800"/>
<path d="M5.0676 21.7362C3.7626 19.8157 3 17.4969 3 15C3 13.1474 3.41981 11.3929 4.16948 9.82634C4.6438 10.3013 5.23692 10.6577 5.90048 10.847C5.32225 12.1119 5 13.5183 5 15C5 16.314 5.25345 17.5689 5.71414 18.7183C5.26393 19.3655 5 20.1519 5 21C5 21.2515 5.02321 21.4975 5.0676 21.7362Z" fill="#FF8800"/>
</g>
<g opacity="0.5">
<path d="M18.0208 7.58996C17.0887 7.20961 16.0688 7 15 7C10.5817 7 7 10.5817 7 15C7 15.8193 7.12317 16.6099 7.352 17.3542C7.85454 17.1267 8.41248 17 9 17C9.11679 17 9.23242 17.005 9.34667 17.0148C9.12222 16.3851 9 15.7068 9 15C9 11.6863 11.6863 9 15 9C16.4066 9 17.7002 9.48402 18.7232 10.2946C18.2675 9.64502 18 8.85375 18 8C18 7.86156 18.007 7.72477 18.0208 7.58996Z" fill="#FF8800"/>
<path d="M22 12C22.1384 12 22.2752 11.993 22.41 11.9792C22.7904 12.9113 23 13.9312 23 15C23 19.4183 19.4183 23 15 23C14.1807 23 13.3901 22.8768 12.6458 22.648C12.8733 22.1455 13 21.5875 13 21C13 20.8832 12.995 20.7676 12.9852 20.6533C13.6149 20.8778 14.2932 21 15 21C18.3137 21 21 18.3137 21 15C21 13.5934 20.516 12.2998 19.7054 11.2768C20.355 11.7325 21.1463 12 22 12Z" fill="#FF8800"/>
</g>
<circle opacity="0.6" cx="7" cy="7" r="2" fill="#FF8800"/>
<circle cx="15" cy="15" r="3" fill="#FF8800"/>
<g opacity="0.8">
<path d="M24 8C24 9.10457 23.1046 10 22 10C20.8954 10 20 9.10457 20 8C20 6.89543 20.8954 6 22 6C23.1046 6 24 6.89543 24 8Z" fill="#FF8800"/>
<path d="M24 23C24 24.1046 23.1046 25 22 25C20.8954 25 20 24.1046 20 23C20 21.8954 20.8954 21 22 21C23.1046 21 24 21.8954 24 23Z" fill="#FF8800"/>
<path d="M9 23C10.1046 23 11 22.1046 11 21C11 19.8954 10.1046 19 9 19C7.89543 19 7 19.8954 7 21C7 22.1046 7.89543 23 9 23Z" fill="#FF8800"/>
</g>
</svg>
