<svg width="30" height="30" viewBox="0 0 30 30" fill="none" xmlns="http://www.w3.org/2000/svg">
<path opacity="0.6" d="M26.5 12.5C26.5 13.3284 25.8284 14 25 14C24.1716 14 23.5 13.3284 23.5 12.5C23.5 11.6716 24.1716 11 25 11C25.8284 11 26.5 11.6716 26.5 12.5Z" fill="#FF8800"/>
<circle opacity="0.4" cx="8.5" cy="11.5" r="1.5" fill="#FF8800"/>
<path opacity="0.5" fill-rule="evenodd" clip-rule="evenodd" d="M8 22V19H10V22H8Z" fill="#FF8800"/>
<path d="M9 15C7.89543 15 7 15.8954 7 17V19C7 20.1046 7.89543 21 9 21C10.1046 21 11 20.1046 11 19V17C11 15.8954 10.1046 15 9 15Z" fill="#FF8800"/>
<path d="M23 15H21V17H23V15Z" fill="#FF8800"/>
<path fill-rule="evenodd" clip-rule="evenodd" d="M6 6H24C25.6569 6 27 7.34315 27 9V21C27 22.6569 25.6569 24 24 24H6C4.34315 24 3 22.6569 3 21V9C3 7.34315 4.34314 6 6 6ZM6 8C5.44772 8 5 8.44772 5 9V21C5 21.5523 5.44772 22 6 22H17L17.0002 13.535L16.5547 13.8321C16.0952 14.1384 15.4743 14.0142 15.1679 13.5547C14.8616 13.0952 14.9858 12.4743 15.4453 12.168L21.6972 8H6ZM21 22H19L19.0003 12.2017L24.7664 8.3576C24.9122 8.53136 25 8.75542 25 9V21C25 21.5523 24.5523 22 24 22H23V19H21V22Z" fill="#FF8800"/>
</svg>
