<svg width="30" height="30" viewBox="0 0 30 30" fill="none" xmlns="http://www.w3.org/2000/svg">
<path opacity="0.5" fill-rule="evenodd" clip-rule="evenodd" d="M24 24.5L24 21.5C24 20.1193 22.8807 19 21.5 19L8.5 19C7.11929 19 6 20.1193 6 21.5L6 24.5C6 25.8807 7.11929 27 8.5 27L21.5 27C22.8807 27 24 25.8807 24 24.5ZM22 24.5C22 24.7761 21.7761 25 21.5 25L8.5 25C8.22386 25 8 24.7761 8 24.5L8 21.5C8 21.2239 8.22386 21 8.5 21L21.5 21C21.7761 21 22 21.2239 22 21.5L22 24.5Z" fill="#FF8800"/>
<path fill-rule="evenodd" clip-rule="evenodd" d="M24 15C24 16.1046 23.1046 17 22 17L8 17C6.89543 17 6 16.1046 6 15L6 5C6 3.89543 6.89543 3 8 3L22 3C23.1046 3 24 3.89543 24 5L24 15ZM16 6C16 5.44772 15.5523 5 15 5C14.4477 5 14 5.44772 14 6L14 9L11 9C10.4477 9 10 9.44772 10 10C10 10.5523 10.4477 11 11 11L14 11L14 14C14 14.5523 14.4477 15 15 15C15.5523 15 16 14.5523 16 14L16 11L19 11C19.5523 11 20 10.5523 20 10C20 9.44771 19.5523 9 19 9L16 9L16 6Z" fill="#FF8800"/>
</svg>
