<svg width="30" height="30" viewBox="0 0 30 30" fill="none" xmlns="http://www.w3.org/2000/svg">
<g clip-path="url(#clip0_1903_9257)">
<path d="M7 5H23V19H7V5Z" fill="#3E3E42"/>
<path d="M7 5H9V25H7V5Z" fill="#4D65F8"/>
<path fill-rule="evenodd" clip-rule="evenodd" d="M9 17H21V7H9V17Z" fill="white"/>
<path d="M11 7H13V9H11V7Z" fill="#3E3E42"/>
<path d="M11 11V9H9V11H11Z" fill="#3E3E42"/>
<path fill-rule="evenodd" clip-rule="evenodd" d="M13 11H11V13H9V15H11V17H13V15H15V17H17V15H19V17H21V15H19V13H21V11H19V9H21V7H19V9H17V7H15V9H13V11ZM15 11V9H17V11H15ZM15 13V11H13V13H11V15H13V13H15ZM17 13V15H15V13H17ZM17 13V11H19V13H17Z" fill="#3E3E42"/>
<path d="M13.0709 20C13.5561 23.3923 16.4735 26 20 26C23.866 26 27 22.866 27 19C27 18.6658 26.9766 18.337 26.9313 18.0153L18 20H13.0709Z" fill="black" fill-opacity="0.3"/>
<path opacity="0.4" d="M23 7.41604V19H11.0549C11.0186 18.6717 11 18.338 11 18C11 15.3055 12.1855 12.8882 14.0572 11.241C14.4229 8.83979 16.4966 7 19 7H21C21.7111 7 22.3875 7.14845 23 7.41604Z" fill="black"/>
<path d="M19 9C17.3431 9 16 10.3431 16 12V12.2547C14.1865 13.5196 13 15.6213 13 18C13 21.866 16.134 25 20 25C23.866 25 27 21.866 27 18C27 15.6213 25.8135 13.5196 24 12.2547V12C24 10.3431 22.6569 9 21 9H19Z" fill="#FFC107"/>
<path d="M18 12C18 11.4477 18.4477 11 19 11H21C21.5523 11 22 11.4477 22 12C22 12.5523 21.5523 13 21 13V13.1C23.2822 13.5633 25 15.581 25 18C25 20.7614 22.7614 23 20 23C17.2386 23 15 20.7614 15 18C15 15.581 16.7178 13.5633 19 13.1V13C18.4477 13 18 12.5523 18 12Z" fill="#59361B"/>
<path fill-rule="evenodd" clip-rule="evenodd" d="M21 16L21 18C21 18.5523 20.5523 19 20 19C19.4477 19 19 18.5523 19 18L19 16C19 15.4477 19.4477 15 20 15C20.5523 15 21 15.4477 21 16Z" fill="#FFC107"/>
<path fill-rule="evenodd" clip-rule="evenodd" d="M23 18C23 18.5523 22.5523 19 22 19L20 19C19.4477 19 19 18.5523 19 18C19 17.4477 19.4477 17 20 17L22 17C22.5523 17 23 17.4477 23 18Z" fill="#FFC107"/>
</g>
<defs>
<clipPath id="clip0_1903_9257">
<rect width="24" height="24" fill="white" transform="translate(3 3)"/>
</clipPath>
</defs>
</svg>
