<svg width="30" height="30" viewBox="0 0 30 30" fill="none" xmlns="http://www.w3.org/2000/svg">
<path fill-rule="evenodd" clip-rule="evenodd" d="M3 14H13V8H20L22.2857 14H26C26.5523 14 27 14.4477 27 15V18H28V20H26C26 21.6569 24.6569 23 23 23C21.3431 23 20 21.6569 20 20H11C11 21.6569 9.65685 23 8 23C6.34315 23 5 21.6569 5 20H3V14ZM15 10H18.75L20 14H15V10ZM8 21C8.55228 21 9 20.5523 9 20C9 19.4477 8.55228 19 8 19C7.44772 19 7 19.4477 7 20C7 20.5523 7.44772 21 8 21ZM23 21C23.5523 21 24 20.5523 24 20C24 19.4477 23.5523 19 23 19C22.4477 19 22 19.4477 22 20C22 20.5523 22.4477 21 23 21Z" fill="#FF8800"/>
</svg>
