<svg width="30" height="30" viewBox="0 0 30 30" fill="none" xmlns="http://www.w3.org/2000/svg">
<path fill-rule="evenodd" clip-rule="evenodd" d="M18 22H21C23.2091 22 25 20.2091 25 18V12C25 9.79086 23.2091 8 21 8H18V22ZM16 6.8V23.2C16 23.6418 16.3582 24 16.8 24H21C24.3137 24 27 21.3137 27 18V12C27 8.68629 24.3137 6 21 6H16.8C16.3582 6 16 6.35817 16 6.8Z" fill="#FF8800"/>
<path fill-rule="evenodd" clip-rule="evenodd" d="M9.29092 8.1629C7.8328 7.55535 6.20211 8.52878 6.04493 10.1006L5.99504 10.5995C5.94008 11.1491 5.45004 11.55 4.90049 11.495C4.35095 11.4401 3.95001 10.9501 4.00496 10.4005L4.05486 9.90156C4.34565 6.99365 7.36254 5.19274 10.0602 6.31674C13.2434 7.64309 13.6651 12.0001 10.5 14.2996C12.5 15.0001 13.5443 16.5846 13.6651 18.2754C13.886 21.3688 11.436 24 8.33473 24C5.528 24 3.34725 21.8403 3.00772 19.124C2.93922 18.576 3.32794 18.0762 3.87596 18.0077C4.42398 17.9392 4.92377 18.328 4.99228 18.876C5.208 20.6018 6.52528 22 8.33473 22C10.2754 22 11.6383 20.4357 11.5 18.5001C11.374 16.7355 10.0353 16.0317 8.60608 15.4192C8.26877 15.2746 8.03774 14.9569 8.00419 14.5914C7.97063 14.226 8.13995 13.8715 8.4453 13.668C9.80205 12.7635 10.9202 11.8374 10.7244 10.0749C10.6299 9.22426 10.0809 8.49206 9.29092 8.1629Z" fill="#FF8800"/>
</svg>
