<svg width="30" height="30" viewBox="0 0 30 30" fill="none" xmlns="http://www.w3.org/2000/svg">
<path d="M15.0001 5C9.47791 5 5 9.47708 5 15.0001C5 19.4184 7.86533 23.1668 11.8387 24.4891C12.3384 24.5817 12.5219 24.2722 12.5219 24.0081C12.5219 23.7696 12.5126 22.9819 12.5083 22.1463C9.72631 22.7512 9.13927 20.9664 9.13927 20.9664C8.68437 19.8105 8.02894 19.5032 8.02894 19.5032C7.12163 18.8825 8.09733 18.8953 8.09733 18.8953C9.10151 18.9658 9.63026 19.9258 9.63026 19.9258C10.5222 21.4546 11.9697 21.0126 12.5403 20.7571C12.6301 20.1107 12.8892 19.6696 13.1752 19.4199C10.954 19.167 8.61913 18.3095 8.61913 14.4778C8.61913 13.386 9.00977 12.4939 9.64947 11.7936C9.54564 11.5418 9.20335 10.5247 9.74635 9.14722C9.74635 9.14722 10.5861 8.87845 12.4971 10.1723C13.2948 9.95069 14.1502 9.83958 15.0001 9.83577C15.8499 9.83958 16.7061 9.95069 17.5052 10.1723C19.4139 8.87845 20.2525 9.14722 20.2525 9.14722C20.7968 10.5247 20.4544 11.5418 20.3505 11.7936C20.9917 12.4939 21.3797 13.386 21.3797 14.4778C21.3797 18.3187 19.0403 19.1644 16.8135 19.4119C17.1722 19.7223 17.4918 20.3308 17.4918 21.2638C17.4918 22.6018 17.4802 23.6787 17.4802 24.0081C17.4802 24.2742 17.6602 24.586 18.1671 24.4878C22.1383 23.164 25 19.4169 25 15.0001C25 9.47708 20.5227 5 15.0001 5ZM8.74536 19.2453C8.72333 19.295 8.64517 19.3099 8.57396 19.2758C8.50143 19.2432 8.46069 19.1754 8.48421 19.1256C8.50574 19.0744 8.58406 19.0602 8.65643 19.0945C8.72913 19.1271 8.77053 19.1955 8.74536 19.2453ZM9.23725 19.6842C9.18956 19.7285 9.09633 19.7079 9.03307 19.638C8.96766 19.5683 8.9554 19.4751 9.00376 19.4302C9.05294 19.386 9.14336 19.4067 9.20893 19.4764C9.27434 19.547 9.28709 19.6395 9.23725 19.6842ZM9.57471 20.2458C9.51344 20.2884 9.41325 20.2485 9.35132 20.1595C9.29004 20.0706 9.29004 19.964 9.35264 19.9212C9.41474 19.8785 9.51344 19.9169 9.5762 20.0052C9.6373 20.0956 9.6373 20.2023 9.57471 20.2458ZM10.1454 20.8962C10.0906 20.9566 9.97386 20.9404 9.88841 20.8579C9.80098 20.7773 9.77663 20.6629 9.83161 20.6024C9.88709 20.5418 10.0045 20.5589 10.0906 20.6407C10.1774 20.7211 10.2039 20.8364 10.1454 20.8962ZM10.883 21.1157C10.8588 21.1941 10.7464 21.2297 10.6331 21.1964C10.52 21.1621 10.446 21.0704 10.4689 20.9912C10.4924 20.9124 10.6053 20.8753 10.7194 20.9109C10.8323 20.945 10.9065 21.0361 10.883 21.1157ZM11.7224 21.2089C11.7252 21.2913 11.6292 21.3597 11.5103 21.3612C11.3907 21.3639 11.294 21.2971 11.2927 21.216C11.2927 21.1327 11.3866 21.065 11.5061 21.063C11.625 21.0607 11.7224 21.1269 11.7224 21.2089ZM12.547 21.1773C12.5613 21.2577 12.4787 21.3404 12.3606 21.3624C12.2445 21.3836 12.137 21.3339 12.1223 21.2541C12.1079 21.1716 12.192 21.089 12.3079 21.0676C12.4262 21.0471 12.532 21.0955 12.547 21.1773Z" fill="#FF8800"/>
</svg>
