<svg width="30" height="30" viewBox="0 0 30 30" fill="none" xmlns="http://www.w3.org/2000/svg">
<path d="M9 23C5.68629 23 3 20.3137 3 17C3 13.6863 5.68629 11 9 11C9.02337 11 9.04671 11.0001 9.07003 11.0004C10.4532 8.60897 13.0387 7 16 7C20.1632 7 23.5837 10.1802 23.9647 14.2438C25.5796 14.7994 26.7789 16.2481 26.9725 18H27C27 18.0861 26.9978 18.1716 26.9935 18.2566C26.9978 18.3372 27 18.4183 27 18.5C27 20.9853 24.9853 23 22.5 23H9Z" fill="#FFC30D"/>
<path d="M17 23H14V19H11.7676C11.3437 19 11 18.6563 11 18.2324C11 18.0809 11.0449 17.9327 11.1289 17.8066L14.7227 12.416C14.8959 12.1561 15.1876 12 15.5 12C15.8124 12 16.1041 12.1561 16.2773 12.416L19.8711 17.8066C19.9551 17.9327 20 18.0809 20 18.2324C20 18.6563 19.6563 19 19.2324 19H17V23Z" fill="url(#paint0_linear_1226_6920)"/>
<defs>
<linearGradient id="paint0_linear_1226_6920" x1="15.5" y1="12" x2="15.5" y2="23" gradientUnits="userSpaceOnUse">
<stop stop-color="#5714CC"/>
<stop offset="0.703125" stop-color="#5714CC" stop-opacity="0.94"/>
<stop offset="1" stop-color="#5714CC" stop-opacity="0.5"/>
</linearGradient>
</defs>
</svg>
