<svg width="30" height="30" viewBox="0 0 30 30" fill="none" xmlns="http://www.w3.org/2000/svg">
<path d="M24.8939 7H5.10607C3.33001 7 1.94277 8.53443 2.12126 10.3015L3.03035 19.3015C3.18513 20.8338 4.47506 22 6.01516 22H10.4182C10.8201 22.5762 11.4753 22.9625 12.2224 22.9974C12.0769 22.355 12 21.6865 12 21C12 20.9064 12.0014 20.8132 12.0043 20.7203C12.0014 20.7028 12 20.6849 12 20.6667C12 20.2985 11.7015 20 11.3333 20H6.01516C5.50179 20 5.07182 19.6113 5.02023 19.1005L4.11113 10.1005C4.05164 9.51148 4.51405 9 5.10607 9H24.8939C25.4859 9 25.9483 9.51148 25.8888 10.1005L25.5711 13.2456C26.2553 13.6498 26.8814 14.142 27.4337 14.7066L27.8787 10.3015C28.0572 8.53443 26.6699 7 24.8939 7Z" fill="#FF8800"/>
<path d="M14.2917 15C14.6145 14.6393 14.9661 14.3048 15.3427 14H7.49997C7.22383 14 6.99997 14.2239 6.99997 14.5C6.99997 14.7761 7.22383 15 7.49997 15H14.2917Z" fill="#FF8800"/>
<path d="M21 11V12H20V11H21Z" fill="#FF8800"/>
<path d="M6.99997 11H7.99997V12H6.99997V11Z" fill="#FF8800"/>
<path d="M8.99997 11H9.99997V12H8.99997V11Z" fill="#FF8800"/>
<path d="M12 11H11V12H12V11Z" fill="#FF8800"/>
<path d="M13 11H14V12H13V11Z" fill="#FF8800"/>
<path d="M17 11H16V12H17V11Z" fill="#FF8800"/>
<path d="M18 11H19V12H18V11Z" fill="#FF8800"/>
<path d="M22 11H23V12H22V11Z" fill="#FF8800"/>
<path d="M7.99997 17V18H6.99997V17H7.99997Z" fill="#FF8800"/>
<path d="M8.99997 17H9.99997V18H8.99997V17Z" fill="#FF8800"/>
<path d="M12 17H11V18H12V17Z" fill="#FF8800"/>
<path fill-rule="evenodd" clip-rule="evenodd" d="M27 21C27 24.3137 24.3137 27 21 27C17.6863 27 15 24.3137 15 21C15 17.6863 17.6863 15 21 15C24.3137 15 27 17.6863 27 21ZM23.7071 18.2929C24.0976 18.6835 24.0976 19.3166 23.7071 19.7071L22.4142 21L23.7071 22.2929C24.0976 22.6835 24.0976 23.3166 23.7071 23.7071C23.3166 24.0977 22.6834 24.0977 22.2929 23.7071L21 22.4142L19.7071 23.7071C19.3166 24.0977 18.6834 24.0977 18.2929 23.7071C17.9024 23.3166 17.9024 22.6835 18.2929 22.2929L19.5858 21L18.2929 19.7071C17.9024 19.3166 17.9024 18.6835 18.2929 18.2929C18.6834 17.9024 19.3166 17.9024 19.7071 18.2929L21 19.5858L22.2929 18.2929C22.6834 17.9024 23.3166 17.9024 23.7071 18.2929Z" fill="#FF8800"/>
</svg>
