<svg width="30" height="30" viewBox="0 0 30 30" fill="none" xmlns="http://www.w3.org/2000/svg">
<path fill-rule="evenodd" clip-rule="evenodd" d="M9 13.874C10.7252 13.4299 12 11.8638 12 10C12 7.79086 10.2091 6 8 6C5.79086 6 4 7.79086 4 10C4 11.8638 5.27477 13.4299 7 13.874V19.5C7 21.9853 9.01474 24 11.5 24C11.835 24 12.1613 23.9634 12.4754 23.894C12.2638 23.2704 12.1186 22.6161 12.0485 21.9396C11.872 21.9791 11.6884 22 11.5 22C10.1193 22 9 20.8807 9 19.5V13.874ZM8 12C9.10457 12 10 11.1046 10 10C10 8.89543 9.10457 8 8 8C6.89543 8 6 8.89543 6 10C6 11.1046 6.89543 12 8 12Z" fill="#FF8800"/>
<path d="M21 12C21.6874 12 22.3568 12.0771 23 12.223V10.5C23 8.01472 20.9853 6 18.5 6C16.0147 6 14 8.01472 14 10.5V15.3427C14.5702 14.638 15.2447 14.0211 16 13.5155V10.5C16 9.11929 17.1193 8 18.5 8C19.8807 8 21 9.11929 21 10.5V12Z" fill="#FF8800"/>
<path fill-rule="evenodd" clip-rule="evenodd" d="M28 21C28 24.866 24.866 28 21 28C17.134 28 14 24.866 14 21C14 17.134 17.134 14 21 14C24.866 14 28 17.134 28 21ZM24.7071 21.2928C25.0976 21.6834 25.0976 22.3165 24.7071 22.707L21.7071 25.707C21.3166 26.0976 20.6834 26.0976 20.2929 25.707L17.2929 22.707C16.9024 22.3165 16.9024 21.6834 17.2929 21.2928C17.6834 20.9023 18.3166 20.9023 18.7071 21.2928L20 22.5857V16.9999C20 16.4477 20.4477 15.9999 21 15.9999C21.5523 15.9999 22 16.4477 22 16.9999V22.5857L23.2929 21.2928C23.6834 20.9023 24.3166 20.9023 24.7071 21.2928Z" fill="#FF8800"/>
</svg>
