<svg width="50" height="50" viewBox="0 0 50 50" fill="none" xmlns="http://www.w3.org/2000/svg">
<path d="M18 23C18 19.134 21.134 16 25 16C28.866 16 32 19.134 32 23V28.4583L27.12 27.035C27.0404 27.0118 26.9579 27 26.875 27H26.809C26.3622 27 26 27.3622 26 27.809C26 27.9346 26.0292 28.0585 26.0854 28.1708L34.2764 44.5528C34.4134 44.8269 34.6936 45 35 45C35.3064 45 35.5866 44.8269 35.7236 44.5528L43.9146 28.1708C43.9708 28.0585 44 27.9346 44 27.809C44 27.3622 43.6378 27 43.191 27H43.125C43.0421 27 42.9596 27.0118 42.88 27.035L38 28.4583V23C38 15.8203 32.1797 10 25 10C17.8203 10 12 15.8203 12 23V45H18V23Z" fill="black"/>
</svg>
