<svg width="30" height="30" viewBox="0 0 30 30" fill="none" xmlns="http://www.w3.org/2000/svg">
<g id="ic_custom_overlay_map_disabled">
<g id="Subtract" opacity="0.5">
<path d="M17.7083 11.4633L15.9541 10.2874C15.3825 9.9042 14.6175 9.9042 14.0459 10.2874L3.69654 17.2252C2.76782 17.8478 2.76782 19.1522 3.69654 19.7748L7.10914 22.0624L8.55062 20.6209L5.38675 18.5L15 12.0556L16.2668 12.9048L17.7083 11.4633Z" fill="#545454"/>
<path d="M11.9372 22.8912L15 24.9444L24.6133 18.5L19.6534 15.1751L21.0948 13.7336L26.3035 17.2252C27.2322 17.8478 27.2322 19.1522 26.3035 19.7748L15.9541 26.7126C15.3825 27.0958 14.6175 27.0958 14.0459 26.7126L10.4957 24.3327L11.9372 22.8912Z" fill="#545454"/>
</g>
<g id="Union">
<path d="M10.9491 17.6366L3.29289 25.2929C2.90237 25.6834 2.90237 26.3166 3.29289 26.7071C3.68342 27.0976 4.31658 27.0976 4.70711 26.7071L26.7071 4.70711C27.0976 4.31658 27.0976 3.68342 26.7071 3.29289C26.3166 2.90237 25.6834 2.90237 25.2929 3.29289L21.5483 7.03753L15.9541 3.2874C15.3825 2.9042 14.6175 2.9042 14.0459 3.2874L3.69654 10.2252C2.76782 10.8478 2.76782 12.1522 3.69654 12.7748L10.9491 17.6366Z" fill="#545454"/>
<path d="M14.8361 19.9923L25.2856 9.54288L26.3035 10.2252C27.2322 10.8478 27.2322 12.1522 26.3035 12.7748L15.9541 19.7126C15.6215 19.9356 15.2235 20.0288 14.8361 19.9923Z" fill="#545454"/>
</g>
</g>
</svg>
