<svg width="30" height="30" viewBox="0 0 30 30" fill="none" xmlns="http://www.w3.org/2000/svg">
<path d="M6.5 18C6.776 18.0002 7 18.224 7 18.5V21.5C6.99978 21.7759 6.77587 21.9998 6.5 22C6.224 22 6.00023 21.776 6 21.5V18.5C6 18.2239 6.22386 18 6.5 18Z" fill="#FF8800"/>
<path fill-rule="evenodd" clip-rule="evenodd" d="M24 13C25.6567 13.0002 27 14.3432 27 16V24C26.9998 25.6566 25.6566 26.9998 24 27H6C4.34328 27 3.00022 25.6567 3 24V16C3 14.3431 4.34315 13 6 13H24ZM6 15C5.44772 15 5 15.4477 5 16V24C5.00022 24.5521 5.44785 25 6 25H24L24.1025 24.9951C24.6064 24.9437 24.9998 24.5174 25 24V16C25 15.4824 24.6065 15.0564 24.1025 15.0049L24 15H6Z" fill="#FF8800"/>
<path fill-rule="evenodd" clip-rule="evenodd" d="M12 3C13.6569 3 15 4.34315 15 6V11H3V6C3 4.34315 4.34315 3 6 3H12ZM5.80469 5.01855C5.77073 5.02528 5.73771 5.03485 5.70508 5.04492C5.76694 5.02584 5.83112 5.01164 5.89746 5.00488L5.80469 5.01855Z" fill="#FF8800"/>
<path d="M20.6289 4C20.8338 4.00022 20.9998 4.16624 21 4.37109V6H24C25.1046 6 26 6.89545 26 8V10C26 10.5523 25.5523 11 25 11C24.4477 11 24 10.5523 24 10V8H21V9.62891C20.9998 9.83376 20.8338 9.99978 20.6289 10C20.5458 10 20.4648 9.97212 20.3994 9.9209L17.1963 7.4043C17.0723 7.30678 17 7.15773 17 7C17 6.84227 17.0723 6.69322 17.1963 6.5957L20.3994 4.0791C20.4648 4.02788 20.5458 4 20.6289 4Z" fill="#FF8800"/>
</svg>
