<svg width="30" height="30" viewBox="0 0 30 30" fill="none" xmlns="http://www.w3.org/2000/svg">
<path fill-rule="evenodd" clip-rule="evenodd" d="M21 28.0001C24.866 28.0001 28 24.8661 28 21.0001C28 17.1341 24.866 14.0001 21 14.0001C17.134 14.0001 14 17.1341 14 21.0001C14 24.8661 17.134 28.0001 21 28.0001ZM24.7071 19.2929C25.0976 19.6834 25.0976 20.3166 24.7071 20.7071C24.3166 21.0976 23.6834 21.0976 23.2929 20.7071L22 19.4142V25C22 25.5523 21.5523 26 21 26C20.4477 26 20 25.5523 20 25V19.4142L18.7071 20.7071C18.3166 21.0976 17.6834 21.0976 17.2929 20.7071C16.9024 20.3166 16.9024 19.6834 17.2929 19.2929L20.2929 16.2929C20.6834 15.9024 21.3166 15.9024 21.7071 16.2929L24.7071 19.2929Z" fill="#FF8800"/>
</svg>
