<svg width="30" height="30" viewBox="0 0 30 30" fill="none" xmlns="http://www.w3.org/2000/svg">
<path d="M25.4297 9.00013C26.2968 9.0003 26.9998 9.70332 27 10.5704V22.0001C27 23.1047 26.1046 24.0001 25 24.0001H4.27344C3.57017 24.0001 3 23.43 3 22.7267C3.00007 22.2764 3.23833 21.8601 3.62598 21.631L24.6299 9.21888C24.8719 9.07588 25.1486 9.00013 25.4297 9.00013Z" fill="#FF8800"/>
<path d="M13.793 4.57142C13.936 4.03812 14.4842 3.72147 15.0176 3.86439L19.1152 4.96204C19.6486 5.10502 19.9652 5.6542 19.8223 6.18763L18.7246 10.2853C18.5816 10.8186 18.0324 11.1352 17.499 10.9923C16.9661 10.8492 16.6494 10.3008 16.792 9.76771L17.2656 8.00111L5.5 14.7941C5.02171 15.0702 4.40993 14.9062 4.13379 14.4279C3.85814 13.9497 4.02207 13.3387 4.5 13.0626L16.2656 6.26966L14.5 5.79603C13.9665 5.65308 13.65 5.10488 13.793 4.57142Z" fill="#FF8800"/>
</svg>
