<svg width="30" height="30" viewBox="0 0 30 30" fill="none" xmlns="http://www.w3.org/2000/svg">
<path fill-rule="evenodd" clip-rule="evenodd" d="M9 13.874C10.7252 13.4299 12 11.8638 12 10C12 7.79086 10.2091 6 8 6C5.79086 6 4 7.79086 4 10C4 11.8638 5.27477 13.4299 7 13.874V19.5C7 21.9853 9.01474 24 11.5 24C11.835 24 12.1613 23.9634 12.4754 23.894C12.2638 23.2704 12.1186 22.6161 12.0485 21.9396C11.872 21.9791 11.6884 22 11.5 22C10.1193 22 9 20.8807 9 19.5V13.874ZM8 12C9.10457 12 10 11.1046 10 10C10 8.89543 9.10457 8 8 8C6.89543 8 6 8.89543 6 10C6 11.1046 6.89543 12 8 12Z" fill="#FF8800"/>
<path d="M21 12C21.6874 12 22.3568 12.0771 23 12.223V10.5C23 8.01472 20.9853 6 18.5 6C16.0147 6 14 8.01472 14 10.5V15.3427C14.5702 14.638 15.2447 14.0211 16 13.5155V10.5C16 9.11929 17.1193 8 18.5 8C19.8807 8 21 9.11929 21 10.5V12Z" fill="#FF8800"/>
<path fill-rule="evenodd" clip-rule="evenodd" d="M28 21C28 24.866 24.866 28 21 28C17.134 28 14 24.866 14 21C14 17.134 17.134 14 21 14C24.866 14 28 17.134 28 21ZM19.7771 18C19.9228 18 20.0655 18.0409 20.189 18.1181L23.576 20.235C23.8398 20.3999 24 20.689 24 21C24 21.311 23.8398 21.6001 23.576 21.765L20.189 23.8819C20.0655 23.9591 19.9228 24 19.7771 24C19.3479 24 19 23.6521 19 23.2229V18.7771C19 18.3479 19.3479 18 19.7771 18Z" fill="#FF8800"/>
</svg>
