<svg width="30" height="30" viewBox="0 0 30 30" fill="none" xmlns="http://www.w3.org/2000/svg">
<path fill-rule="evenodd" clip-rule="evenodd" d="M3 9C3 7.89543 3.89543 7 5 7H21L27 13V18C27 18.5523 26.5523 19 26 19H25C25 20.6569 23.6569 22 22 22C20.3431 22 19 20.6569 19 19H11C11 20.6569 9.65685 22 8 22C6.34315 22 5 20.6569 5 19H3V9ZM7 19C7 19.5523 7.44772 20 8 20C8.55228 20 9 19.5523 9 19C9 18.4477 8.55228 18 8 18C7.44772 18 7 18.4477 7 19ZM21 19C21 19.5523 21.4477 20 22 20C22.5523 20 23 19.5523 23 19C23 18.4477 22.5523 18 22 18C21.4477 18 21 18.4477 21 19ZM10 9H5V13H10V9ZM17 9H12V13H17V9ZM19 9H20L24 13H19V9Z" fill="#FF8800"/>
</svg>
