<svg width="20" height="20" viewBox="0 0 20 20" fill="none" xmlns="http://www.w3.org/2000/svg">
<path d="M12 12C11.4477 12 11 11.5523 11 11C11 10.4477 11.4477 10 12 10H14.5858L8.29289 3.70711C7.90237 3.31658 7.90237 2.68342 8.29289 2.29289C8.68342 1.90237 9.31658 1.90237 9.70711 2.29289L16 8.58579V6C16 5.44772 16.4477 5 17 5C17.5523 5 18 5.44772 18 6V11C18 11.5523 17.5523 12 17 12H12Z" fill="#FF8800"/>
<path d="M2 6.06066C2 5.47487 2.47487 5 3.06066 5C3.34196 5 3.61175 5.11175 3.81066 5.31066L14.6893 16.1893C14.8883 16.3883 15 16.658 15 16.9393C15 17.5251 14.5251 18 13.9393 18H3.5C2.67157 18 2 17.3284 2 16.5V6.06066Z" fill="#FF8800"/>
</svg>
