<svg width="30" height="30" viewBox="0 0 30 30" fill="none" xmlns="http://www.w3.org/2000/svg">
<path fill-rule="evenodd" clip-rule="evenodd" d="M24.1213 5.29289L24.7071 5.87868C25.8787 7.05025 25.8787 8.94975 24.7071 10.1213L9.70711 25.1213C9.1445 25.6839 8.38143 26 7.58579 26H4V22.4142C4 21.6186 4.31607 20.8555 4.87868 20.2929L19.8787 5.2929C21.0503 4.12132 22.9497 4.12132 24.1213 5.29289ZM7.58579 24H6V22.4142C6 22.149 6.10536 21.8946 6.29289 21.7071L7.5 20.5L9.5 22.5L8.29289 23.7071C8.10536 23.8946 7.851 24 7.58579 24ZM22 10L23.2929 8.70711C23.6834 8.31658 23.6834 7.68342 23.2929 7.2929L22.7071 6.70711C22.3166 6.31658 21.6834 6.31658 21.2929 6.70711L20 8L22 10Z" fill="#FF8800"/>
<rect opacity="0.5" x="4" y="24" width="22" height="2" rx="1" fill="#FF8800"/>
</svg>
