<svg width="30" height="30" viewBox="0 0 30 30" fill="none" xmlns="http://www.w3.org/2000/svg">
<path d="M5 8C5 6.34315 6.34315 5 8 5H22C23.6569 5 25 6.34315 25 8V22C25 23.6569 23.6569 25 22 25H8C6.34315 25 5 23.6569 5 22V8Z" fill="#5714CC"/>
<path fill-rule="evenodd" clip-rule="evenodd" d="M8 17C8.55228 17 9 17.4477 9 18V21H21V18C21 17.4477 21.4477 17 22 17C22.5523 17 23 17.4477 23 18V21C23 22.1046 22.1046 23 21 23H9C7.89543 23 7 22.1046 7 21V18C7 17.4477 7.44772 17 8 17Z" fill="#FFC30D"/>
<path fill-rule="evenodd" clip-rule="evenodd" d="M12 7C12.5523 7 13 7.44772 13 8V14.5858L14.2929 13.2929C14.6834 12.9024 15.3166 12.9024 15.7071 13.2929C16.0976 13.6834 16.0976 14.3166 15.7071 14.7071L12.7071 17.7071C12.3166 18.0976 11.6834 18.0976 11.2929 17.7071L8.29289 14.7071C7.90237 14.3166 7.90237 13.6834 8.29289 13.2929C8.68342 12.9024 9.31658 12.9024 9.70711 13.2929L11 14.5858V8C11 7.44772 11.4477 7 12 7Z" fill="#FFC30D"/>
<g opacity="0.5">
<path d="M13 13.5858V14.5858L13.5 14.0858L13 13.5858Z" fill="#FFC30D"/>
<path d="M14 13.5858L14.2929 13.2929C14.6834 12.9024 15.3166 12.9024 15.7071 13.2929C16.0976 13.6834 16.0976 14.3166 15.7071 14.7071L13.5 16.9142L14.2929 17.7071C14.6834 18.0976 15.3166 18.0976 15.7071 17.7071L18.7071 14.7071C19.0976 14.3166 19.0976 13.6834 18.7071 13.2929C18.3166 12.9024 17.6834 12.9024 17.2929 13.2929L16 14.5858V8C16 7.44772 15.5523 7 15 7C14.4477 7 14 7.44772 14 8V13.5858Z" fill="#FFC30D"/>
</g>
<g opacity="0.3">
<path d="M16 13.5858L16.5 14.0858L16 14.5858V13.5858Z" fill="#FFC30D"/>
<path d="M17 13.5858L17.2929 13.2929C17.6834 12.9024 18.3166 12.9024 18.7071 13.2929C18.9022 13.488 18.9998 13.7436 19 13.9993V8C19 7.44772 18.5523 7 18 7C17.4477 7 17 7.44772 17 8V13.5858Z" fill="#FFC30D"/>
<path d="M19 14.0007C18.9998 14.2564 18.9022 14.512 18.7071 14.7071L16.5 16.9142L17.2929 17.7071C17.6834 18.0976 18.3166 18.0976 18.7071 17.7071L21.7071 14.7071C22.0976 14.3166 22.0976 13.6834 21.7071 13.2929C21.3166 12.9024 20.6834 12.9024 20.2929 13.2929L19 14.5858V14.0007Z" fill="#FFC30D"/>
<path d="M15 15.4142L15.7071 14.7071C16.0976 14.3166 16.0976 13.6834 15.7071 13.2929C15.3166 12.9024 14.6834 12.9024 14.2929 13.2929C13.9024 13.6834 13.9024 14.3166 14.2929 14.7071L15 15.4142Z" fill="#FFC30D"/>
</g>
</svg>
