<svg width="30" height="30" viewBox="0 0 30 30" fill="none" xmlns="http://www.w3.org/2000/svg">
<path d="M19 15C19 14.9696 18.9935 14.9395 18.9805 14.9121L15 6.58984L11.0195 14.9121C11.0065 14.9395 11 14.9696 11 15C11 15.0304 11.0065 15.0605 11.0195 15.0879L15 23.4092L18.9805 15.0879C18.9935 15.0605 19 15.0304 19 15ZM21 15C21 15.3292 20.9262 15.6542 20.7842 15.9512L15.7158 26.5488L15.6592 26.6475C15.5134 26.8656 15.2672 27 15 27C14.6945 27 14.416 26.8245 14.2842 26.5488L9.21582 15.9512C9.07381 15.6542 9 15.3292 9 15C9 14.7531 9.0414 14.5085 9.12207 14.2764L9.21582 14.0488L14.2842 3.45117C14.416 3.17555 14.6945 3 15 3C15.3055 3 15.584 3.17555 15.7158 3.45117L20.7842 14.0488C20.9262 14.3458 21 14.6708 21 15Z" fill="#CCCCCC"/>
<path d="M15 3C15.3055 3 15.584 3.17555 15.7158 3.45117L20.7842 14.0488C20.9262 14.3458 21 14.6708 21 15H9C9 14.6708 9.07381 14.3458 9.21582 14.0488L14.2842 3.45117C14.416 3.17555 14.6945 3 15 3Z" fill="#E21F2A"/>
<g opacity="0.5">
<path d="M6 14C6.55228 14 7 14.4477 7 15C7 15.5523 6.55228 16 6 16H4C3.44772 16 3 15.5523 3 15C3 14.4477 3.44772 14 4 14H6Z" fill="#DADADD"/>
<path d="M26 14C26.5523 14 27 14.4477 27 15C27 15.5523 26.5523 16 26 16H24C23.4477 16 23 15.5523 23 15C23 14.4477 23.4477 14 24 14H26Z" fill="#DADADD"/>
</g>
</svg>
