<svg width="30" height="30" viewBox="0 0 30 30" fill="none" xmlns="http://www.w3.org/2000/svg">
<path d="M13 8C13.5523 8 14 8.44772 14 9V12H17C17.5523 12 18 12.4477 18 13C18 13.5523 17.5523 14 17 14H14V17C14 17.5523 13.5523 18 13 18C12.4477 18 12 17.5523 12 17V14H9C8.44772 14 8 13.5523 8 13C8 12.4477 8.44772 12 9 12H12V9C12 8.44772 12.4477 8 13 8Z" fill="#FF8800"/>
<path fill-rule="evenodd" clip-rule="evenodd" d="M13 4C17.9706 4 22 8.02944 22 13C22 15.125 21.2619 17.0766 20.0303 18.6162L25.707 24.293C26.0976 24.6835 26.0976 25.3165 25.707 25.707C25.3165 26.0976 24.6835 26.0976 24.293 25.707L18.6162 20.0303C17.0766 21.2619 15.125 22 13 22C8.02944 22 4 17.9706 4 13C4 8.02944 8.02944 4 13 4ZM13 6C9.13401 6 6 9.13401 6 13C6 16.866 9.13401 20 13 20C16.866 20 20 16.866 20 13C20 9.13401 16.866 6 13 6Z" fill="#FF8800"/>
</svg>
