<svg width="30" height="30" viewBox="0 0 30 30" fill="none" xmlns="http://www.w3.org/2000/svg">
<path fill-rule="evenodd" clip-rule="evenodd" d="M14 3C11.7909 3 10 4.79086 10 7H7C5.89543 7 5 7.89543 5 9V12C5 12.5523 5.44772 13 6 13H6.05263C7.68042 13 9 14.3196 9 15.9474V16.0526C9 17.6804 7.68042 19 6.05263 19H6C5.44772 19 5 19.4477 5 20V23C5 24.1046 5.89543 25 7 25H10C10.5523 25 11 24.5523 11 24V23.9474C11 22.3196 12.3196 21 13.9474 21H14.0526C15.6804 21 17 22.3196 17 23.9474V24C17 24.5523 17.4477 25 18 25H21C22.1046 25 23 24.1046 23 23V19.9999C25.2091 19.9999 27 18.209 27 15.9999C27 13.7908 25.2091 11.9999 23 11.9999V9C23 7.89543 22.1046 7 21 7H18C18 4.79086 16.2091 3 14 3Z" fill="#FF8800"/>
</svg>
