<svg width="30" height="30" viewBox="0 0 30 30" fill="none" xmlns="http://www.w3.org/2000/svg">
<path fill-rule="evenodd" clip-rule="evenodd" d="M4.49711 10.2572C4.80084 9.4979 5.53626 9 6.35407 9H18L21 13L26 14V16L27 17L26.5 19H24.8293C24.4175 20.1652 23.3062 21 22 21C20.6938 21 19.5825 20.1652 19.1707 19H10.8293C10.4175 20.1652 9.30622 21 8 21C6.69378 21 5.58254 20.1652 5.17071 19H3V14L4.49711 10.2572ZM8 19C8.55228 19 9 18.5523 9 18C9 17.4477 8.55228 17 8 17C7.44772 17 7 17.4477 7 18C7 18.5523 7.44772 19 8 19ZM22 19C22.5523 19 23 18.5523 23 18C23 17.4477 22.5523 17 22 17C21.4477 17 21 17.4477 21 18C21 18.5523 21.4477 19 22 19ZM6.99999 14V11H6.35405L5.15405 14H6.99999ZM14 14H19.25L17 11H14V14ZM12 11V14H9V11H12Z" fill="#FF8800"/>
</svg>
