<svg width="30" height="30" viewBox="0 0 30 30" fill="none" xmlns="http://www.w3.org/2000/svg">
<path fill-rule="evenodd" clip-rule="evenodd" d="M11.0001 4C10.1652 3.37329 9.12543 3 8 3C5.23858 3 3 5.23858 3 8C3 9.12543 3.37329 10.1652 4 11.0001V18.9999C3.37329 19.8348 3 20.8746 3 22C3 24.7614 5.23858 27 8 27C9.12543 27 10.1652 26.6267 11.0001 26H18.9999C19.8348 26.6267 20.8746 27 22 27C24.7614 27 27 24.7614 27 22C27 20.8746 26.6267 19.8348 26 18.9999V11.0001C26.6267 10.1652 27 9.12543 27 8C27 5.23858 24.7614 3 22 3C20.8746 3 19.8348 3.37329 18.9999 4H11.0001Z" fill="#394642"/>
<path fill-rule="evenodd" clip-rule="evenodd" d="M6 10.2361C5.38625 9.68679 5 8.8885 5 8C5 6.34315 6.34315 5 8 5C8.8885 5 9.68679 5.38625 10.2361 6H19.7639C20.3132 5.38625 21.1115 5 22 5C23.6569 5 25 6.34315 25 8C25 8.8885 24.6137 9.68679 24 10.2361V19.7639C24.6137 20.3132 25 21.1115 25 22C25 23.6569 23.6569 25 22 25C21.1115 25 20.3132 24.6137 19.7639 24H10.2361C9.68679 24.6137 8.8885 25 8 25C6.34315 25 5 23.6569 5 22C5 21.1115 5.38625 20.3132 6 19.7639V10.2361Z" fill="#237BFF"/>
<path d="M22 15C22 18.866 18.866 22 15 22C11.134 22 8 18.866 8 15C8 11.134 11.134 8 15 8C18.866 8 22 11.134 22 15Z" fill="url(#paint0_linear_2102_23712)"/>
<path d="M22 15C22 17.2091 18.866 19 15 19C11.134 19 8 17.2091 8 15C8 12.7909 11.134 11 15 11C18.866 11 22 12.7909 22 15Z" fill="url(#paint1_linear_2102_23712)"/>
<path d="M8 9C8.55228 9 9 8.55228 9 8C9 7.44772 8.55228 7 8 7C7.44772 7 7 7.44772 7 8C7 8.55228 7.44772 9 8 9Z" fill="#2D3C53"/>
<path d="M8 23C8.55228 23 9 22.5523 9 22C9 21.4477 8.55228 21 8 21C7.44772 21 7 21.4477 7 22C7 22.5523 7.44772 23 8 23Z" fill="#2D3C53"/>
<path d="M23 8C23 8.55228 22.5523 9 22 9C21.4477 9 21 8.55228 21 8C21 7.44772 21.4477 7 22 7C22.5523 7 23 7.44772 23 8Z" fill="#2D3C53"/>
<path d="M22 23C22.5523 23 23 22.5523 23 22C23 21.4477 22.5523 21 22 21C21.4477 21 21 21.4477 21 22C21 22.5523 21.4477 23 22 23Z" fill="#2D3C53"/>
<defs>
<linearGradient id="paint0_linear_2102_23712" x1="15" y1="8" x2="15" y2="22" gradientUnits="userSpaceOnUse">
<stop/>
<stop offset="1" stop-color="#333333"/>
</linearGradient>
<linearGradient id="paint1_linear_2102_23712" x1="15" y1="11" x2="15" y2="19" gradientUnits="userSpaceOnUse">
<stop stop-color="#FFC107" stop-opacity="0.5"/>
<stop offset="1" stop-color="#FFC107"/>
</linearGradient>
</defs>
</svg>
