<svg width="30" height="30" viewBox="0 0 30 30" fill="none" xmlns="http://www.w3.org/2000/svg">
<path opacity="0.2" d="M9 6C9 5.44772 9.44772 5 10 5H20C20.5523 5 21 5.44772 21 6V13.0129C20.8344 13.0043 20.6677 13 20.5 13C15.2533 13 11 17.2533 11 22.5C11 23.3652 11.1157 24.2034 11.3324 25H10C9.44772 25 9 24.5523 9 24V6Z" fill="#FF8800"/>
<path d="M21 26C23.2091 26 25 24.2091 25 22C25 19.7909 23.2091 18 21 18C18.9388 18 17.2418 19.559 17.0237 21.5621L17.2929 21.2929C17.6834 20.9024 18.3166 20.9024 18.7071 21.2929C19.0976 21.6834 19.0976 22.3166 18.7071 22.7071L16.7071 24.7071C16.3166 25.0976 15.6834 25.0976 15.2929 24.7071L13.2929 22.7071C12.9024 22.3166 12.9024 21.6834 13.2929 21.2929C13.6834 20.9024 14.3166 20.9024 14.7071 21.2929L15.0132 21.599C15.2195 18.4722 17.8211 16 21 16C24.3137 16 27 18.6863 27 22C27 25.3137 24.3137 28 21 28C19.5979 28 18.3082 27.5191 17.2867 26.7132L18.7159 25.2841C19.3635 25.7354 20.1508 26 21 26Z" fill="#FF8800"/>
<path d="M10 3H20C21.6569 3 23 4.34315 23 6V13.3324C22.3578 13.1577 21.6886 13.0486 21 13.0129V6C21 5.44772 20.5523 5 20 5H19V6C19 6.55228 18.5523 7 18 7H12C11.4477 7 11 6.55228 11 6V5H10C9.44772 5 9 5.44772 9 6V24C9 24.5523 9.44772 25 10 25H11.3324C11.5235 25.7024 11.7931 26.3724 12.1313 27H10C8.34314 27 7 25.6569 7 24V6C7 4.34315 8.34315 3 10 3Z" fill="#FF8800"/>
</svg>
