<svg width="30" height="30" viewBox="0 0 30 30" fill="none" xmlns="http://www.w3.org/2000/svg">
<path opacity="0.2" d="M24.8939 9H5.10606C4.51404 9 4.05162 9.51148 4.11112 10.1005L5.02021 19.1005C5.0718 19.6113 5.50178 20 6.01515 20H11.3333C11.7015 20 12 20.2985 12 20.6667C12 20.8508 12.1492 21 12.3333 21H17.6666C17.8507 21 18 20.8508 18 20.6667C18 20.2985 18.2984 20 18.6666 20H23.9848C24.4981 20 24.9281 19.6113 24.9797 19.1005L25.8888 10.1005C25.9483 9.51148 25.4859 9 24.8939 9Z" fill="#FF8800"/>
<path d="M7.00003 11H8.00003V12H7.00003V11Z" fill="#FF8800"/>
<path d="M9.00003 11H10V12H9.00003V11Z" fill="#FF8800"/>
<path d="M12 11H11V12H12V11Z" fill="#FF8800"/>
<path d="M13 11H14V12H13V11Z" fill="#FF8800"/>
<path d="M17 11H16V12H17V11Z" fill="#FF8800"/>
<path d="M18 11H19V12H18V11Z" fill="#FF8800"/>
<path d="M21 11H20V12H21V11Z" fill="#FF8800"/>
<path d="M22 11H23V12H22V11Z" fill="#FF8800"/>
<path d="M8.00003 17V18H7.00003V17H8.00003Z" fill="#FF8800"/>
<path d="M9.00003 17H10V18H9.00003V17Z" fill="#FF8800"/>
<path d="M12 17H11V18H12V17Z" fill="#FF8800"/>
<path d="M13 17H14V18H13V17Z" fill="#FF8800"/>
<path d="M17 17H16V18H17V17Z" fill="#FF8800"/>
<path d="M18 17H19V18H18V17Z" fill="#FF8800"/>
<path d="M21 17H20V18H21V17Z" fill="#FF8800"/>
<path d="M23 17V18H22V17H23Z" fill="#FF8800"/>
<path d="M7.00003 14.5C7.00003 14.2239 7.22389 14 7.50003 14H22.5C22.7762 14 23 14.2239 23 14.5C23 14.7761 22.7762 15 22.5 15H7.50003C7.22389 15 7.00003 14.7761 7.00003 14.5Z" fill="#FF8800"/>
<path fill-rule="evenodd" clip-rule="evenodd" d="M24.8939 7H5.10613C3.33007 7 1.94283 8.53443 2.12132 10.3015L3.03041 19.3015C3.18519 20.8338 4.47512 22 6.01522 22H10.4183C10.8399 22.6045 11.5405 23 12.3334 23H17.6667C18.4596 23 19.1602 22.6045 19.5818 22H23.9848C25.525 22 26.8149 20.8338 26.9697 19.3015L27.8787 10.3015C28.0572 8.53443 26.67 7 24.8939 7ZM24.8939 9H5.10613C4.51411 9 4.0517 9.51148 4.1112 10.1005L5.02029 19.1005C5.07188 19.6113 5.50186 20 6.01522 20H11.3334C11.7016 20 12 20.2985 12 20.6667C12 20.8508 12.1493 21 12.3334 21H17.6667C17.8508 21 18 20.8508 18 20.6667C18 20.2985 18.2985 20 18.6667 20H23.9848C24.4982 20 24.9282 19.6113 24.9798 19.1005L25.8889 10.1005C25.9484 9.51148 25.486 9 24.8939 9Z" fill="#FF8800"/>
</svg>
