<svg width="30" height="30" viewBox="0 0 30 30" fill="none" xmlns="http://www.w3.org/2000/svg">
<path d="M5 19C5.55228 19 6 19.4477 6 20V23C6 23.5523 6.44772 24 7 24H10C10.5523 24 11 24.4477 11 25C11 25.5523 10.5523 26 10 26H7C5.34315 26 4 24.6569 4 23V20C4 19.4477 4.44772 19 5 19Z" fill="#FF8800"/>
<path d="M25 19C25.5523 19 26 19.4477 26 20V23C26 24.6569 24.6569 26 23 26H20C19.4477 26 19 25.5523 19 25C19 24.4477 19.4477 24 20 24H23C23.5523 24 24 23.5523 24 23V20C24 19.4477 24.4477 19 25 19Z" fill="#FF8800"/>
<path fill-rule="evenodd" clip-rule="evenodd" d="M17.5 8C19.433 8 21 9.567 21 11.5V16.1738C22.1647 16.5859 23 17.6941 23 19C23 20.6569 21.6569 22 20 22C18.3431 22 17 20.6569 17 19C17 17.6941 17.8353 16.5859 19 16.1738V11.5C19 10.6716 18.3284 10 17.5 10C16.6716 10 16 10.6716 16 11.5V18.5C16 20.433 14.433 22 12.5 22C10.567 22 9.00002 20.433 9 18.5V13.8252C7.83548 13.413 7 12.3057 7 11C7 9.34315 8.34315 8 10 8C11.6569 8 13 9.34315 13 11C13 12.3057 12.1645 13.413 11 13.8252V18.5C11 19.3284 11.6716 20 12.5 20C13.3284 20 14 19.3284 14 18.5V11.5C14 9.567 15.567 8 17.5 8ZM20 18C19.4477 18 19 18.4477 19 19C19 19.5523 19.4477 20 20 20C20.5523 20 21 19.5523 21 19C21 18.4477 20.5523 18 20 18ZM10 10C9.44772 10 9 10.4477 9 11C9 11.5523 9.44772 12 10 12C10.5523 12 11 11.5523 11 11C11 10.4477 10.5523 10 10 10Z" fill="#FF8800"/>
<path d="M10 4C10.5523 4 11 4.44772 11 5C11 5.55228 10.5523 6 10 6H7C6.44772 6 6 6.44772 6 7V10C6 10.5523 5.55228 11 5 11C4.44772 11 4 10.5523 4 10V7C4 5.34315 5.34315 4 7 4H10Z" fill="#FF8800"/>
<path d="M23 4C24.6569 4 26 5.34315 26 7V10C26 10.5523 25.5523 11 25 11C24.4477 11 24 10.5523 24 10V7C24 6.44772 23.5523 6 23 6H20C19.4477 6 19 5.55228 19 5C19 4.44772 19.4477 4 20 4H23Z" fill="#FF8800"/>
</svg>
