<svg width="30" height="30" viewBox="0 0 30 30" fill="none" xmlns="http://www.w3.org/2000/svg">
<path d="M3.63158 18.1579C3.46316 18.1579 3.31579 18.0947 3.18947 17.9684C3.06316 17.8421 3 17.6947 3 17.5263C3 17.3579 3.06316 17.2105 3.18947 17.0842C3.31579 16.9579 3.46316 16.8947 3.63158 16.8947C3.8 16.8947 3.94737 16.9579 4.07368 17.0842C4.2 17.2105 4.26316 17.3579 4.26316 17.5263C4.26316 17.6947 4.2 17.8421 4.07368 17.9684C3.94737 18.0947 3.8 18.1579 3.63158 18.1579ZM3.63158 13.1053C3.46316 13.1053 3.31579 13.0421 3.18947 12.9158C3.06316 12.7895 3 12.6421 3 12.4737C3 12.3053 3.06316 12.1579 3.18947 12.0316C3.31579 11.9053 3.46316 11.8421 3.63158 11.8421C3.8 11.8421 3.94737 11.9053 4.07368 12.0316C4.2 12.1579 4.26316 12.3053 4.26316 12.4737C4.26316 12.6421 4.2 12.7895 4.07368 12.9158C3.94737 13.0421 3.8 13.1053 3.63158 13.1053ZM7.42105 23.8421C7.06316 23.8421 6.76316 23.7211 6.52105 23.4789C6.27895 23.2368 6.15789 22.9368 6.15789 22.5789C6.15789 22.2211 6.27895 21.9211 6.52105 21.6789C6.76316 21.4368 7.06316 21.3158 7.42105 21.3158C7.77895 21.3158 8.07895 21.4368 8.32105 21.6789C8.56316 21.9211 8.68421 22.2211 8.68421 22.5789C8.68421 22.9368 8.56316 23.2368 8.32105 23.4789C8.07895 23.7211 7.77895 23.8421 7.42105 23.8421ZM7.42105 18.7895C7.06316 18.7895 6.76316 18.6684 6.52105 18.4263C6.27895 18.1842 6.15789 17.8842 6.15789 17.5263C6.15789 17.1684 6.27895 16.8684 6.52105 16.6263C6.76316 16.3842 7.06316 16.2632 7.42105 16.2632C7.77895 16.2632 8.07895 16.3842 8.32105 16.6263C8.56316 16.8684 8.68421 17.1684 8.68421 17.5263C8.68421 17.8842 8.56316 18.1842 8.32105 18.4263C8.07895 18.6684 7.77895 18.7895 7.42105 18.7895ZM7.42105 13.7368C7.06316 13.7368 6.76316 13.6158 6.52105 13.3737C6.27895 13.1316 6.15789 12.8316 6.15789 12.4737C6.15789 12.1158 6.27895 11.8158 6.52105 11.5737C6.76316 11.3316 7.06316 11.2105 7.42105 11.2105C7.77895 11.2105 8.07895 11.3316 8.32105 11.5737C8.56316 11.8158 8.68421 12.1158 8.68421 12.4737C8.68421 12.8316 8.56316 13.1316 8.32105 13.3737C8.07895 13.6158 7.77895 13.7368 7.42105 13.7368ZM7.42105 8.68421C7.06316 8.68421 6.76316 8.56316 6.52105 8.32105C6.27895 8.07895 6.15789 7.77895 6.15789 7.42105C6.15789 7.06316 6.27895 6.76316 6.52105 6.52105C6.76316 6.27895 7.06316 6.15789 7.42105 6.15789C7.77895 6.15789 8.07895 6.27895 8.32105 6.52105C8.56316 6.76316 8.68421 7.06316 8.68421 7.42105C8.68421 7.77895 8.56316 8.07895 8.32105 8.32105C8.07895 8.56316 7.77895 8.68421 7.42105 8.68421ZM12.4737 19.4211C11.9474 19.4211 11.5 19.2368 11.1316 18.8684C10.7632 18.5 10.5789 18.0526 10.5789 17.5263C10.5789 17 10.7632 16.5526 11.1316 16.1842C11.5 15.8158 11.9474 15.6316 12.4737 15.6316C13 15.6316 13.4474 15.8158 13.8158 16.1842C14.1842 16.5526 14.3684 17 14.3684 17.5263C14.3684 18.0526 14.1842 18.5 13.8158 18.8684C13.4474 19.2368 13 19.4211 12.4737 19.4211ZM12.4737 14.3684C11.9474 14.3684 11.5 14.1842 11.1316 13.8158C10.7632 13.4474 10.5789 13 10.5789 12.4737C10.5789 11.9474 10.7632 11.5 11.1316 11.1316C11.5 10.7632 11.9474 10.5789 12.4737 10.5789C13 10.5789 13.4474 10.7632 13.8158 11.1316C14.1842 11.5 14.3684 11.9474 14.3684 12.4737C14.3684 13 14.1842 13.4474 13.8158 13.8158C13.4474 14.1842 13 14.3684 12.4737 14.3684ZM12.4737 23.8421C12.1158 23.8421 11.8158 23.7211 11.5737 23.4789C11.3316 23.2368 11.2105 22.9368 11.2105 22.5789C11.2105 22.2211 11.3316 21.9211 11.5737 21.6789C11.8158 21.4368 12.1158 21.3158 12.4737 21.3158C12.8316 21.3158 13.1316 21.4368 13.3737 21.6789C13.6158 21.9211 13.7368 22.2211 13.7368 22.5789C13.7368 22.9368 13.6158 23.2368 13.3737 23.4789C13.1316 23.7211 12.8316 23.8421 12.4737 23.8421ZM12.4737 8.68421C12.1158 8.68421 11.8158 8.56316 11.5737 8.32105C11.3316 8.07895 11.2105 7.77895 11.2105 7.42105C11.2105 7.06316 11.3316 6.76316 11.5737 6.52105C11.8158 6.27895 12.1158 6.15789 12.4737 6.15789C12.8316 6.15789 13.1316 6.27895 13.3737 6.52105C13.6158 6.76316 13.7368 7.06316 13.7368 7.42105C13.7368 7.77895 13.6158 8.07895 13.3737 8.32105C13.1316 8.56316 12.8316 8.68421 12.4737 8.68421ZM12.4737 27C12.3053 27 12.1579 26.9368 12.0316 26.8105C11.9053 26.6842 11.8421 26.5368 11.8421 26.3684C11.8421 26.2 11.9053 26.0526 12.0316 25.9263C12.1579 25.8 12.3053 25.7368 12.4737 25.7368C12.6421 25.7368 12.7895 25.8 12.9158 25.9263C13.0421 26.0526 13.1053 26.2 13.1053 26.3684C13.1053 26.5368 13.0421 26.6842 12.9158 26.8105C12.7895 26.9368 12.6421 27 12.4737 27ZM12.4737 4.26316C12.3053 4.26316 12.1579 4.2 12.0316 4.07368C11.9053 3.94737 11.8421 3.8 11.8421 3.63158C11.8421 3.46316 11.9053 3.31579 12.0316 3.18947C12.1579 3.06316 12.3053 3 12.4737 3C12.6421 3 12.7895 3.06316 12.9158 3.18947C13.0421 3.31579 13.1053 3.46316 13.1053 3.63158C13.1053 3.8 13.0421 3.94737 12.9158 4.07368C12.7895 4.2 12.6421 4.26316 12.4737 4.26316ZM17.5263 19.4211C17 19.4211 16.5526 19.2368 16.1842 18.8684C15.8158 18.5 15.6316 18.0526 15.6316 17.5263C15.6316 17 15.8158 16.5526 16.1842 16.1842C16.5526 15.8158 17 15.6316 17.5263 15.6316C18.0526 15.6316 18.5 15.8158 18.8684 16.1842C19.2368 16.5526 19.4211 17 19.4211 17.5263C19.4211 18.0526 19.2368 18.5 18.8684 18.8684C18.5 19.2368 18.0526 19.4211 17.5263 19.4211ZM17.5263 14.3684C17 14.3684 16.5526 14.1842 16.1842 13.8158C15.8158 13.4474 15.6316 13 15.6316 12.4737C15.6316 11.9474 15.8158 11.5 16.1842 11.1316C16.5526 10.7632 17 10.5789 17.5263 10.5789C18.0526 10.5789 18.5 10.7632 18.8684 11.1316C19.2368 11.5 19.4211 11.9474 19.4211 12.4737C19.4211 13 19.2368 13.4474 18.8684 13.8158C18.5 14.1842 18.0526 14.3684 17.5263 14.3684ZM17.5263 23.8421C17.1684 23.8421 16.8684 23.7211 16.6263 23.4789C16.3842 23.2368 16.2632 22.9368 16.2632 22.5789C16.2632 22.2211 16.3842 21.9211 16.6263 21.6789C16.8684 21.4368 17.1684 21.3158 17.5263 21.3158C17.8842 21.3158 18.1842 21.4368 18.4263 21.6789C18.6684 21.9211 18.7895 22.2211 18.7895 22.5789C18.7895 22.9368 18.6684 23.2368 18.4263 23.4789C18.1842 23.7211 17.8842 23.8421 17.5263 23.8421ZM17.5263 8.68421C17.1684 8.68421 16.8684 8.56316 16.6263 8.32105C16.3842 8.07895 16.2632 7.77895 16.2632 7.42105C16.2632 7.06316 16.3842 6.76316 16.6263 6.52105C16.8684 6.27895 17.1684 6.15789 17.5263 6.15789C17.8842 6.15789 18.1842 6.27895 18.4263 6.52105C18.6684 6.76316 18.7895 7.06316 18.7895 7.42105C18.7895 7.77895 18.6684 8.07895 18.4263 8.32105C18.1842 8.56316 17.8842 8.68421 17.5263 8.68421ZM17.5263 27C17.3579 27 17.2105 26.9368 17.0842 26.8105C16.9579 26.6842 16.8947 26.5368 16.8947 26.3684C16.8947 26.2 16.9579 26.0526 17.0842 25.9263C17.2105 25.8 17.3579 25.7368 17.5263 25.7368C17.6947 25.7368 17.8421 25.8 17.9684 25.9263C18.0947 26.0526 18.1579 26.2 18.1579 26.3684C18.1579 26.5368 18.0947 26.6842 17.9684 26.8105C17.8421 26.9368 17.6947 27 17.5263 27ZM17.5263 4.26316C17.3579 4.26316 17.2105 4.2 17.0842 4.07368C16.9579 3.94737 16.8947 3.8 16.8947 3.63158C16.8947 3.46316 16.9579 3.31579 17.0842 3.18947C17.2105 3.06316 17.3579 3 17.5263 3C17.6947 3 17.8421 3.06316 17.9684 3.18947C18.0947 3.31579 18.1579 3.46316 18.1579 3.63158C18.1579 3.8 18.0947 3.94737 17.9684 4.07368C17.8421 4.2 17.6947 4.26316 17.5263 4.26316ZM22.5789 23.8421C22.2211 23.8421 21.9211 23.7211 21.6789 23.4789C21.4368 23.2368 21.3158 22.9368 21.3158 22.5789C21.3158 22.2211 21.4368 21.9211 21.6789 21.6789C21.9211 21.4368 22.2211 21.3158 22.5789 21.3158C22.9368 21.3158 23.2368 21.4368 23.4789 21.6789C23.7211 21.9211 23.8421 22.2211 23.8421 22.5789C23.8421 22.9368 23.7211 23.2368 23.4789 23.4789C23.2368 23.7211 22.9368 23.8421 22.5789 23.8421ZM22.5789 18.7895C22.2211 18.7895 21.9211 18.6684 21.6789 18.4263C21.4368 18.1842 21.3158 17.8842 21.3158 17.5263C21.3158 17.1684 21.4368 16.8684 21.6789 16.6263C21.9211 16.3842 22.2211 16.2632 22.5789 16.2632C22.9368 16.2632 23.2368 16.3842 23.4789 16.6263C23.7211 16.8684 23.8421 17.1684 23.8421 17.5263C23.8421 17.8842 23.7211 18.1842 23.4789 18.4263C23.2368 18.6684 22.9368 18.7895 22.5789 18.7895ZM22.5789 13.7368C22.2211 13.7368 21.9211 13.6158 21.6789 13.3737C21.4368 13.1316 21.3158 12.8316 21.3158 12.4737C21.3158 12.1158 21.4368 11.8158 21.6789 11.5737C21.9211 11.3316 22.2211 11.2105 22.5789 11.2105C22.9368 11.2105 23.2368 11.3316 23.4789 11.5737C23.7211 11.8158 23.8421 12.1158 23.8421 12.4737C23.8421 12.8316 23.7211 13.1316 23.4789 13.3737C23.2368 13.6158 22.9368 13.7368 22.5789 13.7368ZM22.5789 8.68421C22.2211 8.68421 21.9211 8.56316 21.6789 8.32105C21.4368 8.07895 21.3158 7.77895 21.3158 7.42105C21.3158 7.06316 21.4368 6.76316 21.6789 6.52105C21.9211 6.27895 22.2211 6.15789 22.5789 6.15789C22.9368 6.15789 23.2368 6.27895 23.4789 6.52105C23.7211 6.76316 23.8421 7.06316 23.8421 7.42105C23.8421 7.77895 23.7211 8.07895 23.4789 8.32105C23.2368 8.56316 22.9368 8.68421 22.5789 8.68421ZM26.3684 18.1579C26.2 18.1579 26.0526 18.0947 25.9263 17.9684C25.8 17.8421 25.7368 17.6947 25.7368 17.5263C25.7368 17.3579 25.8 17.2105 25.9263 17.0842C26.0526 16.9579 26.2 16.8947 26.3684 16.8947C26.5368 16.8947 26.6842 16.9579 26.8105 17.0842C26.9368 17.2105 27 17.3579 27 17.5263C27 17.6947 26.9368 17.8421 26.8105 17.9684C26.6842 18.0947 26.5368 18.1579 26.3684 18.1579ZM26.3684 13.1053C26.2 13.1053 26.0526 13.0421 25.9263 12.9158C25.8 12.7895 25.7368 12.6421 25.7368 12.4737C25.7368 12.3053 25.8 12.1579 25.9263 12.0316C26.0526 11.9053 26.2 11.8421 26.3684 11.8421C26.5368 11.8421 26.6842 11.9053 26.8105 12.0316C26.9368 12.1579 27 12.3053 27 12.4737C27 12.6421 26.9368 12.7895 26.8105 12.9158C26.6842 13.0421 26.5368 13.1053 26.3684 13.1053Z" fill="#FF8800"/>
</svg>
