<svg width="30" height="30" viewBox="0 0 30 30" fill="none" xmlns="http://www.w3.org/2000/svg">
<path d="M17.5483 3.62466C20.1912 2.74382 23.2982 2.5953 25.352 4.64908C27.4055 6.70296 27.2573 9.80992 26.3764 12.4528C25.4531 15.2226 23.53 18.2053 20.8988 20.8366C18.2677 23.4676 15.2848 25.3898 12.5151 26.3131C9.87224 27.194 6.76517 27.3431 4.71134 25.2897C2.65741 23.2358 2.80688 20.1281 3.68791 17.485C4.02559 16.4721 4.49668 15.4306 5.08732 14.3883C5.50388 14.9445 6.00809 15.4307 6.57853 15.8288C5.36824 18.1128 4.00515 21.8614 6.24259 23.987C8.69041 26.1989 14.2727 24.3871 19.0199 19.8747L19.4848 19.4225C24.3266 14.5806 26.3337 8.7084 24.0492 6.18033C21.8343 3.84887 17.8896 5.40094 15.5639 6.69498C15.1572 6.13197 14.6635 5.63655 14.101 5.22916C15.2602 4.54252 16.4215 4.00024 17.5483 3.62466Z" fill="#FF8800"/>
<path d="M10.2611 6.46353C12.4703 6.46357 14.2611 8.25442 14.2611 10.4635C14.261 12.6725 12.4702 14.4635 10.2611 14.4635C8.0521 14.4635 6.2613 12.6725 6.26115 10.4635C6.26115 8.25439 8.05201 6.46353 10.2611 6.46353Z" fill="#FF8800"/>
</svg>
