<svg width="30" height="30" viewBox="0 0 30 30" fill="none" xmlns="http://www.w3.org/2000/svg">
<path d="M24.8675 14.9559L22 14L19.1324 14.9559C18.4326 15.1891 17.7877 14.4322 18.0735 13.783L21.2988 6.45704C21.4211 6.17929 21.6959 6 21.9994 6C22.3035 6 22.5788 6.18003 22.7007 6.45865L25.9307 13.8415C26.2139 14.4889 25.5402 15.1801 24.8675 14.9559Z" fill="#FF8800"/>
<path fill-rule="evenodd" clip-rule="evenodd" d="M18.5 22C17.1193 22 16 20.8807 16 19.5V10.5C16 8.01476 13.9853 6.00005 11.5 6.00003C9.01474 6.00001 7 8.01473 7 10.5V15.126C5.27477 15.5701 4 17.1362 4 19C4 21.2091 5.79086 23 8 23C10.2091 23 12 21.2091 12 19C12 17.1362 10.7252 15.5701 9 15.126V10.5C9 9.11931 10.1193 8.00002 11.5 8.00003C12.8807 8.00004 14 9.11932 14 10.5V19.5C14 21.9853 16.0147 24 18.5 24C20.9853 24 23 21.9853 23 19.5V17C23 16.4477 22.5523 16 22 16C21.4477 16 21 16.4477 21 17V19.5C21 20.8807 19.8807 22 18.5 22ZM6 19C6 17.8954 6.89543 17 8 17C9.10457 17 10 17.8954 10 19C10 20.1046 9.10457 21 8 21C6.89543 21 6 20.1046 6 19Z" fill="#FF8800"/>
</svg>
