<svg width="30" height="30" viewBox="0 0 30 30" fill="none" xmlns="http://www.w3.org/2000/svg">
<path d="M5 23.8818L10 26.3818V13.6182L5 11.1182V23.8818ZM12 13.6182V26.3818L25 19.8818V7.11817L12 13.6182ZM6.23633 9.50001L11 11.8818L23.7637 5.50001L19 3.11817L6.23633 9.50001ZM27 20.5C27 20.8788 26.786 21.2251 26.4473 21.3945L11.4473 28.8945C11.1657 29.0353 10.8343 29.0353 10.5527 28.8945L3.55273 25.3945C3.21395 25.2251 3 24.8788 3 24.5V9.50001C3 9.12124 3.21395 8.77487 3.55273 8.60548L18.5527 1.10548L18.6602 1.05958C18.9161 0.967056 19.2008 0.98225 19.4473 1.10548L26.4473 4.60548C26.786 4.77487 27 5.12124 27 5.50001V20.5Z" fill="#FF8800"/>
</svg>
