<svg width="30" height="30" viewBox="0 0 30 30" fill="none" xmlns="http://www.w3.org/2000/svg">
<path fill-rule="evenodd" clip-rule="evenodd" d="M3 8C3 6.89543 3.89543 6 5 6C6.10457 6 7 6.89543 7 8C7 9.10457 6.10457 10 5 10C3.89543 10 3 9.10457 3 8Z" fill="#FF8800"/>
<path opacity="0.5" fill-rule="evenodd" clip-rule="evenodd" d="M5 18.5C5 17.1193 6.11929 16 7.5 16L12.5 16C14.9853 16 17 13.9853 17 11.5C17 9.01472 14.9853 7 12.5 7L10 7C9.44772 7 9 7.44772 9 8C9 8.55228 9.44772 9 10 9L12.5 9C13.8807 9 15 10.1193 15 11.5C15 12.8807 13.8807 14 12.5 14L7.5 14C5.01472 14 3 16.0147 3 18.5C3 20.9853 5.01472 23 7.5 23L15.1111 23C15.6634 23 16.1111 22.5523 16.1111 22C16.1111 21.4477 15.6634 21 15.1111 21L7.5 21C6.11929 21 5 19.8807 5 18.5Z" fill="#FF8800"/>
<path d="M26 6C26.5523 6 27 6.44772 27 7V12C27 12.5523 26.5523 13 26 13H21V18C21 18.5523 20.5523 19 20 19C19.4477 19 19 18.5523 19 18V7C19 6.44772 19.4477 6 20 6H26Z" fill="#FF8800"/>
<path d="M22 22C22 20.8954 21.1046 20 20 20C18.8954 20 18 20.8954 18 22C18 23.1046 18.8954 24 20 24C21.1046 24 22 23.1046 22 22Z" fill="#FF8800"/>
</svg>
