<svg width="30" height="30" viewBox="0 0 30 30" fill="none" xmlns="http://www.w3.org/2000/svg">
<path fill-rule="evenodd" clip-rule="evenodd" d="M10.5 3C12.433 3 14 4.567 14 6.5C14 7.19898 13.7934 7.84903 13.4404 8.39551L15.0752 10.3027C15.5105 10.1085 15.9925 10 16.5 10C17.1988 10 17.8491 10.2058 18.3955 10.5586L20.3027 8.92383C20.1087 8.48875 20 8.00716 20 7.5C20 5.567 21.567 4 23.5 4C25.433 4 27 5.567 27 7.5C27 9.433 25.433 11 23.5 11C22.8007 11 22.1501 10.7937 21.6035 10.4404L19.6963 12.0752C19.8907 12.5106 20 12.9924 20 13.5C20 15.433 18.433 17 16.5 17C15.493 17 14.5858 16.5743 13.9473 15.8936L9.94629 17.8945C9.98062 18.0913 10 18.2934 10 18.5C10 18.7593 9.97048 19.0117 9.91699 19.2549L13.0537 20.9971C13.6847 20.3803 14.5479 20 15.5 20C17.433 20 19 21.567 19 23.5C19 25.433 17.433 27 15.5 27C13.567 27 12 25.433 12 23.5C12 23.2408 12.0286 22.9883 12.082 22.7451L8.94531 21.002C8.31432 21.6188 7.45209 22 6.5 22C4.567 22 3 20.433 3 18.5C3 16.567 4.567 15 6.5 15C7.5065 15 8.41326 15.4253 9.05176 16.1055L13.0527 14.1045C13.0185 13.9081 13 13.7062 13 13.5C13 12.8014 13.205 12.1508 13.5576 11.6045L11.9229 9.69629C11.4879 9.89021 11.007 10 10.5 10C8.567 10 7 8.433 7 6.5C7 4.567 8.567 3 10.5 3ZM15.5 22C14.6716 22 14 22.6716 14 23.5C14 24.3284 14.6716 25 15.5 25C16.3284 25 17 24.3284 17 23.5C17 22.6716 16.3284 22 15.5 22ZM6.5 17C5.67157 17 5 17.6716 5 18.5C5 19.3284 5.67157 20 6.5 20C7.32843 20 8 19.3284 8 18.5C8 17.6716 7.32843 17 6.5 17ZM16.5 12C15.6716 12 15 12.6716 15 13.5C15 14.3284 15.6716 15 16.5 15C17.3284 15 18 14.3284 18 13.5C18 12.6716 17.3284 12 16.5 12ZM23.5 6C22.6716 6 22 6.67157 22 7.5C22 8.32843 22.6716 9 23.5 9C24.3284 9 25 8.32843 25 7.5C25 6.67157 24.3284 6 23.5 6ZM10.5 5C9.67157 5 9 5.67157 9 6.5C9 7.32843 9.67157 8 10.5 8C11.3284 8 12 7.32843 12 6.5C12 5.67157 11.3284 5 10.5 5Z" fill="#FF8800"/>
</svg>
