<svg width="30" height="30" viewBox="0 0 30 30" fill="none" xmlns="http://www.w3.org/2000/svg">
<path d="M20.01 12H10.01V17H20.01V12Z" fill="#FF8800"/>
<path d="M12 20C12.5523 20 13 19.5523 13 19C13 18.4477 12.5523 18 12 18C11.4477 18 11 18.4477 11 19C11 19.5523 11.4477 20 12 20Z" fill="#FF8800"/>
<path d="M18 20C18.5523 20 19 19.5523 19 19C19 18.4477 18.5523 18 18 18C17.4477 18 17 18.4477 17 19C17 19.5523 17.4477 20 18 20Z" fill="#FF8800"/>
<path fill-rule="evenodd" clip-rule="evenodd" d="M15 5C16.86 5 19 5.09 20.8 5.8C23.47 6.84 25 9.05 25 11.86V25H5V11.86C5 9.05 6.53 6.84 9.2 5.8C11 5.09 13.14 5 15 5ZM18.37 21.5C19.82 21.5 21 20.33 21 18.88V12C21 9.38 18.32 9 15 9C12 9 9 9.37 9 12V18.88C9 20.32 10.18 21.5 11.62 21.5L10.5 22.62V23H12.17L13.67 21.5H16.5L18 23H19.5V22.62L18.37 21.5Z" fill="#FF8800"/>
</svg>
