<svg width="30" height="30" viewBox="0 0 30 30" fill="none" xmlns="http://www.w3.org/2000/svg">
<path fill-rule="evenodd" clip-rule="evenodd" d="M26.9358 16.2492C26.9782 15.8386 27 15.4218 27 15C27 9.20101 22.8866 4.36275 17.4184 3.2438C16.6372 3.08395 15.8284 3 15 3C8.37258 3 3 8.37258 3 15C3 21.6274 8.37258 27 15 27C21.2056 27 26.311 22.2896 26.9358 16.2492ZM22.1856 20.42C20.5427 22.5946 17.9355 24 15 24C10.0294 24 6 19.9706 6 15C6 11.1511 8.41611 7.86643 11.8144 6.58004C10.6754 8.08764 10 9.96495 10 12C10 16.9706 14.0294 21 19 21C20.1216 21 21.1953 20.7948 22.1856 20.42Z" fill="#FF8800"/>
</svg>
