<svg width="30" height="30" viewBox="0 0 30 30" fill="none" xmlns="http://www.w3.org/2000/svg">
<g opacity="0.7">
<path d="M19.6062 18.8187L20 20V23H22V20L21.3156 17.947C20.8128 18.3445 20.2326 18.6429 19.6062 18.8187Z" fill="#FF8800"/>
<path d="M11 19H12L11 21V25H10V21L11 19Z" fill="#FF8800"/>
</g>
<path d="M18.1313 8.04052C18.6749 6.13774 20.1225 4.62581 21.9999 4L22 5.5L25.464 6.98177C26.1399 7.3099 26.271 8.21688 25.7155 8.72293C25.5199 8.90119 25.2647 9 25 9H22L22.0001 12H17L18.1313 8.04052Z" fill="#FF8800"/>
<path d="M7 15C6.44772 15 6 15.4477 6 16L6 19C6 19.5523 5.55228 20 5 20H4V16C4 14.3431 5.34315 13 7 13H7.76389C8.31321 12.3863 9.1115 12 10 12L22.0001 12L22 13.8174C22 14.2038 21.944 14.5881 21.8338 14.9584L21.7795 15.141C21.2747 16.8372 19.7153 18 17.9457 18H18V25H16V18H9.99994L9 20V24.9999H7V15Z" fill="#FF8800"/>
</svg>
