<svg width="30" height="30" viewBox="0 0 30 30" fill="none" xmlns="http://www.w3.org/2000/svg">
<path d="M10.1661 11.0069L10.4788 7.2543C10.4908 7.11056 10.6109 7 10.7552 7C10.895 7 11.013 7.10415 11.0304 7.24293L11.5 11H12V7.5C12 7.22386 12.2239 7 12.5 7C12.7761 7 13 7.22386 13 7.5V11H13.5L13.9696 7.24293C13.987 7.10415 14.105 7 14.2448 7C14.3891 7 14.5092 7.11056 14.5212 7.2543L14.8339 11.0069C14.9233 12.0798 14.0766 13 13 13L13.417 18.0035C13.4617 18.5399 13.0383 19 12.5 19C11.9617 19 11.5383 18.5399 11.583 18.0035L12 13C10.9234 13 10.0767 12.0798 10.1661 11.0069Z" fill="#FF8800"/>
<path d="M19 18.2874V7C17.8695 7 16.9278 7.86653 16.8339 8.99309L16.647 11.2364C16.5563 12.3245 17.064 13.376 17.9725 13.9817L18 14L17.5784 18.2165C17.5364 18.636 17.8658 19 18.2874 19C18.681 19 19 18.681 19 18.2874Z" fill="#FF8800"/>
<path fill-rule="evenodd" clip-rule="evenodd" d="M6 5C6 3.89543 6.89543 3 8 3H22C23.1046 3 24 3.89543 24 5V25C24 26.1046 23.1046 27 22 27H8C6.89543 27 6 26.1046 6 25V5ZM8 5.5C8 5.22386 8.22386 5 8.5 5H21.5C21.7761 5 22 5.22386 22 5.5V20.5C22 20.7761 21.7761 21 21.5 21H8.5C8.22386 21 8 20.7761 8 20.5V5.5Z" fill="#FF8800"/>
</svg>
