<svg width="375" height="90" viewBox="0 0 375 90" fill="none" xmlns="http://www.w3.org/2000/svg">
<g clip-path="url(#clip0_1775_400)">
<rect width="375" height="90" fill="white"/>
<path d="M0 0H375V90H0V0Z" fill="white"/>
<path d="M178 12H2H0V22H2C5.31371 22 8 24.6863 8 28V90H26V28C26 24.6863 28.6863 22 32 22H148C151.314 22 154 24.6863 154 28V90H172V28C172 24.6863 174.686 22 178 22H180V12H178Z" fill="#D7D8DB"/>
<path opacity="0.2" d="M173.122 78.8789C174.943 80.6997 177.326 82.0651 180 82.9268V90H0V83.8555C4.49155 82.864 7.79755 79.9602 11 76.7578C15.4759 81.2336 20.4239 83.9999 27 84C33.5761 84 38.5242 81.2335 43 76.7578C47.4759 81.2336 52.4239 83.9999 59 84C65.5761 84 70.5241 81.2335 75 76.7578C79.4759 81.2336 84.4239 83.9999 91 84C96.4045 84 101.569 82.1889 104.879 78.8789L107 76.7578L109.122 78.8789C112.432 82.1887 117.596 83.9999 123 84C128.404 84 133.569 82.1889 136.879 78.8789L139 76.7578L141.122 78.8789C144.432 82.1887 149.596 83.9999 155 84C160.404 84 165.569 82.1889 168.879 78.8789L171 76.7578L173.122 78.8789Z" fill="#237BFF"/>
<path d="M173.121 74.8789C174.942 76.6999 177.325 78.0651 180 78.9268V85.1582C176.745 84.3563 173.644 82.9727 171 80.9658C166.494 84.3862 160.659 86 155 86C149.341 85.9999 143.506 84.3863 139 80.9658C134.494 84.3862 128.659 86 123 86C117.341 85.9999 111.506 84.3863 107 80.9658C102.494 84.3862 96.6593 86 91 86C85.3407 85.9999 79.5057 84.3863 75 80.9658C70.4943 84.3862 64.6593 86 59 86C53.3407 85.9999 47.5057 84.3863 43 80.9658C38.4943 84.3862 32.6593 86 27 86C21.3567 85.9999 15.5385 84.3957 11.0381 80.9951C7.16053 84.1295 3.19298 85.4593 0 85.957V79.8574C2.58722 79.3017 5.7933 77.9644 8.87891 74.8789L11 72.7578L13.1211 74.8789C16.4311 78.1889 21.5955 79.9999 27 80C32.4045 80 37.5688 78.1889 40.8789 74.8789L43 72.7578L45.1211 74.8789C48.4311 78.1889 53.5955 79.9999 59 80C64.4045 80 69.5688 78.1889 72.8789 74.8789L75 72.7578L77.1211 74.8789C80.4311 78.1889 85.5955 79.9999 91 80C96.4045 80 101.569 78.1889 104.879 74.8789L107 72.7578L109.121 74.8789C112.431 78.1889 117.596 79.9999 123 80C128.404 80 133.569 78.1889 136.879 74.8789L139 72.7578L141.121 74.8789C144.431 78.1889 149.596 79.9999 155 80C160.404 80 165.569 78.1889 168.879 74.8789L171 72.7578L173.121 74.8789Z" fill="#237BFF"/>
<path fill-rule="evenodd" clip-rule="evenodd" d="M114 65.7998C114 70.4917 111.265 74.753 107 76.708L90 84.5L73 76.708C68.7348 74.753 66.0001 70.4917 66 65.7998V56H114V65.7998ZM82 66.5V62H74L82 66.5ZM98 66.5L106 62H98V66.5Z" fill="#237BFF"/>
<path fill-rule="evenodd" clip-rule="evenodd" d="M100 38C103.314 38 106 40.6863 106 44V54H74V44C74 40.6863 76.6863 38 80 38H100ZM78 50H88V44H78V50ZM92 50H102V44H92V50Z" fill="#237BFF"/>
<path d="M90 30C91.1046 30 92 30.8954 92 32V36H88V32C88 30.8954 88.8954 30 90 30Z" fill="#237BFF"/>
<path d="M63 29L57 23L69 23L63 29Z" fill="#EE5622"/>
<path d="M57 90L63 84L69 90H57Z" fill="#EE5622"/>
<path d="M64 40C64 40.5523 63.5523 41 63 41C62.4477 41 62 40.5523 62 40V33C62 32.4477 62.4477 32 63 32C63.5523 32 64 32.4477 64 33V40Z" fill="#EE5622"/>
<path d="M64 53C64 53.5523 63.5523 54 63 54C62.4477 54 62 53.5523 62 53L62 46C62 45.4477 62.4477 45 63 45C63.5523 45 64 45.4477 64 46L64 53Z" fill="#EE5622"/>
<path d="M64 66C64 66.5523 63.5523 67 63 67C62.4477 67 62 66.5523 62 66L62 59C62 58.4477 62.4477 58 63 58C63.5523 58 64 58.4477 64 59L64 66Z" fill="#EE5622"/>
<path d="M64 79C64 79.5523 63.5523 80 63 80C62.4477 80 62 79.5523 62 79L62 72C62 71.4477 62.4477 71 63 71C63.5523 71 64 71.4477 64 72L64 79Z" fill="#EE5622"/>
<path opacity="0.5" d="M114 29V30L63 30L63 29L114 29Z" fill="#EE5622"/>
<path d="M243.802 39.748C242.663 41.1713 240.939 42 239.116 42H228C224.686 42 222 44.6863 222 48V90H204V48C204 44.6863 201.314 42 198 42H196V32H234L254 12H266L243.802 39.748Z" fill="#D7D8DB"/>
<path d="M317 12L337 32H375V42H373C369.686 42 367 44.6863 367 48V90H349V48C349 44.6863 346.314 42 343 42H331.884C330.061 42 328.337 41.1713 327.198 39.748L305 12H317Z" fill="#D7D8DB"/>
<path opacity="0.2" d="M368.122 78.8789C369.943 80.6997 372.326 82.0651 375 82.9268V90H196V83.5967C199.991 82.421 203.04 79.7169 206 76.7568C210.476 81.2327 215.424 83.9999 222 84C228.576 84 233.524 81.2328 238 76.7568C242.476 81.2327 247.424 83.9999 254 84C260.576 84 265.524 81.2328 270 76.7568C274.476 81.2327 279.424 83.9999 286 84C291.404 84 296.569 82.1889 299.879 78.8789L302 76.7568L304.122 78.8789C307.432 82.1887 312.596 83.9999 318 84C323.404 84 328.569 82.1889 331.879 78.8789L334 76.7568L336.122 78.8789C339.432 82.1887 344.596 83.9999 350 84C355.404 84 360.569 82.1889 363.879 78.8789L366 76.7568L368.122 78.8789Z" fill="#237BFF"/>
<path d="M368.121 74.8789C369.942 76.6999 372.325 78.0651 375 78.9268V85.1582C371.745 84.3563 368.644 82.9727 366 80.9658C361.494 84.3862 355.659 86 350 86C344.341 85.9999 338.506 84.3863 334 80.9658C329.494 84.3862 323.659 86 318 86C312.341 85.9999 306.506 84.3863 302 80.9658C297.494 84.3862 291.659 86 286 86C280.341 85.9999 274.506 84.3863 270 80.9658C265.494 84.3862 259.659 86 254 86C248.341 85.9999 242.506 84.3863 238 80.9658C233.494 84.3862 227.659 86 222 86C216.357 85.9999 210.539 84.3957 206.038 80.9951C202.556 83.8098 199.001 85.1677 196 85.7764V79.6084C198.388 78.9374 201.18 77.5777 203.879 74.8789L206 72.7578L208.121 74.8789C211.431 78.1889 216.596 79.9999 222 80C227.404 80 232.569 78.1889 235.879 74.8789L238 72.7578L240.121 74.8789C243.431 78.1889 248.596 79.9999 254 80C259.404 80 264.569 78.1889 267.879 74.8789L270 72.7578L272.121 74.8789C275.431 78.1889 280.596 79.9999 286 80C291.404 80 296.569 78.1889 299.879 74.8789L302 72.7578L304.121 74.8789C307.431 78.1889 312.596 79.9999 318 80C323.404 80 328.569 78.1889 331.879 74.8789L334 72.7578L336.121 74.8789C339.431 78.1889 344.596 79.9999 350 80C355.404 80 360.569 78.1889 363.879 74.8789L366 72.7578L368.121 74.8789Z" fill="#237BFF"/>
<path fill-rule="evenodd" clip-rule="evenodd" d="M309 65.6514C309 70.4189 306.177 74.7346 301.81 76.6455L285 84L268.19 76.6455C263.823 74.7346 261 70.4189 261 65.6514V56H309V65.6514ZM277 66.5V62H269L277 66.5ZM293 66.5L301 62H293V66.5Z" fill="#237BFF"/>
<path fill-rule="evenodd" clip-rule="evenodd" d="M295 38C298.314 38 301 40.6863 301 44V54H269V44C269 40.6863 271.686 38 275 38H295ZM273 50H283V44H273V50ZM287 50H297V44H287V50Z" fill="#237BFF"/>
<path d="M285 30C286.105 30 287 30.8954 287 32V36H283V32C283 30.8954 283.895 30 285 30Z" fill="#237BFF"/>
<path d="M258 29L252 23L264 23L258 29Z" fill="#EE5622"/>
<path d="M252 90L258 84L264 90H252Z" fill="#EE5622"/>
<path d="M259 40C259 40.5523 258.552 41 258 41C257.448 41 257 40.5523 257 40V33C257 32.4477 257.448 32 258 32C258.552 32 259 32.4477 259 33V40Z" fill="#EE5622"/>
<path d="M259 53C259 53.5523 258.552 54 258 54C257.448 54 257 53.5523 257 53L257 46C257 45.4477 257.448 45 258 45C258.552 45 259 45.4477 259 46L259 53Z" fill="#EE5622"/>
<path d="M259 66C259 66.5523 258.552 67 258 67C257.448 67 257 66.5523 257 66L257 59C257 58.4477 257.448 58 258 58C258.552 58 259 58.4477 259 59L259 66Z" fill="#EE5622"/>
<path d="M259 79C259 79.5523 258.552 80 258 80C257.448 80 257 79.5523 257 79L257 72C257 71.4477 257.448 71 258 71C258.552 71 259 71.4477 259 72L259 79Z" fill="#EE5622"/>
<rect opacity="0.5" x="309" y="29" width="1" height="51" transform="rotate(90 309 29)" fill="#EE5622"/>
<rect x="188" width="1" height="90" fill="#F2F2F3"/>
</g>
<defs>
<clipPath id="clip0_1775_400">
<rect width="375" height="90" fill="white"/>
</clipPath>
</defs>
</svg>
