<svg width="30" height="30" viewBox="0 0 30 30" fill="none" xmlns="http://www.w3.org/2000/svg">
<path d="M15 5C14.4477 5 14 5.44772 14 6V15.1707C12.8348 15.5825 12 16.6938 12 18C12 19.6569 13.3431 21 15 21C16.6569 21 18 19.6569 18 18C18 16.6938 17.1652 15.5825 16 15.1707V15H18C18.5523 15 19 14.5523 19 14C19 13.4477 18.5523 13 18 13H16V12H18C18.5523 12 19 11.5523 19 11C19 10.4477 18.5523 10 18 10H16V9H18C18.5523 9 19 8.55228 19 8C19 7.44772 18.5523 7 18 7H16V6C16 5.44772 15.5523 5 15 5Z" fill="#FF8800"/>
<path d="M9.5 18.882L10.0372 18.6133C10.1218 19.3043 10.3472 19.9518 10.6841 20.526L10.3944 20.6708C9.96147 20.8873 9.48406 21 9 21C8.51594 21 8.03853 20.8873 7.60557 20.6708L6.5 20.118C6.34475 20.0404 6.17357 20 6 20H5V18H6C6.48406 18 6.96147 18.1127 7.39443 18.3292L8.5 18.882C8.65525 18.9596 8.82643 19 9 19C9.17357 19 9.34476 18.9596 9.5 18.882Z" fill="#FF8800"/>
<path d="M19.9628 18.6133C19.8782 19.3043 19.6528 19.9518 19.3159 20.526L19.6056 20.6708C20.0385 20.8873 20.5159 21 21 21C21.4841 21 21.9615 20.8873 22.3944 20.6708L23.5 20.118C23.6552 20.0404 23.8264 20 24 20H25V18H24C23.5159 18 23.0385 18.1127 22.6056 18.3292L21.5 18.882C21.3448 18.9596 21.1736 19 21 19C20.8264 19 20.6552 18.9596 20.5 18.882L19.9628 18.6133Z" fill="#FF8800"/>
<path d="M15 23C13.8742 23 12.8353 22.6279 11.9995 22C11.5156 22.0001 11.0384 22.1128 10.6056 22.3292L9.5 22.882C9.34476 22.9596 9.17357 23 9 23C8.8714 23 8.74568 22.9619 8.63868 22.8906L8.3047 22.6679C7.90517 22.4016 7.4629 22.2112 7 22.1035V24.2174C7.06701 24.2518 7.13223 24.29 7.1953 24.3321L7.52927 24.5547C7.96481 24.8451 8.47655 25 9 25C9.48406 25 9.96147 24.8873 10.3944 24.6708L11.5 24.118C11.6552 24.0404 11.8264 24 12 24C12.1736 24 12.3448 24.0404 12.5 24.118L13.6056 24.6708C14.0385 24.8873 14.5159 25 15 25C15.4841 25 15.9615 24.8873 16.3944 24.6708L17.5 24.118C17.6552 24.0404 17.8264 24 18 24C18.1736 24 18.3448 24.0404 18.5 24.118L19.6056 24.6708C20.0385 24.8873 20.5159 25 21 25C21.5234 25 22.0352 24.8451 22.4707 24.5547L22.8047 24.3321C22.8678 24.29 22.933 24.2518 23 24.2174V22.1035C22.5371 22.2112 22.0948 22.4016 21.6953 22.6679L21.3613 22.8906C21.2543 22.9619 21.1286 23 21 23C20.8264 23 20.6552 22.9596 20.5 22.882L19.3944 22.3292C18.9616 22.1128 18.4844 22.0001 18.0005 22C17.1647 22.6279 16.1258 23 15 23Z" fill="#FF8800"/>
</svg>
