<svg width="30" height="30" viewBox="0 0 30 30" fill="none" xmlns="http://www.w3.org/2000/svg">
<path d="M11.5 6C11.8007 6 12.0701 6.18632 12.1758 6.46777L17.9365 21.8301C17.9572 21.8853 17.9727 21.9422 17.9834 22H26C26.5523 22 27 22.4477 27 23C27 23.5523 26.5523 24 26 24H4C3.44772 24 3 23.5523 3 23C3 22.4477 3.44772 22 4 22H5L10.8242 6.46777C10.9299 6.18632 11.1993 6 11.5 6Z" fill="#FF8800"/>
<path d="M23 6C23.5523 6 24 6.44772 24 7V12H26.2129C26.6476 12 27 12.3524 27 12.7871C27 12.9264 26.9628 13.0632 26.8926 13.1836L23.752 18.5684C23.5959 18.8357 23.3095 19 23 19C22.6905 19 22.4041 18.8357 22.248 18.5684L19.1074 13.1836C19.0372 13.0632 19 12.9264 19 12.7871C19 12.3524 19.3524 12 19.7871 12H22V7C22 6.44772 22.4477 6 23 6Z" fill="#FF8800"/>
</svg>
