<svg width="30" height="30" viewBox="0 0 30 30" fill="none" xmlns="http://www.w3.org/2000/svg">
<path d="M2 15L15 2L28 15L15 28L2 15Z" fill="#EF3F33"/>
<path d="M3.41421 15L15 3.41421L26.5858 15L15 26.5858L3.41421 15Z" stroke="black" stroke-width="2"/>
<path fill-rule="evenodd" clip-rule="evenodd" d="M14.75 17.5C15.1642 17.5 15.5 17.1642 15.5 16.75V16.5811C15.5 16.0673 15.5 15.5 14.6838 15V14C15.5 13.5 15.6312 12 14.8535 12C14.6582 12 14.5 12.1582 14.5 12.3535V13H12.5V12.3535C12.5 11.0537 13.5537 10 14.8535 10C16.0039 10 16.9858 10.8317 17.1749 11.9665L17.2265 12.276C17.3589 13.0705 16.8555 13.8526 16.4 14.4584C16.9082 15.03 17.5 15.7793 17.5 16.5811V16.75C17.5 18.2688 16.2688 19.5 14.75 19.5C13.2312 19.5 12 18.2688 12 16.75V16.5H14V16.75C14 17.1642 14.3358 17.5 14.75 17.5Z" fill="black"/>
<path fill-rule="evenodd" clip-rule="evenodd" d="M14.75 17.5C15.1642 17.5 15.5 17.1642 15.5 16.75V16.5811C15.5 16.0673 15.5 15.5 14.6838 15V14C15.5 13.5 15.6312 12 14.8535 12C14.6582 12 14.5 12.1582 14.5 12.3535V13H12.5V12.3535C12.5 11.0537 13.5537 10 14.8535 10C16.0039 10 16.9858 10.8317 17.1749 11.9665L17.2265 12.276C17.3589 13.0705 16.8555 13.8526 16.4 14.4584C16.9082 15.03 17.5 15.7793 17.5 16.5811V16.75C17.5 18.2688 16.2688 19.5 14.75 19.5C13.2312 19.5 12 18.2688 12 16.75V16.5H14V16.75C14 17.1642 14.3358 17.5 14.75 17.5Z" fill="black"/>
</svg>
