<svg width="49" height="48" viewBox="0 0 49 48" fill="none" xmlns="http://www.w3.org/2000/svg">
<g id="ic_custom_sensor_find">
<g id="Subtract" opacity="0.6">
<path d="M14.1875 16.2694C13.8344 16.0341 13.4023 15.9486 12.9862 16.0318C12.5701 16.115 12.2041 16.3601 11.9687 16.7132C11.9687 16.7132 10.1 19.574 10.1 24.0007C10.1 28.4274 11.9687 31.2882 11.9687 31.2882C12.2041 31.6412 12.5701 31.8863 12.9862 31.9696C13.4023 32.0528 13.8344 31.9673 14.1875 31.7319C14.5405 31.4966 14.7856 31.1306 14.8689 30.7145C14.9521 30.2984 14.8666 29.8663 14.6312 29.5132C14.6312 29.5132 13.3 27.574 13.3 24.0007C13.3 20.4274 14.6312 18.4882 14.6312 18.4882C14.8666 18.1351 14.9521 17.703 14.8689 17.2869C14.7856 16.8708 14.5405 16.5048 14.1875 16.2694Z" fill="#A49DAF"/>
<path d="M38.4382 20.2338C37.3202 19.6665 36.0763 19.3116 34.7594 19.2222C34.5399 18.7376 34.3687 18.4883 34.3687 18.4883C34.1333 18.1352 34.0478 17.7031 34.131 17.287C34.2143 16.8709 34.4594 16.5049 34.8124 16.2695C35.1655 16.0342 35.5976 15.9487 36.0137 16.0319C36.4298 16.1151 36.7958 16.3602 37.0312 16.7133C37.0312 16.7133 37.8848 18.02 38.4382 20.2338Z" fill="#A49DAF"/>
</g>
<g id="Subtract_2" opacity="0.4">
<path d="M41.7446 34.6077L41.7499 34.6011C41.7499 34.6011 45.2999 30.2107 45.2999 24.0011C45.2999 17.7916 41.7499 13.4011 41.7499 13.4011C41.6186 13.2369 41.4563 13.1001 41.2722 12.9987C41.088 12.8972 40.8857 12.8331 40.6767 12.8098C40.4678 12.7866 40.2563 12.8048 40.0543 12.8634C39.8524 12.9219 39.664 13.0197 39.4999 13.1511C39.3357 13.2824 39.1989 13.4447 39.0974 13.6289C38.996 13.813 38.9318 14.0154 38.9086 14.2243C38.8854 14.4333 38.9036 14.6448 38.9621 14.8467C39.0207 15.0486 39.1185 15.237 39.2499 15.4011C39.2499 15.4011 41.9014 18.7593 42.0894 23.4758C43.1068 24.9994 43.6999 26.8305 43.6999 28.8001C43.6999 30.9827 42.9716 32.9952 41.7446 34.6077Z" fill="#A49DAF"/>
<path d="M8.32183 12.8102C7.90038 12.8573 7.51486 13.0697 7.24995 13.4008C7.24995 13.4008 3.69995 17.7913 3.69995 24.0008C3.69995 30.2104 7.24995 34.6008 7.24995 34.6008C7.38121 34.7651 7.54355 34.9018 7.7277 35.0033C7.91184 35.1048 8.11418 35.1689 8.32314 35.1921C8.5321 35.2154 8.74359 35.1972 8.94551 35.1386C9.14744 35.08 9.33584 34.9823 9.49995 34.8508C9.66419 34.7196 9.80095 34.5572 9.90241 34.3731C10.0039 34.1889 10.068 33.9866 10.0913 33.7776C10.1145 33.5687 10.0963 33.3572 10.0377 33.1553C9.97916 32.9533 9.88137 32.7649 9.74995 32.6008C9.74995 32.6008 6.89995 28.9913 6.89995 24.0008C6.89995 19.0104 9.74995 15.4008 9.74995 15.4008C9.88137 15.2367 9.97916 15.0483 10.0377 14.8464C10.0963 14.6445 10.1145 14.433 10.0913 14.224C10.068 14.0151 10.0039 13.8127 9.90241 13.6286C9.80095 13.4444 9.66419 13.2821 9.49995 13.1508C9.33563 13.0194 9.14698 12.9216 8.94482 12.8632C8.74266 12.8047 8.53095 12.7867 8.32183 12.8102Z" fill="#A49DAF"/>
</g>
<path id="Subtract_3" opacity="0.8" fill-rule="evenodd" clip-rule="evenodd" d="M18.1 16.0004C18.1 15.1167 18.8163 14.4004 19.7 14.4004H29.3C30.1836 14.4004 30.9 15.1167 30.9 16.0004V19.7463C27.1714 21.0641 24.5 24.6201 24.5 28.8C24.5 30.5011 24.9424 32.0989 25.7186 33.4845C25.3241 33.5606 24.9167 33.6004 24.5 33.6004C20.9654 33.6004 18.1 30.735 18.1 27.2004V16.0004ZM27.7 19.2004C27.7 20.084 26.9836 20.8004 26.1 20.8004C25.2163 20.8004 24.5 20.084 24.5 19.2004C24.5 18.3167 25.2163 17.6004 26.1 17.6004C26.9836 17.6004 27.7 18.3167 27.7 19.2004Z" fill="#A49DAF"/>
<path id="Union" fill-rule="evenodd" clip-rule="evenodd" d="M37.3511 34.3139C36.3983 34.8769 35.2868 35.2 34.1 35.2C30.5653 35.2 27.7 32.3346 27.7 28.8C27.7 25.2654 30.5653 22.4 34.1 22.4C37.6346 22.4 40.5 25.2654 40.5 28.8C40.5 29.9869 40.1769 31.0984 39.6138 32.0512L43.2313 35.6687C43.8562 36.2935 43.8562 37.3066 43.2313 37.9314C42.6065 38.5562 41.5934 38.5562 40.9686 37.9314L37.3511 34.3139ZM37.3 28.8C37.3 30.5673 35.8673 32 34.1 32C32.3326 32 30.9 30.5673 30.9 28.8C30.9 27.0327 32.3326 25.6 34.1 25.6C35.8673 25.6 37.3 27.0327 37.3 28.8Z" fill="#A49DAF"/>
</g>
</svg>
