<svg width="30" height="30" viewBox="0 0 30 30" fill="none" xmlns="http://www.w3.org/2000/svg">
<path d="M17 4C18.6569 4 20 5.34315 20 7V7.34082C22.9883 9.07005 25 12.2991 25 16C25 21.5228 20.5228 26 15 26C9.47715 26 5 21.5228 5 16C5 12.2991 7.01171 9.07005 10 7.34082V7C10 5.34315 11.3431 4 13 4H17Z" fill="#2D3C53"/>
<path fill-rule="evenodd" clip-rule="evenodd" d="M17 6C17.5523 6 18 6.44772 18 7C18 7.55228 17.5523 8 17 8H13C12.4477 8 12 7.55228 12 7C12 6.44772 12.4477 6 13 6H17ZM15 8C19.4183 8 23 11.5817 23 16C23 20.4183 19.4183 24 15 24C10.5817 24 7 20.4183 7 16C7 11.5817 10.5817 8 15 8Z" fill="#237BFF"/>
<path fill-rule="evenodd" clip-rule="evenodd" d="M15 22C18.3137 22 21 19.3137 21 16C21 12.6863 18.3137 10 15 10C11.6863 10 9 12.6863 9 16C9 19.3137 11.6863 22 15 22Z" fill="#00398F"/>
<path d="M20.7422 14.2568C20.9094 14.8085 21 15.3937 21 16C21 19.3137 18.3137 22 15 22C14.3937 22 13.8085 21.9094 13.2568 21.7422L16.585 18.4131C16.947 18.7756 17.4472 19 18 19C19.1046 19 20 18.1046 20 17V14.999L20.7422 14.2568Z" fill="#E71D36"/>
<path d="M11.293 19.707C11.6835 20.0976 12.3166 20.0976 12.7071 19.707L17 15.4141V17C17 17.5523 17.4478 18 18 18C18.5523 18 19 17.5523 19 17V13C19 12.4477 18.5523 12 18 12H14C13.4478 12 13 12.4477 13 13C13 13.5523 13.4478 14 14 14H15.586L11.293 18.293C10.9025 18.6835 10.9025 19.3165 11.293 19.707Z" fill="#FFC107"/>
</svg>
