<svg width="30" height="30" viewBox="0 0 30 30" fill="none" xmlns="http://www.w3.org/2000/svg">
<path opacity="0.2" d="M14 8C14 7.44772 13.5523 7 13 7H7C6.44772 7 6 7.44772 6 8V11H14V8Z" fill="#FF8800"/>
<path fill-rule="evenodd" clip-rule="evenodd" d="M16 8C16 6.34315 14.6569 5 13 5H7C5.34314 5 4 6.34315 4 8V22C4 23.6569 5.34315 25 7 25H14.5815C14.3262 24.3693 14.149 23.6986 14.0619 23H7C6.44772 23 6 22.5523 6 22V13H13C14.3062 13 15.4175 12.1652 15.8293 11H23C23.5523 11 24 11.4477 24 12V14.252C24.7095 14.4347 25.381 14.7122 26 15.0703V12C26 10.3431 24.6569 9 23 9H16V8ZM13 11H6V8C6 7.44772 6.44772 7 7 7H13C13.5523 7 14 7.44772 14 8V10C14 10.5523 13.5523 11 13 11Z" fill="#FF8800"/>
<path fill-rule="evenodd" clip-rule="evenodd" d="M28 22C28 25.3137 25.3137 28 22 28C18.6863 28 16 25.3137 16 22C16 18.6863 18.6863 16 22 16C25.3137 16 28 18.6863 28 22ZM22 18C22.5523 18 23 18.4477 23 19V21H25C25.5523 21 26 21.4477 26 22C26 22.5523 25.5523 23 25 23H23V25C23 25.5523 22.5523 26 22 26C21.4477 26 21 25.5523 21 25V23H19C18.4477 23 18 22.5523 18 22C18 21.4477 18.4477 21 19 21H21V19C21 18.4477 21.4477 18 22 18Z" fill="#FF8800"/>
</svg>
