<svg width="62" height="62" viewBox="0 0 62 62" fill="none" xmlns="http://www.w3.org/2000/svg">
<path fill-rule="evenodd" clip-rule="evenodd" d="M40.7222 53.8256C49.6998 50.0494 56 41.2016 56 30.8889C56 17.1431 44.8071 6 31 6C17.1929 6 6 17.1431 6 30.8889C6 41.2016 12.3002 50.0494 21.2778 53.8256C25.7917 55.7778 27.5278 56.8148 28.9167 59.5802C29.0519 59.8495 29.1674 60.1057 29.2747 60.3436C29.7182 61.3276 30.0214 62 31 62C31.9786 62 32.2818 61.3276 32.7253 60.3436C32.8326 60.1057 32.9481 59.8495 33.0833 59.5802C34.4722 56.8148 36.0813 55.7778 40.7222 53.8256Z" fill="#331B00"/>
<path d="M53 31C53 43.1503 43.1503 53 31 53C18.8497 53 9 43.1503 9 31C9 18.8497 18.8497 9 31 9C43.1503 9 53 18.8497 53 31Z" fill="#FF8800"/>
<path opacity="0.1" fill-rule="evenodd" clip-rule="evenodd" d="M31 52C42.598 52 52 42.598 52 31C52 19.402 42.598 10 31 10C19.402 10 10 19.402 10 31C10 42.598 19.402 52 31 52ZM31 53C43.1503 53 53 43.1503 53 31C53 18.8497 43.1503 9 31 9C18.8497 9 9 18.8497 9 31C9 43.1503 18.8497 53 31 53Z" fill="white"/>
</svg>
