<svg width="61" height="60" viewBox="0 0 61 60" fill="none" xmlns="http://www.w3.org/2000/svg">
<path d="M20.1001 28C20.3208 28.0003 20.5005 28.1796 20.5005 28.4004V31.5996C20.5005 31.8204 20.3208 31.9997 20.1001 32H16.9009C16.68 32 16.5005 31.8205 16.5005 31.5996V28.4004C16.5005 28.1795 16.68 28 16.9009 28H20.1001Z" fill="#BEB9C5"/>
<path d="M20.1001 20C20.3208 20.0003 20.5005 20.1796 20.5005 20.4004V23.5996C20.5005 23.8204 20.3208 23.9997 20.1001 24H16.9009C16.68 24 16.5005 23.8205 16.5005 23.5996V20.4004C16.5005 20.1795 16.68 20 16.9009 20H20.1001Z" fill="#BEB9C5"/>
<path d="M28.1001 20C28.3208 20.0003 28.5005 20.1796 28.5005 20.4004V23.5996C28.5005 23.8204 28.3208 23.9997 28.1001 24H24.9009C24.68 24 24.5005 23.8205 24.5005 23.5996V20.4004C24.5005 20.1795 24.68 20 24.9009 20H28.1001Z" fill="#BEB9C5"/>
<path fill-rule="evenodd" clip-rule="evenodd" d="M51.0864 6.58594C51.8675 5.80489 53.1335 5.80489 53.9146 6.58594C54.6951 7.36702 54.6954 8.63317 53.9146 9.41406L9.91455 53.4141C9.13365 54.195 7.86751 54.1947 7.08643 53.4141C6.30538 52.633 6.30538 51.367 7.08643 50.5859L10.1567 47.5137C8.00865 46.6017 6.50049 44.4811 6.50049 42V18C6.50049 14.6863 9.18678 12 12.5005 12H45.6724L51.0864 6.58594ZM12.5005 16C11.3959 16 10.5005 16.8954 10.5005 18V42C10.5005 43.1046 11.3959 44 12.5005 44H13.6724L25.6724 32H24.9009C24.68 32 24.5005 31.8205 24.5005 31.5996V28.4004C24.5005 28.1795 24.68 28 24.9009 28H28.1001C28.3208 28.0003 28.5005 28.1796 28.5005 28.4004V29.1719L33.6724 24H32.9009C32.68 24 32.5005 23.8205 32.5005 23.5996V20.4004C32.5005 20.1795 32.68 20 32.9009 20H36.1001C36.3208 20.0003 36.5005 20.1796 36.5005 20.4004V21.1719L41.6724 16H12.5005Z" fill="#BEB9C5"/>
<path d="M54.1528 16.002C54.374 16.6275 54.5005 17.2987 54.5005 18V42C54.5005 45.3135 51.814 47.9997 48.5005 48H22.1567L26.1567 44H48.5005C49.6048 43.9997 50.5005 43.1044 50.5005 42V19.6563L54.1528 16.002Z" fill="#BEB9C5"/>
<path d="M38.5005 36C39.6048 36.0003 40.5005 36.8956 40.5005 38C40.5005 39.1044 39.6048 39.9997 38.5005 40H30.1567L34.1567 36H38.5005Z" fill="#BEB9C5"/>
<path d="M44.1001 28C44.3208 28.0003 44.5005 28.1796 44.5005 28.4004V31.5996C44.5005 31.8204 44.3208 31.9997 44.1001 32H40.9009C40.68 32 40.5005 31.8205 40.5005 31.5996V29.6563L42.1567 28H44.1001Z" fill="#BEB9C5"/>
</svg>
