<svg width="30" height="30" viewBox="0 0 30 30" fill="none" xmlns="http://www.w3.org/2000/svg">
<path d="M15.707 3.29283C15.3165 2.90243 14.6835 2.90235 14.293 3.29283C13.9026 3.68332 13.9026 4.3164 14.293 4.70689L16.5859 6.99986H15C10.0294 6.99986 6 11.0293 6 15.9999C6 20.9704 10.0294 24.9999 15 24.9999C19.9706 24.9999 24 20.9704 24 15.9999C24 15.4476 23.5523 14.9999 23 14.9999C22.4477 14.9999 22 15.4476 22 15.9999C22 19.8659 18.866 22.9999 15 22.9999C11.134 22.9999 8 19.8659 8 15.9999C8 12.1339 11.134 8.99986 15 8.99986H16.5859L14.293 11.2928C13.9025 11.6833 13.9025 12.3164 14.293 12.7069C14.6835 13.0973 15.3165 13.0973 15.707 12.7069L19.707 8.70689C19.8946 8.51936 20 8.26507 20 7.99986C20 7.73465 19.8946 7.48036 19.707 7.29283L15.707 3.29283Z" fill="#FF8800"/>
</svg>
