<svg width="30" height="30" viewBox="0 0 30 30" fill="none" xmlns="http://www.w3.org/2000/svg">
<path fill-rule="evenodd" clip-rule="evenodd" d="M17.5949 8H13V10H15V13H8V12C8 11.4477 7.55228 11 7 11H4C3.44772 11 3 11.4477 3 12V14H4.75L4 17H3V19C3.49142 19 3.73138 18.9925 4.0503 18.8968C4.38377 18.7968 4.92367 18.5572 5.8 17.9L7.03952 16.9704L8.24939 17.9383C9.18747 18.6887 10.131 19 11 19C11.869 19 12.8125 18.6887 13.7506 17.9383L15 16.9388L16.2494 17.9383C17.1875 18.6887 18.131 19 19 19C19.869 19 20.8125 18.6887 21.7506 17.9383L22.9605 16.9704L24.2 17.9C24.5767 18.1825 24.8913 18.3879 25.154 18.5381L27 13H23.635L20.6678 9.43926C19.9078 8.52729 18.782 8 17.5949 8ZM17 13H21.0316L19.1313 10.7196C18.7513 10.2636 18.1884 10 17.5949 10H17V13Z" fill="#FF8800"/>
<path d="M15.6247 18.7192L15 18.2195L14.3753 18.7192C13.2813 19.5945 12.122 20.0001 11 20.0001C9.87799 20.0001 8.71874 19.5945 7.62469 18.7192L7.01976 18.2353L6.4 18.7001C5.46184 19.4037 4.81688 19.711 4.33765 19.8548C3.86569 19.9964 3.49571 20.0001 3 20.0001V22.0001L3.02347 22.0001C3.5238 22.0002 4.14634 22.0002 4.91235 21.7704C5.53045 21.585 6.20274 21.2636 6.99242 20.7328C8.23921 21.5643 9.60595 22.0001 11 22.0001C12.3912 22.0001 13.7553 21.5661 15 20.7379C16.2448 21.5661 17.6088 22.0001 19 22.0001C20.394 22.0001 21.7608 21.5643 23.0076 20.7328C23.7973 21.2636 24.4696 21.585 25.0877 21.7704C25.8537 22.0002 26.4762 22.0002 26.9765 22.0001L27 22.0001V20.0001C26.5043 20.0001 26.1343 19.9964 25.6623 19.8548C25.1831 19.711 24.5382 19.4037 23.6 18.7001L22.9802 18.2353L22.3753 18.7192C21.2813 19.5945 20.122 20.0001 19 20.0001C17.878 20.0001 16.7187 19.5945 15.6247 18.7192Z" fill="#FF8800"/>
</svg>
