<svg width="30" height="30" viewBox="0 0 30 30" fill="none" xmlns="http://www.w3.org/2000/svg">
<path d="M11.5 6C11.8007 6 12.0701 6.18632 12.1758 6.46777L17.9365 21.8301C17.9572 21.8853 17.9727 21.9422 17.9834 22H26C26.5523 22 27 22.4477 27 23C27 23.5523 26.5523 24 26 24H4C3.44772 24 3 23.5523 3 23C3 22.4477 3.44772 22 4 22H5L10.8242 6.46777C10.9299 6.18632 11.1993 6 11.5 6Z" fill="#FF8800"/>
<path d="M23 6C23.3095 6 23.5959 6.16431 23.752 6.43164L26.8926 11.8164C26.9628 11.9368 27 12.0736 27 12.2129C27 12.6476 26.6476 13 26.2129 13H24V18C24 18.5523 23.5523 19 23 19C22.4477 19 22 18.5523 22 18V13H19.7871C19.3524 13 19 12.6476 19 12.2129C19 12.0736 19.0372 11.9368 19.1074 11.8164L22.248 6.43164C22.4041 6.16431 22.6905 6 23 6Z" fill="#FF8800"/>
</svg>
