<svg width="30" height="30" viewBox="0 0 30 30" fill="none" xmlns="http://www.w3.org/2000/svg">
<path d="M3 16V18C3 19.3538 3.89669 20.4981 5.12854 20.8715C5.5019 22.1033 6.64623 23 8 23H24C25.6569 23 27 21.6569 27 20V16H3Z" fill="black" fill-opacity="0.3"/>
<path fill-rule="evenodd" clip-rule="evenodd" d="M5.12854 10.1285C5.5019 8.89669 6.64623 8 8 8H24C25.6569 8 27 9.34315 27 11V19C27 20.6569 25.6569 22 24 22H8C6.64623 22 5.5019 21.1033 5.12854 19.8715C3.89669 19.4981 3 18.3538 3 17V13C3 11.6462 3.89669 10.5019 5.12854 10.1285Z" fill="#FFC107"/>
<path d="M11.8918 10H8C7.44772 10 7 10.4477 7 11V12H6C5.44772 12 5 12.4477 5 13V17C5 17.5523 5.44772 18 6 18H7V19C7 19.5523 7.44772 20 8 20H12.3332C12.3332 19.8913 12.3422 19.7814 12.3605 19.6712L12.6391 18H12C11.3571 18 10.7534 17.691 10.3775 17.1694C10.0016 16.6479 9.89933 15.9774 10.1026 15.3675L11.8918 10Z" fill="#48942E"/>
<path d="M16.6772 20H24C24.5523 20 25 19.5523 25 19V11C25 10.4477 24.5523 10 24 10H19C19 10.2367 18.958 10.4745 18.8727 10.7022L18.3729 12.035C18.9471 12.1439 19.4524 12.501 19.7444 13.0217C20.0983 13.6527 20.0838 14.4256 19.7066 15.0429L16.6772 20Z" fill="#48942E"/>
<path d="M14 10L12 16H15L14.3333 20L18 14H15.5L17 10H14Z" fill="#59361B"/>
</svg>
