<svg width="30" height="30" viewBox="0 0 30 30" fill="none" xmlns="http://www.w3.org/2000/svg">
<path d="M6.80389 10.0199C7.06395 9.9679 7.33402 10.0213 7.55469 10.1684C7.77535 10.3155 7.92854 10.5443 7.98055 10.8044C8.03256 11.0644 7.97914 11.3345 7.83203 11.5551C7.83203 11.5551 7 12.7671 7 15.0005C7 17.2338 7.83203 18.4458 7.83203 18.4458C7.97914 18.6664 8.03256 18.9365 7.98055 19.1966C7.92854 19.4566 7.77535 19.6854 7.55469 19.8325C7.33402 19.9796 7.06395 20.033 6.80389 19.981C6.54383 19.929 6.31509 19.7758 6.16797 19.5551C6.16797 19.5551 5 17.7671 5 15.0005C5 12.2338 6.16797 10.4458 6.16797 10.4458C6.31509 10.2251 6.54383 10.0719 6.80389 10.0199Z" fill="#FFC30D"/>
<path d="M23.1961 19.9811C22.936 20.0331 22.666 19.9797 22.4453 19.8325C22.2246 19.6854 22.0714 19.4567 22.0194 19.1966C21.9674 18.9366 22.0208 18.6665 22.1679 18.4458C22.1679 18.4458 23 17.2338 23 15.0005C23 12.7672 22.1679 11.5552 22.1679 11.5552C22.0208 11.3345 21.9674 11.0645 22.0194 10.8044C22.0714 10.5443 22.2246 10.3156 22.4453 10.1685C22.666 10.0214 22.936 9.96796 23.1961 10.02C23.4561 10.072 23.6849 10.2252 23.832 10.4458C23.832 10.4458 25 12.2339 25 15.0005C25 17.7672 23.832 19.5552 23.832 19.5552C23.6849 19.7759 23.4561 19.9291 23.1961 19.9811Z" fill="#FFC30D"/>
<g opacity="0.8">
<path d="M26.7812 21.6256C26.6157 21.8325 26.3747 21.9653 26.1113 21.9947C25.9806 22.0094 25.8483 21.9981 25.7219 21.9616C25.5956 21.9251 25.4777 21.864 25.375 21.7818C25.2723 21.6998 25.1868 21.5983 25.1234 21.4832C25.06 21.3681 25.0199 21.2417 25.0054 21.1111C24.9909 20.9805 25.0023 20.8483 25.0389 20.7221C25.0755 20.5959 25.1366 20.4781 25.2187 20.3756C25.2187 20.3756 27 18.1196 27 15.0006C27 11.8815 25.2187 9.62556 25.2187 9.62556C25.1366 9.52299 25.0755 9.40524 25.0389 9.27904C25.0023 9.15284 24.9909 9.02066 25.0054 8.89006C25.0199 8.75946 25.06 8.633 25.1234 8.51791C25.1868 8.40282 25.2723 8.30135 25.375 8.21931C25.4775 8.13718 25.5953 8.07606 25.7215 8.03946C25.8477 8.00285 25.9799 7.99148 26.1105 8.00599C26.2411 8.02051 26.3675 8.06061 26.4826 8.12403C26.5977 8.18744 26.6992 8.27291 26.7812 8.37556C26.7812 8.37556 29 11.1196 29 15.0006C29 18.8815 26.7812 21.6256 26.7812 21.6256Z" fill="#FFC30D"/>
<path d="M3.21875 8.37547C3.38432 8.1685 3.62527 8.03573 3.88867 8.00633C4.01938 7.99165 4.15169 8.00289 4.27804 8.03942C4.40439 8.07595 4.5223 8.13705 4.625 8.21922C4.72765 8.30125 4.81312 8.40272 4.87654 8.51781C4.93995 8.6329 4.98006 8.75936 4.99457 8.88996C5.00908 9.02056 4.99771 9.15274 4.96111 9.27894C4.9245 9.40515 4.86339 9.5229 4.78125 9.62547C4.78125 9.62547 3 11.8814 3 15.0005C3 18.1195 4.78125 20.3755 4.78125 20.3755C4.86339 20.478 4.9245 20.5958 4.96111 20.722C4.99771 20.8482 5.00908 20.9804 4.99457 21.111C4.98006 21.2416 4.93995 21.368 4.87654 21.4831C4.81312 21.5982 4.72765 21.6997 4.625 21.7817C4.52243 21.8639 4.40468 21.925 4.27848 21.9616C4.15227 21.9982 4.02009 22.0095 3.88949 21.995C3.75889 21.9805 3.63243 21.9404 3.51734 21.877C3.40225 21.8136 3.30079 21.7281 3.21875 21.6255C3.21875 21.6255 1 18.8814 1 15.0005C1 11.1195 3.21875 8.37547 3.21875 8.37547Z" fill="#FFC30D"/>
</g>
<path d="M10 9.99988C10 8.89531 10.8954 7.99988 12 7.99988H18C19.1046 7.99988 20 8.89531 20 9.99988V16.9999C20 19.7613 17.7614 21.9999 15 21.9999V21.9999C12.2386 21.9999 10 19.7613 10 16.9999V9.99988Z" fill="#5714CC"/>
<circle cx="17" cy="10.9999" r="1" fill="#FFC30D"/>
<path d="M16 14.9999C16 14.4476 16.4477 13.9999 17 13.9999V13.9999C17.5523 13.9999 18 14.4476 18 14.9999V17.6665C18 18.4029 17.403 18.9999 16.6667 18.9999V18.9999C16.2985 18.9999 16 18.7014 16 18.3332V14.9999Z" fill="#CEB3FF"/>
</svg>
