<svg width="30" height="30" viewBox="0 0 30 30" fill="none" xmlns="http://www.w3.org/2000/svg">
<path fill-rule="evenodd" clip-rule="evenodd" d="M4 5C3.44772 5 3 5.44772 3 6V16C3 16.5523 3.44772 17 4 17H5.20004C6.12658 21.5645 10.1621 25 15 25C20.5228 25 25 20.5228 25 15C25 9.47715 20.5229 5 15 5C13.753 5 12.5594 5.22823 11.4586 5.6452C10.7326 5.23445 9.89366 5 9 5H4ZM8.99903 7H5V15C5 11.7288 6.57069 8.82446 8.99903 7Z" fill="#404040"/>
<path fill-rule="evenodd" clip-rule="evenodd" d="M11.7708 22.3193C10.5233 21.7689 9.43727 20.9089 8.61566 19.8208L12.2544 17.0732L11.5 21.0622L15.5155 17.607L21.0622 18.5L17.5155 14.1429L18.5 8.93782L14.992 11.9562L14.979 7.00003C16.3425 6.99646 17.6842 7.34141 18.8768 8.00213C20.0695 8.66286 21.0735 9.61744 21.7935 10.7753C22.5135 11.9331 22.9257 13.2557 22.9908 14.6176C23.056 15.9794 22.7721 17.3354 22.1659 18.5567C21.5597 19.7779 20.6515 20.824 19.5274 21.5956C18.4033 22.3673 17.1007 22.8388 15.7431 22.9654C14.3856 23.0921 13.0182 22.8697 11.7708 22.3193ZM19.5981 13.0359L19.0981 13.9019L19.9641 14.4019L21.8301 13.1699L19.5981 13.0359ZM15.5981 19.9641L16.0981 19.0981L16.9641 19.5981L16.8301 21.8301L15.5981 19.9641Z" fill="#F8EBE8"/>
<path opacity="0.5" fill-rule="evenodd" clip-rule="evenodd" d="M21.0622 18.5L15.5155 17.6071L11.5 21.0622L15 15L21.0622 18.5Z" fill="#FF0000"/>
<path fill-rule="evenodd" clip-rule="evenodd" d="M8.93781 11.5L14.4844 12.3929L18.5 8.93782L15 15L8.93781 11.5Z" fill="#0075FF"/>
<path fill-rule="evenodd" clip-rule="evenodd" d="M5 7V15H7V13H8L9.5 15H12L10.2841 12.7121C11.2985 12.2309 12 11.1974 12 10C12 8.34315 10.6569 7 9 7H5ZM7 11H9C9.55228 11 10 10.5523 10 10C10 9.44772 9.55228 9 9 9H7V11Z" fill="#FFC107"/>
</svg>
