<svg width="30" height="30" viewBox="0 0 30 30" fill="none" xmlns="http://www.w3.org/2000/svg">
<path fill-rule="evenodd" clip-rule="evenodd" d="M21 28C24.866 28 28 24.866 28 21C28 17.134 24.866 14 21 14C17.134 14 14 17.134 14 21C14 24.866 17.134 28 21 28ZM24.7071 20.2929L21.7071 17.2929C21.3166 16.9024 20.6834 16.9024 20.2929 17.2929C19.9024 17.6834 19.9024 18.3166 20.2929 18.7071L21.5858 20H18C17.4477 20 17 20.4477 17 21C17 21.5523 17.4477 22 18 22H21.5858L20.2929 23.2929C19.9024 23.6834 19.9024 24.3166 20.2929 24.7071C20.6834 25.0976 21.3166 25.0976 21.7071 24.7071L24.7071 21.7071C25.0976 21.3166 25.0976 20.6834 24.7071 20.2929Z" fill="#FF8800"/>
</svg>
