<svg width="30" height="30" viewBox="0 0 30 30" fill="none" xmlns="http://www.w3.org/2000/svg">
<path d="M23 24C23.5523 24 24 24.4477 24 25C24 25.5523 23.5523 26 23 26H7C6.44772 26 6 25.5523 6 25C6 24.4477 6.44772 24 7 24H23Z" fill="#FF8800"/>
<path d="M9 20C9.55228 20 10 20.4477 10 21C10 21.5523 9.55228 22 9 22H7C6.44772 22 6 21.5523 6 21C6 20.4477 6.44772 20 7 20H9Z" fill="#FF8800"/>
<path d="M18.3691 4.22461C18.7619 3.90426 19.3409 3.92685 19.707 4.29297L23.707 8.29297C24.0976 8.68349 24.0976 9.31651 23.707 9.70703C23.3165 10.0976 22.6835 10.0976 22.293 9.70703L20 7.41406V21C20 21.5523 19.5523 22 19 22C18.4477 22 18 21.5523 18 21V7.41406L15.707 9.70703C15.3165 10.0976 14.6835 10.0976 14.293 9.70703C13.9024 9.31651 13.9024 8.68349 14.293 8.29297L18.293 4.29297L18.3691 4.22461Z" fill="#FF8800"/>
<path d="M9 16C9.55228 16 10 16.4477 10 17C10 17.5523 9.55228 18 9 18H7C6.44772 18 6 17.5523 6 17C6 16.4477 6.44772 16 7 16H9Z" fill="#FF8800"/>
<path d="M9 12C9.55228 12 10 12.4477 10 13C10 13.5523 9.55228 14 9 14H7C6.44772 14 6 13.5523 6 13C6 12.4477 6.44772 12 7 12H9Z" fill="#FF8800"/>
<path d="M9 8C9.55228 8 10 8.44772 10 9C10 9.55228 9.55228 10 9 10H7C6.44772 10 6 9.55228 6 9C6 8.44772 6.44772 8 7 8H9Z" fill="#FF8800"/>
<path d="M9 4C9.55228 4 10 4.44772 10 5C10 5.55228 9.55228 6 9 6H7C6.44772 6 6 5.55228 6 5C6 4.44772 6.44772 4 7 4H9Z" fill="#FF8800"/>
</svg>
