<svg width="30" height="30" viewBox="0 0 30 30" fill="none" xmlns="http://www.w3.org/2000/svg">
<path d="M10.654 17.0869C9.62911 17.7148 9 18.5645 9 19.5C9 21.433 11.6863 23 15 23C18.3137 23 21 21.433 21 19.5C21 18.5654 20.3721 17.7164 19.3489 17.0887C19.0303 17.6734 18.6848 18.2452 18.3203 18.8041C18.6294 18.9962 18.8129 19.1787 18.9093 19.3117C18.9596 19.381 18.9815 19.4301 18.9909 19.4567C18.9995 19.4812 19 19.4937 19 19.5C19 19.5063 18.9995 19.5187 18.9909 19.5433C18.9815 19.5699 18.9596 19.619 18.9093 19.6883C18.8044 19.8331 18.5962 20.0366 18.2349 20.2473C17.5056 20.6727 16.3664 21 15 21C13.6336 21 12.4944 20.6727 11.7651 20.2473C11.4038 20.0366 11.1956 19.8331 11.0907 19.6883C11.0404 19.619 11.0185 19.5699 11.0091 19.5433C11.0005 19.5187 11 19.5063 11 19.5C11 19.4937 11.0005 19.4812 11.0091 19.4567C11.0185 19.4301 11.0404 19.381 11.0907 19.3117C11.1877 19.1778 11.3731 18.9937 11.6861 18.8001C11.3214 18.2418 10.9743 17.6711 10.654 17.0869Z" fill="#FF8800"/>
<path fill-rule="evenodd" clip-rule="evenodd" d="M19 12C19 15 15 20 15 20C15 20 11 15 11 12C11 9.79086 12.7909 8 15 8C17.2091 8 19 9.79086 19 12ZM16 12C16 12.5523 15.5523 13 15 13C14.4477 13 14 12.5523 14 12C14 11.4477 14.4477 11 15 11C15.5523 11 16 11.4477 16 12Z" fill="#FF8800"/>
<path fill-rule="evenodd" clip-rule="evenodd" d="M27 15C27 21.6274 21.6274 27 15 27C8.37258 27 3 21.6274 3 15C3 8.37258 8.37258 3 15 3C21.6274 3 27 8.37258 27 15ZM15 25C20.5228 25 25 20.5228 25 15C25 9.47715 20.5228 5 15 5C9.47715 5 5 9.47715 5 15C5 20.5228 9.47715 25 15 25Z" fill="#FF8800"/>
</svg>
