<svg width="30" height="30" viewBox="0 0 30 30" fill="none" xmlns="http://www.w3.org/2000/svg">
<path opacity="0.5" fill-rule="evenodd" clip-rule="evenodd" d="M20 2C21.6569 2 23 3.34315 23 5V25C23 26.6569 21.6569 28 20 28H10C8.34315 28 7 26.6569 7 25V5C7 3.34315 8.34314 2 10 2H20ZM20 26H10C9.45761 25.9742 9 25.5649 9 25V5C9 4.44772 9.44772 4 10 4H20C20.5523 4 21 4.44772 21 5V25C21 25.5649 20.5424 25.9742 20 26Z" fill="#FF8800"/>
<path opacity="0.2" d="M9 5C9 4.44772 9.44772 4 10 4H20C20.5523 4 21 4.44772 21 5V25C21 25.5523 20.5523 26 20 26H10C9.44772 26 9 25.5523 9 25V5Z" fill="#FF8800"/>
<path d="M15.5 5C15.7761 5 16 5.22386 16 5.5V9.5C16 9.77614 15.7761 10 15.5 10H10.5C10.2239 10 10 9.77614 10 9.5V5.5C10 5.22386 10.2239 5 10.5 5H15.5Z" fill="#FF8800"/>
<path d="M19.5 8C19.7761 8 20 8.22386 20 8.5V9.5C20 9.77614 19.7761 10 19.5 10H17.5C17.2239 10 17 9.77614 17 9.5V8.5C17 8.22386 17.2239 8 17.5 8H19.5Z" fill="#FF8800"/>
<path d="M19.5 5C19.7761 5 20 5.22386 20 5.5V6.5C20 6.77614 19.7761 7 19.5 7H17.5C17.2239 7 17 6.77614 17 6.5V5.5C17 5.22386 17.2239 5 17.5 5H19.5Z" fill="#FF8800"/>
<path d="M11.5 22C12.3284 22 13 22.6716 13 23.5C13 24.3284 12.3284 25 11.5 25C10.6716 25 10 24.3284 10 23.5C10 22.6716 10.6716 22 11.5 22Z" fill="#FF8800"/>
<path d="M19.5 22C19.7761 22 20 22.2239 20 22.5V24.5C20 24.7761 19.7761 25 19.5 25H14.5C14.2239 25 14 24.7761 14 24.5V22.5C14 22.2239 14.2239 22 14.5 22H19.5Z" fill="#FF8800"/>
</svg>
