<svg width="30" height="30" viewBox="0 0 30 30" fill="none" xmlns="http://www.w3.org/2000/svg">
<path fill-rule="evenodd" clip-rule="evenodd" d="M17.9999 7C17.9999 8.10457 17.1045 9 15.9999 9C14.8953 9 13.9999 8.10457 13.9999 7C13.9999 5.89543 14.8953 5 15.9999 5C17.1045 5 17.9999 5.89543 17.9999 7ZM9.22791 13.705L11.7279 9.70499C12.1944 8.95866 13.2377 8.78259 13.9244 9.31856L16.0508 10.832C16.215 10.9415 16.408 11 16.6055 11H19.9999V13H16.6055C16.0132 13 15.4342 12.8247 14.9414 12.4961L13.967 11.8465L12.5487 14.4117L15.304 16.4781C15.6859 16.7645 15.9528 17.1781 16.0563 17.6442L16.9761 21.7831L15.0237 22.2169L14.104 18.0781L9.99989 16C8.9999 15.5 8.80787 14.3771 9.22791 13.705ZM25 18C25 19.4142 24.2661 20.6571 23.1583 21.3683L25 21V25H9H5L7.18152 24.5637C5.88653 23.9016 5 22.5543 5 21C5 18.7909 6.79086 17 9 17C11.2091 17 13 18.7909 13 21C13 21.9881 12.6417 22.8925 12.048 23.5904L20.3028 21.9394C18.426 21.6096 17 19.9713 17 18C17 15.7909 18.7909 14 21 14C23.2091 14 25 15.7909 25 18ZM23 18C23 19.1046 22.1046 20 21 20C19.8954 20 19 19.1046 19 18C19 16.8954 19.8954 16 21 16C22.1046 16 23 16.8954 23 18ZM11 21C11 22.1046 10.1046 23 9 23C7.89543 23 7 22.1046 7 21C7 19.8954 7.89543 19 9 19C10.1046 19 11 19.8954 11 21Z" fill="#FF8800"/>
</svg>
