<svg width="30" height="30" viewBox="0 0 30 30" fill="none" xmlns="http://www.w3.org/2000/svg">
<path d="M7 5H23V19H7V5Z" fill="#3E3E42"/>
<path d="M7 5H9V25H7V5Z" fill="#4D65F8"/>
<path fill-rule="evenodd" clip-rule="evenodd" d="M9 17H21V7H9V17Z" fill="white"/>
<path d="M11 7H13V9H11V7Z" fill="#3E3E42"/>
<path d="M11 11V9H9V11H11Z" fill="#3E3E42"/>
<path fill-rule="evenodd" clip-rule="evenodd" d="M13 11H11V13H9V15H11V17H13V15H15V17H17V15H19V17H21V15H19V13H21V11H19V9H21V7H19V9H17V7H15V9H13V11ZM15 11V9H17V11H15ZM15 13V11H13V13H11V15H13V13H15ZM17 13V15H15V13H17ZM17 13V11H19V13H17Z" fill="#3E3E42"/>
</svg>
