<svg width="30" height="30" viewBox="0 0 30 30" fill="none" xmlns="http://www.w3.org/2000/svg">
<path d="M28 20C28 21.6569 26.6569 23 25 23L5 23C3.34314 23 2 21.6569 2 20L2 10C2 8.34314 3.34315 7 5 7L25 7C26.6569 7 28 8.34314 28 10L28 20ZM26 10L25.9951 9.89746C25.9438 9.39333 25.5177 9 25 9L5 9C4.48232 9 4.05622 9.39333 4.00488 9.89746L4 10L4 20C4 20.5523 4.44772 21 5 21L25 21C25.5523 21 26 20.5523 26 20L26 10ZM25 19.5C25 19.7761 24.7761 20 24.5 20L20.5 20C20.2239 20 20 19.7761 20 19.5L20 10.5C20 10.2239 20.2239 10 20.5 10L24.5 10C24.7761 10 25 10.2239 25 10.5L25 19.5Z" fill="#FF8800"/>
</svg>
