<svg width="30" height="30" viewBox="0 0 30 30" fill="none" xmlns="http://www.w3.org/2000/svg">
<g opacity="0.5">
<path d="M14 24.4821V25H26V23.0669C26 22.5565 25.7449 22.08 25.3203 21.7969C24.2835 21.1057 23.1143 20.6229 21.8924 20.3785C20.6479 20.1296 19.3521 20.1296 18.1076 20.3785C17.5957 20.4809 17.093 20.6251 16.6055 20.809C16.4583 21.0389 16.3108 21.2643 16.1641 21.4844C15.395 22.6381 14.6287 23.6721 14 24.4821Z" fill="#FF8800"/>
<path d="M18.0741 18.3003C18.5952 18.737 19.2669 19 20 19C21.6569 19 23 17.6569 23 16C23 14.3431 21.6569 13 20 13C19.9786 13 19.9573 13.0002 19.936 13.0007C19.7686 14.3516 19.2917 15.7178 18.729 16.9638C18.5265 17.4122 18.3063 17.8591 18.0741 18.3003Z" fill="#FF8800"/>
</g>
<path d="M11 15C12.6569 15 14 13.6569 14 12C14 10.3431 12.6569 9 11 9C9.34315 9 8 10.3431 8 12C8 13.6569 9.34315 15 11 15Z" fill="#FF8800"/>
<path fill-rule="evenodd" clip-rule="evenodd" d="M18 12C18 15.6311 14.3082 20.8445 12.2867 23.4269C11.5247 24.4004 11 25 11 25C11 25 10.4753 24.4004 9.7133 23.4269C7.69185 20.8445 4 15.6311 4 12C4 8 7.13401 5 11 5C14.866 5 18 8 18 12ZM16 12C16 12.8337 15.6937 13.9664 15.0835 15.3175C14.4881 16.6358 13.6763 18.0049 12.8359 19.2656C12.1945 20.2278 11.5507 21.1054 11 21.8224C10.4493 21.1054 9.80555 20.2278 9.1641 19.2656C8.32366 18.0049 7.51187 16.6358 6.91649 15.3175C6.30633 13.9664 6 12.8337 6 12C6 9.12959 8.21339 7 11 7C13.7866 7 16 9.12959 16 12Z" fill="#FF8800"/>
</svg>
