<svg width="30" height="30" viewBox="0 0 30 30" fill="none" xmlns="http://www.w3.org/2000/svg">
<path d="M11 10C12.1046 10 13 10.8954 13 12C13 13.1046 12.1046 14 11 14C9.89543 14 9 13.1046 9 12C9 10.8954 9.89543 10 11 10Z" fill="#FF8800"/>
<path fill-rule="evenodd" clip-rule="evenodd" d="M11 5C14.8611 5 18 8.11059 18 12C18 13.3631 17.5864 14.8202 17.085 16.124C16.1613 18.5255 14.8587 20.7858 13.4561 22.9365C13.2122 23.3104 13.0087 23.6127 12.8643 23.8232C12.7903 23.9311 12.7212 24.0678 12.6279 24.1611C12.2525 24.6867 11.6459 25 11 25C10.4348 25 9.89979 24.7614 9.52344 24.3496C9.16399 23.9044 8.85606 23.4151 8.54395 22.9365C7.14127 20.7858 5.83869 18.5255 4.91504 16.124C4.41358 14.8202 4 13.3631 4 12C4 8.10901 7.13918 5 11 5ZM11 7C8.23858 7 6 9.21875 6 12C6 16 11 23 11 23C11 23 16 16 16 12C16 9.22 13.7614 7 11 7Z" fill="#FF8800"/>
<path d="M19 19.4004C26.0002 19.4004 26 23.9502 26 23.9502C25.9999 24.5299 25.5299 25 24.9502 25H14.4814C15.6944 23.2678 16.8406 21.4074 17.8047 19.4482C18.1785 19.4169 18.5765 19.4004 19 19.4004Z" fill="#FF8800"/>
<path d="M19.957 11.1328C21.4248 11.5492 22.5 12.8989 22.5 14.5C22.5 16.433 20.933 18 19 18C18.8278 18 18.6587 17.9869 18.4932 17.9629C18.6532 17.5922 18.8063 17.2185 18.9512 16.8418C19.4854 15.4528 20 13.7261 20 12C20 11.7072 19.9841 11.4181 19.957 11.1328Z" fill="#FF8800"/>
</svg>
