<svg width="30" height="30" viewBox="0 0 30 30" fill="none" xmlns="http://www.w3.org/2000/svg">
<g opacity="0.5">
<path d="M23 14.3284L21.6793 15.6491C21.3751 15.0467 20.8736 14.561 20.2599 14.2766C20.2676 14.257 20.2751 14.2373 20.2824 14.2176L23 11.5V14.3284Z" fill="#FF8800"/>
<path d="M15.5 7H18.3284L15.6794 9.64903C15.371 9.03854 14.86 8.54779 14.2349 8.26508L15.5 7Z" fill="#FF8800"/>
</g>
<path d="M18.4142 13C18.4142 13.8284 17.7426 14.5 16.9142 14.5C16.0858 14.5 15.4142 13.8284 15.4142 13C15.4142 12.1715 16.0858 11.5 16.9142 11.5C17.7426 11.5 18.4142 12.1715 18.4142 13Z" fill="#FF8800"/>
<path d="M10.287 16.721L12.5202 14.86C12.1836 14.3657 12 13.7781 12 13.1716L12 11C12 10.4477 12.4477 10 13 10C13.5523 10 14 10.4477 14 11L14 13.1716C14 13.4368 14.1053 13.6912 14.2929 13.8787L16.1213 15.7071C16.3088 15.8947 16.5632 16 16.8284 16H19C19.5522 16 20 16.4477 20 17C20 17.5523 19.5522 18 19 18L16.8284 18C16.1244 18 15.4459 17.7526 14.9092 17.3058L12.6119 19.2203L8.66162 23.6643C8.2947 24.0771 7.66263 24.1143 7.24984 23.7474C6.83706 23.3805 6.79988 22.7484 7.1668 22.3356L9.05067 20.2163L7.02815 21.7893C6.5922 22.1284 5.96393 22.0499 5.62486 21.6139C5.28579 21.178 5.36432 20.5497 5.80027 20.2106L10.287 16.721Z" fill="#FF8800"/>
<path d="M25 22V8.70711C25 7.72392 24.6094 6.781 23.9142 6.08579C23.219 5.39057 22.2761 5 21.2929 5H8C6.34315 5 5 6.34315 5 8V8.5C5 9.44427 5.44458 10.3334 6.2 10.9L10.0369 13.7776C10.0124 13.5776 10 13.3752 10 13.1715L10 11.25L7.4 9.3C7.14819 9.11115 7 8.81476 7 8.5V8C7 7.44772 7.44772 7 8 7H21.2929C21.7456 7 22.1799 7.17986 22.5 7.5C22.8201 7.82014 23 8.25435 23 8.70711V22C23 22.5523 22.5523 23 22 23H21.5C21.1852 23 20.8889 22.8518 20.7 22.6L18.75 20L16.8284 20C16.6248 20 16.4224 19.9875 16.2223 19.9631L19.1 23.8C19.6666 24.5554 20.5557 25 21.5 25L22 25C23.6569 25 25 23.6568 25 22Z" fill="#FF8800"/>
</svg>
