<svg width="30" height="30" viewBox="0 0 30 30" fill="none" xmlns="http://www.w3.org/2000/svg">
<path fill-rule="evenodd" clip-rule="evenodd" d="M11.068 6C12.5446 6 13.9275 6.53418 15 7.44629C16.0725 6.53418 17.4554 6 18.932 6C22.2833 6 25 8.71672 25 12.068V13C25 15.9677 23.1355 18.4156 21.4634 20.0547C19.7293 21.7546 17.8055 22.9707 16.9473 23.4772C16.3256 23.8441 15.6479 24 15 24C14.3521 24 13.6744 23.8441 13.0527 23.4772C12.1945 22.9707 10.2707 21.7546 8.53656 20.0547C6.86453 18.4156 5 15.9677 5 13V12.068C5 8.71672 7.71672 6 11.068 6ZM14.9272 10.7816L15 11L15.0728 10.7816C15.6265 9.12044 17.181 8 18.932 8C21.1787 8 23 9.82129 23 12.068V13C23 17.2719 17.5254 20.8138 15.9308 21.7548C15.6481 21.9216 15.3283 22 15 22C14.6717 22 14.3519 21.9216 14.0692 21.7548C12.4746 20.8138 7 17.2719 7 13V12.068C7 9.82129 8.82129 8 11.068 8C12.819 8 14.3735 9.12044 14.9272 10.7816Z" fill="#FF8800"/>
<path opacity="0.2" d="M15 11L14.9272 10.7816C14.3735 9.12044 12.819 8 11.068 8C8.82129 8 7 9.82129 7 12.068V13C7 17.2719 12.4746 20.8138 14.0692 21.7548C14.3519 21.9216 14.6717 22 15 22C15.3283 22 15.6481 21.9216 15.9308 21.7548C17.5254 20.8138 23 17.2719 23 13V12.068C23 9.82129 21.1787 8 18.932 8C17.181 8 15.6265 9.12044 15.0728 10.7816L15 11Z" fill="#FF8800"/>
</svg>
