<svg width="20" height="20" viewBox="0 0 20 20" fill="none" xmlns="http://www.w3.org/2000/svg">
<path d="M11 2C10.4477 2 10 2.44772 10 3C10 3.55228 10.4477 4 11 4H17C17.5523 4 18 3.55228 18 3C18 2.44772 17.5523 2 17 2H11Z" fill="#FF8800"/>
<path d="M14.9999 14.3334C14.9999 14.8857 14.5522 15.3334 13.9999 15.3334C13.4476 15.3334 12.9999 14.8857 12.9999 14.3334V8.41421L11.7071 9.70703C11.3166 10.0975 10.6834 10.0975 10.2929 9.70703C9.90237 9.3165 9.90237 8.68334 10.2929 8.29281L13.2928 5.29289C13.6833 4.90237 14.3165 4.90237 14.707 5.29289L17.7069 8.29281C18.0975 8.68334 18.0975 9.3165 17.7069 9.70703C17.3164 10.0975 16.6833 10.0975 16.2927 9.70703L14.9999 8.41421V14.3334Z" fill="#FF8800"/>
<path d="M6.99992 6C6.99992 5.44772 6.5522 5 5.99992 5C5.44763 5 4.99992 5.44772 4.99992 6V11.5857L3.70712 10.2929C3.3166 9.90237 2.68343 9.90236 2.2929 10.2929C1.90237 10.6834 1.90236 11.3166 2.29288 11.7071L5.2928 14.7071C5.48034 14.8946 5.73469 15 5.99991 15C6.26512 15 6.51948 14.8947 6.70702 14.7071L9.7071 11.7071C10.0976 11.3166 10.0976 10.6834 9.70712 10.2929C9.3166 9.90237 8.68343 9.90236 8.2929 10.2929L6.99992 11.5858V6Z" fill="#FF8800"/>
<path d="M2 17C2 16.4477 2.44772 16 3 16H9C9.55228 16 10 16.4477 10 17C10 17.5523 9.55228 18 9 18H3C2.44772 18 2 17.5523 2 17Z" fill="#FF8800"/>
</svg>
