<svg width="30" height="30" viewBox="0 0 30 30" fill="none" xmlns="http://www.w3.org/2000/svg">
<path d="M23.0009 14.062C23.009 14.0037 23.0189 13.9456 23.0304 13.8878L23.9604 9.23807L23.3835 6.35336L20.3026 6.96953C19.9142 7.04721 19.5143 7.04721 19.1259 6.96953L14.4762 6.03958L9.82645 6.96953C9.43806 7.04721 9.03814 7.04721 8.64975 6.96953L6.54951 6.54948L6.96956 8.64972C7.04724 9.03811 7.04724 9.43803 6.96956 9.82642L6.03961 14.4762L6.96956 19.1259C7.04724 19.5143 7.04724 19.9142 6.96956 20.3026L6.3534 23.3834L9.2381 23.9604L13.8878 23.0304C13.9457 23.0189 14.0037 23.009 14.062 23.0009C14.1481 23.6906 14.322 24.3531 14.5722 24.9768C14.4748 24.9674 14.3764 24.9723 14.2801 24.9916L9.43421 25.9607C9.30475 25.9866 9.17144 25.9866 9.04198 25.9607L4.98058 25.1485C4.43902 25.0402 4.08781 24.5133 4.19612 23.9718L5.0084 19.9104C5.03429 19.7809 5.03429 19.6476 5.0084 19.5181L4.03923 14.6723C4.01333 14.5428 4.01333 14.4095 4.03923 14.28L5.0084 9.43418C5.03429 9.30472 5.03429 9.17141 5.0084 9.04195L4.29418 5.47084C4.15423 4.77112 4.77115 4.1542 5.47087 4.29415L9.04198 5.00837C9.17144 5.03426 9.30475 5.03426 9.43421 5.00837L14.2801 4.03919C14.4095 4.0133 14.5428 4.0133 14.6723 4.03919L19.5182 5.00837C19.6476 5.03426 19.7809 5.03426 19.9104 5.00837L23.9718 4.19609C24.5134 4.08778 25.0402 4.43899 25.1485 4.98055L25.9608 9.04195C25.9867 9.17141 25.9867 9.30472 25.9608 9.43418L24.9916 14.28C24.9723 14.3763 24.9674 14.4748 24.9768 14.5722C24.3531 14.322 23.6907 14.1481 23.0009 14.062Z" fill="#FF8800"/>
<path d="M22 14C22 10.6863 19.3137 8 16 8C12.6863 8 9.99999 10.6863 9.99999 14C9.99999 15.3782 10.4647 16.6479 11.2459 17.6609C11.2394 17.667 11.233 17.6733 11.2266 17.6797L8.36719 20.5391C7.99182 20.9145 7.99182 21.523 8.36719 21.8984C8.74255 22.2738 9.35114 22.2738 9.7265 21.8984L12.5859 19.039C12.6066 19.0183 12.6262 18.9969 12.6446 18.9748C13.1523 19.3179 13.7154 19.5853 14.3176 19.7609C14.509 19.1031 14.7826 18.4803 15.1265 17.9043C13.3374 17.5058 12 15.9091 12 14C12 11.7909 13.7909 10 16 10C18.2091 10 20 11.7909 20 14C20 14.0853 19.9973 14.1701 19.9921 14.2541C20.6337 14.0882 21.3065 14 22 14Z" fill="#FF8800"/>
<path fill-rule="evenodd" clip-rule="evenodd" d="M28 22C28 25.3137 25.3137 28 22 28C18.6863 28 16 25.3137 16 22C16 18.6863 18.6863 16 22 16C25.3137 16 28 18.6863 28 22ZM18.2929 21.2929L21.2929 18.2929C21.6834 17.9024 22.3166 17.9024 22.7071 18.2929L25.7071 21.2929C26.0976 21.6834 26.0976 22.3166 25.7071 22.7071C25.3166 23.0976 24.6834 23.0976 24.2929 22.7071L23 21.4142V25C23 25.5523 22.5523 26 22 26C21.4477 26 21 25.5523 21 25V21.4142L19.7071 22.7071C19.3166 23.0976 18.6834 23.0976 18.2929 22.7071C17.9024 22.3166 17.9024 21.6834 18.2929 21.2929Z" fill="#FF8800"/>
</svg>
