<svg width="30" height="30" viewBox="0 0 30 30" fill="none" xmlns="http://www.w3.org/2000/svg">
<path opacity="0.5" d="M10 11.5C10 12.3284 9.32843 13 8.5 13C7.67157 13 7 12.3284 7 11.5C7 10.6716 7.67157 10 8.5 10C9.32843 10 10 10.6716 10 11.5Z" fill="#FF8800"/>
<path fill-rule="evenodd" clip-rule="evenodd" d="M26.7071 4.70711C27.0976 4.31658 27.0976 3.68342 26.7071 3.29289C26.3166 2.90237 25.6834 2.90237 25.2929 3.29289L22.5858 6H6C4.34315 6 3 7.34315 3 9V21C3 22.2397 3.752 23.3038 4.82474 23.761L3.29289 25.2929C2.90237 25.6834 2.90237 26.3166 3.29289 26.7071C3.68342 27.0976 4.31658 27.0976 4.70711 26.7071L26.7071 4.70711ZM6.58579 22L9.00201 19.5838C9.00884 19.5179 9.03294 19.4547 9.07217 19.4008L12.8378 14.223C12.9397 14.0829 13.1025 14 13.2757 14C13.4193 14 13.557 14.057 13.6586 14.1586L14.0429 14.5429L20.5858 8H6C5.44772 8 5 8.44772 5 9V21C5 21.5523 5.44772 22 6 22H6.58579Z" fill="#FF8800"/>
<path d="M20.5105 14.3179L14.8284 20H22.5927C22.8177 20 23 19.8177 23 19.5927C23 19.5317 22.9863 19.4714 22.9598 19.4164L20.5105 14.3179Z" fill="#FF8800"/>
<path d="M24 22H12.8284L10.8284 24H24C25.6569 24 27 22.6569 27 21V9C27 8.64913 26.9398 8.31232 26.8291 7.99936L25 9.82843V21C25 21.5523 24.5523 22 24 22Z" fill="#FF8800"/>
</svg>
