<svg width="30" height="30" viewBox="0 0 30 30" fill="none" xmlns="http://www.w3.org/2000/svg">
<mask id="path-1-outside-1_1903_16648" maskUnits="userSpaceOnUse" x="5" y="5" width="10" height="10" fill="black">
<rect fill="white" x="5" y="5" width="10" height="10"/>
<path fill-rule="evenodd" clip-rule="evenodd" d="M13 8C13 7.44772 12.5523 7 12 7L8 7C7.44771 7 7 7.44771 7 8L7 10C7 10.5523 7.44771 11 8 11L9 11L8 13L12 13L11 11L12 11C12.5523 11 13 10.5523 13 10L13 8Z"/>
</mask>
<path fill-rule="evenodd" clip-rule="evenodd" d="M13 8C13 7.44772 12.5523 7 12 7L8 7C7.44771 7 7 7.44771 7 8L7 10C7 10.5523 7.44771 11 8 11L9 11L8 13L12 13L11 11L12 11C12.5523 11 13 10.5523 13 10L13 8Z" fill="#59361B"/>
<path d="M12 7L12 5L12 7ZM13 8L11 8L13 8ZM8 7L8 9L8 7ZM7 8L5 8L7 8ZM7 10L9 10L7 10ZM8 11L8 13L8 13L8 11ZM9 11L10.7889 11.8944C11.0988 11.2745 11.0657 10.5382 10.7013 9.94854C10.3369 9.3589 9.69315 9 9 9L9 11ZM8 13L6.21115 12.1056C5.90116 12.7255 5.93428 13.4618 6.2987 14.0515C6.66311 14.6411 7.30684 15 8 15L8 13ZM12 13L12 15C12.6932 15 13.3369 14.6411 13.7013 14.0515C14.0657 13.4618 14.0988 12.7255 13.7889 12.1056L12 13ZM11 11L11 9C10.3068 9 9.66311 9.3589 9.2987 9.94854C8.93429 10.5382 8.90116 11.2745 9.21115 11.8944L11 11ZM12 11L12 13L12 13L12 11ZM13 10L15 10L13 10ZM12 9C11.4477 9 11 8.55229 11 8L15 8C15 6.34314 13.6569 5 12 5L12 9ZM8 9L12 9L12 5L8 5L8 9ZM9 8C9 8.55229 8.55228 9 8 9L8 5C6.34315 5 5 6.34314 5 8L9 8ZM9 10L9 8L5 8L5 10L9 10ZM8 9C8.55228 9 9 9.44771 9 10L5 10C5 11.6569 6.34315 13 8 13L8 9ZM9 9L8 9L8 13L9 13L9 9ZM9.78885 13.8944L10.7889 11.8944L7.21115 10.1056L6.21115 12.1056L9.78885 13.8944ZM12 11L8 11L8 15L12 15L12 11ZM9.21115 11.8944L10.2111 13.8944L13.7889 12.1056L12.7889 10.1056L9.21115 11.8944ZM12 9L11 9L11 13L12 13L12 9ZM11 10C11 9.44771 11.4477 9 12 9L12 13C13.6569 13 15 11.6569 15 10L11 10ZM11 8L11 10L15 10L15 8L11 8Z" fill="#59361B" mask="url(#path-1-outside-1_1903_16648)"/>
<mask id="path-3-outside-2_1903_16648" maskUnits="userSpaceOnUse" x="5" y="5" width="10" height="8" fill="black">
<rect fill="white" x="5" y="5" width="10" height="8"/>
<path d="M12.5 7C12.7761 7 13 7.22386 13 7.5L13 10.5C13 10.7761 12.7761 11 12.5 11L7.5 11C7.22386 11 7 10.7761 7 10.5L7 7.5C7 7.22386 7.22386 7 7.5 7L12.5 7Z"/>
</mask>
<path d="M12.5 7C12.7761 7 13 7.22386 13 7.5L13 10.5C13 10.7761 12.7761 11 12.5 11L7.5 11C7.22386 11 7 10.7761 7 10.5L7 7.5C7 7.22386 7.22386 7 7.5 7L12.5 7Z" fill="#FFC107"/>
<path d="M11 7.5L11 10.5L15 10.5L15 7.5L11 7.5ZM12.5 9L7.5 9L7.5 13L12.5 13L12.5 9ZM9 10.5L9 7.5L5 7.5L5 10.5L9 10.5ZM7.5 9L12.5 9L12.5 5L7.5 5L7.5 9ZM9 7.5C9 8.32843 8.32843 9 7.5 9L7.5 5C6.11929 5 5 6.11929 5 7.5L9 7.5ZM7.5 9C8.32843 9 9 9.67157 9 10.5L5 10.5C5 11.8807 6.11929 13 7.5 13L7.5 9ZM11 10.5C11 9.67157 11.6716 9 12.5 9L12.5 13C13.8807 13 15 11.8807 15 10.5L11 10.5ZM15 7.5C15 6.11929 13.8807 5 12.5 5L12.5 9C11.6716 9 11 8.32843 11 7.5L15 7.5Z" fill="#59361B" mask="url(#path-3-outside-2_1903_16648)"/>
<path d="M11 11L12 13L8 13L9 11L11 11Z" fill="url(#paint0_linear_1903_16648)"/>
<path d="M21.9591 24H6.04095C6.44356 20.0677 9.76571 17 13.8043 17H14.1957C18.2343 17 21.5564 20.0677 21.9591 24Z" fill="#FFC107" stroke="#59361B" stroke-width="2"/>
<path fill-rule="evenodd" clip-rule="evenodd" d="M10 25V23H11.2C11.6418 23 12 22.6418 12 22.2V21H13.4H13.6C14.3732 21 15 20.3732 15 19.6V17.5H12L8.6 18.8L6 22.8L8.20001 25H10Z" fill="#59361B"/>
<mask id="path-8-outside-3_1903_16648" maskUnits="userSpaceOnUse" x="15" y="5" width="10" height="20" fill="black">
<rect fill="white" x="15" y="5" width="10" height="20"/>
<path fill-rule="evenodd" clip-rule="evenodd" d="M21 11H23L20 7L17 11H19V19H17L20 23L23 19H21V11Z"/>
</mask>
<path fill-rule="evenodd" clip-rule="evenodd" d="M21 11H23L20 7L17 11H19V19H17L20 23L23 19H21V11Z" fill="#FFC107"/>
<path d="M23 11V13C23.7575 13 24.4501 12.572 24.7889 11.8944C25.1276 11.2169 25.0545 10.406 24.6 9.8L23 11ZM21 11V9C19.8954 9 19 9.89543 19 11H21ZM20 7L21.6 5.8C21.2223 5.29639 20.6295 5 20 5C19.3705 5 18.7777 5.29639 18.4 5.8L20 7ZM17 11L15.4 9.8C14.9455 10.406 14.8724 11.2169 15.2111 11.8944C15.5499 12.572 16.2425 13 17 13V11ZM19 11H21C21 9.89543 20.1046 9 19 9V11ZM19 19V21C20.1046 21 21 20.1046 21 19H19ZM17 19V17C16.2425 17 15.5499 17.428 15.2111 18.1056C14.8724 18.7831 14.9455 19.594 15.4 20.2L17 19ZM20 23L18.4 24.2C18.7777 24.7036 19.3705 25 20 25C20.6295 25 21.2223 24.7036 21.6 24.2L20 23ZM23 19L24.6 20.2C25.0545 19.594 25.1276 18.7831 24.7889 18.1056C24.4501 17.428 23.7575 17 23 17V19ZM21 19H19C19 20.1046 19.8954 21 21 21V19ZM23 9H21V13H23V9ZM18.4 8.2L21.4 12.2L24.6 9.8L21.6 5.8L18.4 8.2ZM18.6 12.2L21.6 8.2L18.4 5.8L15.4 9.8L18.6 12.2ZM19 9H17V13H19V9ZM21 19V11H17V19H21ZM19 17H17V21H19V17ZM15.4 20.2L18.4 24.2L21.6 21.8L18.6 17.8L15.4 20.2ZM21.6 24.2L24.6 20.2L21.4 17.8L18.4 21.8L21.6 24.2ZM23 17H21V21H23V17ZM19 11V19H23V11H19Z" fill="#59361B" mask="url(#path-8-outside-3_1903_16648)"/>
<path d="M13.9463 13.5394C14.584 13.0864 15 12.3418 15 11.5V8.5C15 7.11929 13.8807 6 12.5 6H7.5C6.11929 6 5 7.11929 5 8.5V11.5C5 12.3418 5.41604 13.0864 6.05371 13.5394C5.93291 14.05 6.01641 14.5947 6.2987 15.0515C6.66311 15.6411 7.30684 16 8 16H12C12.6932 16 13.3369 15.6411 13.7013 15.0515C13.9836 14.5947 14.0671 14.05 13.9463 13.5394Z" fill="white" fill-opacity="0.3"/>
<path fill-rule="evenodd" clip-rule="evenodd" d="M24.7889 12.8944C24.4501 13.572 23.7576 14 23 14V18C23.7576 18 24.4501 18.428 24.7889 19.1056C25.1277 19.7831 25.0545 20.594 24.6 21.2L22.7415 23.678C22.9104 24.3589 23 25.0712 23 25.8043C23 25.9124 22.9124 26 22.8043 26H5.19565C5.0876 26 5 25.9124 5 25.8043C5 20.9418 8.94184 17 13.8043 17H14.1957C15.1761 17 16.1192 17.1603 17 17.456V14C16.2425 14 15.5499 13.572 15.2112 12.8944C14.8724 12.2169 14.9455 11.406 15.4 10.8L18.4 6.8C18.7777 6.29639 19.3705 6 20 6C20.6295 6 21.2223 6.29639 21.6 6.8L24.6 10.8C25.0545 11.406 25.1277 12.2169 24.7889 12.8944Z" fill="white" fill-opacity="0.3"/>
<path d="M13.9463 12.5394C14.584 12.0864 15 11.3418 15 10.5V7.5C15 6.11929 13.8807 5 12.5 5H7.5C6.11929 5 5 6.11929 5 7.5V10.5C5 11.3418 5.41604 12.0864 6.05371 12.5394C5.93291 13.05 6.01641 13.5947 6.2987 14.0515C6.66311 14.6411 7.30684 15 8 15H12C12.6932 15 13.3369 14.6411 13.7013 14.0515C13.9836 13.5947 14.0671 13.05 13.9463 12.5394Z" fill="#59361B"/>
<path fill-rule="evenodd" clip-rule="evenodd" d="M24.7889 11.8944C24.4501 12.572 23.7576 13 23 13V17C23.7576 17 24.4501 17.428 24.7889 18.1056C25.1277 18.7831 25.0545 19.594 24.6 20.2L22.7415 22.678C22.9104 23.3589 23 24.0712 23 24.8043C23 24.9124 22.9124 25 22.8043 25H5.19565C5.0876 25 5 24.9124 5 24.8043C5 19.9418 8.94184 16 13.8043 16H14.1957C15.1761 16 16.1192 16.1603 17 16.456V13C16.2425 13 15.5499 12.572 15.2112 11.8944C14.8724 11.2169 14.9455 10.406 15.4 9.8L18.4 5.8C18.7777 5.29639 19.3705 5 20 5C20.6295 5 21.2223 5.29639 21.6 5.8L24.6 9.8C25.0545 10.406 25.1277 11.2169 24.7889 11.8944Z" fill="#59361B"/>
<path d="M12.5 7C12.7761 7 13 7.22386 13 7.5V10.5C13 10.7761 12.7761 11 12.5 11L11 11L12 13H8L9 11L7.5 11C7.22386 11 7 10.7761 7 10.5V7.5C7 7.22386 7.22386 7 7.5 7H12.5Z" fill="#FFC107"/>
<path d="M21 11H23L20 7L17 11H19V19H17L20 23L23 19H21V11Z" fill="#FFC107"/>
<path d="M15.2255 18.0774C14.8897 18.0264 14.5457 18 14.1957 18H13.8044C10.6711 18 8.03248 20.1178 7.24182 23H17.5L15.4 20.2C14.9455 19.594 14.8724 18.7831 15.2112 18.1056L15.2255 18.0774Z" fill="#FFC107"/>
<path d="M10 25V23H11.2C11.6418 23 12 22.6418 12 22.2V21H13.6C14.3732 21 15 20.3732 15 19.6V17.5H12L8.6 18.8L6 22.8L8.20001 25H10Z" fill="#59361B"/>
<defs>
<linearGradient id="paint0_linear_1903_16648" x1="10" y1="13" x2="10" y2="11" gradientUnits="userSpaceOnUse">
<stop stop-color="#FFC107"/>
<stop offset="1" stop-color="#FFC107" stop-opacity="0.8"/>
</linearGradient>
</defs>
</svg>
