<svg width="30" height="30" viewBox="0 0 30 30" fill="none" xmlns="http://www.w3.org/2000/svg">
<path d="M6.5 22C7.32843 22 8 22.6716 8 23.5C8 24.3284 7.32843 25 6.5 25C5.67157 25 5 24.3284 5 23.5C5 22.6716 5.67157 22 6.5 22Z" fill="#FF8800"/>
<path d="M16 19C17.6569 19 19 20.3431 19 22C19 23.6569 17.6569 25 16 25C14.3431 25 13 23.6569 13 22C13 20.3431 14.3431 19 16 19Z" fill="#FF8800"/>
<path d="M24.5527 16C25.9334 16.0001 27.0527 17.1193 27.0527 18.5C27.0527 19.8807 25.9334 20.9999 24.5527 21C23.172 21 22.0527 19.8807 22.0527 18.5C22.0527 17.1193 23.172 16 24.5527 16Z" fill="#FF8800"/>
<path d="M9.5 15C10.8807 15 12 16.1193 12 17.5C12 18.8807 10.8807 20 9.5 20C8.11929 20 7 18.8807 7 17.5C7 16.1193 8.11929 15 9.5 15Z" fill="#FF8800"/>
<path d="M17.9473 9C20.1563 9.00007 21.9473 10.7909 21.9473 13C21.9473 15.2091 20.1563 16.9999 17.9473 17C15.7381 17 13.9473 15.2091 13.9473 13C13.9473 10.7909 15.7381 9 17.9473 9Z" fill="#FF8800"/>
<path d="M6 9C7.10457 9 8 9.89543 8 11C8 12.1046 7.10457 13 6 13C4.89543 13 4 12.1046 4 11C4 9.89543 4.89543 9 6 9Z" fill="#FF8800"/>
<path d="M11.5 4C12.8807 4 14 5.11929 14 6.5C14 7.88071 12.8807 9 11.5 9C10.1193 9 9 7.88071 9 6.5C9 5.11929 10.1193 4 11.5 4Z" fill="#FF8800"/>
<path d="M22.5 3C23.8807 3 25 4.11929 25 5.5C25 6.88071 23.8807 8 22.5 8C21.1193 8 20 6.88071 20 5.5C20 4.11929 21.1193 3 22.5 3Z" fill="#FF8800"/>
</svg>
