<svg width="30" height="30" viewBox="0 0 30 30" fill="none" xmlns="http://www.w3.org/2000/svg">
<path d="M12 19C12.5523 19 13 19.4477 13 20C13 20.5523 12.5523 21 12 21C11.4477 21 11 20.5523 11 20C11 19.4477 11.4477 19 12 19Z" fill="#FF8800"/>
<path d="M16 19C16.5523 19 17 19.4477 17 20C17 20.5523 16.5523 21 16 21C15.4477 21 15 20.5523 15 20C15 19.4477 15.4477 19 16 19Z" fill="#FF8800"/>
<path d="M20 19C20.5523 19 21 19.4477 21 20C21 20.5523 20.5523 21 20 21C19.4477 21 19 20.5523 19 20C19 19.4477 19.4477 19 20 19Z" fill="#FF8800"/>
<path d="M10 15C10.5523 15 11 15.4477 11 16C11 16.5523 10.5523 17 10 17C9.44772 17 9 16.5523 9 16C9 15.4477 9.44772 15 10 15Z" fill="#FF8800"/>
<path d="M14 15C14.5523 15 15 15.4477 15 16C15 16.5523 14.5523 17 14 17C13.4477 17 13 16.5523 13 16C13 15.4477 13.4477 15 14 15Z" fill="#FF8800"/>
<path d="M18 15C18.5523 15 19 15.4477 19 16C19 16.5523 18.5523 17 18 17C17.4477 17 17 16.5523 17 16C17 15.4477 17.4477 15 18 15Z" fill="#FF8800"/>
<path fill-rule="evenodd" clip-rule="evenodd" d="M21 4C21.5523 4 22 4.44772 22 5V6C23.6569 6 25 7.34315 25 9V22C25 23.6569 23.6569 25 22 25H8C6.34315 25 5 23.6569 5 22V9C5 7.34315 6.34315 6 8 6V5C8 4.44772 8.44772 4 9 4C9.55228 4 10 4.44772 10 5V6H20V5C20 4.44772 20.4477 4 21 4ZM7 22C7 22.5523 7.44772 23 8 23H22C22.5523 23 23 22.5523 23 22V13H7V22Z" fill="#FF8800"/>
</svg>
