<svg width="30" height="30" viewBox="0 0 30 30" fill="none" xmlns="http://www.w3.org/2000/svg">
<path d="M6.80389 10.02C7.06395 9.96799 7.33402 10.0214 7.55469 10.1685C7.77535 10.3156 7.92854 10.5444 7.98055 10.8044C8.03256 11.0645 7.97914 11.3346 7.83203 11.5552C7.83203 11.5552 7 12.7672 7 15.0006C7 17.2339 7.83203 18.4459 7.83203 18.4459C7.97914 18.6665 8.03256 18.9366 7.98055 19.1967C7.92854 19.4567 7.77535 19.6855 7.55469 19.8326C7.33402 19.9797 7.06395 20.0331 6.80389 19.9811C6.54383 19.9291 6.31509 19.7759 6.16797 19.5552C6.16797 19.5552 5 17.7672 5 15.0006C5 12.2339 6.16797 10.4459 6.16797 10.4459C6.31509 10.2252 6.54383 10.072 6.80389 10.02Z" fill="#FF8800"/>
<path d="M23.1961 19.9812C22.936 20.0332 22.666 19.9797 22.4453 19.8326C22.2246 19.6855 22.0714 19.4568 22.0194 19.1967C21.9674 18.9367 22.0208 18.6666 22.1679 18.4459C22.1679 18.4459 23 17.2339 23 15.0006C23 12.7673 22.1679 11.5553 22.1679 11.5553C22.0208 11.3346 21.9674 11.0646 22.0194 10.8045C22.0714 10.5444 22.2246 10.3157 22.4453 10.1686C22.666 10.0215 22.936 9.96805 23.1961 10.0201C23.4561 10.0721 23.6849 10.2253 23.832 10.4459C23.832 10.4459 25 12.2339 25 15.0006C25 17.7673 23.832 19.5553 23.832 19.5553C23.6849 19.776 23.4561 19.9291 23.1961 19.9812Z" fill="#FF8800"/>
<g opacity="0.8">
<path d="M26.7812 21.6257C26.6157 21.8326 26.3747 21.9654 26.1113 21.9948C25.9806 22.0095 25.8483 21.9983 25.7219 21.9617C25.5956 21.9252 25.4777 21.8641 25.375 21.7819C25.2723 21.6999 25.1868 21.5984 25.1234 21.4833C25.06 21.3683 25.0199 21.2418 25.0054 21.1112C24.9909 20.9806 25.0023 20.8484 25.0389 20.7222C25.0755 20.596 25.1366 20.4783 25.2187 20.3757C25.2187 20.3757 27 18.1197 27 15.0007C27 11.8816 25.2187 9.62569 25.2187 9.62569C25.1366 9.52312 25.0755 9.40536 25.0389 9.27916C25.0023 9.15296 24.9909 9.02078 25.0054 8.89018C25.0199 8.75958 25.06 8.63312 25.1234 8.51803C25.1868 8.40294 25.2723 8.30147 25.375 8.21944C25.4775 8.1373 25.5953 8.07618 25.7215 8.03958C25.8477 8.00298 25.9799 7.99161 26.1105 8.00612C26.2411 8.02063 26.3675 8.06074 26.4826 8.12415C26.5977 8.18756 26.6992 8.27304 26.7812 8.37569C26.7812 8.37569 29 11.1197 29 15.0007C29 18.8816 26.7812 21.6257 26.7812 21.6257Z" fill="#FF8800"/>
<path d="M3.21875 8.37559C3.38432 8.16863 3.62527 8.03586 3.88867 8.00645C4.01938 7.99177 4.15169 8.00301 4.27804 8.03955C4.40439 8.07608 4.5223 8.13717 4.625 8.21934C4.72765 8.30138 4.81312 8.40284 4.87654 8.51793C4.93995 8.63302 4.98006 8.75948 4.99457 8.89008C5.00908 9.02068 4.99771 9.15286 4.96111 9.27906C4.9245 9.40527 4.86339 9.52302 4.78125 9.62559C4.78125 9.62559 3 11.8815 3 15.0006C3 18.1196 4.78125 20.3756 4.78125 20.3756C4.86339 20.4782 4.9245 20.5959 4.96111 20.7221C4.99771 20.8483 5.00908 20.9805 4.99457 21.1111C4.98006 21.2417 4.93995 21.3682 4.87654 21.4832C4.81312 21.5983 4.72765 21.6998 4.625 21.7818C4.52243 21.864 4.40468 21.9251 4.27848 21.9617C4.15227 21.9983 4.02009 22.0097 3.88949 21.9952C3.75889 21.9806 3.63243 21.9405 3.51734 21.8771C3.40225 21.8137 3.30079 21.7282 3.21875 21.6256C3.21875 21.6256 1 18.8815 1 15.0006C1 11.1196 3.21875 8.37559 3.21875 8.37559Z" fill="#FF8800"/>
</g>
<path fill-rule="evenodd" clip-rule="evenodd" d="M10 10C10 8.89543 10.8954 8 12 8H18C19.1046 8 20 8.89543 20 10V17C20 19.7614 17.7614 22 15 22C12.2386 22 10 19.7614 10 17V10ZM18 11C18 11.5523 17.5523 12 17 12C16.4477 12 16 11.5523 16 11C16 10.4477 16.4477 10 17 10C17.5523 10 18 10.4477 18 11ZM17 14C16.4477 14 16 14.4477 16 15V18.3333C16 18.7015 16.2985 19 16.6667 19C17.403 19 18 18.403 18 17.6667V15C18 14.4477 17.5523 14 17 14Z" fill="#FF8800"/>
<path opacity="0.5" d="M16 15C16 14.4477 16.4477 14 17 14C17.5523 14 18 14.4477 18 15V17.6667C18 18.403 17.403 19 16.6667 19C16.2985 19 16 18.7015 16 18.3333V15Z" fill="#FF8800"/>
</svg>
