<svg width="30" height="30" viewBox="0 0 30 30" fill="none" xmlns="http://www.w3.org/2000/svg">
<path d="M26.3036 17.2256C27.2319 17.8482 27.2319 19.1518 26.3036 19.7744L15.954 26.7129C15.3825 27.096 14.6174 27.096 14.0458 26.7129L3.69621 19.7744C2.76793 19.1518 2.76793 17.8482 3.69621 17.2256L7.01554 15L14.0458 19.7129C14.6174 20.096 15.3825 20.096 15.954 19.7129L22.9833 15L26.3036 17.2256Z" fill="#FF8800"/>
<path opacity="0.5" d="M15.9541 3.2874C15.3825 2.9042 14.6175 2.9042 14.0459 3.2874L3.69654 10.2252C2.76782 10.8478 2.76782 12.1522 3.69654 12.7748L14.0459 19.7126C14.6175 20.0958 15.3825 20.0958 15.9541 19.7126L26.3035 12.7748C27.2322 12.1522 27.2322 10.8478 26.3035 10.2252L15.9541 3.2874Z" fill="#FF8800"/>
</svg>
