<svg width="30" height="30" viewBox="0 0 30 30" fill="none" xmlns="http://www.w3.org/2000/svg">
<path d="M19.0878 25.0652C17.6721 25.6662 16.1058 26 14.4583 26C8.13007 26 3 21.0751 3 15C3 8.92487 8.13007 4 14.4583 4C19.7116 4 24.1391 7.39374 25.4918 12.022C26.4302 13.0808 27 14.4739 27 16C27 18.1044 26.0195 20.2444 25.1462 21.7787C24.2349 23.3797 23.2429 24.6552 22.8815 25.1034C22.3999 25.7007 21.6953 26 21 26C20.3047 26 19.6001 25.7007 19.1185 25.1034C19.1088 25.0913 19.0985 25.0786 19.0878 25.0652Z" fill="#2D3C53"/>
<path d="M24 15C24 19.9706 19.7467 24 14.5 24C9.25329 24 5 19.9706 5 15C5 10.0294 9.25329 6 14.5 6C19.7467 6 24 10.0294 24 15Z" fill="url(#paint0_linear_1903_10961)"/>
<path fill-rule="evenodd" clip-rule="evenodd" d="M14.4583 24C19.636 24 23.8333 19.9705 23.8333 15C23.8333 10.0294 19.636 5.99997 14.4583 5.99997C9.28066 5.99997 5.08333 10.0294 5.08333 15C5.08333 19.9705 9.28066 24 14.4583 24ZM16.9136 21.5932C18.3531 21.0991 19.5835 20.1829 20.4431 18.9999H18.0869C17.7742 20.0546 17.3555 20.9091 16.9136 21.5932ZM12.0521 21.6099C11.6063 20.923 11.1832 20.0632 10.868 18.9999H8.47361C9.3429 20.1963 10.5915 21.1199 12.0521 21.6099ZM13.0864 18.9999C13.4695 20.0834 13.9727 20.9908 14.4775 21.7221C14.9822 20.9908 15.4854 20.0834 15.8686 18.9999H13.0864ZM16.381 16.9999H12.574C12.4715 16.3751 12.4134 15.7085 12.4134 15C12.4134 14.2915 12.4715 13.6248 12.574 12.9999H16.381C16.4834 13.6248 16.5415 14.2914 16.5415 14.9999C16.5415 15.7084 16.4834 16.3751 16.381 16.9999ZM18.5023 16.9999H21.4481C21.6445 16.3662 21.75 15.6949 21.75 15C21.75 14.305 21.6445 13.6337 21.448 12.9999H18.5023C18.581 13.6161 18.6249 14.2817 18.6249 14.9999C18.6249 15.7182 18.581 16.3837 18.5023 16.9999ZM18.0869 10.9999H20.443C19.5835 9.81699 18.3531 8.90082 16.9137 8.40674C17.3555 9.09085 17.7743 9.94528 18.0869 10.9999ZM15.8686 10.9999C15.4854 9.91649 14.9822 9.00911 14.4775 8.27782C13.9728 9.00911 13.4696 9.91648 13.0864 10.9999H15.8686ZM10.8681 10.9999C11.1833 9.93669 11.6063 9.07694 12.0521 8.39007C10.5916 8.88003 9.34295 9.80355 8.47366 10.9999H10.8681ZM10.4527 12.9999C10.374 13.6161 10.3301 14.2818 10.3301 15C10.3301 15.7182 10.374 16.3838 10.4527 16.9999H7.46861C7.27216 16.3662 7.16667 15.6949 7.16667 15C7.16667 14.305 7.27217 13.6337 7.46863 12.9999H10.4527Z" fill="#FFC107"/>
<path fill-rule="evenodd" clip-rule="evenodd" d="M16.8538 21.7787C15.9805 20.2444 15 18.1044 15 16C15 12.6863 17.6863 10 21 10C24.3137 10 27 12.6863 27 16C27 18.1044 26.0195 20.2444 25.1462 21.7787C24.2349 23.3797 23.2429 24.6552 22.8815 25.1034C22.3999 25.7007 21.6953 26 21 26C20.3047 26 19.6001 25.7007 19.1185 25.1034C18.7571 24.6552 17.7651 23.3797 16.8538 21.7787Z" fill="url(#paint1_linear_1903_10961)"/>
<path d="M25 16C25 19.1202 21.9799 23.0352 21.3245 23.8481C21.2449 23.9468 21.1268 24 21 24C20.8732 24 20.7551 23.9468 20.6755 23.8481C20.0201 23.0352 17 19.1202 17 16C17 13.7909 18.7909 12 21 12C23.2091 12 25 13.7909 25 16Z" fill="#E6E8E6"/>
<circle cx="21" cy="16" r="2" fill="#2D3C53"/>
<defs>
<linearGradient id="paint0_linear_1903_10961" x1="14.5" y1="6" x2="14.5" y2="24" gradientUnits="userSpaceOnUse">
<stop stop-color="#0446AF"/>
<stop offset="1" stop-color="#1D73FA"/>
</linearGradient>
<linearGradient id="paint1_linear_1903_10961" x1="15" y1="10" x2="27" y2="27" gradientUnits="userSpaceOnUse">
<stop stop-color="#2D3B53"/>
<stop offset="1" stop-color="#2D3B53" stop-opacity="0.6"/>
</linearGradient>
</defs>
</svg>
