<svg width="30" height="30" viewBox="0 0 30 30" fill="none" xmlns="http://www.w3.org/2000/svg">
<path d="M6.48488 14.5787C5.92193 14.7468 5.84034 15.4058 6.28645 15.6594C12.1948 19.0186 18.1771 22.2513 24.1214 25.5466C24.65 25.8455 25.2093 25.2673 24.9217 24.7268C21.7489 18.6197 18.465 12.5565 15.4097 6.3901C15.1499 5.86581 14.5125 5.8678 14.3365 6.40937L12.4544 12.1987C12.3834 12.4171 12.2184 12.5881 12.0071 12.6625C10.835 13.075 6.96183 14.4363 6.48488 14.5787Z" fill="white" fill-opacity="0.3"/>
<path d="M6.48488 13.5787C5.92193 13.7468 5.84034 14.4058 6.28645 14.6594C6.44586 14.7501 13.0274 18.4071 13.2957 18.5555C13.564 18.7038 13.8834 18.6201 14.0461 18.3688C14.1399 18.2238 14.3986 17.7771 14.6006 17.4252C14.7487 17.1672 14.6081 16.803 14.3551 16.6768C14.1021 16.5507 11.6503 15.1713 11.5366 15.1143C10.992 14.8416 11.1881 14.1938 11.5914 14.0538L13.6341 13.3443C13.8394 13.273 14.0152 13.0895 14.0845 12.8762L14.7632 10.7886C14.9697 10.1534 15.584 10.3043 15.7879 10.6973C16.1959 11.4835 17.1964 13.3354 17.3263 13.6224C17.6354 14.3056 18.4995 13.5602 18.8979 13.3C19.1744 13.1194 19.2531 12.8063 19.131 12.5235C19.0471 12.329 17.3605 9.11304 16.2864 7.06501C15.7995 6.13659 15.4385 5.44819 15.4097 5.3901C15.1499 4.86581 14.5125 4.8678 14.3365 5.40937L12.4544 11.1987C12.3834 11.4171 12.2184 11.5881 12.0071 11.6625C10.835 12.075 6.96183 13.4363 6.48488 13.5787Z" fill="#59361B"/>
<path d="M24.1214 24.5466C23.8569 24.3971 15.4768 19.7478 15.1312 19.5627C14.7856 19.3776 14.7014 19.0596 14.8863 18.7148C14.9804 18.5395 15.1843 18.1898 15.3504 17.9079C15.5789 17.5204 15.9119 17.5192 16.0999 17.6341C16.2879 17.7491 18.9483 19.2162 19.1204 19.3155C19.5266 19.5501 20.1257 19.013 19.857 18.5424C19.7286 18.3177 18.6075 16.1732 18.2512 15.4664C18.0892 15.1448 18.1335 14.8556 18.4948 14.6631C18.6736 14.5678 18.9934 14.369 19.2709 14.1924C19.5542 14.0122 19.9313 14.1477 20.0846 14.4163C20.2379 14.6849 24.7768 23.4545 24.9217 23.7268C25.2093 24.2673 24.65 24.8455 24.1214 24.5466Z" fill="#59361B"/>
<path d="M20 18.5C18.4826 15.9845 17.1158 12.9058 15.7065 10.3347C15.4946 9.94806 14.8561 9.79967 14.6415 10.4246L13.9362 12.4786C13.8641 12.6884 13.6815 12.869 13.4681 12.9392L11.3451 13.6372C10.9259 13.775 10.7792 14.7316 11.3451 15C12.3575 15.6414 13.2308 16.0667 13.9362 16.5C14.6415 16.9333 17.2206 18.5025 18.7099 19.3166C19.6163 19.7601 20.2793 18.963 20 18.5Z" fill="#FFC107"/>
</svg>
