<svg width="30" height="30" viewBox="0 0 30 30" fill="none" xmlns="http://www.w3.org/2000/svg">
<g clip-path="url(#clip0_1903_9255)">
<path d="M7 5H23V19H7V5Z" fill="#3E3E42"/>
<path d="M7 5H9V25H7V5Z" fill="#4D65F8"/>
<path fill-rule="evenodd" clip-rule="evenodd" d="M9 17H21V7H9V17Z" fill="white"/>
<path d="M11 7H13V9H11V7Z" fill="#3E3E42"/>
<path d="M11 11V9H9V11H11Z" fill="#3E3E42"/>
<path fill-rule="evenodd" clip-rule="evenodd" d="M13 11H11V13H9V15H11V17H13V15H15V17H17V15H19V17H21V15H19V13H21V11H19V9H21V7H19V9H17V7H15V9H13V11ZM15 11V9H17V11H15ZM15 13V11H13V13H11V15H13V13H15ZM17 13V15H15V13H17ZM17 13V11H19V13H17Z" fill="#3E3E42"/>
<path d="M13 19C13 22.866 16.134 26 20 26C23.866 26 27 22.866 27 19C27 18.6629 26.9762 18.3314 26.9301 18.007L17 19H13Z" fill="black" fill-opacity="0.3"/>
<path opacity="0.4" d="M23 9.51212V19H11.0549C11.0186 18.6717 11 18.338 11 18C11 13.0294 15.0294 9 20 9C21.0519 9 22.0617 9.18046 23 9.51212Z" fill="black"/>
<path d="M25 18C25 20.7614 22.7614 23 20 23C17.2386 23 15 20.7614 15 18C15 15.2386 17.2386 13 20 13C22.7614 13 25 15.2386 25 18Z" fill="#59361B"/>
<path fill-rule="evenodd" clip-rule="evenodd" d="M20 23C22.7614 23 25 20.7614 25 18C25 15.2386 22.7614 13 20 13C17.2386 13 15 15.2386 15 18C15 20.7614 17.2386 23 20 23ZM20 25C23.866 25 27 21.866 27 18C27 14.134 23.866 11 20 11C16.134 11 13 14.134 13 18C13 21.866 16.134 25 20 25Z" fill="#FFC107"/>
<path fill-rule="evenodd" clip-rule="evenodd" d="M20 15C20.5523 15 21 15.4477 21 16V17.382L22.4472 18.1056C22.9412 18.3526 23.1414 18.9532 22.8944 19.4472C22.6474 19.9412 22.0468 20.1414 21.5528 19.8944L19.5528 18.8944C19.214 18.725 19 18.3788 19 18V16C19 15.4477 19.4477 15 20 15Z" fill="#FFC107"/>
</g>
<defs>
<clipPath id="clip0_1903_9255">
<rect width="24" height="24" fill="white" transform="translate(3 3)"/>
</clipPath>
</defs>
</svg>
