<svg width="30" height="30" viewBox="0 0 30 30" fill="none" xmlns="http://www.w3.org/2000/svg">
<path d="M17.8025 5.39893C17.6604 5.35749 17.5173 5.31916 17.3735 5.284L17.3095 5.14801C16.9795 4.44724 16.2746 4 15.5 4H14.5C13.7254 4 13.0205 4.44724 12.6905 5.14801L12.6265 5.28398C12.4827 5.31915 12.3396 5.3575 12.1975 5.39895L12.074 5.3132C11.4379 4.8713 10.6038 4.83644 9.93297 5.22372L9.06695 5.72372C8.39616 6.111 8.0093 6.85078 8.07392 7.62264L8.08646 7.7724C7.9795 7.87476 7.87474 7.97953 7.77236 8.0865L7.62257 8.07396C6.8507 8.00933 6.11092 8.39619 5.72364 9.06699L5.22364 9.93301C4.83636 10.6038 4.87121 11.4379 5.31311 12.074L5.3989 12.1975C5.35743 12.3397 5.31909 12.4828 5.28392 12.6266L5.14801 12.6905C4.44724 13.0205 4 13.7254 4 14.5V15.5C4 15.5844 4.00531 15.6679 4.01567 15.7502C3.98512 15.9928 3.99894 16.2419 4.05973 16.4851L6.05973 24.4851C6.28232 25.3754 7.08228 26 8.00002 26C13.3333 26 18.6666 26 23.9999 25.9999C25.6568 25.9999 26.9999 24.6568 26.9999 22.9999C26.9999 20.8333 27 18.6666 27 16.5C27 14.8152 26.0741 13.3466 24.7034 12.5754C24.6717 12.4488 24.6376 12.3227 24.601 12.1975L24.6868 12.074C25.1287 11.4379 25.1635 10.6038 24.7762 9.93301L24.2762 9.06699C23.889 8.3962 23.1492 8.00933 22.3773 8.07396L22.2275 8.08651C22.1251 7.97953 22.0204 7.87477 21.9134 7.7724L21.926 7.62265C21.9906 6.85079 21.6037 6.111 20.9329 5.72372L20.0669 5.22372C19.3961 4.83644 18.562 4.8713 17.9259 5.3132L17.8025 5.39893Z" fill="#404040"/>
<path fill-rule="evenodd" clip-rule="evenodd" d="M8 16H6L8 24H10L11 20L12 24H14L16 16H14L13 20L12 16H10L9 20L8 16Z" fill="#FFC107"/>
<path d="M18.0001 16.5L17.9521 16.4359C17.9484 16.4523 17.9446 16.4687 17.9405 16.4851L17.0151 20.1866L18.0001 21.5V16.5Z" fill="url(#paint0_linear_1988_16820)"/>
<path d="M14.1001 13.8C14.7294 13.328 15.6089 13.4253 16.1216 14.0037C16.0813 14.0012 16.0408 14 16.0002 14H14.0002C13.9593 14 13.9187 14.0012 13.8784 14.0037C13.9441 13.9299 14.0181 13.8616 14.1001 13.8Z" fill="url(#paint1_linear_1988_16820)"/>
<path d="M18.0275 22H17C16.4477 22 16 22.4477 16 23C16 23.5523 16.4477 24 17 24H18.7578C18.3847 23.4426 18.1328 22.7972 18.0399 22.1015C18.0354 22.0678 18.0312 22.034 18.0275 22Z" fill="#DEDEDE"/>
<path fill-rule="evenodd" clip-rule="evenodd" d="M18.104 7.62455L19.0668 6.95577L19.9328 7.45577L19.835 8.62392C20.4117 9.06083 20.9386 9.58774 21.3758 10.1648L22.5441 10.067L23.0441 10.933L22.3753 11.8957C22.39 11.9306 22.4044 11.9656 22.4186 12.0007C20.8517 12.0285 19.4801 12.8571 18.6959 14.0947L17.7998 12.8999C16.64 11.3535 14.4462 11.0401 12.8998 12.1999C12.2754 12.6683 11.852 13.3052 11.6455 14H7.06045C7.15047 13.2828 7.34317 12.5633 7.62441 11.8959L6.95557 10.933L7.45557 10.067L8.62378 10.1648C9.06101 9.58772 9.58797 9.06083 10.1646 8.62392L10.0668 7.45577L10.9329 6.95577L11.8956 7.62458C12.5627 7.34349 13.2825 7.15064 14.0005 7.06057L14.4999 6H15.4999L15.9993 7.06059C16.7176 7.1507 17.4374 7.34361 18.104 7.62455ZM14.9999 10C15.5522 10 15.9999 9.55228 15.9999 9C15.9999 8.44772 15.5522 8 14.9999 8C14.4476 8 13.9999 8.44772 13.9999 9C13.9999 9.55228 14.4476 10 14.9999 10ZM10.9999 12C11.5522 12 11.9999 11.5523 11.9999 11C11.9999 10.4477 11.5522 10 10.9999 10C10.4476 10 9.99988 10.4477 9.99988 11C9.99988 11.5523 10.4476 12 10.9999 12ZM18.9999 12C19.5522 12 19.9999 11.5523 19.9999 11C19.9999 10.4477 19.5522 10 18.9999 10C18.4476 10 17.9999 10.4477 17.9999 11C17.9999 11.5523 18.4476 12 18.9999 12Z" fill="url(#paint2_linear_1988_16820)"/>
<path d="M23 14L23 18L25 18L22 24L22 20L20 20L23 14Z" fill="#FFC107"/>
<defs>
<linearGradient id="paint0_linear_1988_16820" x1="15.0001" y1="15" x2="12.0001" y2="23" gradientUnits="userSpaceOnUse">
<stop stop-color="#E2E2E2"/>
<stop offset="1" stop-color="#848484"/>
</linearGradient>
<linearGradient id="paint1_linear_1988_16820" x1="15.0001" y1="15" x2="12.0001" y2="23" gradientUnits="userSpaceOnUse">
<stop stop-color="#E2E2E2"/>
<stop offset="1" stop-color="#848484"/>
</linearGradient>
<linearGradient id="paint2_linear_1988_16820" x1="14.9999" y1="6" x2="14.9999" y2="24" gradientUnits="userSpaceOnUse">
<stop stop-color="white"/>
<stop offset="1" stop-color="#E6E6E6"/>
</linearGradient>
</defs>
</svg>
