<svg width="30" height="30" viewBox="0 0 30 30" fill="none" xmlns="http://www.w3.org/2000/svg">
<path d="M8.20352 14.1266C8.78019 14.3414 9.24413 14.8136 9.42758 15.4251L10.0435 17.4781L6.99998 18.9998L5.74578 17.1185L3 21.9999V23.9999H14C14.5523 23.9999 15 23.5522 15 22.9999V22.2618C15 22.0901 14.9558 21.9212 14.8716 21.7716L11.2354 15.3072C10.7811 14.4997 9.92658 13.9999 9 13.9999C8.72533 13.9999 8.45698 14.0438 8.20352 14.1266Z" fill="#5714CC"/>
<path d="M12 23.9999H14C14.5522 23.9999 15 23.5522 15 22.9999V22.2618C15 22.0901 14.9557 21.9212 14.8715 21.7716L11.2354 15.3072C10.7811 14.4997 9.92655 13.9999 8.99996 13.9999C8.72525 13.9999 8.45686 14.0438 8.20337 14.1267C8.78009 14.3414 9.24409 14.8136 9.42755 15.4252L12 23.9999Z" fill="url(#paint0_linear_1119_5836)"/>
<path fill-rule="evenodd" clip-rule="evenodd" d="M6.76458 15.3072C7.08416 14.739 7.60186 14.3232 8.20337 14.1266C8.78009 14.3413 9.24409 14.8135 9.42755 15.4251L10.0434 17.4781L6.99995 18.9998L5.74573 17.1184L6.76458 15.3072Z" fill="url(#paint1_linear_1119_5836)"/>
<path d="M15.715 6.12293C15.9651 6.04249 16.2295 5.99988 16.5 5.99988C17.4266 5.99988 18.2811 6.49965 18.7354 7.30724L27 21.9999V23.9999H14C14.5523 23.9999 15 23.5522 15 22.9999V22.2618C15 22.0901 14.9558 21.9212 14.8716 21.7716L11.2354 15.3072C11.0094 14.9055 10.6844 14.5799 10.3007 14.3542L12.3244 10.7566L14.5 11.9999L17.9938 10.1365L17.0095 7.41069C16.7881 6.79777 16.3059 6.33288 15.715 6.12293Z" fill="#5714CC"/>
<path d="M23 23.9999H27V21.9999L18.7354 7.30724C18.2812 6.49965 17.4266 5.99988 16.5 5.99988C16.2295 5.99988 15.9651 6.04249 15.715 6.12293C16.3059 6.33289 16.7881 6.79778 17.0095 7.41069L23 23.9999Z" fill="url(#paint2_linear_1119_5836)"/>
<path fill-rule="evenodd" clip-rule="evenodd" d="M15.7149 6.1228C16.3059 6.33276 16.7881 6.79765 17.0094 7.41056L17.9938 10.1364L14.5 11.9997L12.3243 10.7565L14.2646 7.30711C14.5862 6.73534 15.1085 6.31786 15.7149 6.1228Z" fill="url(#paint3_linear_1119_5836)"/>
<path d="M1 22.9999C1 22.4476 1.44772 21.9999 2 21.9999H28C28.5523 21.9999 29 22.4476 29 22.9999C29 23.5522 28.5523 23.9999 28 23.9999H2C1.44771 23.9999 1 23.5522 1 22.9999Z" fill="#8F58EF"/>
<defs>
<linearGradient id="paint0_linear_1119_5836" x1="8.20337" y1="23.9999" x2="8.20337" y2="13.9999" gradientUnits="userSpaceOnUse">
<stop stop-color="#FFBC0D"/>
<stop offset="1" stop-color="#FFC30D" stop-opacity="0.1"/>
</linearGradient>
<linearGradient id="paint1_linear_1119_5836" x1="8.61087" y1="18.9998" x2="8.61087" y2="10.4717" gradientUnits="userSpaceOnUse">
<stop stop-color="#5714CC"/>
<stop offset="1" stop-color="white"/>
</linearGradient>
<linearGradient id="paint2_linear_1119_5836" x1="15.715" y1="23.9999" x2="15.715" y2="6" gradientUnits="userSpaceOnUse">
<stop stop-color="#FFC30D"/>
<stop offset="1" stop-color="#FFC30D" stop-opacity="0.1"/>
</linearGradient>
<linearGradient id="paint3_linear_1119_5836" x1="16.104" y1="11.9997" x2="16.104" y2="1.71509" gradientUnits="userSpaceOnUse">
<stop stop-color="#5714CC"/>
<stop offset="1" stop-color="white"/>
</linearGradient>
</defs>
</svg>
