<svg width="30" height="30" viewBox="0 0 30 30" fill="none" xmlns="http://www.w3.org/2000/svg">
<path fill-rule="evenodd" clip-rule="evenodd" d="M24 15.0002C25.6569 15.0002 27 16.3433 27 18.0002V24.0002C26.9998 25.6569 25.6567 27.0002 24 27.0002H18C16.3433 27.0002 15.0002 25.6569 15 24.0002V18.0002C15 16.3433 16.3431 15.0002 18 15.0002H24ZM21.707 17.2931C21.3165 16.9026 20.6835 16.9026 20.293 17.2931L17.293 20.2931C16.9026 20.6837 16.9025 21.3167 17.293 21.7072C17.6834 22.0975 18.3166 22.0975 18.707 21.7072L20 20.4142V24.0002C20.0002 24.5523 20.4478 25.0002 21 25.0002C21.5522 25.0002 21.9998 24.5523 22 24.0002V20.4142L23.293 21.7072C23.6834 22.0975 24.3166 22.0975 24.707 21.7072C25.0975 21.3167 25.0974 20.6837 24.707 20.2931L21.707 17.2931Z" fill="#FF8800"/>
<path fill-rule="evenodd" clip-rule="evenodd" d="M11.4502 5.1574C11.8093 5.05479 12.1907 5.05479 12.5498 5.1574L18.4053 6.83025C18.7443 6.92705 19.1022 6.9324 19.4424 6.84685L19.5869 6.80486L23.1025 5.63298C24.036 5.32184 25 6.01625 25 7.00017V13.0998C24.6769 13.0342 24.3425 13.0002 24 13.0002H23V7.77556L20.2197 8.70232C20.1473 8.72647 20.0735 8.74591 20 8.76579V13.0002H18V8.78826C17.9519 8.77643 17.9032 8.76673 17.8555 8.7531L13 7.3654V23.2853L12.5498 23.1574C12.1907 23.0548 11.8093 23.0548 11.4502 23.1574L6.92285 24.4504C5.95934 24.7255 5.00028 24.0022 5 23.0002V8.50896C5 7.67179 5.52044 6.92947 6.29297 6.63787L6.4502 6.58611L11.4502 5.1574ZM7 8.50896V22.3478L10.9014 21.2345C10.934 21.2252 10.9672 21.2176 11 21.2092V7.3654L7 8.50896Z" fill="#FF8800"/>
</svg>
