<svg width="30" height="30" viewBox="0 0 30 30" fill="none" xmlns="http://www.w3.org/2000/svg">
<path d="M13.9999 9C15.1045 9 15.9999 8.10457 15.9999 7C15.9999 5.89543 15.1045 5 13.9999 5C12.8953 5 11.9999 5.89543 11.9999 7C11.9999 8.10457 12.8953 9 13.9999 9Z" fill="#FF8800"/>
<path fill-rule="evenodd" clip-rule="evenodd" d="M14.4193 10.194C13.0531 9.48276 11.9367 10.5837 11.795 12.0003L11.5087 14.8632L10.2977 23H7V25H19.0001L19.4988 25.0356L19.5013 25H21.4142L23.7071 22.7071L22.2929 21.2929L20.5858 23H19.6442L20.4988 11.0356L19.5013 10.9644L19.4274 12H16.8285C16.5633 12 16.3089 11.8947 16.1214 11.7071L15.1993 10.7851C14.9869 10.5727 14.777 10.4061 14.572 10.2806C14.5208 10.2492 14.4698 10.2203 14.4193 10.194ZM18.6416 23L19.2845 14H16.8285C16.2151 14 15.6211 13.8122 15.1234 13.4684C15.0564 14.4174 14.9369 15.253 14.735 16.0356L16.2578 17.776C16.7363 18.3229 17.0001 19.0248 17.0001 19.7515V23H18.6416ZM15.0001 23V19.7515C15.0001 19.5093 14.9121 19.2753 14.7526 19.093L13.7963 18H13.0108L12.2889 23H15.0001Z" fill="#FF8800"/>
<path d="M11.3586 10.9899L10.6227 16.1414C10.5523 16.6341 10.1304 17 9.6327 17H8.85355C8.62718 17 8.41007 16.9101 8.25 16.75C8.08993 16.5899 8 16.3728 8 16.1464V14.1813C8 14.0614 8.02157 13.9425 8.06367 13.8302L9.25667 10.6489C9.40304 10.2586 9.77616 10 10.193 10H10.5C11.0278 10 11.4332 10.4675 11.3586 10.9899Z" fill="#FF8800"/>
</svg>
