<svg width="30" height="30" viewBox="0 0 30 30" fill="none" xmlns="http://www.w3.org/2000/svg">
<path fill-rule="evenodd" clip-rule="evenodd" d="M21 28C24.866 28 28 24.866 28 21C28 17.134 24.866 14 21 14C17.134 14 14 17.134 14 21C14 24.866 17.134 28 21 28ZM22 18C22 17.4477 21.5523 17 21 17C20.4477 17 20 17.4477 20 18V20H18C17.4477 20 17 20.4477 17 21C17 21.5523 17.4477 22 18 22H20V24C20 24.5523 20.4477 25 21 25C21.5523 25 22 24.5523 22 24V22H24C24.5523 22 25 21.5523 25 21C25 20.4477 24.5523 20 24 20H22V18Z" fill="#FF8800"/>
</svg>
