<svg width="30" height="30" viewBox="0 0 30 30" fill="none" xmlns="http://www.w3.org/2000/svg">
<path opacity="0.5" fill-rule="evenodd" clip-rule="evenodd" d="M19 22C17.3431 22 16 20.6569 16 19V11C16 8.23858 13.7614 6 11 6C8.23858 6 6 8.23858 6 11V21C6 21.5523 6.44772 22 7 22C7.55228 22 8 21.5523 8 21V11C8 9.34315 9.34315 8 11 8C12.6569 8 14 9.34315 14 11V19C14 21.7614 16.2386 24 19 24C21.7614 24 24 21.7614 24 19V9C24 8.44772 23.5523 8 23 8C22.4477 8 22 8.44772 22 9V19C22 20.6569 20.6569 22 19 22Z" fill="#FF8800"/>
<path d="M21 7C21 5.89543 21.8954 5 23 5C24.1046 5 25 5.89543 25 7C25 8.10457 24.1046 9 23 9C21.8954 9 21 8.10457 21 7Z" fill="#FF8800"/>
<path d="M5 23C5 21.8954 5.89543 21 7 21C8.10457 21 9 21.8954 9 23C9 24.1046 8.10457 25 7 25C5.89543 25 5 24.1046 5 23Z" fill="#FF8800"/>
<path d="M7 13C5.89543 13 5 13.8954 5 15C5 16.1046 5.89543 17 7 17C8.10457 17 9 16.1046 9 15C9 13.8954 8.10457 13 7 13Z" fill="#FF8800"/>
<path d="M13 15C13 13.8954 13.8954 13 15 13C16.1046 13 17 13.8954 17 15C17 16.1046 16.1046 17 15 17C13.8954 17 13 16.1046 13 15Z" fill="#FF8800"/>
<path d="M11 5C9.89543 5 9 5.89543 9 7C9 8.10457 9.89543 9 11 9C12.1046 9 13 8.10457 13 7C13 5.89543 12.1046 5 11 5Z" fill="#FF8800"/>
<path d="M21 15C21 13.8954 21.8954 13 23 13C24.1046 13 25 13.8954 25 15C25 16.1046 24.1046 17 23 17C21.8954 17 21 16.1046 21 15Z" fill="#FF8800"/>
<path d="M19 21C17.8954 21 17 21.8954 17 23C17 24.1046 17.8954 25 19 25C20.1046 25 21 24.1046 21 23C21 21.8954 20.1046 21 19 21Z" fill="#FF8800"/>
</svg>
