<svg width="24" height="24" viewBox="0 0 24 24" fill="none" xmlns="http://www.w3.org/2000/svg">
<path d="M7.0762,18.0469C7.4234,18.6408 7.8429,19.1873 8.3262,19.6709C6.3516,20.6135 4.2277,21.2932 2,21.667V19.6367C3.7758,19.3106 5.4772,18.7719 7.0762,18.0469Z" fill="#ffffff"/>
<path d="M14,8C17.3137,8 20,10.6863 20,14C20,17.3137 17.3137,20 14,20C10.6863,20 8,17.3137 8,14C8,10.6863 10.6863,8 14,8Z" fill="#ffffff"/>
<path d="M21.668,2C21.2917,4.2435 20.6044,6.3816 19.6514,8.3682C19.1685,7.8837 18.6228,7.4628 18.0293,7.1143C18.7631,5.5042 19.307,3.7898 19.6357,2H21.668Z" fill="#ffffff"/>
</svg>
