<svg width="30" height="30" viewBox="0 0 30 30" fill="none" xmlns="http://www.w3.org/2000/svg">
<path opacity="0.5" d="M5 23C5 22.4477 5.44772 22 6 22H24C24.5523 22 25 22.4477 25 23C25 23.5523 24.5523 24 24 24H6C5.44772 24 5 23.5523 5 23Z" fill="#FF8800"/>
<path d="M18 6C18.5523 6 19 6.44772 19 7V15H20V14C20 13.4477 20.4477 13 21 13C21.5523 13 22 13.4477 22 14V15C22 16.1046 21.1046 17 20 17H19V22H17V14H16C14.8954 14 14 13.1046 14 12V10C14 9.44772 14.4477 9 15 9C15.5523 9 16 9.44772 16 10V12H17V7C17 6.44772 17.4477 6 18 6Z" fill="#FF8800"/>
<path opacity="0.2" d="M8 7.5C8 8.32843 7.32843 9 6.5 9C5.67157 9 5 8.32843 5 7.5C5 6.67157 5.67157 6 6.5 6C7.32843 6 8 6.67157 8 7.5Z" fill="#FF8800"/>
</svg>
