<svg width="30" height="30" viewBox="0 0 30 30" fill="none" xmlns="http://www.w3.org/2000/svg">
<path fill-rule="evenodd" clip-rule="evenodd" d="M4 9C4 8.44772 4.44772 8 5 8H17C17.5523 8 18 8.44772 18 9C18 9.55228 17.5523 10 17 10H5C4.44772 10 4 9.55228 4 9Z" fill="#FF8800"/>
<path opacity="0.7" fill-rule="evenodd" clip-rule="evenodd" d="M6 15C6 14.4477 6.44772 14 7 14H15C15.5523 14 16 14.4477 16 15C16 15.5523 15.5523 16 15 16H7C6.44772 16 6 15.5523 6 15Z" fill="#FF8800"/>
<path opacity="0.5" fill-rule="evenodd" clip-rule="evenodd" d="M9 21C9 20.4477 9.44772 20 10 20H12C12.5523 20 13 20.4477 13 21C13 21.5523 12.5523 22 12 22H10C9.44772 22 9 21.5523 9 21Z" fill="#FF8800"/>
<path fill-rule="evenodd" clip-rule="evenodd" d="M22 8C22.5523 8 23 8.44772 23 9V18.5858L24.2929 17.2929C24.6834 16.9024 25.3166 16.9024 25.7071 17.2929C26.0976 17.6834 26.0976 18.3166 25.7071 18.7071L22.7071 21.7071C22.4211 21.9931 21.991 22.0787 21.6173 21.9239C21.2436 21.7691 21 21.4045 21 21V9C21 8.44772 21.4477 8 22 8Z" fill="#FF8800"/>
</svg>
