<svg width="30" height="30" viewBox="0 0 30 30" fill="none" xmlns="http://www.w3.org/2000/svg">
<circle cx="15" cy="15" r="15" fill="#595959"/>
<circle cx="15" cy="15" r="14" fill="#404040"/>
<path d="M9 21C8.44772 21 8 20.5523 8 20V18.5C8 18.2116 8.12448 17.9373 8.3415 17.7474L11.167 15.2751C11.6964 14.8119 12 14.1428 12 13.4393L12 12C12 11.4477 11.5523 11 11 11C10.4477 11 10 11.4477 10 12V12.5C10 13.0523 9.55228 13.5 9 13.5C8.44772 13.5 8 13.0523 8 12.5V12C8 10.3431 9.34315 9 11 9C12.6569 9 14 10.3431 14 12L14 13.4393C14 14.7195 13.4474 15.9373 12.484 16.7803L10 18.9538V19H13C13.5523 19 14 19.4477 14 20C14 20.5523 13.5523 21 13 21H9Z" fill="#E6E6E6"/>
<path fill-rule="evenodd" clip-rule="evenodd" d="M16 20.2V9.8C16 9.35817 16.3582 9 16.8 9H19C20.6569 9 22 10.3431 22 12V18C22 19.6569 20.6569 21 19 21H16.8C16.3582 21 16 20.6418 16 20.2ZM19 19H18V11H19C19.5523 11 20 11.4477 20 12V18C20 18.5523 19.5523 19 19 19Z" fill="#E6E6E6"/>
</svg>
