<svg width="30" height="30" viewBox="0 0 30 30" fill="none" xmlns="http://www.w3.org/2000/svg">
<path d="M14 9.25008L13.9999 9.26787C14.448 9.52661 14.7854 9.95356 14.9274 10.4661C15.1197 11.1605 14.9237 11.9047 14.4142 12.4142L12.7664 14.062C12.7961 14.1178 12.8232 14.1754 12.8478 14.2347C13.1353 14.9288 13.0082 15.7202 12.5303 16.2877L14.7123 18.4697C14.8195 18.3794 14.9347 18.3017 15.0557 18.2369C15.4188 15.7792 17.5145 14 20.0001 14C22.7363 14 25.0001 16.1561 25.0001 19C25.0001 19.9705 24.671 20.8698 24.3244 21.5712C23.9665 22.2955 23.5106 22.966 23.0896 23.5174C22.664 24.0747 22.2433 24.55 21.9309 24.8847C21.7517 25.0768 21.5703 25.2678 21.3793 25.4483C20.6069 26.1839 19.3932 26.1839 18.6208 25.4483C18.4306 25.2669 18.2485 25.0768 18.0692 24.8847C18.0101 24.8214 17.9471 24.753 17.8809 24.68C17.782 24.9534 17.6238 25.2047 17.4142 25.4142C17.0392 25.7893 16.5305 26 16 26L12 26C11.191 26 10.4618 25.5127 10.1522 24.7653C9.8647 24.0713 9.99181 23.2798 10.4696 22.7123L8.28765 20.5303C7.72015 21.0082 6.92867 21.1353 6.23456 20.8478C5.48722 20.5382 4.99994 19.8089 4.99994 19L4.99995 15C4.99996 14.404 5.26061 13.869 5.67414 13.5026L4.76254 12.591C4.27432 12.1027 4.00002 11.4405 4 10.7501C3.99998 10.0595 4.27428 9.39728 4.76256 8.90901L7.909 5.76256C8.39726 5.2743 9.05949 5 9.74999 5C10.4405 5 11.1027 5.2743 11.591 5.76256L13.2374 7.40902C13.7257 7.8973 14 8.55955 14 9.25008Z" fill="white" fill-opacity="0.3"/>
<path d="M14 8.25008L13.9999 8.26787C14.448 8.52661 14.7854 8.95356 14.9274 9.46613C15.1197 10.1605 14.9237 10.9047 14.4142 11.4142L12.7664 13.062C12.7961 13.1178 12.8232 13.1754 12.8478 13.2347C13.1353 13.9288 13.0082 14.7202 12.5303 15.2877L14.7123 17.4697C14.8195 17.3794 14.9347 17.3017 15.0557 17.2369C15.4188 14.7792 17.5145 13 20.0001 13C22.7363 13 25.0001 15.1561 25.0001 18C25.0001 18.9705 24.671 19.8698 24.3244 20.5712C23.9665 21.2955 23.5106 21.966 23.0896 22.5174C22.664 23.0747 22.2433 23.55 21.9309 23.8847C21.7517 24.0768 21.5703 24.2678 21.3793 24.4483C20.6069 25.1839 19.3932 25.1839 18.6208 24.4483C18.4306 24.2669 18.2485 24.0768 18.0692 23.8847C18.0101 23.8214 17.9471 23.753 17.8809 23.68C17.782 23.9534 17.6238 24.2047 17.4142 24.4142C17.0392 24.7893 16.5305 25 16 25L12 25C11.191 25 10.4618 24.5127 10.1522 23.7653C9.8647 23.0713 9.99181 22.2798 10.4696 21.7123L8.28765 19.5303C7.72015 20.0082 6.92867 20.1353 6.23456 19.8478C5.48722 19.5382 4.99994 18.8089 4.99994 18L4.99995 14C4.99996 13.404 5.26061 12.869 5.67414 12.5026L4.76254 11.591C4.27432 11.1027 4.00002 10.4405 4 9.75007C3.99998 9.05954 4.27428 8.39728 4.76256 7.90901L7.909 4.76256C8.39726 4.2743 9.05949 4 9.74999 4C10.4405 4 11.1027 4.2743 11.591 4.76256L13.2374 6.40902C13.7257 6.8973 14 7.55955 14 8.25008Z" fill="#59361B"/>
<path d="M9.74999 6C9.58992 6 9.4364 6.06359 9.32322 6.17678L6.17677 9.32322C6.06358 9.43641 6 9.58993 6 9.75C6 9.91006 6.06359 10.0636 6.17677 10.1767L7.82323 11.8232C7.93642 11.9364 8.08994 12 8.25001 12C8.41007 12 8.56358 11.9364 8.67676 11.8232L9.49998 11L9.99998 13L13 10L11 9.5L11.8232 8.67676C11.9364 8.56358 12 8.41008 12 8.25002C12 8.08994 11.9364 7.93643 11.8232 7.82324L10.1768 6.17678C10.0636 6.06359 9.91006 6 9.74999 6Z" fill="#FFC107"/>
<path d="M6.99995 14L6.99994 18L8.29286 16.7071L13.2929 21.7071L12 23L16 23V19L14.7071 20.2929L9.70708 15.2929L11 14L6.99995 14Z" fill="#FFC107"/>
<path fill-rule="evenodd" clip-rule="evenodd" d="M23 18C23 20.1429 20 23 20 23C20 23 17 20.1429 17 18C17 16.2857 18.3431 15 20 15C21.6569 15 23 16.2857 23 18ZM21 18C21 18.5523 20.5523 19 20 19C19.4477 19 19 18.5523 19 18C19 17.4477 19.4477 17 20 17C20.5523 17 21 17.4477 21 18Z" fill="#FFC107"/>
</svg>
