<svg width="30" height="30" viewBox="0 0 30 30" fill="none" xmlns="http://www.w3.org/2000/svg">
<path d="M15.4443 22L15 22C11.6863 22 9 19.3137 9 16L9 15C9 11.134 12.134 8 16 8L17 8C21.4183 8 25 11.5817 25 16L25 17C25 22.5228 20.5228 27 15 27C8.92487 27 4 22.0751 4 16L4 15C4 8.37258 9.37258 3 16 3L18 3C18.5523 3 19 3.44772 19 4C19 4.55228 18.5523 5 18 5L16 5C10.4772 5 6 9.47715 6 15L6 16C6 20.9706 10.0294 25 15 25C19.4183 25 23 21.4183 23 17L23 16C23 12.6863 20.3137 10 17 10L16 10C13.2386 10 11 12.2386 11 15L11 16C11 18.2091 12.7909 20 15 20L15.4443 20C16.8557 20 18 18.8557 18 17.4443L18 16C18 15.4477 17.5523 15 17 15C16.4823 15 16.0562 15.3933 16.0049 15.8975L15.9951 16.1025C15.9438 16.6067 15.5177 17 15 17C14.4477 17 14 16.5523 14 16C14 14.3431 15.3431 13 17 13C18.6569 13 20 14.3431 20 16L20 17.4443C20 19.9603 17.9603 22 15.4443 22Z" fill="#FF8800"/>
</svg>
