<svg width="50" height="50" viewBox="0 0 50 50" fill="none" xmlns="http://www.w3.org/2000/svg">
<path d="M5 15C5 14.6936 5.17313 14.4134 5.44721 14.2764L21.8292 6.08541C21.9415 6.02924 22.0654 6 22.191 6C22.6378 6 23 6.36221 23 6.80902V6.875C23 6.95791 22.9882 7.0404 22.965 7.12L21.5417 12H25C32.1797 12 38 17.8203 38 25V45H32V25C32 21.134 28.866 18 25 18H21.5417L22.965 22.88C22.9882 22.9596 23 23.0421 23 23.125V23.191C23 23.6378 22.6378 24 22.191 24C22.0654 24 21.9415 23.9708 21.8292 23.9146L5.44721 15.7236C5.17313 15.5866 5 15.3064 5 15Z" fill="white"/>
</svg>
