<svg width="30" height="30" viewBox="0 0 30 30" fill="none" xmlns="http://www.w3.org/2000/svg">
<path fill-rule="evenodd" clip-rule="evenodd" d="M15 5C21.6274 5 27 10.3726 27 17V20C27 21.1046 26.1046 22 25 22H20.1953C19.1578 23.7929 17.2205 25 15 25C12.7795 25 10.8422 23.7929 9.80469 22H5C3.89543 22 3 21.1046 3 20V17C3 10.3726 8.37258 5 15 5ZM9.63965 12.2314C9.2154 11.8786 8.58481 11.9364 8.23145 12.3604C7.8786 12.7845 7.93672 13.4151 8.36035 13.7686L12.1895 16.958C12.0691 17.2826 12.0001 17.6335 12 18C12.0004 19.6564 13.3436 20.9998 15 21C16.6565 20.9998 17.9996 19.6564 18 18C17.9997 16.3435 16.6565 15.0002 15 15C14.4407 15.0001 13.9179 15.1553 13.4697 15.4219L9.63965 12.2314ZM23 16C22.4481 16.0002 22.0003 16.4481 22 17C22.0003 17.5519 22.448 17.9998 23 18H24C24.5518 17.9998 24.9995 17.5527 25 17.001C24.9999 16.4489 24.5521 16.0002 24 16H23ZM15 7.00098C14.4481 7.00118 14.0003 7.44811 14 8V9C14.0003 9.55194 14.448 10.0008 15 10.001C15.5518 10.0008 15.9995 9.5527 16 9.00098V8.00098C15.9999 7.44885 15.5521 7.00116 15 7.00098Z" fill="#FF8800"/>
</svg>
