<svg width="30" height="30" viewBox="0 0 30 30" fill="none" xmlns="http://www.w3.org/2000/svg">
<g opacity="0.7">
<path d="M4 6C3.44772 6 3 6.44772 3 7V23C3 23.5523 3.44772 24 4 24C4.55228 24 5 23.5523 5 23V7C5 6.44772 4.55228 6 4 6Z" fill="#FF8800"/>
<path d="M21 6C20.4477 6 20 6.44772 20 7V12H22V7C22 6.44772 21.5523 6 21 6Z" fill="#FF8800"/>
<path d="M22 23V18H20V23C20 23.5523 20.4477 24 21 24C21.5523 24 22 23.5523 22 23Z" fill="#FF8800"/>
<path d="M11 6C10.4477 6 10 6.44772 10 7V10C10 10.5523 10.4477 11 11 11C11.5523 11 12 10.5523 12 10V7C12 6.44772 11.5523 6 11 6Z" fill="#FF8800"/>
<path d="M10 14C10 13.4477 10.4477 13 11 13C11.5523 13 12 13.4477 12 14V17C12 17.5523 11.5523 18 11 18C10.4477 18 10 17.5523 10 17V14Z" fill="#FF8800"/>
<path d="M10 21C10 20.4477 10.4477 20 11 20C11.5523 20 12 20.4477 12 21V23C12 23.5523 11.5523 24 11 24C10.4477 24 10 23.5523 10 23V21Z" fill="#FF8800"/>
</g>
<path fill-rule="evenodd" clip-rule="evenodd" d="M15 6L15 12C15 14.2091 16.7909 16 19 16L22 16C23.1046 16 24 16.8954 24 18V24H26V18C26 15.7909 24.2091 14 22 14L19 14C17.8954 14 17 13.1046 17 12L17 6L15 6Z" fill="#FF8800"/>
</svg>
