<svg width="30" height="30" viewBox="0 0 30 30" fill="none" xmlns="http://www.w3.org/2000/svg">
<path opacity="0.7" fill-rule="evenodd" clip-rule="evenodd" d="M15 11C15 10.4477 15.4477 10 16 10H17.4142L20.7071 13.2929L19.2929 14.7071L16.5858 12H16C15.4477 12 15 11.5523 15 11Z" fill="#FF8800"/>
<path d="M17 8C16.4477 8 16 8.44772 16 9C16 9.55228 16.4477 10 17 10H17.5L19.4286 12.5714L19 13H13L12 12H7C5.89543 12 5 12.8954 5 14V17H7C5.89543 17 5 17.8954 5 19C5 20.1046 5.89543 21 7 21H10.8696C12.5985 21 14 19.5985 14 17.8696V17H20.723L21.523 19H18C17.4477 19 17 19.4477 17 20C17 20.5523 17.4477 21 18 21H23.3028L26.5547 18.8321C27.0142 18.5257 27.1384 17.9048 26.8321 17.4453C26.5257 16.9858 25.9048 16.8616 25.4453 17.1679L23.4708 18.4843L22.8089 16.8297C23.5105 16.519 24 15.8167 24 15V13L22 11H20.75L18.5 8H17Z" fill="#FF8800"/>
</svg>
