<svg width="30" height="30" viewBox="0 0 30 30" fill="none" xmlns="http://www.w3.org/2000/svg">
<path d="M15.5 8C14.6716 8 14 8.67157 14 9.5V20.8095L9.89898 18.6939C9.48395 18.4798 8.97768 18.5627 8.65266 18.8981C8.28008 19.2825 8.25286 19.8845 8.58924 20.3009L14 27H22.7532C23.2945 27 23.8127 26.7806 24.1894 26.3919L24.3569 26.2191C24.6452 25.9216 24.834 25.5421 24.8973 25.1327L25.8647 18.8752C25.9498 18.3251 25.7674 17.7674 25.3738 17.3738C25.1301 17.1301 24.8197 16.9639 24.4816 16.8963L17 15.4V9.5C17 8.67157 16.3284 8 15.5 8Z" fill="#FF8800"/>
<path opacity="0.8" d="M6 3C4.89543 3 4 3.89543 4 5V13C4 14.1046 4.89543 15 6 15H12V9.5C12 7.567 13.567 6 15.5 6C17.433 6 19 7.567 19 9.5V15H20C21.1046 15 22 14.1046 22 13V5C22 3.89543 21.1046 3 20 3H6Z" fill="#FF8800"/>
</svg>
