<svg width="30" height="30" viewBox="0 0 30 30" fill="none" xmlns="http://www.w3.org/2000/svg">
<path d="M14.2929 1.29289C14.6834 0.902369 15.3166 0.902369 15.7071 1.29289L19.7071 5.29289C20.0976 5.68342 20.0976 6.31658 19.7071 6.70711C19.3166 7.09763 18.6834 7.09763 18.2929 6.70711L16 4.41421V9H14V4.41421L11.7071 6.70711C11.3166 7.09763 10.6834 7.09763 10.2929 6.70711C9.90237 6.31658 9.90237 5.68342 10.2929 5.29289L14.2929 1.29289Z" fill="#FF8800"/>
<path d="M14 9V17C14 17.5523 14.4477 18 15 18C15.5523 18 16 17.5523 16 17V9H22C23.1046 9 24 9.89543 24 11V25C24 26.1046 23.1046 27 22 27H8C6.89543 27 6 26.1046 6 25V11C6 9.89543 6.89543 9 8 9H14Z" fill="#FF8800"/>
</svg>
