<svg width="30" height="30" viewBox="0 0 30 30" fill="none" xmlns="http://www.w3.org/2000/svg">
<path opacity="0.7" d="M21 9C21.1336 9 21.2488 9.08601 21.29 9.20801L21.3037 9.2627L22.0664 14.6045L22.7891 16.0498C22.9275 16.3266 23 16.6329 23 16.9443V21H15V19C17.2091 19 19 17.2091 19 15C19 12.7909 17.2091 11 15 11V9H21Z" fill="#FF8800"/>
<path d="M15 19C12.7909 19 11 17.2091 11 15C11 12.7909 12.7909 11 15 11V19Z" fill="#FF8800"/>
<path fill-rule="evenodd" clip-rule="evenodd" d="M21 7C22.1475 7 23.1208 7.84361 23.2832 8.97949L24 14L24.5781 15.1553C24.8558 15.7107 25 16.3234 25 16.9443V23.5C25 24.3284 24.3284 25 23.5 25C22.6716 25 22 24.3284 22 23.5V23H8V23.5C8 24.3284 7.32843 25 6.5 25C5.67157 25 5 24.3284 5 23.5V16.9443C5 16.3234 5.14418 15.7107 5.42188 15.1553L6 14L6.7168 8.97949C6.87924 7.84361 7.85253 7 9 7H21ZM9 9C8.84721 9 8.71777 9.11247 8.69629 9.2627L7.93359 14.6045L7.78809 14.8955L7.20996 16.0488C7.07155 16.3257 7 16.6329 7 16.9443V21H23V16.9443C23 16.6329 22.9275 16.3266 22.7891 16.0498L22.0664 14.6045L21.3037 9.2627L21.29 9.20801C21.2488 9.08601 21.1336 9 21 9H9Z" fill="#FF8800"/>
</svg>
