<svg width="30" height="30" viewBox="0 0 30 30" fill="none" xmlns="http://www.w3.org/2000/svg">
<path opacity="0.2" d="M14 8C14 7.44772 13.5523 7 13 7H7C6.44772 7 6 7.44772 6 8V12H14V8Z" fill="#FF8800"/>
<path fill-rule="evenodd" clip-rule="evenodd" d="M16 8C16 6.34315 14.6569 5 13 5H7C5.34314 5 4 6.34315 4 8V22C4 23.6569 5.34315 25 7 25H12.1342L12.112 24.9799C11.3172 24.2573 10.707 23.5391 10.2935 23H7C6.44772 23 6 22.5523 6 22V13H13C14.3062 13 15.4175 12.1652 15.8293 11H23C23.5523 11 24 11.4477 24 12V15.202C24.7561 15.6055 25.4246 16.0731 26 16.5434V12C26 10.3431 24.6569 9 23 9H16V8ZM13 11H6V8C6 7.44772 6.44772 7 7 7H13C13.5523 7 14 7.44772 14 8V10C14 10.5523 13.5523 11 13 11Z" fill="#FF8800"/>
<path fill-rule="evenodd" clip-rule="evenodd" d="M13.6253 15.2929C14.0158 14.9024 14.649 14.9024 15.0395 15.2929L16.3565 16.6099C17.2464 16.2379 18.2418 16 19.3324 16C24.3324 16 27.3324 21 27.3324 21C27.3324 21 26.1832 22.9154 24.1218 24.3752L25.0395 25.2929C25.43 25.6834 25.43 26.3166 25.0395 26.7071C24.649 27.0976 24.0158 27.0976 23.6253 26.7071L13.6253 16.7071C13.2348 16.3166 13.2348 15.6834 13.6253 15.2929ZM18.8144 19.0677L18.039 18.2924C18.4306 18.105 18.8693 18 19.3324 18C20.9893 18 22.3324 19.3431 22.3324 21C22.3324 21.4631 22.2274 21.9018 22.04 22.2934L21.2647 21.518C21.3088 21.3528 21.3324 21.1792 21.3324 21C21.3324 19.8954 20.437 19 19.3324 19C19.1532 19 18.9796 19.0236 18.8144 19.0677Z" fill="#FF8800"/>
<path d="M13.4369 18.5187C12.0749 19.7624 11.3324 21 11.3324 21C11.3324 21 14.3324 26 19.3324 26C19.8345 26 20.3164 25.9496 20.7771 25.8589L18.8851 23.9669C17.5863 23.7727 16.5597 22.7461 16.3655 21.4473L13.4369 18.5187Z" fill="#FF8800"/>
</svg>
