<svg width="30" height="30" viewBox="0 0 30 30" fill="none" xmlns="http://www.w3.org/2000/svg">
<path opacity="0.5" fill-rule="evenodd" clip-rule="evenodd" d="M28 20C28 21.6569 26.6569 23 25 23L5 23C3.34314 23 2 21.6569 2 20L2 10C2 8.34314 3.34315 7 5 7L25 7C26.6569 7 28 8.34314 28 10L28 20ZM4 20L4 10C4.02583 9.45761 4.43507 9 5 9L25 9C25.5649 9 25.9742 9.45761 26 10L26 20C26 20.5523 25.5523 21 25 21L5 21C4.44772 21 4 20.5523 4 20Z" fill="#FF8800"/>
<path opacity="0.2" d="M25 9C25.5523 9 26 9.44772 26 10V20C26 20.5523 25.5523 21 25 21H5C4.44772 21 4 20.5523 4 20L4 10C4 9.44772 4.44772 9 5 9L25 9Z" fill="#FF8800"/>
<path d="M6.5 17C7.32843 17 8 17.6716 8 18.5C8 19.3284 7.32843 20 6.5 20C5.67157 20 5 19.3284 5 18.5C5 17.6716 5.67157 17 6.5 17Z" fill="#FF8800"/>
<path d="M24.5 17C24.7761 17 25 17.2239 25 17.5V19.5C25 19.7761 24.7761 20 24.5 20H9.5C9.22386 20 9 19.7761 9 19.5V17.5C9 17.2239 9.22386 17 9.5 17H24.5Z" fill="#FF8800"/>
<path d="M20.5 10C20.7761 10 21 10.2239 21 10.5V12.5C21 12.7761 20.7761 13 20.5 13H5.5C5.22386 13 5 12.7761 5 12.5V10.5C5 10.2239 5.22386 10 5.5 10H20.5Z" fill="#FF8800"/>
<path d="M24.5 10C24.7761 10 25 10.2239 25 10.5V12.5C25 12.7761 24.7761 13 24.5 13H22.5C22.2239 13 22 12.7761 22 12.5V10.5C22 10.2239 22.2239 10 22.5 10H24.5Z" fill="#FF8800"/>
</svg>
