<svg width="30" height="30" viewBox="0 0 30 30" fill="none" xmlns="http://www.w3.org/2000/svg">
<path fill-rule="evenodd" clip-rule="evenodd" d="M27 15C27 21.6274 21.6274 27 15 27C8.37258 27 3 21.6274 3 15C3 8.37258 8.37258 3 15 3C21.6274 3 27 8.37258 27 15ZM15 24.6V21H13.8889C12.8457 21 12 20.1543 12 19.1111V18L5.76731 12.3609C5.52808 13.1994 5.4 14.0847 5.4 15C5.4 20.3019 9.69807 24.6 15 24.6ZM18 5.87805C21.8327 7.1378 24.6 10.7457 24.6 15C24.6 17.5415 23.6124 19.8523 22 21.5697V21C22 19.8954 21.1046 19 20 19H19V16C19 15.4477 18.5523 15 18 15H11V13H13.0667C13.619 13 14.0667 12.5523 14.0667 12V10H16.3333C17.2538 10 18 9.25381 18 8.33333V5.87805Z" fill="#FF8800"/>
</svg>
