<svg width="30" height="30" viewBox="0 0 30 30" fill="none" xmlns="http://www.w3.org/2000/svg">
<path fill-rule="evenodd" clip-rule="evenodd" d="M16 25H5C3.89543 25 3 24.1046 3 23V15C3 13.8954 3.89543 13 5 13H6.20004C7.12658 8.43552 11.1621 5 16 5C21.5229 5 26 9.47715 26 15C26 20.5228 21.5228 25 16 25Z" fill="#2D3B53"/>
<circle cx="16" cy="15" r="8" fill="#1E1E24"/>
<path fill-rule="evenodd" clip-rule="evenodd" d="M23 15L17.75 17L16 15H23Z" fill="url(#paint0_linear_1903_15313)"/>
<path fill-rule="evenodd" clip-rule="evenodd" d="M23 15L17.75 13L16 15H23Z" fill="url(#paint1_linear_1903_15313)"/>
<path fill-rule="evenodd" clip-rule="evenodd" d="M9 15L14.25 17L16 15H9Z" fill="white"/>
<path fill-rule="evenodd" clip-rule="evenodd" d="M9 15L14.25 13L16 15H9Z" fill="white"/>
<path fill-rule="evenodd" clip-rule="evenodd" d="M14.25 17L16 22V15L14.25 17Z" fill="url(#paint2_linear_1903_15313)"/>
<path fill-rule="evenodd" clip-rule="evenodd" d="M17.75 17L16 22V15L17.75 17Z" fill="url(#paint3_linear_1903_15313)"/>
<path fill-rule="evenodd" clip-rule="evenodd" d="M14.25 13L16 8V15L14.25 13Z" fill="#E82A3B"/>
<path fill-rule="evenodd" clip-rule="evenodd" d="M17.75 13L16 8V15L17.75 13Z" fill="url(#paint4_linear_1903_15313)"/>
<mask id="path-11-outside-1_1903_15313" maskUnits="userSpaceOnUse" x="4" y="14" width="11" height="10" fill="black">
<rect fill="white" x="4" y="14" width="11" height="10"/>
<path fill-rule="evenodd" clip-rule="evenodd" d="M5 23V15H5.5H7H7.5L9.5 20.3333L11.5 15H12H13.5H14V23H12V19L10.5 23H8.5L7 19V23H5Z"/>
</mask>
<path fill-rule="evenodd" clip-rule="evenodd" d="M5 23V15H5.5H7H7.5L9.5 20.3333L11.5 15H12H13.5H14V23H12V19L10.5 23H8.5L7 19V23H5Z" fill="#FFC107"/>
<path d="M5 15V14C4.44772 14 4 14.4477 4 15H5ZM5 23H4C4 23.5523 4.44772 24 5 24V23ZM7.5 15L8.43633 14.6489C8.28997 14.2586 7.91684 14 7.5 14V15ZM9.5 20.3333L8.56367 20.6845C8.71003 21.0748 9.08316 21.3333 9.5 21.3333C9.91684 21.3333 10.29 21.0748 10.4363 20.6845L9.5 20.3333ZM11.5 15V14C11.0832 14 10.71 14.2586 10.5637 14.6489L11.5 15ZM14 15H15C15 14.4477 14.5523 14 14 14V15ZM14 23V24C14.5523 24 15 23.5523 15 23H14ZM12 23H11C11 23.5523 11.4477 24 12 24V23ZM12 19H13C13 18.5165 12.6541 18.1023 12.1784 18.016C11.7027 17.9298 11.2334 18.1962 11.0637 18.6489L12 19ZM10.5 23V24C10.9168 24 11.29 23.7414 11.4363 23.3511L10.5 23ZM8.5 23L7.56367 23.3511C7.71003 23.7414 8.08316 24 8.5 24V23ZM7 19L7.93633 18.6489C7.76657 18.1962 7.29728 17.9298 6.82158 18.016C6.34587 18.1023 6 18.5165 6 19H7ZM7 23V24C7.55228 24 8 23.5523 8 23H7ZM4 15V23H6V15H4ZM5.5 14H5V16H5.5V14ZM7 14H5.5V16H7V14ZM7.5 14H7V16H7.5V14ZM10.4363 19.9822L8.43633 14.6489L6.56367 15.3511L8.56367 20.6845L10.4363 19.9822ZM10.5637 14.6489L8.56367 19.9822L10.4363 20.6845L12.4363 15.3511L10.5637 14.6489ZM12 14H11.5V16H12V14ZM13.5 14H12V16H13.5V14ZM14 14H13.5V16H14V14ZM15 23V15H13V23H15ZM12 24H14V22H12V24ZM11 19V23H13V19H11ZM11.4363 23.3511L12.9363 19.3511L11.0637 18.6489L9.56367 22.6489L11.4363 23.3511ZM8.5 24H10.5V22H8.5V24ZM6.06367 19.3511L7.56367 23.3511L9.43633 22.6489L7.93633 18.6489L6.06367 19.3511ZM8 23V19H6V23H8ZM5 24H7V22H5V24Z" fill="black" fill-opacity="0.3" mask="url(#path-11-outside-1_1903_15313)"/>
<defs>
<linearGradient id="paint0_linear_1903_15313" x1="18.5" y1="15" x2="18.5" y2="17" gradientUnits="userSpaceOnUse">
<stop stop-color="white"/>
<stop offset="1" stop-color="white" stop-opacity="0.5"/>
</linearGradient>
<linearGradient id="paint1_linear_1903_15313" x1="19" y1="15" x2="19" y2="13" gradientUnits="userSpaceOnUse">
<stop stop-color="white" stop-opacity="0.5"/>
<stop offset="1" stop-color="white"/>
</linearGradient>
<linearGradient id="paint2_linear_1903_15313" x1="14" y1="17" x2="16" y2="17" gradientUnits="userSpaceOnUse">
<stop stop-color="white" stop-opacity="0.5"/>
<stop offset="1" stop-color="white"/>
</linearGradient>
<linearGradient id="paint3_linear_1903_15313" x1="18" y1="17" x2="16" y2="17" gradientUnits="userSpaceOnUse">
<stop stop-color="white"/>
<stop offset="1" stop-color="white" stop-opacity="0.5"/>
</linearGradient>
<linearGradient id="paint4_linear_1903_15313" x1="18" y1="12" x2="16" y2="12" gradientUnits="userSpaceOnUse">
<stop stop-color="#E82A36"/>
<stop offset="1" stop-color="#E82A36" stop-opacity="0.6"/>
</linearGradient>
</defs>
</svg>
