<svg width="30" height="30" viewBox="0 0 30 30" fill="none" xmlns="http://www.w3.org/2000/svg">
<path d="M15.5 19C15.5 19.2762 15.2761 19.5 15 19.5C14.7238 19.5 14.5 19.2762 14.5 19V14.2071L13.8535 14.8536C13.6583 15.0488 13.3417 15.0488 13.1464 14.8536C12.9512 14.6583 12.9512 14.3417 13.1464 14.1465L14.6464 12.6465C14.7894 12.5035 15.0045 12.4607 15.1913 12.5381C15.3782 12.6155 15.5 12.7978 15.5 13V19Z" fill="#FF8800"/>
<path d="M9.9549 19.5C9.18028 19.5 8.47214 19.0624 8.12572 18.3695L8.05277 18.2236C7.92928 17.9766 8.02939 17.6763 8.27638 17.5528C8.52337 17.4293 8.82371 17.5294 8.9472 17.7764L9.02015 17.9223C9.19718 18.2764 9.55905 18.5 9.9549 18.5H10.0471C10.5734 18.5 11 18.0734 11 17.5472C11 17.137 10.7375 16.7729 10.3485 16.6432L9.84187 16.4744C9.6377 16.4063 9.49999 16.2152 9.49999 16C9.49999 15.7848 9.6377 15.5937 9.84187 15.5257L10.3485 15.3568C10.7375 15.2271 11 14.863 11 14.4529C11 13.9266 10.5734 13.5 10.0471 13.5H9.9549C9.55905 13.5 9.19718 13.7237 9.02015 14.0777L8.9472 14.2236C8.82371 14.4706 8.52337 14.5707 8.27638 14.4472C8.02939 14.3237 7.92928 14.0234 8.05277 13.7764L8.12572 13.6305C8.47214 12.9377 9.18028 12.5 9.9549 12.5H10.0471C11.1257 12.5 12 13.3743 12 14.4529C12 15.0706 11.7095 15.6374 11.2389 16C11.7095 16.3626 12 16.9294 12 17.5472C12 18.6257 11.1257 19.5 10.0471 19.5H9.9549Z" fill="#FF8800"/>
<path fill-rule="evenodd" clip-rule="evenodd" d="M8 5C7.44772 5 7 5.44772 7 6V7C5.34315 7 4 8.34314 4 10V20C4 21.6569 5.34314 23 7 23H17C18.6569 23 20 21.6569 20 20V10C20 8.34315 18.6569 7 17 7V6C17 5.44772 16.5523 5 16 5C15.4477 5 15 5.44772 15 6V7H9V6C9 5.44772 8.55228 5 8 5ZM6 12V20C6 20.5523 6.44772 21 7 21H17C17.5523 21 18 20.5523 18 20V12C18 11.4477 17.5523 11 17 11H7C6.44772 11 6 11.4477 6 12Z" fill="#FF8800"/>
<path d="M25 8C25 7.44772 24.5523 7 24 7C23.4477 7 23 7.44772 23 8V22C23 22.4045 23.2436 22.7691 23.6173 22.9239C23.991 23.0787 24.4211 22.9931 24.7071 22.7071L27.7071 19.7071C28.0976 19.3166 28.0976 18.6834 27.7071 18.2929C27.3166 17.9024 26.6834 17.9024 26.2929 18.2929L25 19.5858V8Z" fill="#FF8800"/>
</svg>
