<svg width="30" height="30" viewBox="0 0 30 30" fill="none" xmlns="http://www.w3.org/2000/svg">
<path fill-rule="evenodd" clip-rule="evenodd" d="M5 15H7.13327C7.99873 15 8.84086 15.2807 9.53323 15.8L9.93164 16.0988C10.5422 16.5567 11.009 17.1797 11.277 17.8943L12.0666 20H18L18.6754 17.9741C18.8889 17.3335 19.2486 16.7514 19.7261 16.274C20.5417 15.4583 21.6481 15 22.8016 15H25.4334L26 14.4V12L22 11L19 6H10L8.46663 10.8L5.00005 12L5 15ZM19.7708 11.1719L17.8677 8H11.4607L10.0839 12.3097L16 14L19.7708 11.1719Z" fill="#FF8800"/>
<path fill-rule="evenodd" clip-rule="evenodd" d="M10 20.5C10 22.433 8.433 24 6.5 24C4.567 24 3 22.433 3 20.5C3 18.567 4.567 17 6.5 17C8.433 17 10 18.567 10 20.5ZM8 20.5C8 21.3284 7.32843 22 6.5 22C5.67157 22 5 21.3284 5 20.5C5 19.6716 5.67157 19 6.5 19C7.32843 19 8 19.6716 8 20.5Z" fill="#FF8800"/>
<path fill-rule="evenodd" clip-rule="evenodd" d="M27 20.5C27 22.433 25.433 24 23.5 24C21.567 24 20 22.433 20 20.5C20 18.567 21.567 17 23.5 17C25.433 17 27 18.567 27 20.5ZM25 20.5C25 21.3284 24.3284 22 23.5 22C22.6716 22 22 21.3284 22 20.5C22 19.6716 22.6716 19 23.5 19C24.3284 19 25 19.6716 25 20.5Z" fill="#FF8800"/>
</svg>
