<svg width="24" height="24" viewBox="0 0 24 24" fill="none" xmlns="http://www.w3.org/2000/svg">
<path d="M13,22H11V17H13V22Z" fill="#ffffff"/>
<path d="M9.1719,16.2422L7.0498,18.3643L5.6357,16.9502L7.7578,14.8281L9.1719,16.2422Z" fill="#ffffff"/>
<path d="M18.3643,16.9502L16.9502,18.3643L14.8281,16.2422L16.2422,14.8281L18.3643,16.9502Z" fill="#ffffff"/>
<path d="M12,9C13.6569,9 15,10.3431 15,12C15,13.6569 13.6569,15 12,15C10.3431,15 9,13.6569 9,12C9,10.3431 10.3431,9 12,9Z" fill="#ffffff"/>
<path d="M7,13H2V11H7V13Z" fill="#ffffff"/>
<path d="M22,13H17V11H22V13Z" fill="#ffffff"/>
<path d="M9.1719,7.7578L7.7578,9.1719L5.6357,7.0498L7.0498,5.6357L9.1719,7.7578Z" fill="#ffffff"/>
<path d="M18.3643,7.0498L16.2422,9.1719L14.8281,7.7578L16.9502,5.6357L18.3643,7.0498Z" fill="#ffffff"/>
<path d="M13,7H11V2H13V7Z" fill="#ffffff"/>
</svg>
