<svg width="61" height="60" viewBox="0 0 61 60" fill="none" xmlns="http://www.w3.org/2000/svg">
<path d="M16.9 20C16.6791 20 16.5 20.1791 16.5 20.4V23.6C16.5 23.8209 16.6791 24 16.9 24H20.1C20.3209 24 20.5 23.8209 20.5 23.6V20.4C20.5 20.1791 20.3209 20 20.1 20H16.9Z" fill="#BEB9C5"/>
<path d="M22.5 36C21.3954 36 20.5 36.8954 20.5 38C20.5 39.1046 21.3954 40 22.5 40H38.5C39.6046 40 40.5 39.1046 40.5 38C40.5 36.8954 39.6046 36 38.5 36H22.5Z" fill="#BEB9C5"/>
<path d="M16.5 28.4C16.5 28.1791 16.6791 28 16.9 28H20.1C20.3209 28 20.5 28.1791 20.5 28.4V31.6C20.5 31.8209 20.3209 32 20.1 32H16.9C16.6791 32 16.5 31.8209 16.5 31.6V28.4Z" fill="#BEB9C5"/>
<path d="M24.9 20C24.6791 20 24.5 20.1791 24.5 20.4V23.6C24.5 23.8209 24.6791 24 24.9 24H28.1C28.3209 24 28.5 23.8209 28.5 23.6V20.4C28.5 20.1791 28.3209 20 28.1 20H24.9Z" fill="#BEB9C5"/>
<path d="M24.5 28.4C24.5 28.1791 24.6791 28 24.9 28H28.1C28.3209 28 28.5 28.1791 28.5 28.4V31.6C28.5 31.8209 28.3209 32 28.1 32H24.9C24.6791 32 24.5 31.8209 24.5 31.6V28.4Z" fill="#BEB9C5"/>
<path d="M32.9 20C32.6791 20 32.5 20.1791 32.5 20.4V23.6C32.5 23.8209 32.6791 24 32.9 24H36.1C36.3209 24 36.5 23.8209 36.5 23.6V20.4C36.5 20.1791 36.3209 20 36.1 20H32.9Z" fill="#BEB9C5"/>
<path d="M32.5 28.4C32.5 28.1791 32.6791 28 32.9 28H36.1C36.3209 28 36.5 28.1791 36.5 28.4V31.6C36.5 31.8209 36.3209 32 36.1 32H32.9C32.6791 32 32.5 31.8209 32.5 31.6V28.4Z" fill="#BEB9C5"/>
<path d="M40.9 20C40.6791 20 40.5 20.1791 40.5 20.4V23.6C40.5 23.8209 40.6791 24 40.9 24H44.1C44.3209 24 44.5 23.8209 44.5 23.6V20.4C44.5 20.1791 44.3209 20 44.1 20H40.9Z" fill="#BEB9C5"/>
<path d="M40.5 28.4C40.5 28.1791 40.6791 28 40.9 28H44.1C44.3209 28 44.5 28.1791 44.5 28.4V31.6C44.5 31.8209 44.3209 32 44.1 32H40.9C40.6791 32 40.5 31.8209 40.5 31.6V28.4Z" fill="#BEB9C5"/>
<path fill-rule="evenodd" clip-rule="evenodd" d="M6.5 18C6.5 14.6863 9.18629 12 12.5 12H48.5C51.8137 12 54.5 14.6863 54.5 18V42C54.5 45.3137 51.8137 48 48.5 48H12.5C9.18629 48 6.5 45.3137 6.5 42V18ZM12.5 16H48.5C49.6046 16 50.5 16.8954 50.5 18V42C50.5 43.1046 49.6046 44 48.5 44H12.5C11.3954 44 10.5 43.1046 10.5 42V18C10.5 16.8954 11.3954 16 12.5 16Z" fill="#BEB9C5"/>
</svg>
