<svg width="30" height="30" viewBox="0 0 30 30" fill="none" xmlns="http://www.w3.org/2000/svg">
<path fill-rule="evenodd" clip-rule="evenodd" d="M15 6C19.9706 6 24 10.0294 24 15C24 19.9706 19.9706 24 15 24C11.311 24 8.13815 21.7803 6.74844 18.5996C6.52732 18.0935 5.9378 17.8625 5.43171 18.0836C4.92563 18.3048 4.69461 18.8943 4.91573 19.4004C6.61224 23.2833 10.4877 26 15 26C21.0751 26 26 21.0751 26 15C26 8.92487 21.0751 4 15 4C11.8474 4 9.00451 5.32706 7 7.45019V6C7 5.44772 6.55228 5 6 5C5.44771 5 5 5.44772 5 6V10C5 10.5523 5.44771 11 6 11H10C10.5523 11 11 10.5523 11 10C11 9.44772 10.5523 9 10 9H8.29163C9.94076 7.15736 12.3351 6 15 6Z" fill="#FF8800"/>
<path d="M16 11C16 10.4477 15.5523 10 15 10C14.4477 10 14 10.4477 14 11V14.7324C14 15.2339 14.2507 15.7023 14.6679 15.9805L17.4453 17.8321C17.9048 18.1384 18.5257 18.0142 18.8321 17.5547C19.1384 17.0952 19.0142 16.4743 18.5547 16.1679L16 14.4648V11Z" fill="#FF8800"/>
</svg>
