<svg width="30" height="30" viewBox="0 0 30 30" fill="none" xmlns="http://www.w3.org/2000/svg">
<circle cx="15" cy="15" r="15" fill="#595959"/>
<circle cx="15" cy="15" r="14" fill="#404040"/>
<path d="M11 11C10.4477 11 10 11.4477 10 12C10 12.5523 9.55228 13 9 13C8.44772 13 8 12.5523 8 12C8 10.3432 9.34314 9 11 9C12.6568 9 14 10.3431 14 12V13C14 13.7684 13.7111 14.4692 13.2361 15C13.7111 15.5308 14 16.2316 14 17V18C14 19.6569 12.6568 21 11 21C9.34314 21 8 19.6569 8 18V17.5C8 16.9477 8.44772 16.5 9 16.5C9.55228 16.5 10 16.9477 10 17.5V18C10 18.5523 10.4477 19 11 19C11.5523 19 12 18.5523 12 18V17C12 16.4477 11.5523 16 11 16C10.4477 16 10 15.5523 10 15C10 14.4477 10.4477 14 11 14C11.5523 14 12 13.5523 12 13V12C12 11.4477 11.5523 11 11 11Z" fill="#E6E6E6"/>
<path fill-rule="evenodd" clip-rule="evenodd" d="M16 20.2V9.8C16 9.35817 16.3582 9 16.8 9H19C20.6569 9 22 10.3431 22 12V18C22 19.6569 20.6569 21 19 21H16.8C16.3582 21 16 20.6418 16 20.2ZM19 19H18V11H19C19.5523 11 20 11.4477 20 12V18C20 18.5523 19.5523 19 19 19Z" fill="#E6E6E6"/>
</svg>
