<svg width="50" height="50" viewBox="0 0 50 50" fill="none" xmlns="http://www.w3.org/2000/svg">
<path fill-rule="evenodd" clip-rule="evenodd" d="M9.90811 5.9081C10.1248 5.69142 10.4453 5.61576 10.736 5.71267L28.1117 11.5046C28.2309 11.5443 28.3391 11.6112 28.4279 11.7C28.7439 12.0159 28.7439 12.5282 28.4279 12.8441L28.3813 12.8908C28.3226 12.9494 28.256 12.9994 28.1833 13.0393L23.808 15.4386C26.3854 17.8141 28 21.2185 28 25V32V45H22V32V25C22 22.8578 21.0377 20.9403 19.5218 19.6563L17.0393 24.1833C16.9994 24.256 16.9494 24.3226 16.8908 24.3813L16.8441 24.4279C16.5282 24.7439 16.016 24.7439 15.7 24.4279C15.6112 24.3391 15.5443 24.2309 15.5046 24.1117L9.71267 6.736C9.61577 6.44529 9.69143 6.12479 9.90811 5.9081Z" fill="white"/>
</svg>
