<svg width="50" height="50" viewBox="0 0 50 50" fill="none" xmlns="http://www.w3.org/2000/svg">
<path opacity="0.5" fill-rule="evenodd" clip-rule="evenodd" d="M33 36C39.0751 36 44 31.0751 44 25C44 18.9249 39.0751 14 33 14C26.9249 14 22 18.9249 22 25C22 31.0751 26.9249 36 33 36ZM33 31C36.3137 31 39 28.3137 39 25C39 21.6863 36.3137 19 33 19C29.6863 19 27 21.6863 27 25C27 28.3137 29.6863 31 33 31Z" fill="white"/>
<path d="M44 25C44 30.0351 40.617 34.2801 36 35.5859V45H30V34C30 32.3431 31.3431 31 33 31C36.3137 31 39 28.3137 39 25C39 21.6863 36.3137 19 33 19C29.6863 19 27 21.6863 27 25C27 26.6569 25.6569 28 24 28H17.8333L18.9427 30.8528C18.9806 30.9501 19 31.0536 19 31.158V31.191C19 31.6378 18.6378 32 18.191 32C18.0654 32 17.9415 31.9708 17.8292 31.9146L5.44721 25.7236C5.17313 25.5866 5 25.3064 5 25C5 24.6936 5.17313 24.4134 5.44721 24.2764L17.8292 18.0854C17.9415 18.0292 18.0654 18 18.191 18C18.6378 18 19 18.3622 19 18.809V18.842C19 18.9464 18.9806 19.0499 18.9427 19.1472L17.8333 22H22.4141C23.7199 17.383 27.9649 14 33 14C39.0751 14 44 18.9249 44 25Z" fill="white"/>
</svg>
