<svg width="30" height="30" viewBox="0 0 30 30" fill="none" xmlns="http://www.w3.org/2000/svg">
<path d="M12 5C10.3431 5 9 6.34315 9 8V11.0275C6.75002 11.2762 5 13.1837 5 15.5V20.5C5 22.9853 7.01472 25 9.5 25C9.98165 25 10.4456 24.9243 10.8807 24.7842C11.2266 24.9234 11.6043 25 12 25H19C22.3137 25 25 22.3137 25 19C25 17.7749 24.6312 16.6328 24 15.6827V9C24 6.79086 22.2091 5 20 5H12Z" fill="#595959"/>
<path d="M12 7C11.4477 7 11 7.44772 11 8V11.2561C12.7478 11.8738 14 13.5407 14 15.5V20.5C14 21.4251 13.7209 22.285 13.2422 23H19C21.2091 23 23 21.2091 23 19C23 17.9856 22.6224 17.0593 22 16.3542V9C22 7.89543 21.1046 7 20 7H12Z" fill="url(#paint0_linear_1988_16826)"/>
<path d="M19 9C18.4477 9 18 9.44771 18 10V17.2676C17.4022 17.6134 17 18.2597 17 19C17 20.1046 17.8954 21 19 21C20.1046 21 21 20.1046 21 19C21 18.2597 20.5978 17.6134 20 17.2676V10C20 9.44772 19.5523 9 19 9Z" fill="url(#paint1_linear_1988_16826)"/>
<path d="M14 9C13.4477 9 13 9.44772 13 10C13 10.5523 13.4477 11 14 11H15C15.5523 11 16 10.5523 16 10C16 9.44772 15.5523 9 15 9H14Z" fill="#616161"/>
<path d="M13.3785 13.2166C13.5491 13.081 13.7651 13 14 13H15C15.5523 13 16 13.4477 16 14C16 14.5523 15.5523 15 15 15H14C13.9908 15 13.9816 14.9999 13.9725 14.9996C13.9011 14.3543 13.6933 13.7501 13.3785 13.2166Z" fill="#616161"/>
<path d="M14 19C14.5523 19 15 18.5523 15 18C15 17.4477 14.5523 17 14 17V19Z" fill="#616161"/>
<path d="M10 13L10 17L12 17L9 23L9 19L7 19L10 13Z" fill="#FFC107"/>
<defs>
<linearGradient id="paint0_linear_1988_16826" x1="17.1143" y1="7" x2="17.1143" y2="23" gradientUnits="userSpaceOnUse">
<stop/>
<stop offset="1" stop-color="#333333"/>
</linearGradient>
<linearGradient id="paint1_linear_1988_16826" x1="18" y1="5" x2="18" y2="21" gradientUnits="userSpaceOnUse">
<stop stop-color="#FFC107"/>
<stop offset="0.695" stop-color="#D2B138"/>
<stop offset="1" stop-color="#1D73FA"/>
</linearGradient>
</defs>
</svg>
