<svg width="30" height="30" viewBox="0 0 30 30" fill="none" xmlns="http://www.w3.org/2000/svg">
<path fill-rule="evenodd" clip-rule="evenodd" d="M15 3C21.6274 3 27 8.37258 27 15C27 21.6274 21.6274 27 15 27C8.37258 27 3 21.6274 3 15C3 8.37258 8.37258 3 15 3ZM8.6377 22.7158C10.1262 23.9446 11.9767 24.7498 14.0049 24.9502V21.9277C12.7542 21.7497 11.6105 21.2421 10.6641 20.4941L8.6377 22.7158ZM19.3398 20.4893C18.395 21.2373 17.2539 21.7472 16.0049 21.9268V24.9492C18.0317 24.747 19.8802 23.9402 21.3672 22.7109L19.3398 20.4893ZM5.0498 16C5.25131 18.0295 6.05899 19.8806 7.29004 21.3691L9.50977 19.3408C8.76068 18.3947 8.25124 17.251 8.07227 16H5.0498ZM21.9277 16C21.7491 17.2488 21.2401 18.3898 20.4932 19.335L22.7139 21.3643C23.9427 19.8766 24.7489 18.0273 24.9502 16H21.9277ZM12.0156 19.0117C12.5949 19.4433 13.2707 19.7521 14.0049 19.9004V16.832L12.0156 19.0117ZM16.0049 19.8984C16.7374 19.749 17.4115 19.4395 17.9893 19.0078L16.0049 16.832V19.8984ZM10.1006 16C10.2495 16.7335 10.5585 17.4087 10.9902 17.9873L13.166 16H10.1006ZM19.0127 17.9814C19.4424 17.404 19.7509 16.7313 19.8994 16H16.8447L19.0127 17.9814ZM7.28809 8.63184C6.05776 10.1201 5.25124 11.9712 5.0498 14H8.07227C8.25128 12.7487 8.76042 11.6045 9.50977 10.6582L7.28809 8.63184ZM16.8379 14H19.8994C19.7507 13.2677 19.4424 12.5936 19.0117 12.0156L16.8379 14ZM20.4932 10.6641C21.2403 11.6094 21.749 12.7509 21.9277 14H24.9502C24.749 11.9737 23.9436 10.125 22.7158 8.6377L20.4932 10.6641ZM10.9912 12.0098C10.5585 12.5889 10.2497 13.2655 10.1006 14H13.1729L10.9912 12.0098ZM14.0049 10.0986C13.2716 10.2467 12.5964 10.5555 12.0176 10.9863L14.0049 13.1602V10.0986ZM16.0049 13.1602L17.9873 10.9902C17.41 10.5594 16.7366 10.2499 16.0049 10.1006V13.1602ZM16.0049 8.07227C17.254 8.25186 18.3959 8.76164 19.3408 9.50977L21.3691 7.29004C19.8818 6.05997 18.0325 5.25211 16.0049 5.0498V8.07227ZM14.0049 5.04883C11.9759 5.24928 10.1246 6.05558 8.63574 7.28516L10.665 9.50488C11.6113 8.7574 12.7546 8.24926 14.0049 8.07129V5.04883Z" fill="#FF8800"/>
</svg>
