<svg width="30" height="30" viewBox="0 0 30 30" fill="none" xmlns="http://www.w3.org/2000/svg">
<path fill-rule="evenodd" clip-rule="evenodd" d="M17.5 9H4.5L2 14V18.2929C2 18.7456 2.17986 19.1799 2.5 19.5C2.82014 19.8201 3.25435 20 3.70711 20H5.05001C5.28164 21.1411 6.29052 22 7.5 22C8.70948 22 9.71836 21.1411 9.94999 20H21.05C21.2816 21.1411 22.2905 22 23.5 22C24.7095 22 25.7184 21.1411 25.95 20H26.2929C26.7456 20 27.1799 19.8201 27.5 19.5C27.8201 19.1799 28 18.7456 28 18.2929V15L21 14L17.5 9ZM6.99998 11V14H3.99998L5.35936 11H6.99998ZM13 14V11H8.99998V14H13ZM19 14L17 11H15V14H19ZM7.5 21C8.32843 21 9 20.3284 9 19.5C9 18.6716 8.32843 18 7.5 18C6.67157 18 6 18.6716 6 19.5C6 20.3284 6.67157 21 7.5 21ZM23.5 21C24.3284 21 25 20.3284 25 19.5C25 18.6716 24.3284 18 23.5 18C22.6716 18 22 18.6716 22 19.5C22 20.3284 22.6716 21 23.5 21Z" fill="#FF8800"/>
<path opacity="0.5" d="M5.443 7.77808C5.82169 7.28739 6.40649 7 7.02633 7H14.5937C15.1058 7 15.5984 7.19646 15.97 7.54888L17.5 9H14V8H12V9H10V8H8V9H4.5L5.443 7.77808Z" fill="#FF8800"/>
</svg>
