<svg width="30" height="30" viewBox="0 0 30 30" fill="none" xmlns="http://www.w3.org/2000/svg">
<path d="M9.78042 13H20.2196C20.6506 13 21 12.6506 21 12.2196C21 12.076 20.9604 11.9352 20.8855 11.8126L15.7607 3.42664C15.5988 3.16163 15.3106 3 15 3C14.6894 3 14.4012 3.16163 14.2393 3.42664L9.1145 11.8126C9.03962 11.9352 9 12.076 9 12.2196C9 12.6506 9.3494 13 9.78042 13Z" fill="#E21F2A"/>
<path d="M20 15C20.5523 15 21 15.4477 21 16V26C21 26.5523 20.5523 27 20 27C19.9892 27 19.9785 26.9984 19.9678 26.998C19.9583 26.9983 19.9489 27 19.9395 27C19.6582 27 19.3884 26.8883 19.1895 26.6895L11 18.5V26C11 26.5523 10.5523 27 10 27C9.44772 27 9 26.5523 9 26V16C9 15.4477 9.44772 15 10 15C10.0105 15 10.0209 15.0007 10.0312 15.001C10.041 15.0007 10.0507 15 10.0605 15C10.3418 15 10.6116 15.1117 10.8105 15.3105L19 23.5V16C19 15.4477 19.4477 15 20 15Z" fill="#CCCCCC"/>
<path d="M7 14.6094C7 14.8249 6.82488 15 6.60938 15H5C5.00003 16.5637 5.36006 18.0432 6 19.3613L6 22.9316C4.19815 20.8887 3.07791 18.2299 3.00391 15.3096L3 15H1.39062C1.17512 15 1 14.8249 1 14.6094C1.00008 14.5377 1.02025 14.4674 1.05762 14.4062L3.62012 10.2129C3.70115 10.0807 3.84492 10 4 10C4.15508 10 4.29885 10.0807 4.37988 10.2129L6.94238 14.4062C6.97975 14.4674 6.99992 14.5377 7 14.6094Z" fill="url(#paint0_linear_520_10699)"/>
<path d="M23 15.3906C23 15.1751 23.1751 15 23.3906 15H24.998C24.9982 14.9792 25 14.9584 25 14.9375C25 13.3738 24.6399 11.8943 24 10.5762L24 7.00586C25.8018 9.04883 26.9221 11.7076 26.9961 14.6279L27 14.9375C27 14.9583 26.9982 14.9792 26.998 15H28.6094C28.8249 15 29 15.1751 29 15.3906C28.9999 15.4623 28.9798 15.5326 28.9424 15.5938L26.3799 19.7871C26.2988 19.9193 26.1551 20 26 20C25.8449 20 25.7012 19.9193 25.6201 19.7871L23.0576 15.5938C23.0202 15.5326 23.0001 15.4623 23 15.3906Z" fill="url(#paint1_linear_520_10699)"/>
<defs>
<linearGradient id="paint0_linear_520_10699" x1="9" y1="10" x2="9.00379" y2="27.076" gradientUnits="userSpaceOnUse">
<stop stop-color="#DBDBDE"/>
<stop offset="1" stop-color="#DBDBDE" stop-opacity="0"/>
</linearGradient>
<linearGradient id="paint1_linear_520_10699" x1="21" y1="20" x2="21" y2="2" gradientUnits="userSpaceOnUse">
<stop stop-color="#DBDBDE"/>
<stop offset="1" stop-color="#DBDBDE" stop-opacity="0"/>
</linearGradient>
</defs>
</svg>
