<svg width="375" height="90" viewBox="0 0 375 90" fill="none" xmlns="http://www.w3.org/2000/svg">
<g clip-path="url(#clip0_1775_275)">
<rect width="375" height="90" fill="white"/>
<path d="M0 0H375V90H0V0Z" fill="white"/>
<rect x="16" y="82" width="343" height="8" fill="#D7D8DB"/>
<path d="M287 20C287 14.4772 291.477 10 297 10H359V82H287V20Z" fill="#D7D8DB"/>
<path d="M287 22H359V82H287V22Z" fill="#AEB0B7"/>
<path fill-rule="evenodd" clip-rule="evenodd" d="M149 68C152.866 68 156 71.134 156 75C156 78.866 152.866 82 149 82C145.134 82 142 78.866 142 75C142 71.134 145.134 68 149 68ZM149 72C147.343 72 146 73.3431 146 75C146 76.6569 147.343 78 149 78C150.657 78 152 76.6569 152 75C152 73.3431 150.657 72 149 72Z" fill="#237BFF"/>
<path fill-rule="evenodd" clip-rule="evenodd" d="M171 68C174.866 68 178 71.134 178 75C178 78.866 174.866 82 171 82C167.134 82 164 78.866 164 75C164 71.134 167.134 68 171 68ZM171 72C169.343 72 168 73.3431 168 75C168 76.6569 169.343 78 171 78C172.657 78 174 76.6569 174 75C174 73.3431 172.657 72 171 72Z" fill="#237BFF"/>
<path fill-rule="evenodd" clip-rule="evenodd" d="M240 68C243.866 68 247 71.134 247 75C247 78.866 243.866 82 240 82C236.134 82 233 78.866 233 75C233 71.134 236.134 68 240 68ZM240 72C238.343 72 237 73.3431 237 75C237 76.6569 238.343 78 240 78C241.657 78 243 76.6569 243 75C243 73.3431 241.657 72 240 72Z" fill="#237BFF"/>
<path fill-rule="evenodd" clip-rule="evenodd" d="M222 69H225V36H243L255 52V75H249C249 70.0294 244.971 66 240 66C235.029 66 231 70.0294 231 75H180C180 70.0294 175.971 66 171 66C166.029 66 162 70.0294 162 75H158C158 70.0294 153.971 66 149 66C144.029 66 140 70.0294 140 75H132V69H135V65H132V29H222V69ZM232 52H249V50.334L240.999 40H232V52Z" fill="#237BFF"/>
<path d="M281 70C281.552 70 282 70.4477 282 71V78C282 78.5523 281.552 79 281 79C280.448 79 280 78.5523 280 78V71C280 70.4477 280.448 70 281 70Z" fill="#EE5622"/>
<path d="M281 55C281.552 55 282 55.4477 282 56V63C282 63.5523 281.552 64 281 64C280.448 64 280 63.5523 280 63V56C280 55.4477 280.448 55 281 55Z" fill="#EE5622"/>
<path d="M281 40C281.552 40 282 40.4477 282 41V48C282 48.5523 281.552 49 281 49C280.448 49 280 48.5523 280 48V41C280 40.4477 280.448 40 281 40Z" fill="#EE5622"/>
<path d="M281 25C281.552 25 282 25.4477 282 26V33C282 33.5523 281.552 34 281 34C280.448 34 280 33.5523 280 33V26C280 25.4477 280.448 25 281 25Z" fill="#EE5622"/>
<path d="M287 88H275L281 82L287 88Z" fill="#EE5622"/>
<path d="M287 16L281 22L275 16H287Z" fill="#EE5622"/>
<circle cx="50" cy="42" r="32" fill="#EE5622"/>
<circle cx="50" cy="42" r="26" fill="white"/>
<path d="M38 22L50 30L62 22H38Z" fill="black"/>
<path d="M46 32L46 40H54V32H58V52H54V44H46L46 52H42V32H46Z" fill="black"/>
<path d="M50 54L38 62H62L50 54Z" fill="black"/>
</g>
<defs>
<clipPath id="clip0_1775_275">
<rect width="375" height="90" fill="white"/>
</clipPath>
</defs>
</svg>
