<svg width="30" height="30" viewBox="0 0 30 30" fill="none" xmlns="http://www.w3.org/2000/svg">
<path opacity="0.5" d="M3 15C3 13.3431 4.34315 12 6 12H24C25.6569 12 27 13.3431 27 15C27 16.6569 25.6569 18 24 18H6C4.34315 18 3 16.6569 3 15Z" fill="#FF8800"/>
<path fill-rule="evenodd" clip-rule="evenodd" d="M6 10H24C26.7614 10 29 12.2386 29 15C29 17.7614 26.7614 20 24 20H6C3.23858 20 1 17.7614 1 15C1 12.2386 3.23858 10 6 10ZM6 12C4.34315 12 3 13.3431 3 15C3 16.6569 4.34315 18 6 18H24C25.6569 18 27 16.6569 27 15C27 13.3431 25.6569 12 24 12H6Z" fill="#FF8800"/>
</svg>
