<svg width="30" height="30" viewBox="0 0 30 30" fill="none" xmlns="http://www.w3.org/2000/svg">
<path d="M21 17C21 17.5523 21.4477 18 22 18C22.5523 18 23 17.5523 23 17V13C23 12.4477 22.5523 12 22 12C21.4477 12 21 12.4477 21 13V17Z" fill="#FF8800"/>
<path fill-rule="evenodd" clip-rule="evenodd" d="M3 8C3 6.89543 3.89543 6 5 6H25C26.1046 6 27 6.89543 27 8V22C27 23.1046 26.1046 24 25 24H5C3.89543 24 3 23.1046 3 22V8ZM13 20V18C13 17.7348 13.1054 17.4804 13.2929 17.2929L15.4645 15.1213C15.8074 14.7784 16 14.3134 16 13.8284V12.75C16 12.3358 15.6642 12 15.25 12C14.8358 12 14.5 12.3358 14.5 12.75V13.5H12.5V12.75C12.5 11.2312 13.7312 10 15.25 10C16.7688 10 18 11.2312 18 12.75V13.8284C18 14.8438 17.5966 15.8176 16.8787 16.5355L15.4142 18H18V20H13ZM22 20C20.3431 20 19 18.6569 19 17V13C19 11.3431 20.3431 10 22 10C23.6569 10 25 11.3431 25 13V17C25 18.6569 23.6569 20 22 20ZM5.41926 16H5.40451C5.1811 16 5 15.8189 5 15.5955C5 15.5327 5.01462 15.4708 5.0427 15.4146L7.6382 10.2236C7.70672 10.0866 7.84678 10 8 10C8.15322 10 8.29328 10.0866 8.3618 10.2236L10.9573 15.4146C10.9854 15.4708 11 15.5327 11 15.5955C11 15.8189 10.8189 16 10.5955 16H10.5807C10.5274 16 10.4746 15.9898 10.425 15.97L9 15.4V20H7V15.4L5.57497 15.97C5.52544 15.9898 5.4726 16 5.41926 16Z" fill="#FF8800"/>
</svg>
