<svg width="375" height="200" viewBox="0 0 375 200" fill="none" xmlns="http://www.w3.org/2000/svg">
<path fill-rule="evenodd" clip-rule="evenodd" d="M187.5 139.889C209.315 139.889 227 122.204 227 100.389C227 78.5737 209.315 60.8889 187.5 60.8889C165.685 60.8889 148 78.5737 148 100.389C148 122.204 165.685 139.889 187.5 139.889ZM187.5 143.889C211.524 143.889 231 124.413 231 100.389C231 76.3645 211.524 56.8889 187.5 56.8889C163.476 56.8889 144 76.3645 144 100.389C144 124.413 163.476 143.889 187.5 143.889Z" fill="#FFCF3D"/>
<path opacity="0.8" fill-rule="evenodd" clip-rule="evenodd" d="M187.5 187.889C235.825 187.889 275 148.714 275 100.389C275 52.064 235.825 12.8889 187.5 12.8889C139.175 12.8889 100 52.064 100 100.389C100 148.714 139.175 187.889 187.5 187.889ZM187.5 191.889C238.034 191.889 279 150.923 279 100.389C279 49.8549 238.034 8.88892 187.5 8.88892C136.966 8.88892 96 49.8549 96 100.389C96 150.923 136.966 191.889 187.5 191.889Z" fill="#FFCF3D"/>
<path d="M279.359 200H285.162C310.982 174.683 327 139.406 327 100.389C327 60.9702 310.65 25.3701 284.363 0H278.509C305.837 24.7901 323 60.5852 323 100.389C323 139.778 306.193 175.242 279.359 200Z" fill="#FFCF3D" fill-opacity="0.6"/>
<path d="M89.8379 200H95.641C68.8071 175.242 52 139.778 52 100.389C52 60.5852 69.1626 24.7901 96.4913 0H90.6374C64.3496 25.3701 48 60.9702 48 100.389C48 139.406 64.0185 174.683 89.8379 200Z" fill="#FFCF3D" fill-opacity="0.6"/>
<path d="M341.636 200H346.381C364.513 171.139 375 136.989 375 100.389C375 63.4597 364.324 29.024 345.89 0H341.129C360.017 28.846 371 63.3349 371 100.389C371 137.11 360.213 171.313 341.636 200Z" fill="#FFCF3D" fill-opacity="0.2"/>
<path d="M28.619 200H33.364C14.7865 171.313 4 137.11 4 100.389C4 63.3349 14.9827 28.846 33.8705 0H29.1104C10.6761 29.024 0 63.4597 0 100.389C0 136.989 10.4866 171.139 28.619 200Z" fill="#FFCF3D" fill-opacity="0.2"/>
<path d="M175 86C175 82.6863 177.686 80 181 80H195C198.314 80 201 82.6863 201 86V106C201 113.18 195.18 119 188 119C180.82 119 175 113.18 175 106V86Z" fill="#5714CC"/>
<path opacity="0.5" d="M186 104C186 102.895 186.895 102 188 102C189.105 102 190 102.895 190 104V109C190 110.105 189.105 111 188 111C186.895 111 186 110.105 186 109V104Z" fill="#F2F2F3"/>
<path d="M184 92C184 89.7909 185.791 88 188 88C190.209 88 192 89.7909 192 92C192 94.2091 190.209 96 188 96C185.791 96 184 94.2091 184 92Z" fill="#F2F2F3"/>
</svg>
