<svg width="30" height="30" viewBox="0 0 30 30" fill="none" xmlns="http://www.w3.org/2000/svg">
<path opacity="0.15" d="M3 8C3 5.23858 5.23858 3 8 3H22C24.7614 3 27 5.23858 27 8V22C27 24.7614 24.7614 27 22 27H8C5.23858 27 3 24.7614 3 22V8Z" fill="black"/>
<path d="M4 8C4 5.79086 5.79086 4 8 4H22C24.2091 4 26 5.79086 26 8V22C26 24.2091 24.2091 26 22 26H8C5.79086 26 4 24.2091 4 22V8Z" fill="white"/>
<path fill-rule="evenodd" clip-rule="evenodd" d="M8 5H22C23.6569 5 25 6.34315 25 8V22C25 23.6569 23.6569 25 22 25H8C6.34315 25 5 23.6569 5 22V8C5 6.34315 6.34315 5 8 5ZM8 7C7.44772 7 7 7.44772 7 8V22C7 22.5523 7.44772 23 8 23H22C22.5523 23 23 22.5523 23 22V8C23 7.44772 22.5523 7 22 7H8Z" fill="black"/>
<path d="M10 11H14V12L12 19H11L13 12H10V11Z" fill="black"/>
<path fill-rule="evenodd" clip-rule="evenodd" d="M20 17V13C20 11.8954 19.1046 11 18 11C16.8954 11 16 11.8954 16 13V17C16 18.1046 16.8954 19 18 19C19.1046 19 20 18.1046 20 17ZM19 13V17C19 17.5523 18.5523 18 18 18C17.4477 18 17 17.5523 17 17V13C17 12.4477 17.4477 12 18 12C18.5523 12 19 12.4477 19 13Z" fill="black"/>
</svg>
