<svg width="30" height="30" viewBox="0 0 30 30" fill="none" xmlns="http://www.w3.org/2000/svg">
<path fill-rule="evenodd" clip-rule="evenodd" d="M26.7071 4.70711C27.0976 4.31658 27.0976 3.68342 26.7071 3.29289C26.3166 2.90237 25.6834 2.90237 25.2929 3.29289L21.1672 7.41856C19.3325 6.56797 17.2609 6 15 6C6 6 0 15 0 15C0 15 2.61886 18.9283 6.99148 21.5943L3.29289 25.2929C2.90237 25.6834 2.90237 26.3166 3.29289 26.7071C3.68342 27.0976 4.31658 27.0976 4.70711 26.7071L26.7071 4.70711ZM10.1093 18.4765L12.2924 16.2934C12.105 15.9018 12 15.4631 12 15C12 13.3431 13.3431 12 15 12C15.4631 12 15.9018 12.105 16.2934 12.2924L18.4765 10.1093C17.4957 9.41079 16.2958 9 15 9C11.6863 9 9 11.6863 9 15C9 16.2958 9.41079 17.4957 10.1093 18.4765Z" fill="#FF8800"/>
<path d="M15 21C14.6329 21 14.2735 20.967 13.9245 20.9039L11.3288 23.4997C12.4852 23.8156 13.7119 24 15 24C24 24 30 15 30 15C30 15 28.1735 12.2603 25.0244 9.80403L20.9039 13.9245C20.967 14.2735 21 14.6329 21 15C21 18.3137 18.3137 21 15 21Z" fill="#FF8800"/>
</svg>
