<svg width="30" height="30" viewBox="0 0 30 30" fill="none" xmlns="http://www.w3.org/2000/svg">
<path d="M15 5C14.4477 5 14 5.44772 14 6V7C14 7.55228 14.4477 8 15 8C15.5523 8 16 7.55228 16 7V6C16 5.44772 15.5523 5 15 5Z" fill="#FF8800"/>
<path d="M7 16C7 15.4477 6.55228 15 6 15H5C4.44772 15 4 15.4477 4 16C4 16.5523 4.44772 17 5 17H6C6.55228 17 7 16.5523 7 16Z" fill="#FF8800"/>
<path d="M26 16C26 16.5523 25.5523 17 25 17H24C23.4477 17 23 16.5523 23 16C23 15.4477 23.4477 15 24 15H25C25.5523 15 26 15.4477 26 16Z" fill="#FF8800"/>
<path d="M20.9969 16.1952C20.982 16.6621 20.5749 17 20.1077 17H19.8846C19.3727 17 19 16.5119 19 16C19 13.7909 17.2091 12 15 12C12.7909 12 11 13.7909 11 16C11 16.5119 10.6273 17 10.1154 17H9.89228C9.42514 17 9.01804 16.6621 9.00312 16.1952C9.00104 16.1304 9 16.0653 9 16C9 12.6863 11.6863 10 15 10C18.3137 10 21 12.6863 21 16C21 16.0653 20.999 16.1304 20.9969 16.1952Z" fill="#FF8800"/>
<path d="M9.34319 8.92893C9.73371 9.31945 9.73371 9.95261 9.34319 10.3431C8.95266 10.7337 8.3195 10.7337 7.92897 10.3431L7.22187 9.63603C6.83134 9.24551 6.83134 8.61234 7.22187 8.22182C7.61239 7.83129 8.24556 7.83129 8.63608 8.22182L9.34319 8.92893Z" fill="#FF8800"/>
<path d="M20.6568 10.3431C20.2663 9.95261 20.2663 9.31945 20.6568 8.92893L21.3639 8.22182C21.7544 7.83129 22.3876 7.83129 22.7781 8.22182C23.1687 8.61234 23.1687 9.24551 22.7781 9.63603L22.071 10.3431C21.6805 10.7337 21.0473 10.7337 20.6568 10.3431Z" fill="#FF8800"/>
<path d="M4 19C3.44772 19 3 19.4477 3 20C3 20.5523 3.44772 21 4 21H26C26.5523 21 27 20.5523 27 20C27 19.4477 26.5523 19 26 19H4Z" fill="#FF8800"/>
<path opacity="0.6" d="M5 24C5 23.4477 5.44772 23 6 23H24C24.5523 23 25 23.4477 25 24C25 24.5523 24.5523 25 24 25H6C5.44772 25 5 24.5523 5 24Z" fill="#FF8800"/>
</svg>
