<svg width="50" height="50" viewBox="0 0 50 50" fill="none" xmlns="http://www.w3.org/2000/svg">
<path d="M30.5327 5.50385C31.4533 4.89014 32.6369 4.83292 33.6124 5.35498C34.5879 5.87704 35.1968 6.89362 35.1968 8V45H29.1968V13.6056L22.1347 18.3136L25.6065 21.636C25.6664 21.6933 25.7179 21.7589 25.7594 21.8307L25.7923 21.8878C26.0157 22.2748 25.8832 22.7696 25.4962 22.993C25.3875 23.0558 25.2656 23.0924 25.1402 23.0999L6.8575 24.1973C6.55161 24.2157 6.26161 24.0596 6.10839 23.7942C5.95518 23.5289 5.96505 23.1997 6.13389 22.944L16.2256 7.65939C16.2948 7.55458 16.3875 7.46732 16.4962 7.40452C16.8832 7.18111 17.378 7.31369 17.6014 7.70064L17.6344 7.75778C17.6758 7.82959 17.7068 7.90692 17.7265 7.98746L18.9993 13.1928L30.5327 5.50385Z" fill="black"/>
</svg>
