<svg width="30" height="30" viewBox="0 0 30 30" fill="none" xmlns="http://www.w3.org/2000/svg">
<path d="M7 21.8818L14 25.3818V12.6182L7 9.11817V21.8818ZM16 12.6182V25.3818L23 21.8818V9.11817L16 12.6182ZM8.23633 7.50001L15 10.8818L21.7637 7.50001L15 4.11817L8.23633 7.50001ZM25 22.5C25 22.8788 24.786 23.2251 24.4473 23.3945L15.4473 27.8945C15.1657 28.0353 14.8343 28.0353 14.5527 27.8945L5.55273 23.3945C5.21395 23.2251 5 22.8788 5 22.5V7.50001C5 7.12124 5.21395 6.77487 5.55273 6.60548L14.5527 2.10548L14.6602 2.05958C14.9161 1.96706 15.2008 1.98225 15.4473 2.10548L24.4473 6.60548C24.786 6.77487 25 7.12124 25 7.50001V22.5Z" fill="#FF8800"/>
</svg>
