<svg width="20" height="20" viewBox="0 0 20 20" fill="none" xmlns="http://www.w3.org/2000/svg">
<path d="M12 13C12.5523 13 13 13.4477 13 14V15C13 15.5523 12.5523 16 12 16H8C7.44773 16 7.00002 15.5523 7 15V14C7 13.4477 7.44772 13 8 13H12Z" fill="#FF8800"/>
<path fill-rule="evenodd" clip-rule="evenodd" d="M10.5 1.99998C11.3284 1.99998 12 2.67156 12 3.49998V3.99998H13L13.2041 4.01073C14.2128 4.11299 15 4.96434 15 5.99998V16C15 17.1045 14.1046 18 13 18H7C5.89544 18 5.00002 17.1045 5 16V5.99998C5 4.89541 5.89543 3.99998 7 3.99998H8V3.49998C8 2.67156 8.67157 1.99998 9.5 1.99998H10.5ZM14 8.72948C13.7055 8.9001 13.3648 8.99998 13 8.99998H7C6.63519 8.99998 6.29446 8.9001 6 8.72948V16L6.00488 16.1025C6.05623 16.6066 6.48233 17 7 17H13C13.5523 17 14 16.5523 14 16V8.72948ZM7 4.99998C6.44772 4.99998 6 5.4477 6 5.99998V6.99998L6.00488 7.10252C6.05623 7.60664 6.48233 7.99998 7 7.99998H13C13.5523 7.99998 14 7.55226 14 6.99998V5.99998C14 5.4477 13.5523 4.99998 13 4.99998H7ZM9.5 2.99998C9.22386 2.99998 9 3.22384 9 3.49998V3.99998H11V3.49998C11 3.25827 10.8285 3.05628 10.6006 3.00975L10.5 2.99998H9.5Z" fill="#FF8800"/>
</svg>
