<svg width="20" height="20" viewBox="0 0 20 20" fill="none" xmlns="http://www.w3.org/2000/svg">
<path d="M4.49976 10.0001C4.22361 10.0001 3.99976 9.7762 3.99976 9.50006V7.50006C3.99979 7.22395 4.22363 7.00006 4.49976 7.00006H15.4998C15.7757 7.00023 15.9997 7.22405 15.9998 7.50006V9.50006C15.9998 9.7761 15.7758 9.9999 15.4998 10.0001H4.49976Z" fill="#FF8800"/>
<path fill-rule="evenodd" clip-rule="evenodd" d="M3.99976 15.0001C2.89519 15.0001 1.99976 14.1046 1.99976 13.0001V7.00006C1.99979 5.89552 2.89521 5.00006 3.99976 5.00006H15.9998C17.1042 5.00023 17.9997 5.89562 17.9998 7.00006V13.0001C17.9998 14.1045 17.1042 14.9999 15.9998 15.0001H3.99976ZM16.9998 7.00006C16.9997 6.44791 16.5519 6.00023 15.9998 6.00006H3.99976C3.44749 6.00006 2.99979 6.4478 2.99976 7.00006V13.0001C2.99976 13.5177 3.39309 13.9438 3.89722 13.9952L3.99976 14.0001H15.9998C16.5519 13.9999 16.9998 13.5522 16.9998 13.0001V7.00006Z" fill="#FF8800"/>
</svg>
