<svg width="30" height="30" viewBox="0 0 30 30" fill="none" xmlns="http://www.w3.org/2000/svg">
<path d="M15 7C10.7244 7 7.2322 10.3541 7.01111 14.5747L8.29289 13.2929C8.68342 12.9024 9.31658 12.9024 9.70711 13.2929C10.0976 13.6834 10.0976 14.3166 9.70711 14.7071L6.70711 17.7071C6.31658 18.0976 5.68342 18.0976 5.29289 17.7071L2.29289 14.7071C1.90237 14.3166 1.90237 13.6834 2.29289 13.2929C2.68342 12.9024 3.31658 12.9024 3.70711 13.2929L5.0081 14.5939C5.22117 9.25933 9.61318 5 15 5C18.1476 5 21.1115 6.48194 23 9L23.3 9.4C23.6314 9.84183 23.5418 10.4686 23.1 10.8C22.6582 11.1314 22.0314 11.0418 21.7 10.6L21.4 10.2C19.8892 8.18555 17.5181 7 15 7Z" fill="#FF8800"/>
<path d="M15 23C19.089 23 22.4615 19.9322 22.9415 15.9728L21.7071 17.2071C21.3166 17.5976 20.6834 17.5976 20.2929 17.2071C19.9024 16.8166 19.9024 16.1834 20.2929 15.7929L23.2929 12.7929C23.6834 12.4024 24.3166 12.4024 24.7071 12.7929L27.7071 15.7929C28.0976 16.1834 28.0976 16.8166 27.7071 17.2071C27.3166 17.5976 26.6834 17.5976 26.2929 17.2071L24.9621 15.8763C24.5183 20.9888 20.2276 25 15 25C11.8524 25 8.88854 23.5181 7 21L6.7 20.6C6.36863 20.1582 6.45817 19.5314 6.9 19.2C7.34183 18.8686 7.96863 18.9582 8.3 19.4L8.6 19.8C10.1108 21.8144 12.4819 23 15 23Z" fill="#FF8800"/>
</svg>
