<svg width="30" height="30" viewBox="0 0 30 30" fill="none" xmlns="http://www.w3.org/2000/svg">
<path d="M17.8025 5.39893C17.6604 5.35749 17.5173 5.31916 17.3735 5.284L17.3095 5.14801C16.9795 4.44724 16.2746 4 15.5 4H14.5C13.7254 4 13.0205 4.44724 12.6905 5.14801L12.6265 5.28398C12.4827 5.31915 12.3396 5.3575 12.1975 5.39895L12.074 5.3132C11.4379 4.8713 10.6038 4.83644 9.93297 5.22372L9.06695 5.72372C8.39616 6.111 8.0093 6.85078 8.07392 7.62264L8.08646 7.7724C7.9795 7.87476 7.87474 7.97953 7.77236 8.0865L7.62257 8.07396C6.8507 8.00933 6.11092 8.39619 5.72364 9.06699L5.22364 9.93301C4.83636 10.6038 4.87121 11.4379 5.31311 12.074L5.3989 12.1975C5.35743 12.3397 5.31909 12.4828 5.28392 12.6266L5.14801 12.6905C4.44724 13.0205 4 13.7254 4 14.5V15.5C4 16.2746 4.44724 16.9795 5.148 17.3094L5.28395 17.3735C5.31912 17.5173 5.35746 17.6604 5.39892 17.8025L5.31316 17.926C4.87126 18.5621 4.8364 19.3962 5.22368 20.067L5.72368 20.933C5.73675 20.9556 5.75022 20.978 5.76407 20.9999C5.28893 21.5307 5 22.2317 5 23.0001C5 24.657 6.34315 26.0001 8 26.0001H15L15.0284 26H15.5C16.2135 26 16.8678 25.6205 17.2245 25.013C17.3166 24.9113 17.4019 24.8032 17.4795 24.6895C17.5876 24.6618 17.6953 24.6323 17.8025 24.6011L17.9259 24.6868C18.1567 24.8471 18.4135 24.9539 18.6791 25.0063C19.4508 25.6279 20.432 26 21.5 26C23.9853 26 26 23.9853 26 21.5V16.5C26 16.2959 25.9864 16.0949 25.9601 15.898C25.9863 15.7685 26 15.6353 26 15.5V14.5C26 13.7254 25.5528 13.0205 24.852 12.6905L24.716 12.6265C24.6808 12.4827 24.6425 12.3396 24.601 12.1975L24.6868 12.074C25.1287 11.4379 25.1635 10.6038 24.7762 9.93301L24.2762 9.06699C23.889 8.3962 23.1492 8.00933 22.3773 8.07396L22.2275 8.08651C22.1251 7.97953 22.0204 7.87477 21.9134 7.7724L21.926 7.62265C21.9906 6.85079 21.6037 6.111 20.9329 5.72372L20.0669 5.22372C19.3961 4.83644 18.562 4.8713 17.9259 5.3132L17.8025 5.39893Z" fill="#404040"/>
<path fill-rule="evenodd" clip-rule="evenodd" d="M19.0669 6.95577L18.1042 7.62455C17.4375 7.34361 16.7177 7.1507 15.9994 7.06059L15.5 6H14.5L14.0006 7.06057C13.2826 7.15064 12.5628 7.34349 11.8958 7.62458L10.933 6.95577L10.0669 7.45577L10.1648 8.62392C9.58809 9.06083 9.06113 9.58772 8.6239 10.1648L7.45569 10.067L6.95569 10.933L7.62454 11.8959C7.3432 12.5635 7.15047 13.2833 7.06049 14.0007L6 14.5V15.5L7.06053 15.9994C7.15056 16.7171 7.34336 17.4369 7.62455 18.1042L6.95573 19.067L7.45573 19.933L8.62387 19.8352C8.66588 19.8907 8.70872 19.9456 8.75236 20.0001H9.387L11.7228 13.7712C12.4016 11.9613 14.419 11.0443 16.2289 11.723C17.1102 12.0535 17.7798 12.7013 18.1565 13.4881C18.9802 12.5744 20.173 12 21.5 12C21.8291 12 22.15 12.0353 22.459 12.1024C22.4321 12.033 22.4042 11.9641 22.3754 11.8957L23.0442 10.933L22.5442 10.067L21.376 10.1648C20.9388 9.58774 20.4118 9.06083 19.8351 8.62392L19.9329 7.45577L19.0669 6.95577ZM16 9.00001C16 9.55229 15.5523 10 15 10C14.4477 10 14 9.55229 14 9.00001C14 8.44772 14.4477 8.00001 15 8.00001C15.5523 8.00001 16 8.44772 16 9.00001ZM8 15C8 15.5523 8.44772 16 9 16C9.55228 16 10 15.5523 10 15C10 14.4477 9.55228 14 9 14C8.44772 14 8 14.4477 8 15ZM12 11C12 11.5523 11.5523 12 11 12C10.4477 12 10 11.5523 10 11C10 10.4477 10.4477 10 11 10C11.5523 10 12 10.4477 12 11ZM19 12C19.5523 12 20 11.5523 20 11C20 10.4477 19.5523 10 19 10C18.4477 10 18 10.4477 18 11C18 11.5523 18.4477 12 19 12Z" fill="url(#paint0_linear_1988_16822)"/>
<path d="M17 20.764V19.6348L16.6722 20.509C16.7874 20.5865 16.8969 20.6717 17 20.764Z" fill="url(#paint1_linear_1988_16822)"/>
<path d="M16.4044 15.5267C16.6953 14.751 16.3023 13.8864 15.5266 13.5955C14.751 13.3046 13.8863 13.6976 13.5955 14.4733L10.7729 22H13.977L16.4044 15.5267Z" fill="url(#paint2_linear_1988_16822)"/>
<path d="M7 23C7 22.4477 7.44772 22 8 22H15C15.5523 22 16 22.4477 16 23C16 23.5523 15.5523 24 15 24H8C7.44772 24 7 23.5523 7 23Z" fill="#B7B7B7"/>
<path d="M22 14L22 18L24 18L21 24L21 20L19 20L22 14Z" fill="#FFC107"/>
<defs>
<linearGradient id="paint0_linear_1988_16822" x1="15" y1="6" x2="15" y2="24" gradientUnits="userSpaceOnUse">
<stop stop-color="white"/>
<stop offset="1" stop-color="#E6E6E6"/>
</linearGradient>
<linearGradient id="paint1_linear_1988_16822" x1="15" y1="6" x2="15" y2="24" gradientUnits="userSpaceOnUse">
<stop stop-color="white"/>
<stop offset="1" stop-color="#E6E6E6"/>
</linearGradient>
<linearGradient id="paint2_linear_1988_16822" x1="15" y1="15" x2="12" y2="23" gradientUnits="userSpaceOnUse">
<stop stop-color="#E2E2E2"/>
<stop offset="1" stop-color="#848484"/>
</linearGradient>
</defs>
</svg>
