<svg width="30" height="30" viewBox="0 0 30 30" fill="none" xmlns="http://www.w3.org/2000/svg">
<path d="M12.5 19.5C12.7761 19.5 13 19.2762 13 19V13C13 12.7978 12.8782 12.6155 12.6913 12.5381C12.5045 12.4607 12.2894 12.5035 12.1464 12.6465L10.6464 14.1465C10.4512 14.3417 10.4512 14.6583 10.6464 14.8536C10.8417 15.0488 11.1583 15.0488 11.3536 14.8536L12 14.2071V19C12 19.2762 12.2239 19.5 12.5 19.5Z" fill="#FF8800"/>
<path fill-rule="evenodd" clip-rule="evenodd" d="M8 5C7.44772 5 7 5.44772 7 6V7C5.34315 7 4 8.34314 4 10V20C4 21.6569 5.34314 23 7 23H17C18.6569 23 20 21.6569 20 20V10C20 8.34315 18.6569 7 17 7V6C17 5.44772 16.5523 5 16 5C15.4477 5 15 5.44772 15 6V7H9V6C9 5.44772 8.55228 5 8 5ZM6 12V20C6 20.5523 6.44772 21 7 21H17C17.5523 21 18 20.5523 18 20V12C18 11.4477 17.5523 11 17 11H7C6.44772 11 6 11.4477 6 12Z" fill="#FF8800"/>
<path d="M25 8C25 7.44772 24.5523 7 24 7C23.4477 7 23 7.44772 23 8V22C23 22.4045 23.2436 22.7691 23.6173 22.9239C23.991 23.0787 24.4211 22.9931 24.7071 22.7071L27.7071 19.7071C28.0976 19.3166 28.0976 18.6834 27.7071 18.2929C27.3166 17.9024 26.6834 17.9024 26.2929 18.2929L25 19.5858V8Z" fill="#FF8800"/>
</svg>
