<svg width="30" height="30" viewBox="0 0 30 30" fill="none" xmlns="http://www.w3.org/2000/svg">
<path fill-rule="evenodd" clip-rule="evenodd" d="M20 2C21.6569 2 23 3.34315 23 5V25C23 26.6569 21.6569 28 20 28H10C8.34315 28 7 26.6569 7 25V5C7 3.34315 8.34314 2 10 2H20ZM20 26H10C9.45761 25.9742 9 25.5649 9 25V5C9 4.44772 9.44772 4 10 4H20C20.5523 4 21 4.44772 21 5V25C21 25.5649 20.5424 25.9742 20 26Z" fill="#FF8800"/>
<path d="M13 5.5C13 5.22386 13.2239 5 13.5 5H16.5C16.7761 5 17 5.22386 17 5.5C17 5.77614 16.7761 6 16.5 6H13.5C13.2239 6 13 5.77614 13 5.5Z" fill="#FF8800"/>
<g opacity="0.5">
<path d="M21 25C21 25.5523 20.5523 26 20 26H10C9.44772 26 9 25.5523 9 25V23H21V25Z" fill="#FF8800"/>
<path d="M21 11H16.5C16.2239 11 16 10.7761 16 10.5V9.5C16 9.22386 16.2239 9 16.5 9H21V11Z" fill="#FF8800"/>
<path d="M20 4C20.5523 4 21 4.44772 21 5V8H9V5C9 4.44772 9.44772 4 10 4H20Z" fill="#FF8800"/>
</g>
<path d="M11.5 20C11.7761 20 12 20.2239 12 20.5V21.5C12 21.7761 11.7761 22 11.5 22H10.5C10.2239 22 10 21.7761 10 21.5V20.5C10 20.2239 10.2239 20 10.5 20H11.5Z" fill="#FF8800"/>
<path d="M16 20C16.5523 20 17 20.4477 17 21C17 21.5523 16.5523 22 16 22C15.4477 22 15 21.5523 15 21C15 20.4477 15.4477 20 16 20Z" fill="#FF8800"/>
<path d="M19 20C19.5523 20 20 20.4477 20 21C20 21.5523 19.5523 22 19 22C18.4477 22 18 21.5523 18 21C18 20.4477 18.4477 20 19 20Z" fill="#FF8800"/>
<path d="M19 17C19.5523 17 20 17.4477 20 18C20 18.5523 19.5523 19 19 19C18.4477 19 18 18.5523 18 18C18 17.4477 18.4477 17 19 17Z" fill="#FF8800"/>
<path d="M11 9C11.5523 9 12 9.44772 12 10C12 10.5523 11.5523 11 11 11C10.4477 11 10 10.5523 10 10C10 9.44772 10.4477 9 11 9Z" fill="#FF8800"/>
<path d="M14 9C14.5523 9 15 9.44772 15 10C15 10.5523 14.5523 11 14 11C13.4477 11 13 10.5523 13 10C13 9.44772 13.4477 9 14 9Z" fill="#FF8800"/>
</svg>
