<svg width="30" height="31" viewBox="0 0 30 31" fill="none" xmlns="http://www.w3.org/2000/svg">
<g id="ic_custom_done">
<path id="Subtract" fill-rule="evenodd" clip-rule="evenodd" d="M15 27.5C8.37258 27.5 3 22.1274 3 15.5C3 8.87258 8.37258 3.5 15 3.5C21.6274 3.5 27 8.87258 27 15.5C27 22.1274 21.6274 27.5 15 27.5ZM21.7071 13.2071C22.0976 12.8166 22.0976 12.1834 21.7071 11.7929C21.3166 11.4024 20.6834 11.4024 20.2929 11.7929L14 18.0858L10.7071 14.7929C10.3166 14.4024 9.68342 14.4024 9.29289 14.7929C8.90237 15.1834 8.90237 15.8166 9.29289 16.2071L13.2929 20.2071C13.6834 20.5976 14.3166 20.5976 14.7071 20.2071L21.7071 13.2071Z" fill="#5714CC"/>
</g>
</svg>
