<svg width="30" height="30" viewBox="0 0 30 30" fill="none" xmlns="http://www.w3.org/2000/svg">
<circle opacity="0.2" cx="15" cy="15" r="15" fill="black"/>
<circle cx="15" cy="15" r="14" fill="white"/>
<path d="M15 16.5C15.8284 16.5 16.5 15.8284 16.5 15C16.5 14.1716 15.8284 13.5 15 13.5C14.1716 13.5 13.5 14.1716 13.5 15C13.5 15.8284 14.1716 16.5 15 16.5Z" fill="#5714CC"/>
<path fill-rule="evenodd" clip-rule="evenodd" d="M15 7C15.5523 7 16 7.44772 16 8V9.08304C18.5125 9.50456 20.4955 11.4875 20.917 14H22C22.5523 14 23 14.4477 23 15C23 15.5523 22.5523 16 22 16H20.917C20.4956 18.5125 18.5125 20.4956 16 20.9171V22C16 22.5523 15.5523 23 15 23C14.4477 23 14 22.5523 14 22V20.9171C11.4875 20.4956 9.50442 18.5125 9.08293 16H8C7.44771 16 7 15.5523 7 15C7 14.4477 7.44771 14 8 14H9.08296C9.50451 11.4875 11.4875 9.50455 14 9.08304V8C14 7.44772 14.4477 7 15 7ZM15 19.0001C17.2091 19.0001 19 17.2092 19 15.0001C19 12.7909 17.2091 11.0001 15 11.0001C12.7909 11.0001 11 12.7909 11 15.0001C11 17.2092 12.7909 19.0001 15 19.0001Z" fill="#5714CC"/>
</svg>
