<svg width="30" height="30" viewBox="0 0 30 30" fill="none" xmlns="http://www.w3.org/2000/svg">
<path fill-rule="evenodd" clip-rule="evenodd" d="M7 5C7 3.34315 8.34315 2 10 2H20C21.6569 2 23 3.34315 23 5V25C23 26.6569 21.6569 28 20 28H10C8.34315 28 7 26.6569 7 25V5ZM9 5C9 4.44772 9.44772 4 10 4H11V5C11 5.55228 11.4477 6 12 6H18C18.5523 6 19 5.55228 19 5V4H20C20.5523 4 21 4.44772 21 5V25C21 25.5523 20.5523 26 20 26H10C9.44772 26 9 25.5523 9 25V5Z" fill="#FF8800"/>
<path opacity="0.2" d="M10 4C9.44772 4 9 4.44772 9 5V25C9 25.5523 9.44772 26 10 26H20C20.5523 26 21 25.5523 21 25V5C21 4.44772 20.5523 4 20 4H19V5C19 5.55228 18.5523 6 18 6H12C11.4477 6 11 5.55228 11 5V4H10Z" fill="#FF8800"/>
<path opacity="0.5" d="M11 24.5C11 24.2239 11.2239 24 11.5 24H18.5C18.7761 24 19 24.2239 19 24.5C19 24.7761 18.7761 25 18.5 25H11.5C11.2239 25 11 24.7761 11 24.5Z" fill="#FF8800"/>
</svg>
