<svg width="30" height="30" viewBox="0 0 30 30" fill="none" xmlns="http://www.w3.org/2000/svg">
<path d="M7 15C7 12.0388 8.60879 9.45347 11 8.07024V9.00003C11 14.5229 15.4772 19 21 19H21.9297C20.5465 21.3912 17.9611 23 15 23C10.5817 23 7 19.4183 7 15Z" fill="#FF8800"/>
<path fill-rule="evenodd" clip-rule="evenodd" d="M27 15C27 21.6274 21.6274 27 15 27C8.37258 27 3 21.6274 3 15C3 8.37258 8.37258 3 15 3C21.6274 3 27 8.37258 27 15ZM25 15C25 20.5228 20.5228 25 15 25C9.47715 25 5 20.5228 5 15C5 9.47715 9.47715 5 15 5C20.5228 5 25 9.47715 25 15Z" fill="#FF8800"/>
</svg>
