<svg width="30" height="30" viewBox="0 0 30 30" fill="none" xmlns="http://www.w3.org/2000/svg">
<g id="ic_custom_trip_hide">
<g id="Union">
<path fill-rule="evenodd" clip-rule="evenodd" d="M4.70711 26.7071L26.7071 4.70711C27.0976 4.31658 27.0976 3.68342 26.7071 3.29289C26.3166 2.90237 25.6834 2.90237 25.2929 3.29289L22.8163 5.76944C21.8992 4.68706 20.5298 4 19 4C16.2386 4 14 6.23858 14 9V14.5858L8 20.5858V10.874C9.72523 10.4299 11 8.86384 11 7C11 4.79086 9.20914 3 7 3C4.79086 3 3 4.79086 3 7C3 8.86384 4.27477 10.4299 6 10.874V21C6 21.4823 6.0683 21.9487 6.19576 22.39L3.29289 25.2929C2.90237 25.6834 2.90237 26.3166 3.29289 26.7071C3.68342 27.0976 4.31658 27.0976 4.70711 26.7071ZM21.394 7.19177C20.8463 6.46778 19.9778 6 19 6C17.3431 6 16 7.34315 16 9V12.5858L21.394 7.19177ZM7 9C8.10457 9 9 8.10457 9 7C9 5.89543 8.10457 5 7 5C5.89543 5 5 5.89543 5 7C5 8.10457 5.89543 9 7 9Z" fill="#5714CC"/>
<path d="M14 20.8284L16 18.8284V21C16 23.7614 13.7614 26 11 26C10.3551 26 9.73879 25.8779 9.17281 25.6556L10.833 23.9954C10.8883 23.9985 10.944 24 11 24C12.6569 24 14 22.6569 14 21V20.8284Z" fill="#5714CC"/>
<path fill-rule="evenodd" clip-rule="evenodd" d="M24 10.8284L22 12.8284V19.126C20.2748 19.5701 19 21.1362 19 23C19 25.2091 20.7909 27 23 27C25.2091 27 27 25.2091 27 23C27 21.1362 25.7252 19.5701 24 19.126V10.8284ZM23 25C24.1046 25 25 24.1046 25 23C25 21.8954 24.1046 21 23 21C21.8954 21 21 21.8954 21 23C21 24.1046 21.8954 25 23 25Z" fill="#5714CC"/>
</g>
</g>
</svg>
