<svg width="30" height="30" viewBox="0 0 30 30" fill="none" xmlns="http://www.w3.org/2000/svg">
<path d="M15 5C9.48 5 5 9.48 5 15C5 20.52 9.48 25 15 25H19C19.5523 25 20 24.5523 20 24C20 23.4477 19.5523 23 19 23H15C10.66 23 7 19.34 7 15C7 10.66 10.66 7 15 7C19.34 7 23 10.66 23 15V16.43C23 17.22 22.29 18 21.5 18C20.71 18 20 17.22 20 16.43V15C20 12.24 17.76 10 15 10C12.24 10 10 12.24 10 15C10 17.76 12.24 20 15 20C16.38 20 17.64 19.44 18.54 18.53C19.19 19.42 20.31 20 21.5 20C23.47 20 25 18.4 25 16.43V15C25 9.48 20.52 5 15 5ZM15 18C13.34 18 12 16.66 12 15C12 13.34 13.34 12 15 12C16.66 12 18 13.34 18 15C18 16.66 16.66 18 15 18Z" fill="#FF8800"/>
</svg>
