<svg width="211" height="73" viewBox="0 0 211 73" fill="none" xmlns="http://www.w3.org/2000/svg">
<path fill-rule="evenodd" clip-rule="evenodd" d="M118.583 21.9V19.14C118.023 20.06 117.263 20.8 116.303 21.36C115.363 21.92 114.333 22.2 113.213 22.2C112.133 22.2 111.133 21.99 110.213 21.57C109.313 21.13 108.523 20.53 107.843 19.77C107.183 19.01 106.663 18.15 106.283 17.19C105.923 16.21 105.743 15.18 105.743 14.1C105.743 12.62 106.043 11.27 106.643 10.05C107.263 8.81 108.103 7.82 109.163 7.08C110.243 6.34 111.463 5.97 112.823 5.97C114.103 5.97 115.223 6.3 116.183 6.96C117.163 7.62 117.963 8.42 118.583 9.36V0H121.223V21.9H118.583ZM118.583 11.91C118.343 11.21 117.953 10.59 117.413 10.05C116.873 9.49 116.263 9.05 115.583 8.73C114.923 8.41 114.253 8.25 113.573 8.25C112.813 8.25 112.113 8.42 111.473 8.76C110.853 9.08 110.313 9.52 109.853 10.08C109.413 10.64 109.073 11.27 108.833 11.97C108.593 12.67 108.473 13.39 108.473 14.13C108.473 14.91 108.603 15.65 108.863 16.35C109.143 17.05 109.523 17.67 110.003 18.21C110.503 18.75 111.073 19.17 111.713 19.47C112.373 19.77 113.083 19.92 113.843 19.92C114.323 19.92 114.823 19.83 115.343 19.65C115.863 19.47 116.353 19.22 116.813 18.9C117.273 18.58 117.663 18.21 117.983 17.79C118.303 17.35 118.503 16.89 118.583 16.41V11.91ZM150.531 7.92001V21.9H154.671V0.600006H150.261L143.901 12.72L137.601 0.600006H133.161V21.9H137.301V7.92001L142.761 18.33H145.071L150.531 7.92001ZM197.379 21.54C198.599 21.98 199.879 22.2 201.219 22.2C203.139 22.2 204.669 21.76 205.809 20.88C206.949 20 207.519 18.78 207.519 17.22C207.519 16.26 207.299 15.51 206.859 14.97C206.419 14.41 205.759 13.94 204.879 13.56C204.019 13.18 202.959 12.81 201.699 12.45C201.079 12.25 200.549 12.07 200.109 11.91C199.689 11.75 199.369 11.57 199.149 11.37C198.949 11.15 198.849 10.85 198.849 10.47C198.849 10.05 198.959 9.73001 199.179 9.51C199.419 9.27001 199.719 9.10001 200.079 9.00001C200.459 8.90001 200.859 8.85001 201.279 8.85001C202.019 8.85001 202.749 9.00001 203.469 9.30001C204.189 9.58001 204.949 10.03 205.749 10.65L207.369 8.10001C206.549 7.32 205.639 6.76 204.639 6.42C203.639 6.06 202.579 5.88 201.459 5.88C200.179 5.88 199.059 6.09001 198.099 6.51001C197.159 6.93001 196.419 7.52001 195.879 8.28001C195.359 9.02001 195.099 9.91001 195.099 10.95C195.099 11.81 195.289 12.52 195.669 13.08C196.069 13.62 196.659 14.07 197.439 14.43C198.219 14.79 199.189 15.16 200.349 15.54C201.049 15.74 201.639 15.92 202.119 16.08C202.619 16.24 202.999 16.43 203.259 16.65C203.519 16.85 203.649 17.14 203.649 17.52C203.649 18.08 203.409 18.5 202.929 18.78C202.469 19.06 201.849 19.2 201.069 19.2C200.229 19.2 199.349 19.02 198.429 18.66C197.529 18.3 196.609 17.74 195.669 16.98L194.229 19.59C195.109 20.45 196.159 21.1 197.379 21.54ZM182.295 21.39C183.235 21.93 184.315 22.2 185.535 22.2C186.875 22.2 188.055 21.84 189.075 21.12C190.115 20.38 190.925 19.39 191.505 18.15C192.105 16.91 192.405 15.53 192.405 14.01C192.405 12.89 192.215 11.85 191.835 10.89C191.475 9.91001 190.965 9.05 190.305 8.31001C189.645 7.55 188.865 6.96 187.965 6.54C187.085 6.12 186.115 5.91 185.055 5.91C183.875 5.91 182.825 6.18001 181.905 6.72001C180.985 7.24001 180.225 7.96 179.625 8.88V6.18H176.115V28.29H180.135V19.14C180.655 20.08 181.375 20.83 182.295 21.39ZM185.865 18.39C185.365 18.65 184.805 18.78 184.185 18.78C183.625 18.78 183.075 18.65 182.535 18.39C181.995 18.11 181.515 17.73 181.095 17.25C180.695 16.77 180.375 16.24 180.135 15.66V11.97C180.255 11.59 180.445 11.24 180.705 10.92C180.985 10.6 181.305 10.32 181.665 10.08C182.025 9.84 182.395 9.66 182.775 9.54C183.175 9.4 183.565 9.33 183.945 9.33C184.565 9.33 185.135 9.45 185.655 9.69C186.195 9.93 186.665 10.27 187.065 10.71C187.465 11.13 187.765 11.62 187.965 12.18C188.185 12.74 188.295 13.35 188.295 14.01C188.295 14.63 188.195 15.23 187.995 15.81C187.815 16.37 187.535 16.88 187.155 17.34C186.795 17.78 186.365 18.13 185.865 18.39ZM168.453 21.9V19.71C167.853 20.55 167.093 21.18 166.173 21.6C165.253 22 164.243 22.2 163.143 22.2C162.143 22.2 161.233 21.99 160.413 21.57C159.593 21.13 158.943 20.53 158.463 19.77C158.003 19.01 157.773 18.16 157.773 17.22C157.773 16.42 157.953 15.7 158.313 15.06C158.673 14.42 159.163 13.89 159.783 13.47C160.403 13.03 161.113 12.7 161.913 12.48C162.733 12.26 163.583 12.15 164.463 12.15C165.303 12.15 166.053 12.22 166.713 12.36C167.373 12.5 167.903 12.66 168.303 12.84V11.94C168.303 10.92 168.003 10.13 167.403 9.57001C166.823 8.99001 165.953 8.7 164.793 8.7C163.973 8.7 163.153 8.85001 162.333 9.15001C161.533 9.45 160.713 9.89001 159.873 10.47L158.643 7.92C159.623 7.28 160.653 6.79 161.733 6.45C162.813 6.09 163.963 5.91 165.183 5.91C166.723 5.91 168.023 6.17 169.083 6.69C170.143 7.19 170.943 7.93 171.483 8.91C172.043 9.87 172.323 11.03 172.323 12.39V21.9H168.453ZM167.643 17.94C168.083 17.56 168.303 17.18 168.303 16.8V15C167.803 14.8 167.273 14.65 166.713 14.55C166.153 14.45 165.623 14.4 165.123 14.4C164.683 14.4 164.253 14.45 163.833 14.55C163.413 14.65 163.033 14.81 162.693 15.03C162.353 15.23 162.083 15.49 161.883 15.81C161.683 16.11 161.583 16.47 161.583 16.89C161.583 17.35 161.703 17.76 161.943 18.12C162.203 18.48 162.533 18.76 162.933 18.96C163.353 19.16 163.803 19.26 164.283 19.26C164.703 19.26 165.123 19.21 165.543 19.11C165.963 19.01 166.353 18.87 166.713 18.69C167.093 18.49 167.403 18.24 167.643 17.94ZM100.017 21.9H102.657V12.54C102.657 11.6 102.577 10.73 102.417 9.93C102.277 9.13 102.027 8.44 101.667 7.86C101.327 7.26 100.847 6.8 100.227 6.48C99.6274 6.14 98.8774 5.97 97.9774 5.97C97.0574 5.97 96.1775 6.12 95.3374 6.42C94.4975 6.72 93.7475 7.14 93.0874 7.68C92.4274 8.22 91.8874 8.86 91.4674 9.6V6.24H89.0674V21.9H91.7074V12.45C91.9474 11.65 92.3374 10.95 92.8774 10.35C93.4374 9.73 94.0675 9.24 94.7674 8.88C95.4874 8.52 96.2074 8.34 96.9274 8.34C97.9674 8.34 98.7374 8.73 99.2374 9.51C99.7574 10.27 100.017 11.48 100.017 13.14V21.9ZM75.6647 0.600006H77.9447L86.6447 21.9H83.7647L81.2447 15.66H72.3047L69.8147 21.9H66.9347L75.6647 0.600006ZM80.6447 13.56L76.8047 3.72001L72.8447 13.56H80.6447ZM62.0199 21.9H64.6599V12.54C64.6599 11.6 64.5799 10.73 64.4199 9.93C64.2599 9.13 63.9999 8.44 63.6399 7.86C63.2799 7.26 62.7899 6.8 62.1699 6.48C61.5699 6.14 60.8199 5.97 59.9199 5.97C58.6399 5.97 57.4999 6.3 56.4999 6.96C55.4999 7.6 54.6499 8.54 53.9499 9.78C53.7699 8.66 53.2899 7.75 52.5099 7.05C51.7299 6.33 50.6899 5.97 49.3899 5.97C48.1099 5.97 46.9599 6.29 45.9399 6.93C44.9199 7.55 44.0899 8.44 43.4499 9.6V6.24H41.0499V21.9H43.6899V12.45C44.0499 11.21 44.6599 10.22 45.5199 9.48C46.3999 8.72 47.3599 8.34 48.3999 8.34C49.4399 8.34 50.2199 8.73 50.7399 9.51C51.2599 10.27 51.5199 11.48 51.5199 13.14V21.9H54.1599V12.48C54.5199 11.26 55.1299 10.27 55.9899 9.51C56.8499 8.73 57.8099 8.34 58.8699 8.34C59.9099 8.34 60.6899 8.73 61.2099 9.51C61.7499 10.29 62.0199 11.5 62.0199 13.14V21.9ZM31.7714 22.2C30.4714 22.2 29.2514 21.99 28.1114 21.57C26.9714 21.13 25.9914 20.48 25.1714 19.62L26.1914 17.76C27.0914 18.6 27.9914 19.2 28.8914 19.56C29.7914 19.92 30.7114 20.1 31.6514 20.1C32.7314 20.1 33.6114 19.9 34.2914 19.5C34.9714 19.08 35.3114 18.47 35.3114 17.67C35.3114 17.09 35.1314 16.66 34.7714 16.38C34.4314 16.1 33.9414 15.87 33.3014 15.69C32.6614 15.49 31.9014 15.27 31.0214 15.03C29.9414 14.71 29.0314 14.37 28.2914 14.01C27.5514 13.65 26.9914 13.2 26.6114 12.66C26.2314 12.12 26.0414 11.44 26.0414 10.62C26.0414 9.62 26.3014 8.78 26.8214 8.1C27.3414 7.4 28.0514 6.87 28.9514 6.51C29.8714 6.15 30.9114 5.97 32.0714 5.97C33.2314 5.97 34.2814 6.15 35.2214 6.51C36.1614 6.87 36.9714 7.4 37.6514 8.1L36.4514 9.93C35.8314 9.29 35.1514 8.82 34.4114 8.52C33.6714 8.2 32.8414 8.04 31.9214 8.04C31.3814 8.04 30.8514 8.11 30.3314 8.25C29.8114 8.37 29.3814 8.6 29.0414 8.94C28.7014 9.26 28.5314 9.72 28.5314 10.32C28.5314 10.82 28.6614 11.22 28.9214 11.52C29.2014 11.8 29.6014 12.04 30.1214 12.24C30.6614 12.44 31.3114 12.66 32.0714 12.9C33.2514 13.24 34.2714 13.58 35.1314 13.92C36.0114 14.26 36.6914 14.7 37.1714 15.24C37.6514 15.78 37.8914 16.53 37.8914 17.49C37.8914 18.97 37.3314 20.13 36.2114 20.97C35.0914 21.79 33.6114 22.2 31.7714 22.2ZM8.94 21.15C10.16 21.75 11.52 22.05 13.02 22.05C14.46 22.05 15.79 21.76 17.01 21.18C18.23 20.6 19.29 19.81 20.19 18.81C21.11 17.79 21.82 16.64 22.32 15.36C22.82 14.06 23.07 12.7 23.07 11.28C23.07 9.94001 22.83 8.63001 22.35 7.35001C21.87 6.07001 21.19 4.91001 20.31 3.87001C19.43 2.83001 18.38 2.00001 17.16 1.38001C15.94 0.760012 14.58 0.450012 13.08 0.450012C11.64 0.450012 10.31 0.750011 9.09 1.35001C7.87 1.93001 6.8 2.73001 5.88 3.75001C4.98 4.75001 4.27 5.90001 3.75 7.20001C3.25 8.48001 3 9.83001 3 11.25C3 12.61 3.24 13.94 3.72 15.24C4.2 16.52 4.88 17.68 5.76 18.72C6.66 19.74 7.72 20.55 8.94 21.15ZM6.24 14.4C5.9 13.38 5.73 12.33 5.73 11.25C5.73 10.21 5.9 9.20001 6.24 8.22001C6.58 7.22001 7.06 6.32001 7.68 5.52001C8.32 4.72001 9.09 4.09001 9.99 3.63001C10.89 3.15001 11.91 2.91001 13.05 2.91001C14.13 2.91001 15.11 3.14001 15.99 3.60001C16.89 4.04001 17.66 4.66001 18.3 5.46001C18.96 6.24001 19.46 7.13001 19.8 8.13001C20.16 9.13001 20.34 10.17 20.34 11.25C20.34 12.27 20.17 13.28 19.83 14.28C19.51 15.28 19.03 16.18 18.39 16.98C17.77 17.78 17.01 18.42 16.11 18.9C15.21 19.38 14.19 19.62 13.05 19.62C11.95 19.62 10.95 19.39 10.05 18.93C9.15 18.47 8.38 17.85 7.74 17.07C7.1 16.29 6.6 15.4 6.24 14.4Z" fill="#5714CC"/>
<path fill-rule="evenodd" clip-rule="evenodd" d="M85.2596 38.29H125.26C134.648 38.29 142.26 45.9011 142.26 55.29C142.26 64.6788 134.648 72.29 125.26 72.29H85.2596C75.8707 72.29 68.2596 64.6788 68.2596 55.29C68.2596 45.9011 75.8707 38.29 85.2596 38.29ZM85.2596 40.29C76.9753 40.29 70.2596 47.0057 70.2596 55.29C70.2596 63.5742 76.9753 70.29 85.2596 70.29H125.26C133.544 70.29 140.26 63.5742 140.26 55.29C140.26 47.0057 133.544 40.29 125.26 40.29H85.2596Z" fill="#5C70EF" fill-opacity="0.15"/>
<path d="M89.5236 53.194V60.65H91.7316V49.29H89.3796L85.9876 55.754L82.6276 49.29H80.2596V60.65H82.4676V53.194L85.3796 58.746H86.6116L89.5236 53.194Z" fill="#5714CC"/>
<path d="M114.989 60.458C115.64 60.6926 116.322 60.81 117.037 60.81C118.061 60.81 118.877 60.5753 119.485 60.106C120.093 59.6366 120.397 58.986 120.397 58.154C120.397 57.642 120.28 57.242 120.045 56.954C119.81 56.6553 119.458 56.4046 118.989 56.202C118.53 55.9993 117.965 55.802 117.293 55.61C116.962 55.5033 116.68 55.4073 116.445 55.322C116.221 55.2366 116.05 55.1406 115.933 55.034C115.826 54.9166 115.773 54.7566 115.773 54.554C115.773 54.33 115.832 54.1593 115.949 54.042C116.077 53.914 116.237 53.8233 116.429 53.77C116.632 53.7166 116.845 53.69 117.069 53.69C117.464 53.69 117.853 53.77 118.237 53.93C118.621 54.0793 119.026 54.3193 119.453 54.65L120.317 53.29C119.88 52.874 119.394 52.5753 118.861 52.394C118.328 52.202 117.762 52.106 117.165 52.106C116.482 52.106 115.885 52.218 115.373 52.442C114.872 52.666 114.477 52.9806 114.189 53.386C113.912 53.7806 113.773 54.2553 113.773 54.81C113.773 55.2686 113.874 55.6473 114.077 55.946C114.29 56.234 114.605 56.474 115.021 56.666C115.437 56.858 115.954 57.0553 116.573 57.258C116.946 57.3646 117.261 57.4606 117.517 57.546C117.784 57.6313 117.986 57.7326 118.125 57.85C118.264 57.9566 118.333 58.1113 118.333 58.314C118.333 58.6126 118.205 58.8366 117.949 58.986C117.704 59.1353 117.373 59.21 116.957 59.21C116.509 59.21 116.04 59.114 115.549 58.922C115.069 58.73 114.578 58.4313 114.077 58.026L113.309 59.418C113.778 59.8766 114.338 60.2233 114.989 60.458Z" fill="#5714CC"/>
<path fill-rule="evenodd" clip-rule="evenodd" d="M106.784 60.3779C107.286 60.6659 107.862 60.8099 108.512 60.8099C109.227 60.8099 109.856 60.6179 110.4 60.2339C110.955 59.8393 111.387 59.3113 111.696 58.6499C112.016 57.9886 112.176 57.2526 112.176 56.4419C112.176 55.8446 112.075 55.2899 111.872 54.7779C111.68 54.2553 111.408 53.7966 111.056 53.4019C110.704 52.9966 110.288 52.6819 109.808 52.4579C109.339 52.2339 108.822 52.1219 108.256 52.1219C107.627 52.1219 107.067 52.2659 106.576 52.5539C106.086 52.8313 105.68 53.2153 105.36 53.7059V52.2659H103.488V64.058H105.632V59.1779C105.91 59.6793 106.294 60.0793 106.784 60.3779ZM108.688 58.7779C108.422 58.9166 108.123 58.9859 107.792 58.9859C107.494 58.9859 107.2 58.9166 106.912 58.7779C106.624 58.6286 106.368 58.4259 106.144 58.1699C105.931 57.9139 105.76 57.6313 105.632 57.3219V55.3539C105.696 55.1513 105.798 54.9646 105.936 54.7939C106.086 54.6233 106.256 54.4739 106.448 54.3459C106.64 54.2179 106.838 54.1219 107.04 54.0579C107.254 53.9833 107.462 53.9459 107.664 53.9459C107.995 53.9459 108.299 54.0099 108.576 54.1379C108.864 54.2659 109.115 54.4473 109.328 54.6819C109.542 54.9059 109.702 55.1673 109.808 55.4659C109.926 55.7646 109.984 56.0899 109.984 56.4419C109.984 56.7726 109.931 57.0926 109.824 57.4019C109.728 57.7006 109.579 57.9726 109.376 58.2179C109.184 58.4526 108.955 58.6393 108.688 58.7779Z" fill="#5714CC"/>
<path fill-rule="evenodd" clip-rule="evenodd" d="M99.2416 60.6499V59.4819C98.9216 59.9299 98.5163 60.2659 98.0256 60.4899C97.5349 60.7033 96.9963 60.8099 96.4096 60.8099C95.8763 60.8099 95.3909 60.6979 94.9536 60.4739C94.5163 60.2393 94.1696 59.9193 93.9136 59.5139C93.6683 59.1086 93.5456 58.6553 93.5456 58.1539C93.5456 57.7273 93.6416 57.3433 93.8336 57.0019C94.0256 56.6606 94.2869 56.3779 94.6176 56.1539C94.9483 55.9193 95.3269 55.7433 95.7536 55.6259C96.1909 55.5086 96.6443 55.4499 97.1136 55.4499C97.5616 55.4499 97.9616 55.4873 98.3136 55.5619C98.6656 55.6366 98.9483 55.7219 99.1616 55.8179V55.3379C99.1616 54.7939 99.0016 54.3726 98.6816 54.0739C98.3723 53.7646 97.9083 53.6099 97.2896 53.6099C96.8523 53.6099 96.4149 53.6899 95.9776 53.8499C95.5509 54.0099 95.1136 54.2446 94.6656 54.5539L94.0096 53.1939C94.5323 52.8526 95.0816 52.5913 95.6576 52.4099C96.2336 52.2179 96.8469 52.1219 97.4976 52.1219C98.3189 52.1219 99.0123 52.2606 99.5776 52.5379C100.143 52.8046 100.57 53.1993 100.858 53.7219C101.156 54.2339 101.306 54.8526 101.306 55.5779V60.6499H99.2416ZM98.8096 58.5379C99.0443 58.3353 99.1616 58.1326 99.1616 57.9299V56.9699C98.8949 56.8633 98.6123 56.7833 98.3136 56.7299C98.0149 56.6766 97.7323 56.6499 97.4656 56.6499C97.2309 56.6499 97.0016 56.6766 96.7776 56.7299C96.5536 56.7833 96.3509 56.8686 96.1696 56.9859C95.9883 57.0926 95.8443 57.2313 95.7376 57.4019C95.6309 57.5619 95.5776 57.7539 95.5776 57.9779C95.5776 58.2233 95.6416 58.4419 95.7696 58.6339C95.9083 58.8259 96.0843 58.9753 96.2976 59.0819C96.5216 59.1886 96.7616 59.2419 97.0176 59.2419C97.2416 59.2419 97.4656 59.2153 97.6896 59.1619C97.9136 59.1086 98.1216 59.0339 98.3136 58.9379C98.5163 58.8313 98.6816 58.6979 98.8096 58.5379Z" fill="#5714CC"/>
<path fill-rule="evenodd" clip-rule="evenodd" d="M127.397 55.674H130.397V57.674H127.397V60.674H125.397V57.674H122.397V55.674H125.397V52.674H127.397V55.674Z" fill="#5714CC"/>
</svg>
