<svg width="30" height="30" viewBox="0 0 30 30" fill="none" xmlns="http://www.w3.org/2000/svg">
<path d="M14 12C14 13.1046 13.1046 14 12 14C10.8954 14 10 13.1046 10 12C10 10.8954 10.8954 10 12 10C13.1046 10 14 10.8954 14 12Z" fill="#FF8800"/>
<path fill-rule="evenodd" clip-rule="evenodd" d="M12 26C12 26 20 20 20 12C20 7.58172 16.4183 4 12 4C7.58172 4 4 7.58172 4 12C4 20 12 26 12 26ZM14.4383 20.7506C16.3136 18.4065 18 15.3439 18 12C18 8.68629 15.3137 6 12 6C8.68629 6 6 8.68629 6 12C6 15.3439 7.68642 18.4065 9.56174 20.7506C10.4388 21.847 11.3192 22.7381 12 23.3696C12.6808 22.7381 13.5612 21.847 14.4383 20.7506Z" fill="#FF8800"/>
<path d="M20 26C20 26 18.7095 25.1397 17.3254 23.6185C17.7465 23.1152 18.1644 22.5767 18.5673 22.005C19.0699 22.5853 19.5725 23.072 20 23.4503C20.4413 23.0597 20.9626 22.5538 21.4815 21.9484C22.8304 20.3747 24 18.3242 24 16C24 14.5156 23.1914 13.22 21.9906 12.5297C21.9968 12.3543 22 12.1777 22 12C22 11.4178 21.9502 10.8472 21.8547 10.2922C24.2607 11.0734 26 13.3336 26 16C26 22 20 26 20 26Z" fill="#FF8800"/>
<path d="M22 16C22 16.7951 21.5361 17.4818 20.8642 17.8042C21.2204 16.9017 21.5097 15.9516 21.7071 14.9575C21.8929 15.2611 22 15.618 22 16Z" fill="#FF8800"/>
</svg>
