<svg width="30" height="30" viewBox="0 0 30 30" fill="none" xmlns="http://www.w3.org/2000/svg">
<path d="M17.3843 16.1921C18.0427 16.1921 18.5764 16.7261 18.5766 17.3845C18.5766 18.0431 18.0429 18.5769 17.3843 18.5769C16.726 18.5765 16.1919 18.0429 16.1919 17.3845C16.1921 16.7263 16.7261 16.1925 17.3843 16.1921Z" fill="#FF8800"/>
<path d="M18.5776 12.614C19.2358 12.6142 19.7696 13.1482 19.77 13.8064C19.77 14.4649 19.236 14.9995 18.5776 14.9997C17.9192 14.9995 17.3843 14.4649 17.3843 13.8064C17.3846 13.1482 17.9194 12.6142 18.5776 12.614Z" fill="#FF8800"/>
<path d="M14.4038 10.2292C15.3914 10.2295 16.1917 11.0306 16.1919 12.0183C16.1918 13.006 15.3915 13.8071 14.4038 13.8074C13.4161 13.8072 12.6148 13.006 12.6147 12.0183C12.6149 11.0306 13.4161 10.2294 14.4038 10.2292Z" fill="#FF8800"/>
<path fill-rule="evenodd" clip-rule="evenodd" d="M5.48973 3.38548C5.88444 3.31256 6.30242 3.30655 6.71629 3.34349C7.54947 3.41801 8.54882 3.68315 9.69676 4.18724C10.082 4.35642 10.4889 4.55599 10.9175 4.78685C10.1462 5.09577 9.41812 5.48878 8.74461 5.9558C6.83083 5.14456 5.74438 5.25712 5.50047 5.50072C5.17941 5.82178 5.0848 7.60451 7.03172 10.8142C8.53833 7.95221 11.5406 5.99997 14.9995 5.99974C19.97 5.99974 23.9994 10.0293 23.9995 14.9997C23.9995 18.4651 22.0399 21.4704 19.1694 22.9744C22.3394 24.9067 24.0824 24.7995 24.4409 24.4411C24.7114 24.1704 24.8397 23.1099 24.0552 21.2429C24.5217 20.5677 24.9124 19.8372 25.2202 19.0642C25.4451 19.4806 25.641 19.8756 25.8061 20.2507C26.3078 21.3903 26.5718 22.3922 26.6352 23.239C26.6667 23.6607 26.651 24.0874 26.5639 24.4929C26.4857 24.8569 26.3072 25.4041 25.855 25.8562C25.403 26.3079 24.8566 26.487 24.4927 26.5652C24.087 26.6522 23.6596 26.667 23.2378 26.6355C22.3911 26.572 21.3898 26.3079 20.2505 25.8064C19.2495 25.3657 18.1016 24.7231 16.8052 23.8181C16.2219 23.9369 15.6179 23.9997 14.9995 23.9997C10.0292 23.9994 5.99949 19.9701 5.99949 14.9997C5.99951 14.3761 6.06329 13.7673 6.18406 13.1794C5.275 11.8697 4.63116 10.7083 4.18699 9.69701C3.68281 8.54884 3.41769 7.54887 3.34324 6.71556C3.30634 6.30179 3.31226 5.88467 3.38524 5.48998C3.44597 5.16175 3.60206 4.56976 4.08641 4.08568L4.27196 3.91966C4.71376 3.56491 5.20245 3.43863 5.48973 3.38548ZM8.02488 15.5837C8.30542 18.9811 11.0115 21.6877 14.4077 21.9724C13.3752 21.1079 12.268 20.0963 11.0864 18.9148C9.90344 17.7318 8.88976 16.6212 8.02488 15.5837ZM14.9995 7.99974C11.9102 8 9.28944 10.0021 8.36082 12.779C9.38625 14.1602 10.7353 15.7356 12.5005 17.5007C14.2672 19.2674 15.8368 20.6165 17.2095 21.6413C19.9922 20.716 21.9995 18.0933 21.9995 14.9997C21.9994 11.1339 18.8654 7.99974 14.9995 7.99974Z" fill="#FF8800"/>
</svg>
