<svg width="30" height="30" viewBox="0 0 30 30" fill="none" xmlns="http://www.w3.org/2000/svg">
<path d="M17.3735 5.284C17.5173 5.31916 17.6604 5.35749 17.8025 5.39893L17.9259 5.3132C18.562 4.8713 19.3961 4.83644 20.0669 5.22372L20.9329 5.72372C21.6037 6.111 21.9906 6.85079 21.926 7.62265L21.9134 7.7724C22.0204 7.87477 22.1251 7.97953 22.2275 8.08651L22.3773 8.07396C23.1492 8.00933 23.889 8.3962 24.2762 9.06699L24.7762 9.93301C25.1635 10.6038 25.1287 11.4379 24.6868 12.074L24.601 12.1975C24.6425 12.3396 24.6808 12.4827 24.716 12.6265L24.852 12.6905C25.5528 13.0205 26 13.7254 26 14.5V15.5C26 16.2746 25.5528 16.9795 24.852 17.3094L24.716 17.3735C24.6808 17.5173 24.6425 17.6605 24.601 17.8026L24.6867 17.926C25.1286 18.5621 25.1635 19.3962 24.7762 20.067L24.759 20.0968C26.0483 20.433 26.9999 21.6053 26.9999 22.9999C26.9999 24.6568 25.6568 25.9999 23.9999 25.9999C18.6666 25.9999 13.3333 26 8.00002 26C7.08228 26 6.28232 25.3754 6.05973 24.4851L4.05973 16.4851C3.99894 16.2419 3.98512 15.9928 4.01567 15.7502C4.00531 15.6679 4 15.5844 4 15.5V14.5C4 13.7254 4.44724 13.0205 5.14801 12.6905L5.28392 12.6266C5.31909 12.4828 5.35743 12.3397 5.3989 12.1975L5.31311 12.074C4.87121 11.4379 4.83636 10.6038 5.22364 9.93301L5.72364 9.06699C6.11092 8.39619 6.8507 8.00933 7.62257 8.07396L7.77236 8.0865C7.87474 7.97953 7.9795 7.87476 8.08646 7.7724L8.07392 7.62264C8.0093 6.85078 8.39616 6.111 9.06695 5.72372L9.93297 5.22372C10.6038 4.83644 11.4379 4.8713 12.074 5.3132L12.1975 5.39895C12.3396 5.3575 12.4827 5.31915 12.6265 5.28398L12.6905 5.14801C13.0205 4.44724 13.7254 4 14.5 4H15.5C16.2746 4 16.9795 4.44724 17.3095 5.14801L17.3735 5.284Z" fill="#595959"/>
<path fill-rule="evenodd" clip-rule="evenodd" d="M19.0668 6.95577L18.104 7.62455C17.4374 7.34361 16.7176 7.1507 15.9993 7.06059L15.4999 6H14.4999L14.0005 7.06057C13.2825 7.15064 12.5627 7.34349 11.8956 7.62458L10.9329 6.95577L10.0668 7.45577L10.1646 8.62392C9.58797 9.06083 9.06101 9.58772 8.62378 10.1648L7.45557 10.067L6.95557 10.933L7.62441 11.8959C7.34317 12.5633 7.15047 13.2828 7.06045 14H11.6455C11.852 13.3052 12.2754 12.6683 12.8998 12.1999C14.4462 11.0401 16.64 11.3535 17.7998 12.8999L22.7748 19.5333L23.044 19.067L22.3753 18.1043C22.6561 17.438 22.849 16.7183 22.9392 15.9994L23.9999 15.5V14.5L22.9393 14.0006C22.8491 13.2821 22.6562 12.5623 22.3753 11.8957L23.0441 10.933L22.5441 10.067L21.3758 10.1648C20.9386 9.58774 20.4117 9.06083 19.835 8.62392L19.9328 7.45577L19.0668 6.95577ZM15.9999 9C15.9999 9.55228 15.5522 10 14.9999 10C14.4476 10 13.9999 9.55228 13.9999 9C13.9999 8.44772 14.4476 8 14.9999 8C15.5522 8 15.9999 8.44772 15.9999 9ZM20.9999 16C20.4476 16 19.9999 15.5523 19.9999 15C19.9999 14.4477 20.4476 14 20.9999 14C21.5522 14 21.9999 14.4477 21.9999 15C21.9999 15.5523 21.5522 16 20.9999 16ZM11.9999 11C11.9999 11.5523 11.5522 12 10.9999 12C10.4476 12 9.99988 11.5523 9.99988 11C9.99988 10.4477 10.4476 10 10.9999 10C11.5522 10 11.9999 10.4477 11.9999 11ZM19.9999 11C19.9999 11.5523 19.5522 12 18.9999 12C18.4476 12 17.9999 11.5523 17.9999 11C17.9999 10.4477 18.4476 10 18.9999 10C19.5522 10 19.9999 10.4477 19.9999 11Z" fill="url(#paint0_linear_1903_16660)"/>
<path d="M16.1216 14.0037C15.6089 13.4253 14.7294 13.328 14.1001 13.8C14.0181 13.8616 13.9441 13.9299 13.8784 14.0037C13.9187 14.0012 13.9593 14 14.0002 14H16.0002C16.0408 14 16.0813 14.0012 16.1216 14.0037Z" fill="url(#paint1_linear_1903_16660)"/>
<path d="M17.9521 16.4359C17.9484 16.4523 17.9446 16.4687 17.9405 16.4851L17.0151 20.1866L19.8001 23.9L22.2001 22.1L17.9521 16.4359Z" fill="url(#paint2_linear_1903_16660)"/>
<path d="M16 23C16 22.4477 16.4477 22 17 22H24C24.5523 22 25 22.4477 25 23C25 23.5523 24.5523 24 24 24H17C16.4477 24 16 23.5523 16 23Z" fill="#DEDEDE"/>
<path fill-rule="evenodd" clip-rule="evenodd" d="M8 16H6L8 24H10L11 20L12 24H14L16 16H14L13 20L12 16H10L9 20L8 16Z" fill="#FFC107"/>
<defs>
<linearGradient id="paint0_linear_1903_16660" x1="14.9999" y1="6" x2="14.9999" y2="24" gradientUnits="userSpaceOnUse">
<stop stop-color="white"/>
<stop offset="1" stop-color="#E6E6E6"/>
</linearGradient>
<linearGradient id="paint1_linear_1903_16660" x1="15.0001" y1="15" x2="12.0001" y2="23" gradientUnits="userSpaceOnUse">
<stop stop-color="#E2E2E2"/>
<stop offset="1" stop-color="#848484"/>
</linearGradient>
<linearGradient id="paint2_linear_1903_16660" x1="15.0001" y1="15" x2="12.0001" y2="23" gradientUnits="userSpaceOnUse">
<stop stop-color="#E2E2E2"/>
<stop offset="1" stop-color="#848484"/>
</linearGradient>
</defs>
</svg>
