<svg width="24" height="24" viewBox="0 0 24 24" fill="none" xmlns="http://www.w3.org/2000/svg">
<defs>
  <linearGradient id="g2" gradientUnits="userSpaceOnUse" x1="7" y1="12" x2="13.085" y2="21.1068">
    <stop offset="0" stop-color="#002080"/>
    <stop offset="0.969423" stop-color="#1852FF"/>
  </linearGradient>
  <linearGradient id="g3" gradientUnits="userSpaceOnUse" x1="3.00003" y1="10" x2="5.00003" y2="9">
    <stop offset="0" stop-color="#4D79FF"/>
    <stop offset="0.485577" stop-color="#1852FF"/>
    <stop offset="1" stop-color="#003AE6"/>
  </linearGradient>
  <linearGradient id="g4" gradientUnits="userSpaceOnUse" x1="5.5" y1="9.6699" x2="8" y2="14">
    <stop offset="0" stop-color="#1852FF"/>
    <stop offset="0.312917" stop-color="#4D79FF"/>
    <stop offset="0.73143" stop-color="#003AE6"/>
    <stop offset="0.924671" stop-color="#4D79FF"/>
    <stop offset="1" stop-color="#1852FF"/>
  </linearGradient>
  <linearGradient id="g6" gradientUnits="userSpaceOnUse" x1="11" y1="10" x2="13" y2="12">
    <stop offset="0" stop-color="#002080"/>
    <stop offset="1" stop-color="#1852FF"/>
  </linearGradient>
  <linearGradient id="g7" gradientUnits="userSpaceOnUse" x1="10.5" y1="8.40192" x2="13.5" y2="13.5">
    <stop offset="0" stop-color="#FAAF46"/>
    <stop offset="1" stop-color="#F99E20"/>
  </linearGradient>
</defs>
<path d="M3,22a9,1 0,1 0,18 0a9,1 0,1 0,-18 0z" fill="#434959" fill-opacity="0.2" stroke-opacity="0.2"/>
<path d="M18.5938,22H16.3154L12,14.0879L7.6846,22H5.4063L11.1221,11.5215L12,12L12.8779,11.5215L18.5938,22Z" fill="url(#g2)"/>
<path d="M3.9794,7.4995L5.7118,10.5002L3.9798,11.5002L2.2473,8.4995L3.9794,7.4995Z" fill="url(#g3)"/>
<path d="M18.7499,2.0601L21.2499,6.3902L5.1827,15.6666C4.9436,15.8046 4.6378,15.7227 4.4997,15.4835L2.4997,12.0194C2.3616,11.7803 2.4436,11.4745 2.6827,11.3364L18.7499,2.0601Z" fill="url(#g4)"/>
<path d="M17.8165,1.4438C18.0556,1.3058 18.3614,1.3877 18.4995,1.6268L21.5002,6.8225C21.6383,7.0616 21.5564,7.3675 21.3172,7.5056L20.6829,7.8718C20.4438,8.0098 20.1381,7.9279 20,7.6888L16.9992,2.4931C16.8611,2.254 16.943,1.9481 17.1822,1.81L17.8165,1.4438Z" fill="#FAAF46"/>
<path d="M13,11C13,11.5523 12.5523,12 12,12C11.4477,12 11,11.5523 11,11C11,10.4477 11.4477,10 12,10C12.5523,10 13,10.4477 13,11Z" fill="url(#g6)"/>
<path d="M13,11C13,10.4477 12.5523,10 12,10C11.4477,10 11,10.4477 11,11C11,11.5523 11.4477,12 12,12C12.5523,12 13,11.5523 13,11ZM15,11C15,12.6569 13.6569,14 12,14C10.3431,14 9,12.6569 9,11C9,9.3432 10.3431,8 12,8C13.6569,8 15,9.3432 15,11Z" fill="url(#g7)"/>
</svg>
