<svg width="30" height="30" viewBox="0 0 30 30" fill="none" xmlns="http://www.w3.org/2000/svg">
<path fill-rule="evenodd" clip-rule="evenodd" d="M3 15C3 8.37258 8.37258 3 15 3C21.6274 3 27 8.37258 27 15C27 21.6274 21.6274 27 15 27C8.37258 27 3 21.6274 3 15Z" fill="#F03434"/>
<path d="M25 15C25 20.5228 20.5228 25 15 25C9.47715 25 5 20.5228 5 15C5 9.47715 9.47715 5 15 5C20.5228 5 25 9.47715 25 15Z" fill="white"/>
<path fill-rule="evenodd" clip-rule="evenodd" d="M14 13C14 11.8954 13.1046 11 12 11C10.8954 11 10 11.8954 10 13V14C10 15.1046 10.8954 16 12 16C12.1858 16 12.3657 15.9747 12.5364 15.9273L11 19H12L13.5777 15.8446C13.8554 15.2892 14 14.6767 14 14.0557L14 13ZM12 15C11.4477 15 11 14.5523 11 14V13C11 12.4477 11.4477 12 12 12C12.5523 12 13 12.4477 13 13L13 14C13 14.5523 12.5522 15 12 15Z" fill="black"/>
<path fill-rule="evenodd" clip-rule="evenodd" d="M20 17V13C20 11.8954 19.1046 11 18 11C16.8954 11 16 11.8954 16 13V17C16 18.1046 16.8954 19 18 19C19.1046 19 20 18.1046 20 17ZM18 12C18.5523 12 19 12.4477 19 13V17C19 17.5523 18.5523 18 18 18C17.4477 18 17 17.5523 17 17V13C17 12.4477 17.4477 12 18 12Z" fill="black"/>
</svg>
