<svg width="30" height="30" viewBox="0 0 30 30" fill="none" xmlns="http://www.w3.org/2000/svg">
<path d="M18.5 6C20.9853 6 23 8.01472 23 10.5V14H25.2393C25.6592 14 26 14.3408 26 14.7607C25.9999 14.9166 25.9517 15.0686 25.8623 15.1963L22.7871 19.5908C22.6074 19.8475 22.3133 20 22 20C21.6867 20 21.3926 19.8475 21.2129 19.5908L18.1377 15.1963C18.0483 15.0686 18.0001 14.9166 18 14.7607C18 14.3408 18.3408 14 18.7607 14H21V10.5C21 9.11929 19.8807 8 18.5 8C17.1193 8 16 9.11929 16 10.5V19.5C16 21.9853 13.9853 24 11.5 24C9.01473 24 7.00002 21.9853 7 19.5V16H4.76074C4.34082 16 4 15.6592 4 15.2393C4.00008 15.0834 4.04832 14.9314 4.1377 14.8037L7.21289 10.4092C7.3926 10.1525 7.68668 10 8 10C8.31332 10 8.6074 10.1525 8.78711 10.4092L11.8623 14.8037C11.9517 14.9314 11.9999 15.0834 12 15.2393C12 15.6592 11.6592 16 11.2393 16H9V19.5C9.00002 20.8807 10.1193 22 11.5 22C12.8807 22 14 20.8807 14 19.5V10.5C14 8.01472 16.0147 6 18.5 6Z" fill="#FF8800"/>
<path d="M25 22C25.5523 22 26 22.4477 26 23C26 23.5523 25.5523 24 25 24H19C18.4477 24 18 23.5523 18 23C18 22.4477 18.4477 22 19 22H25Z" fill="#FF8800"/>
<path d="M11 6C11.5523 6 12 6.44772 12 7C12 7.55228 11.5523 8 11 8H5C4.44772 8 4 7.55228 4 7C4 6.44772 4.44772 6 5 6H11Z" fill="#FF8800"/>
</svg>
