<svg width="24" height="24" viewBox="0 0 24 24" fill="none" xmlns="http://www.w3.org/2000/svg">
<path d="M2,7H18V18C18,19.1046 17.1046,20 16,20H4C2.8954,20 2,19.1046 2,18V7Z" fill="#ffffff" fill-opacity="0.2" stroke-opacity="0.2"/>
<path d="M5,2H7V4H13V2H15V4H16C17.1046,4 18,4.8954 18,6V7H2V6C2,4.8954 2.8954,4 4,4H5V2Z" fill="#ffffff"/>
<path d="M7.3541,11.2369L9.9976,9H12V18L10.0001,18.0001V11.6179L8.6461,12.7637L7.3541,11.2369Z" fill="#ffffff"/>
<path d="M24,15L20,20V5H22V15H24Z" fill="#ffffff"/>
</svg>
