<svg width="30" height="30" viewBox="0 0 30 30" fill="none" xmlns="http://www.w3.org/2000/svg">
<path d="M15.7071 2.29289C15.3166 1.90237 14.6834 1.90237 14.2929 2.29289L11.2929 5.29289C10.9024 5.68342 10.9024 6.31658 11.2929 6.70711C11.6834 7.09763 12.3166 7.09763 12.7071 6.70711L14 5.41421V19C14 19.5523 14.4477 20 15 20C15.5523 20 16 19.5523 16 19V5.41421L17.2929 6.70711C17.6834 7.09763 18.3166 7.09763 18.7071 6.70711C19.0976 6.31658 19.0976 5.68342 18.7071 5.29289L15.7071 2.29289Z" fill="#FF8800"/>
<path d="M9 10C7.34315 10 6 11.3431 6 13V23C6 24.6569 7.34315 26 9 26H21C22.6569 26 24 24.6569 24 23V13C24 11.3431 22.6569 10 21 10H20C19.4477 10 19 10.4477 19 11C19 11.5523 19.4477 12 20 12H21C21.5523 12 22 12.4477 22 13V23C22 23.5523 21.5523 24 21 24H9C8.44772 24 8 23.5523 8 23V13C8 12.4477 8.44772 12 9 12H10C10.5523 12 11 11.5523 11 11C11 10.4477 10.5523 10 10 10H9Z" fill="#FF8800"/>
</svg>
