<svg width="70" height="44" viewBox="0 0 70 44" fill="none" xmlns="http://www.w3.org/2000/svg">
<rect y="6" width="70" height="32" rx="6" fill="#5714CC" fill-opacity="0.2"/>
<path d="M11 11.75L19 13.75L23 12.75V27.75L19 28.75L11 26.75V32H7V12.75L11 11.75Z" fill="#5714CC"/>
<path fill-rule="evenodd" clip-rule="evenodd" d="M19 17.8731L11 15.8731V22.6269L19 24.6269V17.8731Z" fill="#FFC30D"/>
<path d="M19 13.75L23 12.75V27.75L19 28.75V13.75Z" fill="white" fill-opacity="0.2"/>
<path fill-rule="evenodd" clip-rule="evenodd" d="M31 16H35.5949C36.9304 16 38.1969 16.5932 39.0519 17.6192C40.4425 19.288 40.4425 21.712 39.0519 23.3808C38.1969 24.4068 36.9304 25 35.5949 25H34V28H31V16ZM34 22H35.5949C36.04 22 36.4622 21.8023 36.7472 21.4603C37.2108 20.904 37.2108 20.096 36.7472 19.5397C36.4622 19.1977 36.04 19 35.5949 19H34V22Z" fill="#5714CC"/>
<path fill-rule="evenodd" clip-rule="evenodd" d="M42 16V28H45V25H46.5949C46.6049 25 46.6149 25 46.6249 24.9999L48.5 28H51.5L49.1344 24.215C49.4738 23.983 49.7831 23.7033 50.0519 23.3808C51.4425 21.712 51.4425 19.288 50.0519 17.6192C49.1969 16.5932 47.9304 16 46.5949 16H42ZM46.5949 22H45V19H46.5949C47.04 19 47.4622 19.1977 47.7472 19.5397C48.2108 20.096 48.2108 20.904 47.7472 21.4603C47.4622 21.8023 47.04 22 46.5949 22Z" fill="#5714CC"/>
<path fill-rule="evenodd" clip-rule="evenodd" d="M53 21.5C53 18.4624 55.4624 16 58.5 16C61.5376 16 64 18.4624 64 21.5V22.5C64 25.5376 61.5376 28 58.5 28C55.4624 28 53 25.5376 53 22.5V21.5ZM58.5 19C57.1193 19 56 20.1193 56 21.5V22.5C56 23.8807 57.1193 25 58.5 25C59.8807 25 61 23.8807 61 22.5V21.5C61 20.1193 59.8807 19 58.5 19Z" fill="#5714CC"/>
</svg>
