<svg width="70" height="44" viewBox="0 0 70 44" fill="none" xmlns="http://www.w3.org/2000/svg">
<rect y="6" width="70" height="32" rx="6" fill="#5714CC" fill-opacity="0.2"/>
<path d="M11 12C14 12 15.8744 13.3789 19 13C19.8233 12.9002 20.8596 12.6379 21.6711 12.407C22.3285 12.22 23 12.7071 23 13.3906V25.5617C23 26.421 22.4518 27.1861 21.6249 27.4201C20.8206 27.6478 19.8078 27.9021 19 28C15.8744 28.3789 14 27 11 27V31C11 31.5523 10.5523 32 10 32H8C7.44772 32 7 31.5523 7 31V15V13.5308C7 13.0719 7.31203 12.6709 7.75596 12.5548C8.81963 12.2765 9.90258 12 11 12Z" fill="url(#paint0_linear_1640_2253)"/>
<path d="M11 15.5C10.9177 15.5 10.7403 15.5171 10.5 15.5488V23.5H11C13.0084 23.5 14.686 23.9775 15.7725 24.2393C16.9011 24.5112 17.6547 24.6374 18.5791 24.5254L19.0176 24.4551C19.1687 24.4266 19.3307 24.3921 19.5 24.3535V16.4629L19.4209 16.4746C17.2198 16.7414 15.4727 16.3677 14.1328 16.0449C12.7509 15.712 11.9914 15.5 11 15.5Z" fill="url(#paint1_linear_1640_2253)"/>
<path fill-rule="evenodd" clip-rule="evenodd" d="M31 16H35.5949C36.9304 16 38.1969 16.5932 39.0519 17.6192C40.4425 19.288 40.4425 21.712 39.0519 23.3808C38.1969 24.4068 36.9304 25 35.5949 25H34V28H31V16ZM34 22H35.5949C36.04 22 36.4622 21.8023 36.7472 21.4603C37.2108 20.904 37.2108 20.096 36.7472 19.5397C36.4622 19.1977 36.04 19 35.5949 19H34V22Z" fill="#5714CC"/>
<path fill-rule="evenodd" clip-rule="evenodd" d="M42 16V28H45V25H46.5949C46.6049 25 46.6149 25 46.6249 24.9999L48.5 28H51.5L49.1344 24.215C49.4738 23.983 49.7831 23.7033 50.0519 23.3808C51.4425 21.712 51.4425 19.288 50.0519 17.6192C49.1969 16.5932 47.9304 16 46.5949 16H42ZM46.5949 22H45V19H46.5949C47.04 19 47.4622 19.1977 47.7472 19.5397C48.2108 20.096 48.2108 20.904 47.7472 21.4603C47.4622 21.8023 47.04 22 46.5949 22Z" fill="#5714CC"/>
<path fill-rule="evenodd" clip-rule="evenodd" d="M53 21.5C53 18.4624 55.4624 16 58.5 16C61.5376 16 64 18.4624 64 21.5V22.5C64 25.5376 61.5376 28 58.5 28C55.4624 28 53 25.5376 53 22.5V21.5ZM58.5 19C57.1193 19 56 20.1193 56 21.5V22.5C56 23.8807 57.1193 25 58.5 25C59.8807 25 61 23.8807 61 22.5V21.5C61 20.1193 59.8807 19 58.5 19Z" fill="#5714CC"/>
<defs>
<linearGradient id="paint0_linear_1640_2253" x1="23" y1="21" x2="7" y2="21" gradientUnits="userSpaceOnUse">
<stop stop-color="#A379EC"/>
<stop offset="0.0817308" stop-color="#844CE6"/>
<stop offset="0.336538" stop-color="#5714CC"/>
<stop offset="0.625" stop-color="#844CE6"/>
<stop offset="1" stop-color="#5714CC"/>
</linearGradient>
<linearGradient id="paint1_linear_1640_2253" x1="10.5" y1="19.5531" x2="19.5" y2="19.5531" gradientUnits="userSpaceOnUse">
<stop stop-color="#FFC30D"/>
<stop offset="0.725962" stop-color="#CC9900"/>
<stop offset="1" stop-color="#FFC30D"/>
</linearGradient>
</defs>
</svg>
