<svg width="30" height="30" viewBox="0 0 30 30" fill="none" xmlns="http://www.w3.org/2000/svg">
<path d="M5.29289 6.70711C4.90237 6.31658 4.90237 5.68342 5.29289 5.29289C5.68342 4.90237 6.31658 4.90237 6.70711 5.29289L23.7071 22.2929C24.0976 22.6834 24.0976 23.3166 23.7071 23.7071C23.3166 24.0976 22.6834 24.0976 22.2929 23.7071L5.29289 6.70711Z" fill="#A49DAF"/>
<path d="M9.64398 6.81555L12.1213 9.29284C16.8665 8.39372 21.9507 9.72296 25.6937 13.2806C25.8539 13.4328 26.1076 13.434 26.2638 13.2778L27.8195 11.7221C27.9757 11.5659 27.975 11.3114 27.8155 11.1585C22.8356 6.38616 15.8442 4.93851 9.64398 6.81555Z" fill="#A49DAF"/>
<path d="M2.22615 11.1585C3.30117 10.1283 4.46993 9.25301 5.70423 8.53266L7.91328 10.7417C6.63892 11.3995 5.43667 12.2457 4.34791 13.2806C4.18778 13.4328 3.93404 13.434 3.77783 13.2778L2.2222 11.7221C2.06599 11.5659 2.06665 11.3114 2.22615 11.1585Z" fill="#A49DAF"/>
<path d="M9.37874 12.2072C8.07202 12.8052 6.84112 13.6228 5.74171 14.6599C5.58101 14.8115 5.58071 15.0659 5.73692 15.2221L7.29255 16.7777C7.44876 16.934 7.70196 16.9329 7.86391 16.7827C8.99671 15.7318 10.305 14.977 11.6898 14.5182L9.37874 12.2072Z" fill="#A49DAF"/>
<path d="M13.8614 11.033L17.0059 14.1775C18.8688 14.5383 20.6529 15.4067 22.1361 16.7827C22.2981 16.9329 22.5513 16.934 22.7075 16.7777L24.2631 15.2221C24.4193 15.0659 24.419 14.8115 24.2583 14.6599C21.3651 11.9307 17.5614 10.7217 13.8614 11.033Z" fill="#A49DAF"/>
<path d="M13.302 16.1304L16.2538 19.0822C14.6 18.7131 12.8088 19.1149 11.4542 20.2878C11.2872 20.4324 11.0346 20.4339 10.8784 20.2777L9.32274 18.7221C9.16653 18.5659 9.16607 18.3117 9.32935 18.1629C10.4856 17.1091 11.8623 16.4316 13.302 16.1304Z" fill="#A49DAF"/>
<path d="M15 25C16.1046 25 17 24.1046 17 23C17 21.8954 16.1046 21 15 21C13.8954 21 13 21.8954 13 23C13 24.1046 13.8954 25 15 25Z" fill="#A49DAF"/>
</svg>
