<svg width="30" height="30" viewBox="0 0 30 30" fill="none" xmlns="http://www.w3.org/2000/svg">
<g opacity="0.2">
<path d="M11.2822 24.2832C12.4318 24.744 13.6858 25 15 25C16.1464 25 17.2468 24.8044 18.2725 24.4492C18.5298 25.1107 18.957 25.6866 19.502 26.123C18.1114 26.6864 16.5926 27 15 27C12.503 27 10.1852 26.2358 8.26465 24.9307C8.50312 24.975 8.74868 25 9 25C9.8488 25 10.6348 24.7341 11.2822 24.2832Z" fill="#FF8800"/>
<path d="M4.16992 9.82617C4.64482 10.3017 5.2388 10.6576 5.90332 10.8467C5.3247 12.1119 5 13.5178 5 15C5 16.3138 5.25532 17.5676 5.71582 18.7168C5.26484 19.3643 5 20.1511 5 21C5 21.2509 5.02416 21.4963 5.06836 21.7344C3.76372 19.8141 3 17.4965 3 15C3 13.1473 3.42015 11.3928 4.16992 9.82617Z" fill="#FF8800"/>
<path d="M25.6885 9.54785C26.5248 11.1842 27 13.0361 27 15C27 17.1603 26.4259 19.1855 25.4268 20.9365C25.0637 20.3349 24.5471 19.8365 23.9307 19.4961C24.6127 18.1441 25 16.6177 25 15C25 13.6858 24.744 12.4318 24.2832 11.2822C24.9016 10.8512 25.3929 10.2514 25.6885 9.54785Z" fill="#FF8800"/>
<path d="M15 3C16.9634 3 18.8151 3.47455 20.4512 4.31055C19.7479 4.60612 19.1477 5.09764 18.7168 5.71582C17.5676 5.25532 16.3138 5 15 5C13.5178 5 12.1119 5.3247 10.8467 5.90332C10.6576 5.2388 10.3017 4.64482 9.82617 4.16992C11.3928 3.42015 13.1473 3 15 3Z" fill="#FF8800"/>
</g>
<g opacity="0.5">
<path d="M19.6963 11.2686C20.3477 11.7285 21.1419 12 22 12C22.1375 12 22.2733 11.993 22.4072 11.9795C22.7878 12.9118 23 13.9309 23 15C23 19.4183 19.4183 23 15 23C14.1801 23 13.3893 22.8756 12.6445 22.6465C12.8718 22.1442 13 21.5872 13 21C13 20.8825 12.9933 20.7663 12.9834 20.6514C13.6138 20.8763 14.2924 21 15 21C18.3137 21 21 18.3137 21 15C21 13.589 20.5114 12.2931 19.6963 11.2686Z" fill="#FF8800"/>
<path d="M15 7C16.0687 7 17.0876 7.21155 18.0195 7.5918C18.0059 7.72598 18 7.86223 18 8C18 8.85764 18.271 9.65149 18.7305 10.3027C17.7061 9.48813 16.4105 9 15 9C11.6863 9 9 11.6863 9 15C9 15.7072 9.12297 16.3856 9.34766 17.0156C9.23306 17.0058 9.11715 17 9 17C8.4126 17 7.85499 17.1271 7.35254 17.3545C7.12362 16.6101 7 15.8195 7 15C7 10.5817 10.5817 7 15 7Z" fill="#FF8800"/>
</g>
<path opacity="0.6" d="M9 7C9 8.10457 8.10457 9 7 9C5.89543 9 5 8.10457 5 7C5 5.89543 5.89543 5 7 5C8.10457 5 9 5.89543 9 7Z" fill="#FF8800"/>
<path opacity="0.8" d="M24 23C24 24.1046 23.1046 25 22 25C20.8954 25 20 24.1046 20 23C20 21.8954 20.8954 21 22 21C23.1046 21 24 21.8954 24 23Z" fill="#FF8800"/>
<path opacity="0.8" d="M24 8C24 9.10457 23.1046 10 22 10C20.8954 10 20 9.10457 20 8C20 6.89543 20.8954 6 22 6C23.1046 6 24 6.89543 24 8Z" fill="#FF8800"/>
<path opacity="0.8" d="M11 21C11 22.1046 10.1046 23 9 23C7.89543 23 7 22.1046 7 21C7 19.8954 7.89543 19 9 19C10.1046 19 11 19.8954 11 21Z" fill="#FF8800"/>
<path fill-rule="evenodd" clip-rule="evenodd" d="M15 10C15.5523 10 16 10.4477 16 11V11.6455C17.1288 11.9815 18.0185 12.8712 18.3545 14H19C19.5523 14 20 14.4477 20 15C20 15.5523 19.5523 16 19 16H18.3545C18.0185 17.1287 17.1286 18.0175 16 18.3535V19C16 19.5523 15.5523 20 15 20C14.4477 20 14 19.5523 14 19V18.3535C12.8714 18.0175 11.9815 17.1287 11.6455 16H11C10.4477 16 10 15.5523 10 15C10 14.4477 10.4477 14 11 14H11.6455C11.9815 12.8712 12.8712 11.9815 14 11.6455V11C14 10.4477 14.4477 10 15 10ZM15 13.5C14.1716 13.5 13.5 14.1716 13.5 15C13.5 15.8284 14.1716 16.5 15 16.5C15.8284 16.5 16.5 15.8284 16.5 15C16.5 14.1716 15.8284 13.5 15 13.5Z" fill="#FF8800"/>
</svg>
