<svg width="40" height="40" viewBox="0 0 40 40" fill="none" xmlns="http://www.w3.org/2000/svg">
<rect opacity="0.2" x="8" y="8" width="24" height="24" rx="12" fill="#FF8800"/>
<path d="M29.8995 10.1005C24.4322 4.63316 15.5678 4.63316 10.1005 10.1005C7.36733 12.8337 5.9998 16.4159 5.99988 20H9.25C9.66421 20 10 20.3358 10 20.75C10 20.9123 9.94737 21.0702 9.85 21.2L5.8 26.6C5.61115 26.8518 5.31476 27 5 27C4.68524 27 4.38885 26.8518 4.2 26.6L0.15 21.2C0.0526335 21.0702 0 20.9123 0 20.75C0 20.3358 0.335786 20 0.75 20H4.00012C4.0002 15.9064 5.5616 11.811 8.68629 8.68629C14.9347 2.4379 25.0653 2.4379 31.3137 8.68629C37.5621 14.9347 37.5621 25.0653 31.3137 31.3137C25.0653 37.5621 14.9347 37.5621 8.68629 31.3137C8.29577 30.9232 8.29577 30.29 8.68629 29.8995C9.07682 29.509 9.70998 29.509 10.1005 29.8995C15.5678 35.3668 24.4322 35.3668 29.8995 29.8995C35.3668 24.4322 35.3668 15.5678 29.8995 10.1005Z" fill="#FF8800"/>
<path d="M20 13C20.5523 13 21 13.4477 21 14V20.382L26.4472 23.1056C26.9412 23.3526 27.1414 23.9532 26.8944 24.4472C26.6474 24.9412 26.0468 25.1414 25.5528 24.8944L19.5528 21.8944C19.214 21.725 19 21.3788 19 21V14C19 13.4477 19.4477 13 20 13Z" fill="#FF8800"/>
</svg>
