<svg width="30" height="30" viewBox="0 0 30 30" fill="none" xmlns="http://www.w3.org/2000/svg">
<path d="M12.8378 14.223L9.07217 19.4008C9.02526 19.4653 9 19.543 9 19.6227C9 19.8311 9.16893 20 9.37731 20H22.5927C22.8177 20 23 19.8177 23 19.5927C23 19.5317 22.9863 19.4714 22.9598 19.4164L19.0077 11.1894C18.952 11.0736 18.835 11 18.7065 11C18.5799 11 18.4642 11.0715 18.4077 11.1847L16.1339 15.7322C16.0518 15.8963 15.8841 16 15.7006 16C15.5722 16 15.449 15.949 15.3581 15.8581L13.6586 14.1586C13.557 14.057 13.4193 14 13.2757 14C13.1025 14 12.9397 14.0829 12.8378 14.223Z" fill="#FF8800"/>
<path fill-rule="evenodd" clip-rule="evenodd" d="M24 6H6C4.34314 6 3 7.34315 3 9V21C3 22.6569 4.34315 24 6 24H24C25.6569 24 27 22.6569 27 21V9C27 7.34315 25.6569 6 24 6ZM5 9C5 8.44772 5.44772 8 6 8H24C24.5523 8 25 8.44772 25 9V21C25 21.5523 24.5523 22 24 22H6C5.44772 22 5 21.5523 5 21V9Z" fill="#FF8800"/>
<path opacity="0.5" d="M10 11.5C10 12.3284 9.32843 13 8.5 13C7.67157 13 7 12.3284 7 11.5C7 10.6716 7.67157 10 8.5 10C9.32843 10 10 10.6716 10 11.5Z" fill="#FF8800"/>
</svg>
