<svg width="30" height="30" viewBox="0 0 30 30" fill="none" xmlns="http://www.w3.org/2000/svg">
<path fill-rule="evenodd" clip-rule="evenodd" d="M20 7C21.6569 7 23 8.34315 23 10V24C23 25.6569 21.6569 27 20 27H10C8.34314 27 7 25.6569 7 24V10C7 8.34315 8.34315 7 10 7H20ZM21 10V12C21 12.5523 20.5523 13 20 13H10C9.44772 13 9 12.5523 9 12V10C9 9.44772 9.44772 9 10 9H20C20.5523 9 21 9.44772 21 10ZM10 15C9.64936 15 9.31278 14.9398 9 14.8293V24C9 24.5523 9.44772 25 10 25H20C20.5523 25 21 24.5523 21 24V14.8293C20.6872 14.9398 20.3506 15 20 15H10ZM12 18C11.4477 18 11 18.4477 11 19V22C11 22.5523 11.4477 23 12 23H18C18.5523 23 19 22.5523 19 22V19C19 18.4477 18.5523 18 18 18H12Z" fill="#FF8800"/>
<path opacity="0.7" fill-rule="evenodd" clip-rule="evenodd" d="M19 9H11V6C11 4.34315 12.3431 3 14 3H16C17.6569 3 19 4.34315 19 6V9ZM17 6C17 5.44772 16.5523 5 16 5H14C13.4477 5 13 5.44772 13 6V7H17V6Z" fill="#FF8800"/>
</svg>
