<svg width="30" height="30" viewBox="0 0 30 30" fill="none" xmlns="http://www.w3.org/2000/svg">
<path fill-rule="evenodd" clip-rule="evenodd" d="M10 2C8.34315 2 7 3.34315 7 5V25C7 26.6569 8.34315 28 10 28H20C21.6569 28 23 26.6569 23 25V5C23 3.34315 21.6569 2 20 2H10ZM10 4C9.44772 4 9 4.44772 9 5V25C9 25.5523 9.44772 26 10 26H20C20.5523 26 21 25.5523 21 25V5C21 4.44772 20.5523 4 20 4H10Z" fill="#FF8800"/>
<path opacity="0.2" d="M9 5C9 4.44772 9.44772 4 10 4H20C20.5523 4 21 4.44772 21 5V25C21 25.5523 20.5523 26 20 26H10C9.44772 26 9 25.5523 9 25V5Z" fill="#FF8800"/>
<path fill-rule="evenodd" clip-rule="evenodd" d="M15.9487 10.6838C15.8126 10.2754 15.4304 9.99999 15 10C14.5695 10 14.1874 10.2754 14.0513 10.6838L11.0516 19.6838C10.8769 20.2077 11.1601 20.7741 11.6841 20.9487C12.208 21.1233 12.7743 20.8401 12.949 20.3162L13.3877 19H16.6126L17.0513 20.3162C17.226 20.8402 17.7923 21.1233 18.3162 20.9487C18.8402 20.774 19.1233 20.2077 18.9487 19.6838L15.9487 10.6838ZM15.9459 17L15 14.1624L14.0543 17H15.9459Z" fill="#FF8800"/>
</svg>
