<svg width="30" height="30" viewBox="0 0 30 30" fill="none" xmlns="http://www.w3.org/2000/svg">
<path opacity="0.2" d="M9 5C9 4.44772 9.44772 4 10 4H11V5C11 5.55228 11.4477 6 12 6H18C18.5523 6 19 5.55228 19 5V4H20C20.5523 4 21 4.44772 21 5V12.0494C15.9467 12.5511 12 16.8147 12 22C12 23.4222 12.2969 24.7751 12.8321 26H10C9.44772 26 9 25.5523 9 25V5Z" fill="#FF8800"/>
<path d="M7 5C7 3.34315 8.34315 2 10 2H20C21.6569 2 23 3.34315 23 5V12.0494C22.6711 12.0167 22.3375 12 22 12C21.6625 12 21.3289 12.0167 21 12.0494V5C21 4.44772 20.5523 4 20 4H19V5C19 5.55228 18.5523 6 18 6H12C11.4477 6 11 5.55228 11 5V4H10C9.44772 4 9 4.44772 9 5V25C9 25.5523 9.44772 26 10 26H12.8321C13.144 26.714 13.537 27.3845 13.9993 28H10C8.34315 28 7 26.6569 7 25V5Z" fill="#FF8800"/>
<path fill-rule="evenodd" clip-rule="evenodd" d="M14 22C14 26.4183 17.5817 30 22 30C26.4183 30 30 26.4183 30 22C30 17.5817 26.4183 14 22 14C17.5817 14 14 17.5817 14 22ZM18.2929 22.2929C17.9024 22.6834 17.9024 23.3166 18.2929 23.7071L21.2929 26.7071C21.6834 27.0976 22.3166 27.0976 22.7071 26.7071L25.7071 23.7071C26.0976 23.3166 26.0976 22.6834 25.7071 22.2929C25.3166 21.9024 24.6834 21.9024 24.2929 22.2929L23 23.5858V18C23 17.4477 22.5523 17 22 17C21.4477 17 21 17.4477 21 18V23.5858L19.7071 22.2929C19.3166 21.9024 18.6834 21.9024 18.2929 22.2929Z" fill="#FF8800"/>
</svg>
