<svg width="30" height="30" viewBox="0 0 30 30" fill="none" xmlns="http://www.w3.org/2000/svg">
<path fill-rule="evenodd" clip-rule="evenodd" d="M16 10H18.3501L18.8603 11.148L16.6379 13H14V12C14 11.4477 13.5523 11 13 11H8C7.44772 11 7 11.4477 7 12H6C5.44772 12 5 12.4477 5 13C5 13.5523 5.44772 14 6 14H6.76393L6.77624 14.0062C4.67119 14.1222 3 15.8659 3 18C3 20.2091 4.79086 22 7 22C8.86384 22 10.4299 20.7252 10.874 19H14.9296C15.9327 19 16.8694 18.4987 17.4258 17.6641L20.0242 13.7666L20.5132 14.8668C19.5912 15.5996 19 16.7308 19 18C19 20.2091 20.7909 22 23 22C25.2091 22 27 20.2091 27 18C27 15.7909 25.2091 14 23 14C22.7754 14 22.5551 14.0185 22.3406 14.0541L21.8535 12.9581C22.5113 12.7992 23 12.2067 23 11.5C23 10.6716 22.3284 10 21.5 10C21.1864 10 20.8953 10.0962 20.6546 10.2607L20.1777 9.18772C19.8567 8.46547 19.1405 8 18.3501 8H16V10ZM21.3827 16.8232L22.0862 18.4061C22.3105 18.9108 22.9015 19.1381 23.4061 18.9138C23.9108 18.6895 24.1381 18.0985 23.9138 17.5939L23.2103 16.0109C24.216 16.116 25 16.9664 25 18C25 19.1046 24.1046 20 23 20C21.8954 20 21 19.1046 21 18C21 17.5601 21.142 17.1534 21.3827 16.8232ZM8.73244 17H7C6.44772 17 6 17.4477 6 18C6 18.5523 6.44772 19 7 19H8.73244C8.38663 19.5978 7.74028 20 7 20C5.89543 20 5 19.1046 5 18C5 16.8954 5.89543 16 7 16C7.74028 16 8.38663 16.4022 8.73244 17ZM10.874 17H12V15H9.64582C10.2362 15.5211 10.6716 16.2138 10.874 17Z" fill="#FF8800"/>
</svg>
