<svg width="50" height="50" viewBox="0 0 50 50" fill="none" xmlns="http://www.w3.org/2000/svg">
<path d="M45 15C45 14.6936 44.8269 14.4134 44.5528 14.2764L28.1708 6.08541C28.0585 6.02924 27.9346 6 27.809 6C27.3622 6 27 6.36221 27 6.80902V6.875C27 6.95791 27.0118 7.0404 27.035 7.12L28.4583 12H25C17.8203 12 12 17.8203 12 25V45H18V25C18 21.134 21.134 18 25 18H28.4583L27.035 22.88C27.0118 22.9596 27 23.0421 27 23.125V23.191C27 23.6378 27.3622 24 27.809 24C27.9346 24 28.0585 23.9708 28.1708 23.9146L44.5528 15.7236C44.8269 15.5866 45 15.3064 45 15Z" fill="black"/>
</svg>
