<svg width="30" height="30" viewBox="0 0 30 30" fill="none" xmlns="http://www.w3.org/2000/svg">
<path fill-rule="evenodd" clip-rule="evenodd" d="M21 28.0001C24.866 28.0001 28 24.8661 28 21.0001C28 17.1341 24.866 14.0001 21 14.0001C17.134 14.0001 14 17.1341 14 21.0001C14 24.8661 17.134 28.0001 21 28.0001ZM24.7071 22.7071C25.0976 22.3166 25.0976 21.6834 24.7071 21.2929C24.3166 20.9024 23.6834 20.9024 23.2929 21.2929L22 22.5858V17C22 16.4477 21.5523 16 21 16C20.4477 16 20 16.4477 20 17V22.5858L18.7071 21.2929C18.3166 20.9024 17.6834 20.9024 17.2929 21.2929C16.9024 21.6834 16.9024 22.3166 17.2929 22.7071L20.2929 25.7071C20.6834 26.0976 21.3166 26.0976 21.7071 25.7071L24.7071 22.7071Z" fill="#FF8800"/>
</svg>
