<svg width="30" height="30" viewBox="0 0 30 30" fill="none" xmlns="http://www.w3.org/2000/svg">
<path fill-rule="evenodd" clip-rule="evenodd" d="M8.91465 21.0001H11.5121C11.1805 20.0617 11 19.0519 11 18C11 16.1499 11.5583 14.4301 12.5155 13H9.02759L9.69425 9H20.3057L20.3066 9.00512C21.0244 9.02915 21.721 9.13724 22.3866 9.31986L22.2785 8.6712C22.1178 7.70683 21.2834 7 20.3057 7H9.69425C8.71658 7 7.8822 7.70683 7.72147 8.6712L7 13L6 13.0001C5.44772 13.0001 5 13.4478 5 14.0001C5 14.5523 5.44772 15.0001 6 15.0001L6 21.0001H6.08535C6.03008 21.1564 6 21.3247 6 21.5001C6 22.3285 6.67157 23.0001 7.5 23.0001C8.32843 23.0001 9 22.3285 9 21.5001C9 21.3247 8.96992 21.1564 8.91465 21.0001ZM8 16.5001C8 15.6716 8.67157 15.0001 9.5 15.0001C10.3284 15.0001 11 15.6716 11 16.5001C11 17.3285 10.3284 18.0001 9.5 18.0001C8.67157 18.0001 8 17.3285 8 16.5001Z" fill="#FF8800"/>
<path fill-rule="evenodd" clip-rule="evenodd" d="M27 18C27 21.866 23.866 25 20 25C16.134 25 13 21.866 13 18C13 14.134 16.134 11 20 11C23.866 11 27 14.134 27 18ZM21 16V14H19V16H21ZM21 22V18H19V22H21Z" fill="#FF8800"/>
</svg>
