<svg width="30" height="30" viewBox="0 0 30 30" fill="none" xmlns="http://www.w3.org/2000/svg">
<path fill-rule="evenodd" clip-rule="evenodd" d="M8.89638 5.17896C9.11556 4.47757 9.76514 4 10.5 4C11.2348 4 11.8844 4.47757 12.1036 5.17897L14.4545 12.7017C14.6192 13.2289 14.3254 13.7897 13.7983 13.9545C13.2711 14.1192 12.7102 13.8254 12.5455 13.2983L12.1398 12H8.86018L8.45447 13.2983C8.28974 13.8254 7.72886 14.1192 7.20172 13.9545C6.67457 13.7897 6.38078 13.2289 6.54551 12.7017L8.89638 5.17896ZM10.5 6.75261L11.5148 10H9.48518L10.5 6.75261Z" fill="#FF8800"/>
<path d="M21 5C21 4.44772 20.5523 4 20 4C19.4477 4 19 4.44772 19 5V22.5858L17.7071 21.2929C17.3166 20.9024 16.6834 20.9024 16.2929 21.2929C15.9024 21.6834 15.9024 22.3166 16.2929 22.7071L19.2877 25.7019C19.3061 25.7206 19.3252 25.7386 19.3451 25.7558C19.498 25.8885 19.6816 25.9672 19.8708 25.9917C19.9364 26.0002 20.0022 26.0022 20.0675 25.9977C20.3005 25.9821 20.529 25.8852 20.7071 25.7071L23.7071 22.7071C24.0976 22.3166 24.0976 21.6834 23.7071 21.2929C23.3166 20.9024 22.6834 20.9024 22.2929 21.2929L21 22.5858V5Z" fill="#FF8800"/>
<path d="M7 17C7 16.4477 7.44772 16 8 16H13C13.3635 16 13.6984 16.1973 13.8746 16.5152C14.0509 16.8332 14.0407 17.2217 13.848 17.53L9.80425 24H13C13.5523 24 14 24.4477 14 25C14 25.5523 13.5523 26 13 26H8C7.63647 26 7.30158 25.8027 7.12536 25.4848C6.94913 25.1668 6.95933 24.7783 7.152 24.47L11.1958 18H8C7.44772 18 7 17.5523 7 17Z" fill="#FF8800"/>
</svg>
