<svg width="30" height="30" viewBox="0 0 30 30" fill="none" xmlns="http://www.w3.org/2000/svg">
<path d="M9 5C6.79086 5 5 6.79086 5 9V21C5 23.2091 6.79086 25 9 25H21C23.2091 25 25 23.2091 25 21V20.2149C24.4581 20.5013 23.7857 20.7787 23 20.9141V21C23 22.1046 22.1046 23 21 23H9C7.89543 23 7 22.1046 7 21V9C7 7.89543 7.89543 7 9 7H21C22.1046 7 23 7.89543 23 9V10.3959C23.6444 9.97787 24.3176 9.60719 25 9.25279V9C25 6.79086 23.2091 5 21 5H9Z" fill="#FF8800"/>
<path d="M11 9C11.5523 9 12 9.44771 12 10V17.2676C12.5978 17.6134 13 18.2597 13 19C13 20.1046 12.1046 21 11 21C9.89543 21 9 20.1046 9 19C9 18.2597 9.4022 17.6134 10 17.2676V10C10 9.44772 10.4477 9 11 9Z" fill="#FF8800"/>
<path d="M15 11.5203C15.5579 11.232 16.2193 11 17 11C18.3058 11 19.278 11.6492 19.9902 12.1249L20.0547 12.1679C20.837 12.6895 21.3456 13 22 13C22.6544 13 23.163 12.6895 23.9453 12.1679L24.0098 12.1249C24.2962 11.9336 24.6247 11.7143 25 11.5203V13.8686L24.9902 13.8751C24.278 14.3508 23.3058 15 22 15C20.6942 15 19.722 14.3508 19.0098 13.8751L18.9453 13.8321C18.163 13.3105 17.6544 13 17 13C16.3456 13 15.837 13.3105 15.0547 13.8321L15 13.8686V11.5203Z" fill="#FF8800"/>
<path d="M15 15.5203C15.5579 15.232 16.2193 15 17 15C18.3058 15 19.278 15.6492 19.9902 16.1249L20.0547 16.1679C20.837 16.6895 21.3456 17 22 17C22.6544 17 23.163 16.6895 23.9453 16.1679L24.0098 16.1249C24.2962 15.9336 24.6247 15.7143 25 15.5203V17.8686L24.9902 17.8751C24.278 18.3508 23.3058 19 22 19C20.6942 19 19.722 18.3508 19.0098 17.8751L18.9453 17.8321C18.163 17.3105 17.6544 17 17 17C16.3456 17 15.837 17.3105 15.0547 17.8321L15 17.8686V15.5203Z" fill="#FF8800"/>
</svg>
