<svg width="30" height="30" viewBox="0 0 30 30" fill="none" xmlns="http://www.w3.org/2000/svg">
<path d="M24.8939 7H5.10607C3.33001 7 1.94277 8.53443 2.12126 10.3015L3.03035 19.3015C3.18513 20.8338 4.47506 22 6.01516 22H10.4182C10.8399 22.6045 11.5404 23 12.3333 23H15.0218C14.6341 22.3945 14.3441 21.7204 14.1739 21H12.3333C12.1492 21 12 20.8508 12 20.6667C12 20.2985 11.7015 20 11.3333 20H6.01516C5.50179 20 5.07182 19.6113 5.02023 19.1005L4.11113 10.1005C4.05164 9.51148 4.51405 9 5.10607 9H24.8939C25.4859 9 25.9483 9.51148 25.8888 10.1005L25.3738 15.1992C26.3061 16.2548 26.9007 17.6157 26.9887 19.1128L27.8787 10.3015C28.0572 8.53443 26.6699 7 24.8939 7Z" fill="#FF8800"/>
<path d="M15.8096 15C16.1749 14.6193 16.5861 14.283 17.0343 14H7.49997C7.22383 14 6.99997 14.2239 6.99997 14.5C6.99997 14.7761 7.22383 15 7.49997 15H15.8096Z" fill="#FF8800"/>
<path d="M6.99997 11H7.99997V12H6.99997V11Z" fill="#FF8800"/>
<path d="M8.99997 11H9.99997V12H8.99997V11Z" fill="#FF8800"/>
<path d="M12 11H11V12H12V11Z" fill="#FF8800"/>
<path d="M13 11H14V12H13V11Z" fill="#FF8800"/>
<path d="M17 11H16V12H17V11Z" fill="#FF8800"/>
<path d="M18 11H19V12H18V11Z" fill="#FF8800"/>
<path d="M21 11H20V12H21V11Z" fill="#FF8800"/>
<path d="M22 11H23V12H22V11Z" fill="#FF8800"/>
<path d="M7.99997 17V18H6.99997V17H7.99997Z" fill="#FF8800"/>
<path d="M8.99997 17H9.99997V18H8.99997V17Z" fill="#FF8800"/>
<path d="M12 17H11V18H12V17Z" fill="#FF8800"/>
<path d="M13 17H14V18H13V17Z" fill="#FF8800"/>
<path fill-rule="evenodd" clip-rule="evenodd" d="M20.5 24C21.3805 24 22.202 23.7471 22.8957 23.31L25.2929 25.7071C25.6834 26.0976 26.3166 26.0976 26.7071 25.7071C27.0976 25.3166 27.0976 24.6834 26.7071 24.2929L24.31 21.8957C24.7471 21.202 25 20.3805 25 19.5C25 17.0147 22.9853 15 20.5 15C18.0147 15 16 17.0147 16 19.5C16 21.9853 18.0147 24 20.5 24ZM20.5 22C21.8807 22 23 20.8807 23 19.5C23 18.1193 21.8807 17 20.5 17C19.1193 17 18 18.1193 18 19.5C18 20.8807 19.1193 22 20.5 22Z" fill="#FF8800"/>
</svg>
