<svg width="30" height="30" viewBox="0 0 30 30" fill="none" xmlns="http://www.w3.org/2000/svg">
<path opacity="0.2" d="M19.5 3L10.5 7.5L17 19L26 14.5L19.5 3Z" fill="#0049F9"/>
<path opacity="0.5" d="M24 22.5L15 27V18L17 19L24 15.5V22.5Z" fill="#0049F9"/>
<path d="M9 19.0002C9 18.5407 9.4835 18.2419 9.89443 18.4474L11.3367 19.1685C11.7432 19.3718 12 19.7873 12 20.2418V24.5002L9 23.0002V19.0002Z" fill="#0049F9"/>
<path d="M19.1436 2.06522C19.6005 1.89042 20.1245 2.0733 20.3701 2.5076L26.8701 14.0076C27.005 14.2462 27.0361 14.5297 26.9561 14.7918C26.876 15.0538 26.6924 15.2718 26.4473 15.3943L25 16.118V22.4998C25 22.8786 24.7861 23.2249 24.4473 23.3943L15.4473 27.8943C15.1658 28.0351 14.8343 28.0351 14.5528 27.8943L5.55276 23.3943C5.21397 23.2249 5.00002 22.8786 5.00002 22.4998V14.118L3.55276 13.3943C3.24471 13.2403 3.03793 12.9383 3.00491 12.5955C2.97194 12.2527 3.1177 11.9168 3.39065 11.7068L9.89065 6.70682L9.96877 6.65213C9.99593 6.63511 10.0241 6.61961 10.0528 6.60526L19.0528 2.10526L19.1436 2.06522ZM7.00002 21.8816L14 25.3816V18.618L7.00002 15.118V21.8816ZM17.4473 19.8943C17.1658 20.0351 16.8343 20.0351 16.5528 19.8943L16 19.618V25.3816L23 21.8816V17.118L17.4473 19.8943ZM11.8877 7.92362L17.4024 17.6795L24.6114 14.075L19.0967 4.31913L11.8877 7.92362ZM5.87502 12.3191L14.5176 16.6404L10.1963 8.99393L5.87502 12.3191Z" fill="#0049F9"/>
<path d="M20.7217 9.42782C20.8966 9.61088 21 9.85649 21 10.1182V13.3819C20.9999 13.7606 20.786 14.1071 20.4473 14.2765L19.4473 14.7765C19.1658 14.9172 18.8342 14.9172 18.5527 14.7765L17.5527 14.2765C17.214 14.1071 17.0001 13.7606 17 13.3819V10.1173C17.0001 9.86141 17.0987 9.62116 17.2666 9.43954C17.2486 9.45902 17.2312 9.47932 17.2148 9.50008C17.3043 9.61374 17.4185 9.70933 17.5527 9.77645L18.5527 10.2765C18.8342 10.4171 19.1658 10.4171 19.4473 10.2765L20.4473 9.77645C20.5813 9.70942 20.6947 9.61353 20.7842 9.50008C20.7646 9.47518 20.7436 9.4509 20.7217 9.42782Z" fill="#0049F9"/>
<path opacity="0.5" d="M18.5527 8.72322C18.8342 8.5825 19.1658 8.5825 19.4473 8.72322L20.4473 9.22322C20.5813 9.29025 20.6947 9.3861 20.7842 9.49958C20.6947 9.61315 20.5814 9.70887 20.4473 9.77595L19.4473 10.2759C19.1657 10.4167 18.8343 10.4167 18.5527 10.2759L17.5527 9.77595C17.4184 9.70878 17.3044 9.61336 17.2148 9.49958C17.3044 9.38589 17.4185 9.29034 17.5527 9.22322L18.5527 8.72322Z" fill="#0049F9"/>
</svg>
