<svg width="30" height="30" viewBox="0 0 30 30" fill="none" xmlns="http://www.w3.org/2000/svg">
<path opacity="0.5" d="M15.9541 10.2874C15.3825 9.9042 14.6175 9.9042 14.0459 10.2874L3.69654 17.2252C2.76782 17.8478 2.76782 19.1522 3.69654 19.7748L14.0459 26.7126C14.6175 27.0958 15.3825 27.0958 15.9541 26.7126L26.3035 19.7748C27.2322 19.1522 27.2322 17.8478 26.3035 17.2252L15.9541 10.2874Z" fill="#FF8800"/>
<path d="M15.9541 3.2874C15.3825 2.9042 14.6175 2.9042 14.0459 3.2874L3.69654 10.2252C2.76782 10.8478 2.76782 12.1522 3.69654 12.7748L14.0459 19.7126C14.6175 20.0958 15.3825 20.0958 15.9541 19.7126L26.3035 12.7748C27.2322 12.1522 27.2322 10.8478 26.3035 10.2252L15.9541 3.2874Z" fill="#FF8800"/>
</svg>
