<svg width="30" height="30" viewBox="0 0 30 30" fill="none" xmlns="http://www.w3.org/2000/svg">
<path d="M15.5 11C16.5 11 21 12 21 17C21 22 16.5 23 15.5 23C14.9477 23 14.5 22.5523 14.5 22V12C14.5 11.4477 14.9477 11 15.5 11Z" fill="#FF8800"/>
<path fill-rule="evenodd" clip-rule="evenodd" d="M15 7C17.7204 7 20.1854 8.08809 21.9883 9.85059L22.666 9.17383C23.0565 8.78344 23.6896 8.78353 24.0801 9.17383C24.4706 9.56433 24.4705 10.1974 24.0801 10.5879L23.2773 11.3896C24.3639 12.9896 25 14.9202 25 17C25 22.5228 20.5228 27 15 27C9.47715 27 5 22.5228 5 17C5 11.4772 9.47715 7 15 7ZM15 9C10.5817 9 7 12.5817 7 17C7 21.4183 10.5817 25 15 25C19.4183 25 23 21.4183 23 17C23 12.5817 19.4183 9 15 9Z" fill="#FF8800"/>
<path d="M17 3C17.5523 3 18 3.44772 18 4C18 4.55228 17.5523 5 17 5H13C12.4477 5 12 4.55228 12 4C12 3.44772 12.4477 3 13 3H17Z" fill="#FF8800"/>
</svg>
