<svg width="30" height="30" viewBox="0 0 30 30" fill="none" xmlns="http://www.w3.org/2000/svg">
<path d="M26 21C26.5523 21 27 21.4477 27 22C27 22.5523 26.5523 23 26 23H4C3.44772 23 3 22.5523 3 22C3 21.4477 3.44772 21 4 21H26ZM15 11C18.3137 11 21 13.6863 21 17C21 17.7014 20.8784 18.3743 20.6572 19H9.34277C9.12157 18.3743 9 17.7014 9 17C9 13.6863 11.6863 11 15 11ZM6 16C6.55228 16 7 16.4477 7 17C7 17.5523 6.55228 18 6 18H4C3.44772 18 3 17.5523 3 17C3 16.4477 3.44772 16 4 16H6ZM26 16C26.5523 16 27 16.4477 27 17C27 17.5523 26.5523 18 26 18H24C23.4477 18 23 17.5523 23 17C23 16.4477 23.4477 16 24 16H26ZM6.51465 8.51465C6.90512 8.12417 7.53817 8.12427 7.92871 8.51465L9.34277 9.92871C9.7333 10.3192 9.7333 10.9522 9.34277 11.3428C8.95225 11.7333 8.31924 11.7333 7.92871 11.3428L6.51465 9.92871C6.12427 9.53818 6.12417 8.90512 6.51465 8.51465ZM22.0713 8.51465C22.4618 8.12427 23.0949 8.12417 23.4854 8.51465C23.8758 8.90512 23.8757 9.53818 23.4854 9.92871L22.0713 11.3428C21.6808 11.7333 21.0478 11.7333 20.6572 11.3428C20.2667 10.9522 20.2667 10.3192 20.6572 9.92871L22.0713 8.51465ZM15 5C15.5523 5 16 5.44772 16 6V8C16 8.55228 15.5523 9 15 9C14.4477 9 14 8.55228 14 8V6C14 5.44772 14.4477 5 15 5Z" fill="#FF8800"/>
</svg>
