<svg width="30" height="30" viewBox="0 0 30 30" fill="none" xmlns="http://www.w3.org/2000/svg">
<path opacity="0.5" d="M23 4C24.1046 4 25 4.89543 25 6H5C5 4.89543 5.89543 4 7 4H23Z" fill="#FF8800"/>
<path fill-rule="evenodd" clip-rule="evenodd" d="M25 16C26.6569 16 28 17.3431 28 19V25C28 26.6569 26.6569 28 25 28H19C17.3431 28 16 26.6569 16 25V19C16 17.3431 17.3431 16 19 16H25ZM22.707 18.293C22.3165 17.9024 21.6835 17.9024 21.293 18.293C20.9024 18.6835 20.9024 19.3165 21.293 19.707L22.5859 21H19C18.4477 21 18 21.4477 18 22C18 22.5523 18.4477 23 19 23H22.5859L21.293 24.293C20.9024 24.6835 20.9024 25.3165 21.293 25.707C21.6835 26.0976 22.3165 26.0976 22.707 25.707L25.707 22.707C26.0976 22.3165 26.0976 21.6835 25.707 21.293L22.707 18.293Z" fill="#FF8800"/>
<path d="M25 6C26.1046 6 27 6.89543 27 8V14H20.374L20.0791 11.6357C20.0276 11.2238 19.8404 10.8405 19.5469 10.5469C19.2405 10.2406 18.8384 10.0513 18.4111 10.0088L18.2266 10H11.7734C11.2784 10.0001 10.8032 10.1969 10.4531 10.5469L10.3477 10.6611C10.1145 10.9367 9.96597 11.2753 9.9209 11.6357L9.625 14H9C8.44782 14.0001 8 14.4478 8 15C8 15.5522 8.44782 15.9999 9 16V20C9 20.5522 9.4478 20.9999 10 21C10.5522 20.9999 11 20.5522 11 20H14V24H5C3.89543 24 3 23.1046 3 22V8C3 6.89543 3.89543 6 5 6H25Z" fill="#FF8800"/>
<path d="M12 16C12.5522 16.0001 13 16.4478 13 17C13 17.5522 12.5522 17.9999 12 18C11.4478 17.9999 11 17.5522 11 17C11 16.4478 11.4478 16.0001 12 16Z" fill="#FF8800"/>
<path d="M18.2266 11.5C18.3238 11.5001 18.4175 11.5387 18.4863 11.6074C18.544 11.6652 18.5807 11.7413 18.5908 11.8223L18.8633 14.0029C18.1316 14.0226 17.4391 14.1985 16.8184 14.5H11.0742L11.4092 11.8223C11.4193 11.7413 11.456 11.6652 11.5137 11.6074C11.5825 11.5387 11.6762 11.5001 11.7734 11.5H18.2266Z" fill="#FF8800"/>
</svg>
