<svg width="30" height="30" viewBox="0 0 30 30" fill="none" xmlns="http://www.w3.org/2000/svg">
<path d="M7 6C6.44772 6 6 6.44772 6 7C6 7.55228 6.44772 8 7 8H9.58579L3.29289 14.2929C2.90237 14.6834 2.90237 15.3166 3.29289 15.7071C3.68342 16.0976 4.31658 16.0976 4.70711 15.7071L11 9.41421V12C11 12.5523 11.4477 13 12 13C12.5523 13 13 12.5523 13 12V7C13 6.44772 12.5523 6 12 6H7Z" fill="#FF8800"/>
<path d="M27 7.41421C27 6.63317 26.3668 6 25.5858 6C25.2107 6 24.851 6.149 24.5858 6.41421L9.41421 21.5858C9.149 21.851 9 22.2107 9 22.5858C9 23.3668 9.63316 24 10.4142 24H25C26.1046 24 27 23.1046 27 22V7.41421Z" fill="#FF8800"/>
</svg>
