<svg width="30" height="30" viewBox="0 0 30 30" fill="none" xmlns="http://www.w3.org/2000/svg">
<path fill-rule="evenodd" clip-rule="evenodd" d="M20.7654 26.8478C20.018 27.1573 19.1578 26.9862 18.5858 26.4142L15 22.8284L11.4142 26.4142C10.8422 26.9862 9.98198 27.1573 9.23463 26.8478C8.48728 26.5382 8 25.8089 8 25V6C8 4.34315 9.34315 3 11 3H19C20.6569 3 22 4.34315 22 6V25C22 25.8089 21.5127 26.5382 20.7654 26.8478ZM15 20L20 25V6C20 5.44772 19.5523 5 19 5H11C10.4477 5 10 5.44772 10 6V25L15 20Z" fill="#FF8800"/>
</svg>
