<svg width="30" height="30" viewBox="0 0 30 30" fill="none" xmlns="http://www.w3.org/2000/svg">
<path d="M24 24.1758C24 24.0574 23.9702 23.9487 23.9277 23.8398L15.7041 5.45605C15.5798 5.17858 15.3041 5 15 5V22.5L22.874 24.9609C22.9706 24.991 23.075 25 23.1758 25C23.6309 25 24 24.6309 24 24.1758ZM26 24.1758C26 25.7488 24.6878 27 23.1328 27C22.8428 27 22.5542 26.9556 22.2773 26.8691L15 24.5947L7.72266 26.8691C7.43082 26.9603 7.12938 27 6.82422 27C5.26453 27 4 25.7355 4 24.1758C4.00002 23.7784 4.08381 23.3852 4.24609 23.0225L12.5605 4.45703C13.0411 3.56459 13.9755 3 15 3C16.0245 3 16.9589 3.56458 17.4395 4.45703L25.7539 23.0225C25.9162 23.3852 26 23.7784 26 24.1758Z" fill="#FF8800"/>
<path opacity="0.5" d="M22.8736 24.9605L15 22.5V5C15.3042 5 15.58 5.17875 15.7042 5.45641L23.9282 23.8394C23.9755 23.9453 24 24.0599 24 24.1759C24 24.6311 23.6311 25 23.1759 25H23.1324C23.0446 25 22.9574 24.9867 22.8736 24.9605Z" fill="#FF8800"/>
</svg>
