<svg width="30" height="30" viewBox="0 0 30 30" fill="none" xmlns="http://www.w3.org/2000/svg">
<path opacity="0.6" d="M9 11C8.44772 11 8 11.4477 8 12V27H22V12C22 11.4477 21.5523 11 21 11H17C18.6569 11 20 12.3431 20 14C20 15.6569 18.6569 17 17 17H13C11.3431 17 10 15.6569 10 14C10 12.3431 11.3431 11 13 11H9Z" fill="#FF8800"/>
<path d="M15.0001 2C15.5524 2 16.0001 2.44772 16.0001 3V5C16.0001 5.55228 15.5524 6 15.0001 6C14.4478 6 14.0001 5.55228 14.0001 5V3C14.0001 2.44772 14.4478 2 15.0001 2Z" fill="#FF8800"/>
<path d="M22.5548 4.16795C23.0143 4.4743 23.1385 5.09517 22.8322 5.5547L21.8322 7.0547C21.5258 7.51423 20.9049 7.6384 20.4454 7.33205C19.9859 7.0257 19.8617 6.40483 20.1681 5.9453L21.1681 4.4453C21.4744 3.98577 22.0953 3.8616 22.5548 4.16795Z" fill="#FF8800"/>
<path d="M7.16806 5.5547C6.8617 5.09517 6.98588 4.4743 7.44541 4.16795C7.90493 3.8616 8.5258 3.98577 8.83216 4.4453L9.83216 5.9453C10.1385 6.40483 10.0143 7.0257 9.55481 7.33205C9.09528 7.6384 8.47441 7.51423 8.16806 7.0547L7.16806 5.5547Z" fill="#FF8800"/>
<path d="M13 13C12.4477 13 12 13.4477 12 14C12 14.5523 12.4477 15 13 15H17C17.5523 15 18 14.5523 18 14C18 13.4477 17.5523 13 17 13H13Z" fill="#FF8800"/>
<path d="M9.5 11H20.5C21.3284 11 22 11.6716 22 12.5V27H24V12.5C24 10.567 22.433 9 20.5 9H9.5C7.567 9 6 10.567 6 12.5V27H8V12.5C8 11.6716 8.67157 11 9.5 11Z" fill="#FF8800"/>
</svg>
