<svg width="30" height="30" viewBox="0 0 30 30" fill="none" xmlns="http://www.w3.org/2000/svg">
<path d="M16 13V18H17C17.5523 18 18 18.4477 18 19C18 19.5523 17.5523 20 17 20H13C12.4477 20 12 19.5523 12 19C12 18.4477 12.4477 18 13 18H14V14H13C12.4477 14 12 13.5523 12 13C12 12.4477 12.4477 12 13 12H15C15.5523 12 16 12.4477 16 13Z" fill="#FF8800"/>
<path d="M14.5 11C15.3284 11 16 10.3284 16 9.5C16 8.67157 15.3284 8 14.5 8C13.6716 8 13 8.67157 13 9.5C13 10.3284 13.6716 11 14.5 11Z" fill="#FF8800"/>
<path fill-rule="evenodd" clip-rule="evenodd" d="M15 27C21.6274 27 27 21.6274 27 15C27 8.37258 21.6274 3 15 3C8.37258 3 3 8.37258 3 15C3 21.6274 8.37258 27 15 27ZM15 25C20.5228 25 25 20.5228 25 15C25 9.47715 20.5228 5 15 5C9.47715 5 5 9.47715 5 15C5 20.5228 9.47715 25 15 25Z" fill="#FF8800"/>
</svg>
