<svg width="30" height="30" viewBox="0 0 30 30" fill="none" xmlns="http://www.w3.org/2000/svg">
<path fill-rule="evenodd" clip-rule="evenodd" d="M25.293 3.29297C25.6835 2.90244 26.3165 2.90244 26.707 3.29297C27.0976 3.68349 27.0976 4.31651 26.707 4.70703L4.70703 26.707C4.31651 27.0976 3.68349 27.0976 3.29297 26.707C2.90244 26.3165 2.90244 25.6835 3.29297 25.293L5.83789 22.7471C4.06838 20.6565 3 17.9534 3 15C3 8.37258 8.37258 3 15 3C17.9534 3 20.6565 4.06838 22.7471 5.83789L25.293 3.29297ZM6.16211 10.3203C5.42115 11.7168 5 13.309 5 15C5 16.6907 5.4214 18.2824 6.16211 19.6787C6.50285 19.487 6.95303 19.2715 7.5332 19.0605C8.03444 18.8783 8.63201 18.7 9.33887 18.543C9.12571 17.478 9 16.2993 9 15C9 13.7003 9.12559 12.5213 9.33887 11.4561C8.6321 11.299 8.03439 11.1217 7.5332 10.9395C6.95279 10.7284 6.5029 10.5121 6.16211 10.3203ZM11.3115 11.79C11.1164 12.7441 11 13.8113 11 15C11 15.8678 11.0634 16.6706 11.1729 17.4121L16.626 11.959C16.1141 11.9844 15.5727 12 15 12C13.5888 12 12.3667 11.9193 11.3115 11.79ZM14.874 5.34961C14.456 5.7119 13.8862 6.2792 13.3135 7.08105C12.8008 7.79886 12.2812 8.71074 11.8643 9.84082C12.7634 9.93848 13.8029 10 15 10C16.1967 10 17.2359 9.93842 18.1348 9.84082C17.7179 8.71088 17.1992 7.79879 16.6865 7.08105C16.1138 6.2792 15.544 5.7119 15.126 5.34961C15.0827 5.31208 15.0398 5.27822 15 5.24512C14.9602 5.27822 14.9173 5.31208 14.874 5.34961ZM12.0439 5.44336C10.1539 6.02732 8.5028 7.15668 7.27539 8.64746C7.5078 8.77004 7.81646 8.91497 8.2168 9.06055C8.65058 9.21828 9.19189 9.37857 9.85645 9.52246C10.3553 8.04978 11.016 6.85761 11.6865 5.91895C11.8057 5.75212 11.9255 5.59393 12.0439 5.44336ZM18.3135 5.91895C18.8602 6.68442 19.397 7.61981 19.8477 8.7373L21.3252 7.25977C20.3401 6.45341 19.201 5.82818 17.9551 5.44336C18.0737 5.59408 18.1942 5.75194 18.3135 5.91895Z" fill="#FF8800"/>
<path fill-rule="evenodd" clip-rule="evenodd" d="M25.5498 9.27734C26.4745 10.9783 27 12.9278 27 15C27 21.6274 21.6274 27 15 27C12.9278 27 10.9783 26.4745 9.27734 25.5498L10.7666 24.0605C11.1781 24.2531 11.6042 24.4198 12.0439 24.5557C11.9256 24.4053 11.8055 24.2477 11.6865 24.0811C11.5594 23.903 11.434 23.715 11.3086 23.5186L12.7617 22.0654C12.9432 22.3759 13.1286 22.6601 13.3135 22.9189C13.8862 23.7208 14.456 24.2881 14.874 24.6504C14.9172 24.6878 14.9603 24.7209 15 24.7539C15.0397 24.7209 15.0828 24.6878 15.126 24.6504C15.544 24.2881 16.1138 23.7208 16.6865 22.9189C17.1993 22.201 17.7178 21.2885 18.1348 20.1582C17.2359 20.0606 16.1967 20 15 20C14.9414 20 14.8831 20.0017 14.8252 20.002L16.7803 18.0469C17.4695 18.083 18.1041 18.1376 18.6875 18.209C18.835 17.488 18.937 16.7024 18.9785 15.8486L20.9648 13.8623C20.9866 14.2308 21 14.6099 21 15C21 16.2994 20.8733 17.4779 20.6602 18.543C21.3674 18.7001 21.9653 18.8782 22.4668 19.0605C23.0466 19.2714 23.4963 19.4871 23.8369 19.6787C24.5778 18.2823 25 16.6909 25 15C25 13.4867 24.6616 12.0531 24.0596 10.7676L25.5498 9.27734ZM20.1426 20.4766C19.6437 21.9495 18.984 23.1423 18.3135 24.0811C18.1943 24.2478 18.0735 24.4051 17.9551 24.5557C19.8454 23.9717 21.4961 22.8426 22.7236 21.3516C22.4914 21.2291 22.1829 21.0848 21.7832 20.9395C21.3492 20.7816 20.8077 20.6205 20.1426 20.4766Z" fill="#FF8800"/>
</svg>
