<svg width="30" height="30" viewBox="0 0 30 30" fill="none" xmlns="http://www.w3.org/2000/svg">
<path fill-rule="evenodd" clip-rule="evenodd" d="M24 4H6C4.34315 4 3 5.34315 3 7V9C3 9.91694 3.41138 10.7378 4.05964 11.2881C3.40184 12.0009 3 12.9535 3 14V22C3 24.2091 4.79086 26 7 26H23C25.2091 26 27 24.2091 27 22V14C27 12.9535 26.5982 12.0009 25.9404 11.2881C26.5886 10.7378 27 9.91695 27 9V7C27 5.34315 25.6569 4 24 4Z" fill="#2D3C53"/>
<path d="M5 14C5 12.8954 5.89543 12 7 12H23C24.1046 12 25 12.8954 25 14V22C25 23.1046 24.1046 24 23 24H7C5.89543 24 5 23.1046 5 22V14Z" fill="#1D73FA"/>
<path d="M11 14L15 17L11 20L11 18H10C9.44771 18 9 18.4477 9 19V22H7V19C7 17.3431 8.34315 16 10 16H11V14Z" fill="#E6F0FF"/>
<path opacity="0.5" d="M17 18C17 17.4477 17.4477 17 18 17H22C22.5523 17 23 17.4477 23 18C23 18.5523 22.5523 19 22 19H18C17.4477 19 17 18.5523 17 18Z" fill="#E6F0FF"/>
<path opacity="0.7" d="M5 7C5 6.44772 5.44772 6 6 6H24C24.5523 6 25 6.44772 25 7V9C25 9.55228 24.5523 10 24 10H6C5.44772 10 5 9.55228 5 9V7Z" fill="#1D73FA"/>
</svg>
