<svg width="30" height="30" viewBox="0 0 30 30" fill="none" xmlns="http://www.w3.org/2000/svg">
<path d="M10 11C9.44772 11 9 11.4477 9 12C9 12.5523 9.44772 13 10 13H20C20.5523 13 21 12.5523 21 12C21 11.4477 20.5523 11 20 11H10Z" fill="#FF8800"/>
<path d="M12 15C11.4477 15 11 15.4477 11 16C11 16.5523 11.4477 17 12 17H18C18.5523 17 19 16.5523 19 16C19 15.4477 18.5523 15 18 15H12Z" fill="#FF8800"/>
<path d="M13 20C13 19.4477 13.4477 19 14 19H16C16.5523 19 17 19.4477 17 20C17 20.5523 16.5523 21 16 21H14C13.4477 21 13 20.5523 13 20Z" fill="#FF8800"/>
<path fill-rule="evenodd" clip-rule="evenodd" d="M27 15C27 21.6274 21.6274 27 15 27C8.37258 27 3 21.6274 3 15C3 8.37258 8.37258 3 15 3C21.6274 3 27 8.37258 27 15ZM25 15C25 20.5228 20.5228 25 15 25C9.47715 25 5 20.5228 5 15C5 9.47715 9.47715 5 15 5C20.5228 5 25 9.47715 25 15Z" fill="#FF8800"/>
</svg>
