<svg width="30" height="30" viewBox="0 0 30 30" fill="none" xmlns="http://www.w3.org/2000/svg">
<path fill-rule="evenodd" clip-rule="evenodd" d="M4 6C4.55228 6 5 6.44772 5 7V22H26C26.5523 22 27 22.4477 27 23C27 23.5523 26.5523 24 26 24H4C3.44772 24 3 23.5523 3 23V7C3 6.44772 3.44772 6 4 6Z" fill="#FF8800"/>
<path fill-rule="evenodd" clip-rule="evenodd" d="M12.6286 7.07152C12.8938 6.96544 13.1917 6.97783 13.4472 7.10557L19.4472 10.1056C19.6844 10.2242 19.8648 10.4322 19.9487 10.6838L21.8402 16.3583L24.5547 18.1679C25.0142 18.4743 25.1384 19.0952 24.832 19.5547C24.5257 20.0142 23.9048 20.1384 23.4453 19.8321L20.4453 17.8321C20.2603 17.7087 20.1216 17.5272 20.0513 17.3162L18.1823 11.7092L12.9544 9.09526L8.37138 10.9285C7.8586 11.1336 7.27663 10.8842 7.07151 10.3714C6.8664 9.85861 7.11582 9.27664 7.6286 9.07152L12.6286 7.07152Z" fill="#FF8800"/>
<path opacity="0.6" fill-rule="evenodd" clip-rule="evenodd" d="M7.2929 20.7071C6.90238 20.3166 6.90238 19.6834 7.2929 19.2929L10.2929 16.2929C10.3395 16.2463 10.3905 16.2045 10.4453 16.1679L13.4453 14.1679C13.5814 14.0772 13.7377 14.0212 13.9005 14.005L18.8048 13.5145L23.7127 12.0422C24.2417 11.8835 24.7991 12.1837 24.9578 12.7127C25.1165 13.2416 24.8164 13.7991 24.2874 13.9578L19.2874 15.4578C19.2261 15.4762 19.1632 15.4887 19.0995 15.495L14.3474 15.9702L11.6371 17.7771L8.70712 20.7071C8.31659 21.0976 7.68343 21.0976 7.2929 20.7071Z" fill="#FF8800"/>
</svg>
