<svg width="343" height="161" viewBox="0 0 343 161" fill="none" xmlns="http://www.w3.org/2000/svg">
<path d="M0 5.02222C0 2.37126 2.68629 0.222229 6 0.222229H337C340.314 0.222229 343 2.37126 343 5.02223V155.422C343 158.073 340.314 160.222 337 160.222H6C2.68629 160.222 0 158.073 0 155.422V5.02222Z" fill="#1C1C1D"/>
<path opacity="0.6" fill-rule="evenodd" clip-rule="evenodd" d="M171 148.222C208.555 148.222 239 117.778 239 80.2222C239 42.6669 208.555 12.2222 171 12.2222C133.445 12.2222 103 42.6669 103 80.2222C103 117.778 133.445 148.222 171 148.222ZM171 152.222C210.765 152.222 243 119.987 243 80.2222C243 40.4577 210.765 8.22223 171 8.22223C131.235 8.22223 99 40.4577 99 80.2222C99 119.987 131.235 152.222 171 152.222Z" fill="#3D3D40"/>
<g opacity="0.4">
<path d="M98.4454 160.222H104.543C81.6037 141.145 67 112.389 67 80.2222C67 48.0552 81.6037 19.2991 104.543 0.222229H98.4454C76.6726 19.9806 63 48.5047 63 80.2222C63 111.94 76.6726 140.464 98.4454 160.222Z" fill="#3D3D40"/>
<path d="M237.457 160.222H243.555C265.327 140.464 279 111.94 279 80.2222C279 48.5047 265.327 19.9806 243.555 0.222229H237.457C260.396 19.2991 275 48.0552 275 80.2222C275 112.389 260.396 141.145 237.457 160.222Z" fill="#3D3D40"/>
</g>
<g opacity="0.2">
<path d="M51.2488 160.222H56.0938C40.2763 137.546 31 109.967 31 80.2222C31 50.4773 40.2763 22.8989 56.0938 0.222229H51.2488C35.9323 23.1038 27 50.6199 27 80.2222C27 109.825 35.9324 137.341 51.2488 160.222Z" fill="#3D3D40"/>
<path d="M285.906 160.222H290.751C306.068 137.341 315 109.825 315 80.2222C315 50.6199 306.068 23.1038 290.751 0.222229H285.906C301.724 22.8989 311 50.4773 311 80.2222C311 109.967 301.724 137.546 285.906 160.222Z" fill="#3D3D40"/>
</g>
<path fill-rule="evenodd" clip-rule="evenodd" d="M198 98V80C199.657 80 201 78.6569 201 77C201 75.3431 199.657 74 198 74H195L192.836 61.0136C192.353 58.1205 189.85 56 186.917 56H155.083C152.15 56 149.647 58.1205 149.164 61.0136L147 74H144C142.343 74 141 75.3431 141 77C141 78.6569 142.343 80 144 80V99.5C144 101.985 146.015 104 148.5 104C150.985 104 153 101.985 153 99.5V98H189.256C189.09 98.4692 189 98.974 189 99.5C189 101.985 191.015 104 193.5 104C195.985 104 198 101.985 198 99.5C198 98.974 197.91 98.4692 197.744 98H198ZM186.917 62L188.917 74H153.083L155.083 62H186.917Z" fill="#455CED"/>
<path fill-rule="evenodd" clip-rule="evenodd" d="M188.917 74L186.917 62H155.083L153.083 74H188.917Z" fill="#D1E6FF"/>
<path d="M154.5 80.0002C152.015 80.0002 150 82.0149 150 84.5002C150 86.9855 152.015 89.0002 154.5 89.0002C156.985 89.0002 159 86.9855 159 84.5002C159 82.0149 156.985 80.0002 154.5 80.0002Z" fill="#FFBF00"/>
<path d="M187.5 80.0002C185.015 80.0002 183 82.0149 183 84.5002C183 86.9855 185.015 89.0002 187.5 89.0002C189.985 89.0002 192 86.9855 192 84.5002C192 82.0149 189.985 80.0002 187.5 80.0002Z" fill="#FFBF00"/>
<path d="M204 86C204 95.9411 195.941 104 186 104C176.059 104 168 95.9411 168 86C168 76.0589 176.059 68 186 68C195.941 68 204 76.0589 204 86Z" fill="#FFC107"/>
<path d="M189 80V74L183 74L183 80H189Z" fill="#2D3C53"/>
<path d="M189 98L189 86H183L183 98H189Z" fill="#2D3C53"/>
</svg>
