<svg width="30" height="30" viewBox="0 0 30 30" fill="none" xmlns="http://www.w3.org/2000/svg">
<path opacity="0.7" d="M13 6C14.1046 6 15 6.89543 15 8V9H23C24.1046 9 25 9.89543 25 11V19C25 21.7614 22.7614 24 20 24H7C5.89543 24 5 23.1046 5 22V8C5 6.89543 5.89543 6 7 6H13Z" fill="#FF8800"/>
<path d="M28.1056 15.7889C28.5165 14.967 27.9189 14 27 14H10.2361C9.47853 14 8.786 14.428 8.44721 15.1056L5.17082 21.6584C5.05848 21.883 5 22.1308 5 22.382C5 23.2756 5.72442 24 6.61803 24H22.7639C23.5215 24 24.214 23.572 24.5528 22.8944L28.1056 15.7889Z" fill="#FF8800"/>
</svg>
