<svg width="30" height="30" viewBox="0 0 30 30" fill="none" xmlns="http://www.w3.org/2000/svg">
<path d="M3 20.2357C3 21.7624 4.2376 23 5.76425 23H15.6825C15.7882 23.0702 15.8963 23.1372 16.0066 23.2008C16.1099 24.764 17.4106 26 19 26C20.5894 26 21.8901 24.764 21.9934 23.2008C22.9097 22.6726 23.6726 21.9097 24.2008 20.9934C25.764 20.8901 27 19.5894 27 18C27 16.4106 25.764 15.1099 24.2008 15.0066C23.6726 14.0903 22.9097 13.3274 21.9934 12.7992C21.8901 11.236 20.5894 10 19 10C18.2685 10 17.5982 10.2618 17.0776 10.6968L15.4341 8.28644C14.8853 7.48156 13.9742 7 13 7C12.0258 7 11.1147 7.48156 10.5659 8.28644L3.48035 18.6785C3.16739 19.1376 3 19.6802 3 20.2357Z" fill="#404040"/>
<path d="M5.76425 21C5.34217 21 5 20.6578 5 20.2357C5 20.0822 5.04628 19.9321 5.13281 19.8052L12.2183 9.41311C12.3946 9.15464 12.6872 9 13 9C13.3128 9 13.6054 9.15464 13.7817 9.41311L20.8672 19.8052C20.9537 19.9321 21 20.0822 21 20.2357C21 20.6578 20.6578 21 20.2357 21H5.76425Z" fill="url(#paint0_linear_1903_15690)"/>
<path d="M16.6147 13.5682L13.7817 9.41311C13.6054 9.15464 13.3128 9 13 9C12.6872 9 12.3946 9.15464 12.2183 9.41311L9.81866 12.9326L10.7105 14.4934C10.8895 14.8067 11.2227 15 11.5835 15C11.8502 15 12.1059 14.8941 12.2945 14.7055L13.8425 13.1575C13.9434 13.0566 14.0801 13 14.2227 13C14.3967 13 14.5595 13.0847 14.6722 13.2172C14.947 13.5402 15.5043 14.0991 16 14C16.2293 13.9541 16.4437 13.7678 16.6147 13.5682Z" fill="url(#paint1_linear_1903_15690)"/>
<path opacity="0.5" fill-rule="evenodd" clip-rule="evenodd" d="M24.2008 15.0066C25.764 15.1099 27 16.4106 27 18C27 19.5894 25.764 20.8901 24.2008 20.9934C23.6726 21.9097 22.9097 22.6726 21.9934 23.2008C21.8901 24.764 20.5894 26 19 26C17.4106 26 16.1099 24.764 16.0066 23.2008C15.0903 22.6726 14.3274 21.9097 13.7992 20.9934C12.236 20.8901 11 19.5894 11 18C11 16.4106 12.236 15.1099 13.7992 15.0066C14.3274 14.0903 15.0903 13.3274 16.0066 12.7992C16.1099 11.236 17.4106 10 19 10C20.5894 10 21.8901 11.236 21.9934 12.7992C22.9097 13.3274 23.6726 14.0903 24.2008 15.0066Z" fill="#404040"/>
<path fill-rule="evenodd" clip-rule="evenodd" d="M19 12C19.5523 12 20 12.4477 20 13V14.126C21.4056 14.4878 22.5122 15.5944 22.874 17H24C24.5523 17 25 17.4477 25 18C25 18.5523 24.5523 19 24 19H22.874C22.5122 20.4056 21.4056 21.5122 20 21.874V23C20 23.5523 19.5523 24 19 24C18.4477 24 18 23.5523 18 23V21.874C16.5944 21.5122 15.4878 20.4056 15.126 19H14C13.4477 19 13 18.5523 13 18C13 17.4477 13.4477 17 14 17H15.126C15.4878 15.5944 16.5944 14.4878 18 14.126V13C18 12.4477 18.4477 12 19 12ZM17 18C17 19.1046 17.8954 20 19 20C20.1046 20 21 19.1046 21 18C21 16.8954 20.1046 16 19 16C17.8954 16 17 16.8954 17 18Z" fill="#FFC107"/>
<defs>
<linearGradient id="paint0_linear_1903_15690" x1="8.5" y1="11" x2="18.5" y2="22" gradientUnits="userSpaceOnUse">
<stop stop-color="#5A8DDD"/>
<stop offset="1" stop-color="#1D73FA"/>
</linearGradient>
<linearGradient id="paint1_linear_1903_15690" x1="9.81866" y1="11" x2="17.1457" y2="11" gradientUnits="userSpaceOnUse">
<stop stop-color="#EDEDED"/>
<stop offset="1" stop-color="#EDEDED" stop-opacity="0.76"/>
</linearGradient>
</defs>
</svg>
