<svg width="30" height="30" viewBox="0 0 30 30" fill="none" xmlns="http://www.w3.org/2000/svg">
<path opacity="0.5" d="M12.2 24C12.269 24.3399 12.3553 24.6736 12.4578 25H11.5C11.2239 25 11 24.7761 11 24.5C11 24.2239 11.2239 24 11.5 24H12.2Z" fill="#FF8800"/>
<path opacity="0.1" d="M10 4C9.44772 4 9 4.44772 9 5V25C9 25.5523 9.44772 26 10 26H12.8321C12.2969 24.7751 12 23.4222 12 22C12 16.8147 15.9467 12.5511 21 12.0494V5C21 4.44772 20.5523 4 20 4H10Z" fill="#FF8800"/>
<path d="M20 2H10C8.34315 2 7 3.34315 7 5V25C7 26.6569 8.34314 28 10 28H13.9993C13.537 27.3845 13.144 26.714 12.8321 26H10C9.44772 26 9 25.5523 9 25V5C9 4.44772 9.44772 4 10 4H20C20.5523 4 21 4.44772 21 5V12.0494C21.3289 12.0167 21.6625 12 22 12C22.3375 12 22.6711 12.0167 23 12.0494V5C23 3.34315 21.6569 2 20 2Z" fill="#FF8800"/>
<path d="M13 5C12.4477 5 12 5.44772 12 6C12 6.55228 12.4477 7 13 7H17C17.5523 7 18 6.55228 18 6C18 5.44772 17.5523 5 17 5H13Z" fill="#FF8800"/>
<path d="M24 22C24 23.1046 23.1046 24 22 24C20.8954 24 20 23.1046 20 22C20 20.8954 20.8954 20 22 20C23.1046 20 24 20.8954 24 22Z" fill="#FF8800"/>
<path fill-rule="evenodd" clip-rule="evenodd" d="M14 22C14 26.4183 17.5817 30 22 30C26.4183 30 30 26.4183 30 22C30 17.5817 26.4183 14 22 14C17.5817 14 14 17.5817 14 22ZM20.9053 26.6213C20.961 26.8439 21.161 27 21.3904 27H22.6096C22.8391 27 23.039 26.8439 23.0947 26.6213L23.3044 25.7825C23.7936 25.6138 24.2399 25.3529 24.6224 25.0205L25.4548 25.2587C25.6754 25.3218 25.9106 25.2266 26.0253 25.0279L26.6349 23.9721C26.7496 23.7734 26.7144 23.5221 26.5495 23.3626L25.9276 22.7613C25.9751 22.5149 26 22.2603 26 22C26 21.7397 25.9751 21.4851 25.9276 21.2387L26.5495 20.6374C26.7144 20.4779 26.7497 20.2266 26.6349 20.0279L26.0253 18.9721C25.9106 18.7734 25.6754 18.6782 25.4548 18.7413L24.6224 18.9795C24.2399 18.6471 23.7936 18.3862 23.3044 18.2175L23.0947 17.3787C23.039 17.1561 22.8391 17 22.6096 17H21.3904C21.161 17 20.961 17.1561 20.9053 17.3787L20.6956 18.2175C20.2064 18.3862 19.7601 18.6471 19.3776 18.9795L18.5452 18.7413C18.3246 18.6782 18.0894 18.7734 17.9747 18.9721L17.3651 20.0279C17.2503 20.2266 17.2856 20.4779 17.4505 20.6374L18.0724 21.2387C18.0249 21.4851 18 21.7397 18 22C18 22.2603 18.0249 22.5149 18.0724 22.7613L17.4505 23.3626C17.2856 23.5221 17.2504 23.7734 17.3651 23.9721L17.9747 25.0279C18.0894 25.2266 18.3246 25.3218 18.5452 25.2587L19.3776 25.0205C19.7601 25.3529 20.2064 25.6138 20.6956 25.7825L20.9053 26.6213Z" fill="#FF8800"/>
</svg>
