<svg width="30" height="30" viewBox="0 0 30 30" fill="none" xmlns="http://www.w3.org/2000/svg">
<path d="M23 7H7C5.34315 7 4 8.34315 4 10V20C4 21.6569 5.34315 23 7 23H23C24.6569 23 26 21.6569 26 20V10C26 8.34315 24.6569 7 23 7Z" stroke="#474C6B" stroke-width="2"/>
<path d="M5 10C5 8.89543 5.89543 8 7 8H23C24.1046 8 25 8.89543 25 10V20C25 21.1046 24.1046 22 23 22H7C5.89543 22 5 21.1046 5 20V10Z" fill="#F0F2FE"/>
<path opacity="0.8" d="M17 11C17 10.4477 17.4477 10 18 10H22C22.5523 10 23 10.4477 23 11V11C23 11.5523 22.5523 12 22 12H18C17.4477 12 17 11.5523 17 11V11Z" fill="#474C6B"/>
<path opacity="0.5" d="M17 15C17 14.4477 17.4477 14 18 14H22C22.5523 14 23 14.4477 23 15V15C23 15.5523 22.5523 16 22 16H18C17.4477 16 17 15.5523 17 15V15Z" fill="#474C6B"/>
<path opacity="0.5" d="M17 19C17 18.4477 17.4477 18 18 18H22C22.5523 18 23 18.4477 23 19V19C23 19.5523 22.5523 20 22 20H18C17.4477 20 17 19.5523 17 19V19Z" fill="#474C6B"/>
<path d="M8 11H14V17H8V11Z" stroke="#4D65F8" stroke-width="2"/>
<rect x="7" y="10" width="2" height="10" fill="#4D65F8"/>
<path fill-rule="evenodd" clip-rule="evenodd" d="M11 14V12H13V14H11ZM11 14H9V16H11V14Z" fill="#030C45"/>
<path fill-rule="evenodd" clip-rule="evenodd" d="M7 6H23C25.2091 6 27 7.79086 27 10V20C27 22.2091 25.2091 24 23 24H7C4.79086 24 3 22.2091 3 20V10C3 7.79086 4.79086 6 7 6Z" fill="#474C6B"/>
<path d="M5 10C5 8.89543 5.89543 8 7 8H23C24.1046 8 25 8.89543 25 10V20C25 21.1046 24.1046 22 23 22H7C5.89543 22 5 21.1046 5 20V10Z" fill="#F0F2FE"/>
<path opacity="0.8" d="M17 11C17 10.4477 17.4477 10 18 10H22C22.5523 10 23 10.4477 23 11V11C23 11.5523 22.5523 12 22 12H18C17.4477 12 17 11.5523 17 11V11Z" fill="#474C6B"/>
<path opacity="0.5" d="M17 15C17 14.4477 17.4477 14 18 14H22C22.5523 14 23 14.4477 23 15V15C23 15.5523 22.5523 16 22 16H18C17.4477 16 17 15.5523 17 15V15Z" fill="#474C6B"/>
<path opacity="0.5" d="M17 19C17 18.4477 17.4477 18 18 18H22C22.5523 18 23 18.4477 23 19V19C23 19.5523 22.5523 20 22 20H18C17.4477 20 17 19.5523 17 19V19Z" fill="#474C6B"/>
<path fill-rule="evenodd" clip-rule="evenodd" d="M14 10C14.5523 10 15 10.4477 15 11V17C15 17.5523 14.5523 18 14 18H9V20H7V10H14ZM13 16H9V12H13V16Z" fill="#4D65F8"/>
<path d="M11 14V12H13V14H11Z" fill="#030C45"/>
<path d="M11 14H9V16H11V14Z" fill="#030C45"/>
</svg>
