<svg width="30" height="30" viewBox="0 0 30 30" fill="none" xmlns="http://www.w3.org/2000/svg">
<path d="M24.7735 9C26.0954 9 27.1191 10.1577 26.9571 11.4697L25.8956 20.0693C25.7595 21.1717 24.8228 22 23.712 22H19.4961C19.0399 22.6061 18.3171 23 17.5 23H12.5C11.683 23 10.9601 22.6061 10.504 22H6.28813C5.17734 22 4.24064 21.1717 4.10454 20.0693L3.04301 11.4697C2.88104 10.1577 3.90466 9 5.22661 9H24.7735Z" fill="#2D3C53"/>
<path d="M24.7737 11H5.22615C5.10597 11 5.01293 11.1052 5.02766 11.2245L6.08939 19.8245C6.10176 19.9247 6.1869 20 6.28788 20H11.9999V20.5C11.9999 20.7761 12.2238 21 12.4999 21H17.4999C17.7761 21 17.9999 20.7761 17.9999 20.5V20H23.712C23.813 20 23.8981 19.9247 23.9105 19.8245L24.9722 11.2245C24.987 11.1052 24.8939 11 24.7737 11Z" fill="#237BFF"/>
<path d="M7.99997 18H6.99997V17H7.99997V18Z" fill="#D1E6FF"/>
<path d="M9.99997 18H8.99997V17H9.99997V18Z" fill="#D1E6FF"/>
<path d="M12 18H11V17H12V18Z" fill="#D1E6FF"/>
<path d="M14 18H13V17H14V18Z" fill="#D1E6FF"/>
<path d="M17 18H16V17H17V18Z" fill="#D1E6FF"/>
<path d="M19 18H18V17H19V18Z" fill="#D1E6FF"/>
<path d="M21 18H20V17H21V18Z" fill="#D1E6FF"/>
<path d="M23 18H22V17H23V18Z" fill="#D1E6FF"/>
<path d="M23 16H6.99997V15H23V16Z" fill="#D1E6FF"/>
<path d="M7.99997 14H6.99997V13H7.99997V14Z" fill="#D1E6FF"/>
<path d="M9.99997 14H8.99997V13H9.99997V14Z" fill="#D1E6FF"/>
<path d="M12 14H11V13H12V14Z" fill="#D1E6FF"/>
<path d="M14 14H13V13H14V14Z" fill="#D1E6FF"/>
<path d="M17 14H16V13H17V14Z" fill="#D1E6FF"/>
<path d="M19 14H18V13H19V14Z" fill="#D1E6FF"/>
<path d="M21 14H20V13H21V14Z" fill="#D1E6FF"/>
<path d="M23 14H22V13H23V14Z" fill="#D1E6FF"/>
<path d="M27 19.5C27 23.6421 23.6421 27 19.5 27C15.3579 27 12 23.6421 12 19.5C12 15.3579 15.3579 12 19.5 12C23.6421 12 27 15.3579 27 19.5Z" fill="#2D3C53"/>
<path d="M25 19.5C25 22.5376 22.5376 25 19.5 25C16.4624 25 14 22.5376 14 19.5C14 16.4624 16.4624 14 19.5 14C22.5376 14 25 16.4624 25 19.5Z" fill="#FFC107"/>
<path fill-rule="evenodd" clip-rule="evenodd" d="M20 18.5V15.5L17 20.5H19L19 23.5L22 18.5H20Z" fill="#6B5000"/>
</svg>
