<svg width="20" height="20" viewBox="0 0 20 20" fill="none" xmlns="http://www.w3.org/2000/svg">
<path d="M10.4995 6.9995C11.88 6.9995 12.9992 8.119 12.9995 9.4995C12.9995 10.8802 11.8802 11.9995 10.4995 11.9995C9.11893 11.9993 7.99948 10.8801 7.99948 9.4995C7.99973 8.11911 9.11908 6.99968 10.4995 6.9995Z" fill="#FF8800"/>
<path fill-rule="evenodd" clip-rule="evenodd" d="M9.74851 2.68602L13.0444 3.3452C13.1091 3.35814 13.176 3.35812 13.2407 3.3452L16.145 2.76512C16.4156 2.71117 16.6786 2.88617 16.7329 3.15672L17.3139 6.06102C17.3268 6.12547 17.3268 6.19188 17.3139 6.25633L16.6548 9.55223C16.6418 9.61688 16.6419 9.68387 16.6548 9.74852L17.3139 13.0444C17.3269 13.1091 17.3268 13.1761 17.3139 13.2407L16.7007 16.3081C16.6611 16.506 16.506 16.6611 16.3081 16.7007L13.2407 17.314C13.176 17.3269 13.1091 17.3269 13.0444 17.314L9.74851 16.6548C9.68385 16.6419 9.61687 16.6418 9.55222 16.6548L6.25632 17.314C6.19187 17.3268 6.12546 17.3268 6.06101 17.314L3.15671 16.7329C2.88615 16.6787 2.71115 16.4156 2.76511 16.145L3.34519 13.2407C3.3581 13.176 3.35812 13.1091 3.34519 13.0444L2.68601 9.74852C2.67313 9.6839 2.67308 9.61685 2.68601 9.55223L3.34519 6.25633C3.35804 6.19182 3.35805 6.12553 3.34519 6.06102L2.81394 3.40184C2.74413 3.05212 3.05211 2.74414 3.40183 2.81395L6.06101 3.3452C6.12552 3.35806 6.19181 3.35805 6.25632 3.3452L9.55222 2.68602C9.61683 2.6731 9.68388 2.67314 9.74851 2.68602ZM10.4995 5.9995C8.5668 5.99968 6.99973 7.56683 6.99948 9.4995C6.99948 10.2852 7.2586 11.0111 7.69577 11.5952L6.14597 13.146C5.95094 13.3411 5.95114 13.6578 6.14597 13.853C6.3412 14.0482 6.65773 14.0482 6.853 13.853L8.4028 12.3022C8.98713 12.7401 9.71312 12.9994 10.4995 12.9995C12.4325 12.9995 13.9995 11.4325 13.9995 9.4995C13.9992 7.56671 12.4323 5.9995 10.4995 5.9995Z" fill="#FF8800"/>
</svg>
