<svg width="49" height="48" viewBox="0 0 49 48" fill="none" xmlns="http://www.w3.org/2000/svg">
<g id="ic_custom_bluetooth_off">
<g id="Union">
<path fill-rule="evenodd" clip-rule="evenodd" d="M43.2314 7.53142C43.8562 6.90658 43.8562 5.89352 43.2314 5.26868C42.6065 4.64384 41.5935 4.64384 40.9686 5.26868L32.5 13.7373L25.6314 6.86872C25.1738 6.41113 24.4856 6.27424 23.8877 6.52189C23.2898 6.76954 22.9 7.35296 22.9 8.0001V20.1373L14.4314 11.6687C13.8065 11.0438 12.7935 11.0438 12.1686 11.6687C11.5438 12.2935 11.5438 13.3066 12.1686 13.9314L22.2373 24.0001L5.76862 40.4687C5.14378 41.0935 5.14378 42.1066 5.76862 42.7314C6.39346 43.3563 7.40652 43.3563 8.03136 42.7314L43.2314 7.53142ZM26.1 20.1374L30.2372 16.0001L26.1 11.8628V20.1374Z" fill="#A49DAF"/>
<path d="M22.9 40V33.3255L26.1 30.1255V36.1373L30.2372 32L27.2314 28.9942L29.4941 26.7314L33.6314 30.8687C34.2562 31.4935 34.2562 32.5066 33.6314 33.1314L25.6314 41.1314C25.1738 41.589 24.4856 41.7259 23.8877 41.4783C23.2898 41.2306 22.9 40.6472 22.9 40Z" fill="#A49DAF"/>
</g>
</g>
</svg>
