<svg width="30" height="30" viewBox="0 0 30 30" fill="none" xmlns="http://www.w3.org/2000/svg">
<path fill-rule="evenodd" clip-rule="evenodd" d="M21.6735 6C21.29 6 20.9152 6.10999 20.5963 6.31607C20.2775 6.52215 20.029 6.81506 19.8823 7.15776C19.7355 7.50046 19.6971 7.87755 19.7719 8.24136C19.8468 8.60516 20.0314 8.93934 20.3025 9.20163C20.5737 9.46392 20.9191 9.64254 21.2952 9.71491C21.6713 9.78727 22.0611 9.75013 22.4154 9.60818C22.7697 9.46623 23.0725 9.22585 23.2855 8.91743C23.4985 8.60901 23.6122 8.2464 23.6122 7.87547C23.6122 7.62918 23.5621 7.3853 23.4647 7.15776C23.3672 6.93022 23.2244 6.72347 23.0444 6.54931C22.8644 6.37516 22.6506 6.23701 22.4154 6.14276C22.1802 6.04851 21.9281 6 21.6735 6ZM8.35175 6.52063L7.55259 7.71493L16.3159 12.9287V12.9006L17.6994 12.1129C17.6939 12.6501 17.8326 13.1795 18.102 13.6493C18.3715 14.1191 18.7623 14.5131 19.2364 14.793L19.2671 14.8222L22.1876 16.5702L23.2346 14.997L20.2834 13.2202H20.2489C19.9107 13.0371 19.7374 12.6178 19.7374 12.0548V10.2787C19.7374 10.2701 19.7374 10.1962 19.7374 10.1913C19.7374 9.07277 18.8902 8.24081 17.5129 8.24081C16.1285 8.29812 14.8148 8.84792 13.8238 9.7847L8.35175 6.52063ZM11.9796 11.5023L11.4046 11.8811C11.1811 12.0845 11.0125 12.3377 10.9135 12.6187C10.8145 12.8996 10.7881 13.1998 10.8365 13.4929C10.885 13.786 11.007 14.0631 11.1917 14.3001C11.3764 14.5371 11.6183 14.7268 11.8962 14.8526L15.6067 16.4839L12.0393 18.4066L5.98296 15.1433L5 16.7168L17.2969 23.3297C18.1113 23.7791 19.0348 24.0104 19.9724 23.9996C20.826 24.0046 21.6687 23.8144 22.4319 23.4445L24 22.6013L23.0163 22.2224C21.639 22.8751 19.6591 22.5023 18.2818 21.7562L14.039 19.4843L16.6214 18.0859H16.652C16.9646 17.9054 17.2279 17.6553 17.4202 17.3563C17.6124 17.0573 17.728 16.7182 17.7571 16.3672C17.7683 16.0169 17.6865 15.6697 17.5197 15.3586C17.3529 15.0476 17.1065 14.783 16.804 14.59V14.5608C16.7796 14.5443 16.7653 14.548 16.7428 14.5315C15.4314 13.6485 13.8633 12.7131 13.6376 12.581L13.4825 12.4936L11.9796 11.5023Z" fill="#FF8800"/>
</svg>
