<svg width="30" height="30" viewBox="0 0 30 30" fill="none" xmlns="http://www.w3.org/2000/svg">
<path d="M3 9C3 6.79086 4.79086 5 7 5H19C21.2091 5 23 6.79086 23 9V21C23 23.2091 21.2091 25 19 25H7C4.79086 25 3 23.2091 3 21V9Z" fill="#595959"/>
<path d="M19 7C20.1046 7 21 7.89543 21 9V10.3959C21.8124 9.86888 22.6706 9.41714 23.5352 8.97837C24.2033 8.63933 25 9.12883 25 9.87802V18.4034C25 18.7376 24.8331 19.0496 24.5551 19.2352L24.1005 19.5386C24.0795 19.5526 24.0579 19.5671 24.0355 19.5821C23.4548 19.971 22.4097 20.6711 21 20.9141V21C21 22.1046 20.1046 23 19 23H7C5.89543 23 5 22.1046 5 21V9C5 7.89543 5.89543 7 7 7H19Z" fill="url(#paint0_linear_2102_23723)"/>
<path d="M9 9C9.55228 9 10 9.44771 10 10V17.2676C10.5978 17.6134 11 18.2597 11 19C11 20.1046 10.1046 21 9 21C7.89543 21 7 20.1046 7 19C7 18.2597 7.4022 17.6134 8 17.2676V10C8 9.44772 8.44772 9 9 9Z" fill="url(#paint1_linear_2102_23723)"/>
<path opacity="0.6" d="M13 15.5203C13.5579 15.232 14.2193 15 15 15C16.3058 15 17.278 15.6492 17.9902 16.1249L18.0547 16.1679C18.837 16.6895 19.3456 17 20 17C20.6544 17 21.163 16.6895 21.9453 16.1679L22.0098 16.1249C22.2962 15.9336 22.6247 15.7143 23 15.5203V17.8686L22.9902 17.8751C22.278 18.3508 21.3058 19 20 19C18.6942 19 17.722 18.3508 17.0098 17.8751L16.9453 17.8321C16.163 17.3105 15.6544 17 15 17C14.3456 17 13.837 17.3105 13.0547 17.8321L13 17.8686V15.5203Z" fill="#E9BA20"/>
<path d="M13 11.5203C13.5579 11.232 14.2193 11 15 11C16.3058 11 17.278 11.6492 17.9902 12.1249L18.0547 12.1679C18.837 12.6895 19.3456 13 20 13C20.6544 13 21.163 12.6895 21.9453 12.1679L22.0098 12.1249C22.2962 11.9336 22.6247 11.7143 23 11.5203V13.8686L22.9902 13.8751C22.278 14.3508 21.3058 15 20 15C18.6942 15 17.722 14.3508 17.0098 13.8751L16.9453 13.8321C16.163 13.3105 15.6544 13 15 13C14.3456 13 13.837 13.3105 13.0547 13.8321L13 13.8686V11.5203Z" fill="#E9BA20"/>
<defs>
<linearGradient id="paint0_linear_2102_23723" x1="18.2742" y1="7" x2="18.2742" y2="23" gradientUnits="userSpaceOnUse">
<stop/>
<stop offset="1" stop-color="#333333"/>
</linearGradient>
<linearGradient id="paint1_linear_2102_23723" x1="10" y1="5" x2="10" y2="21" gradientUnits="userSpaceOnUse">
<stop stop-color="#FFC107"/>
<stop offset="0.695" stop-color="#D2B138"/>
<stop offset="1" stop-color="#1D73FA"/>
</linearGradient>
</defs>
</svg>
