<svg width="60" height="60" viewBox="0 0 60 60" fill="none" xmlns="http://www.w3.org/2000/svg">
<g id="ic_custom_logo_osmand">
<path id="Logo &#226;&#128;&#147; w144, V3" fill-rule="evenodd" clip-rule="evenodd" d="M37.7778 46.4313C44.9599 43.3969 50 36.287 50 28C50 16.9543 41.0457 8 30 8C18.9543 8 10 16.9543 10 28C10 36.287 15.0401 43.3969 22.2222 46.4313C25.8333 48 27.2222 48.8333 28.3333 51.0556C28.4415 51.2719 28.5339 51.4778 28.6197 51.669C28.9746 52.4596 29.2171 53 30 53C30.7829 53 31.0254 52.4596 31.3803 51.669C31.4661 51.4778 31.5585 51.2719 31.6667 51.0556C32.7778 48.8333 34.065 48 37.7778 46.4313ZM30 39.1111C36.1365 39.1111 41.1111 34.1365 41.1111 28C41.1111 21.8635 36.1365 16.8889 30 16.8889C23.8635 16.8889 18.8889 21.8635 18.8889 28C18.8889 34.1365 23.8635 39.1111 30 39.1111Z" fill="#FF8800"/>
</g>
</svg>
