<svg width="30" height="30" viewBox="0 0 30 30" fill="none" xmlns="http://www.w3.org/2000/svg">
<path fill-rule="evenodd" clip-rule="evenodd" d="M17.8534 9H16V7H18.5C18.8935 7 19.2504 7.23078 19.4119 7.58963L20.8279 10.7362C21.2024 10.6323 21.5936 10.5623 22 10.5304C22.8189 10.4662 23.6993 10.5568 24.6288 10.8371C25.2264 11.0173 25.8441 11.2759 26.4789 11.6221L25.5212 13.3779L25.5199 13.3772C24.0428 12.5718 22.7879 12.3942 21.7557 12.5753C21.7247 12.5807 21.6939 12.5865 21.6633 12.5926L22.3223 14.0571C22.5426 14.0195 22.769 13.9999 23 13.9999C25.2091 13.9999 27 15.7908 27 17.9999C27 20.2091 25.2091 21.9999 23 21.9999C20.7909 21.9999 19 20.2091 19 17.9999C19 16.7373 19.585 15.6114 20.4987 14.8783L19.8516 13.4403C18.6515 14.3925 18 15.8821 18 17V17.905L10.9538 18.6096C10.6603 20.5294 9.00189 22 7 22C4.79086 22 3 20.2091 3 18C3 15.7909 4.79086 14 7 14C8.72393 14 10.1931 15.0906 10.7554 16.6195L11.9177 16.5032C11.8027 15.8133 11.5701 15.1578 11.2382 14.5612C10.62 13.45 9.65741 12.5434 8.46847 12L5.50001 12L5.5 10L9.16228 9.99998L12.1623 11H18.7534L17.8534 9ZM8.6241 16.8326C8.261 16.3283 7.66884 16 7 16C5.89543 16 5 16.8954 5 18C5 19.1046 5.89543 20 7 20C7.81135 20 8.50986 19.5169 8.82354 18.8226L7.09951 18.995C6.54996 19.05 6.05992 18.649 6.00497 18.0995C5.95001 17.5499 6.35096 17.0599 6.9005 17.0049L8.6241 16.8326ZM21.3772 16.8307C21.1399 17.1595 21 17.5634 21 17.9999C21 19.1045 21.8954 19.9999 23 19.9999C24.1046 19.9999 25 19.1045 25 17.9999C25 16.9632 24.2112 16.1107 23.2011 16.0099L23.9119 17.5896C24.1386 18.0932 23.914 18.6853 23.4104 18.9119C22.9067 19.1385 22.3147 18.914 22.0881 18.4103L21.3772 16.8307ZM17.4879 13H12.6244C13.2605 13.943 13.6984 15.0225 13.8904 16.1744L13.912 16.3038L16.0808 16.0869C16.2624 15.0353 16.7457 13.939 17.4879 13Z" fill="#FF8800"/>
</svg>
