<svg width="30" height="30" viewBox="0 0 30 30" fill="none" xmlns="http://www.w3.org/2000/svg">
<path d="M15 8C16.1046 8 17 7.10457 17 6C17 4.89543 16.1046 4 15 4C13.8954 4 13 4.89543 13 6C13 7.10457 13.8954 8 15 8Z" fill="#FF8800"/>
<path fill-rule="evenodd" clip-rule="evenodd" d="M14 20.1707V17.7324C13.4022 17.3866 13 16.7403 13 16V11C13 9.89543 13.8954 9 15 9C15.6325 9 16.1965 9.29365 16.563 9.75207C16.7732 9.9284 16.9581 10.1344 17.1116 10.3646L17.6807 11.2183C17.7448 11.3145 17.8183 11.4041 17.9 11.4858C18.2293 11.8151 18.5344 12 19 12H21V19.9612L17.885 22.1747C17.9599 22.4369 18 22.7138 18 23C18 24.6569 16.6569 26 15 26C13.3431 26 12 24.6569 12 23C12 21.6938 12.8348 20.5825 14 20.1707ZM17 16V13.3433C17.5816 13.7681 18.2374 14 19 14V19L16.7522 20.5646C16.5235 20.3998 16.2707 20.2664 16 20.1707V17.7324C16.5978 17.3866 17 16.7403 17 16Z" fill="#FF8800"/>
</svg>
