<svg width="30" height="30" viewBox="0 0 30 30" fill="none" xmlns="http://www.w3.org/2000/svg">
<path fill-rule="evenodd" clip-rule="evenodd" d="M15 3C15.5523 3 16 3.44772 16 4V5.0498C20.7244 5.51889 24.4811 9.27562 24.9502 14H26C26.5523 14 27 14.4477 27 15C27 15.5523 26.5523 16 26 16H24.9502C24.4811 20.7244 20.7243 24.4801 16 24.9492V26C16 26.5523 15.5523 27 15 27C14.4477 27 14 26.5523 14 26V24.9492C9.27566 24.4801 5.51889 20.7244 5.0498 16H4C3.44772 16 3 15.5523 3 15C3 14.4477 3.44772 14 4 14H5.0498C5.51889 9.27562 9.27562 5.51889 14 5.0498V4C14 3.44772 14.4477 3 15 3ZM15 7C14.6673 7 14.3396 7.02203 14.0176 7.06152C10.3908 7.50574 7.51655 10.3756 7.06445 14C7.02358 14.3277 7 14.6612 7 15C7 15.3388 7.02358 15.6723 7.06445 16C7.51581 19.6185 10.3815 22.4842 14 22.9355C14.3277 22.9764 14.6612 23 15 23C15.3388 23 15.6723 22.9764 16 22.9355C19.6185 22.4842 22.4842 19.6185 22.9355 16C22.9764 15.6723 23 15.3388 23 15C23 14.6612 22.9764 14.3277 22.9355 14C22.4834 10.3753 19.6087 7.50535 15.9814 7.06152C15.6597 7.0221 15.3323 7 15 7Z" fill="#FF8800"/>
</svg>
