<svg width="30" height="30" viewBox="0 0 30 30" fill="none" xmlns="http://www.w3.org/2000/svg">
<path fill-rule="evenodd" clip-rule="evenodd" d="M22.3842 2.46837C22.8623 2.19252 23.4742 2.3566 23.7504 2.83458L26.2504 7.16466C26.5266 7.64295 26.3625 8.2547 25.8842 8.53087L25.7465 8.60997C25.2886 8.87431 24.7093 8.73535 24.4184 8.30333L17.4565 12.2818C17.7979 12.7688 18.0004 13.3607 18.0004 14.0006C18.0003 14.8087 17.6784 15.5402 17.1586 16.0797L21.8949 25.5524C22.1417 26.0462 21.9414 26.6471 21.4477 26.8941C20.9538 27.1409 20.3529 26.9406 20.1059 26.4469L15.3705 16.9762C15.2492 16.9911 15.1258 17.0006 15.0004 17.0006C14.8747 17.0006 14.7509 16.9912 14.6293 16.9762L9.89494 26.4479C9.64791 26.9414 9.04692 27.1417 8.55315 26.8951C8.05943 26.6481 7.85921 26.0472 8.10588 25.5533L12.8412 16.0797C12.6072 15.8367 12.4148 15.5546 12.2729 15.2438L6.10881 18.7682C5.62945 19.0419 5.01861 18.8753 4.74455 18.3961L3.2553 15.7916C2.98134 15.3122 3.14798 14.7004 3.62737 14.4264L5.67326 13.2565L4.63908 11.5094C4.35816 11.0342 4.51561 10.4205 4.99065 10.1393C5.4658 9.85809 6.07939 10.0158 6.36076 10.4908L7.41057 12.2643L21.9145 3.97618L21.8793 3.91466C21.6035 3.43645 21.7674 2.82453 22.2455 2.54845L22.3842 2.46837ZM15.0004 13.0006C14.4481 13.0006 14.0004 13.4483 14.0004 14.0006C14.0007 14.5527 14.4483 15.0006 15.0004 15.0006C15.5524 15.0004 16.0001 14.5525 16.0004 14.0006C16.0004 13.4484 15.5525 13.0008 15.0004 13.0006Z" fill="#FF8800"/>
</svg>
