<svg width="30" height="30" viewBox="0 0 30 30" fill="none" xmlns="http://www.w3.org/2000/svg">
<path d="M6.46582 5.07183C7.3319 4.83199 8.25223 5.19986 8.71484 5.97026L11.1328 9.99956H14C14.4641 9.99956 14.9117 10.1611 15.2676 10.4527L15.4141 10.5855L18.376 13.5474C18.8877 12.625 19.8704 11.9996 21 11.9996C22.6567 11.9996 23.9998 13.3429 24 14.9996V15.9996C24.7677 15.9996 25.5353 16.2928 26.1211 16.8785C27.2926 18.05 27.2924 19.9491 26.1211 21.1207L23.1211 24.1207C22.5353 24.7064 21.7676 24.9996 21 24.9996H7C5.89543 24.9996 5 24.1041 5 22.9996V6.99956C5.0002 6.10085 5.59973 5.31182 6.46582 5.07183Z" fill="#373737"/>
<path d="M10 12H14L18 16L17.7129 16.0137C17.0435 16.0777 16.3916 16.3662 15.8789 16.8789C14.7073 18.0505 14.7073 19.9495 15.8789 21.1211L17.7578 23H7V7L10 12Z" fill="url(#paint0_linear_2173_22692)"/>
<path d="M24.707 18.293C25.0975 18.6835 25.0975 19.3165 24.707 19.707L21.707 22.707C21.3165 23.0976 20.6835 23.0976 20.293 22.707L17.293 19.707C16.9024 19.3165 16.9024 18.6835 17.293 18.293C17.6835 17.9024 18.3165 17.9024 18.707 18.293L20 19.5859V15C20 14.4477 20.4477 14 21 14C21.5523 14 22 14.4477 22 15V19.5859L23.293 18.293C23.6835 17.9024 24.3165 17.9024 24.707 18.293Z" fill="#FFC107"/>
<defs>
<linearGradient id="paint0_linear_2173_22692" x1="15" y1="7" x2="15" y2="23" gradientUnits="userSpaceOnUse">
<stop stop-color="#4C956C"/>
<stop offset="0.235577" stop-color="#4C956C"/>
<stop offset="1" stop-color="#FFC107"/>
</linearGradient>
</defs>
</svg>
