<svg width="30" height="30" viewBox="0 0 30 30" fill="none" xmlns="http://www.w3.org/2000/svg">
<path d="M6.95462 6.99748C9.91701 3.5275 16.0957 0.553217 23.2054 6.00605C30.3151 11.4589 26.4281 18.9822 21 20C17.5 20.6563 17 30.0364 8.50002 26C-0.894864 21.5386 3.99223 10.4675 6.95462 6.99748Z" fill="#14CC70"/>
<path d="M10.0001 9.99997C11.7243 7.97626 16.5 5.81015 20 8.49996C23.5 11.1898 22.1013 14.6542 19 15.5C17 16.0454 14.4472 24.354 9.49999 22C4.99991 19.8587 8.27588 12.0237 10.0001 9.99997Z" fill="#0DDE75"/>
<path fill-rule="evenodd" clip-rule="evenodd" d="M13.873 5.12516C11.6124 5.52485 9.7178 6.84113 8.4757 8.29606C7.21823 9.76899 5.44883 13.0385 5.08111 16.3478C4.90111 17.9677 5.06941 19.4824 5.68508 20.7786C6.28581 22.0434 7.38476 23.2563 9.35795 24.1934C11.2106 25.0732 12.3514 25.0938 13.0649 24.9166C13.7891 24.7368 14.4216 24.2684 15.0976 23.4687C15.436 23.0683 15.7568 22.6194 16.0977 22.1214C16.1759 22.0072 16.2572 21.8871 16.3408 21.7638C16.6004 21.3809 16.8816 20.966 17.1575 20.5929C17.8351 19.6766 18.9261 18.354 20.6315 18.0343C22.5908 17.6669 24.323 16.0888 24.88 14.1213C25.3892 12.3231 24.9822 9.88931 21.9882 7.59304C18.8284 5.16957 16.0651 4.73758 13.873 5.12516ZM23.2054 6.00605C16.0957 0.553217 9.91701 3.5275 6.95462 6.99748C3.99223 10.4675 -0.894864 21.5386 8.50002 26C14.0868 28.653 16.2176 25.51 18.0157 22.8576C18.9533 21.4746 19.8005 20.2249 21 20C26.4281 18.9822 30.3151 11.4589 23.2054 6.00605Z" fill="#1BBB6B"/>
<path fill-rule="evenodd" clip-rule="evenodd" d="M14.8157 9.42354C13.3326 9.79152 12.0868 10.6347 11.5225 11.297C10.9191 12.0052 9.79825 14.1363 9.38064 16.3299C9.17613 17.4042 9.17862 18.3078 9.36315 18.9671C9.52738 19.5537 9.82343 19.939 10.3593 20.194L9.49999 22C4.99991 19.8587 8.27588 12.0237 10.0001 9.99997C11.7243 7.97626 16.5 5.81015 20 8.49996C23.5 11.1898 22.1013 14.6542 19 15.5C18.3376 15.6806 17.6145 16.713 16.7638 17.9275C15.0462 20.3796 12.8086 23.5743 9.49999 22L10.3593 20.194C11.0362 20.516 11.494 20.4545 11.936 20.2457C12.4936 19.9824 13.1101 19.4274 13.804 18.5748C14.2697 18.0027 14.6612 17.4429 15.0682 16.8609C15.2871 16.548 15.5105 16.2286 15.7523 15.8974C16.0647 15.4696 16.4181 15.012 16.7962 14.6284C17.1413 14.2783 17.7053 13.78 18.4738 13.5704C19.4603 13.3014 19.9225 12.6962 20.026 12.2446C20.1066 11.893 20.0867 11.089 18.7813 10.0858C17.6435 9.21135 16.2499 9.06769 14.8157 9.42354Z" fill="#1BBB6B"/>
</svg>
