<svg width="30" height="30" viewBox="0 0 30 30" fill="none" xmlns="http://www.w3.org/2000/svg">
<path opacity="0.2" d="M24 15C24 19.9706 19.9706 24 15 24C10.0294 24 6 19.9706 6 15C6 10.0294 10.0294 6 15 6C19.9706 6 24 10.0294 24 15Z" fill="#FF8800"/>
<path d="M16 9C16 8.44772 15.5523 8 15 8C14.4477 8 14 8.44772 14 9V13.2675C13.4022 13.6133 13 14.2597 13 15C13 16.1045 13.8954 17 15 17C16.1046 17 17 16.1045 17 15C17 14.2597 16.5978 13.6133 16 13.2675V9Z" fill="#FF8800"/>
<path d="M9.50024 12C10.0525 12 10.5002 11.5523 10.5002 11C10.5002 10.4477 10.0525 10 9.50024 10C8.94795 10 8.50024 10.4477 8.50024 11C8.50024 11.5523 8.94795 12 9.50024 12Z" fill="#FF8800"/>
<path d="M21.4018 18.0029C21.93 18.1644 22.4891 17.8671 22.6505 17.339C22.812 16.8108 22.5147 16.2518 21.9866 16.0903C21.4584 15.9288 20.8994 16.2261 20.7379 16.7542C20.5764 17.2824 20.8737 17.8414 21.4018 18.0029Z" fill="#FF8800"/>
<path d="M20.5 10C21.0523 10 21.5 10.4477 21.5 11C21.5 11.5523 21.0523 12 20.5 12C19.9477 12 19.5 11.5523 19.5 11C19.5 10.4477 19.9477 10 20.5 10Z" fill="#FF8800"/>
<path d="M8.59842 18.0029C8.07027 18.1644 7.51122 17.8671 7.34975 17.339C7.18827 16.8108 7.48553 16.2518 8.01368 16.0903C8.54183 15.9288 9.10088 16.2261 9.26236 16.7542C9.42383 17.2824 9.12658 17.8414 8.59842 18.0029Z" fill="#FF8800"/>
<path fill-rule="evenodd" clip-rule="evenodd" d="M26 15C26 21.0751 21.0751 26 15 26C8.92487 26 4 21.0751 4 15C4 8.92487 8.92487 4 15 4C21.0751 4 26 8.92487 26 15ZM24 15C24 19.9706 19.9706 24 15 24C10.0294 24 6 19.9706 6 15C6 10.0294 10.0294 6 15 6C19.9706 6 24 10.0294 24 15Z" fill="#FF8800"/>
<path opacity="0.4" d="M12 21C12 20.4477 12.4477 20 13 20H17C17.5523 20 18 20.4477 18 21C18 21.5523 17.5523 22 17 22H13C12.4477 22 12 21.5523 12 21Z" fill="#FF8800"/>
</svg>
