<svg width="30" height="30" viewBox="0 0 30 30" fill="none" xmlns="http://www.w3.org/2000/svg">
<path d="M16 13C16 13.5523 15.5523 14 15 14C14.4477 14 14 13.5523 14 13C14 12.4477 14.4477 12 15 12C15.5523 12 16 12.4477 16 13Z" fill="#FF8800"/>
<path d="M15 16C15.5523 16 16 16.4477 16 17V22C16 22.5523 15.5523 23 15 23C14.4477 23 14 22.5523 14 22V17C14 16.4477 14.4477 16 15 16Z" fill="#FF8800"/>
<path fill-rule="evenodd" clip-rule="evenodd" d="M9 3C7.34315 3 6 4.34315 6 6V24C6 25.6569 7.34315 27 9 27H21C22.6569 27 24 25.6569 24 24V9.82843C24 9.03278 23.6839 8.26972 23.1213 7.70711L19.2929 3.87868C18.7303 3.31607 17.9672 3 17.1716 3H9ZM19 11H22V24C22 24.5523 21.5523 25 21 25H9C8.44772 25 8 24.5523 8 24V6C8 5.44772 8.44772 5 9 5H16V8C16 9.65685 17.3431 11 19 11ZM18 5.41421V8C18 8.55228 18.4477 9 19 9H21.5858L18 5.41421Z" fill="#FF8800"/>
</svg>
