<svg width="30" height="30" viewBox="0 0 30 30" fill="none" xmlns="http://www.w3.org/2000/svg">
<path fill-rule="evenodd" clip-rule="evenodd" d="M23 5L20 12L23 19H9V25H7V5H23Z" fill="#3E3E42"/>
<path fill-rule="evenodd" clip-rule="evenodd" d="M9 17H19.9669L17.8241 12L19.9669 7H9V17Z" fill="#FF8F00"/>
<path d="M13 19C13 22.866 16.134 26 20 26C23.866 26 27 22.866 27 19C27 18.6629 26.9762 18.3314 26.9301 18.007L17 19H13Z" fill="white" fill-opacity="0.3"/>
<path opacity="0.4" d="M11.0549 19H23L20 12L21.2489 9.08595C20.8407 9.02929 20.4238 9 20 9C15.0294 9 11 13.0294 11 18C11 18.338 11.0186 18.6717 11.0549 19Z" fill="black"/>
<path d="M25 18C25 20.7614 22.7614 23 20 23C17.2386 23 15 20.7614 15 18C15 15.2386 17.2386 13 20 13C22.7614 13 25 15.2386 25 18Z" fill="#FFC107"/>
<path fill-rule="evenodd" clip-rule="evenodd" d="M20 23C22.7614 23 25 20.7614 25 18C25 15.2386 22.7614 13 20 13C17.2386 13 15 15.2386 15 18C15 20.7614 17.2386 23 20 23ZM20 25C23.866 25 27 21.866 27 18C27 14.134 23.866 11 20 11C16.134 11 13 14.134 13 18C13 21.866 16.134 25 20 25Z" fill="#59361B"/>
<path fill-rule="evenodd" clip-rule="evenodd" d="M20 15C20.5523 15 21 15.4477 21 16V17.382L22.4472 18.1056C22.9412 18.3526 23.1414 18.9532 22.8944 19.4472C22.6474 19.9412 22.0468 20.1414 21.5528 19.8944L19.5528 18.8944C19.214 18.725 19 18.3788 19 18V16C19 15.4477 19.4477 15 20 15Z" fill="#59361B"/>
</svg>
