<svg width="30" height="30" viewBox="0 0 30 30" fill="none" xmlns="http://www.w3.org/2000/svg">
<path d="M11 10C11 9.44772 11.4477 9 12 9H14C14.5523 9 15 9.44772 15 10C15 10.5523 14.5523 11 14 11H12C11.4477 11 11 10.5523 11 10Z" fill="#FF8800"/>
<path d="M11 14C11 13.4477 11.4477 13 12 13H14C14.5523 13 15 13.4477 15 14C15 14.5523 14.5523 15 14 15H12C11.4477 15 11 14.5523 11 14Z" fill="#FF8800"/>
<path d="M11 18C11 17.4477 11.4477 17 12 17H19C19.5523 17 20 17.4477 20 18C20 18.5523 19.5523 19 19 19H12C11.4477 19 11 18.5523 11 18Z" fill="#FF8800"/>
<path d="M16 10C16 9.44772 16.4477 9 17 9H19C19.5523 9 20 9.44772 20 10V14C20 14.5523 19.5523 15 19 15H17C16.4477 15 16 14.5523 16 14V10Z" fill="#FF8800"/>
<path fill-rule="evenodd" clip-rule="evenodd" d="M10 5H21C22.6569 5 24 6.34315 24 8V22C24 23.6569 22.6569 25 21 25H7C4.79086 25 3 23.2091 3 21V16C3 14.3431 4.34315 13 6 13H7V8C7 6.34315 8.34315 5 10 5ZM7 15H6C5.44772 15 5 15.4477 5 16V21C5 22.1046 5.89543 23 7 23H7.53513C7.53513 23 7.53513 23 7.53513 23C7.19478 22.4116 7 21.7286 7 21V15ZM10 7H21C21.5523 7 22 7.44772 22 8V22C22 22.5523 21.5523 23 21 23H11C9.89543 23 9 22.1046 9 21V8C9 7.44772 9.44772 7 10 7Z" fill="#FF8800"/>
</svg>
