<svg width="30" height="30" viewBox="0 0 30 30" fill="none" xmlns="http://www.w3.org/2000/svg">
<path opacity="0.2" d="M12 14C12 13.4477 12.4477 13 13 13H17C17.5523 13 18 13.4477 18 14C18 14.5523 17.5523 15 17 15H13C12.4477 15 12 14.5523 12 14Z" fill="#FF8800"/>
<path d="M16.0001 3C16.0001 2.44772 15.5524 2 15.0001 2C14.4478 2 14.0001 2.44772 14.0001 3V5C14.0001 5.55228 14.4478 6 15.0001 6C15.5524 6 16.0001 5.55228 16.0001 5V3Z" fill="#FF8800"/>
<path d="M22.8322 5.5547C23.1385 5.09517 23.0143 4.4743 22.5548 4.16795C22.0953 3.8616 21.4744 3.98577 21.1681 4.4453L20.1681 5.9453C19.8617 6.40483 19.9859 7.0257 20.4454 7.33205C20.9049 7.6384 21.5258 7.51423 21.8322 7.0547L22.8322 5.5547Z" fill="#FF8800"/>
<path d="M7.44541 4.16795C6.98588 4.4743 6.8617 5.09517 7.16806 5.5547L8.16806 7.0547C8.47441 7.51423 9.09528 7.6384 9.55481 7.33205C10.0143 7.0257 10.1385 6.40483 9.83216 5.9453L8.83216 4.4453C8.5258 3.98577 7.90493 3.8616 7.44541 4.16795Z" fill="#FF8800"/>
<path d="M9.5 11H20.5C21.3284 11 22 11.6716 22 12.5V27H24V12.5C24 10.567 22.433 9 20.5 9H9.5C7.567 9 6 10.567 6 12.5V27H8V12.5C8 11.6716 8.67157 11 9.5 11Z" fill="#FF8800"/>
<path d="M13 13C12.4477 13 12 13.4477 12 14C12 14.5523 12.4477 15 13 15C13.5523 15 14 14.5523 14 14C14 13.4477 13.5523 13 13 13Z" fill="#FF8800"/>
<path d="M16 13C15.4477 13 15 13.4477 15 14C15 14.5523 15.4477 15 16 15H17C17.5523 15 18 14.5523 18 14C18 13.4477 17.5523 13 17 13H16Z" fill="#FF8800"/>
</svg>
