<svg width="30" height="30" viewBox="0 0 30 30" fill="none" xmlns="http://www.w3.org/2000/svg">
<path d="M23.0002 5C24.1047 5.00012 25.0002 5.8955 25.0002 7V23C25.0002 24.1045 24.1047 24.9999 23.0002 25H7.00023C5.47439 25 4.50043 23.279 5.28539 21.9707L7.81371 17.7559C6.74694 17.296 6.00023 16.2354 6.00023 15V14C5.23252 14 4.46491 13.7068 3.87914 13.1211C2.70756 11.9495 2.70756 10.0505 3.87914 8.87891L6.87914 5.87891C8.05072 4.70745 9.94979 4.70737 11.1213 5.87891L14.1213 8.87891C15.2927 10.0504 15.2927 11.9496 14.1213 13.1211C13.5356 13.7068 12.7679 13.9999 12.0002 14V15C12.0002 15.3511 11.9363 15.6869 11.8254 16H12.9016L19.385 5.82031C19.7599 5.30687 20.3594 5 21.0002 5H23.0002Z" fill="#404040"/>
<path d="M23 23H7L10 18H14L21 7H23V23Z" fill="url(#paint0_linear_2173_22703)"/>
<path d="M12.707 11.707C13.0975 11.3165 13.0975 10.6835 12.707 10.293L9.70702 7.29295C9.31649 6.90243 8.68348 6.90243 8.29295 7.29295L5.29295 10.293C4.90243 10.6835 4.90243 11.3165 5.29295 11.707C5.68348 12.0975 6.31649 12.0975 6.70702 11.707L7.99999 10.414V15C7.99999 15.5523 8.4477 16 8.99999 16C9.55227 16 9.99999 15.5523 9.99999 15V10.414L11.293 11.707C11.6835 12.0975 12.3165 12.0975 12.707 11.707Z" fill="#FFC107"/>
<defs>
<linearGradient id="paint0_linear_2173_22703" x1="15" y1="7" x2="15" y2="23" gradientUnits="userSpaceOnUse">
<stop offset="0.0625" stop-color="#FFC107"/>
<stop offset="0.740385" stop-color="#E71D36"/>
<stop offset="1" stop-color="#E71D36"/>
</linearGradient>
</defs>
</svg>
