<svg width="30" height="30" viewBox="0 0 30 30" fill="none" xmlns="http://www.w3.org/2000/svg">
<path opacity="0.2" d="M26 6C26.5523 6 27 6.44772 27 7V23C27 23.5523 26.5523 24 26 24H16C15.4477 24 15 23.5523 15 23V22H17.75C18.345 22 18.924 21.807 19.4 21.45L24.8 17.4C25.5554 16.8334 26 15.9443 26 15C26 14.0557 25.5554 13.1666 24.8 12.6L19.4 8.55C18.924 8.19299 18.345 8 17.75 8H15V7C15 6.44772 15.4477 6 16 6H26Z" fill="#FF8800"/>
<path d="M16 6C15.4477 6 15 6.44772 15 7V8H17V7C17 6.44772 16.5523 6 16 6Z" fill="#FF8800"/>
<path d="M11 13V12C11 11.4477 10.5523 11 10 11C9.44772 11 9 11.4477 9 12V13C9 13.5523 9.44772 14 10 14C10.5523 14 11 13.5523 11 13Z" fill="#FF8800"/>
<path d="M11 18V17C11 16.4477 10.5523 16 10 16C9.44772 16 9 16.4477 9 17V18C9 18.5523 9.44772 19 10 19C10.5523 19 11 18.5523 11 18Z" fill="#FF8800"/>
<path d="M17 23V22H15V23C15 23.5523 15.4477 24 16 24C16.5523 24 17 23.5523 17 23Z" fill="#FF8800"/>
<path d="M10 9C10.5523 9 11 8.55228 11 8V7C11 6.44772 10.5523 6 10 6C9.44772 6 9 6.44772 9 7V8C9 8.55228 9.44772 9 10 9Z" fill="#FF8800"/>
<path d="M4 6C3.44772 6 3 6.44772 3 7V23C3 23.5523 3.44772 24 4 24C4.55228 24 5 23.5523 5 23V7C5 6.44772 4.55228 6 4 6Z" fill="#FF8800"/>
<path d="M10 21C9.44772 21 9 21.4477 9 22V23C9 23.5523 9.44772 24 10 24C10.5523 24 11 23.5523 11 23V22C11 21.4477 10.5523 21 10 21Z" fill="#FF8800"/>
<path d="M17 10.75C17 10.3358 17.3358 10 17.75 10C17.9123 10 18.0702 10.0526 18.2 10.15L23.6 14.2C23.8518 14.3889 24 14.6852 24 15C24 15.3148 23.8518 15.6111 23.6 15.8L18.2 19.85C18.0702 19.9474 17.9123 20 17.75 20C17.3358 20 17 19.6642 17 19.25V17H14C13.4477 17 13 16.5523 13 16V14C13 13.4477 13.4477 13 14 13H17V10.75Z" fill="#FF8800"/>
</svg>
