<svg width="30" height="30" viewBox="0 0 30 30" fill="none" xmlns="http://www.w3.org/2000/svg">
<path d="M6.00014 9.9765L6.00112 9.95209L6.006 9.74603V9.71967L6.00795 9.69232C6.16902 6.52047 8.78978 3.99994 12.0001 3.99994H12.0236L12.048 4.00092L12.254 4.0058H12.2804L12.3078 4.00775C14.0432 4.09592 15.5829 4.92101 16.6222 6.17572C17.1706 5.46194 18.0304 4.99994 19.0001 4.99994H23.0001C24.6048 5.00018 25.9159 6.26045 25.9962 7.84564L26.0001 7.99994C26.0001 9.28723 25.1883 10.3817 24.0499 10.8076L26.1212 12.8788C27.2561 14.0139 27.2912 15.8312 26.2277 17.0087L26.1212 17.121C25.5354 17.7069 24.7678 18 24.0001 17.9999V19.9999C24.0001 23.3137 21.3136 25.9998 18.0001 25.9999H17.9767L17.9523 25.999L17.7462 25.9941H17.7199L17.6925 25.9921C16.1474 25.9137 14.7583 25.2504 13.7384 24.2206C13.2903 25.2242 12.3096 25.9374 11.1544 25.996L11.0001 25.9999H7.00014C5.34329 25.9999 4.00014 24.6568 4.00014 22.9999L4.00405 22.8456C4.06587 21.626 4.85688 20.6003 5.94936 20.1913L3.87905 18.121C2.70747 16.9495 2.70747 15.0504 3.87905 13.8788L3.99135 13.7724C4.56107 13.2578 5.28044 13 6.00014 12.9999V9.9765Z" fill="#333333"/>
<path d="M12.0001 5.99994C14.2092 5.99999 16.0001 7.79083 16.0001 9.99994V19.9999C16.0001 21.1045 16.8955 21.9999 18.0001 21.9999C18.5523 22 19.0001 22.4477 19.0001 22.9999C19.0001 23.5522 18.5523 23.9999 18.0001 23.9999C15.791 23.9999 14.0001 22.2091 14.0001 19.9999V9.99994C14.0001 8.8954 13.1046 7.99999 12.0001 7.99994C11.4478 7.99994 11.0001 7.55222 11.0001 6.99994C11.0001 6.44765 11.4478 5.99994 12.0001 5.99994Z" fill="#E71D36"/>
<path d="M20.2931 11.2929C20.6836 10.9024 21.3166 10.9024 21.7071 11.2929L24.7071 14.2929C25.0976 14.6835 25.0976 15.3165 24.7071 15.707C24.3166 16.0975 23.6836 16.0974 23.2931 15.707L22.0001 14.414V20C22 22.209 20.2092 23.9999 18.0001 24C17.4478 24 17.0002 23.5522 17.0001 23C17.0001 22.4477 17.4478 22 18.0001 22C19.1046 21.9999 20 21.1044 20.0001 20V14.414L18.7071 15.707C18.3166 16.0975 17.6836 16.0974 17.2931 15.707C16.9025 15.3165 16.9025 14.6835 17.2931 14.2929L20.2931 11.2929Z" fill="url(#paint0_linear_2173_22702)"/>
<path d="M12 5.99994C12.5522 5.99999 13 6.44771 13 6.99994C13 7.55217 12.5522 7.99989 12 7.99994C10.9644 7.99994 10.113 8.78717 10.0108 9.79584L10 9.99994V16.5859L11.293 15.2929C11.6835 14.9025 12.3165 14.9024 12.707 15.2929C13.0975 15.6834 13.0975 16.3164 12.707 16.707L9.70705 19.707C9.31653 20.0975 8.68351 20.0975 8.29298 19.707L5.29298 16.707C4.90246 16.3164 4.90246 15.6834 5.29298 15.2929C5.68352 14.9025 6.31655 14.9024 6.70705 15.2929L8.00002 16.5859V9.99994L8.0049 9.79388C8.11213 7.6805 9.85998 5.99994 12 5.99994Z" fill="url(#paint1_linear_2173_22702)"/>
<path d="M11 22C11.5523 22 12 22.4477 12 23C12 23.5523 11.5523 24 11 24H7C6.44772 24 6 23.5523 6 23C6 22.4477 6.44772 22 7 22H11Z" fill="#FFC107"/>
<path d="M23 7C23.5523 7 24 7.44772 24 8C24 8.55228 23.5523 9 23 9H19C18.4477 9 18 8.55228 18 8C18 7.44772 18.4477 7 19 7H23Z" fill="#FFC107"/>
<defs>
<linearGradient id="paint0_linear_2173_22702" x1="21" y1="11" x2="21" y2="23.9999" gradientUnits="userSpaceOnUse">
<stop stop-color="#FFC107"/>
<stop offset="1" stop-color="#E71D36"/>
</linearGradient>
<linearGradient id="paint1_linear_2173_22702" x1="9.00005" y1="5.99994" x2="9.00005" y2="19.9999" gradientUnits="userSpaceOnUse">
<stop stop-color="#E71D36"/>
<stop offset="1" stop-color="#FFC107"/>
</linearGradient>
</defs>
</svg>
