<svg width="30" height="30" viewBox="0 0 30 30" fill="none" xmlns="http://www.w3.org/2000/svg">
<path d="M24 12C25.6569 12 27 13.3431 27 15C27 16.6569 25.6569 18 24 18C22.6941 18 21.5859 17.1647 21.1738 16H8.82617C8.41406 17.1647 7.30585 18 6 18C4.34315 18 3 16.6569 3 15C3 13.3431 4.34315 12 6 12C7.30585 12 8.41406 12.8353 8.82617 14H21.1738C21.5859 12.8353 22.6941 12 24 12ZM24 14C23.4477 14 23 14.4477 23 15C23 15.5523 23.4477 16 24 16C24.5523 16 25 15.5523 25 15C25 14.4477 24.5523 14 24 14ZM6 14C5.44772 14 5 14.4477 5 15C5 15.5523 5.44772 16 6 16C6.55228 16 7 15.5523 7 15C7 14.4477 6.55228 14 6 14Z" fill="#5714CC"/>
</svg>
