<svg width="30" height="30" viewBox="0 0 30 30" fill="none" xmlns="http://www.w3.org/2000/svg">
<path d="M15 8C15.5523 8 16 8.44772 16 9V14.5859L19.707 18.293L19.7754 18.3691C20.0957 18.7619 20.0731 19.3409 19.707 19.707C19.3409 20.0731 18.7619 20.0957 18.3691 19.7754L18.293 19.707L14.293 15.707C14.1054 15.5195 14 15.2652 14 15V9C14 8.44772 14.4477 8 15 8Z" fill="#FF8800"/>
<path fill-rule="evenodd" clip-rule="evenodd" d="M15 3C21.6274 3 27 8.37258 27 15C27 21.6274 21.6274 27 15 27C8.37258 27 3 21.6274 3 15C3 8.37258 8.37258 3 15 3ZM15 5C9.47715 5 5 9.47715 5 15C5 20.5228 9.47715 25 15 25C20.5228 25 25 20.5228 25 15C25 9.47715 20.5228 5 15 5Z" fill="#FF8800"/>
</svg>
