<svg width="24" height="24" viewBox="0 0 24 24" fill="none" xmlns="http://www.w3.org/2000/svg">
<path fill-rule="evenodd" clip-rule="evenodd" d="M21.75 7.2559L20.25 8.1221L19.75 7.2559L14.8555 10.0811C14.9486 10.3708 15 10.6793 15 11C15 11.9489 14.5579 12.793 13.8701 13.3428L18.5938 22.001H16.3154L12 14.0889L7.6846 22.001H5.4063L10.1279 13.3418C10.0026 13.2415 9.887 13.1305 9.7793 13.0117L4.75 15.917L2.25 11.5869L3.584 10.8154L2.2471 8.5L3.9795 7.5L5.3164 9.8154L17.249 2.9268L16.749 2.0605L18.249 1.1934L21.75 7.2559ZM12 10C11.4477 10 11 10.4477 11 11C11 11.5523 11.4477 12 12 12C12.5523 12 13 11.5523 13 11C13 10.4477 12.5523 10 12 10Z" fill="#FFFFFF"/>
</svg>
