<svg width="30" height="30" viewBox="0 0 30 30" fill="none" xmlns="http://www.w3.org/2000/svg">
<path d="M26 15C26 21.0751 21.0751 26 15 26C8.92487 26 4 21.0751 4 15C4 8.92487 8.92487 4 15 4C21.0751 4 26 8.92487 26 15Z" fill="#595959"/>
<path d="M24 15C24 19.9706 19.9706 24 15 24C10.0294 24 6 19.9706 6 15C6 10.0294 10.0294 6 15 6C19.9706 6 24 10.0294 24 15Z" fill="url(#paint0_linear_2245_20450)"/>
<path fill-rule="evenodd" clip-rule="evenodd" d="M15 10C12.2386 10 10 12.2386 10 15V16C10 16.5523 9.55228 17 9 17C8.44772 17 8 16.5523 8 16V15C8 11.134 11.134 8 15 8C18.866 8 22 11.134 22 15V16C22 16.5523 21.5523 17 21 17C20.4477 17 20 16.5523 20 16V15C20 12.2386 17.7614 10 15 10Z" fill="url(#paint1_linear_2245_20450)"/>
<path fill-rule="evenodd" clip-rule="evenodd" d="M7 15C7 13.8954 7.89543 13 9 13L12.764 13C13.3125 12.3873 14.1106 12 15 12C16.6568 12 18 13.3431 18 15C18 16.6569 16.6568 18 15 18C14.1106 18 13.3125 17.6127 12.764 17L9 17C7.89543 17 7 16.1046 7 15Z" fill="black" fill-opacity="0.2"/>
<path fill-rule="evenodd" clip-rule="evenodd" d="M9 14C8.44772 14 8 14.4477 8 15C8 15.5523 8.44772 16 9 16L13.2675 16C13.6133 16.5978 14.2597 17 15 17C16.1045 17 17 16.1046 17 15C17 13.8954 16.1045 13 15 13C14.2597 13 13.6133 13.4022 13.2675 14L9 14Z" fill="white"/>
<path d="M15 17C16.1046 17 17 16.1046 17 15C17 13.8954 16.1046 13 15 13C14.2597 13 13.6134 13.4022 13.2676 14H15C15.5523 14 16 14.4477 16 15C16 15.5523 15.5523 16 15 16H13.2676C13.6134 16.5978 14.2597 17 15 17Z" fill="#474747"/>
<rect x="12" y="19" width="6" height="2" rx="1" fill="#474747"/>
<defs>
<linearGradient id="paint0_linear_2245_20450" x1="15" y1="6" x2="15" y2="24" gradientUnits="userSpaceOnUse">
<stop/>
<stop offset="1"/>
</linearGradient>
<linearGradient id="paint1_linear_2245_20450" x1="9" y1="16" x2="21" y2="16" gradientUnits="userSpaceOnUse">
<stop stop-color="#D1D1D1"/>
<stop offset="0.505" stop-color="#838383"/>
<stop offset="1" stop-color="#888888"/>
</linearGradient>
</defs>
</svg>
