<svg width="20" height="20" viewBox="0 0 20 20" fill="none" xmlns="http://www.w3.org/2000/svg">
<path d="M7.5 4C7.22386 4 7 4.22386 7 4.5V5.5C7 5.77614 7.22386 6 7.5 6H12.5C12.7761 6 13 5.77614 13 5.5V4.5C13 4.22386 12.7761 4 12.5 4H7.5Z" fill="#FF8800"/>
<path fill-rule="evenodd" clip-rule="evenodd" d="M13 2H7C5.89543 2 5 2.89543 5 4V16C5 17.1046 5.89543 18 7 18H13C14.1046 18 15 17.1046 15 16V4C15 2.89543 14.1046 2 13 2ZM6 4C6 3.44772 6.44772 3 7 3H13C13.5523 3 14 3.44772 14 4V16C14 16.5523 13.5523 17 13 17H7C6.44772 17 6 16.5523 6 16V4Z" fill="#FF8800"/>
</svg>
