<svg width="30" height="30" viewBox="0 0 30 30" fill="none" xmlns="http://www.w3.org/2000/svg">
<path fill-rule="evenodd" clip-rule="evenodd" d="M13.0224 10H3V22H10.1C10.5633 24.2822 12.581 26 15 26C16.8323 26 18.4343 25.0144 19.305 23.5445C19.9774 23.8375 20.7197 24 21.5 24C24.5376 24 27 21.5376 27 18.5C27 16.0724 25.4273 14.0122 23.2452 13.2826C23.7249 12.4663 24 11.5153 24 10.5C24 7.46243 21.5376 5 18.5 5C15.631 5 13.275 7.19675 13.0224 10Z" fill="white" fill-opacity="0.3"/>
<path fill-rule="evenodd" clip-rule="evenodd" d="M13.0224 9H3V21H10.1C10.5633 23.2822 12.581 25 15 25C16.8323 25 18.4343 24.0144 19.305 22.5445C19.9774 22.8375 20.7197 23 21.5 23C24.5376 23 27 20.5376 27 17.5C27 15.0724 25.4273 13.0122 23.2452 12.2826C23.7249 11.4663 24 10.5153 24 9.5C24 6.46243 21.5376 4 18.5 4C15.631 4 13.275 6.19675 13.0224 9Z" fill="#59361B"/>
<path fill-rule="evenodd" clip-rule="evenodd" d="M15 9.5C15 7.567 16.567 6 18.5 6C20.433 6 22 7.567 22 9.5C22 11.433 20.433 13 18.5 13H5V11H18.5C19.3284 11 20 10.3284 20 9.5C20 8.67157 19.3284 8 18.5 8C17.6716 8 17 8.67157 17 9.5H15Z" fill="#FFC107"/>
<path opacity="0.7" fill-rule="evenodd" clip-rule="evenodd" d="M18 17.5C18 19.433 19.567 21 21.5 21C23.433 21 25 19.433 25 17.5C25 15.567 23.433 14 21.5 14H5V16H21.5C22.3284 16 23 16.6716 23 17.5C23 18.3284 22.3284 19 21.5 19C20.6716 19 20 18.3284 20 17.5H18Z" fill="#FFC107"/>
<path opacity="0.5" fill-rule="evenodd" clip-rule="evenodd" d="M12 20C12 21.6569 13.3431 23 15 23C16.6569 23 18 21.6569 18 20C18 18.3431 16.6569 17 15 17H5V19H15C15.5523 19 16 19.4477 16 20C16 20.5523 15.5523 21 15 21C14.4477 21 14 20.5523 14 20H12Z" fill="#FFC107"/>
</svg>
