<svg width="30" height="30" viewBox="0 0 30 30" fill="none" xmlns="http://www.w3.org/2000/svg">
<path fill-rule="evenodd" clip-rule="evenodd" d="M15 6C8.92487 6 4 10.9249 4 17V20C4 21.1046 4.89543 22 6 22H9.80269C10.8401 23.7934 12.7792 25 15 25C17.2208 25 19.1599 23.7934 20.1973 22H24C25.1046 22 26 21.1046 26 20V17C26 10.9249 21.0751 6 15 6Z" fill="#393E46"/>
<path d="M11.126 20H6V17C6 12.0294 10.0294 8 15 8C19.9706 8 24 12.0294 24 17V20H18.874C18.4299 21.7252 16.8638 23 15 23C13.1362 23 11.5701 21.7252 11.126 20Z" fill="url(#paint0_linear_1903_16641)"/>
<path fill-rule="evenodd" clip-rule="evenodd" d="M15 12C12.2386 12 10 14.2386 10 17V20H6V17C6 12.0294 10.0294 8 15 8C19.9706 8 24 12.0294 24 17V20H20V17C20 14.2386 17.7614 12 15 12Z" fill="url(#paint1_radial_1903_16641)"/>
<path opacity="0.1" d="M19 19C19 21.2091 17.2091 23 15 23C12.7909 23 11 21.2091 11 19C11 16.7909 12.7909 15 15 15C17.2091 15 19 16.7909 19 19Z" fill="black"/>
<path fill-rule="evenodd" clip-rule="evenodd" d="M20.4142 13.5858C19.6332 12.8047 18.3668 12.8047 17.5858 13.5858L15.167 16.0045C15.1117 16.0015 15.056 15.9999 15 15.9999C13.3432 15.9999 12 17.3431 12 18.9999C12 20.6568 13.3432 21.9999 15 21.9999C16.6569 21.9999 18 20.6568 18 18.9999C18 18.944 17.9985 18.8883 17.9954 18.833L20.4142 16.4142C21.1953 15.6331 21.1953 14.3668 20.4142 13.5858Z" fill="url(#paint2_linear_1903_16641)" fill-opacity="0.1"/>
<path fill-rule="evenodd" clip-rule="evenodd" d="M18.2929 14.2929C18.6834 13.9023 19.3166 13.9023 19.7071 14.2929C20.0976 14.6834 20.0976 15.3166 19.7071 15.7071L16.9323 18.4819C16.9765 18.6471 17 18.8208 17 18.9999C17 20.1045 16.1046 20.9999 15 20.9999C13.8955 20.9999 13 20.1045 13 18.9999C13 17.8954 13.8955 16.9999 15 16.9999C15.1792 16.9999 15.3528 17.0235 15.5181 17.0677L18.2929 14.2929Z" fill="white"/>
<path d="M14 8V9C14 9.55228 14.4477 10 15 10C15.5523 10 16 9.55228 16 9V8H14Z" fill="#393E46"/>
<path d="M20.2929 10.2929L21 9.58578L22.4142 11L21.7071 11.7071C21.3166 12.0976 20.6834 12.0976 20.2929 11.7071C19.9024 11.3166 19.9024 10.6834 20.2929 10.2929Z" fill="#393E46"/>
<path d="M8.29289 11.7071L7.58579 11L9 9.58579L9.70711 10.2929C10.0976 10.6834 10.0976 11.3166 9.70711 11.7071C9.31658 12.0976 8.68342 12.0976 8.29289 11.7071Z" fill="#393E46"/>
<path d="M7 18H6V16H7C7.55228 16 8 16.4477 8 17C8 17.5523 7.55228 18 7 18Z" fill="#393E46"/>
<path d="M22 17C22 16.4477 22.4477 16 23 16H24V18H23C22.4477 18 22 17.5523 22 17Z" fill="#393E46"/>
<defs>
<linearGradient id="paint0_linear_1903_16641" x1="15" y1="8" x2="15" y2="23" gradientUnits="userSpaceOnUse">
<stop stop-color="#BD3B0F"/>
<stop offset="1" stop-color="#EE5622"/>
</linearGradient>
<radialGradient id="paint1_radial_1903_16641" cx="0" cy="0" r="1" gradientUnits="userSpaceOnUse" gradientTransform="translate(22 15) rotate(150.255) scale(8.06226 35.364)">
<stop stop-color="#F28059"/>
<stop offset="1" stop-color="#EE5622" stop-opacity="0"/>
</radialGradient>
<linearGradient id="paint2_linear_1903_16641" x1="19" y1="15" x2="15" y2="19" gradientUnits="userSpaceOnUse">
<stop/>
<stop offset="1" stop-opacity="0"/>
</linearGradient>
</defs>
</svg>
