<svg width="30" height="30" viewBox="0 0 30 30" fill="none" xmlns="http://www.w3.org/2000/svg">
<path d="M12 5C12 3.89543 12.8954 3 14 3H16C17.1045 3 18 3.89543 18 5C18 6.10457 17.1045 7 16 7H14C12.8954 7 12 6.10457 12 5Z" fill="#FF8800"/>
<path d="M12 25C12 23.8954 12.8954 23 14 23H16C17.1045 23 18 23.8954 18 25C18 26.1046 17.1045 27 16 27H14C12.8954 27 12 26.1046 12 25Z" fill="#FF8800"/>
<path fill-rule="evenodd" clip-rule="evenodd" d="M20 4.99989V4.08807C24.131 5.98408 27 10.157 27 15C27 19.843 24.131 24.0159 20 25.9119V25C20 24.5711 19.9325 24.158 19.8075 23.7707C21.0072 23.1117 22.0571 22.2137 22.893 21.1409C22.7206 21.0802 22.5334 21.0181 22.3309 20.9558C21.9287 20.8321 21.4659 20.7072 20.9401 20.5904C20.5397 21.5625 20.0559 22.4103 19.5429 23.1415C19.2183 22.5239 18.7369 22.0016 18.1517 21.6274C18.4222 21.2076 18.68 20.7454 18.9126 20.2384C18.0514 20.127 17.0822 20.0458 16 20.0144L16 21L14 21L14 20.0144C12.9177 20.0458 11.9485 20.127 11.0873 20.2384C11.3199 20.7454 11.5778 21.2076 11.8483 21.6274C11.263 22.0016 10.7817 22.5239 10.457 23.1415C9.94408 22.4103 9.46028 21.5625 9.05985 20.5904C8.53409 20.7072 8.07129 20.8321 7.66911 20.9558C7.46664 21.0181 7.27938 21.0802 7.10703 21.1409C7.94292 22.2137 8.99275 23.1117 10.1924 23.7707C10.0675 24.158 9.99997 24.5711 9.99997 25V25.9119C5.86893 24.0159 3 19.843 3 15C3 10.157 5.86893 5.98412 9.99997 4.0881V4.99989C9.99997 5.42882 10.0675 5.84197 10.1925 6.22932C8.9937 6.8878 7.94455 7.78489 7.10897 8.85665C7.28334 8.91814 7.47305 8.98109 7.67841 9.04427C8.0784 9.16735 8.53836 9.29153 9.06059 9.40779C9.46089 8.43639 9.94442 7.58921 10.4571 6.85847C10.7817 7.47605 11.2631 7.99835 11.8483 8.37249C11.578 8.79208 11.3203 9.25395 11.0878 9.76051C11.9487 9.87226 12.9178 9.95371 14 9.98544L14 8.99989H16L16 9.98599C17.0823 9.95486 18.0517 9.87402 18.9132 9.7628C18.6804 9.25533 18.4224 8.79271 18.1516 8.37249C18.7368 7.99834 19.2182 7.47604 19.5429 6.85847C20.0562 7.59016 20.5403 8.4386 20.9409 9.4116C21.4702 9.29424 21.9359 9.16869 22.3402 9.04427C22.5399 8.98285 22.7247 8.92165 22.895 8.86179C22.0588 7.78775 21.0082 6.88882 19.8075 6.22929C19.9325 5.84195 20 5.42881 20 4.99989ZM6.02217 19.4095C6.32841 19.2912 6.68082 19.1674 7.08094 19.0443C7.48387 18.9203 7.93472 18.7972 8.43504 18.6813C8.1619 17.5801 7.99997 16.3554 7.99997 15C7.99997 13.6438 8.16209 12.4184 8.43552 11.3167C7.93872 11.2015 7.4908 11.0791 7.09023 10.9558C6.6867 10.8317 6.33168 10.7068 6.02361 10.5876C5.36818 11.9185 5 13.4162 5 15C5 16.5826 5.36764 18.0793 6.02217 19.4095ZM23.9778 19.4095C24.6324 18.0793 25 16.5826 25 15C25 13.4186 24.6329 11.923 23.9794 10.5936C23.6749 10.711 23.3251 10.8338 22.9284 10.9558C22.5231 11.0805 22.0693 11.2044 21.5654 11.3208C21.8383 12.4215 22 13.6454 22 15C22 16.3554 21.838 17.5801 21.5649 18.6813C22.0653 18.7972 22.5161 18.9203 22.9191 19.0443C23.3192 19.1674 23.6716 19.2912 23.9778 19.4095ZM10.4055 11.6853C10.1522 12.6654 9.99997 13.767 9.99997 15C9.99997 16.2325 10.1521 17.3337 10.4052 18.3135C11.4536 18.1609 12.6494 18.0506 14 18.0136V11.9863C12.6493 11.9489 11.4537 11.8382 10.4055 11.6853ZM19.5947 18.3134C19.8479 17.3337 20 16.2325 20 15C20 13.7681 19.848 12.6674 19.5951 11.688C18.5464 11.8402 17.3505 11.9501 16 11.9868V18.0136C17.3506 18.0506 18.5463 18.1609 19.5947 18.3134Z" fill="#FF8800"/>
</svg>
