<svg width="30" height="30" viewBox="0 0 30 30" fill="none" xmlns="http://www.w3.org/2000/svg">
<path d="M17 4C18.6569 4 20 5.34315 20 7V7.34082C22.9883 9.07005 25 12.2991 25 16C25 21.5228 20.5228 26 15 26C9.47715 26 5 21.5228 5 16C5 12.2991 7.01171 9.07005 10 7.34082V7C10 5.34315 11.3431 4 13 4H17Z" fill="#373737"/>
<path d="M17 6C17.5523 6 18 6.44772 18 7C18 7.55228 17.5523 8 17 8H16V8.06348C19.9462 8.55566 23 11.9204 23 16C23 20.4183 19.4183 24 15 24C10.5817 24 7 20.4183 7 16C7 11.9204 10.0538 8.55566 14 8.06348V8H13C12.4477 8 12 7.55228 12 7C12 6.44772 12.4477 6 13 6H17Z" fill="#E71D36"/>
<rect x="12" y="6" width="6" height="2" rx="1" fill="#FFC107"/>
<path fill-rule="evenodd" clip-rule="evenodd" d="M15 22C18.3137 22 21 19.3137 21 16C21 12.6863 18.3137 10 15 10C11.6863 10 9 12.6863 9 16C9 19.3137 11.6863 22 15 22Z" fill="#8F0F1F"/>
<path d="M15 20C15.5253 20 16.0454 19.8965 16.5307 19.6955C17.016 19.4945 17.457 19.1999 17.8284 18.8284C18.1999 18.457 18.4945 18.016 18.6955 17.5307C18.8965 17.0454 19 16.5253 19 16C19 15.4747 18.8965 14.9546 18.6955 14.4693C18.4945 13.984 18.1999 13.543 17.8284 13.1716C17.457 12.8001 17.016 12.5055 16.5307 12.3045C16.0454 12.1035 15.5253 12 15 12L15 16L15 20Z" fill="white"/>
</svg>
