<svg width="30" height="30" viewBox="0 0 30 30" fill="none" xmlns="http://www.w3.org/2000/svg">
<path d="M17 4C18.6569 4 20 5.34315 20 7V7.34082C22.9883 9.07005 25 12.2991 25 16C25 21.5228 20.5228 26 15 26C9.47715 26 5 21.5228 5 16C5 12.2991 7.01171 9.07005 10 7.34082V7C10 5.34315 11.3431 4 13 4H17Z" fill="#373737"/>
<path d="M17 6C17.5523 6 18 6.44772 18 7C18 7.55228 17.5523 8 17 8H16V8.06348C19.9462 8.55566 23 11.9204 23 16C23 20.4183 19.4183 24 15 24C10.5817 24 7 20.4183 7 16C7 11.9204 10.0538 8.55566 14 8.06348V8H13C12.4477 8 12 7.55228 12 7C12 6.44772 12.4477 6 13 6H17Z" fill="#E71D36"/>
<path d="M12 7C12 6.44772 12.4477 6 13 6H17C17.5523 6 18 6.44772 18 7C18 7.55228 17.5523 8 17 8H13C12.4477 8 12 7.55228 12 7Z" fill="#E71D36"/>
<path fill-rule="evenodd" clip-rule="evenodd" d="M15 22C18.3137 22 21 19.3137 21 16C21 12.6863 18.3137 10 15 10C11.6863 10 9 12.6863 9 16C9 19.3137 11.6863 22 15 22Z" fill="#8F0F1F"/>
<path d="M15 14C16.1046 14 17 14.8954 17 16C17 17.1046 16.1046 18 15 18C13.8954 18 13 17.1046 13 16C13 14.8954 13.8954 14 15 14Z" stroke="white" stroke-width="4" stroke-linecap="round"/>
<path d="M13 18L15 16" stroke="#E71D36" stroke-width="2" stroke-linecap="round"/>
</svg>
