<svg width="30" height="30" viewBox="0 0 30 30" fill="none" xmlns="http://www.w3.org/2000/svg">
<path d="M9 8C9 6.34315 10.3431 5 12 5H16C17.6569 5 19 6.34315 19 8V8.33782C20.1711 9.01526 21.192 9.92336 22.0007 11C23.0644 11.0003 24.0367 11.6014 24.5125 12.5528L26.7034 16.9348C26.8985 17.3248 27 17.7549 27 18.191C27 19.4619 26.1559 20.5358 24.9977 20.8824C24.9992 20.9214 25 20.9606 25 21V23C25 24.6569 23.6569 26 22 26C21.1625 26 20.4051 25.6568 19.8609 25.1034C18.214 26.2966 16.1892 27 14 27C8.47715 27 4 22.5228 4 17C4 13.2986 6.01099 10.0669 9 8.33782V8Z" fill="black" fill-opacity="0.3"/>
<path d="M9 7C9 5.34315 10.3431 4 12 4H16C17.6569 4 19 5.34315 19 7V7.33782C20.1711 8.01526 21.192 8.92336 22.0007 10C23.0644 10.0003 24.0367 10.6014 24.5125 11.5528L26.7034 15.9348C26.8985 16.3248 27 16.7549 27 17.191C27 18.4619 26.1559 19.5358 24.9977 19.8824C24.9992 19.9214 25 19.9606 25 20V22C25 23.6569 23.6569 25 22 25C21.1625 25 20.4051 24.6568 19.8609 24.1034C18.214 25.2966 16.1892 26 14 26C8.47715 26 4 21.5228 4 16C4 12.2986 6.01099 9.06687 9 7.33782V7Z" fill="#FFC107"/>
<path opacity="0.5" fill-rule="evenodd" clip-rule="evenodd" d="M17.9487 14.6838C18.1233 15.2077 17.8401 15.774 17.3162 15.9487L14.3162 16.9487C13.7923 17.1233 13.2259 16.8402 13.0513 16.3162C12.8766 15.7923 13.1598 15.226 13.6837 15.0513L16.6837 14.0513C17.2077 13.8767 17.774 14.1598 17.9487 14.6838Z" fill="#59361B"/>
<path d="M11 7C11 6.44772 11.4477 6 12 6H16C16.5523 6 17 6.44772 17 7C17 7.55228 16.5523 8 16 8H15V8.06189C17.0155 8.31323 18.7982 9.31433 20.0602 10.7773C19.8297 10.9973 19.6348 11.2582 19.4875 11.5528L18.9557 12.6165C17.875 11.0367 16.0586 10 14 10C10.6863 10 8 12.6863 8 16C8 19.3137 10.6863 22 14 22C15.8895 22 17.5749 21.1266 18.6747 19.7616C18.7806 19.8084 18.89 19.8488 19.0023 19.8824C19.0008 19.9214 19 19.9606 19 20V22C19 22.0801 19.0031 22.1594 19.0093 22.2379C17.6383 23.3403 15.8962 24 14 24C9.58172 24 6 20.4183 6 16C6 11.9204 9.05369 8.55399 13 8.06189V8H12C11.4477 8 11 7.55228 11 7Z" fill="#59361B"/>
<path d="M15 16L15 13C15 12.4477 14.5523 12 14 12C13.4477 12 13 12.4477 13 13L13 16C13 16.5523 13.4477 17 14 17C14.5523 17 15 16.5523 15 16Z" fill="#59361B"/>
<path d="M22.7236 12.4472L24.9146 16.8292C24.9708 16.9415 25 17.0654 25 17.191C25 17.6378 24.6378 18 24.191 18C24.0654 18 23.9415 17.9708 23.8292 17.9146L22.4472 17.2236C22.1657 17.0828 21.8343 17.0828 21.5528 17.2236L20.1708 17.9146C20.0585 17.9708 19.9346 18 19.809 18C19.3622 18 19 17.6378 19 17.191C19 17.0654 19.0292 16.9415 19.0854 16.8292L21.2764 12.4472C21.4134 12.1731 21.6936 12 22 12C22.3064 12 22.5866 12.1731 22.7236 12.4472Z" fill="#59361B"/>
<path fill-rule="evenodd" clip-rule="evenodd" d="M22 16C22.5523 16 23 16.4477 23 17V22C23 22.5523 22.5523 23 22 23C21.4477 23 21 22.5523 21 22V17C21 16.4477 21.4477 16 22 16Z" fill="url(#paint0_linear_1903_16635)"/>
<defs>
<linearGradient id="paint0_linear_1903_16635" x1="22.5" y1="17" x2="22.5" y2="23" gradientUnits="userSpaceOnUse">
<stop stop-color="#59361B" stop-opacity="0"/>
<stop offset="0.498334" stop-color="#59361B" stop-opacity="0.7"/>
<stop offset="1" stop-color="#59361B" stop-opacity="0.8"/>
</linearGradient>
</defs>
</svg>
