<svg width="30" height="30" viewBox="0 0 30 30" fill="none" xmlns="http://www.w3.org/2000/svg">
<path d="M4 19C4.55228 19 5 19.4477 5 20V22C5 22.5523 4.55228 23 4 23C3.44772 23 3 22.5523 3 22V20C3 19.4477 3.44772 19 4 19Z" fill="#FF8800"/>
<path d="M8 19C8.55228 19 9 19.4477 9 20V22C9 22.5523 8.55228 23 8 23C7.44772 23 7 22.5523 7 22V20C7 19.4477 7.44772 19 8 19Z" fill="#FF8800"/>
<path d="M12 19C12.5523 19 13 19.4477 13 20V22C13 22.5523 12.5523 23 12 23C11.4477 23 11 22.5523 11 22V20C11 19.4477 11.4477 19 12 19Z" fill="#FF8800"/>
<path d="M16 19C16.5523 19 17 19.4477 17 20V22C17 22.5523 16.5523 23 16 23C15.4477 23 15 22.5523 15 22V20C15 19.4477 15.4477 19 16 19Z" fill="#FF8800"/>
<path d="M21 19C21.5523 19 22 19.4477 22 20V22C22 22.5523 21.5523 23 21 23C20.4477 23 20 22.5523 20 22V20C20 19.4477 20.4477 19 21 19Z" fill="#FF8800"/>
<path d="M26 7C26.5523 7 27 7.44772 27 8V22C27 22.5523 26.5523 23 26 23C25.4477 23 25 22.5523 25 22V8C25 7.44772 25.4477 7 26 7Z" fill="#FF8800"/>
<path d="M16.293 8.29297C16.6835 7.90244 17.3165 7.90244 17.707 8.29297L21.707 12.293L21.7754 12.3691C22.0957 12.7619 22.0731 13.3409 21.707 13.707L17.707 17.707C17.3165 18.0976 16.6835 18.0976 16.293 17.707C15.9024 17.3165 15.9024 16.6835 16.293 16.293L18.5859 14H4C3.44772 14 3 13.5523 3 13C3 12.4477 3.44772 12 4 12H18.5859L16.293 9.70703C15.9024 9.31651 15.9024 8.68349 16.293 8.29297Z" fill="#FF8800"/>
</svg>
