<svg width="30" height="30" viewBox="0 0 30 30" fill="none" xmlns="http://www.w3.org/2000/svg">
<path opacity="0.4" d="M13.4141 20.9732C11.3477 20.9025 9.58881 20.6991 8.13745 20.4482L9.29288 19.2928C10.2357 18.35 11.7643 18.35 12.7071 19.2928C13.1717 19.7574 13.4074 20.3643 13.4141 20.9732Z" fill="#FF8800"/>
<path d="M15 8.5C15 9.32843 14.3284 10 13.5 10C12.6716 10 12 9.32843 12 8.5C12 7.67157 12.6716 7 13.5 7C14.3284 7 15 7.67157 15 8.5Z" fill="#FF8800"/>
<path fill-rule="evenodd" clip-rule="evenodd" d="M12 12.5C12 11.6716 12.6716 11 13.5 11C14.1878 11 14.7674 11.4629 14.9444 12.0941C15.2009 12.3666 15.4627 12.6299 15.7065 12.8502C15.9899 13.1065 16.2048 13.2639 16.3354 13.3292C16.6506 13.4868 16.9777 13.4934 17.2517 13.4477C17.3869 13.4252 17.4996 13.3913 17.5759 13.364C17.6136 13.3505 17.6412 13.3391 17.6569 13.3323L17.6706 13.3262C17.79 13.2678 17.9176 13.244 18.0418 13.251L19.7107 11.5821C19.4758 11.0615 19.5722 10.4278 20 10L23 7L25 9L22 12C21.5722 12.4278 20.9384 12.5242 20.4178 12.2892L18.749 13.958C18.7651 14.2476 18.6114 14.5328 18.3354 14.6708C18.3211 14.678 18.3134 14.6826 18.3064 14.6869C18.2843 14.7002 18.2696 14.709 18.0804 14.7766C18.0177 14.799 17.9439 14.8231 17.8605 14.8465L16.707 16H19C19.5523 16 20 16.4477 20 17H26.1056C26.5996 17 27 17.4004 27 17.8944C27 18.572 26.6161 19.1857 25.9774 19.4118C24.3237 19.9973 20.6646 21 15 21C14.4526 21 13.924 20.9906 13.4141 20.9732C13.4091 20.5231 13.2791 20.0742 13.024 19.683L12.2892 20.4178C12.5242 20.9384 12.4278 21.5722 12 22L9 25L7 23L10 20C10.4278 19.5722 11.0615 19.4758 11.5821 19.7107L12.3169 18.9759C11.3809 18.3656 10.1145 18.4712 9.29289 19.2928L8.13746 20.4482C6.24056 20.1204 4.86895 19.7114 4.02263 19.4118C3.38391 19.1857 3 18.572 3 17.8944C3 17.4004 3.40045 17 3.89443 17H10C10 16.4477 10.4477 16 11 16H12V12.5ZM15.2928 16L16.3776 14.9152C16.1469 14.8692 15.9065 14.7918 15.6646 14.6708C15.4457 14.5614 15.2185 14.3999 15 14.2213V16H15.2928Z" fill="#FF8800"/>
</svg>
