<svg width="30" height="30" viewBox="0 0 30 30" fill="none" xmlns="http://www.w3.org/2000/svg">
<path d="M3 16V18C3 19.3538 3.89669 20.4981 5.12854 20.8715C5.5019 22.1033 6.64623 23 8 23H24C25.6569 23 27 21.6569 27 20V16H3Z" fill="white" fill-opacity="0.3"/>
<path fill-rule="evenodd" clip-rule="evenodd" d="M5.12854 10.1285C5.5019 8.89669 6.64623 8 8 8H24C25.6569 8 27 9.34315 27 11V19C27 20.6569 25.6569 22 24 22H8C6.64623 22 5.5019 21.1033 5.12854 19.8715C3.89669 19.4981 3 18.3538 3 17V13C3 11.6462 3.89669 10.5019 5.12854 10.1285Z" fill="#59361B"/>
<path fill-rule="evenodd" clip-rule="evenodd" d="M8 10C7.44772 10 7 10.4477 7 11V12H6C5.44772 12 5 12.4477 5 13V17C5 17.5523 5.44772 18 6 18H7V19C7 19.5523 7.44772 20 8 20H24C24.5523 20 25 19.5523 25 19V11C25 10.4477 24.5523 10 24 10H8Z" fill="#FFC107"/>
<rect x="15" y="12" width="8" height="6" rx="0.5" fill="#59361B"/>
</svg>
