<svg width="30" height="30" viewBox="0 0 30 30" fill="none" xmlns="http://www.w3.org/2000/svg">
<path fill-rule="evenodd" clip-rule="evenodd" d="M20 15C20 17.7614 17.7614 20 15 20C12.2386 20 10 17.7614 10 15C10 12.2386 12.2386 10 15 10C17.7614 10 20 12.2386 20 15ZM17 15C17 16.1046 16.1046 17 15 17C13.8954 17 13 16.1046 13 15C13 13.8954 13.8954 13 15 13C16.1046 13 17 13.8954 17 15Z" fill="#FF8800"/>
<path fill-rule="evenodd" clip-rule="evenodd" d="M0 15C0 14 7.1916 6 15 6C22.8084 6 30 14 30 15C30 16 22.8084 24 15 24C7.1916 24 0 16 0 15ZM2.73672 15.4951C2.57371 15.3128 2.43329 15.147 2.3149 15C2.43329 14.853 2.57371 14.6872 2.73672 14.5049C3.44909 13.708 4.49998 12.6995 5.7881 11.7127C8.41529 9.70011 11.736 8 15 8C18.264 8 21.5847 9.70011 24.2119 11.7127C25.5 12.6995 26.5509 13.708 27.2633 14.5049C27.4263 14.6872 27.5667 14.853 27.6851 15C27.5667 15.147 27.4263 15.3128 27.2633 15.4951C26.5509 16.292 25.5 17.3005 24.2119 18.2873C21.5847 20.2999 18.264 22 15 22C11.736 22 8.41529 20.2999 5.7881 18.2873C4.49998 17.3005 3.44909 16.292 2.73672 15.4951Z" fill="#FF8800"/>
</svg>
