<svg width="30" height="30" viewBox="0 0 30 30" fill="none" xmlns="http://www.w3.org/2000/svg">
<path fill-rule="evenodd" clip-rule="evenodd" d="M15 27C21.6274 27 27 21.6274 27 15C27 8.37258 21.6274 3 15 3C8.37258 3 3 8.37258 3 15C3 21.6274 8.37258 27 15 27ZM10 11C9.44772 11 9 11.4477 9 12C9 12.5523 9.44772 13 10 13H20C20.5523 13 21 12.5523 21 12C21 11.4477 20.5523 11 20 11H10ZM12 15C11.4477 15 11 15.4477 11 16C11 16.5523 11.4477 17 12 17H18C18.5523 17 19 16.5523 19 16C19 15.4477 18.5523 15 18 15H12ZM13 20C13 19.4477 13.4477 19 14 19H16C16.5523 19 17 19.4477 17 20C17 20.5523 16.5523 21 16 21H14C13.4477 21 13 20.5523 13 20Z" fill="#FF8800"/>
</svg>
