<svg width="24" height="24" viewBox="0 0 24 24" fill="none" xmlns="http://www.w3.org/2000/svg">
<path d="M7,12L12,22L17,12H7ZM9.2361,12L12,17.5279L14.7639,12H9.2361Z" fill="#CCCCCC" fill-rule="evenodd" clip-rule="evenodd"/>
<path d="M17,12L12,2L7,12H17Z" fill="#E53935"/>
<path d="M2,11C1.4477,11 1,11.4477 1,12C1,12.5523 1.4477,13 2,13H4C4.5523,13 5,12.5523 5,12C5,11.4477 4.5523,11 4,11H2Z" fill="#CCCCCC" fill-opacity="0.5" stroke-opacity="0.5"/>
<path d="M20,11C19.4477,11 19,11.4477 19,12C19,12.5523 19.4477,13 20,13H22C22.5523,13 23,12.5523 23,12C23,11.4477 22.5523,11 22,11H20Z" fill="#CCCCCC" fill-opacity="0.5" stroke-opacity="0.5"/>
</svg>
