<svg width="30" height="30" viewBox="0 0 30 30" fill="none" xmlns="http://www.w3.org/2000/svg">
<path d="M10.6632 23.0001H12.1707C12.5826 24.1652 13.6938 25 15 25H23C24.6569 25 26 23.6569 26 22V11C26 9.4078 24.7596 8.1053 23.1925 8.00607C22.8686 6.25152 22.3398 5 20.5 5H9.69425C7.7389 5 6.07014 6.41365 5.74868 8.3424L5.29172 11.0841C3.97668 11.4024 3 12.5872 3 14.0001C3 14.8886 3.38625 15.6868 4 16.2362L4 21.5C4 23.433 5.567 25 7.5 25C8.89617 25 10.1014 24.1825 10.6632 23.0001Z" fill="#47566B"/>
<path d="M12 21.0001V13H9.02759L9.69425 9H16.4845C17.0417 8.37731 17.8482 8 18.7208 8H22.0381C21.6893 7.39618 21.0377 7 20.3057 7H9.69425C8.71658 7 7.8822 7.70683 7.72147 8.6712L7 13L6 13.0001C5.44772 13.0001 5 13.4478 5 14.0001C5 14.5523 5.44772 15.0001 6 15.0001L6 21.5C6 22.3284 6.67157 23 7.5 23C8.32843 23 9 22.3284 9 21.5V21.0001H12Z" fill="#237BFF"/>
<path d="M16.1212 9.50228C15.8205 9.48761 15.5121 9.52739 15.2094 9.6283L13.7094 10.1283C12.6417 10.4842 11.974 11.4906 12 12.5599V13H9.02759L9.69425 9H16.4845C16.3474 9.15322 16.2254 9.3213 16.1212 9.50228Z" fill="#D1E6FF"/>
<rect x="8" y="15.0001" width="3" height="3" rx="1.5" fill="#FFBF00"/>
<path fill-rule="evenodd" clip-rule="evenodd" d="M17.0125 13.0061C17.0211 12.9519 17.0341 12.8983 17.0516 12.846L17.7723 10.6838C17.9084 10.2754 18.2906 10 18.721 10H23.0002C23.5525 10 24.0002 10.4477 24.0002 11V22C24.0002 22.5523 23.5525 23 23.0002 23H15.0002C14.448 23 14.0002 22.5523 14.0002 22V15C14.0002 14.4028 14.3824 13.8726 14.9489 13.6838L17.0002 13L17.0125 13.0061ZM19.4418 12H22.0002V14H19.0002V13.3246L19.4418 12Z" fill="#EE5622"/>
<path d="M16.4746 11.8419C16.5619 12.1039 16.4203 12.387 16.1584 12.4743L14.6584 12.9743C14.6143 12.989 14.5697 12.9972 14.5255 12.9995C14.3066 13.0108 14.0983 12.8761 14.0257 12.6581C13.9383 12.3962 14.0799 12.113 14.3419 12.0257L15.8419 11.5257C15.8854 11.5112 15.9296 11.503 15.9733 11.5006C16.1927 11.4886 16.4018 11.6234 16.4746 11.8419Z" fill="#EE5622"/>
</svg>
