<svg width="30" height="30" viewBox="0 0 30 30" fill="none" xmlns="http://www.w3.org/2000/svg">
<path opacity="0.2" fill-rule="evenodd" clip-rule="evenodd" d="M15 3C21.6274 3 27 8.37258 27 15C27 21.6274 21.6274 27 15 27C8.37258 27 3 21.6274 3 15C3 8.37258 8.37258 3 15 3ZM15 5C9.47715 5 5 9.47715 5 15C5 16.5945 5.37525 18.1009 6.03906 19.4385C6.01329 19.6219 6 19.8094 6 20C6 22.2091 7.79086 24 10 24C10.1903 24 10.3773 23.9857 10.5605 23.96C11.8985 24.6241 13.405 25 15 25C20.5228 25 25 20.5228 25 15C25 13.405 24.6241 11.8985 23.96 10.5605C23.9857 10.3773 24 10.1903 24 10C24 7.79086 22.2091 6 20 6C19.8094 6 19.6219 6.01329 19.4385 6.03906C18.1009 5.37525 16.5945 5 15 5Z" fill="#FF8800"/>
<g opacity="0.5">
<path d="M22.7266 12.9248C22.9039 13.5867 23 14.2821 23 15C23 19.4183 19.4183 23 15 23C14.2821 23 13.5867 22.9039 12.9248 22.7266C13.3963 22.221 13.7377 21.5938 13.8975 20.8965C14.255 20.9629 14.6232 21 15 21C18.3137 21 21 18.3137 21 15C21 14.6232 20.9629 14.255 20.8965 13.8975C21.5938 13.7377 22.221 13.3963 22.7266 12.9248Z" fill="#FF8800"/>
<path d="M15 7C15.7175 7 16.4126 7.09532 17.0742 7.27246C16.6029 7.77782 16.2614 8.40547 16.1016 9.10254C15.7444 9.03624 15.3764 9 15 9C11.6863 9 9 11.6863 9 15C9 15.3764 9.03624 15.7444 9.10254 16.1016C8.40547 16.2614 7.77782 16.6029 7.27246 17.0742C7.09532 16.4126 7 15.7175 7 15C7 10.5817 10.5817 7 15 7Z" fill="#FF8800"/>
</g>
<circle cx="15" cy="15" r="3" fill="#FF8800"/>
<g opacity="0.8">
<path d="M10 18C11.1046 18 12 18.8954 12 20C12 21.1046 11.1046 22 10 22C8.89543 22 8 21.1046 8 20C8 18.8954 8.89543 18 10 18Z" fill="#FF8800"/>
<path d="M20 8C21.1046 8 22 8.89543 22 10C22 11.1046 21.1046 12 20 12C18.8954 12 18 11.1046 18 10C18 8.89543 18.8954 8 20 8Z" fill="#FF8800"/>
</g>
</svg>
