<svg width="30" height="30" viewBox="0 0 30 30" fill="none" xmlns="http://www.w3.org/2000/svg">
<g id="ic_custom_history">
<g id="Union">
<path d="M21.364 8.63604C17.8492 5.12132 12.1508 5.12132 8.63604 8.63604C6.87922 10.3929 5.99983 12.6958 5.99985 15H8.27312C8.67456 15 9 15.3255 9 15.7269C9 15.903 8.93609 16.0731 8.82015 16.2056L5.79881 19.6585C5.60892 19.8755 5.33459 20 5.04623 20H4.95377C4.66541 20 4.39108 19.8755 4.20119 19.6585L1.17985 16.2056C1.06391 16.0731 1 15.903 1 15.7269C1 15.3255 1.32544 15 1.72688 15H4.00015C4.00017 12.1858 5.07339 9.37026 7.22183 7.22183C11.5176 2.92606 18.4824 2.92606 22.7782 7.22183C27.0739 11.5176 27.0739 18.4824 22.7782 22.7782C18.4824 27.0739 11.5176 27.0739 7.22183 22.7782C6.8313 22.3876 6.8313 21.7545 7.22183 21.364C7.61235 20.9734 8.24551 20.9734 8.63604 21.364C12.1508 24.8787 17.8492 24.8787 21.364 21.364C24.8787 17.8492 24.8787 12.1508 21.364 8.63604Z" fill="#A49DAF"/>
<path d="M15 10C15.5523 10 16 10.4477 16 11V15.4648L18.5547 17.168C19.0142 17.4743 19.1384 18.0952 18.8321 18.5547C18.5257 19.0142 17.9048 19.1384 17.4453 18.8321L14.4453 16.8321C14.1671 16.6466 14 16.3344 14 16V11C14 10.4477 14.4477 10 15 10Z" fill="#A49DAF"/>
</g>
</g>
</svg>
