<svg width="30" height="30" viewBox="0 0 30 30" fill="none" xmlns="http://www.w3.org/2000/svg">
<path fill-rule="evenodd" clip-rule="evenodd" d="M26.7071 4.70711C27.0976 4.31658 27.0976 3.68342 26.7071 3.29289C26.3166 2.90237 25.6834 2.90237 25.2929 3.29289L20.2929 8.29289L15.7071 3.70711C15.3166 3.31658 14.6834 3.31658 14.2929 3.70711L3.70711 14.2929C3.31658 14.6834 3.31658 15.3166 3.70711 15.7071L8.29289 20.2929L3.29289 25.2929C2.90237 25.6834 2.90237 26.3166 3.29289 26.7071C3.68342 27.0976 4.31658 27.0976 4.70711 26.7071L26.7071 4.70711ZM14 14.5858L16 12.5858V11C16 10.4477 15.5523 10 15 10C14.4477 10 14 10.4477 14 11V14.5858Z" fill="#FF8800"/>
<path d="M11.4142 23.4142L23.4142 11.4142L26.2929 14.2929C26.6834 14.6834 26.6834 15.3166 26.2929 15.7071L15.7071 26.2929C15.3166 26.6834 14.6834 26.6834 14.2929 26.2929L11.4142 23.4142Z" fill="#FF8800"/>
</svg>
