<svg width="30" height="30" viewBox="0 0 30 30" fill="none" xmlns="http://www.w3.org/2000/svg">
<path d="M2 20C2 21.6569 3.34315 23 5 23L25 23C26.6569 23 28 21.6569 28 20L28 10C28 8.34314 26.6569 7 25 7L5 7C3.34315 7 2 8.34314 2 10L2 20ZM4 10L4.00488 9.89746C4.05621 9.39333 4.48232 9 5 9L25 9C25.5177 9 25.9438 9.39333 25.9951 9.89746L26 10L26 20C26 20.5523 25.5523 21 25 21L5 21C4.44772 21 4 20.5523 4 20L4 10ZM5 19.5C5 19.7761 5.22386 20 5.5 20L9.5 20C9.77614 20 10 19.7761 10 19.5L10 10.5C10 10.2239 9.77614 10 9.5 10L5.5 10C5.22386 10 5 10.2239 5 10.5L5 19.5Z" fill="#FF8800"/>
</svg>
