<svg width="364" height="180" viewBox="0 0 364 180" fill="none" xmlns="http://www.w3.org/2000/svg">
<g clip-path="url(#clip0_3082_9547)">
<rect width="177" height="180" rx="6" fill="#28292A"/>
<path d="M87.2469 1.2401L55.0438 11.041C54.3559 11.2504 53.7212 11.6057 53.1831 12.0827L35.4409 27.8087L40.7699 61.4225C40.962 62.634 41.5927 63.7327 42.5421 64.5094L59.6694 78.5227C60.1589 78.9232 60.7199 79.2272 61.3227 79.4185L89.4125 88.3359C90.8516 88.7928 92.2233 89.4393 93.4916 90.2584L116.022 104.809L124.573 109.271L164.051 89.7592C165.375 89.1046 166.779 88.6255 168.227 88.3339L177 86.5671V98.808L170.596 100.098C170.17 100.183 169.757 100.324 169.368 100.517L129.218 120.361L110.154 168.02C109.832 168.826 109.725 169.704 109.844 170.564L111.155 180H99.0396L97.9584 172.215C97.5519 169.288 97.9153 166.306 99.0126 163.563L116.914 118.81L109.978 115.191L86.9813 100.339C86.6083 100.098 86.2048 99.9078 85.7816 99.7734L57.6918 90.856C55.6423 90.2054 53.7348 89.1718 52.0706 87.8102L34.9432 73.7969C31.7154 71.1559 29.571 67.4206 28.918 63.3015L23.4356 28.7207L0 9.82097V6C0 2.6863 2.68629 0 6 0H6.93782L28.817 17.6445L45.2234 3.10251C46.719 1.7769 48.4339 0.72773 50.2877 0H86.8695L87.2469 1.2401Z" fill="#121212"/>
<path d="M4.7184 0.137179C2.02047 0.724208 0 3.12616 0 6V7.894L24.8267 27.9156L30.3995 63.0667C30.9949 66.8223 32.9501 70.2281 35.8931 72.636L53.0205 86.6493C54.5379 87.8908 56.277 88.8332 58.1457 89.4264L86.2355 98.3438C86.7857 98.5185 87.3102 98.7656 87.7951 99.0788L110.734 113.893L118.81 118.107L100.405 164.12C99.4048 166.621 99.0735 169.34 99.4441 172.009L100.554 180H109.64L108.359 170.771C108.203 169.652 108.342 168.512 108.762 167.463L128.038 119.271L168.703 99.1722C169.209 98.922 169.746 98.7388 170.3 98.6273L177 97.2779V88.0973L168.523 89.8044C167.203 90.0703 165.923 90.5072 164.715 91.1039L124.555 110.953L115.266 106.107L92.6778 91.5185C91.5215 90.7717 90.2707 90.1822 88.9587 89.7657L60.8689 80.8483C60.0853 80.5995 59.3559 80.2043 58.7196 79.6837L41.5922 65.6704C40.3581 64.6606 39.5381 63.2324 39.2885 61.6574L33.8307 27.2316L52.1882 10.9602C52.8877 10.3401 53.7128 9.87826 54.6071 9.60608L86.1699 0H55.2593L51.9867 0.996015C49.8541 1.64506 47.8866 2.74646 46.2184 4.22508L28.8628 19.6085L4.7184 0.137179Z" fill="#57595B"/>
<path d="M74.5 101H64V111.5H74.5V101Z" fill="#0F0F10"/>
<path d="M52.5 95.5L45 93.5L43 100L50 102L52.5 95.5Z" fill="#0F0F10"/>
<path d="M13.6732 180H6C2.68629 180 0 177.314 0 174V23.2294L2.5525 36.949C2.66186 37.5369 2.84609 38.1083 3.10068 38.6493L9.00122 51.1879C10.3175 53.9851 11 57.0383 11 60.1297V74.4116L13.6732 180Z" fill="#174559"/>
<path d="M102.068 180L100.532 168.938L100.529 168.913L96.1464 139.212C95.9627 137.968 96.2551 136.699 96.965 135.661L117.267 105.96C119.774 102.292 118.813 97.2838 115.125 94.8055L94.9603 81.2519C94.4127 80.8838 93.8216 80.5849 93.2006 80.362L82.2699 76.4381C76.7091 74.4419 73 69.1697 73 63.2614V44.0892C73 43.1673 73.0911 42.2476 73.2719 41.3436L81.5406 0H87.6594L79.1554 42.5203C79.052 43.0368 79 43.5624 79 44.0892V63.2614C79 66.6376 81.1195 69.6503 84.2971 70.791L95.2278 74.7148C96.3146 75.1049 97.349 75.6281 98.3074 76.2722L118.472 89.8257C124.925 94.1628 126.608 102.927 122.221 109.345L102.139 138.724L106.47 168.075L108.126 180H102.068Z" fill="#EF4646"/>
<rect x="187" width="177" height="180" rx="6" fill="#28292A"/>
<path d="M274.247 1.2401L242.044 11.041C241.356 11.2504 240.721 11.6057 240.183 12.0827L222.441 27.8087L227.77 61.4225C227.962 62.634 228.593 63.7327 229.542 64.5094L246.669 78.5227C247.159 78.9232 247.72 79.2272 248.323 79.4185L276.413 88.3359C277.852 88.7928 279.223 89.4393 280.492 90.2584L303.022 104.809L311.573 109.271L351.051 89.7592C352.375 89.1046 353.779 88.6255 355.227 88.3339L364 86.5671V98.808L357.596 100.098C357.17 100.183 356.757 100.324 356.368 100.517L316.218 120.361L297.154 168.02C296.832 168.826 296.725 169.704 296.844 170.564L298.155 180H286.04L284.958 172.215C284.552 169.288 284.915 166.306 286.013 163.563L303.914 118.81L296.978 115.191L273.981 100.339C273.608 100.098 273.205 99.9078 272.782 99.7734L244.692 90.856C242.642 90.2054 240.735 89.1718 239.071 87.8102L221.943 73.7969C218.715 71.1559 216.571 67.4206 215.918 63.3015L210.436 28.7207L187 9.82097V6C187 2.6863 189.686 0 193 0H193.938L215.817 17.6445L232.223 3.10251C233.719 1.7769 235.434 0.72773 237.288 0H273.87L274.247 1.2401Z" fill="#121212"/>
<path d="M191.718 0.137179C189.02 0.724208 187 3.12616 187 6V7.894L211.827 27.9156L217.399 63.0667C217.995 66.8223 219.95 70.2281 222.893 72.636L240.02 86.6493C241.538 87.8908 243.277 88.8332 245.146 89.4264L273.235 98.3438C273.786 98.5185 274.31 98.7656 274.795 99.0788L297.734 113.893L305.81 118.107L287.405 164.12C286.405 166.621 286.074 169.34 286.444 172.009L287.554 180H296.64L295.359 170.771C295.203 169.652 295.342 168.512 295.762 167.463L315.038 119.271L355.703 99.1722C356.209 98.922 356.746 98.7388 357.3 98.6273L364 97.2779V88.0973L355.523 89.8044C354.203 90.0703 352.923 90.5072 351.715 91.1039L311.555 110.953L302.266 106.107L279.678 91.5185C278.521 90.7717 277.271 90.1822 275.959 89.7657L247.869 80.8483C247.085 80.5995 246.356 80.2043 245.72 79.6837L228.592 65.6704C227.358 64.6606 226.538 63.2324 226.288 61.6574L220.831 27.2316L239.188 10.9602C239.888 10.3401 240.713 9.87826 241.607 9.60608L273.17 0H242.259L238.987 0.996015C236.854 1.64506 234.887 2.74646 233.218 4.22508L215.863 19.6085L191.718 0.137179Z" fill="#57595B"/>
<path d="M261.5 101H251V111.5H261.5V101Z" fill="#0F0F10"/>
<path d="M239.5 95.5L232 93.5L230 100L237 102L239.5 95.5Z" fill="#0F0F10"/>
<path d="M200.673 180H193C189.686 180 187 177.314 187 174V23.2294L189.552 36.949C189.662 37.5369 189.846 38.1083 190.101 38.6493L196.001 51.1879C197.318 53.9851 198 57.0383 198 60.1297V74.4116L200.673 180Z" fill="#174559"/>
<path d="M289.068 180L287.93 171.802C287.595 169.392 287.894 166.936 288.798 164.677L307.707 117.405L298.489 112.595L275.609 97.8186C275.012 97.4331 274.367 97.1289 273.689 96.9139L245.6 87.9965C243.912 87.4607 242.341 86.6095 240.97 85.4882L223.843 71.4749C221.185 69.3 219.419 66.2238 218.881 62.8316L213.981 31.9246C213.233 27.2033 214.945 22.4264 218.522 19.2556L234.213 5.34741C235.72 4.01188 237.497 3.01706 239.423 2.43083L247.41 0H268.018L241.17 8.17087C240.07 8.50586 239.054 9.07433 238.193 9.83749L222.502 23.7457C220.458 25.5575 219.479 28.2872 219.907 30.9851L224.807 61.8921C225.114 63.8305 226.123 65.5883 227.642 66.8311L244.77 80.8444C245.553 81.4852 246.451 81.9716 247.415 82.2778L275.505 91.1952C276.69 91.5714 277.82 92.1038 278.864 92.7783L301.511 107.404L311.284 112.504C313.56 113.691 314.567 116.41 313.614 118.793L294.369 166.905C293.853 168.196 293.682 169.6 293.873 170.977L295.126 180H289.068Z" fill="#237BFF"/>
</g>
<defs>
<clipPath id="clip0_3082_9547">
<rect width="364" height="180" fill="white"/>
</clipPath>
</defs>
</svg>
