<svg width="30" height="30" viewBox="0 0 30 30" fill="none" xmlns="http://www.w3.org/2000/svg">
<path fill-rule="evenodd" clip-rule="evenodd" d="M8 5C8.71004 5.00004 9.36268 5.37632 9.7207 5.98145L9.78906 6.10547L13.2363 13H16C16.7676 13 17.5353 13.2932 18.1211 13.8789L20.0049 15.7627C20.5352 15.2895 21.2333 15.0001 22 15L22.1543 15.0039C23.7394 15.0843 24.9999 16.3951 25 18V22.9951L24.999 23C24.9991 23.2579 24.9502 23.518 24.8477 23.7656C24.538 24.5128 23.8088 25 23 25H7C5.89549 24.9999 5 24.1045 5 23V7C5 5.89547 5.89549 5.00006 7 5H8Z" fill="#404040"/>
<path d="M15.0001 15L16.0001 16L22.0001 23H7.00012V15H15.0001Z" fill="#38A969"/>
<path d="M8.00012 7L12.0001 15H7.00012V7H8.00012Z" fill="#FFC107"/>
<path d="M15.293 15.2929C15.6835 14.9024 16.3165 14.9024 16.707 15.2929L21 19.5859V18C21 17.4477 21.4477 17 22 17C22.5523 17 23 17.4477 23 18V22C23 22.5522 22.5523 23 22 23H18C17.4477 22.9999 17 22.5522 17 22C17 21.4477 17.4477 21 18 21H19.5859L15.293 16.707C14.9024 16.3165 14.9024 15.6834 15.293 15.2929Z" fill="white"/>
</svg>
