<svg width="30" height="30" viewBox="0 0 30 30" fill="none" xmlns="http://www.w3.org/2000/svg">
<path opacity="0.2" d="M27 15C27 21.6274 21.6274 27 15 27C8.37258 27 3 21.6274 3 15C3 8.37258 8.37258 3 15 3C21.6274 3 27 8.37258 27 15Z" fill="#FF8800"/>
<path d="M7.44177 21.548C8.44688 19.8048 11.1218 18 15 18C18.8782 18 21.5531 19.8048 22.5583 21.548C20.7247 23.6626 18.0185 25 15 25C11.9815 25 9.27532 23.6626 7.44177 21.548Z" fill="#FF8800"/>
<path d="M19 12C19 14.2091 17.2092 16 15 16C12.7909 16 11 14.2091 11 12C11 9.79086 12.7909 8 15 8C17.2092 8 19 9.79086 19 12Z" fill="#FF8800"/>
</svg>
