<svg width="40" height="40" viewBox="0 0 40 40" fill="none" xmlns="http://www.w3.org/2000/svg">
<path fill-rule="evenodd" clip-rule="evenodd" d="M10 3C10 2.44772 9.55228 2 9 2C8.44772 2 8 2.44772 8 3V37C8 37.5523 8.44772 38 9 38C9.55228 38 10 37.5523 10 37L10 26H23.1162C24.9389 26 26.6628 25.1715 27.8015 23.7482L33.3753 16.7809C33.7797 16.2754 34 15.6473 34 15C34 14.3527 33.7797 13.7246 33.3753 13.2191L27.8015 6.25183C26.6628 4.82854 24.9389 4 23.1162 4H10V3ZM10 24L10 6H23.1162C24.3314 6 25.4806 6.55236 26.2397 7.50122L31.8136 14.4685C31.9342 14.6194 32 14.8068 32 15C32 15.1932 31.9342 15.3806 31.8136 15.5315L26.2397 22.4988C25.4806 23.4476 24.3314 24 23.1162 24H10Z" fill="#FF8800"/>
<path opacity="0.2" d="M8 6H23.882C24.6172 6 25.3424 6.17119 26 6.5C26.6576 6.82881 27.2297 7.30623 27.6708 7.89443L31.2432 12.6576C32.2893 14.0523 32.3115 15.9639 31.2982 17.3826L28.5327 21.2543C28.1805 21.7473 27.7416 22.1722 27.2375 22.5083L26.2596 23.1603C25.4383 23.7078 24.4732 24 23.4861 24H8V6Z" fill="#FF8800"/>
</svg>
