<svg width="30" height="30" viewBox="0 0 30 30" fill="none" xmlns="http://www.w3.org/2000/svg">
<path fill-rule="evenodd" clip-rule="evenodd" d="M15 24C19.9706 24 24 19.9706 24 15C24 10.0294 19.9706 6 15 6C10.0294 6 6 10.0294 6 15C6 19.9706 10.0294 24 15 24ZM15 26C21.0751 26 26 21.0751 26 15C26 8.92487 21.0751 4 15 4C8.92487 4 4 8.92487 4 15C4 21.0751 8.92487 26 15 26Z" fill="white" fill-opacity="0.3"/>
<circle cx="15" cy="16" r="7" fill="black" fill-opacity="0.3"/>
<circle cx="15" cy="15" r="7" fill="#59361B"/>
<path d="M20 15C20 17.7614 17.7614 20 15 20C12.2386 20 10 17.7614 10 15C10 12.2386 12.2386 10 15 10C17.7614 10 20 12.2386 20 15Z" fill="#78CC5C"/>
<path opacity="0.4" fill-rule="evenodd" clip-rule="evenodd" d="M15 19C17.2091 19 19 17.2091 19 15C19 12.7909 17.2091 11 15 11C12.7909 11 11 12.7909 11 15C11 17.2091 12.7909 19 15 19ZM15 20C17.7614 20 20 17.7614 20 15C20 12.2386 17.7614 10 15 10C12.2386 10 10 12.2386 10 15C10 17.7614 12.2386 20 15 20Z" fill="white" fill-opacity="0.3"/>
<path d="M19.9753 15.5C19.9916 15.3355 20 15.1687 20 15C20 12.2386 17.7614 10 15 10C12.2386 10 10 12.2386 10 15C10 15.1687 10.0084 15.3355 10.0247 15.5C10.2755 12.9733 12.4073 11 15 11C17.5927 11 19.7245 12.9733 19.9753 15.5Z" fill="white" fill-opacity="0.3"/>
</svg>
