<svg width="30" height="30" viewBox="0 0 30 30" fill="none" xmlns="http://www.w3.org/2000/svg">
<path d="M18 9C19.1046 9 20 8.10457 20 7C20 5.89543 19.1046 5 18 5C16.8954 5 16 5.89543 16 7C16 8.10457 16.8954 9 18 9Z" fill="#FF8800"/>
<path d="M13.5 13.5L15.4142 15.4142C15.7893 15.7893 16 16.298 16 16.8284V21C16 21.5523 15.5523 22 15 22C14.4477 22 14 21.5523 14 21V17L10.8 14.6C10.2964 14.2223 10 13.6295 10 13C10 12.3705 10.2964 11.7777 10.8 11.4L13.233 9.57522C13.7309 9.20184 14.3364 9 14.9587 9C15.6315 9 16.2831 9.23589 16.7999 9.66662L18.7104 11.2586C18.9028 11.419 19.1132 11.5566 19.3372 11.6686L20 12H21C21.5523 12 22 12.4477 22 13C22 13.5523 21.5523 14 21 14H20C19.3479 14 18.7105 13.807 18.1679 13.4453L16 12L13.5 13.5Z" fill="#FF8800"/>
<path fill-rule="evenodd" clip-rule="evenodd" d="M13 20C13 22.7614 10.7614 25 8 25C5.23858 25 3 22.7614 3 20C3 17.2386 5.23858 15 8 15C10.7614 15 13 17.2386 13 20ZM11 20C11 21.6569 9.65685 23 8 23C6.34315 23 5 21.6569 5 20C5 18.3431 6.34315 17 8 17C9.65685 17 11 18.3431 11 20Z" fill="#FF8800"/>
<path fill-rule="evenodd" clip-rule="evenodd" d="M27 20C27 22.7614 24.7614 25 22 25C19.2386 25 17 22.7614 17 20C17 17.2386 19.2386 15 22 15C24.7614 15 27 17.2386 27 20ZM25 20C25 21.6569 23.6569 23 22 23C20.3431 23 19 21.6569 19 20C19 18.3431 20.3431 17 22 17C23.6569 17 25 18.3431 25 20Z" fill="#FF8800"/>
</svg>
