<svg width="91" height="44" viewBox="0 0 91 44" fill="none" xmlns="http://www.w3.org/2000/svg">
<rect y="6" width="91" height="32" rx="6" fill="#FF8800" fill-opacity="0.2"/>
<path fill-rule="evenodd" clip-rule="evenodd" d="M5 21C5 15.4772 9.47715 11 15 11C20.5228 11 25 15.4772 25 21C25 25.1435 22.4799 28.6984 18.8889 30.2157C17.3611 30.8612 16.25 31.4167 15.9722 32.5278C15.8333 33.0833 15.4861 33.5 15 33.5C14.5139 33.5 14.1667 33.0833 14.0278 32.5278C13.75 31.4167 12.6389 30.8612 11.1111 30.2157C7.52006 28.6984 5 25.1435 5 21ZM15 26C17.7614 26 20 23.7614 20 21C20 18.2386 17.7614 16 15 16C12.2386 16 10 18.2386 10 21C10 23.7614 12.2386 26 15 26Z" fill="url(#paint0_linear_1826_2085)"/>
<path d="M20 21C20 23.7614 17.7614 26 15 26C12.2386 26 10 23.7614 10 21C10 18.2386 12.2386 16 15 16C17.7614 16 20 18.2386 20 21Z" fill="url(#paint1_linear_1826_2085)"/>
<path d="M22 11C22.5523 11 23 11.4477 23 12V14H25C25.5523 14 26 14.4477 26 15C26 15.5177 25.6067 15.9438 25.1025 15.9951L25 16H23V18C23 18.5523 22.5523 19 22 19C21.4477 19 21 18.5523 21 18V16H19L18.8975 15.9951C18.3933 15.9438 18 15.5177 18 15C18 14.4823 18.3933 14.0562 18.8975 14.0049L19 14H21V12C21 11.4477 21.4477 11 22 11Z" fill="url(#paint2_linear_1826_2085)"/>
<path d="M76.0626 23.7305V21.5474H79.6486V18.0693H81.8317V21.5474H85.4259V23.7305H81.8317V27.2085H79.6486V23.7305H76.0626Z" fill="#5714CC"/>
<path d="M70.402 27.665C67.9201 27.665 66.509 26.5527 66.3347 24.9839L66.3264 24.9507H68.7087L68.7253 24.9839C68.9162 25.5483 69.4724 25.9551 70.4269 25.9551C71.3566 25.9551 71.9875 25.5566 71.9875 24.9507V24.9341C71.9875 24.4443 71.6223 24.1372 70.6926 23.9297L69.1652 23.606C67.4221 23.2324 66.5588 22.3774 66.5588 21.0078V20.9995C66.5588 19.2812 68.0861 18.1357 70.3688 18.1357C72.7678 18.1357 74.0959 19.3311 74.1955 20.8003V20.8335H71.946L71.9377 20.792C71.8049 20.3022 71.2653 19.8457 70.3605 19.8457C69.5222 19.8457 68.9245 20.2358 68.9245 20.8501V20.8584C68.9245 21.3481 69.2648 21.6304 70.2111 21.8379L71.7302 22.1616C73.5563 22.5518 74.4113 23.3154 74.4113 24.6685V24.6768C74.4113 26.4863 72.7429 27.665 70.402 27.665Z" fill="#5714CC"/>
<path d="M55.9095 30.5039V18.335H58.3333V19.7461H58.4827C58.9559 18.7666 59.9271 18.1855 61.222 18.1855C63.5047 18.1855 64.9324 19.9785 64.9324 22.8921V22.9087C64.9324 25.8472 63.5379 27.6152 61.222 27.6152C59.9686 27.6152 58.9476 27.0093 58.4827 26.0132H58.3333V30.5039H55.9095ZM60.3919 25.6064C61.6702 25.6064 62.4671 24.5854 62.4671 22.9087V22.8921C62.4671 21.2153 61.6785 20.1943 60.3919 20.1943C59.1136 20.1943 58.3084 21.2153 58.3084 22.8921V22.9087C58.3084 24.5854 59.1219 25.6064 60.3919 25.6064Z" fill="#5714CC"/>
<path d="M48.5224 27.6152C46.7792 27.6152 45.5424 26.5361 45.5424 24.876V24.8594C45.5424 23.2158 46.8124 22.2529 49.0868 22.1201L51.2948 21.9873V21.2319C51.2948 20.4434 50.7553 19.9951 49.7592 19.9951C48.8876 19.9951 48.3315 20.3022 48.1405 20.8418L48.1239 20.875H45.8827L45.891 20.8003C46.0819 19.1982 47.5927 18.1357 49.892 18.1357C52.3158 18.1357 53.6855 19.2812 53.6855 21.2319V27.4741H51.2948V26.2622H51.1454C50.6806 27.1089 49.7177 27.6152 48.5224 27.6152ZM47.9081 24.7266C47.9081 25.4238 48.4975 25.8472 49.3358 25.8472C50.4565 25.8472 51.2948 25.1084 51.2948 24.1455V23.4731L49.4521 23.5894C48.4145 23.6558 47.9081 24.0459 47.9081 24.71V24.7266Z" fill="#5714CC"/>
<path d="M31 27.4741V15.4961H33.8721L37.1841 24.2617H37.3335L40.6372 15.4961H43.5093V27.4741H41.2764V19.3228H41.1104L38.0391 27.4741H36.4702L33.3989 19.3228H33.2329V27.4741H31Z" fill="#5714CC"/>
<defs>
<linearGradient id="paint0_linear_1826_2085" x1="15" y1="11" x2="15" y2="33.5" gradientUnits="userSpaceOnUse">
<stop stop-color="#FFAC4D"/>
<stop offset="1" stop-color="#FF8800"/>
</linearGradient>
<linearGradient id="paint1_linear_1826_2085" x1="15" y1="16" x2="15" y2="26" gradientUnits="userSpaceOnUse">
<stop stop-color="#B35F00"/>
<stop offset="1" stop-color="#CC6D00"/>
</linearGradient>
<linearGradient id="paint2_linear_1826_2085" x1="22" y1="11" x2="22" y2="19" gradientUnits="userSpaceOnUse">
<stop stop-color="#732EEB"/>
<stop offset="1" stop-color="#5714CC"/>
</linearGradient>
</defs>
</svg>
