<svg width="30" height="30" viewBox="0 0 30 30" fill="none" xmlns="http://www.w3.org/2000/svg">
<path d="M18 7C18 8.10457 17.1046 9 16 9C14.8954 9 14 8.10457 14 7C14 5.89543 14.8954 5 16 5C17.1046 5 18 5.89543 18 7Z" fill="#FF8800"/>
<path d="M13 13L10.2811 24.7821C10.1373 25.4051 10.6105 26 11.25 26C11.6939 26 12.0841 25.7057 12.2061 25.2788L14 19L16 21V25C16 25.5523 16.4477 26 17 26C17.5523 26 18 25.5523 18 25V20.8284C18 20.298 17.7893 19.7893 17.4142 19.4142L15.5 17.5L16 14L17.2929 15.2929C17.7456 15.7456 18.3597 16 19 16H20C20.5523 16 21 15.5523 21 15C21 14.4477 20.5523 14 20 14H19.3028C19.1054 14 18.9123 13.9416 18.7481 13.8321L17.721 13.1473C17.5762 13.0508 17.4591 12.9181 17.3812 12.7625L16.5 11C16.1936 10.3871 15.5672 10 14.882 10H14.5528C14.1893 10 13.8307 10.0846 13.5056 10.2472L10.3561 11.822C10.1202 11.9399 9.90495 12.0951 9.71851 12.2815L9.56302 12.437C9.20252 12.7975 9 13.2864 9 13.7962V16C9 16.5523 9.44772 17 10 17C10.5523 17 11 16.5523 11 16V14L13 13Z" fill="#FF8800"/>
</svg>
