<svg width="30" height="30" viewBox="0 0 30 30" fill="none" xmlns="http://www.w3.org/2000/svg">
<path opacity="0.4" d="M15 19H13C12.4477 19 12 19.4477 12 20C12 20.5523 12.4477 21 13 21H15V19Z" fill="#FF8800"/>
<path d="M15 8C15.5523 8 16 8.44772 16 9V13.0343C15.3666 14.0374 15 15.2259 15 16.5V17C13.8954 17 13 16.1045 13 15C13 14.2597 13.4022 13.6133 14 13.2675V9C14 8.44772 14.4477 8 15 8Z" fill="#FF8800"/>
<path opacity="0.6" d="M10 15C10 12.2386 12.2386 10 15 10C16.1328 10 17.1776 10.3767 18.0159 11.0117C18.6335 10.6188 19.3219 10.3273 20.0577 10.1606C18.7834 8.82915 16.9885 8 15 8C11.134 8 8 11.134 8 15V16C8 16.5523 8.44772 17 9 17C9.55228 17 10 16.5523 10 16V15Z" fill="#FF8800"/>
<path opacity="0.2" d="M22.5391 10.0826C22.2007 10.0282 21.8537 10 21.5 10C17.9101 10 15 12.9101 15 16.5V21.5C15 22.3808 15.1752 23.2207 15.4927 23.9867C15.3296 23.9955 15.1653 24 15 24C10.0294 24 6 19.9706 6 15C6 10.0294 10.0294 6 15 6C18.1559 6 20.9324 7.62435 22.5391 10.0826Z" fill="#FF8800"/>
<path d="M15.4927 23.9867C15.3296 23.9955 15.1653 24 15 24C10.0294 24 6 19.9706 6 15C6 10.0294 10.0294 6 15 6C18.1559 6 20.9324 7.62435 22.5391 10.0826C23.5785 10.2496 24.5355 10.663 25.3482 11.261C23.818 7.02648 19.7624 4 15 4C8.92487 4 4 8.92487 4 15C4 21.0751 8.92487 26 15 26C15.5744 26 16.1385 25.956 16.6892 25.8711C16.1889 25.3209 15.7818 24.6844 15.4927 23.9867Z" fill="#FF8800"/>
<path fill-rule="evenodd" clip-rule="evenodd" d="M21.5 12C19.0147 12 17 14.0147 17 16.5V21.5C17 23.9853 19.0147 26 21.5 26C23.9853 26 26 23.9853 26 21.5V16.5C26 14.0147 23.9853 12 21.5 12ZM22 18V14L19 20H21L21 24L24 18H22Z" fill="#FF8800"/>
</svg>
